<?xml version="1.0" encoding="UTF-8"?>
<svg width="174px" height="172px" viewBox="0 0 174 172" version="1.1" xmlns="http://www.w3.org/2000/svg" xmlns:xlink="http://www.w3.org/1999/xlink">
    <!-- Generator: Sketch 53.2 (72643) - https://sketchapp.com -->
    <title>ABC</title>
    <desc>Created with Sketch.</desc>
    <defs>
        <linearGradient x1="49.9998558%" y1="100.022917%" x2="49.9998558%" y2="2.86896341e-05%" id="linearGradient-1">
            <stop stop-color="#51C5D6" offset="0%"></stop>
            <stop stop-color="#27C0DA" offset="100%"></stop>
        </linearGradient>
        <polygon id="path-2" points="0.37542503 0.481726354 100.434002 0.481726354 100.434002 35.4814164 0.37542503 35.4814164"></polygon>
        <polygon id="path-4" points="0.115888995 0.0795216111 126.065402 0.0795216111 126.065402 87.6999783 0.115888995 87.6999783"></polygon>
    </defs>
    <g id="Page-1" stroke="none" stroke-width="1" fill="none" fill-rule="evenodd">
        <g id="LP-full-desktop" transform="translate(-337.000000, -1621.000000)">
            <g id="ABC" transform="translate(337.000000, 1621.000000)">
                <polygon id="Fill-1" fill="url(#linearGradient-1)" points="0 172 174 172 174 0 0 0"></polygon>
                <g id="Group-52" transform="translate(15.818182, 147.834711)" fill="#FEFEFE">
                    <path d="M3.24240136,0.509603306 L1.00016538,6.7522438 L0.197573022,6.7522438 L0.197573022,7.81089669 L3.08864803,7.81089669 L3.08864803,6.7522438 L2.1758658,6.7522438 L2.56076162,5.59390909 L4.96751365,5.59390909 L5.35240948,6.7522438 L4.44013975,6.7522438 L4.44013975,7.81089669 L8.41927579,7.81089669 L8.41927579,6.7522438 L7.61668343,6.7522438 L5.34113423,0.509603306 L3.24240136,0.509603306 Z M3.73697455,2.02028926 L3.78053799,2.02028926 L4.63745652,4.62321074 L2.88005602,4.62321074 L3.73697455,2.02028926 Z" id="Fill-3"></path>
                    <g id="Group-51" transform="translate(8.200177, 0.000000)">
                        <path d="M4.27429117,5.2079219 C4.27429117,4.25961198 3.99958523,3.55331033 3.33998347,3.55331033 C2.71369492,3.55331033 2.48255243,4.13807479 2.48255243,5.26335992 C2.48255243,6.32201281 2.70241968,6.86253347 3.33998347,6.86253347 C3.96627201,6.86253347 4.27429117,6.12318223 4.27429117,5.2079219 M1.20793737,7.39185992 C0.73540215,6.91743843 0.504772164,6.12318223 0.504772164,5.2079219 C0.504772164,4.23722355 0.778965592,3.47655 1.24073808,3.01278967 C1.58155795,2.67109959 2.04281792,2.47280207 2.58146707,2.47280207 C3.31794549,2.47280207 3.82379393,2.82568636 4.14206331,3.35501281 L4.14206331,1.18226901 L3.36202144,1.18226901 L3.36202144,0.178521074 L5.99940347,0.178521074 L5.99940347,6.80709545 L6.72511916,6.80709545 L6.72511916,7.81084339 L4.27429117,7.81084339 L4.27429117,6.70741364 C3.98830998,7.41371529 3.4388981,7.93184752 2.52662838,7.93184752 C1.95517852,7.93184752 1.53748199,7.72235579 1.20793737,7.39185992" id="Fill-5"></path>
                        <polygon id="Fill-7" points="7.60484443 3.59755413 6.94524267 3.59755413 6.94524267 2.5938062 10.407255 2.5938062 10.407255 3.59755413 9.64873862 3.59755413 10.659923 6.5864095 10.7147617 6.5864095 11.8135854 3.59755413 11.1872969 3.59755413 11.1872969 2.5938062 13.5064095 2.5938062 13.5064095 3.59755413 12.8688457 3.59755413 11.1324582 7.84335992 9.28588077 7.84335992"></polygon>
                        <path d="M16.9246534,5.71523306 L16.9246534,5.36234876 C16.8257388,5.38420413 16.7047862,5.39539835 16.4300802,5.45030331 C15.7704785,5.5718405 15.5726492,5.86981983 15.5726492,6.28880331 C15.5726492,6.5974438 15.7484405,6.89542314 16.1989377,6.89542314 C16.6827482,6.89542314 16.9246534,6.42100165 16.9246534,5.71523306 M13.7045463,6.53134463 C13.7045463,6.18965455 13.8470244,5.86981983 14.0668916,5.64860083 C14.3743983,5.33996033 14.891522,5.08622479 16.3198904,4.89912149 C16.9026155,4.8218281 16.9246534,4.81116694 16.9246534,4.71148512 L16.9246534,4.28130744 C16.9246534,3.61978264 16.6166343,3.36604711 16.0123837,3.36604711 C15.8253172,3.36604711 15.6054499,3.39909669 15.4296586,3.47639008 C15.5834119,3.60858843 15.6715638,3.78503058 15.6715638,4.04996033 C15.6715638,4.45774959 15.2979433,4.75572893 14.825408,4.75572893 C14.2098822,4.75572893 13.9244136,4.36979504 13.9244136,3.91722893 C13.9244136,2.91401405 15.1990286,2.47264215 16.5182321,2.47264215 C18.2433444,2.47264215 18.7486804,3.31060909 18.7486804,4.39218347 L18.7486804,6.65288182 C18.7486804,6.89542314 18.8588703,6.93966694 18.9905856,6.93966694 C19.1007755,6.93966694 19.2212156,6.82879091 19.3093675,6.38795207 L19.9141306,6.54253884 C19.727064,7.50204298 19.3093675,7.93222066 18.4632117,7.93222066 C17.7708092,7.93222066 17.2541981,7.57933636 17.1332454,6.75203058 L17.0784068,6.75203058 C16.7155489,7.64543554 16.1333363,7.93222066 15.330744,7.93222066 C14.4184742,7.93222066 13.7045463,7.40289421 13.7045463,6.53134463" id="Fill-9"></path>
                        <path d="M20.0570187,6.80709545 L20.7822218,6.80709545 L20.7822218,3.59755413 L20.0570187,3.59755413 L20.0570187,2.5938062 L22.5078467,2.5938062 L22.5078467,3.98402107 C22.7825526,3.15618223 23.3212017,2.47280207 24.3651868,2.47280207 C25.6070012,2.47280207 26.0359729,3.29957479 26.0359729,4.39181033 L26.0359729,6.80709545 L26.7499009,6.80709545 L26.7499009,7.81084339 L23.6507464,7.81084339 L23.6507464,6.80709545 L24.1786328,6.80709545 L24.1786328,4.54639711 C24.1786328,4.21536818 24.1125188,3.97282686 23.958253,3.81824008 C23.8485756,3.70789711 23.6948223,3.65299215 23.4857178,3.65299215 C23.0136951,3.65299215 22.6400745,4.12688058 22.6400745,4.75588884 L22.6400745,6.80709545 L23.1454104,6.80709545 L23.1454104,7.81084339 L20.0570187,7.81084339 L20.0570187,6.80709545 Z" id="Fill-11"></path>
                        <path d="M27.1896354,5.29587645 C27.1896354,3.59755413 28.3658483,2.47280207 30.1242738,2.47280207 C31.7725095,2.47280207 32.4869499,3.42111198 32.4869499,4.24841777 C32.4869499,4.82198802 32.1574053,5.22977727 31.5418795,5.22977727 C30.9699171,5.22977727 30.6516477,4.84384339 30.6516477,4.39181033 C30.6516477,4.0165376 30.8827902,3.7851905 31.1354582,3.68604174 C30.9811924,3.49840537 30.7392871,3.36567397 30.3549038,3.36567397 C29.6517386,3.36567397 29.1566529,4.03892603 29.1566529,5.18553347 C29.1566529,6.1892814 29.5523115,6.88438884 30.3441411,6.88438884 C30.9268662,6.88438884 31.2892115,6.5421657 31.4762781,5.99098388 L32.4756747,5.99098388 C32.2563199,7.09388058 31.4978035,7.93184752 30.1129986,7.93184752 C28.2776964,7.93184752 27.1896354,6.89505 27.1896354,5.29587645" id="Fill-13"></path>
                        <path d="M34.8830417,4.71153843 L36.5973913,4.71153843 C36.5533153,3.60864174 36.2786094,3.28880702 35.7625107,3.28880702 C35.2566623,3.28880702 34.9378804,3.63103017 34.8830417,4.71153843 L34.8830417,4.71153843 Z M34.8830417,5.47274504 C34.9486431,6.65293512 35.3996529,6.96157562 36.168932,6.96157562 C36.7731826,6.96157562 37.1360404,6.70784008 37.3338697,6.07883182 L38.3230161,6.07883182 C38.1579875,7.15987314 37.4655851,7.93227397 35.8829508,7.93227397 C34.1029999,7.93227397 32.9816256,6.88428223 32.9816256,5.25205909 C32.9816256,3.65288554 34.1798765,2.47269545 35.7840362,2.47269545 C37.6198509,2.47269545 38.4880447,3.65288554 38.38913,5.47274504 L34.8830417,5.47274504 Z" id="Fill-15"></path>
                        <path d="M42.7304064,5.2079219 C42.7304064,4.25961198 42.4557005,3.55331033 41.7960987,3.55331033 C41.1698102,3.55331033 40.9386677,4.13807479 40.9386677,5.26335992 C40.9386677,6.32201281 41.1590474,6.86253347 41.7960987,6.86253347 C42.4223872,6.86253347 42.7304064,6.12318223 42.7304064,5.2079219 M39.6640526,7.39185992 C39.1915174,6.91743843 38.9608874,6.12318223 38.9608874,5.2079219 C38.9608874,4.23722355 39.2355933,3.47655 39.6973658,3.01278967 C40.0376732,2.67109959 40.4994457,2.47280207 41.0375823,2.47280207 C41.7745732,2.47280207 42.2799092,2.82568636 42.5981785,3.35501281 L42.5981785,1.18226901 L41.8181367,1.18226901 L41.8181367,0.178521074 L44.4560312,0.178521074 L44.4560312,6.80709545 L45.1812344,6.80709545 L45.1812344,7.81084339 L42.7304064,7.81084339 L42.7304064,6.70741364 C42.4444252,7.41371529 41.8950133,7.93184752 40.9827436,7.93184752 C40.4112938,7.93184752 39.9941097,7.72235579 39.6640526,7.39185992" id="Fill-17"></path>
                        <path d="M49.3910517,6.75192397 C50.3909608,6.75192397 50.6989799,6.47633306 50.6989799,5.63783306 C50.6989799,4.96511405 50.3689228,4.58984132 49.3690137,4.58984132 L48.665336,4.58984132 L48.665336,6.75192397 L49.3910517,6.75192397 Z M49.3582509,3.53118843 C50.2259322,3.53118843 50.5011507,3.15644876 50.5011507,2.51677934 C50.5011507,1.87710992 50.2700082,1.61218017 49.3690137,1.61218017 L48.665336,1.61218017 L48.665336,3.53118843 L49.3582509,3.53118843 Z M45.6978968,6.75192397 L46.5881286,6.75192397 L46.5881286,1.61218017 L45.6978968,1.61218017 L45.6978968,0.553527273 L49.5996437,0.553527273 C52.0391964,0.553527273 52.5783581,1.47998182 52.5783581,2.3072876 C52.5783581,3.10101074 52.0391964,3.77426281 50.5887901,3.98375455 L50.5887901,4.06104793 C52.1273483,4.2486843 52.7977128,4.8329157 52.7977128,5.83666364 C52.7977128,6.95075455 51.9848702,7.81057686 49.6877956,7.81057686 L45.6978968,7.81057686 L45.6978968,6.75192397 Z" id="Fill-19"></path>
                        <path d="M53.3807454,6.80709545 L54.1064611,6.80709545 L54.1064611,3.59755413 L53.3807454,3.59755413 L53.3807454,2.5938062 L55.8315734,2.5938062 L55.8315734,3.99468223 C56.161118,2.9909343 56.7325679,2.47280207 57.4910843,2.47280207 C58.1614488,2.47280207 58.6011833,2.9909343 58.6011833,3.55331033 C58.6011833,4.17112438 58.1834868,4.60130207 57.6561129,4.60130207 C57.1282264,4.60130207 56.7325679,4.30332273 56.7325679,3.76333512 C56.7325679,3.75214091 56.7438431,3.72975248 56.7438431,3.71909132 C56.5347386,3.76333512 56.161118,3.99468223 55.9638013,4.61249628 L55.9638013,6.80709545 L56.9196344,6.80709545 L56.9196344,7.81084339 L53.3807454,7.81084339 L53.3807454,6.80709545 Z" id="Fill-21"></path>
                        <path d="M60.6347248,4.71153843 L62.3490743,4.71153843 C62.3049984,3.60864174 62.0302924,3.28880702 61.5141938,3.28880702 C61.0083453,3.28880702 60.6895634,3.63103017 60.6347248,4.71153843 L60.6347248,4.71153843 Z M60.6347248,5.47274504 C60.7003262,6.65293512 61.1513359,6.96157562 61.9206151,6.96157562 C62.5248656,6.96157562 62.8877235,6.70784008 63.0855528,6.07883182 L64.0746991,6.07883182 C63.9096706,7.15987314 63.2172681,7.93227397 61.6346339,7.93227397 C59.8546829,7.93227397 58.7333087,6.88428223 58.7333087,5.25205909 C58.7333087,3.65288554 59.931047,2.47269545 61.5362318,2.47269545 C63.3715339,2.47269545 64.2397277,3.65288554 64.1403006,5.47274504 L60.6347248,5.47274504 Z" id="Fill-23"></path>
                        <path d="M67.9104858,5.71523306 L67.9104858,5.36234876 C67.8115712,5.38420413 67.6906186,5.39539835 67.4159126,5.45030331 C66.7568234,5.5718405 66.5584816,5.86981983 66.5584816,6.28880331 C66.5584816,6.5974438 66.7347854,6.89542314 67.1847701,6.89542314 C67.6685806,6.89542314 67.9104858,6.42100165 67.9104858,5.71523306 M64.6903787,6.53134463 C64.6903787,6.18965455 64.8333693,5.86981983 65.052724,5.64860083 C65.3607432,5.33996033 65.8773544,5.08622479 67.3062353,4.89912149 C67.8884478,4.8218281 67.9104858,4.81116694 67.9104858,4.71148512 L67.9104858,4.28130744 C67.9104858,3.61978264 67.6029792,3.36604711 66.9982161,3.36604711 C66.8111496,3.36604711 66.5912823,3.39909669 66.415491,3.47639008 C66.5692443,3.60858843 66.6573962,3.78503058 66.6573962,4.04996033 C66.6573962,4.45774959 66.2837757,4.75572893 65.8112404,4.75572893 C65.1962271,4.75572893 64.910246,4.36979504 64.910246,3.91722893 C64.910246,2.91401405 66.184861,2.47264215 67.5040645,2.47264215 C69.2291768,2.47264215 69.7350253,3.31060909 69.7350253,4.39218347 L69.7350253,6.65288182 C69.7350253,6.89542314 69.8447026,6.93966694 69.976418,6.93966694 C70.0866079,6.93966694 70.207048,6.82879091 70.2951999,6.38795207 L70.899963,6.54253884 C70.7128964,7.50204298 70.2951999,7.93222066 69.4490441,7.93222066 C68.7566416,7.93222066 68.2400304,7.57933636 68.1190778,6.75203058 L68.0642391,6.75203058 C67.7018938,7.64543554 67.1191687,7.93222066 66.3165764,7.93222066 C65.4048191,7.93222066 64.6903787,7.40289421 64.6903787,6.53134463" id="Fill-25"></path>
                        <path d="M71.086927,6.0132124 L72.0099595,6.0132124 C72.5265706,6.66354298 73.1641344,7.09372066 73.746347,7.09372066 C74.1532808,7.09372066 74.3398348,6.92847273 74.3398348,6.65288182 C74.3398348,6.27760909 74.0871669,6.13421653 73.0426693,5.88048099 C71.8013675,5.5718405 71.1525284,5.1747124 71.1525284,4.20401405 C71.1525284,3.25570413 71.8890068,2.47264215 73.0867452,2.47264215 C73.8124609,2.47264215 74.3177969,2.73703884 74.6693795,3.12350579 L74.8672087,2.49449752 L75.8127917,2.49449752 L75.8127917,4.28130744 L74.8892467,4.28130744 C74.4607875,3.70773719 73.8565369,3.28875372 73.3506884,3.28875372 C72.9114665,3.28875372 72.7684759,3.47639008 72.7684759,3.72959256 C72.7684759,4.0718157 73.0319066,4.18215868 74.0323282,4.43589421 C75.1424272,4.72267934 75.988583,5.08622479 75.988583,6.17846033 C75.988583,7.12677025 75.2849053,7.93222066 73.9774895,7.93222066 C73.1087832,7.93222066 72.5593713,7.56814215 72.2185515,7.19286942 L72.0212347,7.90983223 L71.086927,7.90983223 L71.086927,6.0132124 Z" id="Fill-27"></path>
                        <path d="M78.9780089,1.23733388 L78.9780089,2.64887107 L80.626757,2.64887107 L80.626757,3.59771405 L78.9780089,3.59771405 L78.9780089,6.04604876 C78.9780089,6.50927603 79.1430374,6.78486694 79.4833448,6.78486694 C79.8241647,6.78486694 79.9451173,6.53166446 80.1316713,5.77045785 L80.857387,5.9469 C80.6375198,7.3253876 80.1096333,7.93200744 78.9452082,7.93200744 C77.7141565,7.93200744 77.1201562,7.31419339 77.1201562,5.97994959 L77.1201562,3.59771405 L76.2411997,3.59771405 L76.2411997,2.64887107 L77.1755074,2.64887107 L77.1755074,1.45801983 L78.9780089,1.23733388 Z" id="Fill-29"></path>
                        <path d="M81.3849147,4.25945207 C81.3849147,1.91026612 83.0116248,0.377191736 84.9130409,0.377191736 C85.8581114,0.377191736 86.5505138,0.685832231 86.9902484,1.24874132 L87.2316411,0.399047107 L88.3309773,0.399047107 L88.3309773,3.31060909 L87.067125,3.31060909 C86.6494285,1.95450992 86.0887414,1.3590843 85.1985096,1.3590843 C84.2426765,1.3590843 83.6158754,2.08670826 83.6158754,4.12672066 C83.6158754,6.11236116 84.3415911,6.83998512 85.4952535,6.83998512 C86.4843999,6.83998512 87.045087,6.10116694 87.2536791,4.9103157 L88.429892,4.9103157 C88.2428254,6.75203058 87.275717,7.98712562 85.2097849,7.98712562 C82.8686342,7.98712562 81.3849147,6.54253884 81.3849147,4.25945207" id="Fill-31"></path>
                        <path d="M92.1886995,5.71523306 L92.1886995,5.36234876 C92.0897849,5.38420413 91.9688323,5.39539835 91.6941263,5.45030331 C91.0350371,5.5718405 90.8366953,5.86981983 90.8366953,6.28880331 C90.8366953,6.5974438 91.0129991,6.89542314 91.4629838,6.89542314 C91.9467943,6.89542314 92.1886995,6.42100165 92.1886995,5.71523306 M88.9685924,6.53134463 C88.9685924,6.18965455 89.1110705,5.86981983 89.3309377,5.64860083 C89.6384444,5.33996033 90.155568,5.08622479 91.5844489,4.89912149 C92.1666615,4.8218281 92.1886995,4.81116694 92.1886995,4.71148512 L92.1886995,4.28130744 C92.1886995,3.61978264 91.8811929,3.36604711 91.2764298,3.36604711 C91.0893632,3.36604711 90.869496,3.39909669 90.6937047,3.47639008 C90.847458,3.60858843 90.9356099,3.78503058 90.9356099,4.04996033 C90.9356099,4.45774959 90.5619893,4.75572893 90.0894541,4.75572893 C89.4739283,4.75572893 89.1884596,4.36979504 89.1884596,3.91722893 C89.1884596,2.91401405 90.4630747,2.47264215 91.7822782,2.47264215 C93.5073905,2.47264215 94.013239,3.31060909 94.013239,4.39218347 L94.013239,6.65288182 C94.013239,6.89542314 94.1229163,6.93966694 94.2546317,6.93966694 C94.3648216,6.93966694 94.4852617,6.82879091 94.5734136,6.38795207 L95.1781766,6.54253884 C94.9911101,7.50204298 94.5734136,7.93222066 93.7272578,7.93222066 C93.0348553,7.93222066 92.5182441,7.57933636 92.3972915,6.75203058 L92.3424528,6.75203058 C91.9801075,7.64543554 91.3973824,7.93222066 90.59479,7.93222066 C89.6825203,7.93222066 88.9685924,7.40289421 88.9685924,6.53134463" id="Fill-33"></path>
                        <path d="M95.3210647,6.80709545 L96.0467804,6.80709545 L96.0467804,3.59755413 L95.3210647,3.59755413 L95.3210647,2.5938062 L97.7718927,2.5938062 L97.7718927,3.98402107 C98.0465987,3.15618223 98.5852478,2.47280207 99.6292329,2.47280207 C100.871047,2.47280207 101.300019,3.29957479 101.300019,4.39181033 L101.300019,6.80709545 L102.013947,6.80709545 L102.013947,7.81084339 L98.9147924,7.81084339 L98.9147924,6.80709545 L99.4426788,6.80709545 L99.4426788,4.54639711 C99.4426788,4.21536818 99.3765649,3.97282686 99.2222991,3.81824008 C99.1126217,3.70789711 98.9588684,3.65299215 98.7497639,3.65299215 C98.2772286,3.65299215 97.9041206,4.12688058 97.9041206,4.75588884 L97.9041206,6.80709545 L98.4094565,6.80709545 L98.4094565,7.81084339 L95.3210647,7.81084339 L95.3210647,6.80709545 Z" id="Fill-35"></path>
                        <path d="M102.453681,5.29587645 C102.453681,3.59755413 103.629894,2.47280207 105.38832,2.47280207 C107.036556,2.47280207 107.750996,3.42111198 107.750996,4.24841777 C107.750996,4.82198802 107.421451,5.22977727 106.805926,5.22977727 C106.234476,5.22977727 105.915694,4.84384339 105.915694,4.39181033 C105.915694,4.0165376 106.146836,3.7851905 106.399504,3.68604174 C106.245238,3.49840537 106.003333,3.36567397 105.61895,3.36567397 C104.915785,3.36567397 104.420699,4.03892603 104.420699,5.18553347 C104.420699,6.1892814 104.81687,6.88438884 105.607675,6.88438884 C106.190912,6.88438884 106.553258,6.5421657 106.740324,5.99098388 L107.739721,5.99098388 C107.520366,7.09388058 106.76185,7.93184752 105.377045,7.93184752 C103.541742,7.93184752 102.453681,6.89505 102.453681,5.29587645" id="Fill-37"></path>
                        <path d="M110.147395,4.71153843 L111.861745,4.71153843 C111.817669,3.60864174 111.542963,3.28880702 111.026352,3.28880702 C110.521016,3.28880702 110.202234,3.63103017 110.147395,4.71153843 L110.147395,4.71153843 Z M110.147395,5.47274504 C110.212997,6.65293512 110.663494,6.96157562 111.433286,6.96157562 C112.037536,6.96157562 112.400394,6.70784008 112.598223,6.07883182 L113.58737,6.07883182 C113.422341,7.15987314 112.729939,7.93227397 111.147304,7.93227397 C109.367353,7.93227397 108.245979,6.88428223 108.245979,5.25205909 C108.245979,3.65288554 109.443718,2.47269545 111.04839,2.47269545 C112.883692,2.47269545 113.751886,3.65288554 113.652971,5.47274504 L110.147395,5.47274504 Z" id="Fill-39"></path>
                        <path d="M114.258452,6.80709545 L114.983655,6.80709545 L114.983655,3.59755413 L114.258452,3.59755413 L114.258452,2.5938062 L116.70928,2.5938062 L116.70928,3.99468223 C117.038824,2.9909343 117.610274,2.47280207 118.368791,2.47280207 C119.039155,2.47280207 119.47889,2.9909343 119.47889,3.55331033 C119.47889,4.17112438 119.061193,4.60130207 118.533307,4.60130207 C118.005933,4.60130207 117.610274,4.30332273 117.610274,3.76333512 C117.610274,3.75214091 117.621549,3.72975248 117.621549,3.71909132 C117.412445,3.76333512 117.038824,3.99468223 116.841508,4.61249628 L116.841508,6.80709545 L117.797341,6.80709545 L117.797341,7.81084339 L114.258452,7.81084339 L114.258452,6.80709545 Z" id="Fill-41"></path>
                        <path d="M118.995438,6.9171719 C118.995438,6.29989091 119.467973,5.81480826 120.105537,5.81480826 C120.721063,5.81480826 121.193598,6.28869669 121.193598,6.89531653 C121.193598,7.51313058 120.721063,7.99821322 120.083499,7.99821322 C119.467973,7.99821322 118.995438,7.52379174 118.995438,6.9171719" id="Fill-43"></path>
                        <path d="M121.853046,6.80709545 L122.578249,6.80709545 L122.578249,3.59755413 L121.853046,3.59755413 L121.853046,2.5938062 L124.303874,2.5938062 L124.303874,3.98402107 C124.57858,3.15618223 125.117229,2.47280207 126.161214,2.47280207 C127.403028,2.47280207 127.832,3.29957479 127.832,4.39181033 L127.832,6.80709545 L128.545928,6.80709545 L128.545928,7.81084339 L125.446774,7.81084339 L125.446774,6.80709545 L125.97466,6.80709545 L125.97466,4.54639711 C125.97466,4.21536818 125.908546,3.97282686 125.75428,3.81824008 C125.644603,3.70789711 125.49085,3.65299215 125.281745,3.65299215 C124.80921,3.65299215 124.435589,4.12688058 124.435589,4.75588884 L124.435589,6.80709545 L124.941438,6.80709545 L124.941438,7.81084339 L121.853046,7.81084339 L121.853046,6.80709545 Z" id="Fill-45"></path>
                        <path d="M130.887079,4.71153843 L132.601428,4.71153843 C132.557352,3.60864174 132.282646,3.28880702 131.766548,3.28880702 C131.260699,3.28880702 130.941917,3.63103017 130.887079,4.71153843 L130.887079,4.71153843 Z M130.887079,5.47274504 C130.95268,6.65293512 131.40369,6.96157562 132.172969,6.96157562 C132.77722,6.96157562 133.140077,6.70784008 133.337907,6.07883182 L134.327053,6.07883182 C134.162025,7.15987314 133.469622,7.93227397 131.886988,7.93227397 C130.107037,7.93227397 128.985663,6.88428223 128.985663,5.25205909 C128.985663,3.65288554 130.183914,2.47269545 131.788073,2.47269545 C133.623888,2.47269545 134.492082,3.65288554 134.392655,5.47274504 L130.887079,5.47274504 Z" id="Fill-47"></path>
                        <path d="M137.470386,1.23733388 L137.470386,2.64887107 L139.119134,2.64887107 L139.119134,3.59771405 L137.470386,3.59771405 L137.470386,6.04604876 C137.470386,6.50927603 137.635415,6.78486694 137.975722,6.78486694 C138.316542,6.78486694 138.437494,6.53166446 138.624049,5.77045785 L139.349764,5.9469 C139.129897,7.3253876 138.602011,7.93200744 137.437585,7.93200744 C136.206534,7.93200744 135.613046,7.31419339 135.613046,5.97994959 L135.613046,3.59771405 L134.733577,3.59771405 L134.733577,2.64887107 L135.667885,2.64887107 L135.667885,1.45801983 L137.470386,1.23733388 Z" id="Fill-49"></path>
                    </g>
                </g>
                <g id="Group-55" transform="translate(40.264463, 58.280992)">
                    <mask id="mask-3" fill="white">
                        <use xlink:href="#path-2"></use>
                    </mask>
                    <g id="Clip-54"></g>
                    <path d="M87.1878152,0.481726354 C76.2239664,0.481726354 68.4848695,7.97859275 68.4848695,17.9610882 C68.4848695,27.9865243 76.2239664,35.4833907 87.1878152,35.4833907 C92.4961505,35.4833907 96.8122544,34.0120523 100.434002,30.332966 L95.7209026,25.2254821 C93.7857432,27.3897957 90.9579864,29.0906451 87.1878152,29.0906451 C80.4902532,29.0906451 76.1248459,24.399736 76.1248459,17.9610882 C76.1248459,11.5189853 80.4902532,6.87397842 87.1878152,6.87397842 C90.908683,6.87397842 93.6866228,8.52941919 95.6217822,10.647337 L100.384185,5.53985308 C96.8615579,2.18257576 92.9424492,0.481726354 87.1878152,0.481726354 L87.1878152,0.481726354 Z M35.7972131,34.8866621 L27.4628802,34.8866621 L25.0814221,29.6414715 L11.0915756,29.6414715 L8.71011747,34.8866621 L0.375270956,34.8866621 L17.9873784,0.481726354 L18.1856192,0.481726354 L35.7972131,34.8866621 Z M54.54484,34.8866621 L38.024598,34.8866621 L38.024598,1.08191001 L52.1140785,1.08191001 C59.3570596,1.08191001 63.6731635,4.53000459 63.6731635,10.2307622 C63.6731635,13.5455923 61.8874551,15.7059573 60.1505366,16.7646694 C63.8719179,17.9610882 66.6498577,20.3509642 66.6498577,25.0423669 C66.6498577,31.3428145 61.292219,34.8866621 54.54484,34.8866621 L54.54484,34.8866621 Z M53.4036712,20.442275 L45.565454,20.442275 L45.565454,28.4904614 L53.6024256,28.4904614 C56.8764811,28.4904614 58.9605779,27.1138889 58.9605779,24.492034 C58.9605779,21.8686983 56.9262981,20.442275 53.4036712,20.442275 L53.4036712,20.442275 Z M18.0864988,14.050023 L13.4725201,24.170225 L22.699964,24.170225 L18.0864988,14.050023 Z M51.1218471,7.47416208 L45.565454,7.47416208 L45.565454,14.8797176 L51.3206015,14.8797176 C54.1976617,14.8797176 56.0830041,13.4073921 56.0830041,11.1522612 C56.0830041,8.85418962 54.2474787,7.47416208 51.1218471,7.47416208 L51.1218471,7.47416208 Z" id="Fill-53" fill="#FEFEFE" mask="url(#mask-3)"></path>
                </g>
                <g id="Group-58" transform="translate(27.322314, 42.644628)">
                    <mask id="mask-5" fill="white">
                        <use xlink:href="#path-4"></use>
                    </mask>
                    <g id="Clip-57"></g>
                    <path d="M13.7756255,2.61134789 C7.65635863,2.61134789 2.67753787,7.33908494 2.67753787,13.1502406 L2.67753787,54.1661707 C2.67753787,59.9768199 7.65635863,64.704557 13.7756255,64.704557 L52.4073399,64.704557 L52.4073399,81.9723962 L71.6053612,64.704557 L112.405255,64.704557 C118.525034,64.704557 123.503855,59.9768199 123.503855,54.1661707 L123.503855,13.1502406 C123.503855,7.33908494 118.525034,2.61134789 112.405255,2.61134789 L13.7756255,2.61134789 Z M49.845691,87.6999783 L49.845691,67.2370924 L13.7756255,67.2370924 C6.24335311,67.2370924 0.115888995,61.3737664 0.115888995,54.1661707 L0.115888995,13.1502406 C0.115888995,5.94264493 6.24335311,0.0788125012 13.7756255,0.0788125012 L112.405255,0.0788125012 C119.937528,0.0788125012 126.065504,5.94264493 126.065504,13.1502406 L126.065504,54.1661707 C126.065504,61.3737664 119.937528,67.2370924 112.405255,67.2370924 L72.5967193,67.2370924 L49.845691,87.6999783 Z" id="Fill-56" fill="#FEFEFE" mask="url(#mask-5)"></path>
                </g>
            </g>
        </g>
    </g>
</svg>