<?xml version="1.0" encoding="UTF-8"?>
<svg width="170px" height="171px" viewBox="0 0 170 171" version="1.1" xmlns="http://www.w3.org/2000/svg" xmlns:xlink="http://www.w3.org/1999/xlink">
    <!-- Generator: Sketch 53.2 (72643) - https://sketchapp.com -->
    <title>AD</title>
    <desc>Created with Sketch.</desc>
    <defs>
        <polygon id="path-1" points="0.21707885 0.0343203879 91.9058335 0.0343203879 91.9058335 86.5238461 0.21707885 86.5238461"></polygon>
    </defs>
    <g id="Page-1" stroke="none" stroke-width="1" fill="none" fill-rule="evenodd">
        <g id="LP-full-desktop" transform="translate(-523.000000, -1438.000000)">
            <g id="AD" transform="translate(523.000000, 1438.000000)">
                <polygon id="Fill-1" fill="#ED3B71" points="0 171 170 171 170 0 0 0"></polygon>
                <g id="Group-43" transform="translate(14.406780, 145.350000)" fill="#FEFEFE">
                    <path d="M3.93497331,1.1051559 L1.224833,8.9017299 L0.253992153,8.9017299 L0.253992153,10.2242439 L3.74892022,10.2242439 L3.74892022,8.9017299 L2.6459619,8.9017299 L3.11109461,7.4555829 L6.02114303,7.4555829 L6.48578093,8.9017299 L5.38331742,8.9017299 L5.38331742,10.2242439 L10.1934825,10.2242439 L10.1934825,8.9017299 L9.22363127,8.9017299 L6.47291555,1.1051559 L3.93497331,1.1051559 Z M4.53271833,2.9919699 L4.58615911,2.9919699 L5.62231647,6.2428509 L3.49606616,6.2428509 L4.53271833,2.9919699 Z" id="Fill-2"></path>
                    <g id="Group-42" transform="translate(9.896441, 0.000000)">
                        <path d="M3.47097868,2.0140893 L3.47097868,3.7772703 L5.46412186,3.7772703 L5.46412186,4.9617873 L3.47097868,4.9617873 L3.47097868,8.0202933 C3.47097868,8.5989573 3.67039196,8.9426673 4.08257872,8.9426673 C4.49377584,8.9426673 4.64024316,8.6261463 4.86637684,7.6755573 L5.74320149,7.8961473 C5.47748206,9.6182883 4.83965645,10.3759893 3.4308981,10.3759893 C1.94296822,10.3759893 1.22547626,9.6044373 1.22547626,7.9371873 L1.22547626,4.9617873 L0.1621037,4.9617873 L0.1621037,3.7772703 L1.29178242,3.7772703 L1.29178242,2.2895703 L3.47097868,2.0140893 Z" id="Fill-4"></path>
                        <path d="M10.8046372,6.9595119 C10.8046372,5.2096689 10.485477,4.5761139 9.71503904,4.5761139 C8.95796132,4.5761139 8.69174706,5.2373709 8.69174706,6.9733629 C8.69174706,8.7226929 9.01090728,9.3562479 9.7813452,9.3562479 C10.5384229,9.3562479 10.8046372,8.6955039 10.8046372,6.9595119 M6.24683136,7.0005519 C6.24683136,4.9757409 7.78820202,3.5567829 9.75462481,3.5567829 C11.7744884,3.5567829 13.2490581,4.9069989 13.2490581,6.9318099 C13.2490581,8.9571339 11.7081822,10.3760919 9.74175943,10.3760919 C7.72189587,10.3760919 6.24683136,9.0253629 6.24683136,7.0005519" id="Fill-6"></path>
                        <path d="M18.9484678,6.9319638 C18.9484678,5.6781918 18.6827484,5.0035968 17.9786166,5.0035968 C17.2081787,5.0035968 16.8355777,5.9264838 16.8355777,7.0007058 C16.8355777,8.1164808 17.1943237,8.9983278 18.0449227,8.9983278 C18.6961086,8.9983278 18.9484678,8.2683288 18.9484678,6.9319638 L18.9484678,6.9319638 Z M13.8725833,11.2298778 L14.7499028,11.2298778 L14.7499028,4.9620438 L13.8725833,4.9620438 L13.8725833,3.7082718 L16.8355777,3.7082718 L16.8355777,5.2652268 C17.1943237,4.2730848 17.8059237,3.5564238 18.9222422,3.5564238 C19.5867882,3.5564238 20.0915067,3.8185668 20.4898384,4.2320448 C21.0613579,4.8245598 21.3399427,5.7469338 21.3399427,6.8493708 C21.3399427,8.0338878 21.0346375,8.9018838 20.4764783,9.4805478 C20.0113455,9.9627678 19.5066271,10.2243978 18.8425759,10.2243978 C17.938536,10.2243978 17.3007104,9.7970688 16.9954052,9.2045538 L16.9954052,11.2298778 L18.0850033,11.2298778 L18.0850033,12.4836498 L13.8725833,12.4836498 L13.8725833,11.2298778 Z" id="Fill-8"></path>
                        <path d="M22.6944191,1.6834608 C22.6944191,0.9534618 23.2392182,0.3747978 24.0235111,0.3747978 C24.8201746,0.3747978 25.3516134,0.9119088 25.3516134,1.6280568 C25.3516134,2.3585688 24.8073092,2.9367198 24.0235111,2.9367198 C23.225858,2.9367198 22.6944191,2.3996088 22.6944191,1.6834608 L22.6944191,1.6834608 Z M22.0298731,8.9706258 L23.0002191,8.9706258 L23.0002191,4.9620438 L22.0298731,4.9620438 L22.0298731,3.7082718 L25.2457215,3.7082718 L25.2457215,8.9706258 L26.2155727,8.9706258 L26.2155727,10.2243978 L22.0298731,10.2243978 L22.0298731,8.9706258 Z" id="Fill-10"></path>
                        <path d="M26.7464673,7.0832475 C26.7464673,4.9619925 28.1685858,3.5563725 30.2943413,3.5563725 C32.2869897,3.5563725 33.150949,4.7419155 33.150949,5.7750975 C33.150949,6.4912455 32.7526172,7.0006545 32.0084049,7.0006545 C31.3171385,7.0006545 30.9316721,6.5184345 30.9316721,5.9541345 C30.9316721,5.4852525 31.2107517,5.1959205 31.5165518,5.0722875 C31.3304987,4.8383595 31.0380588,4.6726605 30.5729261,4.6726605 C29.7228219,4.6726605 29.1250768,5.5129545 29.1250768,6.9457635 C29.1250768,8.1990225 29.6030749,9.0670185 30.5600608,9.0670185 C31.2641925,9.0670185 31.7026048,8.6402025 31.9287385,7.9512435 L33.1375888,7.9512435 C32.8718693,9.3286485 31.9549641,10.3756815 30.2804863,10.3756815 C28.0617043,10.3756815 26.7464673,9.0808695 26.7464673,7.0832475" id="Fill-12"></path>
                        <path d="M37.9729897,8.9428725 C39.7800798,8.9428725 40.391185,8.1302805 40.391185,5.6925045 C40.391185,3.3091065 39.726639,2.4411105 37.9066836,2.4411105 L37.3351641,2.4411105 L37.3351641,8.9428725 L37.9729897,8.9428725 Z M33.7477043,8.9018325 L34.8239423,8.9018325 L34.8239423,2.4821505 L33.7477043,2.4821505 L33.7477043,1.1601495 L37.7602163,1.1601495 C41.4273424,1.1601495 43.1018202,2.9510325 43.1018202,5.6781405 C43.1018202,8.4196125 41.4011168,10.2243465 37.813657,10.2243465 L33.7477043,10.2243465 L33.7477043,8.9018325 Z" id="Fill-14"></path>
                        <path d="M46.1962888,6.3532998 L48.2686035,6.3532998 C48.2161523,4.9753818 47.8836319,4.5762678 47.2591665,4.5762678 C46.6480613,4.5762678 46.2625949,5.0035968 46.1962888,6.3532998 L46.1962888,6.3532998 Z M46.1962888,7.3038888 C46.2759551,8.7782508 46.8207542,9.1635138 47.7510196,9.1635138 C48.4818718,9.1635138 48.9202841,8.8464798 49.1592831,8.0615898 L50.355268,8.0615898 C50.1553599,9.4112928 49.3191107,10.3757328 47.405139,10.3757328 C45.2526631,10.3757328 43.8973456,9.0670698 43.8973456,7.0284078 C43.8973456,5.0307858 45.3456897,3.5564238 47.2858869,3.5564238 C49.5051638,3.5564238 50.5546813,5.0307858 50.4349344,7.3038888 L46.1962888,7.3038888 Z" id="Fill-16"></path>
                        <path d="M51.1647969,8.9706771 L52.0421164,8.9706771 L52.0421164,4.9620951 L51.1647969,4.9620951 L51.1647969,3.7083231 L54.1277913,3.7083231 L54.1277913,5.4576531 C54.5266178,4.2043941 55.2173894,3.5564751 56.1342946,3.5564751 C56.9448131,3.5564751 57.476252,4.2043941 57.476252,4.9072041 C57.476252,5.6782431 56.9715335,6.2158671 56.3337079,6.2158671 C55.6958823,6.2158671 55.2173894,5.8434291 55.2173894,5.1688341 C55.2173894,5.1549831 55.2307496,5.1272811 55.2307496,5.1134301 C54.9783903,5.1688341 54.5266178,5.4576531 54.2876188,6.2297181 L54.2876188,8.9706771 L55.4435231,8.9706771 L55.4435231,10.2244491 L51.1647969,10.2244491 L51.1647969,8.9706771 Z" id="Fill-18"></path>
                        <path d="M66.9756476,3.556629 C68.4106315,3.556629 68.929205,4.590324 68.929205,5.953878 L68.929205,8.970831 L69.7931643,8.970831 L69.7931643,10.224603 L66.0988229,10.224603 L66.0988229,8.970831 L66.6837026,8.970831 L66.6837026,6.146766 C66.6837026,5.733288 66.6040362,5.416254 66.4179832,5.223879 C66.2977414,5.099733 66.1389035,5.030991 65.9127699,5.030991 C65.4080514,5.030991 64.9562789,5.623506 64.9562789,6.408396 L64.9562789,8.970831 L65.5139433,8.970831 L65.5139433,10.224603 L62.1258968,10.224603 L62.1258968,8.970831 L62.7102816,8.970831 L62.7102816,6.146766 C62.7102816,5.733288 62.6306153,5.416254 62.4445622,5.223879 C62.3253101,5.099733 62.1659774,5.030991 61.9398437,5.030991 C61.4351252,5.030991 60.9833527,5.623506 60.9833527,6.408396 L60.9833527,8.970831 L61.5410171,8.970831 L61.5410171,10.224603 L57.8605308,10.224603 L57.8605308,8.970831 L58.7378503,8.970831 L58.7378503,4.961736 L57.8605308,4.961736 L57.8605308,3.708477 L60.8235252,3.708477 L60.8235252,5.444469 C61.1560456,4.411287 61.8072314,3.556629 63.0032163,3.556629 C64.1457604,3.556629 64.6905594,4.272777 64.8498921,5.306472 C65.1952779,4.328181 65.8331035,3.556629 66.9756476,3.556629" id="Fill-20"></path>
                        <path d="M74.176199,7.606764 L74.176199,7.166097 C74.056452,7.193799 73.9104795,7.20765 73.5784539,7.276392 C72.7812956,7.427727 72.5418018,7.799652 72.5418018,8.322912 C72.5418018,8.708688 72.7540804,9.081126 73.2993743,9.081126 C73.8837591,9.081126 74.176199,8.488611 74.176199,7.606764 M70.2829391,8.626095 C70.2829391,8.199279 70.455632,7.799652 70.7218463,7.524171 C71.0934577,7.138395 71.7179231,6.821361 73.4453468,6.587433 C74.1494786,6.490989 74.176199,6.477651 74.176199,6.353505 L74.176199,5.815881 C74.176199,4.989438 73.8040928,4.672917 73.0732406,4.672917 C72.8476018,4.672917 72.5813875,4.713957 72.3691089,4.810401 C72.555162,4.975587 72.6610539,5.196177 72.6610539,5.527062 C72.6610539,6.035958 72.2097762,6.408396 71.6382567,6.408396 C70.8945392,6.408396 70.5486586,5.926176 70.5486586,5.361876 C70.5486586,4.108104 72.0900292,3.556629 73.6843459,3.556629 C75.7705156,3.556629 76.3821156,4.603662 76.3821156,5.953878 L76.3821156,8.777943 C76.3821156,9.081126 76.5152227,9.136017 76.6745554,9.136017 C76.8071677,9.136017 76.9531403,8.99802 77.059527,8.447058 L77.7903791,8.639946 C77.5647403,9.838827 77.059527,10.375938 76.036235,10.375938 C75.1989961,10.375938 74.5750255,9.935271 74.4285582,8.901576 L74.3617572,8.901576 C73.9238397,10.017864 73.2192131,10.375938 72.2493619,10.375938 C71.1468984,10.375938 70.2829391,9.714168 70.2829391,8.626095" id="Fill-22"></path>
                        <path d="M80.8190859,2.0140893 L80.8190859,3.7772703 L82.8122291,3.7772703 L82.8122291,4.9617873 L80.8190859,4.9617873 L80.8190859,8.0202933 C80.8190859,8.5989573 81.0184992,8.9426673 81.4306859,8.9426673 C81.841883,8.9426673 81.9883504,8.6261463 82.214484,7.6755573 L83.0913087,7.8961473 C82.8255893,9.6182883 82.1877636,10.3759893 80.7790053,10.3759893 C79.2910754,10.3759893 78.5735835,9.6044373 78.5735835,7.9371873 L78.5735835,4.9617873 L77.5102109,4.9617873 L77.5102109,3.7772703 L78.6403844,3.7772703 L78.6403844,2.2895703 L80.8190859,2.0140893 Z" id="Fill-24"></path>
                        <path d="M84.2859575,1.6834608 C84.2859575,0.9534618 84.8307566,0.3747978 85.6150495,0.3747978 C86.411713,0.3747978 86.9436467,0.9119088 86.9436467,1.6280568 C86.9436467,2.3585688 86.3988477,2.9367198 85.6150495,2.9367198 C84.8173964,2.9367198 84.2859575,2.3996088 84.2859575,1.6834608 L84.2859575,1.6834608 Z M83.6214115,8.9706258 L84.5917576,8.9706258 L84.5917576,4.9620438 L83.6214115,4.9620438 L83.6214115,3.7082718 L86.83726,3.7082718 L86.83726,8.9706258 L87.8071112,8.9706258 L87.8071112,10.2243978 L83.6214115,10.2243978 L83.6214115,8.9706258 Z" id="Fill-26"></path>
                        <path d="M91.3540945,2.0140893 L91.3540945,3.7772703 L93.3472377,3.7772703 L93.3472377,4.9617873 L91.3540945,4.9617873 L91.3540945,8.0202933 C91.3540945,8.5989573 91.5535078,8.9426673 91.9656946,8.9426673 C92.3768917,8.9426673 92.523359,8.6261463 92.7494927,7.6755573 L93.6263173,7.8961473 C93.3605979,9.6182883 92.7227723,10.3759893 91.3145088,10.3759893 C89.8260841,10.3759893 89.1085921,9.6044373 89.1085921,7.9371873 L89.1085921,4.9617873 L88.0452195,4.9617873 L88.0452195,3.7772703 L89.1753931,3.7772703 L89.1753931,2.2895703 L91.3540945,2.0140893 Z" id="Fill-28"></path>
                        <path d="M94.821461,1.6834608 C94.821461,0.9534618 95.3662601,0.3747978 96.150553,0.3747978 C96.9472165,0.3747978 97.4786554,0.9119088 97.4786554,1.6280568 C97.4786554,2.3585688 96.9343511,2.9367198 96.150553,2.9367198 C95.3528999,2.9367198 94.821461,2.3996088 94.821461,1.6834608 L94.821461,1.6834608 Z M94.156915,8.9706258 L95.127261,8.9706258 L95.127261,4.9620438 L94.156915,4.9620438 L94.156915,3.7082718 L97.3727635,3.7082718 L97.3727635,8.9706258 L98.3426147,8.9706258 L98.3426147,10.2243978 L94.156915,10.2243978 L94.156915,8.9706258 Z" id="Fill-30"></path>
                        <path d="M98.9528292,7.9789968 L100.068653,7.9789968 C100.693613,8.7915888 101.464051,9.3286998 102.168678,9.3286998 C102.660036,9.3286998 102.885675,9.1224738 102.885675,8.7782508 C102.885675,8.3093688 102.58037,8.1303318 101.318079,7.8138108 C99.8162936,7.4275218 99.0324955,6.9319638 99.0324955,5.7197448 C99.0324955,4.5347148 99.9226804,3.5564238 101.371025,3.5564238 C102.248344,3.5564238 102.859449,3.8873088 103.284501,4.3695288 L103.523995,3.5846388 L104.666539,3.5846388 L104.666539,5.8161888 L103.550221,5.8161888 C103.032142,5.1000408 102.30129,4.5762678 101.690185,4.5762678 C101.158746,4.5762678 100.985558,4.8107088 100.985558,5.1272298 C100.985558,5.5540458 101.304718,5.6920428 102.514063,6.0090768 C103.856021,6.3671508 104.879313,6.8216688 104.879313,8.1852228 C104.879313,9.3697398 104.028714,10.3757328 102.447262,10.3757328 C101.397745,10.3757328 100.733199,9.9212148 100.321507,9.4528458 L100.082013,10.3480308 L98.9528292,10.3480308 L98.9528292,7.9789968 Z" id="Fill-32"></path>
                        <path d="M105.648613,9.1082124 C105.648613,8.3371734 106.220132,7.7308074 106.99057,7.7308074 C107.734782,7.7308074 108.306302,8.3233224 108.306302,9.0810234 C108.306302,9.8525754 107.734782,10.4584284 106.964344,10.4584284 C106.220132,10.4584284 105.648613,9.8664264 105.648613,9.1082124" id="Fill-34"></path>
                        <path d="M109.102718,8.9706771 L109.980037,8.9706771 L109.980037,4.9620951 L109.102718,4.9620951 L109.102718,3.7083231 L112.065712,3.7083231 L112.065712,5.4443151 C112.398233,4.4111331 113.049418,3.5564751 114.311215,3.5564751 C115.813,3.5564751 116.331078,4.5901701 116.331078,5.9542371 L116.331078,8.9706771 L117.195037,8.9706771 L117.195037,10.2244491 L113.44775,10.2244491 L113.44775,8.9706771 L114.085576,8.9706771 L114.085576,6.1466121 C114.085576,5.7331341 114.005909,5.4304641 113.819856,5.2375761 C113.687244,5.1000921 113.501191,5.0308371 113.248337,5.0308371 C112.677312,5.0308371 112.22554,5.6233521 112.22554,6.4082421 L112.22554,8.9706771 L112.836645,8.9706771 L112.836645,10.2244491 L109.102718,10.2244491 L109.102718,8.9706771 Z" id="Fill-36"></path>
                        <path d="M120.023836,6.3532998 L122.096151,6.3532998 C122.0437,4.9753818 121.711179,4.5762678 121.086219,4.5762678 C120.475609,4.5762678 120.090142,5.0035968 120.023836,6.3532998 L120.023836,6.3532998 Z M120.023836,7.3038888 C120.103502,8.7782508 120.648302,9.1635138 121.578072,9.1635138 C122.309419,9.1635138 122.747337,8.8464798 122.986831,8.0615898 L124.182815,8.0615898 C123.983402,9.4112928 123.146658,10.3757328 121.232686,10.3757328 C119.08021,10.3757328 117.724893,9.0670698 117.724893,7.0284078 C117.724893,5.0307858 119.173237,3.5564238 121.113434,3.5564238 C123.332216,3.5564238 124.381734,5.0307858 124.262482,7.3038888 L120.023836,7.3038888 Z" id="Fill-38"></path>
                        <path d="M127.981564,2.0140893 L127.981564,3.7772703 L129.974707,3.7772703 L129.974707,4.9617873 L127.981564,4.9617873 L127.981564,8.0202933 C127.981564,8.5989573 128.180977,8.9426673 128.593164,8.9426673 C129.004361,8.9426673 129.150829,8.6261463 129.376962,7.6755573 L130.253787,7.8961473 C129.988068,9.6182883 129.350242,10.3759893 127.941978,10.3759893 C126.453554,10.3759893 125.736062,9.6044373 125.736062,7.9371873 L125.736062,4.9617873 L124.672689,4.9617873 L124.672689,3.7772703 L125.802863,3.7772703 L125.802863,2.2895703 L127.981564,2.0140893 Z" id="Fill-40"></path>
                    </g>
                </g>
                <path d="M68.5263789,58.425 L84.9997512,92.625 L77.2029654,92.625 L74.9746014,87.4147901 L61.8895566,87.4147901 L59.6616902,92.625 L51.8644068,92.625 L68.3412625,58.425 L68.5263789,58.425 Z M99.4806337,59.021181 C111.128538,59.021181 118.135593,65.1918502 118.135593,75.7990667 C118.135593,86.4082445 111.221096,92.625 99.4806337,92.625 L88.6189766,92.625 L88.6189766,59.021181 L99.4806337,59.021181 Z M99.2457548,86.2714562 C106.95048,86.2714562 110.939938,82.4286384 110.939938,75.8436823 C110.939938,69.2170523 106.904201,65.4208111 99.2457548,65.4208111 L95.7190876,65.4208111 L95.7190876,86.2714562 L99.2457548,86.2714562 Z M72.7472327,81.9726776 L68.4338207,71.9135945 L64.1169253,81.9726776 L72.7472327,81.9726776 Z" id="Fill-44" fill="#FEFEFE"></path>
                <g id="Group-48" transform="translate(38.898305, 42.750000)">
                    <mask id="mask-2" fill="white">
                        <use xlink:href="#path-1"></use>
                    </mask>
                    <g id="Clip-47"></g>
                    <path d="M13.1491054,2.53216522 C7.39992336,2.53216522 2.72260575,7.19514194 2.72260575,12.9271962 L2.72260575,53.3807924 C2.72260575,59.1118475 7.39992336,63.7748243 13.1491054,63.7748243 L36.0255682,63.7748243 L36.0255682,80.7356902 L54.0643596,63.7748243 L78.9738069,63.7748243 C84.7229889,63.7748243 89.4003066,59.1118475 89.4003066,53.3807924 L89.4003066,12.9271962 C89.4003066,7.19514194 84.7229889,2.53216522 78.9738069,2.53216522 L13.1491054,2.53216522 Z M33.5200413,86.5246954 L33.5200413,66.2726691 L13.1491054,66.2726691 C6.01837583,66.2726691 0.21707885,60.4896588 0.21707885,53.3807924 L0.21707885,12.9271962 C0.21707885,5.8178303 6.01837583,0.0343203879 13.1491054,0.0343203879 L78.9738069,0.0343203879 C86.1045365,0.0343203879 91.9058335,5.8178303 91.9058335,12.9271962 L91.9058335,53.3807924 C91.9058335,60.4896588 86.1045365,66.2726691 78.9738069,66.2726691 L55.0595549,66.2726691 L33.5200413,86.5246954 Z" id="Fill-46" fill="#FEFEFE" mask="url(#mask-2)"></path>
                </g>
            </g>
        </g>
    </g>
</svg>