<?xml version="1.0" encoding="UTF-8"?>
<svg width="122px" height="35px" viewBox="0 0 122 35" version="1.1" xmlns="http://www.w3.org/2000/svg" xmlns:xlink="http://www.w3.org/1999/xlink">
    <!-- Generator: Sketch 53.2 (72643) - https://sketchapp.com -->
    <title>Group 2</title>
    <desc>Created with Sketch.</desc>
    <g id="Page-1" stroke="none" stroke-width="1" fill="none" fill-rule="evenodd">
        <g id="LP-full-desktop" transform="translate(-934.000000, -300.000000)">
            <g id="Group-2" transform="translate(939.000000, 317.000000)">
                <path id="Line" d="M82.3888889,3.5 L0.5,3.5 C-1.15685425,3.5 -2.5,2.15685425 -2.5,0.5 C-2.5,-1.15685425 -1.15685425,-2.5 0.5,-2.5 L82.3888889,-2.5 L82.3888889,-14.4718627 C82.3888889,-15.591972 83.2969169,-16.5 84.4170262,-16.5 C84.7318845,-16.5 85.0424189,-16.4266928 85.3240368,-16.2858838 L115.267318,-1.31424328 C116.269174,-0.813315174 116.675257,0.40493222 116.174328,1.40678843 C115.978078,1.79928857 115.659818,2.11754893 115.267318,2.313799 L85.3240368,17.2854396 C84.3221805,17.7863677 83.1039331,17.3802852 82.603005,16.378429 C82.4621961,16.0968111 82.3888889,15.7862768 82.3888889,15.4714184 L82.3888889,3.5 Z" fill="#FFFFFF" fill-rule="nonzero"></path>
                <path d="M91.5968028,0.5 L0.5,0.5" id="Path-3" stroke="#FFFFFF" stroke-width="11" stroke-linecap="round" stroke-linejoin="round"></path>
            </g>
        </g>
    </g>
</svg>