<?xml version="1.0" encoding="UTF-8"?>
<svg width="173px" height="171px" viewBox="0 0 173 171" version="1.1" xmlns="http://www.w3.org/2000/svg" xmlns:xlink="http://www.w3.org/1999/xlink">
    <!-- Generator: Sketch 53.2 (72643) - https://sketchapp.com -->
    <title>B</title>
    <desc>Created with Sketch.</desc>
    <defs>
        <polygon id="path-1" points="0.00557978395 0.00346956522 27.3059409 0.00346956522 27.3059409 33.98454 0.00557978395 33.98454"></polygon>
        <polygon id="path-3" points="0.381617647 0.499101771 68.7374794 0.499101771 68.7374794 87.9042111 0.381617647 87.9042111"></polygon>
    </defs>
    <g id="Page-1" stroke="none" stroke-width="1" fill="none" fill-rule="evenodd">
        <g id="LP-full-desktop" transform="translate(-707.000000, -1256.000000)">
            <g id="B" transform="translate(707.000000, 1256.000000)">
                <polygon id="Fill-1" fill="#F1788F" points="0 171 173 171 173 0 0 0"></polygon>
                <g id="Group-36" transform="translate(25.950000, 145.350000)" fill="#FEFEFE">
                    <path d="M4.63431382,8.05226887 C5.83106676,8.05226887 6.19894618,7.73007637 6.19894618,6.75003262 C6.19894618,5.96400262 5.80460794,5.52510262 4.60836382,5.52510262 L3.76676971,5.52510262 L3.76676971,8.05226887 L4.63431382,8.05226887 Z M4.59513441,4.28770387 C5.63415206,4.28770387 5.96234324,3.84930262 5.96234324,3.10167637 C5.96234324,2.35405012 5.68656088,2.04482512 4.60836382,2.04482512 L3.76676971,2.04482512 L3.76676971,4.28770387 L4.59513441,4.28770387 Z M0.214672647,8.05226887 L1.28014912,8.05226887 L1.28014912,2.04482512 L0.214672647,2.04482512 L0.214672647,0.806927625 L4.88414618,0.806927625 C7.80377559,0.806927625 8.44794618,1.88971387 8.44794618,2.85679012 C8.44794618,3.78496387 7.80377559,4.57149262 6.06766971,4.81637887 L6.06766971,4.90665262 C7.90961088,5.12610262 8.71151676,5.80889137 8.71151676,6.98195137 C8.71151676,8.28418762 7.73813735,9.28966762 4.98896382,9.28966762 L0.214672647,9.28966762 L0.214672647,8.05226887 Z" id="Fill-2"></path>
                    <polygon id="Fill-4" points="9.32800735 8.11680712 10.2881574 8.11680712 10.2881574 1.54178587 9.32800735 1.54178587 9.32800735 0.368725875 12.5112074 0.368725875 12.5112074 8.11680712 13.4708485 8.11680712 13.4708485 9.28986712 9.32800735 9.28986712"></polygon>
                    <path d="M17.889065,6.84020662 L17.889065,6.42774037 C17.7710179,6.45367537 17.6260032,6.46664287 17.2973032,6.53098162 C16.5076091,6.67262662 16.2710062,7.02075412 16.2710062,7.51052662 C16.2710062,7.87162162 16.4816591,8.21974912 17.0210121,8.21974912 C17.5995444,8.21974912 17.889065,7.66513912 17.889065,6.84020662 M14.0357444,7.79431537 C14.0357444,7.39481662 14.2067091,7.02075412 14.4697709,6.76290037 C14.8376503,6.40230412 15.4558709,6.10554787 17.1655179,5.88659662 C17.8626062,5.79632287 17.889065,5.78335537 17.889065,5.66714662 L17.889065,5.16440662 C17.889065,4.39084537 17.5206768,4.09458787 16.7971297,4.09458787 C16.5737562,4.09458787 16.3106944,4.13349037 16.1000415,4.22326537 C16.2852532,4.37787787 16.3895621,4.58436037 16.3895621,4.89408412 C16.3895621,5.37039037 15.942815,5.71851787 15.3770032,5.71851787 C14.6402268,5.71851787 14.2982974,5.26764787 14.2982974,4.73897287 C14.2982974,3.56591287 15.8237503,3.05020537 17.4026297,3.05020537 C19.4674356,3.05020537 20.0724268,4.02975037 20.0724268,5.29358287 L20.0724268,7.93645912 C20.0724268,8.21974912 20.2042121,8.27161912 20.3614385,8.27161912 C20.4932238,8.27161912 20.6377297,8.14244287 20.7430562,7.62673537 L21.4660944,7.80728287 C21.2432297,8.92897162 20.7430562,9.43171162 19.7304974,9.43171162 C18.9021326,9.43171162 18.2828944,9.01924537 18.1388974,8.05216912 L18.0727503,8.05216912 C17.6392326,9.09655162 16.9421444,9.43171162 15.9819944,9.43171162 C14.8900591,9.43171162 14.0357444,8.81276287 14.0357444,7.79431537" id="Fill-6"></path>
                    <path d="M26.1082441,6.24724275 C26.1082441,5.1385215 25.7795441,4.313589 24.9903588,4.313589 C24.2403529,4.313589 23.9645706,4.9968765 23.9645706,6.3115815 C23.9645706,7.549479 24.2281412,8.18139525 24.9903588,8.18139525 C25.7398559,8.18139525 26.1082441,7.31756025 26.1082441,6.24724275 M22.4386088,8.79984525 C21.8733059,8.24523525 21.5970147,7.31756025 21.5970147,6.24724275 C21.5970147,5.1125865 21.9252059,4.22331525 22.4782971,3.68167275 C22.8863735,3.282174 23.4384471,3.05025525 24.0831265,3.05025525 C24.9639,3.05025525 25.5683824,3.4627215 25.95,4.08167025 L25.95,1.5415365 L25.0163088,1.5415365 L25.0163088,0.3684765 L28.17305,0.3684765 L28.17305,8.1170565 L29.0411029,8.1170565 L29.0411029,9.28961775 L26.1082441,9.28961775 L26.1082441,8.000349 C25.7658059,8.8252815 25.1084059,9.4317615 24.0169794,9.4317615 C23.3331206,9.4317615 22.8329471,9.18687525 22.4386088,8.79984525" id="Fill-8"></path>
                    <path d="M34.1565094,6.24724275 C34.1565094,5.1385215 33.8278094,4.313589 33.0386241,4.313589 C32.2891271,4.313589 32.0128359,4.9968765 32.0128359,6.3115815 C32.0128359,7.549479 32.2758976,8.18139525 33.0386241,8.18139525 C33.7881212,8.18139525 34.1565094,7.31756025 34.1565094,6.24724275 M30.4873829,8.79984525 C29.9215712,8.24523525 29.6457888,7.31756025 29.6457888,6.24724275 C29.6457888,5.1125865 29.97398,4.22331525 30.5270712,3.68167275 C30.9346388,3.282174 31.4867124,3.05025525 32.1313918,3.05025525 C33.0126741,3.05025525 33.6166476,3.4627215 33.9982653,4.08167025 L33.9982653,1.5415365 L33.0645741,1.5415365 L33.0645741,0.3684765 L36.2218241,0.3684765 L36.2218241,8.1170565 L37.0898771,8.1170565 L37.0898771,9.28961775 L34.1565094,9.28961775 L34.1565094,8.000349 C33.81458,8.8252815 33.1566712,9.4317615 32.0652447,9.4317615 C31.3813859,9.4317615 30.8812124,9.18687525 30.4873829,8.79984525" id="Fill-10"></path>
                    <path d="M39.8494815,5.66714662 L41.9020756,5.66714662 C41.8491579,4.37787787 41.5204579,4.00431412 40.9022374,4.00431412 C40.2972462,4.00431412 39.9156285,4.40381287 39.8494815,5.66714662 L39.8494815,5.66714662 Z M39.8494815,6.55691662 C39.9288579,7.93645912 40.4687197,8.29705537 41.3886726,8.29705537 C42.1122197,8.29705537 42.5462462,8.00029912 42.7828491,7.26564037 L43.9663726,7.26564037 C43.7694579,8.52947287 42.9405844,9.43171162 41.0472521,9.43171162 C38.9157903,9.43171162 37.5740226,8.20678162 37.5740226,6.29906287 C37.5740226,4.42974787 39.0078874,3.05020537 40.9286962,3.05020537 C43.1247785,3.05020537 44.1637962,4.42974787 44.0457491,6.55691662 L39.8494815,6.55691662 Z" id="Fill-12"></path>
                    <path d="M44.7682785,8.11680712 L45.6363315,8.11680712 L45.6363315,4.36520962 L44.7682785,4.36520962 L44.7682785,3.19165087 L47.7016462,3.19165087 L47.7016462,4.82904712 C48.0954756,3.65648587 48.7793344,3.05000587 49.6870756,3.05000587 C50.4889815,3.05000587 51.015105,3.65648587 51.015105,4.31383837 C51.015105,5.03552962 50.5154403,5.53876837 49.8839903,5.53876837 C49.2530491,5.53876837 48.7793344,5.19014212 48.7793344,4.55872462 C48.7793344,4.54525837 48.7930726,4.51982212 48.7930726,4.50685462 C48.5432403,4.55872462 48.0954756,4.82904712 47.8583638,5.55123712 L47.8583638,8.11680712 L49.0032168,8.11680712 L49.0032168,9.28986712 L44.7682785,9.28986712 L44.7682785,8.11680712 Z" id="Fill-14"></path>
                    <path d="M51.5007262,5.13867112 C51.5007262,2.39255362 53.447485,0.601043625 55.7229438,0.601043625 C56.8540585,0.601043625 57.6819144,0.961639875 58.2085468,1.61899237 L58.4980674,0.626479875 L59.8133762,0.626479875 L59.8133762,4.02994987 L58.300135,4.02994987 C57.8004703,2.44442362 57.1298409,1.74816862 56.0648732,1.74816862 C54.9210379,1.74816862 54.1710321,2.59903612 54.1710321,4.98405862 C54.1710321,7.30424362 55.039085,8.15511112 56.4195232,8.15511112 C57.6030468,8.15511112 58.2746938,7.29177487 58.5240174,5.89926487 L59.9314232,5.89926487 C59.7080497,8.05236862 58.5499674,9.49575112 56.0775938,9.49575112 C53.2760115,9.49575112 51.5007262,7.80748237 51.5007262,5.13867112" id="Fill-16"></path>
                    <path d="M64.4275406,6.84020662 L64.4275406,6.42774037 C64.3094935,6.45367537 64.1644788,6.46664287 63.8357788,6.53098162 C63.0460847,6.67262662 62.8094818,7.02075412 62.8094818,7.51052662 C62.8094818,7.87162162 63.0201347,8.21974912 63.5594876,8.21974912 C64.13802,8.21974912 64.4275406,7.66513912 64.4275406,6.84020662 M60.57422,7.79431537 C60.57422,7.39481662 60.7451847,7.02075412 61.0082465,6.76290037 C61.3761259,6.40230412 61.9943465,6.10554787 63.7039935,5.88659662 C64.4010818,5.79632287 64.4275406,5.78335537 64.4275406,5.66714662 L64.4275406,5.16440662 C64.4275406,4.39084537 64.0591524,4.09458787 63.3356053,4.09458787 C63.1122318,4.09458787 62.84917,4.13349037 62.6385171,4.22326537 C62.8237288,4.37787787 62.9280376,4.58436037 62.9280376,4.89408412 C62.9280376,5.37039037 62.4812906,5.71851787 61.9154788,5.71851787 C61.1787024,5.71851787 60.8367729,5.26764787 60.8367729,4.73897287 C60.8367729,3.56591287 62.3622259,3.05020537 63.9411053,3.05020537 C66.0054024,3.05020537 66.6109024,4.02975037 66.6109024,5.29358287 L66.6109024,7.93645912 C66.6109024,8.21974912 66.7426876,8.27161912 66.8999141,8.27161912 C67.0316994,8.27161912 67.1762053,8.14244287 67.2815318,7.62673537 L68.00457,7.80728287 C67.7817053,8.92897162 67.2815318,9.43171162 66.2689729,9.43171162 C65.4406082,9.43171162 64.82137,9.01924537 64.6773729,8.05216912 L64.6112259,8.05216912 C64.1777082,9.09655162 63.48062,9.43171162 62.52047,9.43171162 C61.4285347,9.43171162 60.57422,8.81276287 60.57422,7.79431537" id="Fill-18"></path>
                    <path d="M68.1751276,8.11680712 L69.0431806,8.11680712 L69.0431806,4.36520962 L68.1751276,4.36520962 L68.1751276,3.19165087 L71.1084953,3.19165087 L71.1084953,4.81657837 C71.4366865,3.84950212 72.0808571,3.05000587 73.3305276,3.05000587 C74.81731,3.05000587 75.3296953,4.01708212 75.3296953,5.29338337 L75.3296953,8.11680712 L76.1845188,8.11680712 L76.1845188,9.28986712 L72.4757041,9.28986712 L72.4757041,8.11680712 L73.1066453,8.11680712 L73.1066453,5.47393087 C73.1066453,5.08690087 73.0282865,4.80361087 72.8440924,4.62306337 C72.7123071,4.49388712 72.5286218,4.42954837 72.2782806,4.42954837 C71.7124688,4.42954837 71.2652129,4.98415837 71.2652129,5.71881712 L71.2652129,8.11680712 L71.8707129,8.11680712 L71.8707129,9.28986712 L68.1751276,9.28986712 L68.1751276,8.11680712 Z" id="Fill-20"></path>
                    <path d="M76.7083526,6.35023462 C76.7083526,4.36520962 78.1162674,3.05000587 80.2202526,3.05000587 C82.1934703,3.05000587 83.0482938,4.15872712 83.0482938,5.12580337 C83.0482938,5.79612337 82.6539556,6.27292837 81.9166703,6.27292837 C81.2333203,6.27292837 80.8522115,5.82205837 80.8522115,5.29338337 C80.8522115,4.85498212 81.1285026,4.58416087 81.430235,4.46845087 C81.2465497,4.24900087 80.9570291,4.09438837 80.4965438,4.09438837 C79.6549497,4.09438837 79.0631879,4.88091712 79.0631879,6.22155712 C79.0631879,7.39461712 79.5369026,8.20708087 80.4833144,8.20708087 C81.1804026,8.20708087 81.6149379,7.80708337 81.8383115,7.16269837 L83.0355732,7.16269837 C82.7720026,8.45196712 81.8642615,9.43151212 80.2070232,9.43151212 C78.0114497,9.43151212 76.7083526,8.22004837 76.7083526,6.35023462" id="Fill-22"></path>
                    <path d="M85.9138862,5.66714662 L87.9659715,5.66714662 C87.9130538,4.37787787 87.5843538,4.00431412 86.9661332,4.00431412 C86.3611421,4.00431412 85.9795244,4.40381287 85.9138862,5.66714662 L85.9138862,5.66714662 Z M85.9138862,6.55691662 C85.9927538,7.93645912 86.5326156,8.29705537 87.4525685,8.29705537 C88.1761156,8.29705537 88.6101421,8.00029912 88.846745,7.26564037 L90.0302685,7.26564037 C89.8333538,8.52947287 89.0044803,9.43171162 87.1111479,9.43171162 C84.9796862,9.43171162 83.6384274,8.20678162 83.6384274,6.29906287 C83.6384274,4.42974787 85.0722921,3.05020537 86.9925921,3.05020537 C89.1886744,3.05020537 90.2282009,4.42974787 90.109645,6.55691662 L85.9138862,6.55691662 Z" id="Fill-24"></path>
                    <path d="M90.8331921,8.11680712 L91.701245,8.11680712 L91.701245,4.36520962 L90.8331921,4.36520962 L90.8331921,3.19165087 L93.7665597,3.19165087 L93.7665597,4.82904712 C94.1603891,3.65648587 94.8442479,3.05000587 95.7519891,3.05000587 C96.553895,3.05000587 97.0800185,3.65648587 97.0800185,4.31383837 C97.0800185,5.03552962 96.5803538,5.53876837 95.9494126,5.53876837 C95.3174538,5.53876837 94.8442479,5.19014212 94.8442479,4.55872462 C94.8442479,4.54525837 94.8574774,4.51982212 94.8574774,4.50685462 C94.6081538,4.55872462 94.1603891,4.82904712 93.9232774,5.55123712 L93.9232774,8.11680712 L95.0681303,8.11680712 L95.0681303,9.28986712 L90.8331921,9.28986712 L90.8331921,8.11680712 Z" id="Fill-26"></path>
                    <path d="M96.5137488,8.24538487 C96.5137488,7.52369362 97.0790518,6.95661487 97.8412694,6.95661487 C98.5780459,6.95661487 99.1433488,7.51072612 99.1433488,8.21994862 C99.1433488,8.94163987 98.5780459,9.50921737 97.8158282,9.50921737 C97.0790518,9.50921737 96.5137488,8.95460737 96.5137488,8.24538487" id="Fill-28"></path>
                    <path d="M99.9328903,8.11680712 L100.800943,8.11680712 L100.800943,4.36520962 L99.9328903,4.36520962 L99.9328903,3.19165087 L102.866258,3.19165087 L102.866258,4.81657837 C103.194449,3.84950212 103.83862,3.05000587 105.08829,3.05000587 C106.575073,3.05000587 107.087458,4.01708212 107.087458,5.29338337 L107.087458,8.11680712 L107.942281,8.11680712 L107.942281,9.28986712 L104.233467,9.28986712 L104.233467,8.11680712 L104.863899,8.11680712 L104.863899,5.47393087 C104.863899,5.08690087 104.78554,4.80361087 104.601855,4.62306337 C104.47007,4.49388712 104.285876,4.42954837 104.036043,4.42954837 C103.470231,4.42954837 103.022976,4.98415837 103.022976,5.71881712 L103.022976,8.11680712 L103.628476,8.11680712 L103.628476,9.28986712 L99.9328903,9.28986712 L99.9328903,8.11680712 Z" id="Fill-30"></path>
                    <path d="M110.741421,5.66714662 L112.793507,5.66714662 C112.740589,4.37787787 112.411889,4.00431412 111.794177,4.00431412 C111.189186,4.00431412 110.807569,4.40381287 110.741421,5.66714662 L110.741421,5.66714662 Z M110.741421,6.55691662 C110.820798,7.93645912 111.360151,8.29705537 112.280104,8.29705537 C113.00416,8.29705537 113.438186,8.00029912 113.674789,7.26564037 L114.858313,7.26564037 C114.661398,8.52947287 113.832016,9.43171162 111.938683,9.43171162 C109.80773,9.43171162 108.465963,8.20678162 108.465963,6.29906287 C108.465963,4.42974787 109.899827,3.05020537 111.820127,3.05020537 C114.016719,3.05020537 115.055736,4.42974787 114.93718,6.55691662 L110.741421,6.55691662 Z" id="Fill-32"></path>
                    <path d="M118.619231,1.60627425 L118.619231,3.256638 L120.591431,3.256638 L120.591431,4.3648605 L118.619231,4.3648605 L118.619231,7.22718675 C118.619231,7.76882925 118.816146,8.090523 119.223713,8.090523 C119.631281,8.090523 119.776804,7.7942655 119.999669,6.90499425 L120.868231,7.11147675 C120.60466,8.72243925 119.973719,9.43166175 118.579543,9.43166175 C117.106499,9.43166175 116.39669,8.70947175 116.39669,7.1498805 L116.39669,4.3648605 L115.344443,4.3648605 L115.344443,3.256638 L116.462328,3.256638 L116.462328,1.864128 L118.619231,1.60627425 Z" id="Fill-34"></path>
                </g>
                <g id="Group-39" transform="translate(72.083333, 58.425000)">
                    <mask id="mask-2" fill="white">
                        <use xlink:href="#path-1"></use>
                    </mask>
                    <g id="Clip-38"></g>
                    <path d="M13.4429677,0.00114 C20.3507402,0.00114 26.196832,3.35521826 25.7813917,9.20292261 C25.5338522,14.3249922 22.7987436,15.0803661 21.5037265,15.768827 C24.4878964,16.703627 27.3067018,19.3727139 27.3067018,24.0918183 C27.3067018,30.4252617 22.1966342,33.98454 15.7611143,33.98454 L0.00481890432,33.98454 L0.00481890432,0.00114 L13.4429677,0.00114 Z M14.8622618,27.5579139 C17.9849118,27.5579139 19.9723294,26.1715748 19.9723294,23.5342096 C19.9723294,20.9008096 18.0331008,19.4658965 14.6730564,19.4658965 L7.19716042,19.4658965 L7.19716042,27.5579139 L14.8622618,27.5579139 Z M12.6856388,13.8714704 C15.4303853,13.8714704 18.5428902,13.2657835 18.5428902,10.1292965 C18.9486927,7.00222696 15.4775598,6.42776609 12.4964334,6.42776609 L7.19716042,6.42776609 L7.19716042,13.8714704 L12.6856388,13.8714704 Z" id="Fill-37" fill="#FEFEFE" mask="url(#mask-2)"></path>
                </g>
                <g id="Group-42" transform="translate(51.900000, 41.325000)">
                    <mask id="mask-4" fill="white">
                        <use xlink:href="#path-3"></use>
                    </mask>
                    <g id="Clip-41"></g>
                    <path d="M13.5128774,3.02338749 C7.67412735,3.02338749 2.92425971,7.73572406 2.92425971,13.5279501 L2.92425971,54.4097669 C2.92425971,60.2014881 7.67412735,64.9138246 13.5128774,64.9138246 L24.369645,64.9138246 L24.369645,82.0542295 L42.6872921,64.9138246 L55.6063215,64.9138246 C61.4445626,64.9138246 66.1944303,60.2014881 66.1944303,54.4097669 L66.1944303,13.5279501 C66.1944303,7.73572406 61.4445626,3.02338749 55.6063215,3.02338749 L13.5128774,3.02338749 Z M21.8255274,87.9045141 L21.8255274,67.4381103 L13.5128774,67.4381103 C6.27180971,67.4381103 0.380142059,61.5938841 0.380142059,54.4097669 L0.380142059,13.5279501 C0.380142059,6.34383291 6.27180971,0.499101771 13.5128774,0.499101771 L55.6063215,0.499101771 C62.8473891,0.499101771 68.7385479,6.34383291 68.7385479,13.5279501 L68.7385479,54.4097669 C68.7385479,61.5938841 62.8473891,67.4381103 55.6063215,67.4381103 L43.6978156,67.4381103 L21.8255274,87.9045141 Z" id="Fill-40" fill="#FEFEFE" mask="url(#mask-4)"></path>
                </g>
            </g>
        </g>
    </g>
</svg>