<?xml version="1.0" encoding="UTF-8"?>
<svg width="173px" height="171px" viewBox="0 0 173 171" version="1.1" xmlns="http://www.w3.org/2000/svg" xmlns:xlink="http://www.w3.org/1999/xlink">
    <!-- Generator: Sketch 53.2 (72643) - https://sketchapp.com -->
    <title>BC</title>
    <desc>Created with Sketch.</desc>
    <defs>
        <polygon id="path-1" points="0.335364754 16.8253941 0.335364754 0.171 123.479778 0.171 123.479778 16.8253941"></polygon>
        <polygon id="path-3" points="0.0691266949 0.415783333 58.9580579 0.415783333 58.9580579 36.9460542 0.0691266949 36.9460542"></polygon>
        <polygon id="path-5" points="0.151889881 0.490753714 84.8254355 0.490753714 84.8254355 86.4852588 0.151889881 86.4852588"></polygon>
    </defs>
    <g id="Page-1" stroke="none" stroke-width="1" fill="none" fill-rule="evenodd">
        <g id="LP-full-desktop" transform="translate(-522.000000, -1621.000000)">
            <g id="BC" transform="translate(522.000000, 1621.000000)">
                <polygon id="Fill-1" fill="#8A7FBB" points="0 171 173 171 173 0 0 0"></polygon>
                <g id="Group-24" transform="translate(24.508333, 143.925000)">
                    <path d="M5.33336666,10.2184068 C6.593017,10.2184068 6.98071898,9.87590382 6.98071898,8.83431265 C6.98071898,7.99842441 6.56506994,7.53219794 5.30491147,7.53219794 L4.41924364,7.53219794 L4.41924364,10.2184068 L5.33336666,10.2184068 Z M5.291192,6.21650382 C6.38468435,6.21650382 6.73122793,5.75078029 6.73122793,4.95563029 C6.73122793,4.16098324 6.44057848,3.83155676 5.30491147,3.83155676 L4.41924364,3.83155676 L4.41924364,6.21650382 L5.291192,6.21650382 Z M0.680434761,10.2184068 L1.80187417,10.2184068 L1.80187417,3.83155676 L0.680434761,3.83155676 L0.680434761,2.51636559 L5.59657718,2.51636559 C8.66922971,2.51636559 9.34808927,3.66759794 9.34808927,4.69560971 C9.34808927,5.68187735 8.66922971,6.51826853 6.84250805,6.77879206 L6.84250805,6.87435088 C8.78101796,7.10721265 9.62501926,7.83396265 9.62501926,9.08075382 C9.62501926,10.4653509 8.60063237,11.5341009 5.70582479,11.5341009 L0.680434761,11.5341009 L0.680434761,10.2184068 Z" id="Fill-2" fill="#FEFEFE"></path>
                    <polygon id="Fill-4" fill="#FEFEFE" points="10.2742041 10.2869074 11.2843634 10.2869074 11.2843634 3.29753382 10.2742041 3.29753382 10.2742041 2.05023971 13.625311 2.05023971 13.625311 10.2869074 14.6359784 10.2869074 14.6359784 11.5342015 10.2742041 11.5342015"></polygon>
                    <path d="M20.0214283,8.28595588 C20.0214283,6.54527647 19.6891123,5.91509118 18.8857613,5.91509118 C18.0961297,5.91509118 17.8197078,6.57293824 17.8197078,8.29953529 C17.8197078,10.0402147 18.1520238,10.6704 18.9548667,10.6704 C19.7439901,10.6704 20.0214283,10.0130559 20.0214283,8.28595588 M15.2709357,8.32719706 C15.2709357,6.31241471 16.8776378,4.90065882 18.9274278,4.90065882 C21.0320957,4.90065882 22.5691841,6.24401471 22.5691841,8.25879706 C22.5691841,10.2735794 20.9629902,11.6848324 18.9132002,11.6848324 C16.8095485,11.6848324 15.2709357,10.3414765 15.2709357,8.32719706" id="Fill-6" fill="#FEFEFE"></path>
                    <path d="M28.0095626,8.28595588 C28.0095626,6.54527647 27.6772467,5.91509118 26.8738956,5.91509118 C26.0842641,5.91509118 25.8078422,6.57293824 25.8078422,8.29953529 C25.8078422,10.0402147 26.1401582,10.6704 26.9430011,10.6704 C27.7321245,10.6704 28.0095626,10.0130559 28.0095626,8.28595588 M23.2590701,8.32719706 C23.2590701,6.31241471 24.8657721,4.90065882 26.9155622,4.90065882 C29.0202301,4.90065882 30.5573185,6.24401471 30.5573185,8.25879706 C30.5573185,10.2735794 28.9511246,11.6848324 26.9013346,11.6848324 C24.7976829,11.6848324 23.2590701,10.3414765 23.2590701,8.32719706" id="Fill-8" fill="#FEFEFE"></path>
                    <path d="M35.9838251,8.29968618 C35.9838251,7.121295 35.6377897,6.24416559 34.8069997,6.24416559 C34.0173681,6.24416559 33.7272268,6.97041265 33.7272268,8.36808618 C33.7272268,9.68378029 34.0041568,10.3557097 34.8069997,10.3557097 C35.5961231,10.3557097 35.9838251,9.43733912 35.9838251,8.29968618 M32.1205248,11.0135568 C31.5255064,10.4241097 31.2343488,9.43733912 31.2343488,8.29968618 C31.2343488,7.09363324 31.5803843,6.14810382 32.1621913,5.57223618 C32.5915598,5.14725088 33.1733668,4.90080971 33.8512102,4.90080971 C34.7790526,4.90080971 35.4157375,5.33937441 35.8176671,5.99722147 L35.8176671,3.29743324 L34.8339305,3.29743324 L34.8339305,2.05013912 L38.1575985,2.05013912 L38.1575985,10.2868068 L39.0712134,10.2868068 L39.0712134,11.5341009 L35.9838251,11.5341009 L35.9838251,10.1635862 C35.6235621,11.0407156 34.9314912,11.6849832 33.7821047,11.6849832 C33.0620867,11.6849832 32.5356657,11.4244597 32.1205248,11.0135568" id="Fill-10" fill="#FEFEFE"></path>
                    <mask id="mask-2" fill="white">
                        <use xlink:href="#path-1"></use>
                    </mask>
                    <g id="Clip-13"></g>
                    <polygon id="Fill-12" fill="#FEFEFE" mask="url(#mask-2)" points="39.9988526 8.79292059 43.6126619 8.79292059 43.6126619 7.29918529 39.9988526 7.29918529"></polygon>
                    <path d="M44.8438062,7.12119441 C44.8438062,4.20162088 46.8930881,2.29698265 49.2889136,2.29698265 C50.4799666,2.29698265 51.351915,2.68072676 51.9047587,3.379815 L52.2101439,2.32414147 L53.5953019,2.32414147 L53.5953019,5.94230029 L52.0023193,5.94230029 C51.4764064,4.25694441 50.7706161,3.516615 49.6486685,3.516615 C48.4444042,3.516615 47.6547726,4.42140618 47.6547726,6.95673265 C47.6547726,9.42365912 48.5688956,10.3279474 50.0211266,10.3279474 C51.2685819,10.3279474 51.9748804,9.41007971 52.2380909,7.92942088 L53.7197934,7.92942088 C53.4840218,10.2183062 52.2650217,11.7532826 49.6618799,11.7532826 C46.7132107,11.7532826 44.8438062,9.95828559 44.8438062,7.12119441" id="Fill-14" fill="#FEFEFE" mask="url(#mask-2)"></path>
                    <path d="M58.4531112,8.93007265 L58.4531112,8.49150794 C58.3286197,8.51916971 58.1761812,8.53274912 57.8296376,8.60114912 C56.9988477,8.75203147 56.7498647,9.12169324 56.7498647,9.64274029 C56.7498647,10.0264844 56.9714087,10.3966491 57.5389882,10.3966491 C58.1472179,10.3966491 58.4531112,9.80720206 58.4531112,8.93007265 M54.3962139,9.944505 C54.3962139,9.51951971 54.5755833,9.12169324 54.8530214,8.84759029 C55.2407234,8.46434912 55.8911277,8.14850206 57.6914267,7.91614324 C58.4251641,7.82008147 58.4531112,7.80650206 58.4531112,7.68277853 L58.4531112,7.148655 C58.4531112,6.32634618 58.0649011,6.01100206 57.3037247,6.01100206 C57.067445,6.01100206 56.7915313,6.05224324 56.5694792,6.148305 C56.7640923,6.31226382 56.8743562,6.53154618 56.8743562,6.86097265 C56.8743562,7.36743441 56.4043374,7.73759912 55.8088109,7.73759912 C55.0328988,7.73759912 54.6731439,7.25779324 54.6731439,6.69651088 C54.6731439,5.44921676 56.2788297,4.90050794 57.9409178,4.90050794 C60.114183,4.90050794 60.751376,5.94260206 60.751376,7.285455 L60.751376,10.0948844 C60.751376,10.3966491 60.8900951,10.4514697 61.0562531,10.4514697 C61.1949721,10.4514697 61.3469025,10.3141668 61.4581826,9.76646382 L62.2188509,9.95808441 C61.9840956,11.1505579 61.4581826,11.6851844 60.391113,11.6851844 C59.5196727,11.6851844 58.867744,11.2461168 58.7163217,10.2186079 L58.6467081,10.2186079 C58.1888844,11.3285991 57.4556551,11.6851844 56.4449877,11.6851844 C55.2956012,11.6851844 54.3962139,11.0268344 54.3962139,9.944505" id="Fill-15" fill="#FEFEFE" mask="url(#mask-2)"></path>
                    <path d="M62.3985759,10.2869074 L63.3121908,10.2869074 L63.3121908,6.29858382 L62.3985759,6.29858382 L62.3985759,5.05128971 L65.4864723,5.05128971 L65.4864723,6.77838971 C65.8325077,5.75037794 66.510351,4.90091029 67.8258955,4.90091029 C69.390931,4.90091029 69.9305634,5.92841912 69.9305634,7.28585735 L69.9305634,10.2869074 L70.830967,10.2869074 L70.830967,11.5342015 L66.9260001,11.5342015 L66.9260001,10.2869074 L67.590632,10.2869074 L67.590632,7.47747794 C67.590632,7.06607206 67.5078071,6.76481029 67.3137021,6.57268676 C67.1744749,6.43588676 66.9818942,6.36748676 66.7181756,6.36748676 C66.1226491,6.36748676 65.6511059,6.95643088 65.6511059,7.73800147 L65.6511059,10.2869074 L66.2882989,10.2869074 L66.2882989,11.5342015 L62.3985759,11.5342015 L62.3985759,10.2869074 Z" id="Fill-16" fill="#FEFEFE" mask="url(#mask-2)"></path>
                    <path d="M71.3830993,8.40922676 C71.3830993,6.29888559 72.8648017,4.90070912 75.0802416,4.90070912 C77.1574706,4.90070912 78.057366,6.07960324 78.057366,7.107615 C78.057366,7.82028265 77.641717,8.32674441 76.866313,8.32674441 C76.1462951,8.32674441 75.7453817,7.84744147 75.7453817,7.28565618 C75.7453817,6.81942971 76.0360312,6.53174735 76.3541196,6.40852676 C76.1600145,6.175665 75.8556456,6.01070029 75.3713992,6.01070029 C74.4847151,6.01070029 73.8622578,6.84709147 73.8622578,8.27242676 C73.8622578,9.51972088 74.3597155,10.3827679 75.3571716,10.3827679 C76.0914172,10.3827679 76.5482246,9.95828559 76.7834881,9.27277676 L78.0436466,9.27277676 C77.7667166,10.6432915 76.8114352,11.6848826 75.0665222,11.6848826 C72.7545379,11.6848826 71.3830993,10.3963474 71.3830993,8.40922676" id="Fill-17" fill="#FEFEFE" mask="url(#mask-2)"></path>
                    <path d="M81.0742769,7.68282882 L83.2348389,7.68282882 C83.1794529,6.31231412 82.8334174,5.91499059 82.1830131,5.91499059 C81.5453119,5.91499059 81.1438905,6.33997588 81.0742769,7.68282882 L81.0742769,7.68282882 Z M81.0742769,8.62886118 C81.1576099,10.0949347 81.7256975,10.4786788 82.6941903,10.4786788 C83.4558747,10.4786788 83.9131903,10.1633347 84.1621732,9.38226706 L85.407596,9.38226706 C85.2012959,10.7256229 84.3278231,11.6852347 82.3339272,11.6852347 C80.0910484,11.6852347 78.6789595,10.38312 78.6789595,8.35475824 C78.6789595,6.36713471 80.1881009,4.90055824 82.2099439,4.90055824 C84.5219282,4.90055824 85.6159286,6.36713471 85.4909291,8.62886118 L81.0742769,8.62886118 Z" id="Fill-18" fill="#FEFEFE" mask="url(#mask-2)"></path>
                    <path d="M86.2528168,10.2869074 L87.1664317,10.2869074 L87.1664317,6.29858382 L86.2528168,6.29858382 L86.2528168,5.05128971 L89.340205,5.05128971 L89.340205,6.79196912 C89.7558541,5.54517794 90.4758721,4.90091029 91.4306453,4.90091029 C92.2756629,4.90091029 92.8290147,5.54517794 92.8290147,6.24376324 C92.8290147,7.01125147 92.3031018,7.54587794 91.638978,7.54587794 C90.974346,7.54587794 90.4758721,7.17571324 90.4758721,6.50428676 C90.4758721,6.49070735 90.4895915,6.46304559 90.4895915,6.44946618 C90.2258729,6.50428676 89.7558541,6.79196912 89.5053468,7.55996029 L89.5053468,10.2869074 L90.7101193,10.2869074 L90.7101193,11.5342015 L86.2528168,11.5342015 L86.2528168,10.2869074 Z" id="Fill-19" fill="#FEFEFE" mask="url(#mask-2)"></path>
                    <path d="M92.2337423,10.4239588 C92.2337423,9.65697353 92.8292688,9.05344412 93.6321117,9.05344412 C94.4070075,9.05344412 95.002534,9.64238824 95.002534,10.3962971 C95.002534,11.1642882 94.4070075,11.7673147 93.6041646,11.7673147 C92.8292688,11.7673147 92.2337423,11.1778676 92.2337423,10.4239588" id="Fill-20" fill="#FEFEFE" mask="url(#mask-2)"></path>
                    <path d="M95.5281421,8.40922676 C95.5281421,6.29888559 97.0093364,4.90070912 99.2252844,4.90070912 C101.302513,4.90070912 102.202409,6.07960324 102.202409,7.107615 C102.202409,7.82028265 101.78676,8.32674441 101.011356,8.32674441 C100.291338,8.32674441 99.8904245,7.84744147 99.8904245,7.28565618 C99.8904245,6.81942971 100.180058,6.53174735 100.499162,6.40852676 C100.305057,6.175665 100.000688,6.01070029 99.516442,6.01070029 C98.6297579,6.01070029 98.0067925,6.84709147 98.0067925,8.27242676 C98.0067925,9.51972088 98.5047583,10.3827679 99.5011982,10.3827679 C100.23646,10.3827679 100.692759,9.95828559 100.928531,9.27277676 L102.188689,9.27277676 C101.911759,10.6432915 100.95597,11.6848826 99.2110568,11.6848826 C96.8990725,11.6848826 95.5281421,10.3963474 95.5281421,8.40922676" id="Fill-21" fill="#FEFEFE" mask="url(#mask-2)"></path>
                    <path d="M107.573377,8.28595588 C107.573377,6.54527647 107.241061,5.91509118 106.43771,5.91509118 C105.648587,5.91509118 105.371657,6.57293824 105.371657,8.29953529 C105.371657,10.0402147 105.703973,10.6704 106.506815,10.6704 C107.296447,10.6704 107.573377,10.0130559 107.573377,8.28595588 M102.822884,8.32719706 C102.822884,6.31241471 104.430603,4.90065882 106.479376,4.90065882 C108.584044,4.90065882 110.121133,6.24401471 110.121133,8.25879706 C110.121133,10.2735794 108.514939,11.6848324 106.465149,11.6848324 C104.361497,11.6848324 102.822884,10.3414765 102.822884,8.32719706" id="Fill-22" fill="#FEFEFE" mask="url(#mask-2)"></path>
                    <path d="M120.338122,4.90065882 C121.834052,4.90065882 122.373684,5.92867059 122.373684,7.28560588 L122.373684,10.2866559 L123.274088,10.2866559 L123.274088,11.53395 L119.424507,11.53395 L119.424507,10.2866559 L120.032737,10.2866559 L120.032737,7.47772941 C120.032737,7.06632353 119.95042,6.75097941 119.756823,6.55885588 C119.631823,6.43563529 119.466173,6.36723529 119.229894,6.36723529 C118.704489,6.36723529 118.233454,6.95668235 118.233454,7.73775 L118.233454,10.2866559 L118.815769,10.2866559 L118.815769,11.53395 L115.284785,11.53395 L115.284785,10.2866559 L115.894031,10.2866559 L115.894031,7.47772941 C115.894031,7.06632353 115.810698,6.75097941 115.616592,6.55885588 C115.492609,6.43563529 115.326451,6.36723529 115.09068,6.36723529 C114.564767,6.36723529 114.093223,6.95668235 114.093223,7.73775 L114.093223,10.2866559 L114.674522,10.2866559 L114.674522,11.53395 L110.840185,11.53395 L110.840185,10.2866559 L111.7538,10.2866559 L111.7538,6.29883529 L110.840185,6.29883529 L110.840185,5.05154118 L113.928082,5.05154118 L113.928082,6.77864118 C114.273609,5.75062941 114.951452,4.90065882 116.1984,4.90065882 C117.388944,4.90065882 117.956524,5.61332647 118.123698,6.64133824 C118.483453,5.66814706 119.146561,4.90065882 120.338122,4.90065882" id="Fill-23" fill="#FEFEFE" mask="url(#mask-2)"></path>
                </g>
                <g id="Group-27" transform="translate(56.225000, 57.000000)">
                    <mask id="mask-4" fill="white">
                        <use xlink:href="#path-3"></use>
                    </mask>
                    <g id="Clip-26"></g>
                    <path d="M46.4836449,0.414291042 C36.1567178,0.414291042 28.866857,8.23801604 28.866857,18.6562702 C28.866857,29.118264 36.1567178,36.9461056 46.4836449,36.9461056 C51.4823064,36.9461056 55.5487594,35.408016 58.9590097,31.569739 L54.5208755,26.240714 C52.6975337,28.4966473 50.0351541,30.2709306 46.4836449,30.2709306 C40.1745817,30.2709306 36.063547,25.376214 36.063547,18.6562702 C36.063547,11.9373556 40.1745817,7.08637854 46.4836449,7.08637854 C49.9875669,7.08637854 52.6048638,8.81589312 54.426202,11.0234556 L58.9124243,5.69545979 C55.5943429,2.19166187 51.9030776,0.414291042 46.4836449,0.414291042 L46.4836449,0.414291042 Z M13.3393984,1.04002437 C20.1614017,1.04002437 25.9339816,4.52066604 25.5247315,10.5891473 C25.2797826,15.9109681 22.5778305,16.6946785 21.2994875,17.4084056 C24.2468895,18.379939 27.0304913,21.1514848 27.0304913,26.049289 C27.0304913,32.625664 21.9837416,36.3203723 15.6275921,36.3203723 L0.068575685,36.3203723 L0.068575685,1.04002437 L13.3393984,1.04002437 Z M14.7409671,29.649314 C17.8251198,29.649314 19.7877168,28.210539 19.7877168,25.4714119 C19.7877168,22.7374306 17.8722061,21.2466827 14.5541247,21.2466827 L7.17159405,21.2466827 L7.17159405,29.649314 L14.7409671,29.649314 Z M12.5915277,15.4396098 C15.3019954,15.4396098 18.3756287,14.8113035 18.3756287,11.5509035 C18.7763632,8.30799937 15.3485808,7.71211187 12.4046852,7.71211187 L7.17159405,7.71211187 L7.17159405,15.4396098 L12.5915277,15.4396098 Z" id="Fill-25" fill="#FEFEFE" mask="url(#mask-4)"></path>
                </g>
                <g id="Group-30" transform="translate(43.250000, 41.325000)">
                    <mask id="mask-6" fill="white">
                        <use xlink:href="#path-5"></use>
                    </mask>
                    <g id="Clip-29"></g>
                    <path d="M13.2181663,2.97268599 C7.40888461,2.97268599 2.68207152,7.60901713 2.68207152,13.3078201 L2.68207152,53.5302528 C2.68207152,59.2285591 7.40888461,63.8648903 13.2181663,63.8648903 L32.3486968,63.8648903 L32.3486968,80.7293337 L50.5759888,63.8648903 L71.7585516,63.8648903 C77.5683395,63.8648903 82.2946463,59.2285591 82.2946463,53.5302528 L82.2946463,13.3078201 C82.2946463,7.60901713 77.5683395,2.97268599 71.7585516,2.97268599 L13.2181663,2.97268599 Z M29.8171988,86.4852588 L29.8171988,66.3484617 L13.2181663,66.3484617 C6.01352291,66.3484617 0.150573502,60.5984971 0.150573502,53.5302528 L0.150573502,13.3078201 C0.150573502,6.23957584 6.01352291,0.489114557 13.2181663,0.489114557 L71.7585516,0.489114557 C78.9631949,0.489114557 84.8261443,6.23957584 84.8261443,13.3078201 L84.8261443,53.5302528 C84.8261443,60.5984971 78.9631949,66.3484617 71.7585516,66.3484617 L51.5814998,66.3484617 L29.8171988,86.4852588 Z" id="Fill-28" fill="#FEFEFE" mask="url(#mask-6)"></path>
                </g>
            </g>
        </g>
    </g>
</svg>