<?xml version="1.0" encoding="UTF-8"?>
<svg width="170px" height="171px" viewBox="0 0 170 171" version="1.1" xmlns="http://www.w3.org/2000/svg" xmlns:xlink="http://www.w3.org/1999/xlink">
    <!-- Generator: Sketch 53.2 (72643) - https://sketchapp.com -->
    <title>COPD</title>
    <desc>Created with Sketch.</desc>
    <defs>
        <polygon id="path-1" points="0.317916667 -0.000199827586 150.870763 -0.000199827586 150.870763 86.4893759 0.317916667 86.4893759"></polygon>
    </defs>
    <g id="Page-1" stroke="none" stroke-width="1" fill="none" fill-rule="evenodd">
        <g id="LP-full-desktop" transform="translate(-893.000000, -1438.000000)">
            <g id="COPD" transform="translate(893.000000, 1438.000000)">
                <polygon id="Fill-1" fill="#19AAA3" points="0 171 170 171 170 0 0 0"></polygon>
                <g id="Group-18" transform="translate(40.338983, 143.925000)" fill="#FEFEFE">
                    <path d="M0.318960499,7.12299444 C0.318960499,2.86382778 3.05695297,0.0850777778 6.25681078,0.0850777778 C7.84795155,0.0850777778 9.01286775,0.644522222 9.7520476,1.66418889 L10.1592312,0.124661111 L12.0091338,0.124661111 L12.0091338,5.40296667 L9.88142848,5.40296667 C9.17837764,2.94405 8.23609421,1.86474444 6.73722886,1.86474444 C5.12900005,1.86474444 4.07442378,3.18418889 4.07442378,6.88285556 C4.07442378,10.4817722 5.29499816,11.8012167 7.23619967,11.8012167 C8.90106314,11.8012167 9.84481125,10.4617167 10.1958484,8.30257778 L12.1751319,8.30257778 C11.8607119,11.6413 10.2329539,13.8801333 6.75578159,13.8801333 C2.81576747,13.8801333 0.318960499,11.2613 0.318960499,7.12299444" id="Fill-2"></path>
                    <path d="M22.3269908,6.98308056 C22.3269908,3.30394167 21.3827545,1.86469167 19.6261038,1.86469167 C17.8689649,1.86469167 17.0741269,3.30394167 17.0741269,6.98308056 C17.0741269,10.6817472 18.0173868,12.1014694 19.7740374,12.1014694 C21.5316645,12.1014694 22.3269908,10.6817472 22.3269908,6.98308056 M13.3191518,7.02266389 C13.3191518,2.80413611 16.0381033,0.085025 19.700803,0.085025 C23.4552898,0.085025 26.0809894,2.72391389 26.0809894,6.94244167 C26.0809894,11.1815528 23.3625261,13.8800806 19.700803,13.8800806 C15.9453397,13.8800806 13.3191518,11.2612472 13.3191518,7.02266389" id="Fill-4"></path>
                    <path d="M33.2749572,6.72304444 C34.7909106,6.72304444 35.2913461,6.08337778 35.2913461,4.46362778 C35.2913461,2.82382222 34.8285043,2.22426667 33.2749572,2.22426667 L32.1842519,2.22426667 L32.1842519,6.72304444 L33.2749572,6.72304444 Z M27.1891733,11.6414056 L28.6875504,11.6414056 L28.6875504,2.32401667 L27.1891733,2.32401667 L27.1891733,0.404488889 L33.5517835,0.404488889 C37.3995222,0.404488889 38.952581,2.00471111 38.952581,4.50321111 C38.952581,6.9426 37.343864,8.60246111 33.5517835,8.60246111 L32.1842519,8.60246111 L32.1842519,11.6414056 L33.792969,11.6414056 L33.792969,13.5609333 L27.1891733,13.5609333 L27.1891733,11.6414056 Z" id="Fill-6"></path>
                    <path d="M45.682877,11.7010972 C48.1982367,11.7010972 49.0497094,10.5215139 49.0497094,6.98329167 C49.0497094,3.52423611 48.1250023,2.26443056 45.5901134,2.26443056 L44.7957636,2.26443056 L44.7957636,11.7010972 L45.682877,11.7010972 Z M39.8006849,11.6414583 L41.2990621,11.6414583 L41.2990621,2.32406944 L39.8006849,2.32406944 L39.8006849,0.404541667 L45.3870098,0.404541667 C50.4924283,0.404541667 52.8217725,3.004375 52.8217725,6.96218056 C52.8217725,10.9421528 50.4543464,13.5604583 45.4607325,13.5604583 L39.8006849,13.5604583 L39.8006849,11.6414583 Z" id="Fill-8"></path>
                    <path d="M53.4687746,11.941025 C53.4687746,10.8216083 54.2645891,9.94180278 55.3362534,9.94180278 C56.3717887,9.94180278 57.167115,10.8015528 57.167115,11.9014417 C57.167115,13.0208583 56.3717887,13.9006639 55.2996362,13.9006639 C54.2645891,13.9006639 53.4687746,13.0409139 53.4687746,11.941025" id="Fill-10"></path>
                    <path d="M58.2776424,11.7413139 L59.4977285,11.7413139 L59.4977285,5.92309167 L58.2776424,5.92309167 L58.2776424,4.10331389 L62.4017191,4.10331389 L62.4017191,6.622925 C62.8640727,5.12298056 63.7697389,3.88323056 65.527366,3.88323056 C67.6179658,3.88323056 68.3381047,5.383175 68.3381047,7.36286944 L68.3381047,11.7413139 L69.5411028,11.7413139 L69.5411028,13.5605639 L64.3258326,13.5605639 L64.3258326,11.7413139 L65.2124578,11.7413139 L65.2124578,7.64259167 C65.2124578,7.04250833 65.1021179,6.60339722 64.8428679,6.32261944 C64.6578288,6.12311944 64.399067,6.02336944 64.0475416,6.02336944 C63.2522153,6.02336944 62.6228872,6.88259167 62.6228872,8.02259167 L62.6228872,11.7413139 L63.4743599,11.7413139 L63.4743599,13.5605639 L58.2776424,13.5605639 L58.2776424,11.7413139 Z" id="Fill-12"></path>
                    <path d="M73.4776017,7.94252778 L76.3635278,7.94252778 C76.2888286,5.94277778 75.8269633,5.36327778 74.9579143,5.36327778 C74.1064416,5.36327778 73.5698771,5.98341667 73.4776017,7.94252778 L73.4776017,7.94252778 Z M73.4776017,9.32213889 C73.5894063,11.46175 74.3476271,12.0211944 75.6419242,12.0211944 C76.659395,12.0211944 77.2696822,11.5609722 77.6021667,10.4215 L79.2665419,10.4215 C78.9897156,12.3811389 77.823823,13.7808056 75.1610179,13.7808056 C72.1647519,13.7808056 70.2777439,11.8813333 70.2777439,8.92208333 C70.2777439,6.023 72.2936445,3.88338889 74.9945315,3.88338889 C78.083073,3.88338889 79.5443446,6.023 79.3783465,9.32213889 L73.4776017,9.32213889 Z" id="Fill-14"></path>
                    <path d="M84.5562672,1.64445 L84.5562672,4.20364444 L87.3299004,4.20364444 L87.3299004,5.92261667 L84.5562672,5.92261667 L84.5562672,10.3617556 C84.5562672,11.20145 84.8326052,11.7012556 85.4062752,11.7012556 C85.9799452,11.7012556 86.1840252,11.2415611 86.4974687,9.86195 L87.7190195,10.1817833 C87.3489414,12.6808111 86.4603632,13.7807 84.500609,13.7807 C82.4285619,13.7807 81.4301321,12.6612833 81.4301321,10.24195 L81.4301321,5.92261667 L79.9503077,5.92261667 L79.9503077,4.20364444 L81.5224075,4.20364444 L81.5224075,2.04397778 L84.5562672,1.64445 Z" id="Fill-16"></path>
                </g>
                <path d="M37.3728959,94.05 C27.2877873,94.05 20.1694915,86.4209839 20.1694915,76.2141566 C20.1694915,66.0540161 27.2877873,58.425 37.3728959,58.425 C42.6669663,58.425 46.2684413,60.1554217 49.5092794,63.5730924 L45.1307471,68.7718876 C43.3500721,66.6172691 40.7952758,64.9305221 37.3728959,64.9305221 C31.209774,64.9305221 27.1962824,69.6584337 27.1962824,76.2141566 C27.1962824,82.7693775 31.209774,87.5444779 37.3728959,87.5444779 C40.8373583,87.5444779 43.4376624,85.8105422 45.2183373,83.609739 L49.5547872,88.8090361 C46.2229335,92.5535141 42.2549497,94.05 37.3728959,94.05 L37.3728959,94.05 Z M67.8068276,94.05 C57.90375,94.05 50.6039125,86.5610442 50.6039125,76.3075301 C50.6039125,65.9606426 57.90375,58.425 67.8068276,58.425 C77.6619507,58.425 85.0557397,65.9606426 85.0557397,76.3075301 C85.0557397,86.5610442 77.6619507,94.05 67.8068276,94.05 L67.8068276,94.05 Z M96.6181382,93.4541165 L89.6437057,93.4541165 L89.6437057,58.9822289 L103.123792,58.9822289 C109.510538,58.9822289 114.900028,63.0605422 114.900028,70.361747 C114.900028,77.6644578 109.559471,81.7462851 103.123792,81.7462851 L96.6181382,81.7462851 L96.6181382,93.4541165 Z M130.049221,93.4541165 L119.445911,93.4541165 L119.445911,58.9822289 L130.049221,58.9822289 C141.499074,58.9822289 148.389831,65.3326305 148.389831,76.1925703 C148.389831,87.0560241 141.593025,93.4541165 130.049221,93.4541165 L130.049221,93.4541165 Z M67.8068276,64.9305221 C61.8272047,64.9305221 57.6307034,69.6584337 57.6307034,76.3075301 C57.6307034,82.8592369 61.8272047,87.5444779 67.8068276,87.5444779 C73.7840038,87.5444779 77.9834411,82.8592369 77.9834411,76.3075301 C77.9834411,69.6584337 73.7840038,64.9305221 67.8068276,64.9305221 L67.8068276,64.9305221 Z M129.818257,65.6448795 L126.42279,65.6448795 L126.42279,86.9485944 L129.818257,86.9485944 C137.393588,86.9485944 141.317532,83.0389558 141.317532,76.296988 C141.317532,69.5113454 137.349059,65.6448795 129.818257,65.6448795 L129.818257,65.6448795 Z M102.442154,65.1599398 L96.6181382,65.1599398 L96.6181382,75.5685743 L102.442154,75.5685743 C105.682503,75.5685743 107.868833,73.8266064 107.868833,70.361747 C107.868833,66.9912651 105.682503,65.1599398 102.442154,65.1599398 L102.442154,65.1599398 Z" id="Fill-19" fill="#FEFEFE"></path>
                <g id="Group-23" transform="translate(8.644068, 42.750000)">
                    <mask id="mask-2" fill="white">
                        <use xlink:href="#path-1"></use>
                    </mask>
                    <g id="Clip-22"></g>
                    <path d="M13.0770975,2.497645 C7.40442797,2.497645 2.78966808,7.16062172 2.78966808,12.8921765 L2.78966808,53.3457726 C2.78966808,59.0768278 7.40442797,63.7398045 13.0770975,63.7398045 L65.6957415,63.7398045 L65.6957415,80.7006704 L83.4908686,63.7398045 L138.115092,63.7398045 C143.786773,63.7398045 148.401038,59.0768278 148.401038,53.3457726 L148.401038,12.8921765 C148.401038,7.16062172 143.786773,2.497645 138.115092,2.497645 L13.0770975,2.497645 Z M63.2239901,86.4896756 L63.2239901,66.2376493 L13.0770975,66.2376493 C6.04199859,66.2376493 0.317916667,60.454639 0.317916667,53.3457726 L0.317916667,12.8921765 C0.317916667,5.78331009 6.04199859,-0.000199827586 13.0770975,-0.000199827586 L138.115092,-0.000199827586 C145.149696,-0.000199827586 150.87279,5.78331009 150.87279,12.8921765 L150.87279,53.3457726 C150.87279,60.454639 145.149696,66.2376493 138.115092,66.2376493 L84.4726483,66.2376493 L63.2239901,86.4896756 Z" id="Fill-21" fill="#FEFEFE" mask="url(#mask-2)"></path>
                </g>
            </g>
        </g>
    </g>
</svg>