<?xml version="1.0" encoding="UTF-8"?>
<svg width="173px" height="172px" viewBox="0 0 173 172" version="1.1" xmlns="http://www.w3.org/2000/svg" xmlns:xlink="http://www.w3.org/1999/xlink">
    <!-- Generator: Sketch 53.2 (72643) - https://sketchapp.com -->
    <title>E</title>
    <desc>Created with Sketch.</desc>
    <defs>
        <polygon id="path-1" points="0.381210588 0.0746591432 68.7369706 0.0746591432 68.7369706 87.7662294 0.381210588 87.7662294"></polygon>
    </defs>
    <g id="Page-1" stroke="none" stroke-width="1" fill="none" fill-rule="evenodd">
        <g id="LP-full-desktop" transform="translate(-707.000000, -1621.000000)">
            <g id="E" transform="translate(707.000000, 1621.000000)">
                <polygon id="Fill-1" fill="#F06470" points="0 172 173 172 173 0 0 0"></polygon>
                <g id="Group-36" transform="translate(14.416667, 144.991736)" fill="#FEFEFE">
                    <path d="M0.135436915,10.6238963 L1.39971723,10.6238963 L1.39971723,2.96438802 L0.135436915,2.96438802 L0.135436915,1.38600372 L10.2015984,1.38600372 L10.2015984,5.38073926 L8.59417069,5.38073926 C8.26620686,3.26023512 8.00150766,2.91534669 6.64308957,2.91534669 L4.34936723,2.91534669 L4.34936723,5.98895826 L5.09842043,5.98895826 C5.84747362,5.98895826 5.90972601,5.8077186 6.08129968,4.54223926 L7.47008479,4.54223926 L7.47008479,8.96395413 L6.08129968,8.96395413 C5.94110527,7.71446653 5.83178399,7.51723512 5.09842043,7.51723512 L4.34936723,7.51723512 L4.34936723,10.6729376 L6.58033106,10.6729376 C8.25051723,10.6729376 8.45347016,10.0487269 8.73436511,7.74751612 L10.3417928,7.74751612 L10.3417928,12.2017475 L0.135436915,12.2017475 L0.135436915,10.6238963 Z" id="Fill-2"></path>
                    <path d="M11.4009945,10.7064136 L12.4314487,10.7064136 L12.4314487,5.92275248 L11.4009945,5.92275248 L11.4009945,4.42699215 L14.8810551,4.42699215 L14.8810551,6.49845496 C15.2712713,5.26549215 16.0365203,4.24628554 17.5184309,4.24628554 C19.2822487,4.24628554 19.8906014,5.47924835 19.8906014,7.10667397 L19.8906014,10.7064136 L20.905366,10.7064136 L20.905366,12.202174 L16.5041724,12.202174 L16.5041724,10.7064136 L17.2532256,10.7064136 L17.2532256,7.33695496 C17.2532256,6.84334339 17.1595939,6.48193017 16.9414575,6.25164917 C16.7850673,6.08746736 16.5669309,6.00537645 16.2703463,6.00537645 C15.5992352,6.00537645 15.0688245,6.71221116 15.0688245,7.64932686 L15.0688245,10.7064136 L15.7864985,10.7064136 L15.7864985,12.202174 L11.4009945,12.202174 L11.4009945,10.7064136 Z" id="Fill-4"></path>
                    <path d="M26.8654507,8.32273884 C26.8654507,6.90960248 26.4752344,5.85734628 25.538918,5.85734628 C24.6496703,5.85734628 24.3222126,6.72836281 24.3222126,8.40482975 C24.3222126,9.98321405 24.6339807,10.7886645 25.538918,10.7886645 C26.4286717,10.7886645 26.8654507,9.68736694 26.8654507,8.32273884 M22.5113259,11.577057 C21.8402148,10.8702223 21.512757,9.68736694 21.512757,8.32273884 C21.512757,6.87601983 21.9029733,5.74220579 22.5583948,5.05189587 C23.0422427,4.54229256 23.6976642,4.24644545 24.4619009,4.24644545 C25.5080448,4.24644545 26.2257188,4.7720405 26.6781874,5.56149917 L26.6781874,2.32317273 L25.5702972,2.32317273 L25.5702972,0.827412397 L29.3160693,0.827412397 L29.3160693,10.7065736 L30.3455113,10.7065736 L30.3455113,12.2018008 L26.8654507,12.2018008 L26.8654507,10.5578504 C26.4595448,11.6101066 25.6796185,12.3830405 24.3839589,12.3830405 C23.5726533,12.3830405 22.9794842,12.0706686 22.5113259,11.577057" id="Fill-6"></path>
                    <path d="M36.2906655,8.30637397 C36.2906655,6.21891942 35.9161389,5.46304339 35.0106956,5.46304339 C34.1209418,5.46304339 33.8091737,6.25196901 33.8091737,8.32289876 C33.8091737,10.4103533 34.1831942,11.1662293 35.0886376,11.1662293 C35.9778852,11.1662293 36.2906655,10.3778368 36.2906655,8.30637397 M30.9374658,8.35541529 C30.9374658,5.93959711 32.7478464,4.24607231 35.0572583,4.24607231 C37.4294288,4.24607231 39.1618674,5.8575062 39.1618674,8.27332438 C39.1618674,10.6902087 37.3514868,12.3826674 35.0420748,12.3826674 C32.6699043,12.3826674 30.9374658,10.7717665 30.9374658,8.35541529" id="Fill-8"></path>
                    <path d="M50.6776998,4.24623223 C52.3635756,4.24623223 52.9719282,5.47919504 52.9719282,7.10662066 L52.9719282,10.7063603 L53.9866929,10.7063603 L53.9866929,12.2021207 L49.6477516,12.2021207 L49.6477516,10.7063603 L50.3345524,10.7063603 L50.3345524,7.33690165 C50.3345524,6.84382314 50.2409208,6.46535207 50.0227844,6.23507107 C49.8820838,6.08741405 49.6948205,6.00532314 49.4296152,6.00532314 C48.8364461,6.00532314 48.3060354,6.71215785 48.3060354,7.64927355 L48.3060354,10.7063603 L48.9609509,10.7063603 L48.9609509,12.2021207 L44.9813527,12.2021207 L44.9813527,10.7063603 L45.6681535,10.7063603 L45.6681535,7.33690165 C45.6681535,6.84382314 45.5745219,6.46535207 45.3563854,6.23507107 C45.2156849,6.08741405 45.0284216,6.00532314 44.7632163,6.00532314 C44.1700471,6.00532314 43.6396365,6.71215785 43.6396365,7.64927355 L43.6396365,10.7063603 L44.295058,10.7063603 L44.295058,12.2021207 L39.9718064,12.2021207 L39.9718064,10.7063603 L41.0022607,10.7063603 L41.0022607,5.92323223 L39.9718064,5.92323223 L39.9718064,4.42693884 L43.4523732,4.42693884 L43.4523732,6.49840165 C43.8425894,5.26543884 44.6073322,4.24623223 46.011807,4.24623223 C47.3540293,4.24623223 47.9937612,5.10125702 48.1805184,6.33421983 C48.5864243,5.16682314 49.3359836,4.24623223 50.6776998,4.24623223" id="Fill-10"></path>
                    <path d="M57.3083389,7.58301446 L59.7427618,7.58301446 C59.6805094,5.93959711 59.2907993,5.46251033 58.5564235,5.46251033 C57.8387495,5.46251033 57.3862809,5.97264669 57.3083389,7.58301446 L57.3083389,7.58301446 Z M57.3083389,8.71736157 C57.4019705,10.4764525 58.0417024,10.9364814 59.133903,10.9364814 C59.9927836,10.9364814 60.5075046,10.5580103 60.7883995,9.62089463 L62.1933804,9.62089463 C61.9590482,11.2323285 60.9761689,12.3826674 58.7285032,12.3826674 C56.2004487,12.3826674 54.6087107,10.8213409 54.6087107,8.38846488 C54.6087107,6.00516322 56.30977,4.24607231 58.5883088,4.24607231 C61.1943054,4.24607231 62.4272064,6.00516322 62.287012,8.71736157 L57.3083389,8.71736157 Z" id="Fill-12"></path>
                    <path d="M66.6549538,2.40547686 L66.6549538,4.5094562 L68.9962511,4.5094562 L68.9962511,5.92312562 L66.6549538,5.92312562 L66.6549538,9.57190661 C66.6549538,10.2627496 66.8892859,10.6732041 67.3731338,10.6732041 C67.8569817,10.6732041 68.0285553,10.2952661 68.2937607,9.16091901 L69.3237088,9.42424959 C69.0114346,11.4786545 68.2623814,12.3827207 66.608391,12.3827207 C64.8602628,12.3827207 64.017578,11.4621298 64.017578,9.47329091 L64.017578,5.92312562 L62.7689873,5.92312562 L62.7689873,4.5094562 L64.09552,4.5094562 L64.09552,2.73437355 L66.6549538,2.40547686 Z" id="Fill-14"></path>
                    <path d="M69.9464352,10.7064136 L70.9768894,10.7064136 L70.9768894,5.92275248 L69.9464352,5.92275248 L69.9464352,4.42699215 L73.4264958,4.42699215 L73.4264958,6.51497975 C73.8951602,5.01921942 74.7064658,4.24628554 75.7834828,4.24628554 C76.7354889,4.24628554 77.3595312,5.01921942 77.3595312,5.85718636 C77.3595312,6.77724421 76.766362,7.41904587 76.0173089,7.41904587 C75.2687618,7.41904587 74.7064658,6.97500868 74.7064658,6.16955826 C74.7064658,6.15303347 74.7221554,6.11998388 74.7221554,6.10399215 C74.4255708,6.16955826 73.8951602,6.51497975 73.6142652,7.43557066 L73.6142652,10.7064136 L74.9721772,10.7064136 L74.9721772,12.202174 L69.9464352,12.202174 L69.9464352,10.7064136 Z" id="Fill-16"></path>
                    <path d="M78.5912176,2.01090744 C78.5912176,1.13989091 79.2309495,0.449580992 80.1520825,0.449580992 C81.088399,0.449580992 81.7124412,1.09031653 81.7124412,1.94480826 C81.7124412,2.81635785 81.0727093,3.50666777 80.1520825,3.50666777 C79.2152599,3.50666777 78.5912176,2.86593223 78.5912176,2.01090744 L78.5912176,2.01090744 Z M77.8107851,10.7061471 L78.9500545,10.7061471 L78.9500545,5.92301901 L77.8107851,5.92301901 L77.8107851,4.42725868 L81.5874303,4.42725868 L81.5874303,10.7061471 L82.7266998,10.7061471 L82.7266998,12.2019074 L77.8107851,12.2019074 L77.8107851,10.7061471 Z" id="Fill-18"></path>
                    <path d="M88.7031826,8.30637397 C88.7031826,6.21891942 88.328656,5.46304339 87.4237188,5.46304339 C86.5339651,5.46304339 86.222197,6.25196901 86.222197,8.32289876 C86.222197,10.4103533 86.5962174,11.1662293 87.5011547,11.1662293 C88.3909084,11.1662293 88.7031826,10.3778368 88.7031826,8.30637397 M83.350489,8.35541529 C83.350489,5.93959711 85.1603635,4.24607231 87.4702815,4.24607231 C89.842452,4.24607231 91.5748906,5.8575062 91.5748906,8.27332438 C91.5748906,10.6902087 89.76451,12.3826674 87.455098,12.3826674 C85.0824214,12.3826674 83.350489,10.7717665 83.350489,8.35541529" id="Fill-20"></path>
                    <path d="M92.4474363,9.5229186 L93.7582794,9.5229186 C94.491643,10.4925508 95.3970863,11.1332864 96.2240815,11.1332864 C96.8015611,11.1332864 97.0667664,10.8875467 97.0667664,10.4765591 C97.0667664,9.91684835 96.7074233,9.70362521 95.2255127,9.32568719 C93.4616948,8.86512521 92.541068,8.27343099 92.541068,6.82724504 C92.541068,5.41357562 93.5867057,4.24617893 95.2877651,4.24617893 C96.3177132,4.24617893 97.0358932,4.64064174 97.5349246,5.21634421 L97.8163257,4.27976157 L99.1580419,4.27976157 L99.1580419,6.94238554 L97.8471988,6.94238554 C97.2388462,6.08736074 96.3804717,5.46261694 95.6622916,5.46261694 C95.0382494,5.46261694 94.8352964,5.74247231 94.8352964,6.12041033 C94.8352964,6.63001364 95.209823,6.79419545 96.6299874,7.17213347 C98.2060358,7.59964587 99.4080637,8.1417657 99.4080637,9.76919132 C99.4080637,11.1828607 98.4089887,12.382774 96.5520454,12.382774 C95.3191443,12.382774 94.5387119,11.8406541 94.054864,11.2814764 L93.773969,12.3497244 L92.4474363,12.3497244 L92.4474363,9.5229186 Z" id="Fill-22"></path>
                    <path d="M100.982442,2.01090744 C100.982442,1.13989091 101.622174,0.449580992 102.543307,0.449580992 C103.479623,0.449580992 104.103666,1.09031653 104.103666,1.94480826 C104.103666,2.81635785 103.463934,3.50666777 102.543307,3.50666777 C101.606484,3.50666777 100.982442,2.86593223 100.982442,2.01090744 L100.982442,2.01090744 Z M100.202009,10.7061471 L101.341785,10.7061471 L101.341785,5.92301901 L100.202009,5.92301901 L100.202009,4.42725868 L103.978655,4.42725868 L103.978655,10.7061471 L105.117924,10.7061471 L105.117924,12.2019074 L100.202009,12.2019074 L100.202009,10.7061471 Z" id="Fill-24"></path>
                    <path d="M105.835294,9.5229186 L107.146137,9.5229186 C107.879501,10.4925508 108.784944,11.1332864 109.61194,11.1332864 C110.189419,11.1332864 110.454624,10.8875467 110.454624,10.4765591 C110.454624,9.91684835 110.095787,9.70362521 108.613371,9.32568719 C106.849553,8.86512521 105.928926,8.27343099 105.928926,6.82724504 C105.928926,5.41357562 106.974564,4.24617893 108.675623,4.24617893 C109.705571,4.24617893 110.423751,4.64064174 110.922783,5.21634421 L111.204184,4.27976157 L112.5459,4.27976157 L112.5459,6.94238554 L111.235057,6.94238554 C110.626704,6.08736074 109.76833,5.46261694 109.05015,5.46261694 C108.426107,5.46261694 108.223154,5.74247231 108.223154,6.12041033 C108.223154,6.63001364 108.597681,6.79419545 110.017845,7.17213347 C111.593894,7.59964587 112.795922,8.1417657 112.795922,9.76919132 C112.795922,11.1828607 111.796847,12.382774 109.939903,12.382774 C108.707002,12.382774 107.92657,11.8406541 107.442722,11.2814764 L107.161827,12.3497244 L105.835294,12.3497244 L105.835294,9.5229186 Z" id="Fill-26"></path>
                    <path d="M113.699138,10.8703822 C113.699138,9.95032438 114.370249,9.22696488 115.275693,9.22696488 C116.149757,9.22696488 116.820868,9.93326653 116.820868,10.8373326 C116.820868,11.7584566 116.149757,12.4812831 115.244313,12.4812831 C114.370249,12.4812831 113.699138,11.7744483 113.699138,10.8703822" id="Fill-28"></path>
                    <path d="M117.756476,10.7064136 L118.78693,10.7064136 L118.78693,5.92275248 L117.756476,5.92275248 L117.756476,4.42699215 L121.236537,4.42699215 L121.236537,6.49845496 C121.626753,5.26549215 122.392002,4.24628554 123.873912,4.24628554 C125.63773,4.24628554 126.246083,5.47924835 126.246083,7.10667397 L126.246083,10.7064136 L127.260847,10.7064136 L127.260847,12.202174 L122.859654,12.202174 L122.859654,10.7064136 L123.609213,10.7064136 L123.609213,7.33695496 C123.609213,6.84334339 123.515582,6.48193017 123.296939,6.25164917 C123.140549,6.08746736 122.922412,6.00537645 122.625828,6.00537645 C121.954717,6.00537645 121.424306,6.71221116 121.424306,7.64932686 L121.424306,10.7064136 L122.14198,10.7064136 L122.14198,12.202174 L117.756476,12.202174 L117.756476,10.7064136 Z" id="Fill-30"></path>
                    <path d="M130.583404,7.58301446 L133.017827,7.58301446 C132.955575,5.93959711 132.565359,5.46251033 131.831489,5.46251033 C131.113815,5.46251033 130.661347,5.97264669 130.583404,7.58301446 L130.583404,7.58301446 Z M130.583404,8.71736157 C130.677036,10.4764525 131.316768,10.9364814 132.408969,10.9364814 C133.267849,10.9364814 133.78257,10.5580103 134.063465,9.62089463 L135.46794,9.62089463 C135.233608,11.2323285 134.251235,12.3826674 132.003569,12.3826674 C129.475514,12.3826674 127.883776,10.8213409 127.883776,8.38846488 C127.883776,6.00516322 129.584329,4.24607231 131.863374,4.24607231 C134.469371,4.24607231 135.702272,6.00516322 135.561572,8.71736157 L130.583404,8.71736157 Z" id="Fill-32"></path>
                    <path d="M139.929969,2.40547686 L139.929969,4.5094562 L142.27076,4.5094562 L142.27076,5.92312562 L139.929969,5.92312562 L139.929969,9.57190661 C139.929969,10.2627496 140.164301,10.6732041 140.648149,10.6732041 C141.131491,10.6732041 141.303064,10.2952661 141.568776,9.16091901 L142.598724,9.42424959 C142.28645,11.4786545 141.537396,12.3827207 139.883406,12.3827207 C138.135278,12.3827207 137.292593,11.4621298 137.292593,9.47329091 L137.292593,5.92312562 L136.044002,5.92312562 L136.044002,4.5094562 L137.370535,4.5094562 L137.370535,2.73437355 L139.929969,2.40547686 Z" id="Fill-34"></path>
                </g>
                <polygon id="Fill-37" fill="#FEFEFE" points="73.525 59.7024793 73.525 95.2396694 96.5916667 95.2396694 96.5916667 88.5186168 80.8329771 88.5186168 80.8329771 80.3482302 94.1572102 80.3482302 94.1572102 74.1092522 80.8329771 74.1092522 80.8329771 66.4209402 96.2112669 66.4209402 96.2112669 59.7024793"></polygon>
                <g id="Group-40" transform="translate(50.458333, 44.066116)">
                    <mask id="mask-2" fill="white">
                        <use xlink:href="#path-1"></use>
                    </mask>
                    <g id="Clip-39"></g>
                    <path d="M13.5124194,2.60719453 C7.67468706,2.60719453 2.92532824,7.33493159 2.92532824,13.1460873 L2.92532824,54.1620174 C2.92532824,59.9726666 7.67468706,64.7004036 13.5124194,64.7004036 L24.3691871,64.7004036 L24.3691871,81.8968254 L42.6847988,64.7004036 L55.6063724,64.7004036 C61.4441047,64.7004036 66.1934635,59.9726666 66.1934635,54.1620174 L66.1934635,13.1460873 C66.1934635,7.33493159 61.4441047,2.60719453 55.6063724,2.60719453 L13.5124194,2.60719453 Z M21.8250694,87.7662294 L21.8250694,67.232939 L13.5124194,67.232939 C6.27186059,67.232939 0.381210588,61.3696131 0.381210588,54.1620174 L0.381210588,13.1460873 C0.381210588,5.93849157 6.27186059,0.0746591432 13.5124194,0.0746591432 L55.6063724,0.0746591432 C62.8469312,0.0746591432 68.7375812,5.93849157 68.7375812,13.1460873 L68.7375812,54.1620174 C68.7375812,61.3696131 62.8469312,67.232939 55.6063724,67.232939 L43.6958312,67.232939 L21.8250694,87.7662294 Z" id="Fill-38" fill="#FEFEFE" mask="url(#mask-2)"></path>
                </g>
            </g>
        </g>
    </g>
</svg>