<?xml version="1.0" encoding="UTF-8"?>
<svg width="173px" height="171px" viewBox="0 0 173 171" version="1.1" xmlns="http://www.w3.org/2000/svg" xmlns:xlink="http://www.w3.org/1999/xlink">
    <!-- Generator: Sketch 53.2 (72643) - https://sketchapp.com -->
    <title>HEPC</title>
    <desc>Created with Sketch.</desc>
    <defs>
        <polygon id="path-1" points="0.176169466 0.47796875 132.375913 0.47796875 132.375913 35.5829427 0.176169466 35.5829427"></polygon>
        <polygon id="path-3" points="0.328191176 0.0722327586 155.290906 0.0722327586 155.290906 85.1430129 0.328191176 85.1430129"></polygon>
    </defs>
    <g id="Page-1" stroke="none" stroke-width="1" fill="none" fill-rule="evenodd">
        <g id="LP-full-desktop" transform="translate(-707.000000, -1438.000000)">
            <g id="HEPC" transform="translate(707.000000, 1438.000000)">
                <polygon id="Fill-1" fill="#379EC0" points="0 171 173 171 173 0 0 0"></polygon>
                <g id="Group-31" transform="translate(24.508333, 143.925000)" fill="#FEFEFE">
                    <polygon id="Fill-2" points="7.74905996 1.156815 7.74905996 2.80066742 9.24600627 2.80066742 9.24600627 5.76273677 5.15049124 5.76273677 5.15049124 2.80066742 6.64794568 2.80066742 6.64794568 1.156815 0.50518127 1.156815 0.50518127 2.80066742 1.89897751 2.80066742 1.89897751 10.7797481 0.50518127 10.7797481 0.50518127 12.4236005 6.64794568 12.4236005 6.64794568 10.7797481 5.15049124 10.7797481 5.15049124 7.40658919 9.24600627 7.40658919 9.24600627 10.7797481 7.74905996 10.7797481 7.74905996 12.4236005 13.8918244 12.4236005 13.8918244 10.7797481 12.4980281 10.7797481 12.4980281 2.80066742 13.8918244 2.80066742 13.8918244 1.156815"></polygon>
                    <g id="Group-30" transform="translate(14.735724, 0.000000)">
                        <path d="M2.99114873,7.61203282 L5.67508302,7.61203282 C5.60648568,5.89941266 5.17660904,5.40337476 4.36716048,5.40337476 C3.57600454,5.40337476 3.07702243,5.93430218 2.99114873,7.61203282 L2.99114873,7.61203282 Z M2.99114873,8.79321992 C3.0942988,10.625678 3.79958104,11.1050296 5.00384538,11.1050296 C5.95048862,11.1050296 6.51857619,10.711132 6.82802639,9.73523685 L8.3768018,9.73523685 C8.11867257,11.4134731 7.03483466,12.6118522 4.55669238,12.6118522 C1.76960802,12.6118522 0.0145324727,10.9851917 0.0145324727,8.45140379 C0.0145324727,5.9681804 1.89003445,4.13572234 4.40222134,4.13572234 C7.27568753,4.13572234 8.63493104,5.9681804 8.47995187,8.79321992 L2.99114873,8.79321992 Z" id="Fill-4"></path>
                        <path d="M15.9116856,8.3312625 C15.9116856,6.77286411 15.5676827,5.93399879 14.6555922,5.93399879 C13.657628,5.93399879 13.1759222,7.08130766 13.1759222,8.41671653 C13.1759222,9.80370121 13.6408597,10.8994343 14.741974,10.8994343 C15.5844509,10.8994343 15.9116856,9.99230685 15.9116856,8.3312625 L15.9116856,8.3312625 Z M9.33853645,13.6734036 L10.4747116,13.6734036 L10.4747116,5.88242298 L9.33853645,5.88242298 L9.33853645,4.32453024 L13.1759222,4.32453024 L13.1759222,6.25963427 C13.6408597,5.02636573 14.4320157,4.1359246 15.877641,4.1359246 C16.7379024,4.1359246 17.3918637,4.46156008 17.9076141,4.97529556 C18.647449,5.71151492 19.0087283,6.85831815 19.0087283,8.22861653 C19.0087283,9.70105524 18.6134044,10.7795964 17.8908458,11.4991294 C17.2882055,12.098319 16.6347524,12.4234488 15.7739828,12.4234488 C14.6037631,12.4234488 13.7780544,11.8925214 13.3822224,11.156302 L13.3822224,13.6734036 L14.793295,13.6734036 L14.793295,15.231802 L9.33853645,15.231802 L9.33853645,13.6734036 Z" id="Fill-6"></path>
                        <path d="M24.8575405,9.16997613 L24.8575405,8.62236242 C24.7030694,8.65674629 24.5135375,8.67393823 24.0836609,8.75939226 C23.0511439,8.94749226 22.7411856,9.40965194 22.7411856,10.0604173 C22.7411856,10.5397689 23.0160831,11.0024342 23.7223816,11.0024342 C24.4794929,11.0024342 24.8575405,10.2657092 24.8575405,9.16997613 M19.8158903,10.4371229 C19.8158903,9.90670113 20.0399749,9.40965194 20.3839779,9.06733016 C20.8656836,8.58797855 21.6741159,8.19408097 23.9114053,7.903335 C24.8234958,7.7834971 24.8575405,7.76630516 24.8575405,7.61208339 L24.8575405,6.94412613 C24.8575405,5.91716081 24.3758347,5.52326323 23.4291915,5.52326323 C23.1375258,5.52326323 22.7930147,5.57483903 22.5176091,5.69417129 C22.758462,5.89946323 22.8961648,6.17402855 22.8961648,6.58461242 C22.8961648,7.21818581 22.311309,7.68085113 21.5709659,7.68085113 C20.6080625,7.68085113 20.1604014,7.08115597 20.1604014,6.37932048 C20.1604014,4.8209221 22.1563298,4.1357729 24.2208555,4.1357729 C26.9225743,4.1357729 27.7142384,5.43730355 27.7142384,7.11604548 L27.7142384,10.6257285 C27.7142384,11.0024342 27.8859858,11.0712019 28.0927941,11.0712019 C28.2645415,11.0712019 28.4540734,10.8992826 28.5917762,10.214639 L29.5379113,10.4543148 C29.2452293,11.9444511 28.5917762,12.6119027 27.2665773,12.6119027 C26.1822312,12.6119027 25.374307,12.064289 25.1847752,10.7799503 L25.0983933,10.7799503 C24.5308139,12.166935 23.6187234,12.6119027 22.3631381,12.6119027 C20.9347891,12.6119027 19.8158903,11.7897237 19.8158903,10.4371229" id="Fill-8"></path>
                        <path d="M33.4770752,2.21856871 L33.4770752,4.41003484 L36.0583675,4.41003484 L36.0583675,5.88247355 L33.4770752,5.88247355 L33.4770752,9.68391387 C33.4770752,10.4034469 33.7357126,10.8307171 34.2692474,10.8307171 C34.801766,10.8307171 34.9912979,10.4373252 35.2839798,9.25563242 L36.4196469,9.5296921 C36.0756439,11.6700881 35.2494271,12.612105 33.4257542,12.612105 C31.4984231,12.612105 30.5690563,11.6528961 30.5690563,9.5812679 L30.5690563,5.88247355 L29.1925364,5.88247355 L29.1925364,4.41003484 L30.6554381,4.41003484 L30.6554381,2.56089048 L33.4770752,2.21856871 Z" id="Fill-10"></path>
                        <path d="M37.9666438,1.80747919 C37.9666438,0.900351774 38.6719261,0.18081871 39.6876748,0.18081871 C40.7196836,0.18081871 41.4076894,0.848270323 41.4076894,1.73871145 C41.4076894,2.64634452 40.7024072,3.36537194 39.6876748,3.36537194 C38.6546497,3.36537194 37.9666438,2.69792032 37.9666438,1.80747919 L37.9666438,1.80747919 Z M37.1063824,10.8656066 L38.3624758,10.8656066 L38.3624758,5.88247355 L37.1063824,5.88247355 L37.1063824,4.32458081 L41.2704948,4.32458081 L41.2704948,10.8656066 L42.5265882,10.8656066 L42.5265882,12.4234994 L37.1063824,12.4234994 L37.1063824,10.8656066 Z" id="Fill-12"></path>
                        <path d="M47.1196626,2.21856871 L47.1196626,4.41003484 L49.7009549,4.41003484 L49.7009549,5.88247355 L47.1196626,5.88247355 L47.1196626,9.68391387 C47.1196626,10.4034469 47.3782999,10.8307171 47.9118348,10.8307171 C48.4443534,10.8307171 48.6338853,10.4373252 48.9265672,9.25563242 L50.0622342,9.5296921 C49.7182313,11.6700881 48.8920145,12.612105 47.0683416,12.612105 C45.1410105,12.612105 44.2116437,11.6528961 44.2116437,9.5812679 L44.2116437,5.88247355 L42.8351238,5.88247355 L42.8351238,4.41003484 L44.2980255,4.41003484 L44.2980255,2.56089048 L47.1196626,2.21856871 Z" id="Fill-14"></path>
                        <path d="M51.6096885,1.80747919 C51.6096885,0.900351774 52.3149708,0.18081871 53.3307195,0.18081871 C54.3627283,0.18081871 55.0507341,0.848270323 55.0507341,1.73871145 C55.0507341,2.64634452 54.3454519,3.36537194 53.3307195,3.36537194 C52.2976944,3.36537194 51.6096885,2.69792032 51.6096885,1.80747919 L51.6096885,1.80747919 Z M50.7494271,10.8656066 L52.0055205,10.8656066 L52.0055205,5.88247355 L50.7494271,5.88247355 L50.7494271,4.32458081 L54.9135395,4.32458081 L54.9135395,10.8656066 L56.1696329,10.8656066 L56.1696329,12.4234994 L50.7494271,12.4234994 L50.7494271,10.8656066 Z" id="Fill-16"></path>
                        <path d="M56.959671,9.63264145 L58.4052963,9.63264145 C59.2137286,10.6429205 60.2116928,11.3103721 61.1237833,11.3103721 C61.7599601,11.3103721 62.0526421,11.05401 62.0526421,10.6257285 C62.0526421,10.0432253 61.6573182,9.82074145 60.0226691,9.42734952 C58.0780616,8.94749226 57.0633292,8.33111081 57.0633292,6.82428823 C57.0633292,5.35184952 58.2157644,4.1357729 60.0912664,4.1357729 C61.2269334,4.1357729 62.0185975,4.54686242 62.5694087,5.14655758 L62.8788589,4.17066242 L64.3585288,4.17066242 L64.3585288,6.94412613 L62.9134116,6.94412613 C62.242174,6.053685 61.2955307,5.40342532 60.5043748,5.40342532 C59.8163689,5.40342532 59.5922843,5.69417129 59.5922843,6.08806887 C59.5922843,6.61899629 60.0048846,6.79041 61.5714445,7.18380194 C63.3087355,7.62927532 64.6344426,8.19408097 64.6344426,9.88950919 C64.6344426,11.3614423 63.5328202,12.6119027 61.4850626,12.6119027 C60.1258191,12.6119027 59.2655577,12.0470971 58.7320229,11.4645939 L58.4220645,12.5775189 L56.959671,12.5775189 L56.959671,9.63264145 Z" id="Fill-18"></path>
                        <path d="M65.6482096,6.91014677 C65.6482096,3.26292823 68.1954573,0.882856452 71.1720736,0.882856452 C72.6517435,0.882856452 73.7355814,1.36220806 74.4240954,2.23545726 L74.8026511,0.917240323 L76.5231739,0.917240323 L76.5231739,5.43720242 L74.5440137,5.43720242 C73.8905606,3.33119032 73.0130228,2.40687097 71.6192266,2.40687097 C70.1222803,2.40687097 69.1415924,3.5369879 69.1415924,6.70485484 C69.1415924,9.7867621 70.2772594,10.9163734 72.0841641,10.9163734 C73.6324313,10.9163734 74.5099691,9.76957016 74.8366957,7.92042581 L76.6781531,7.92042581 C76.3854711,10.7798492 74.8712484,12.6972556 71.6365029,12.6972556 C67.9713727,12.6972556 65.6482096,10.4542137 65.6482096,6.91014677" id="Fill-20"></path>
                        <path d="M77.3131103,11.0365147 C77.3131103,10.0778115 78.0529453,9.32440016 79.0509095,9.32440016 C80.0148291,9.32440016 80.7546641,10.0601139 80.7546641,11.0021308 C80.7546641,11.9613397 80.0148291,12.714751 79.0168649,12.714751 C78.0529453,12.714751 77.3131103,11.9785316 77.3131103,11.0365147" id="Fill-22"></path>
                        <path d="M81.7860123,10.8654044 L82.9216793,10.8654044 L82.9216793,5.88277694 L81.7860123,5.88277694 L81.7860123,4.32437855 L85.62289,4.32437855 L85.62289,6.48196645 C86.0532748,5.19762774 86.8967679,4.1357729 88.5309089,4.1357729 C90.4755164,4.1357729 91.1462459,5.42011161 91.1462459,7.11553984 L91.1462459,10.8654044 L92.2651446,10.8654044 L92.2651446,12.4238027 L87.4125183,12.4238027 L87.4125183,10.8654044 L88.2387351,10.8654044 L88.2387351,7.35521565 C88.2387351,6.84148016 88.135585,6.46477452 87.8947321,6.22509871 C87.7224766,6.053685 87.4816237,5.96823097 87.154389,5.96823097 C86.4145541,5.96823097 85.8296983,6.70445032 85.8296983,7.68085113 L85.8296983,10.8654044 L86.6213623,10.8654044 L86.6213623,12.4238027 L81.7860123,12.4238027 L81.7860123,10.8654044 Z" id="Fill-24"></path>
                        <path d="M95.9282424,7.61203282 L98.6121767,7.61203282 C98.5435793,5.89941266 98.1137027,5.40337476 97.3042541,5.40337476 C96.5130982,5.40337476 96.0141161,5.93430218 95.9282424,7.61203282 L95.9282424,7.61203282 Z M95.9282424,8.79321992 C96.0313925,10.625678 96.7366747,11.1050296 97.940939,11.1050296 C98.8880904,11.1050296 99.4556698,10.711132 99.7656282,9.73523685 L101.313895,9.73523685 C101.055766,11.4134731 99.9719283,12.6118522 97.493786,12.6118522 C94.7067017,12.6118522 92.9516261,10.9851917 92.9516261,8.45140379 C92.9516261,5.9681804 94.8271281,4.13572234 97.339315,4.13572234 C100.212781,4.13572234 101.572025,5.9681804 101.417046,8.79321992 L95.9282424,8.79321992 Z" id="Fill-26"></path>
                        <path d="M106.233239,2.21856871 L106.233239,4.41003484 L108.814531,4.41003484 L108.814531,5.88247355 L106.233239,5.88247355 L106.233239,9.68391387 C106.233239,10.4034469 106.491876,10.8307171 107.025411,10.8307171 C107.55793,10.8307171 107.747462,10.4373252 108.040144,9.25563242 L109.175811,9.5296921 C108.831808,11.6700881 108.005591,12.612105 106.181918,12.612105 C104.254587,12.612105 103.325728,11.6528961 103.325728,9.5812679 L103.325728,5.88247355 L101.9487,5.88247355 L101.9487,4.41003484 L103.411602,4.41003484 L103.411602,2.56089048 L106.233239,2.21856871 Z" id="Fill-28"></path>
                    </g>
                </g>
                <g id="Group-34" transform="translate(20.183333, 59.850000)">
                    <mask id="mask-2" fill="white">
                        <use xlink:href="#path-1"></use>
                    </mask>
                    <g id="Clip-33"></g>
                    <path d="M119.773722,35.5831901 C109.343274,35.5831901 101.979593,28.0603776 101.979593,18.0072005 C101.979593,7.99657552 109.343274,0.477226562 119.773722,0.477226562 C125.24915,0.477226562 128.977058,2.18277344 132.32934,5.5518099 L127.798038,10.6714193 C125.956359,8.54876302 123.31331,6.88576823 119.773722,6.88576823 C113.401247,6.88576823 109.248102,11.5457161 109.248102,18.0072005 C109.248102,24.4647266 113.401247,29.1711849 119.773722,29.1711849 C123.360897,29.1711849 126.052037,27.4621745 127.89321,25.2964714 L132.375913,30.4170703 C128.930484,34.1077214 124.824926,35.5831901 119.773722,35.5831901 L119.773722,35.5831901 Z M57.9989873,7.4874349 L42.8008273,7.4874349 L42.8008273,14.8227214 L55.9694948,14.8227214 L55.9694948,20.7740755 L42.8008273,20.7740755 L42.8008273,28.5695182 L58.376638,28.5695182 L58.376638,34.9815234 L35.5793979,34.9815234 L35.5793979,1.07542969 L57.9989873,1.07542969 L57.9989873,7.4874349 Z M70.7454557,34.9815234 L63.5240263,34.9815234 L63.5240263,1.07542969 L77.4004091,1.07542969 C84.008789,1.07542969 89.5783765,5.0881901 89.5783765,12.2854297 C89.5783765,19.4792057 84.0553625,23.4954297 77.4004091,23.4954297 L70.7454557,23.4954297 L70.7454557,34.9815234 Z M7.39835821,34.9815234 L0.175916349,34.9815234 L0.175916349,1.07542969 L7.39835821,1.07542969 L7.39835821,14.4085807 L21.4625539,14.4085807 L21.4625539,1.07542969 L28.637916,1.07542969 L28.637916,34.9815234 L21.4625539,34.9815234 L21.4625539,20.8200911 L7.39835821,20.8200911 L7.39835821,34.9815234 Z M76.6926938,7.16483073 L70.7454557,7.16483073 L70.7454557,17.4094922 L76.6926938,17.4094922 C80.0434573,17.4094922 82.3093611,15.699987 82.3093611,12.2854297 C82.3093611,8.96240885 80.0434573,7.16483073 76.6926938,7.16483073 L76.6926938,7.16483073 Z" id="Fill-32" fill="#FEFEFE" mask="url(#mask-2)"></path>
                </g>
                <g id="Group-37" transform="translate(8.650000, 44.175000)">
                    <mask id="mask-4" fill="white">
                        <use xlink:href="#path-3"></use>
                    </mask>
                    <g id="Clip-36"></g>
                    <path d="M13.4599088,2.52790086 C7.62166765,2.52790086 2.87230882,7.11443534 2.87230882,12.7520302 L2.87230882,52.5424526 C2.87230882,58.179556 7.62166765,62.7660905 13.4599088,62.7660905 L67.6190853,62.7660905 L67.6190853,79.4489095 L85.9367324,62.7660905 L142.158679,62.7660905 C147.996921,62.7660905 152.746788,58.179556 152.746788,52.5424526 L152.746788,12.7520302 C152.746788,7.11443534 147.996921,2.52790086 142.158679,2.52790086 L13.4599088,2.52790086 Z M65.0749676,85.1430129 L65.0749676,65.2229871 L13.4599088,65.2229871 C6.21935,65.2229871 0.328191176,59.5347802 0.328191176,52.5424526 L0.328191176,12.7520302 C0.328191176,5.75970259 6.21935,0.0710043103 13.4599088,0.0710043103 L142.158679,0.0710043103 C149.399747,0.0710043103 155.290906,5.75970259 155.290906,12.7520302 L155.290906,52.5424526 C155.290906,59.5347802 149.399747,65.2229871 142.158679,65.2229871 L86.9467471,65.2229871 L65.0749676,85.1430129 Z" id="Fill-35" fill="#FEFEFE" mask="url(#mask-4)"></path>
                </g>
            </g>
        </g>
    </g>
</svg>