<?xml version="1.0" encoding="UTF-8"?>
<svg width="171px" height="171px" viewBox="0 0 171 171" version="1.1" xmlns="http://www.w3.org/2000/svg" xmlns:xlink="http://www.w3.org/1999/xlink">
    <!-- Generator: Sketch 53.2 (72643) - https://sketchapp.com -->
    <title>IBD</title>
    <desc>Created with Sketch.</desc>
    <defs>
        <polygon id="path-1" points="0.0816806723 0.086193913 77.514958 0.086193913 77.514958 34.0686522 0.0816806723 34.0686522"></polygon>
        <polygon id="path-3" points="0.0841555038 0.0804306034 100.503084 0.0804306034 100.503084 86.5684077 0.0841555038 86.5684077"></polygon>
    </defs>
    <g id="Page-1" stroke="none" stroke-width="1" fill="none" fill-rule="evenodd">
        <g id="LP-full-desktop" transform="translate(-892.000000, -1256.000000)">
            <g id="IBD" transform="translate(892.000000, 1256.000000)">
                <polygon id="Fill-1" fill="#625AA6" points="0 171 171 171 171 0 0 0"></polygon>
                <g id="Group-57" transform="translate(18.680672, 148.200000)" fill="#FEFEFE">
                    <polygon id="Fill-2" points="0.349338721 0.991347353 0.349338721 1.82019441 1.07342444 1.82019441 1.07342444 5.84372382 0.349338721 5.84372382 0.349338721 6.67257088 3.42645196 6.67257088 3.42645196 5.84372382 2.70236624 5.84372382 2.70236624 1.82019441 3.42645196 1.82019441 3.42645196 0.991347353"></polygon>
                    <g id="Group-56" transform="translate(3.514979, 0.000000)">
                        <path d="M0.46437897,5.88677559 L1.03330346,5.88677559 L1.03330346,3.37408147 L0.46437897,3.37408147 L0.46437897,2.58848735 L2.38657047,2.58848735 L2.38657047,3.67634912 C2.60198848,3.02906382 3.02479027,2.49343147 3.84327829,2.49343147 C4.81742967,2.49343147 5.15336126,3.14121971 5.15336126,3.99621971 L5.15336126,5.88677559 L5.71374937,5.88677559 L5.71374937,6.67236971 L3.28289017,6.67236971 L3.28289017,5.88677559 L3.69665344,5.88677559 L3.69665344,4.11692559 C3.69665344,3.85791088 3.64493303,3.66779912 3.52441946,3.54709324 C3.43805139,3.46058735 3.31753782,3.41733441 3.15384022,3.41733441 C2.78326098,3.41733441 2.49001128,3.78900794 2.49001128,4.28088441 L2.49001128,5.88677559 L2.8867018,5.88677559 L2.8867018,6.67236971 L0.46437897,6.67236971 L0.46437897,5.88677559 Z" id="Fill-4"></path>
                        <path d="M8.06024908,2.63189118 L9.49134776,2.63189118 L9.49134776,2.17421471 C9.16345041,2.13096176 8.9656073,1.9323 8.9656073,1.57873235 C8.9656073,1.43187353 9.01732771,1.26791471 9.09465725,1.18995882 C9.03440046,1.17285882 8.9480324,1.15525588 8.82751883,1.15525588 C8.40521918,1.15525588 8.06024908,1.32826765 8.06024908,2.25217059 L8.06024908,2.63189118 Z M6.12098482,5.88692647 L6.68990932,5.88692647 L6.68990932,3.37423235 L5.97435998,3.37423235 L5.97435998,2.63189118 L6.68990932,2.63189118 L6.68990932,2.59718824 C6.68990932,1.27646471 7.68966984,0.637729412 8.86216648,0.637729412 C9.26689123,0.637729412 9.57721368,0.689532353 9.80167021,0.775535294 L9.81020659,0.775535294 L10.9475534,0.654829412 L10.9475534,5.88692647 L11.5772369,5.88692647 L11.5772369,6.67252059 L9.00828919,6.67252059 L9.00828919,5.88692647 L9.49134776,5.88692647 L9.49134776,3.37423235 L8.14661714,3.37423235 L8.14661714,5.88692647 L8.62917357,5.88692647 L8.62917357,6.67252059 L6.12098482,6.67252059 L6.12098482,5.88692647 Z" id="Fill-6"></path>
                        <path d="M14.475036,5.03187618 L14.475036,4.75576147 C14.3977064,4.77286147 14.302802,4.78141147 14.087384,4.82466441 C13.5701799,4.91972029 13.4150186,5.15258206 13.4150186,5.48100265 C13.4150186,5.72291735 13.552605,5.95577912 13.9061115,5.95577912 C14.2857292,5.95577912 14.475036,5.58460853 14.475036,5.03187618 M11.9492723,5.67111441 C11.9492723,5.40304676 12.0612495,5.15258206 12.2339856,4.98007324 C12.4755149,4.73866147 12.8802397,4.53949676 14.0010159,4.39314088 C14.4579632,4.33278794 14.475036,4.32423794 14.475036,4.24628206 L14.475036,3.90981441 C14.475036,3.391785 14.2340088,3.19312324 13.7594866,3.19312324 C13.6133639,3.19312324 13.4406278,3.21927618 13.3030414,3.27962912 C13.423555,3.38273206 13.4923482,3.52104088 13.4923482,3.72825265 C13.4923482,4.04762029 13.1990985,4.280985 12.8285193,4.280985 C12.3459628,4.280985 12.1220084,3.97871735 12.1220084,3.62464676 C12.1220084,2.83905265 13.1217689,2.49353206 14.1561771,2.49353206 C15.5094441,2.49353206 15.9061346,3.14987029 15.9061346,3.99581735 L15.9061346,5.76566735 C15.9061346,5.95577912 15.9920006,5.99048206 16.0959435,5.99048206 C16.1818094,5.99048206 16.2767139,5.90397618 16.345507,5.55845559 L16.8195271,5.67966441 C16.6729022,6.43055559 16.345507,6.76752618 15.6816781,6.76752618 C15.1388649,6.76752618 14.733638,6.49090853 14.6387336,5.84362324 L14.5955495,5.84362324 C14.3113383,6.54271147 13.854391,6.76752618 13.2252098,6.76752618 C12.5096604,6.76752618 11.9492723,6.35259971 11.9492723,5.67111441" id="Fill-8"></path>
                        <path d="M22.8463607,2.49363265 C23.777328,2.49363265 24.1132596,3.14142088 24.1132596,3.99591794 L24.1132596,5.88697676 L24.6741499,5.88697676 L24.6741499,6.67257088 L22.2774362,6.67257088 L22.2774362,5.88697676 L22.657054,5.88697676 L22.657054,4.11712676 C22.657054,3.85760912 22.6053335,3.65894735 22.4843178,3.53824147 C22.4069883,3.46078853 22.3035475,3.41753559 22.1569226,3.41753559 C21.8295274,3.41753559 21.5362777,3.78870618 21.5362777,4.28108559 L21.5362777,5.88697676 L21.8983206,5.88697676 L21.8983206,6.67257088 L19.6999521,6.67257088 L19.6999521,5.88697676 L20.0795699,5.88697676 L20.0795699,4.11712676 C20.0795699,3.85760912 20.0278495,3.65894735 19.9068338,3.53824147 C19.8295042,3.46078853 19.7260634,3.41753559 19.5794386,3.41753559 C19.2520434,3.41753559 18.9587937,3.78870618 18.9587937,4.28108559 L18.9587937,5.88697676 L19.3208365,5.88697676 L19.3208365,6.67257088 L16.9331614,6.67257088 L16.9331614,5.88697676 L17.5020858,5.88697676 L17.5020858,3.37428265 L16.9331614,3.37428265 L16.9331614,2.58868853 L18.8553528,2.58868853 L18.8553528,3.67655029 C19.0707709,3.02876206 19.4935726,2.49363265 20.2693788,2.49363265 C21.0105373,2.49363265 21.3640437,2.94275912 21.4669824,3.59004441 C21.6914389,2.97695912 22.1052022,2.49363265 22.8463607,2.49363265" id="Fill-10"></path>
                        <path d="M30.9517019,2.49363265 C31.8826693,2.49363265 32.2186009,3.14142088 32.2186009,3.99591794 L32.2186009,5.88697676 L32.7794911,5.88697676 L32.7794911,6.67257088 L30.3827774,6.67257088 L30.3827774,5.88697676 L30.7623952,5.88697676 L30.7623952,4.11712676 C30.7623952,3.85760912 30.7106748,3.65894735 30.5896591,3.53824147 C30.5123295,3.46078853 30.4088887,3.41753559 30.2622639,3.41753559 C29.9348687,3.41753559 29.641619,3.78870618 29.641619,4.28108559 L29.641619,5.88697676 L30.0036618,5.88697676 L30.0036618,6.67257088 L27.8052934,6.67257088 L27.8052934,5.88697676 L28.1849111,5.88697676 L28.1849111,4.11712676 C28.1849111,3.85760912 28.1331907,3.65894735 28.012175,3.53824147 C27.9348455,3.46078853 27.8314047,3.41753559 27.6847798,3.41753559 C27.3573846,3.41753559 27.0641349,3.78870618 27.0641349,4.28108559 L27.0641349,5.88697676 L27.4261778,5.88697676 L27.4261778,6.67257088 L25.0385026,6.67257088 L25.0385026,5.88697676 L25.6074271,5.88697676 L25.6074271,3.37428265 L25.0385026,3.37428265 L25.0385026,2.58868853 L26.9606941,2.58868853 L26.9606941,3.67655029 C27.1761121,3.02876206 27.5989139,2.49363265 28.37472,2.49363265 C29.1158785,2.49363265 29.469385,2.94275912 29.5723237,3.59004441 C29.7967802,2.97695912 30.2105435,2.49363265 30.9517019,2.49363265" id="Fill-12"></path>
                        <path d="M35.6266745,5.03187618 L35.6266745,4.75576147 C35.549345,4.77286147 35.4544405,4.78141147 35.2390225,4.82466441 C34.7218184,4.91972029 34.5666572,5.15258206 34.5666572,5.48100265 C34.5666572,5.72291735 34.7042435,5.95577912 35.05775,5.95577912 C35.4373678,5.95577912 35.6266745,5.58460853 35.6266745,5.03187618 M33.1009109,5.67111441 C33.1009109,5.40304676 33.2128881,5.15258206 33.3856242,4.98007324 C33.6271535,4.73866147 34.0318782,4.53949676 35.1526545,4.39314088 C35.6096018,4.33278794 35.6266745,4.32423794 35.6266745,4.24628206 L35.6266745,3.90981441 C35.6266745,3.391785 35.3856474,3.19312324 34.9111252,3.19312324 C34.7650025,3.19312324 34.5922663,3.21927618 34.45468,3.27962912 C34.5751936,3.38273206 34.6439867,3.52104088 34.6439867,3.72825265 C34.6439867,4.04762029 34.3507371,4.280985 33.9801578,4.280985 C33.4976014,4.280985 33.273647,3.97871735 33.273647,3.62464676 C33.273647,2.83905265 34.2734075,2.49353206 35.3078157,2.49353206 C36.6610827,2.49353206 37.0577732,3.14987029 37.0577732,3.99581735 L37.0577732,5.76566735 C37.0577732,5.95577912 37.1436391,5.99048206 37.2475821,5.99048206 C37.333448,5.99048206 37.4283524,5.90397618 37.4971456,5.55845559 L37.9711657,5.67966441 C37.8245408,6.43055559 37.4971456,6.76752618 36.8333167,6.76752618 C36.2905034,6.76752618 35.8852766,6.49090853 35.7903721,5.84362324 L35.7471881,5.84362324 C35.4629769,6.54271147 35.0060296,6.76752618 34.3768483,6.76752618 C33.661299,6.76752618 33.1009109,6.35259971 33.1009109,5.67111441" id="Fill-14"></path>
                        <path d="M39.946584,1.52677853 L39.946584,2.63174029 L41.2395942,2.63174029 L41.2395942,3.37408147 L39.946584,3.37408147 L39.946584,5.29079029 C39.946584,5.65391382 40.0761361,5.86917265 40.3432745,5.86917265 C40.6104129,5.86917265 40.7053174,5.67101382 40.8519422,5.07502853 L41.4208667,5.21333735 C41.2481306,6.29264912 40.8343673,6.76742559 39.9209748,6.76742559 C38.9553598,6.76742559 38.4898762,6.28359618 38.4898762,5.23898735 L38.4898762,3.37408147 L37.8004381,3.37408147 L37.8004381,2.63174029 L38.5330602,2.63174029 L38.5330602,1.69928735 L39.946584,1.52677853 Z" id="Fill-16"></path>
                        <path d="M44.7059161,4.62620382 C44.7059161,3.52979206 44.4990344,3.13246853 43.9994052,3.13246853 C43.5078103,3.13246853 43.3355763,3.54689206 43.3355763,4.63475382 C43.3355763,5.73116559 43.5424579,6.12848912 44.0420871,6.12848912 C44.5336821,6.12848912 44.7059161,5.71406559 44.7059161,4.62620382 M41.7493164,4.65185382 C41.7493164,3.38293324 42.7495791,2.49373324 44.0250144,2.49373324 C45.3350973,2.49373324 46.292176,3.33968029 46.292176,4.60910382 C46.292176,5.87802441 45.2919133,6.76722441 44.016478,6.76722441 C42.706395,6.76722441 41.7493164,5.92127735 41.7493164,4.65185382" id="Fill-18"></path>
                        <path d="M46.7416916,5.88677559 L47.3106161,5.88677559 L47.3106161,3.37408147 L46.7416916,3.37408147 L46.7416916,2.58848735 L48.6638831,2.58848735 L48.6638831,3.68540206 C48.9224851,2.89980794 49.3708961,2.49343147 49.9654297,2.49343147 C50.4911702,2.49343147 50.8361403,2.89980794 50.8361403,3.33988147 C50.8361403,3.82320794 50.5082429,4.16017853 50.0949818,4.16017853 C49.6812185,4.16017853 49.3708961,3.92681382 49.3708961,3.50384029 C49.3708961,3.49529029 49.3794324,3.47768735 49.3794324,3.46913735 C49.2157348,3.50384029 48.9224851,3.68540206 48.7673239,4.16872853 L48.7673239,5.88677559 L49.5175209,5.88677559 L49.5175209,6.67236971 L46.7416916,6.67236971 L46.7416916,5.88677559 Z" id="Fill-20"></path>
                        <path d="M52.3892589,7.17309794 C52.3892589,7.29380382 52.3631477,7.41450971 52.3114273,7.51861853 C52.6734701,7.49246559 52.8893903,7.33705676 53.1304174,6.78482735 L51.3894984,3.37438324 L50.8632558,3.37438324 L50.8632558,2.58878912 L53.5788283,2.58878912 L53.5788283,3.37438324 L52.9928311,3.37438324 L53.8976872,5.325795 L54.6388456,3.37438324 L54.1477528,3.37438324 L54.1477528,2.58878912 L55.9489286,2.58878912 L55.9489286,3.37438324 L55.4663722,3.37438324 L54.087496,6.55146265 C53.7169168,7.41450971 53.2770423,8.20060676 52.1909137,8.20060676 C51.3719235,8.20060676 50.9581603,7.77763324 50.9581603,7.20780088 C50.9581603,6.75012441 51.2428736,6.41315382 51.682246,6.41315382 C52.1653046,6.41315382 52.3892589,6.80192735 52.3892589,7.17309794" id="Fill-22"></path>
                        <path d="M59.0278998,5.84352265 C59.8122423,5.84352265 60.0537716,5.62776088 60.0537716,4.97142265 C60.0537716,4.44484324 59.7951695,4.15112559 59.010827,4.15112559 L58.4589753,4.15112559 L58.4589753,5.84352265 L59.0278998,5.84352265 Z M59.0022906,3.32227853 C59.6831923,3.32227853 59.8986103,3.02906382 59.8986103,2.52813441 C59.8986103,2.02770794 59.71784,1.81999324 59.010827,1.81999324 L58.4589753,1.81999324 L58.4589753,3.32227853 L59.0022906,3.32227853 Z M56.1315569,5.84352265 L56.8300335,5.84352265 L56.8300335,1.81999324 L56.1315569,1.81999324 L56.1315569,0.991649118 L59.1915974,0.991649118 C61.1052525,0.991649118 61.5280543,1.71638735 61.5280543,2.36417559 C61.5280543,2.98581088 61.1052525,3.51239029 59.9674035,3.67634912 L59.9674035,3.737205 C61.1740457,3.88406382 61.7002883,4.34123735 61.7002883,5.12683147 C61.7002883,5.99893147 61.0620685,6.67236971 59.2608927,6.67236971 L56.1315569,6.67236971 L56.1315569,5.84352265 Z" id="Fill-24"></path>
                        <path d="M65.0984698,4.62620382 C65.0984698,3.52979206 64.8915881,3.13246853 64.3919589,3.13246853 C63.900364,3.13246853 63.72813,3.54689206 63.72813,4.63475382 C63.72813,5.73116559 63.9350116,6.12848912 64.4346408,6.12848912 C64.9262358,6.12848912 65.0984698,5.71406559 65.0984698,4.62620382 M62.1418701,4.65185382 C62.1418701,3.38293324 63.1421327,2.49373324 64.4175681,2.49373324 C65.727651,2.49373324 66.6847297,3.33968029 66.6847297,4.60910382 C66.6847297,5.87802441 65.684467,6.76722441 64.4090317,6.76722441 C63.0989487,6.76722441 62.1418701,5.92127735 62.1418701,4.65185382" id="Fill-26"></path>
                        <polygon id="Fill-28" points="71.6770547 3.35708206 72.3238108 5.62786147 72.3579564 5.62786147 72.9354172 3.35708206 72.5131176 3.35708206 72.5131176 2.58858794 74.2972206 2.58858794 74.2972206 3.37418206 73.7629438 3.37418206 72.7887924 6.69812029 71.2718278 6.69812029 70.6170374 4.68685853 69.9441699 6.69812029 68.3925576 6.69812029 67.4013335 3.37418206 66.8846316 3.37418206 66.8846316 2.58858794 69.3581727 2.58858794 69.3581727 3.35708206 68.9188002 3.35708206 69.5309088 5.63641147 69.5650543 5.63641147 70.2544924 3.59849382 70.1771628 3.35708206 69.7463268 3.35708206 69.7463268 2.58858794 72.1254656 2.58858794 72.1254656 3.35708206"></polygon>
                        <path d="M75.9119016,4.24628206 L77.2566323,4.24628206 C77.2219846,3.38273206 77.0065666,3.13277029 76.6013397,3.13277029 C76.2046492,3.13277029 75.9550857,3.400335 75.9119016,4.24628206 L75.9119016,4.24628206 Z M75.9119016,4.84226735 C75.963622,5.76566735 76.3171285,6.00758206 76.9201985,6.00758206 C77.3947207,6.00758206 77.6789319,5.80892029 77.8340931,5.31654088 L78.6098993,5.31654088 C78.4808493,6.16299088 77.9375339,6.76752618 76.6962441,6.76752618 C75.2997931,6.76752618 74.4205462,5.94722912 74.4205462,4.66925559 C74.4205462,3.417435 75.3600499,2.49353206 76.6189146,2.49353206 C78.0580475,2.49353206 78.7389492,3.417435 78.6616197,4.84226735 L75.9119016,4.84226735 Z" id="Fill-30"></path>
                        <polygon id="Fill-32" points="79.0853253 5.88677559 79.7145066 5.88677559 79.7145066 1.48352559 79.0853253 1.48352559 79.0853253 0.697931471 81.1712144 0.697931471 81.1712144 5.88677559 81.8003957 5.88677559 81.8003957 6.67236971 79.0853253 6.67236971"></polygon>
                        <path d="M84.9393726,5.86932353 C86.1113671,5.86932353 86.5080576,5.35984412 86.5080576,3.83190882 C86.5080576,2.33817353 86.0772216,1.79449412 84.8961885,1.79449412 L84.5256093,1.79449412 L84.5256093,5.86932353 L84.9393726,5.86932353 Z M82.1981909,5.84367353 L82.8966675,5.84367353 L82.8966675,1.82014412 L82.1981909,1.82014412 L82.1981909,0.991297059 L84.8012841,0.991297059 C87.1804229,0.991297059 88.2665515,2.11386176 88.2665515,3.82335882 C88.2665515,5.54140588 87.1633501,6.67252059 84.8359317,6.67252059 L82.1981909,6.67252059 L82.1981909,5.84367353 Z" id="Fill-34"></path>
                        <path d="M89.2340244,1.31951647 C89.2340244,0.86184 89.5875309,0.499219412 90.0961986,0.499219412 C90.6134027,0.499219412 90.9578706,0.83619 90.9578706,1.28481353 C90.9578706,1.74249 90.6043642,2.10511059 90.0961986,2.10511059 C89.5789945,2.10511059 89.2340244,1.76864294 89.2340244,1.31951647 L89.2340244,1.31951647 Z M88.8031884,5.88672529 L89.4323697,5.88672529 L89.4323697,3.37403118 L88.8031884,3.37403118 L88.8031884,2.58843706 L90.8890775,2.58843706 L90.8890775,5.88672529 L91.5182588,5.88672529 L91.5182588,6.67231941 L88.8031884,6.67231941 L88.8031884,5.88672529 Z" id="Fill-36"></path>
                        <path d="M91.9156523,5.26519059 L92.639738,5.26519059 C93.0449649,5.77467 93.5445941,6.11113765 94.0015414,6.11113765 C94.3204002,6.11113765 94.467025,5.98188176 94.467025,5.76612 C94.467025,5.47240235 94.2686798,5.35974353 93.4501918,5.16158471 C92.4760404,4.91967 91.9673727,4.60885235 91.9673727,3.84941118 C91.9673727,3.10656706 92.5448335,2.49348176 93.4843373,2.49348176 C94.0532618,2.49348176 94.4499523,2.70069353 94.7256271,3.00296118 L94.8807883,2.51108471 L95.6219468,2.51108471 L95.6219468,3.90976412 L94.8978611,3.90976412 C94.5619295,3.46063765 94.0879094,3.13272 93.6912189,3.13272 C93.3467509,3.13272 93.2342716,3.27957882 93.2342716,3.47773765 C93.2342716,3.74580529 93.4416554,3.83180824 94.2259979,4.03047 C95.0962063,4.25478176 95.7600353,4.53994941 95.7600353,5.39444647 C95.7600353,6.13678765 95.2086857,6.76747588 94.1828139,6.76747588 C93.5019122,6.76747588 93.070574,6.48230824 92.8034356,6.18859059 L92.6482744,6.74987294 L91.9156523,6.74987294 L91.9156523,5.26519059 Z" id="Fill-38"></path>
                        <path d="M97.6750462,4.24628206 L99.0197768,4.24628206 C98.9851291,3.38273206 98.7697111,3.13277029 98.3644842,3.13277029 C97.9677937,3.13277029 97.7182302,3.400335 97.6750462,4.24628206 L97.6750462,4.24628206 Z M97.6750462,4.84226735 C97.7267666,5.76566735 98.080273,6.00758206 98.6833431,6.00758206 C99.1578652,6.00758206 99.4420764,5.80892029 99.5972376,5.31654088 L100.373044,5.31654088 C100.243994,6.16299088 99.7006785,6.76752618 98.4593887,6.76752618 C97.0629376,6.76752618 96.1836907,5.94722912 96.1836907,4.66925559 C96.1836907,3.417435 97.1231944,2.49353206 98.3820591,2.49353206 C99.821192,2.49353206 100.502094,3.417435 100.424764,4.84226735 L97.6750462,4.84226735 Z" id="Fill-40"></path>
                        <path d="M103.38272,5.03187618 L103.38272,4.75576147 C103.30539,4.77286147 103.210486,4.78141147 102.995068,4.82466441 C102.477864,4.91972029 102.322702,5.15258206 102.322702,5.48100265 C102.322702,5.72291735 102.460289,5.95577912 102.813795,5.95577912 C103.193413,5.95577912 103.38272,5.58460853 103.38272,5.03187618 M100.856956,5.67111441 C100.856956,5.40304676 100.968933,5.15258206 101.141669,4.98007324 C101.383199,4.73866147 101.787923,4.53949676 102.9087,4.39314088 C103.365647,4.33278794 103.38272,4.32423794 103.38272,4.24628206 L103.38272,3.90981441 C103.38272,3.391785 103.141692,3.19312324 102.66717,3.19312324 C102.521048,3.19312324 102.348311,3.21927618 102.210725,3.27962912 C102.331239,3.38273206 102.400032,3.52104088 102.400032,3.72825265 C102.400032,4.04762029 102.106782,4.280985 101.736203,4.280985 C101.253647,4.280985 101.029692,3.97871735 101.029692,3.62464676 C101.029692,2.83905265 102.029453,2.49353206 103.063861,2.49353206 C104.417128,2.49353206 104.813818,3.14987029 104.813818,3.99581735 L104.813818,5.76566735 C104.813818,5.95577912 104.899684,5.99048206 105.003627,5.99048206 C105.089493,5.99048206 105.184398,5.90397618 105.253191,5.55845559 L105.727211,5.67966441 C105.580586,6.43055559 105.253191,6.76752618 104.589362,6.76752618 C104.046549,6.76752618 103.641322,6.49090853 103.546417,5.84362324 L103.503233,5.84362324 C103.219022,6.54271147 102.762075,6.76752618 102.132893,6.76752618 C101.417344,6.76752618 100.856956,6.35259971 100.856956,5.67111441" id="Fill-42"></path>
                        <path d="M105.875493,5.26519059 L106.599578,5.26519059 C107.004805,5.77467 107.504434,6.11113765 107.961382,6.11113765 C108.280241,6.11113765 108.426865,5.98188176 108.426865,5.76612 C108.426865,5.47240235 108.22852,5.35974353 107.410032,5.16158471 C106.435881,4.91967 105.927213,4.60885235 105.927213,3.84941118 C105.927213,3.10656706 106.504674,2.49348176 107.444178,2.49348176 C108.013102,2.49348176 108.409793,2.70069353 108.685468,3.00296118 L108.840629,2.51108471 L109.581787,2.51108471 L109.581787,3.90976412 L108.857701,3.90976412 C108.52177,3.46063765 108.04775,3.13272 107.651059,3.13272 C107.306591,3.13272 107.194112,3.27957882 107.194112,3.47773765 C107.194112,3.74580529 107.401496,3.83180824 108.185838,4.03047 C109.056047,4.25478176 109.719876,4.53994941 109.719876,5.39444647 C109.719876,6.13678765 109.168526,6.76747588 108.142654,6.76747588 C107.461753,6.76747588 107.030414,6.48230824 106.763276,6.18859059 L106.608115,6.74987294 L105.875493,6.74987294 L105.875493,5.26519059 Z" id="Fill-44"></path>
                        <path d="M111.635389,4.24628206 L112.980119,4.24628206 C112.945472,3.38273206 112.730054,3.13277029 112.324827,3.13277029 C111.928136,3.13277029 111.678573,3.400335 111.635389,4.24628206 L111.635389,4.24628206 Z M111.635389,4.84226735 C111.687109,5.76566735 112.040616,6.00758206 112.643686,6.00758206 C113.118208,6.00758206 113.402419,5.80892029 113.55758,5.31654088 L114.333386,5.31654088 C114.204336,6.16299088 113.661021,6.76752618 112.419731,6.76752618 C111.02328,6.76752618 110.144033,5.94722912 110.144033,4.66925559 C110.144033,3.417435 111.083537,2.49353206 112.342402,2.49353206 C113.781535,2.49353206 114.462436,3.417435 114.385107,4.84226735 L111.635389,4.84226735 Z" id="Fill-46"></path>
                        <path d="M114.756841,5.97292941 C114.756841,5.48960294 115.12742,5.10988235 115.627551,5.10988235 C116.110108,5.10988235 116.481189,5.48055 116.481189,5.95582941 C116.481189,6.43915588 116.110108,6.81937941 115.610479,6.81937941 C115.12742,6.81937941 114.756841,6.44770588 114.756841,5.97292941" id="Fill-48"></path>
                        <path d="M116.998845,5.88677559 L117.56777,5.88677559 L117.56777,3.37408147 L116.998845,3.37408147 L116.998845,2.58848735 L118.921037,2.58848735 L118.921037,3.67634912 C119.136455,3.02906382 119.559257,2.49343147 120.377745,2.49343147 C121.351896,2.49343147 121.687828,3.14121971 121.687828,3.99621971 L121.687828,5.88677559 L122.248216,5.88677559 L122.248216,6.67236971 L119.817357,6.67236971 L119.817357,5.88677559 L120.23112,5.88677559 L120.23112,4.11692559 C120.23112,3.85791088 120.179399,3.66779912 120.058886,3.54709324 C119.972518,3.46058735 119.852004,3.41733441 119.688307,3.41733441 C119.317727,3.41733441 119.024478,3.78900794 119.024478,4.28088441 L119.024478,5.88677559 L119.421168,5.88677559 L119.421168,6.67236971 L116.998845,6.67236971 L116.998845,5.88677559 Z" id="Fill-50"></path>
                        <path d="M124.085947,4.24628206 L125.430678,4.24628206 C125.39603,3.38273206 125.180612,3.13277029 124.775385,3.13277029 C124.378695,3.13277029 124.129131,3.400335 124.085947,4.24628206 L124.085947,4.24628206 Z M124.085947,4.84226735 C124.137668,5.76566735 124.491174,6.00758206 125.094244,6.00758206 C125.568766,6.00758206 125.852978,5.80892029 126.008139,5.31654088 L126.783945,5.31654088 C126.654895,6.16299088 126.11158,6.76752618 124.87029,6.76752618 C123.473839,6.76752618 122.594592,5.94722912 122.594592,4.66925559 C122.594592,3.417435 123.534096,2.49353206 124.79296,2.49353206 C126.232093,2.49353206 126.912995,3.417435 126.835665,4.84226735 L124.085947,4.84226735 Z" id="Fill-52"></path>
                        <path d="M129.250757,1.52677853 L129.250757,2.63174029 L130.543768,2.63174029 L130.543768,3.37408147 L129.250757,3.37408147 L129.250757,5.29079029 C129.250757,5.65391382 129.380309,5.86917265 129.647448,5.86917265 C129.914586,5.86917265 130.009491,5.67101382 130.156116,5.07502853 L130.72504,5.21333735 C130.552304,6.29264912 130.138541,6.76742559 129.225148,6.76742559 C128.259533,6.76742559 127.79405,6.28359618 127.79405,5.23898735 L127.79405,3.37408147 L127.104611,3.37408147 L127.104611,2.63174029 L127.837234,2.63174029 L127.837234,1.69928735 L129.250757,1.52677853 Z" id="Fill-54"></path>
                    </g>
                </g>
                <g id="Group-60" transform="translate(45.983193, 58.425000)">
                    <mask id="mask-2" fill="white">
                        <use xlink:href="#path-1"></use>
                    </mask>
                    <g id="Clip-59"></g>
                    <path d="M58.3620145,34.0690983 L47.2115817,34.0690983 L47.2115817,0.086193913 L58.3620145,0.086193913 C70.3221069,0.086193913 77.5161321,6.32843739 77.5161321,17.0543504 C77.5161321,27.7802635 70.4170607,34.0690983 58.3620145,34.0690983 L58.3620145,34.0690983 Z M28.2642183,0.086193913 C35.219838,0.086193913 39.3646216,3.55328087 39.3646216,9.28797652 C39.3646216,12.6167765 37.6493275,14.7897157 35.9820208,15.8528896 C39.5550397,17.0543504 42.2229347,19.4577678 42.2229347,24.1719157 C42.2229347,30.5068461 37.0780733,34.0690983 30.598754,34.0690983 L14.7348359,34.0690983 L14.7348359,0.086193913 L28.2642183,0.086193913 Z M0.0803023109,34.0690983 L7.3692813,34.0690983 L7.3692813,0.0886721739 L0.0803023109,0.0886721739 L0.0803023109,34.0690983 Z M58.1241195,6.55891565 L54.5036237,6.55891565 L54.5036237,27.6424722 L58.1241195,27.6424722 C66.0338716,27.6424722 70.1296468,23.7575504 70.1296468,17.1009417 C70.1296468,10.3977417 65.9863947,6.55891565 58.1241195,6.55891565 L58.1241195,6.55891565 Z M29.69363,27.6424722 C32.8378254,27.6424722 34.8384914,26.2526635 34.8384914,23.6192635 C34.8384914,20.9858635 32.8853023,19.5499591 29.5037225,19.5499591 L21.9758275,19.5499591 L21.9758275,27.6424722 L29.69363,27.6424722 Z M27.5020355,13.9565243 C30.2653947,13.9565243 32.0756426,12.4779939 32.0756426,10.2133591 C32.0756426,7.90213304 30.3128716,6.51232435 27.3116174,6.51232435 L21.9758275,6.51232435 L21.9758275,13.9565243 L27.5020355,13.9565243 Z" id="Fill-58" fill="#FEFEFE" mask="url(#mask-2)"></path>
                </g>
                <g id="Group-63" transform="translate(34.487395, 42.750000)">
                    <mask id="mask-4" fill="white">
                        <use xlink:href="#path-3"></use>
                    </mask>
                    <g id="Clip-62"></g>
                    <path d="M12.9414234,2.57737621 C7.22482469,2.57737621 2.57386372,7.24035293 2.57386372,12.9719077 L2.57386372,53.4255038 C2.57386372,59.156559 7.22482469,63.8195357 12.9414234,63.8195357 L40.3158643,63.8195357 L40.3158643,80.7814008 L58.2524397,63.8195357 L87.6466127,63.8195357 C93.3632114,63.8195357 98.0141724,59.156559 98.0141724,53.4255038 L98.0141724,12.9719077 C98.0141724,7.24035293 93.3632114,2.57737621 87.6466127,2.57737621 L12.9414234,2.57737621 Z M37.8260565,86.5684077 L37.8260565,66.3173805 L12.9414234,66.3173805 C5.85194467,66.3173805 0.0840559115,60.5343702 0.0840559115,53.4255038 L0.0840559115,12.9719077 C0.0840559115,5.86304129 5.85194467,0.0795313793 12.9414234,0.0795313793 L87.6466127,0.0795313793 C94.7360914,0.0795313793 100.50398,5.86304129 100.50398,12.9719077 L100.50398,53.4255038 C100.50398,60.5343702 94.7360914,66.3173805 87.6466127,66.3173805 L59.2413914,66.3173805 L37.8260565,86.5684077 Z" id="Fill-61" fill="#FEFEFE" mask="url(#mask-4)"></path>
                </g>
            </g>
        </g>
    </g>
</svg>