<?xml version="1.0" encoding="UTF-8"?>
<svg width="173px" height="172px" viewBox="0 0 173 172" version="1.1" xmlns="http://www.w3.org/2000/svg" xmlns:xlink="http://www.w3.org/1999/xlink">
    <!-- Generator: Sketch 53.2 (72643) - https://sketchapp.com -->
    <title>LC</title>
    <desc>Created with Sketch.</desc>
    <defs>
        <polygon id="path-1" points="0.478579439 0.502227365 53.2818442 0.502227365 53.2818442 36.9289054 0.478579439 36.9289054"></polygon>
    </defs>
    <g id="Page-1" stroke="none" stroke-width="1" fill="none" fill-rule="evenodd">
        <g id="LP-full-desktop" transform="translate(-337.000000, -1073.000000)">
            <g id="LC" transform="translate(337.000000, 1073.000000)">
                <polygon id="Fill-1" fill="#74B3E1" points="0 172 173 172 173 0 0 0"></polygon>
                <g id="Group-30" transform="translate(33.158333, 146.413223)" fill="#FEFEFE">
                    <path d="M4.9802298,0.25102235 L4.9802298,1.46929903 L3.70864481,1.46929903 L3.70864481,7.65066877 L5.08904764,7.65066877 C6.14401872,7.65066877 6.37391556,7.37576543 6.92873328,5.16269465 L8.16098037,5.16269465 L8.16098037,8.86894545 L0.0537958617,8.86894545 L0.0537958617,7.61160877 L1.15014837,7.61160877 L1.15014837,1.50835904 L0.0537958617,1.50835904 L0.0537958617,0.25102235 L4.9802298,0.25102235 Z" id="Fill-2"></path>
                    <path d="M9.51231402,6.73414301 L9.51231402,3.86545742 L8.63308631,3.86545742 L8.63308631,2.67387999 L11.8000431,2.67387999 L11.8000431,6.55021488 C11.8000431,6.93043191 11.8674795,7.23154006 12.0708105,7.42832339 C12.1786065,7.53264822 12.3681437,7.61126267 12.6251173,7.61126267 C13.1804459,7.61126267 13.6402396,7.04810636 13.6402396,6.30151635 L13.6402396,3.86545742 L12.760501,3.86545742 L12.760501,2.67387999 L15.9269469,2.67387999 L15.9269469,7.67702192 L16.8199684,7.67702192 L16.8199684,8.86859935 L13.8027,8.86859935 L13.8027,7.21819044 C13.4639853,8.20062379 12.8008607,9.01297305 11.5425586,9.01297305 C10.0405659,9.01297305 9.51231402,8.03053971 9.51231402,6.73414301" id="Fill-4"></path>
                    <path d="M17.4818669,7.6771208 L18.3748885,7.6771208 L18.3748885,3.86555631 L17.4818669,3.86555631 L17.4818669,2.67397887 L20.4996462,2.67397887 L20.4996462,4.32438778 C20.83785,3.34195444 21.5004638,2.52960517 22.7863535,2.52960517 C24.3159338,2.52960517 24.8431639,3.51203852 24.8431639,4.80892964 L24.8431639,7.6771208 L25.7234134,7.6771208 L25.7234134,8.86869824 L21.9071258,8.86869824 L21.9071258,7.6771208 L22.5564566,7.6771208 L22.5564566,4.99236335 C22.5564566,4.59929112 22.4752264,4.31103816 22.2856892,4.12760446 C22.1508164,3.99707481 21.9612792,3.93131556 21.7043057,3.93131556 C21.1219003,3.93131556 20.6615958,4.49447186 20.6615958,5.24106188 L20.6615958,7.6771208 L21.2843608,7.6771208 L21.2843608,8.86869824 L17.4818669,8.86869824 L17.4818669,7.6771208 Z" id="Fill-6"></path>
                    <path d="M30.0792944,4.56013223 C30.0792944,3.70822853 29.8356038,3.2760963 29.2945799,3.2760963 C28.753556,3.2760963 28.550225,3.69537334 28.550225,4.56013223 C28.550225,5.4115415 28.7939156,5.81746892 29.3482225,5.81746892 C29.8769852,5.81746892 30.0792944,5.42439669 30.0792944,4.56013223 M31.1214935,9.45796047 C31.1214935,9.18305713 30.8236493,8.99962343 29.9985751,8.99962343 L28.3203281,8.99962343 C27.60305,8.99962343 27.27864,9.2750212 27.27864,9.57612936 C27.27864,9.94299677 27.7517166,10.2174057 29.2404264,10.2174057 C30.6749827,10.2174057 31.1214935,9.90344233 31.1214935,9.45796047 M29.4033977,6.49829968 C29.1464241,6.49829968 28.753556,6.47209486 28.5231483,6.47209486 C28.130791,6.47209486 27.8738174,6.64217894 27.8738174,6.87802228 C27.8738174,7.1267208 28.130791,7.2710945 28.8751459,7.2710945 L30.6611889,7.2710945 C32.433949,7.2710945 33.1517381,7.95192526 33.1517381,8.97341861 C33.1517381,10.2831649 31.9736444,11.1869838 28.969659,11.1869838 C26.7503881,11.1869838 25.8844434,10.6890923 25.8844434,9.8510327 C25.8844434,9.22211714 26.4392611,8.82953935 27.4681772,8.68566008 L27.4681772,8.61990083 C26.6829517,8.50222637 26.2502348,8.00433489 26.2502348,7.4673834 C26.2502348,6.77320302 26.9537191,6.19719152 28.0229949,6.10522745 C27.0216664,5.92179375 26.4121843,5.38484226 26.4121843,4.46816816 C26.4121843,3.40712037 27.3593593,2.53000072 29.2675031,2.53000072 C29.7140139,2.53000072 30.1068821,2.56906073 30.4588797,2.64767517 C30.74293,1.73100108 31.4326205,1.16784477 32.3394359,1.16784477 C33.2595341,1.16784477 33.6115317,1.67859145 33.6115317,2.1759885 C33.6115317,2.66102479 33.2595341,3.05409702 32.6505629,3.05409702 C32.1361049,3.05409702 31.8116949,2.71343442 31.8116949,2.28080776 C31.8116949,2.22889256 31.8254887,2.16313331 31.8254887,2.11072368 C31.5409275,2.16313331 31.2982586,2.38612145 31.1352873,2.85731369 C31.8525654,3.18462666 32.2311289,3.74778297 32.2311289,4.5077226 C32.2311289,5.77791448 31.2982586,6.49829968 29.4033977,6.49829968" id="Fill-8"></path>
                    <path d="M33.7053807,4.65165131 C33.7053807,1.86158017 35.7085486,0.0415816026 38.0494093,0.0415816026 C39.2137091,0.0415816026 40.0658601,0.407954581 40.6073949,1.07642458 L40.905239,0.0677864175 L42.2580543,0.0677864175 L42.2580543,3.5253387 L40.7013972,3.5253387 C40.18745,1.91448423 39.4977595,1.20744865 38.401407,1.20744865 C37.2243351,1.20744865 36.4529035,2.07171312 36.4529035,4.49442242 C36.4529035,6.85186691 37.345925,7.71613137 38.7661766,7.71613137 C39.984119,7.71613137 40.6748313,6.83901171 40.9323158,5.42444614 L42.3796441,5.42444614 C42.1497473,7.61131211 40.9588816,9.07828732 38.4146899,9.07828732 C35.5322943,9.07828732 33.7053807,7.36261358 33.7053807,4.65165131" id="Fill-10"></path>
                    <path d="M47.0062415,6.38022968 L47.0062415,5.96095264 C46.8846516,5.98765189 46.735985,6.00050708 46.3972703,6.06626633 C45.5849681,6.2101456 45.3417883,6.56366338 45.3417883,7.06106044 C45.3417883,7.42842228 45.5578914,7.78144563 46.11322,7.78144563 C46.7078865,7.78144563 47.0062415,7.21828933 47.0062415,6.38022968 M43.0412873,7.3493134 C43.0412873,6.94338599 43.2170306,6.56366338 43.487798,6.30161524 C43.8663615,5.93524226 44.5029203,5.63363967 46.2613757,5.41164039 C46.9791648,5.31967632 47.0062415,5.30682113 47.0062415,5.18865225 L47.0062415,4.67790557 C47.0062415,3.89225555 46.6271672,3.59065296 45.8828123,3.59065296 C45.6529154,3.59065296 45.382148,3.6302074 45.1650232,3.72217147 C45.3555822,3.8784115 45.4628674,4.08854445 45.4628674,4.4025078 C45.4628674,4.88704966 45.0035845,5.24106188 44.4216901,5.24106188 C43.6635414,5.24106188 43.3115438,4.78272483 43.3115438,4.24577334 C43.3115438,3.05370147 44.8814838,2.52960517 46.5060881,2.52960517 C48.6298241,2.52960517 49.2520782,3.52538814 49.2520782,4.80892964 L49.2520782,7.4936871 C49.2520782,7.78144563 49.3879728,7.83434969 49.5504333,7.83434969 C49.6858169,7.83434969 49.8344836,7.70332562 49.9433014,7.17922932 L50.6866345,7.36266303 C50.4572486,8.50232526 49.9433014,9.01307194 48.9005915,9.01307194 C48.0484405,9.01307194 47.4118817,8.5937949 47.2632151,7.61136155 L47.1952678,7.61136155 C46.748757,8.67240934 46.0314789,9.01307194 45.0434333,9.01307194 C43.920515,9.01307194 43.0412873,8.38415638 43.0412873,7.3493134" id="Fill-12"></path>
                    <path d="M50.8623268,7.6771208 L51.7553483,7.6771208 L51.7553483,3.86555631 L50.8623268,3.86555631 L50.8623268,2.67397887 L53.8801061,2.67397887 L53.8801061,4.32438778 C54.217799,3.34195444 54.8809237,2.52960517 56.1668134,2.52960517 C57.6963937,2.52960517 58.2236238,3.51203852 58.2236238,4.80892964 L58.2236238,7.6771208 L59.1038733,7.6771208 L59.1038733,8.86869824 L55.2875856,8.86869824 L55.2875856,7.6771208 L55.9364056,7.6771208 L55.9364056,4.99236335 C55.9364056,4.59929112 55.8551754,4.31103816 55.6661491,4.12760446 C55.5307654,3.99707481 55.3417391,3.93131556 55.0842547,3.93131556 C54.5023602,3.93131556 54.0420556,4.49447186 54.0420556,5.24106188 L54.0420556,7.6771208 L54.6643098,7.6771208 L54.6643098,8.86869824 L50.8623268,8.86869824 L50.8623268,7.6771208 Z" id="Fill-14"></path>
                    <path d="M59.6425982,5.88263485 C59.6425982,3.86535853 61.0904374,2.52990183 63.2560657,2.52990183 C65.2863103,2.52990183 66.165538,3.65621444 66.165538,4.63864779 C66.165538,5.31947855 65.7598978,5.80402041 65.0012382,5.80402041 C64.2977539,5.80402041 63.9059075,5.34568336 63.9059075,4.80873187 C63.9059075,4.36325002 64.1899578,4.08834668 64.5010849,3.97067222 C64.3120586,3.74817851 64.0137035,3.59094962 63.540116,3.59094962 C62.6746821,3.59094962 62.0652001,4.38945483 62.0652001,5.75161078 C62.0652001,6.94368264 62.5525814,7.76839267 63.5268331,7.76839267 C64.2441113,7.76839267 64.690622,7.36246525 64.9205189,6.70783931 L66.1522551,6.70783931 C65.8814877,8.01758563 64.9475956,9.01287416 63.2422719,9.01287416 C60.9826414,9.01287416 59.6425982,7.78174229 59.6425982,5.88263485" id="Fill-16"></path>
                    <path d="M69.1138373,5.18855336 L71.225823,5.18855336 C71.1711586,3.87880704 70.8329548,3.49908444 70.1974178,3.49908444 C69.5741419,3.49908444 69.1817846,3.90501186 69.1138373,5.18855336 L69.1138373,5.18855336 Z M69.1138373,6.09237226 C69.1955784,7.49358821 69.750907,7.86045562 70.698082,7.86045562 C71.4424369,7.86045562 71.8889477,7.55885304 72.1316166,6.81226303 L73.349559,6.81226303 C73.1477606,8.09629896 72.2945879,9.01297305 70.3455735,9.01297305 C68.1533794,9.01297305 66.7729766,7.76849156 66.7729766,5.83032411 C66.7729766,3.93121667 68.2478925,2.53000072 70.2244945,2.53000072 C72.4841251,2.53000072 73.55289,3.93121667 73.4313001,6.09237226 L69.1138373,6.09237226 Z" id="Fill-18"></path>
                    <path d="M74.1752973,7.6771208 L75.0683189,7.6771208 L75.0683189,3.86555631 L74.1752973,3.86555631 L74.1752973,2.67397887 L77.1930766,2.67397887 L77.1930766,4.33724298 C77.5987168,3.14566554 78.3022011,2.52960517 79.2360932,2.52960517 C80.0611674,2.52960517 80.6027022,3.14566554 80.6027022,3.81364111 C80.6027022,4.54638706 80.0882442,5.05762817 79.4389133,5.05762817 C78.7895825,5.05762817 78.3022011,4.70361595 78.3022011,4.06233963 C78.3022011,4.04899001 78.315995,4.0227852 78.315995,4.00993 C78.0595323,4.06233963 77.5987168,4.33724298 77.3550261,5.07097779 L77.3550261,7.6771208 L78.5326089,7.6771208 L78.5326089,8.86869824 L74.1752973,8.86869824 L74.1752973,7.6771208 Z" id="Fill-20"></path>
                    <path d="M80.0205013,7.80774934 C80.0205013,7.07450895 80.6029066,6.49849745 81.3871103,6.49849745 C82.1447481,6.49849745 82.7266426,7.06115932 82.7266426,7.78154452 C82.7266426,8.51527934 82.1447481,9.09178527 81.3600335,9.09178527 C80.6029066,9.09178527 80.0205013,8.52862896 80.0205013,7.80774934" id="Fill-22"></path>
                    <path d="M83.5387915,7.6771208 L84.431813,7.6771208 L84.431813,3.86555631 L83.5387915,3.86555631 L83.5387915,2.67397887 L86.5565707,2.67397887 L86.5565707,4.32438778 C86.8947745,3.34195444 87.5573883,2.52960517 88.843278,2.52960517 C90.3728583,2.52960517 90.9000884,3.51203852 90.9000884,4.80892964 L90.9000884,7.6771208 L91.7803379,7.6771208 L91.7803379,8.86869824 L87.9640503,8.86869824 L87.9640503,7.6771208 L88.6133812,7.6771208 L88.6133812,4.99236335 C88.6133812,4.59929112 88.5321509,4.31103816 88.3426138,4.12760446 C88.2072301,3.99707481 88.0182038,3.93131556 87.7607193,3.93131556 C87.1788248,3.93131556 86.7185203,4.49447186 86.7185203,5.24106188 L86.7185203,7.6771208 L87.3412853,7.6771208 L87.3412853,8.86869824 L83.5387915,8.86869824 L83.5387915,7.6771208 Z" id="Fill-24"></path>
                    <path d="M94.6604345,5.18855336 L96.7719093,5.18855336 C96.7172449,3.87880704 96.3790411,3.49908444 95.7435041,3.49908444 C95.1202282,3.49908444 94.7278709,3.90501186 94.6604345,5.18855336 L94.6604345,5.18855336 Z M94.6604345,6.09237226 C94.7416647,7.49358821 95.2969933,7.86045562 96.2441683,7.86045562 C96.9885232,7.86045562 97.435034,7.55885304 97.6782137,6.81226303 L98.8961561,6.81226303 C98.6938469,8.09629896 97.8406742,9.01297305 95.8921707,9.01297305 C93.6994657,9.01297305 92.3190629,7.76849156 92.3190629,5.83032411 C92.3190629,3.93121667 93.7944897,2.53000072 95.7705808,2.53000072 C98.0302114,2.53000072 99.0989762,3.93121667 98.9773864,6.09237226 L94.6604345,6.09237226 Z" id="Fill-26"></path>
                    <path d="M102.766189,1.06317384 L102.766189,2.73978757 L104.795411,2.73978757 L104.795411,3.86560575 L102.766189,3.86560575 L102.766189,6.77335135 C102.766189,7.32365246 102.968498,7.650471 103.388443,7.650471 C103.807877,7.650471 103.957054,7.34936285 104.18644,6.44603838 L105.079973,6.6556769 C104.809205,8.29273618 104.159874,9.01312138 102.725318,9.01312138 C101.209531,9.01312138 100.478459,8.27938656 100.478459,6.6947369 L100.478459,3.86560575 L99.3964117,3.86560575 L99.3964117,2.73978757 L100.546407,2.73978757 L100.546407,1.32472756 L102.766189,1.06317384 Z" id="Fill-28"></path>
                </g>
                <g id="Group-33" transform="translate(59.108333, 56.859504)">
                    <mask id="mask-2" fill="white">
                        <use xlink:href="#path-1"></use>
                    </mask>
                    <g id="Clip-32"></g>
                    <path d="M40.873426,0.502227365 C30.5989236,0.502227365 23.3469496,8.30666814 23.3469496,18.6920566 C23.3469496,29.1287765 30.5989236,36.9291107 40.873426,36.9291107 C45.8471625,36.9291107 49.8936514,35.3984055 53.2840876,31.5695892 L48.8701893,26.2542127 C47.0545785,28.5045855 44.406439,30.2775754 40.873426,30.2775754 C34.5980531,30.2775754 30.5057004,25.3949234 30.5057004,18.6920566 C30.5057004,11.9922696 34.5980531,7.15786924 40.873426,7.15786924 C44.3600766,7.15786924 46.9628508,8.87901433 48.776966,11.0816489 L53.2377252,5.76627236 C49.9400137,2.27521726 46.2639254,0.502227365 40.873426,0.502227365 L40.873426,0.502227365 Z M7.58822597,1.12641837 L7.58822597,29.8920758 L22.1385365,29.8920758 L22.1385365,36.3090263 L0.476336098,36.3090263 L0.476336098,1.12641837 L7.58822597,1.12641837 Z" id="Fill-31" fill="#FEFEFE" mask="url(#mask-2)"></path>
                </g>
                <path d="M59.2680291,45.1898898 C53.4284639,45.1898898 48.678028,49.9413843 48.678028,55.7817418 L48.678028,97.0037821 C48.678028,102.843631 53.4284639,107.595125 59.2680291,107.595125 L75.5861379,107.595125 L75.5861379,124.877961 L93.9069213,107.595125 L112.290813,107.595125 C118.129869,107.595125 122.880305,102.843631 122.880305,97.0037821 L122.880305,55.7817418 C122.880305,49.9413843 118.129869,45.1898898 112.290813,45.1898898 L59.2680291,45.1898898 Z M73.0414432,130.77686 L73.0414432,110.140387 L59.2680291,110.140387 C52.0258282,110.140387 46.1333333,104.247597 46.1333333,97.0037821 L46.1333333,55.7817418 C46.1333333,48.537927 52.0258282,42.6446281 59.2680291,42.6446281 L112.290813,42.6446281 C119.533014,42.6446281 125.425,48.537927 125.425,55.7817418 L125.425,97.0037821 C125.425,104.247597 119.533014,110.140387 112.290813,110.140387 L94.917674,110.140387 L73.0414432,130.77686 Z" id="Fill-34" fill="#FEFEFE"></path>
            </g>
        </g>
    </g>
</svg>