<?xml version="1.0" encoding="UTF-8"?>
<svg width="173px" height="171px" viewBox="0 0 173 171" version="1.1" xmlns="http://www.w3.org/2000/svg" xmlns:xlink="http://www.w3.org/1999/xlink">
    <!-- Generator: Sketch 53.2 (72643) - https://sketchapp.com -->
    <title>M</title>
    <desc>Created with Sketch.</desc>
    <defs>
        <polygon id="path-1" points="0.381617647 0.0791317241 68.7364618 0.0791317241 68.7364618 86.5693069 0.381617647 86.5693069"></polygon>
    </defs>
    <g id="Page-1" stroke="none" stroke-width="1" fill="none" fill-rule="evenodd">
        <g id="LP-full-desktop" transform="translate(-707.000000, -1073.000000)">
            <g id="M" transform="translate(707.000000, 1073.000000)">
                <polygon id="Fill-1" fill="#237EBD" points="0 171 173 171 173 0 0 0"></polygon>
                <polygon id="Fill-2" fill="#FEFEFE" points="103.459623 58.425 86.4427684 81.9813554 69.3812333 58.425 69.2 58.425 69.2 92.2699827 76.407664 92.2699827 76.407664 78.1080823 86.2575189 92.625 86.6295241 92.625 96.592336 78.1080823 96.592336 92.2699827 103.8 92.2699827 103.8 58.425"></polygon>
                <g id="Group-28" transform="translate(18.741667, 136.800000)" fill="#FEFEFE">
                    <polygon id="Fill-3" points="0.0431912086 12.8873279 1.62991049 12.8873279 1.62991049 3.38863417 0.0431912086 3.38863417 0.0431912086 1.43167375 6.7905502 1.43167375 9.42105703 8.99399042 9.5011534 8.99399042 11.850816 1.43167375 18.4770165 1.43167375 18.4770165 3.38863417 16.850756 3.38863417 16.850756 12.8873279 18.4770165 12.8873279 18.4770165 14.8442883 11.4493202 14.8442883 11.4493202 12.8873279 13.0558101 12.8873279 13.0558101 3.918655 12.8748329 3.918655 9.13970584 14.8643571 7.65386744 14.8643571 3.73827008 3.918655 3.55779977 3.918655 3.55779977 12.8873279 5.12322761 12.8873279 5.12322761 14.8442883 0.0431912086 14.8442883"></polygon>
                    <g id="Group-27" transform="translate(19.263685, 0.000000)">
                        <path d="M1.26202481,2.20622458 C1.26202481,1.12611417 2.08529386,0.2698475 3.2705174,0.2698475 C4.47500462,0.2698475 5.27850305,1.06487875 5.27850305,2.12492042 C5.27850305,3.20503083 4.455234,4.0612975 3.2705174,4.0612975 C2.06552323,4.0612975 1.26202481,3.26626625 1.26202481,2.20622458 L1.26202481,2.20622458 Z M0.258285455,12.9893183 L1.7238463,12.9893183 L1.7238463,7.05771625 L0.258285455,7.05771625 L0.258285455,5.20264333 L5.11729642,5.20264333 L5.11729642,12.9893183 L6.58336421,12.9893183 L6.58336421,14.8443913 L0.258285455,14.8443913 L0.258285455,12.9893183 Z" id="Fill-5"></path>
                        <path d="M13.0498283,8.13798104 C13.0498283,6.81292896 12.6883807,6.14036854 11.8848823,6.14036854 C11.0818908,6.14036854 10.7802621,6.79286021 10.7802621,8.13798104 C10.7802621,9.46303313 11.1417096,10.0949415 11.9649787,10.0949415 C12.7481995,10.0949415 13.0498283,9.48310188 13.0498283,8.13798104 M14.5959924,15.7615331 C14.5959924,15.3333998 14.1544485,15.047806 12.9291768,15.047806 L10.439599,15.047806 C9.37502696,15.047806 8.89292791,15.4759394 8.89292791,15.9447248 C8.89292791,16.5153977 9.59605239,16.943531 11.8047859,16.943531 C13.9329161,16.943531 14.5959924,16.4546769 14.5959924,15.7615331 M12.0460889,11.1544685 C11.6643638,11.1544685 11.0818908,11.1138165 10.7402139,11.1138165 C10.1582478,11.1138165 9.7765227,11.3788269 9.7765227,11.7457248 C9.7765227,12.133206 10.1582478,12.3575644 11.262868,12.3575644 L13.9131455,12.3575644 C16.5441593,12.3575644 17.6077174,13.4170915 17.6077174,15.007154 C17.6077174,17.0459331 15.8608054,18.4517748 11.4032902,18.4517748 C8.10970705,18.4517748 6.82461651,17.6773269 6.82461651,16.3728581 C6.82461651,15.3946352 7.64788555,14.7833102 9.17377215,14.5589519 L9.17377215,14.4570644 C8.00933311,14.2733581 7.36653437,13.4989102 7.36653437,12.6632269 C7.36653437,11.5826019 8.41133579,10.6856831 9.99754814,10.5431435 C8.51170973,10.2580644 7.60783737,9.42238104 7.60783737,7.99544146 C7.60783737,6.34414354 9.0135794,4.97843937 11.8448341,4.97843937 C12.5074035,4.97843937 13.0898764,5.03967479 13.6115168,5.16214562 C14.0332901,3.73520604 15.0578139,2.85835604 16.4032302,2.85835604 C17.768924,2.85835604 18.2905643,3.65338729 18.2905643,4.42834979 C18.2905643,5.18221438 17.768924,5.79353938 16.8650517,5.79353938 C16.1021084,5.79353938 15.6200093,5.26403312 15.6200093,4.59095812 C15.6200093,4.50965396 15.63978,4.40776646 15.63978,4.32646229 C15.2180067,4.40776646 14.8565591,4.75408104 14.61627,5.48839146 C15.6798281,5.99782896 16.2425305,6.87416437 16.2425305,8.05616229 C16.2425305,10.033706 14.8565591,11.1544685 12.0460889,11.1544685" id="Fill-7"></path>
                        <path d="M18.270743,12.9893183 L19.5958818,12.9893183 L19.5958818,7.05771625 L18.270743,7.05771625 L18.270743,5.20264333 L22.7490428,5.20264333 L22.7490428,7.79151208 C23.3507794,5.93643917 24.3955808,4.97879958 25.7810453,4.97879958 C27.0058101,4.97879958 27.8088016,5.93643917 27.8088016,6.9758975 C27.8088016,8.11775792 27.0463652,8.91278917 26.0821671,8.91278917 C25.118476,8.91278917 24.3955808,8.362185 24.3955808,7.36337875 C24.3955808,7.34279542 24.4153515,7.30214333 24.4153515,7.28207458 C24.0341333,7.36337875 23.3507794,7.79151208 22.9898388,8.93285792 L22.9898388,12.9893183 L24.7367508,12.9893183 L24.7367508,14.8438767 L18.270743,14.8438767 L18.270743,12.9893183 Z" id="Fill-9"></path>
                        <path d="M33.8937433,10.9712254 L33.8937433,10.3187337 C33.713273,10.3599004 33.4922476,10.3804837 32.9903779,10.4818567 C31.7853837,10.706215 31.4239362,11.2568192 31.4239362,12.0312671 C31.4239362,12.60194 31.7453355,13.1525442 32.5686046,13.1525442 C33.4521994,13.1525442 33.8937433,12.2756942 33.8937433,10.9712254 M28.0102085,12.4799838 C28.0102085,11.8480754 28.2712821,11.2568192 28.6727778,10.8492692 C29.2354802,10.2780817 30.1788938,9.80929625 32.7891231,9.46298167 C33.8536951,9.32044208 33.8937433,9.29985875 33.8937433,9.11666708 L33.8937433,8.32163583 C33.8937433,7.09847125 33.3315479,6.62968583 32.2274346,6.62968583 C31.8857577,6.62968583 31.4842619,6.69092125 31.1628625,6.83346083 C31.4442137,7.07788792 31.6044065,7.40413375 31.6044065,7.8935025 C31.6044065,8.64736708 30.9220665,9.19797125 30.0587493,9.19797125 C28.9338515,9.19797125 28.4122112,8.48424417 28.4122112,7.64856083 C28.4122112,5.79348792 30.7410892,4.97838792 33.1505706,4.97838792 C36.3037316,4.97838792 37.2273746,6.52779833 37.2273746,8.52541083 L37.2273746,12.7038275 C37.2273746,13.1525442 37.4281225,13.2338483 37.6689185,13.2338483 C37.8701734,13.2338483 38.0906919,13.0300733 38.2513915,12.2149733 L39.3555048,12.5000525 C39.0148418,14.2733067 38.2513915,15.0683379 36.7052274,15.0683379 C35.4404144,15.0683379 34.4959869,14.4158462 34.2754684,12.8875338 L34.1750945,12.8875338 C33.5125251,14.5383171 32.4479531,15.0683379 30.9823922,15.0683379 C29.3155766,15.0683379 28.0102085,14.090115 28.0102085,12.4799838" id="Fill-11"></path>
                        <path d="M40.6210782,2.20622458 C40.6210782,1.12611417 41.4443473,0.2698475 42.6295708,0.2698475 C43.834058,0.2698475 44.6375564,1.06487875 44.6375564,2.12492042 C44.6375564,3.20503083 43.8142874,4.0612975 42.6295708,4.0612975 C41.4245766,4.0612975 40.6210782,3.26626625 40.6210782,2.20622458 L40.6210782,2.20622458 Z M39.6173389,12.9893183 L41.0828997,12.9893183 L41.0828997,7.05771625 L39.6173389,7.05771625 L39.6173389,5.20264333 L44.4763498,5.20264333 L44.4763498,12.9893183 L45.9424176,12.9893183 L45.9424176,14.8443913 L39.6173389,14.8443913 L39.6173389,12.9893183 Z" id="Fill-13"></path>
                        <path d="M46.7860656,12.9893183 L48.1112043,12.9893183 L48.1112043,7.05771625 L46.7860656,7.05771625 L46.7860656,5.20264333 L51.2643653,5.20264333 L51.2643653,7.77092875 C51.766235,6.24210167 52.7502037,4.97879958 54.6578155,4.97879958 C56.9268747,4.97879958 57.7100956,6.50711208 57.7100956,8.52530792 L57.7100956,12.9893183 L59.0154637,12.9893183 L59.0154637,14.8438767 L53.3524474,14.8438767 L53.3524474,12.9893183 L54.3161385,12.9893183 L54.3161385,8.81038708 C54.3161385,8.19906208 54.195994,7.75034542 53.9151497,7.46526625 C53.7138949,7.26149125 53.4325437,7.15960375 53.0513255,7.15960375 C52.1880083,7.15960375 51.5051614,8.03593917 51.5051614,9.19786833 L51.5051614,12.9893183 L52.4288044,12.9893183 L52.4288044,14.8438767 L46.7860656,14.8438767 L46.7860656,12.9893183 Z" id="Fill-15"></path>
                        <path d="M63.293269,9.11640979 L66.4261524,9.11640979 C66.3455491,7.07814521 65.8436795,6.48688896 64.8997589,6.48688896 C63.9766229,6.48688896 63.3936429,7.11879729 63.293269,9.11640979 L63.293269,9.11640979 Z M63.293269,10.522766 C63.4139205,12.7040848 64.2371895,13.2747577 65.6429316,13.2747577 C66.7470449,13.2747577 67.4101212,12.8059723 67.7715687,11.6440431 L69.5782996,11.6440431 C69.2776847,13.6416556 68.0128717,15.0680806 65.1207843,15.0680806 C61.8672494,15.0680806 59.8192156,13.1322181 59.8192156,10.115216 C59.8192156,7.15944938 62.0081785,4.97864521 64.9398071,4.97864521 C68.293209,4.97864521 69.8799283,7.15944938 69.699458,10.522766 L63.293269,10.522766 Z" id="Fill-17"></path>
                        <path d="M70.5428525,13.1930933 C70.5428525,12.0517475 71.4061698,11.1548288 72.5711157,11.1548288 C73.6955066,11.1548288 74.5593308,12.0311642 74.5593308,13.1524413 C74.5593308,14.2937871 73.6955066,15.1907058 72.5310676,15.1907058 C71.4061698,15.1907058 70.5428525,14.3143704 70.5428525,13.1930933" id="Fill-19"></path>
                        <path d="M75.3216657,10.196829 C75.3216657,7.05735604 77.4700735,4.97843938 80.6830533,4.97843938 C83.6957922,4.97843938 85.0006534,6.73162479 85.0006534,8.26045188 C85.0006534,9.31997896 84.3979028,10.0743581 83.2740189,10.0743581 C82.2297244,10.0743581 81.6472514,9.36063104 81.6472514,8.52494771 C81.6472514,7.83231854 82.0690247,7.40418521 82.5308462,7.22047896 C82.249495,6.87416438 81.8079511,6.62973729 81.1048266,6.62973729 C79.8197361,6.62973729 78.9163707,7.87297063 78.9163707,9.99305396 C78.9163707,11.8476123 79.6392658,13.1320123 81.0845491,13.1320123 C82.1491211,13.1320123 82.8116905,12.500104 83.1528605,11.4807144 L84.9808827,11.4807144 C84.5788801,13.5194935 83.1934156,15.0683894 80.6632827,15.0683894 C77.3098808,15.0683894 75.3216657,13.1525956 75.3216657,10.196829" id="Fill-21"></path>
                        <path d="M92.7922561,10.0131227 C92.7922561,7.42425396 92.310664,6.48668313 91.1457181,6.48668313 C90.0010496,6.48668313 89.5995539,7.46542063 89.5995539,10.033706 C89.5995539,12.6220602 90.081146,13.5601456 91.246092,13.5601456 C92.3907604,13.5601456 92.7922561,12.5814081 92.7922561,10.0131227 M85.904475,10.0743581 C85.904475,7.07793938 88.23386,4.97843938 91.2060438,4.97843938 C94.2583239,4.97843938 96.4868281,6.97605188 96.4868281,9.97247063 C96.4868281,12.9688894 94.1574431,15.0683894 91.1857662,15.0683894 C88.1334861,15.0683894 85.904475,13.0707769 85.904475,10.0743581" id="Fill-23"></path>
                        <path d="M111.306938,4.97859375 C113.475624,4.97859375 114.258844,6.50742083 114.258844,8.52510208 L114.258844,12.9891125 L115.563706,12.9891125 L115.563706,14.8441854 L109.9818,14.8441854 L109.9818,12.9891125 L110.865394,12.9891125 L110.865394,8.81069583 C110.865394,8.19885625 110.744743,7.73007083 110.463392,7.44499167 C110.282414,7.2618 110.042125,7.15939792 109.700448,7.15939792 C108.937505,7.15939792 108.254658,8.03573333 108.254658,9.1976625 L108.254658,12.9891125 L109.098205,12.9891125 L109.098205,14.8441854 L103.977613,14.8441854 L103.977613,12.9891125 L104.861208,12.9891125 L104.861208,8.81069583 C104.861208,8.19885625 104.740557,7.73007083 104.459205,7.44499167 C104.278735,7.2618 104.037432,7.15939792 103.696262,7.15939792 C102.933319,7.15939792 102.250472,8.03573333 102.250472,9.1976625 L102.250472,12.9891125 L103.094018,12.9891125 L103.094018,14.8441854 L97.531376,14.8441854 L97.531376,12.9891125 L98.8565147,12.9891125 L98.8565147,7.05751042 L97.531376,7.05751042 L97.531376,5.20295208 L102.009676,5.20295208 L102.009676,7.7712375 C102.511545,6.24241042 103.495514,4.97859375 105.302752,4.97859375 C107.029386,4.97859375 107.853162,6.03863542 108.093958,7.56694792 C108.616106,6.11993958 109.580304,4.97859375 111.306938,4.97859375" id="Fill-25"></path>
                    </g>
                </g>
                <g id="Group-31" transform="translate(51.900000, 42.750000)">
                    <mask id="mask-2" fill="white">
                        <use xlink:href="#path-1"></use>
                    </mask>
                    <g id="Clip-30"></g>
                    <path d="M13.5127756,2.57697655 C7.67402559,2.57697655 2.92415794,7.23995328 2.92415794,12.971508 L2.92415794,53.4256037 C2.92415794,59.1566589 7.67402559,63.8196356 13.5127756,63.8196356 L24.3690344,63.8196356 L24.3690344,80.7805016 L42.6871903,63.8196356 L55.6062197,63.8196356 C61.4444609,63.8196356 66.1943285,59.1566589 66.1943285,53.4256037 L66.1943285,12.971508 C66.1943285,7.23995328 61.4444609,2.57697655 55.6062197,2.57697655 L13.5127756,2.57697655 Z M21.8249168,86.5695067 L21.8249168,66.3174804 L13.5127756,66.3174804 C6.27170794,66.3174804 0.380040294,60.5344701 0.380040294,53.4256037 L0.380040294,12.971508 C0.380040294,5.86264164 6.27170794,0.0791317241 13.5127756,0.0791317241 L55.6062197,0.0791317241 C62.8472874,0.0791317241 68.7384462,5.86264164 68.7384462,12.971508 L68.7384462,53.4256037 C68.7384462,60.5344701 62.8472874,66.3174804 55.6062197,66.3174804 L43.6977138,66.3174804 L21.8249168,86.5695067 Z" id="Fill-29" fill="#FEFEFE" mask="url(#mask-2)"></path>
                </g>
            </g>
        </g>
    </g>
</svg>