<?xml version="1.0" encoding="UTF-8"?>
<svg width="1400px" height="850px" viewBox="0 0 1400 850" version="1.1" xmlns="http://www.w3.org/2000/svg" xmlns:xlink="http://www.w3.org/1999/xlink">
    <!-- Generator: Sketch 53.2 (72643) - https://sketchapp.com -->
    <title>Group 12</title>
    <desc>Created with Sketch.</desc>
    <defs>
        <polygon id="path-1" points="0 0 1404 0 1404 850 0 850"></polygon>
        <radialGradient cx="50%" cy="45.8269281%" fx="50%" fy="45.8269281%" r="76.8082241%" gradientTransform="translate(0.500000,0.458269),scale(0.627493,1.000000),rotate(90.000000),translate(-0.500000,-0.458269)" id="radialGradient-3">
            <stop stop-color="#FFFFFF" offset="0%"></stop>
            <stop stop-color="#0035B0" offset="100%"></stop>
        </radialGradient>
        <radialGradient cx="50%" cy="50%" fx="50%" fy="50%" r="325.559085%" gradientTransform="translate(0.500000,0.500000),scale(1.000000,0.997630),rotate(180.000000),translate(-0.500000,-0.500000)" id="radialGradient-4">
            <stop stop-color="#FFFFFF" offset="0%"></stop>
            <stop stop-color="#FFFFFF" offset="10.8423062%"></stop>
            <stop stop-color="#0035B0" offset="100%"></stop>
        </radialGradient>
        <radialGradient cx="50%" cy="50%" fx="50%" fy="50%" r="325.559085%" gradientTransform="translate(0.500000,0.500000),scale(1.000000,0.996865),rotate(180.000000),translate(-0.500000,-0.500000)" id="radialGradient-5">
            <stop stop-color="#FFFFFF" offset="0%"></stop>
            <stop stop-color="#FFFFFF" offset="10.8423062%"></stop>
            <stop stop-color="#0035B0" offset="100%"></stop>
        </radialGradient>
        <radialGradient cx="50%" cy="50%" fx="50%" fy="50%" r="325.559085%" id="radialGradient-6">
            <stop stop-color="#FFFFFF" offset="0%"></stop>
            <stop stop-color="#FFFFFF" offset="10.8423062%"></stop>
            <stop stop-color="#0035B0" offset="100%"></stop>
        </radialGradient>
    </defs>
    <g id="Page-1" stroke="none" stroke-width="1" fill="none" fill-rule="evenodd">
        <g id="LP-open-desktop">
            <g id="Group-12">
                <g id="Group-3">
                    <mask id="mask-2" fill="white">
                        <use xlink:href="#path-1"></use>
                    </mask>
                    <g id="Clip-2"></g>
                    <path d="M463.756967,411.000171 C463.756967,280.411531 569.526676,174.548341 700,174.548341 C830.473324,174.548341 936.242177,280.411531 936.242177,411.000171 C936.242177,541.587955 830.473324,647.451145 700,647.451145 C569.526676,647.451145 463.756967,541.587955 463.756967,411.000171 Z M0,881 L1404,881 L1404,0 L0,0 L0,881 Z" id="Fill-1" fill="url(#radialGradient-3)" mask="url(#mask-2)"></path>
                </g>
                <path d="M830.199964,541.010415 C795.288357,576.004948 748.872139,595.276292 699.500428,595.276292 C650.128716,595.276292 603.711643,576.004948 568.800891,541.010415 C533.889284,506.015883 514.662751,459.489413 514.662751,410.000429 C514.662751,360.511445 533.889284,313.984117 568.800036,278.990442 C603.711643,243.99591 650.128716,224.723708 699.500428,224.723708 C748.872139,224.723708 795.288357,243.99591 830.199109,278.989585 C865.111571,313.984117 884.337249,360.511445 884.337249,410.000429 C884.337249,459.489413 865.111571,506.015883 830.199964,541.010415 M699.500428,199 C643.27334,199 590.412349,220.947468 550.653904,260.800351 C510.895459,300.653234 489,353.639785 489,410.000429 C489,466.360215 510.895459,519.346766 550.653904,559.199649 C590.412349,599.051675 643.27334,621 699.500428,621 C755.72666,621 808.587651,599.051675 848.346096,559.199649 C888.103685,519.346766 910,466.360215 910,410.000429 C910,353.639785 888.103685,300.653234 848.346096,260.800351 C808.587651,220.947468 755.72666,199 699.500428,199" id="Fill-4" fill="url(#radialGradient-4)"></path>
                <path d="M794.303351,504.10076 C769.113921,529.369402 735.623147,543.28477 700.000427,543.28477 C664.376853,543.28477 630.886079,529.369402 605.696649,504.10076 C580.507219,478.832117 566.634618,445.235169 566.634618,409.500429 C566.634618,373.764831 580.507219,340.16874 605.696649,314.900098 C630.886079,289.631455 664.376853,275.71523 700.000427,275.71523 C735.623147,275.71523 769.113921,289.630598 794.303351,314.89924 C819.492781,340.167883 833.365382,373.764831 833.365382,409.500429 C833.365382,445.235169 819.492781,478.832117 794.303351,504.10076 M700.000427,250 C657.529847,250 617.601366,266.591466 587.570411,296.716858 C557.539456,326.84225 541,366.896293 541,409.500429 C541,452.103707 557.539456,492.15775 587.570411,522.283999 C617.601366,552.408534 657.529847,569 700.000427,569 C742.471008,569 782.398634,552.408534 812.430444,522.283999 C842.460544,492.15775 859,452.104565 859,409.500429 C859,366.896293 842.460544,326.84225 812.429589,296.716001 C782.39778,266.590609 742.471008,250 700.000427,250" id="Fill-6" fill="url(#radialGradient-5)"></path>
                <path d="M758.195096,468.196809 C742.650819,483.741086 721.983938,492.301317 699.999572,492.301317 C678.016062,492.301317 657.348324,483.740229 641.803191,468.195952 C626.258914,452.651676 617.698683,431.983938 617.698683,409.999572 C617.698683,388.016918 626.258914,367.349181 641.804048,351.804904 C657.348324,336.258914 678.016062,327.698683 699.999572,327.698683 C721.983082,327.698683 742.650819,336.258914 758.195952,351.804048 C773.739373,367.348324 782.301317,388.016062 782.301317,409.999572 C782.301317,431.983938 773.739373,452.651676 758.195096,468.196809 M699.999572,302 C671.151943,302 644.031267,313.233751 623.632509,333.633365 C603.233751,354.031267 592,381.1528 592,409.999572 C592,438.8472 603.233751,465.968733 623.632509,486.367491 C644.031267,506.765392 671.151943,518 699.999572,518 C728.848057,518 755.968733,506.765392 776.367491,486.368348 C796.765392,465.968733 808,438.848057 808,409.999572 C808,381.151943 796.765392,354.031267 776.367491,333.632509 C755.967877,313.233751 728.8472,302 699.999572,302" id="Fill-8" fill="url(#radialGradient-6)"></path>
            </g>
        </g>
    </g>
</svg>