<?xml version="1.0" encoding="UTF-8"?>
<svg width="171px" height="172px" viewBox="0 0 171 172" version="1.1" xmlns="http://www.w3.org/2000/svg" xmlns:xlink="http://www.w3.org/1999/xlink">
    <!-- Generator: Sketch 53.2 (72643) - https://sketchapp.com -->
    <title>MS</title>
    <desc>Created with Sketch.</desc>
    <defs>
        <polygon id="path-1" points="0.427098752 0.372639972 67.2962895 0.372639972 67.2962895 35.5086602 0.427098752 35.5086602"></polygon>
        <polygon id="path-3" points="0.231714192 0.0797340173 91.4678671 0.0797340173 91.4678671 86.3515421 0.231714192 86.3515421"></polygon>
    </defs>
    <g id="Page-1" stroke="none" stroke-width="1" fill="none" fill-rule="evenodd">
        <g id="LP-full-desktop" transform="translate(-522.000000, -1072.000000)">
            <g id="MS" transform="translate(522.000000, 1072.000000)">
                <polygon id="Fill-1" fill="#F05A50" points="0 172 171 172 171 0 0 0"></polygon>
                <g id="Group-4" transform="translate(53.168067, 59.702479)">
                    <mask id="mask-2" fill="white">
                        <use xlink:href="#path-1"></use>
                    </mask>
                    <g id="Clip-3"></g>
                    <path d="M66.095675,3.93036317 L62.3031669,9.7469503 C60.1424763,8.08671284 57.4539518,6.79436038 53.7092397,6.79436038 C50.5884731,6.79436038 48.6683211,7.99261436 48.6683211,10.4887266 C48.6683211,12.4252532 50.0123236,13.3942673 55.2932612,14.3652834 C64.4160615,16.2112152 67.2962895,19.3970492 67.2962895,24.6125073 C67.2962895,31.1238214 62.2548514,35.509411 53.9492587,35.509411 C48.5722095,35.509411 43.7713099,33.8942207 40.2666169,30.9846758 L44.2513479,25.1210395 C46.603742,27.5235537 50.5884731,29.0911943 54.1892777,29.0911943 C57.8861938,29.0911943 59.9980493,27.7522931 59.9980493,25.2601851 C59.9980493,23.2736061 58.4135083,22.1684495 53.1808861,21.1979339 C44.0591249,19.3049529 41.3222849,15.796281 41.3222849,10.8100629 C41.3222849,4.71368292 46.1715,0.375643115 53.7570357,0.375643115 C58.7984738,0.375643115 63.1666119,1.761093 66.095675,3.93036317 L66.095675,3.93036317 Z M7.73001465,34.9107845 L0.427098752,34.9107845 L0.427098752,0.372639972 L0.563213426,0.372639972 L18.1833099,24.2866663 L35.7545713,0.372639972 L35.9867975,0.372639972 L35.9867975,34.9107845 L28.682323,34.9107845 L28.682323,20.6433535 L18.3750134,35.3722675 L17.9905673,35.3722675 L7.73001465,20.6433535 L7.73001465,34.9107845 Z" id="Fill-2" fill="#FEFEFE" mask="url(#mask-2)"></path>
                </g>
                <g id="Group-48" transform="translate(14.369748, 146.413223)" fill="#FEFEFE">
                    <polygon id="Fill-5" points="0.166027078 8.91489362 1.25281523 8.91489362 1.25281523 2.54890354 0.166027078 2.54890354 0.166027078 1.23732536 4.78834849 1.23732536 6.59057551 6.30555412 6.64560927 6.30555412 8.25496097 1.23732536 12.7944746 1.23732536 12.7944746 2.54890354 11.6804267 2.54890354 11.6804267 8.91489362 12.7944746 8.91489362 12.7944746 10.2269835 7.97979217 10.2269835 7.97979217 8.91489362 9.08046735 8.91489362 9.08046735 2.90353626 8.95651281 2.90353626 6.39821452 10.2413121 5.37983282 10.2413121 2.69757999 2.90353626 2.57362545 2.90353626 2.57362545 8.91489362 3.64652658 8.91489362 3.64652658 10.2269835 0.166027078 10.2269835"></polygon>
                    <g id="Group-47" transform="translate(12.858355, 0.000000)">
                        <path d="M1.38001008,8.00037104 L1.38001008,5.00774162 L0.486097248,5.00774162 L0.486097248,3.76524774 L3.70480064,3.76524774 L3.70480064,7.80898195 C3.70480064,8.20455352 3.77372142,8.51978261 3.98048377,8.72396509 C4.09055129,8.8334765 4.28291228,8.91484245 4.54419405,8.91484245 C5.10841866,8.91484245 5.57594844,8.32839352 5.57594844,7.54953203 L5.57594844,5.00774162 L4.68152128,5.00774162 L4.68152128,3.76524774 L7.90073901,3.76524774 L7.90073901,8.98341501 L8.80905319,8.98341501 L8.80905319,10.2274441 L5.74104972,10.2274441 L5.74104972,8.50545402 C5.39696014,9.5304603 4.72318235,10.3773826 3.44351887,10.3773826 C1.91646064,10.3773826 1.38001008,9.35288807 1.38001008,8.00037104" id="Fill-7"></path>
                        <polygon id="Fill-9" points="9.40017749 8.98336383 10.4046722 8.98336383 10.4046722 2.0160845 9.40017749 2.0160845 9.40017749 0.77256714 12.7294627 0.77256714 12.7294627 8.98336383 13.7334431 8.98336383 13.7334431 10.2273929 9.40017749 10.2273929"></polygon>
                        <path d="M17.488597,2.08388945 L17.488597,3.83248979 L19.5521058,3.83248979 L19.5521058,5.00794631 L17.488597,5.00794631 L17.488597,8.04151458 C17.488597,8.61517012 17.6948451,8.95649772 18.1212281,8.95649772 C18.5481255,8.95649772 18.6993397,8.64178036 18.9328475,7.69967524 L19.8411616,7.91767458 C19.5659929,9.6258478 18.9055877,10.3770756 17.446936,10.3770756 C15.9065051,10.3770756 15.1632921,9.61254268 15.1632921,7.95861342 L15.1632921,5.00794631 L14.0631313,5.00794631 L14.0631313,3.83248979 L15.2322129,3.83248979 L15.2322129,2.35715623 L17.488597,2.08388945 Z" id="Fill-11"></path>
                        <path d="M21.0789069,1.7565834 C21.0789069,1.03196588 21.6431315,0.458310347 22.4547509,0.458310347 C23.2802572,0.458310347 23.8305948,0.991027041 23.8305948,1.70131597 C23.8305948,2.42593349 23.2663702,2.99958902 22.4547509,2.99958902 C21.6292445,2.99958902 21.0789069,2.46687233 21.0789069,1.7565834 L21.0789069,1.7565834 Z M20.3912421,8.98331266 L21.3952224,8.98331266 L21.3952224,5.00815101 L20.3912421,5.00815101 L20.3912421,3.76514539 L23.7205273,3.76514539 L23.7205273,8.98331266 L24.7245077,8.98331266 L24.7245077,10.2273418 L20.3912421,10.2273418 L20.3912421,8.98331266 Z" id="Fill-13"></path>
                        <path d="M30.4878795,6.96190612 C30.4878795,5.71787702 30.2127107,5.04903868 29.4833848,5.04903868 C28.6861668,5.04903868 28.3009305,5.96453355 28.3009305,7.03047868 C28.3009305,8.13685091 28.6722798,9.01140694 29.5528199,9.01140694 C30.2265977,9.01140694 30.4878795,8.28730116 30.4878795,6.96190612 L30.4878795,6.96190612 Z M25.232927,11.2241514 L26.1407269,11.2241514 L26.1407269,5.00809983 L25.232927,5.00809983 L25.232927,3.76509421 L28.3009305,3.76509421 L28.3009305,5.30900033 C28.6722798,4.32493289 29.3054252,3.61413223 30.4606198,3.61413223 C31.1482846,3.61413223 31.6708481,3.87358215 32.0838585,4.28450579 C32.6753428,4.87095471 32.9643986,5.78644959 32.9643986,6.87951669 C32.9643986,8.05497322 32.6480831,8.91468893 32.0704858,9.48936793 C31.5885547,9.96732893 31.0659911,10.2272906 30.3783263,10.2272906 C29.4427524,10.2272906 28.7823473,9.80357355 28.4655174,9.21558942 L28.4655174,11.2241514 L29.5939667,11.2241514 L29.5939667,12.4681805 L25.232927,12.4681805 L25.232927,11.2241514 Z" id="Fill-15"></path>
                        <polygon id="Fill-17" points="33.5972354 8.98336383 34.6012158 8.98336383 34.6012158 2.0160845 33.5972354 2.0160845 33.5972354 0.77256714 36.9265207 0.77256714 36.9265207 8.98336383 37.930501 8.98336383 37.930501 10.2273929 33.5972354 10.2273929"></polygon>
                        <path d="M40.9425449,6.3881994 L43.0883472,6.3881994 C43.0338278,5.02186552 42.6897382,4.62527048 42.0432201,4.62527048 C41.4105891,4.62527048 41.0114657,5.0489875 40.9425449,6.3881994 L40.9425449,6.3881994 Z M40.9425449,7.33030453 C41.0253527,8.79233296 41.589063,9.1745994 42.5518966,9.1745994 C43.3089966,9.1745994 43.7626393,8.86039379 44.0100341,8.08204403 L45.2485508,8.08204403 C45.0417885,9.42125593 44.1756497,10.3771779 42.1944344,10.3771779 C39.9658243,10.3771779 38.5627206,9.0794166 38.5627206,7.05754949 C38.5627206,5.07662122 40.0620048,3.61408106 42.0704798,3.61408106 C44.3680107,3.61408106 45.4547988,5.07662122 45.3308443,7.33030453 L40.9425449,7.33030453 Z" id="Fill-19"></path>
                        <path d="M46.2800481,7.05734479 L47.655892,7.05734479 C48.0822751,8.4513124 48.8800074,9.18872331 50.4209527,9.18872331 C51.3565266,9.18872331 51.8652031,8.7378843 51.8652031,8.12277818 C51.8652031,7.41248926 51.0535837,7.24873388 49.6232203,6.92019967 C48.0961621,6.5793838 46.3489688,6.06048397 46.3489688,3.98334942 C46.3489688,2.16566479 47.8899141,1.01784198 49.6777397,1.01784198 C50.7511552,1.01784198 51.5627746,1.41443702 52.0164173,2.02954314 L52.3054731,1.04598744 L53.6401704,1.04598744 L53.6401704,4.27043306 L52.2643264,4.27043306 C51.8101693,2.90358744 51.1775383,2.27568793 49.9529085,2.27568793 C49.0173346,2.27568793 48.5503192,2.7950995 48.5503192,3.32730446 C48.5503192,4.09234909 49.458119,4.27043306 50.8612227,4.5979438 C52.3743939,4.9536 54.0665534,5.45868298 54.0665534,7.46724496 C54.0665534,9.24296727 52.6629354,10.4455458 50.6133136,10.4455458 C49.444232,10.4455458 48.4258503,9.94046281 47.9305465,9.31153983 L47.614231,10.4179121 L46.2800481,10.4179121 L46.2800481,7.05734479 Z" id="Fill-21"></path>
                        <path d="M54.7534982,7.11179345 C54.7534982,5.00804866 56.2255227,3.61408106 58.426873,3.61408106 C60.4903818,3.61408106 61.384809,4.78953759 61.384809,5.81403213 C61.384809,6.52432106 60.9717986,7.0304275 60.201326,7.0304275 C59.4864014,7.0304275 59.0867638,6.55144304 59.0867638,5.9921161 C59.0867638,5.5269485 59.3758196,5.2403766 59.6926495,5.11756007 C59.4997741,4.8847204 59.1973456,4.72096502 58.7154145,4.72096502 C57.8348743,4.72096502 57.2166446,5.55407048 57.2166446,6.97464833 C57.2166446,8.21867742 57.7114341,9.0794166 58.7020418,9.0794166 C59.4308534,9.0794166 59.8850105,8.65621131 60.1190325,7.97304436 L61.3709219,7.97304436 C61.0957531,9.33886651 60.1462922,10.3771779 58.412986,10.3771779 C56.1154551,10.3771779 54.7534982,9.09323345 54.7534982,7.11179345" id="Fill-23"></path>
                        <polygon id="Fill-25" points="61.9481592 8.98336383 62.9526539 8.98336383 62.9526539 2.0160845 61.9481592 2.0160845 61.9481592 0.77256714 65.2774445 0.77256714 65.2774445 8.98336383 66.2814248 8.98336383 66.2814248 10.2273929 61.9481592 10.2273929"></polygon>
                        <path d="M69.2939831,6.3881994 L71.4397853,6.3881994 C71.3852659,5.02186552 71.0411763,4.62527048 70.3946582,4.62527048 C69.7620272,4.62527048 69.3623895,5.0489875 69.2939831,6.3881994 L69.2939831,6.3881994 Z M69.2939831,7.33030453 C69.3767909,8.79233296 69.9405011,9.1745994 70.9033347,9.1745994 C71.6604347,9.1745994 72.1140774,8.86039379 72.3614722,8.08204403 L73.5999889,8.08204403 C73.3937409,9.42125593 72.5270878,10.3771779 70.5458725,10.3771779 C68.3172624,10.3771779 66.9141587,9.0794166 66.9141587,7.05754949 C66.9141587,5.07662122 68.4134429,3.61408106 70.4219179,3.61408106 C72.7194488,3.61408106 73.8062369,5.07662122 73.6822824,7.33030453 L69.2939831,7.33030453 Z" id="Fill-27"></path>
                        <path d="M74.4393309,8.98336383 L75.3471308,8.98336383 L75.3471308,5.00769045 L74.4393309,5.00769045 L74.4393309,3.76519656 L77.5073344,3.76519656 L77.5073344,5.4994683 C77.9198304,4.25646268 78.6352693,3.61423458 79.5842159,3.61423458 C80.4236093,3.61423458 80.9739469,4.25646268 80.9739469,4.95344648 C80.9739469,5.71797937 80.450869,6.2512078 79.7904639,6.2512078 C79.1300588,6.2512078 78.6352693,5.88173474 78.6352693,5.2128964 C78.6352693,5.1985678 78.6491563,5.17195755 78.6491563,5.15814069 C78.3873602,5.2128964 77.9198304,5.4994683 77.6719213,6.26502466 L77.6719213,8.98336383 L78.868777,8.98336383 L78.868777,10.2273929 L74.4393309,10.2273929 L74.4393309,8.98336383 Z" id="Fill-29"></path>
                        <path d="M85.8571386,6.98887458 C85.8571386,5.25409111 85.526936,4.62516813 84.729718,4.62516813 C83.9453584,4.62516813 83.6701896,5.28121309 83.6701896,7.00269144 C83.6701896,8.73798664 84.0003921,9.36639788 84.7981245,9.36639788 C85.5819698,9.36639788 85.8571386,8.71035293 85.8571386,6.98887458 M81.1386367,7.03032516 C81.1386367,5.02176317 82.7346157,3.61397871 84.7703504,3.61397871 C86.8616333,3.61397871 88.3886915,4.95319061 88.3886915,6.9617526 C88.3886915,8.97031458 86.7927125,10.3770756 84.7569777,10.3770756 C82.6656949,10.3770756 81.1386367,9.03888714 81.1386367,7.03032516" id="Fill-31"></path>
                        <path d="M89.1586498,8.00037104 L90.3143587,8.00037104 C90.9603625,8.80635451 91.7586091,9.33855947 92.487935,9.33855947 C92.9966115,9.33855947 93.2306336,9.13437699 93.2306336,8.79253765 C93.2306336,8.32839352 92.9138037,8.15030955 91.6073949,7.83661567 C90.0525626,7.45383749 89.2409432,6.96205964 89.2409432,5.75948112 C89.2409432,4.5840246 90.1631445,3.61428575 91.6624286,3.61428575 C92.5702285,3.61428575 93.2028595,3.9417965 93.6431296,4.42026922 L93.8910387,3.640896 L95.0740074,3.640896 L95.0740074,5.85517567 L93.9182984,5.85517567 C93.3818478,5.14437501 92.6252622,4.62496344 91.9926312,4.62496344 C91.4417793,4.62496344 91.2633053,4.85780311 91.2633053,5.17200873 C91.2633053,5.59572575 91.5935079,5.7318474 92.8448829,6.04656476 C94.2351283,6.40119749 95.2936281,6.85254823 95.2936281,8.20455352 C95.2936281,9.37949831 94.4136022,10.3773826 92.7764765,10.3773826 C91.6896883,10.3773826 91.0015092,9.9265436 90.5751261,9.46188774 L90.3277314,10.3502606 L89.1586498,10.3502606 L89.1586498,8.00037104 Z" id="Fill-33"></path>
                        <path d="M96.6832562,1.7565834 C96.6832562,1.03196588 97.2474808,0.458310347 98.0591002,0.458310347 C98.8840922,0.458310347 99.4349441,0.991027041 99.4349441,1.70131597 C99.4349441,2.42593349 98.8707195,2.99958902 98.0591002,2.99958902 C97.2335938,2.99958902 96.6832562,2.46687233 96.6832562,1.7565834 L96.6832562,1.7565834 Z M95.9955914,8.98331266 L96.9995717,8.98331266 L96.9995717,5.00815101 L95.9955914,5.00815101 L95.9955914,3.76514539 L99.3243623,3.76514539 L99.3243623,8.98331266 L100.328857,8.98331266 L100.328857,10.2273418 L95.9955914,10.2273418 L95.9955914,8.98331266 Z" id="Fill-35"></path>
                        <path d="M100.961437,8.00037104 L102.117146,8.00037104 C102.763149,8.80635451 103.561396,9.33855947 104.290722,9.33855947 C104.799398,9.33855947 105.03342,9.13437699 105.03342,8.79253765 C105.03342,8.32839352 104.717105,8.15030955 103.410182,7.83661567 C101.855864,7.45383749 101.044244,6.96205964 101.044244,5.75948112 C101.044244,4.5840246 101.965931,3.61428575 103.465215,3.61428575 C104.373015,3.61428575 105.005646,3.9417965 105.445916,4.42026922 L105.693826,3.640896 L106.876794,3.640896 L106.876794,5.85517567 L105.721085,5.85517567 C105.184635,5.14437501 104.428049,4.62496344 103.795418,4.62496344 C103.24508,4.62496344 103.066092,4.85780311 103.066092,5.17200873 C103.066092,5.59572575 103.396295,5.7318474 104.648184,6.04656476 C106.037401,6.40119749 107.096929,6.85254823 107.096929,8.20455352 C107.096929,9.37949831 106.216389,10.3773826 104.579263,10.3773826 C103.492475,10.3773826 102.80481,9.9265436 102.378427,9.46188774 L102.130518,10.3502606 L100.961437,10.3502606 L100.961437,8.00037104 Z" id="Fill-37"></path>
                        <path d="M107.89389,9.12025309 C107.89389,8.3557202 108.485889,7.75391921 109.283621,7.75391921 C110.054094,7.75391921 110.645578,8.34190334 110.645578,9.09313111 C110.645578,9.857664 110.054094,10.459465 109.255847,10.459465 C108.485889,10.459465 107.89389,9.8719926 107.89389,9.12025309" id="Fill-39"></path>
                        <path d="M111.470879,8.98336383 L112.378678,8.98336383 L112.378678,5.00769045 L111.470879,5.00769045 L111.470879,3.76519656 L114.538368,3.76519656 L114.538368,5.48565144 C114.882457,4.46115689 115.556749,3.61423458 116.863673,3.61423458 C118.417476,3.61423458 118.954441,4.63924086 118.954441,5.99175788 L118.954441,8.98336383 L119.848868,8.98336383 L119.848868,10.2273929 L115.969245,10.2273929 L115.969245,8.98336383 L116.629651,8.98336383 L116.629651,6.18263524 C116.629651,5.77375855 116.547357,5.47285805 116.354482,5.28146896 C116.21664,5.14432383 116.024279,5.07626301 115.762997,5.07626301 C115.171513,5.07626301 114.703469,5.6637354 114.703469,6.44259689 L114.703469,8.98336383 L115.3361,8.98336383 L115.3361,10.2273929 L111.470879,10.2273929 L111.470879,8.98336383 Z" id="Fill-41"></path>
                        <path d="M122.778464,6.3881994 L124.924267,6.3881994 C124.869747,5.02186552 124.525658,4.62527048 123.87914,4.62527048 C123.246509,4.62527048 122.847385,5.0489875 122.778464,6.3881994 L122.778464,6.3881994 Z M122.778464,7.33030453 C122.861272,8.79233296 123.425497,9.1745994 124.388331,9.1745994 C125.144916,9.1745994 125.598559,8.86039379 125.846468,8.08204403 L127.08447,8.08204403 C126.877708,9.42125593 126.011569,10.3771779 124.030354,10.3771779 C121.802258,10.3771779 120.39864,9.0794166 120.39864,7.05754949 C120.39864,5.07662122 121.897924,3.61408106 123.906399,3.61408106 C126.20393,3.61408106 127.290718,5.07662122 127.166764,7.33030453 L122.778464,7.33030453 Z" id="Fill-43"></path>
                        <path d="M131.018355,2.08388945 L131.018355,3.83248979 L133.081864,3.83248979 L133.081864,5.00794631 L131.018355,5.00794631 L131.018355,8.04151458 C131.018355,8.61517012 131.224603,8.95649772 131.650987,8.95649772 C132.077884,8.95649772 132.229098,8.64178036 132.46312,7.69967524 L133.37092,7.91767458 C133.095751,9.6258478 132.435346,10.3770756 130.976694,10.3770756 C129.436263,10.3770756 128.693565,9.61254268 128.693565,7.95861342 L128.693565,5.00794631 L127.59289,5.00794631 L127.59289,3.83248979 L128.761971,3.83248979 L128.761971,2.35715623 L131.018355,2.08388945 Z" id="Fill-45"></path>
                    </g>
                </g>
                <g id="Group-51" transform="translate(40.235294, 44.066116)">
                    <mask id="mask-4" fill="white">
                        <use xlink:href="#path-3"></use>
                    </mask>
                    <g id="Clip-50"></g>
                    <path d="M13.5142807,2.57052505 C7.60633946,2.57052505 2.80045354,7.22200828 2.80045354,12.9394357 L2.80045354,53.2933201 C2.80045354,59.0107475 7.60633946,63.6617324 13.5142807,63.6617324 L35.538432,63.6617324 L35.538432,80.5847793 L54.0735123,63.6617324 L78.1851465,63.6617324 C84.0925739,63.6617324 88.8989736,59.0107475 88.8989736,53.2933201 L88.8989736,12.9394357 C88.8989736,7.22200828 84.0925739,2.57052505 78.1851465,2.57052505 L13.5142807,2.57052505 Z M32.9695386,86.3515421 L32.9695386,66.1534205 L13.5142807,66.1534205 C6.19036537,66.1534205 0.231560058,60.3846643 0.231560058,53.2933201 L0.231560058,12.9394357 C0.231560058,5.8480915 6.19036537,0.0788370096 13.5142807,0.0788370096 L78.1851465,0.0788370096 C85.5090618,0.0788370096 91.4678671,5.8480915 91.4678671,12.9394357 L91.4678671,53.2933201 C91.4678671,60.3846643 85.5090618,66.1534205 78.1851465,66.1534205 L55.0923354,66.1534205 L32.9695386,86.3515421 Z" id="Fill-49" fill="#FEFEFE" mask="url(#mask-4)"></path>
                </g>
            </g>
        </g>
    </g>
</svg>