<?xml version="1.0" encoding="UTF-8"?>
<svg width="171px" height="172px" viewBox="0 0 171 172" version="1.1" xmlns="http://www.w3.org/2000/svg" xmlns:xlink="http://www.w3.org/1999/xlink">
    <!-- Generator: Sketch 53.2 (72643) - https://sketchapp.com -->
    <title>PC</title>
    <desc>Created with Sketch.</desc>
    <defs>
        <polygon id="path-1" points="0.105349737 0.322875115 58.7312299 0.322875115 58.7312299 36.7162904 0.105349737 36.7162904"></polygon>
        <polygon id="path-3" points="0.151446023 0.0815476394 84.5479093 0.0815476394 84.5479093 87.771649 0.151446023 87.771649"></polygon>
    </defs>
    <g id="Page-1" stroke="none" stroke-width="1" fill="none" fill-rule="evenodd">
        <g id="LP-full-desktop" transform="translate(-522.000000, -1256.000000)">
            <g id="PC" transform="translate(522.000000, 1256.000000)">
                <polygon id="Fill-1" fill="#7A84C0" points="0 172 171 172 171 0 0 0"></polygon>
                <g id="Group-38" transform="translate(20.117647, 146.413223)" fill="#FEFEFE">
                    <path d="M4.75689059,4.85709521 C5.88036904,4.85709521 6.25020357,4.42076959 6.25020357,3.31378612 C6.25020357,2.19436463 5.90781965,1.7844076 4.75689059,1.7844076 L3.94834546,1.7844076 L3.94834546,4.85709521 L4.75689059,4.85709521 Z M0.249501055,8.21734975 L1.35950375,8.21734975 L1.35950375,1.85256793 L0.249501055,1.85256793 L0.249501055,0.542098512 L4.96252059,0.542098512 C7.81239261,0.542098512 8.96282256,1.63415636 8.96282256,3.34114975 C8.96282256,5.00784397 7.77146626,6.14169355 4.96252059,6.14169355 L3.94834546,6.14169355 L3.94834546,8.21734975 L5.14069998,8.21734975 L5.14069998,9.52831669 L0.249501055,9.52831669 L0.249501055,8.21734975 Z" id="Fill-2"></path>
                    <path d="M9.61924142,8.28531107 L10.5236141,8.28531107 L10.5236141,4.31111603 L9.61924142,4.31111603 L9.61924142,3.06880694 L12.6747434,3.06880694 L12.6747434,4.80266645 C13.0855043,3.55985983 13.7982219,2.91805818 14.7435209,2.91805818 C15.5790176,2.91805818 16.1270315,3.55985983 16.1270315,4.25638876 C16.1270315,5.02107802 15.6069673,5.55442017 14.9491509,5.55442017 C14.2908355,5.55442017 13.7982219,5.18525983 13.7982219,4.51609455 C13.7982219,4.50216397 13.8116976,4.47529785 13.8116976,4.46136727 C13.5511664,4.51609455 13.0855043,4.80266645 12.838948,5.5673557 L12.838948,8.28531107 L14.0313025,8.28531107 L14.0313025,9.52811769 L9.61924142,9.52811769 L9.61924142,8.28531107 Z" id="Fill-4"></path>
                    <path d="M21.0035069,6.29134777 C21.0035069,4.55748826 20.6750978,3.92862215 19.8805276,3.92862215 C19.099433,3.92862215 18.8254261,4.58435438 18.8254261,6.30527835 C18.8254261,8.03963537 19.1538352,8.66800397 19.9484054,8.66800397 C20.7295,8.66800397 21.0035069,8.01227174 21.0035069,6.29134777 M16.3039631,6.33264198 C16.3039631,4.32514612 17.8936028,2.91815769 19.9214539,2.91815769 C22.0037072,2.91815769 23.5244708,4.25648826 23.5244708,6.26398413 C23.5244708,8.27148 21.9353302,9.67846843 19.9074791,9.67846843 C17.8247267,9.67846843 16.3039631,8.34013785 16.3039631,6.33264198" id="Fill-6"></path>
                    <path d="M24.2905922,7.30240926 L25.4415213,7.30240926 C26.0853628,8.10789521 26.879933,8.63974479 27.6061264,8.63974479 C28.1127148,8.63974479 28.3457954,8.43576132 28.3457954,8.09396463 C28.3457954,7.63027537 28.0308621,7.45216298 26.7292043,7.13822744 C25.1809901,6.75613157 24.3729441,6.26408364 24.3729441,5.06207372 C24.3729441,3.88792496 25.2907925,2.91775967 26.7841055,2.91775967 C27.6884782,2.91775967 28.3188439,3.24612331 28.7570554,3.72374314 L29.0036118,2.94512331 L30.1819914,2.94512331 L30.1819914,5.15759769 L29.0310624,5.15759769 C28.4965242,4.44813322 27.7428803,3.92872165 27.1130137,3.92872165 C26.5649997,3.92872165 26.3868203,4.1610638 26.3868203,4.47499934 C26.3868203,4.89838942 26.7157285,5.03471008 27.9624851,5.34914314 C29.3464948,5.70387537 30.4010972,6.15462909 30.4010972,7.50639273 C30.4010972,8.68103901 29.5241751,9.67807041 27.8941082,9.67807041 C26.8115561,9.67807041 26.1267882,9.22731669 25.7020525,8.76412496 L25.454997,9.6512043 L24.2905922,9.6512043 L24.2905922,7.30240926 Z" id="Fill-8"></path>
                    <path d="M34.126394,1.38803289 L34.126394,3.1363205 L36.1816957,3.1363205 L36.1816957,4.31096678 L34.126394,4.31096678 L34.126394,7.34285769 C34.126394,7.91699653 34.3325231,8.2582957 34.7572588,8.2582957 C35.1814955,8.2582957 35.3322242,7.94436017 35.5653048,7.00155851 L36.4691784,7.21997008 C36.1956706,8.92746099 35.5378542,9.67821967 34.0854676,9.67821967 C32.5507292,9.67821967 31.8110601,8.91353041 31.8110601,7.2612643 L31.8110601,4.31096678 L30.7150323,4.31096678 L30.7150323,3.1363205 L31.8799362,3.1363205 L31.8799362,1.66166926 L34.126394,1.38803289 Z" id="Fill-10"></path>
                    <path d="M40.9624933,6.93319917 L40.9624933,6.49637603 C40.8392151,6.52373967 40.6884863,6.53717273 40.3461024,6.60533306 C39.5240815,6.75707686 39.2775252,7.12474463 39.2775252,7.64365868 C39.2775252,8.02525702 39.4966309,8.39491488 40.0581206,8.39491488 C40.6610357,8.39491488 40.9624933,7.80734298 40.9624933,6.93319917 M36.9482165,7.94416116 C36.9482165,7.52077107 37.1258968,7.12474463 37.4004028,6.85160579 C37.7837131,6.4690124 38.4275546,6.15557438 40.2088494,5.92273471 C40.9350427,5.82671322 40.9624933,5.81377769 40.9624933,5.69089008 L40.9624933,5.15804545 C40.9624933,4.3381314 40.5786839,4.02419587 39.82504,4.02419587 C39.5924585,4.02419587 39.3184515,4.06549008 39.0993458,4.16101405 C39.2910009,4.32519587 39.4003043,4.54310992 39.4003043,4.87097603 C39.4003043,5.3759595 38.9346422,5.74511983 38.3452028,5.74511983 C37.5785822,5.74511983 37.2222234,5.2675 37.2222234,4.70729174 C37.2222234,3.4639876 38.811364,2.91820744 40.4554057,2.91820744 C42.6065351,2.91820744 43.2369008,3.95603554 43.2369008,5.29486364 L43.2369008,8.09391488 C43.2369008,8.39491488 43.3741538,8.44914463 43.5383584,8.44914463 C43.6751123,8.44914463 43.8258411,8.31282397 43.9356435,7.76604876 L44.6892874,7.95858926 C44.4562068,9.14567355 43.9356435,9.67851818 42.880542,9.67851818 C42.0170957,9.67851818 41.3737533,9.24169504 41.2225254,8.2173 L41.1541485,8.2173 C40.7019621,9.32328843 39.9757688,9.67851818 38.9760676,9.67851818 C37.8391134,9.67851818 36.9482165,9.02328347 36.9482165,7.94416116" id="Fill-12"></path>
                    <path d="M47.8251449,1.38803289 L47.8251449,3.1363205 L49.8804466,3.1363205 L49.8804466,4.31096678 L47.8251449,4.31096678 L47.8251449,7.34285769 C47.8251449,7.91699653 48.0307749,8.2582957 48.4555106,8.2582957 C48.8802463,8.2582957 49.0309751,7.94436017 49.2640557,7.00155851 L50.1679293,7.21997008 C49.8944215,8.92746099 49.236106,9.67821967 47.7842185,9.67821967 C46.2494801,9.67821967 45.509811,8.91353041 45.509811,7.2612643 L45.509811,4.31096678 L44.4137832,4.31096678 L44.4137832,3.1363205 L45.5786871,3.1363205 L45.5786871,1.66166926 L47.8251449,1.38803289 Z" id="Fill-14"></path>
                    <path d="M53.0576796,5.69084033 L55.1948341,5.69084033 C55.1404319,4.32514612 54.7975489,3.92862215 54.1537074,3.92862215 C53.5233417,3.92862215 53.1265557,4.35250975 53.0576796,5.69084033 L53.0576796,5.69084033 Z M53.0576796,6.63264694 C53.1400314,8.09386512 53.7015211,8.47645851 54.660795,8.47645851 C55.4144389,8.47645851 55.8661262,8.16252298 56.1131816,7.38390314 L57.3459634,7.38390314 C57.1403334,8.72273124 56.2773861,9.67846843 54.3044362,9.67846843 C52.0849299,9.67846843 50.6874445,8.38043702 50.6874445,6.36000562 C50.6874445,4.37937587 52.1807575,2.91815769 54.181158,2.91815769 C56.4690413,2.91815769 57.5515934,4.37937587 57.4283152,6.63264694 L53.0576796,6.63264694 Z" id="Fill-16"></path>
                    <path d="M58.290414,5.13063207 C58.290414,2.22162876 60.3182651,0.323089917 62.6885002,0.323089917 C63.8668798,0.323089917 64.7298271,0.705683306 65.277841,1.40221223 L65.5792986,0.350453554 L66.9493334,0.350453554 L66.9493334,3.95598579 L65.3736686,3.95598579 C64.8531053,2.27635603 64.1543626,1.53853289 63.044859,1.53853289 C61.8525044,1.53853289 61.071909,2.44004033 61.071909,4.96694777 C61.071909,7.42469983 61.9757826,8.32620727 63.4146935,8.32620727 C64.6474753,8.32620727 65.346218,7.41126678 65.6067492,5.93611802 L67.0731106,5.93611802 C66.8395309,8.21725025 65.6341998,9.74662876 63.0583347,9.74662876 C60.1405848,9.74662876 58.290414,7.95804198 58.290414,5.13063207" id="Fill-18"></path>
                    <path d="M71.7564336,6.93319917 L71.7564336,6.49637603 C71.6331554,6.52373967 71.4824267,6.53717273 71.1400427,6.60533306 C70.3180218,6.75707686 70.0714655,7.12474463 70.0714655,7.64365868 C70.0714655,8.02525702 70.2905712,8.39491488 70.8520609,8.39491488 C71.454976,8.39491488 71.7564336,7.80734298 71.7564336,6.93319917 M67.7421568,7.94416116 C67.7421568,7.52077107 67.9198371,7.12474463 68.1943431,6.85160579 C68.5776534,6.4690124 69.2214949,6.15557438 71.0032888,5.92273471 C71.728983,5.82671322 71.7564336,5.81377769 71.7564336,5.69089008 L71.7564336,5.15804545 C71.7564336,4.3381314 71.3726242,4.02419587 70.6194794,4.02419587 C70.3863988,4.02419587 70.1123919,4.06549008 69.8932861,4.16101405 C70.0849412,4.32519587 70.1947437,4.54310992 70.1947437,4.87097603 C70.1947437,5.3759595 69.7290816,5.74511983 69.1396422,5.74511983 C68.3725225,5.74511983 68.0161637,5.2675 68.0161637,4.70729174 C68.0161637,3.4639876 69.6053043,2.91820744 71.249346,2.91820744 C73.4004754,2.91820744 74.0308411,3.95603554 74.0308411,5.29486364 L74.0308411,8.09391488 C74.0308411,8.39491488 74.1680941,8.44914463 74.3322987,8.44914463 C74.4690526,8.44914463 74.6197814,8.31282397 74.7295838,7.76604876 L75.4832277,7.95858926 C75.2501471,9.14567355 74.7295838,9.67851818 73.6744823,9.67851818 C72.8115351,9.67851818 72.1676936,9.24169504 72.0164657,8.2173 L71.9480888,8.2173 C71.4964015,9.32328843 70.7697091,9.67851818 69.7700079,9.67851818 C68.6330537,9.67851818 67.7421568,9.02328347 67.7421568,7.94416116" id="Fill-20"></path>
                    <path d="M75.6600595,8.28531107 L76.5644322,8.28531107 L76.5644322,4.31111603 L75.6600595,4.31111603 L75.6600595,3.06880694 L78.7155616,3.06880694 L78.7155616,4.78923339 C79.0579455,3.76483835 79.7292376,2.91805818 81.0308954,2.91805818 C82.5791096,2.91805818 83.1131487,3.94245322 83.1131487,5.29471438 L83.1131487,8.28531107 L84.0035465,8.28531107 L84.0035465,9.52811769 L80.1404976,9.52811769 L80.1404976,8.28531107 L80.7978148,8.28531107 L80.7978148,5.48576231 C80.7978148,5.07630281 80.7159621,4.77530281 80.524307,4.5847524 C80.3870539,4.44793421 80.1948997,4.37927636 79.9348676,4.37927636 C79.3454282,4.37927636 78.8797661,4.96684826 78.8797661,5.7454681 L78.8797661,8.28531107 L79.5101318,8.28531107 L79.5101318,9.52811769 L75.6600595,9.52811769 L75.6600595,8.28531107 Z" id="Fill-22"></path>
                    <path d="M84.5505622,6.41428512 C84.5505622,4.31076777 86.0169237,2.91820744 88.2089794,2.91820744 C90.263782,2.91820744 91.1541799,4.09285372 91.1541799,5.11675124 C91.1541799,5.82671322 90.743419,6.33269174 89.9762993,6.33269174 C89.2635818,6.33269174 88.8662966,5.85407686 88.8662966,5.29486364 C88.8662966,4.82968182 89.1537793,4.54310992 89.4687127,4.42071983 C89.2775566,4.18788017 88.9756,4.02419587 88.4964621,4.02419587 C87.61954,4.02419587 87.0031491,4.85704545 87.0031491,6.27746694 C87.0031491,7.52077107 87.4962618,8.38048678 88.4824872,8.38048678 C89.2086806,8.38048678 89.6608669,7.95858926 89.8939475,7.27499587 L91.1407041,7.27499587 C90.8666972,8.64019256 89.920899,9.67851818 88.1945054,9.67851818 C85.9066222,9.67851818 84.5505622,8.39441736 84.5505622,6.41428512" id="Fill-24"></path>
                    <path d="M94.1397577,5.69084033 L96.2769122,5.69084033 C96.2225101,4.32514612 95.8796271,3.92862215 95.2357856,3.92862215 C94.6054198,3.92862215 94.2081347,4.35250975 94.1397577,5.69084033 L94.1397577,5.69084033 Z M94.1397577,6.63264694 C94.2221095,8.09386512 94.7835992,8.47645851 95.742374,8.47645851 C96.496517,8.47645851 96.9482043,8.16252298 97.1952597,7.38390314 L98.4280415,7.38390314 C98.2229106,8.72273124 97.3594643,9.67846843 95.3865143,9.67846843 C93.1670081,9.67846843 91.7695227,8.38043702 91.7695227,6.36000562 C91.7695227,4.37937587 93.2628356,2.91815769 95.2632362,2.91815769 C97.5511194,2.91815769 98.6331724,4.37937587 98.5103933,6.63264694 L94.1397577,6.63264694 Z" id="Fill-26"></path>
                    <path d="M99.263089,8.28531107 L100.167462,8.28531107 L100.167462,4.31111603 L99.263089,4.31111603 L99.263089,3.06880694 L102.318591,3.06880694 L102.318591,4.80266645 C102.729851,3.55985983 103.442069,2.91805818 104.387368,2.91805818 C105.222865,2.91805818 105.770879,3.55985983 105.770879,4.25638876 C105.770879,5.02107802 105.250815,5.55442017 104.592998,5.55442017 C103.935182,5.55442017 103.442069,5.18525983 103.442069,4.51609455 C103.442069,4.50216397 103.455545,4.47529785 103.455545,4.46136727 C103.195513,4.51609455 102.729851,4.80266645 102.482796,5.5673557 L102.482796,8.28531107 L103.67515,8.28531107 L103.67515,9.52811769 L99.263089,9.52811769 L99.263089,8.28531107 Z" id="Fill-28"></path>
                    <path d="M105.18139,8.42183074 C105.18139,7.65714149 105.770829,7.05613653 106.5649,7.05613653 C107.332519,7.05613653 107.921958,7.64370843 107.921958,8.39446711 C107.921958,9.15915636 107.332519,9.76016132 106.537949,9.76016132 C105.770829,9.76016132 105.18139,9.17308694 105.18139,8.42183074" id="Fill-30"></path>
                    <path d="M108.742881,8.28531107 L109.647254,8.28531107 L109.647254,4.31111603 L108.742881,4.31111603 L108.742881,3.06880694 L111.798383,3.06880694 L111.798383,4.78923339 C112.140767,3.76483835 112.812059,2.91805818 114.113717,2.91805818 C115.661931,2.91805818 116.19597,3.94245322 116.19597,5.29471438 L116.19597,8.28531107 L117.086368,8.28531107 L117.086368,9.52811769 L113.223319,9.52811769 L113.223319,8.28531107 L113.880637,8.28531107 L113.880637,5.48576231 C113.880637,5.07630281 113.798285,4.77530281 113.607129,4.5847524 C113.469876,4.44793421 113.277721,4.37927636 113.017689,4.37927636 C112.42825,4.37927636 111.962588,4.96684826 111.962588,5.7454681 L111.962588,8.28531107 L112.592954,8.28531107 L112.592954,9.52811769 L108.742881,9.52811769 L108.742881,8.28531107 Z" id="Fill-32"></path>
                    <path d="M120.003619,5.69084033 L122.140774,5.69084033 C122.085872,4.32514612 121.743488,3.92862215 121.099148,3.92862215 C120.469281,3.92862215 120.071996,4.35250975 120.003619,5.69084033 L120.003619,5.69084033 Z M120.003619,6.63264694 C120.085971,8.09386512 120.647461,8.47645851 121.606235,8.47645851 C122.359879,8.47645851 122.812066,8.16252298 123.059121,7.38390314 L124.291903,7.38390314 C124.086273,8.72273124 123.223326,9.67846843 121.250376,9.67846843 C119.030869,9.67846843 117.633384,8.38043702 117.633384,6.36000562 C117.633384,4.37937587 119.126697,2.91815769 121.127098,2.91815769 C123.414981,2.91815769 124.497034,4.37937587 124.374255,6.63264694 L120.003619,6.63264694 Z" id="Fill-34"></path>
                    <path d="M128.208805,1.38803289 L128.208805,3.1363205 L130.264107,3.1363205 L130.264107,4.31096678 L128.208805,4.31096678 L128.208805,7.34285769 C128.208805,7.91699653 128.414435,8.2582957 128.839171,8.2582957 C129.263906,8.2582957 129.414635,7.94436017 129.647716,7.00155851 L130.551589,7.21997008 C130.278081,8.92746099 129.619766,9.67821967 128.167879,9.67821967 C126.63314,9.67821967 125.893471,8.91353041 125.893471,7.2612643 L125.893471,4.31096678 L124.797443,4.31096678 L124.797443,3.1363205 L125.962347,3.1363205 L125.962347,1.66166926 L128.208805,1.38803289 Z" id="Fill-36"></path>
                </g>
                <g id="Group-41" transform="translate(56.042017, 58.280992)">
                    <mask id="mask-2" fill="white">
                        <use xlink:href="#path-1"></use>
                    </mask>
                    <g id="Clip-40"></g>
                    <path d="M46.309747,0.322772452 C36.0299095,0.322772452 28.7742584,8.11694692 28.7742584,18.493609 C28.7742584,28.9236558 36.0299095,36.7162904 46.309747,36.7162904 C51.2906426,36.7162904 55.3363721,35.190205 58.7320287,31.3613886 L54.3113341,26.0526852 C52.4979206,28.2994648 49.8482,30.0683482 46.309747,30.0683482 C40.0327002,30.0683482 35.9370419,25.193396 35.9370419,18.493609 C35.9370419,11.7979286 40.0327002,6.9707146 46.309747,6.9707146 C49.8017662,6.9707146 52.4050531,8.69288632 54.2184666,10.8919276 L58.685595,5.58322424 C55.3828058,2.09165583 51.7085465,0.322772452 46.309747,0.322772452 L46.309747,0.322772452 Z M7.23997341,36.2722729 L0.102154294,36.2722729 L0.102154294,1.1199506 L13.8989755,1.1199506 C20.4406449,1.1199506 25.9532821,5.27831515 25.9532821,12.7270287 C25.9532821,20.1716356 20.4905737,24.3341067 13.8989755,24.3341067 L7.23997341,24.3341067 L7.23997341,36.2722729 Z M13.2029682,7.41832525 L7.23997341,7.41832525 L7.23997341,18.0316255 L13.2029682,18.0316255 C16.5197374,18.0316255 18.7585441,16.2586356 18.7585441,12.7270287 C18.7585441,9.29141157 16.5197374,7.42243177 13.2029682,7.41832525 L13.2029682,7.41832525 Z" id="Fill-39" fill="#FEFEFE" mask="url(#mask-2)"></path>
                </g>
                <g id="Group-44" transform="translate(43.109244, 42.644628)">
                    <mask id="mask-4" fill="white">
                        <use xlink:href="#path-3"></use>
                    </mask>
                    <g id="Clip-43"></g>
                    <path d="M13.1744919,2.61312066 C7.38462114,2.61312066 2.67470533,7.34085772 2.67470533,13.1520134 L2.67470533,54.167437 C2.67470533,59.9785927 7.38462114,64.7058232 13.1744919,64.7058232 L32.2427625,64.7058232 L32.2427625,81.902245 L50.4092202,64.7058232 L71.5243587,64.7058232 C77.3142295,64.7058232 82.02465,59.9785927 82.02465,54.167437 L82.02465,13.1520134 C82.02465,7.34085772 77.3142295,2.61312066 71.5243587,2.61312066 L13.1744919,2.61312066 Z M29.7195032,87.771649 L29.7195032,67.2383586 L13.1744919,67.2383586 C5.99380062,67.2383586 0.151446023,61.3750327 0.151446023,54.167437 L0.151446023,13.1520134 C0.151446023,5.94441771 5.99380062,0.080585276 13.1744919,0.080585276 L71.5243587,0.080585276 C78.7055547,0.080585276 84.5479093,5.94441771 84.5479093,13.1520134 L84.5479093,54.167437 C84.5479093,61.3750327 78.7055547,67.2383586 71.5243587,67.2383586 L51.4114588,67.2383586 L29.7195032,87.771649 Z" id="Fill-42" fill="#FEFEFE" mask="url(#mask-4)"></path>
                </g>
            </g>
        </g>
    </g>
</svg>