<?xml version="1.0" encoding="UTF-8"?>
<svg width="174px" height="171px" viewBox="0 0 174 171" version="1.1" xmlns="http://www.w3.org/2000/svg" xmlns:xlink="http://www.w3.org/1999/xlink">
    <!-- Generator: Sketch 53.2 (72643) - https://sketchapp.com -->
    <title>PD</title>
    <desc>Created with Sketch.</desc>
    <defs>
        <polygon id="path-1" points="0.100927716 0.087875 62.9373304 0.087875 62.9373304 35.4871467 0.100927716 35.4871467"></polygon>
        <polygon id="path-3" points="0.427642706 0.0784323276 89.0118855 0.0784323276 89.0118855 86.5763508 0.427642706 86.5763508"></polygon>
    </defs>
    <g id="Page-1" stroke="none" stroke-width="1" fill="none" fill-rule="evenodd">
        <g id="LP-full-desktop" transform="translate(-337.000000, -1438.000000)">
            <g id="PD" transform="translate(337.000000, 1438.000000)">
                <polygon id="Fill-1" fill="#5B7288" points="0 171 174 171 174 0 0 0"></polygon>
                <g id="Group-44" transform="translate(7.190083, 145.350000)" fill="#FEFEFE">
                    <path d="M4.95810825,5.81758286 C6.12134417,5.81758286 6.50432978,5.33281143 6.50432978,4.10541143 C6.50432978,2.86281143 6.14990235,2.40789714 4.95810825,2.40789714 L4.12074157,2.40789714 L4.12074157,5.81758286 L4.95810825,5.81758286 Z M0.290885475,9.54646857 L1.4398423,9.54646857 L1.4398423,2.48335429 L0.290885475,2.48335429 L0.290885475,1.02904 L5.1707647,1.02904 C8.12143679,1.02904 9.31323089,2.24124 9.31323089,4.13526857 C9.31323089,5.98478286 8.07910949,7.24258286 5.1707647,7.24258286 L4.12074157,7.24258286 L4.12074157,9.54646857 L5.35537295,9.54646857 L5.35537295,11.0007829 L0.290885475,11.0007829 L0.290885475,9.54646857 Z" id="Fill-2"></path>
                    <path d="M13.7356183,8.12103429 L13.7356183,7.63626286 C13.6081264,7.66666286 13.4515663,7.68132 13.0971389,7.75732 C12.2460031,7.92452 11.9905094,8.33329143 11.9905094,8.90926286 C11.9905094,9.33323429 12.2174449,9.74254857 12.7993179,9.74254857 C13.4235181,9.74254857 13.7356183,9.09112 13.7356183,8.12103429 M9.57887298,9.24257714 C9.57887298,8.77300571 9.76297125,8.33329143 10.0470232,8.03037714 C10.4442879,7.60640571 11.1113254,7.25734857 12.9553679,6.99949143 C13.7070601,6.89309143 13.7356183,6.87897714 13.7356183,6.74272 L13.7356183,6.15100571 C13.7356183,5.24117714 13.3383536,4.89320571 12.5575933,4.89320571 C12.3168886,4.89320571 12.0333467,4.93934857 11.8064111,5.04520571 C12.0047885,5.22706286 12.1180013,5.46917714 12.1180013,5.83289143 C12.1180013,6.39312 11.635572,6.80297714 11.0261608,6.80297714 C10.2311214,6.80297714 9.86241492,6.27260571 9.86241492,5.65103429 C9.86241492,4.27163429 11.5080801,3.66580571 13.2108617,3.66580571 C15.4378898,3.66580571 16.0901383,4.81720571 16.0901383,6.30246286 L16.0901383,9.40923429 C16.0901383,9.74254857 16.2324192,9.80334857 16.4022384,9.80334857 C16.5440094,9.80334857 16.7000595,9.65243429 16.8142922,9.04552 L17.5940325,9.25832 C17.3528179,10.5763771 16.8142922,11.1670057 15.7214318,11.1670057 C14.8279687,11.1670057 14.1609312,10.6827771 14.0048811,9.54657714 L13.9339956,9.54657714 C13.4658454,10.7734343 12.7141533,11.1670057 11.6784093,11.1670057 C10.5008943,11.1670057 9.57887298,10.44012 9.57887298,9.24257714" id="Fill-4"></path>
                    <path d="M17.775275,9.62127429 L18.7115754,9.62127429 L18.7115754,5.21164571 L17.775275,5.21164571 L17.775275,3.83278857 L20.9391135,3.83278857 L20.9391135,5.75721714 C21.3644264,4.37781714 22.1018395,3.66558857 23.0809771,3.66558857 C23.946392,3.66558857 24.5139858,4.37781714 24.5139858,5.15138857 C24.5139858,5.99933143 23.9744402,6.59104571 23.2936336,6.59104571 C22.6128269,6.59104571 22.1018395,6.18118857 22.1018395,5.43910286 C22.1018395,5.42390286 22.1161185,5.39350286 22.1161185,5.37884571 C21.8468557,5.43910286 21.3644264,5.75721714 21.1089327,6.60516 L21.1089327,9.62127429 L22.3435641,9.62127429 L22.3435641,11.0006743 L17.775275,11.0006743 L17.775275,9.62127429 Z" id="Fill-6"></path>
                    <polygon id="Fill-8" points="30.3127755 6.46912 32.4694282 9.62149143 33.164004 9.62149143 33.164004 11.0008914 29.2632624 11.0008914 29.2632624 9.65243429 29.9863963 9.65243429 28.7808331 7.78772 27.9720246 8.54500571 27.9720246 9.65243429 28.6385522 9.65243429 28.6385522 11.0008914 24.6388769 11.0008914 24.6388769 9.62149143 25.5746673 9.62149143 25.5746673 1.89283429 24.6388769 1.89283429 24.6388769 0.513434286 27.9720246 0.513434286 27.9720246 7.19709143 30.1429564 5.18146286 29.1072123 5.18146286 29.1072123 3.83300571 32.6958538 3.83300571 32.6958538 5.21186286 31.6891779 5.21186286"></polygon>
                    <path d="M34.1960762,1.60512 C34.1960762,0.801691429 34.7779492,0.165462857 35.6148059,0.165462857 C36.4659417,0.165462857 37.0335355,0.756091429 37.0335355,1.54377714 C37.0335355,2.34720571 36.4516626,2.98343429 35.6148059,2.98343429 C34.7636701,2.98343429 34.1960762,2.39280571 34.1960762,1.60512 L34.1960762,1.60512 Z M33.4867114,9.62149143 L34.5224555,9.62149143 L34.5224555,5.21186286 L33.4867114,5.21186286 L33.4867114,3.83300571 L36.9198128,3.83300571 L36.9198128,9.62149143 L37.9555568,9.62149143 L37.9555568,11.0008914 L33.4867114,11.0008914 L33.4867114,9.62149143 Z" id="Fill-10"></path>
                    <path d="M38.549465,9.62127429 L39.4857654,9.62127429 L39.4857654,5.21164571 L38.549465,5.21164571 L38.549465,3.83278857 L41.7127935,3.83278857 L41.7127935,5.74201714 C42.0677309,4.60527429 42.7623067,3.66558857 44.1101509,3.66558857 C45.7134888,3.66558857 46.2668035,4.80287429 46.2668035,6.30278857 L46.2668035,9.62127429 L47.1888248,9.62127429 L47.1888248,11.0006743 L43.1881296,11.0006743 L43.1881296,9.62127429 L43.8694462,9.62127429 L43.8694462,6.51450286 C43.8694462,6.06013143 43.7837717,5.72681714 43.5853943,5.51510286 C43.4436233,5.36310286 43.244736,5.28764571 42.9754731,5.28764571 C42.365042,5.28764571 41.8831227,5.93907429 41.8831227,6.80330286 L41.8831227,9.62127429 L42.5358811,9.62127429 L42.5358811,11.0006743 L38.549465,11.0006743 L38.549465,9.62127429 Z" id="Fill-12"></path>
                    <path d="M47.8374525,8.53083714 L49.0292466,8.53083714 C49.6957742,9.42438 50.5188617,10.0150086 51.2705539,10.0150086 C51.7958204,10.0150086 52.0365251,9.78809429 52.0365251,9.40918 C52.0365251,8.89455143 51.7101459,8.69749429 50.3628117,8.34898 C48.7594738,7.92446571 47.9226171,7.37889429 47.9226171,6.04509429 C47.9226171,4.74223714 48.8731965,3.66575143 50.4194181,3.66575143 C51.3557184,3.66575143 52.0079669,4.02946571 52.461838,4.56038 L52.7178417,3.69560857 L53.937174,3.69560857 L53.937174,6.15095143 L52.7458899,6.15095143 C52.1930851,5.36326571 51.4123248,4.78729429 50.7595664,4.78729429 C50.1924825,4.78729429 50.0078743,5.04515143 50.0078743,5.39366571 C50.0078743,5.86323714 50.3485326,6.01469429 51.6392604,6.36320857 C53.0722691,6.75678 54.1646196,7.25729429 54.1646196,8.75720857 C54.1646196,10.0606086 53.2563674,11.1669514 51.5683749,11.1669514 C50.4479763,11.1669514 49.7386114,10.6675229 49.2985095,10.1523514 L49.0435257,11.1370943 L47.8374525,11.1370943 L47.8374525,8.53083714 Z" id="Fill-14"></path>
                    <path d="M59.7225516,7.40907714 C59.7225516,5.48464857 59.3818933,4.78707714 58.5593157,4.78707714 C57.7505072,4.78707714 57.4669653,5.51504857 57.4669653,7.42427714 C57.4669653,9.34870571 57.8071136,10.0462771 58.6296912,10.0462771 C59.4384997,10.0462771 59.7225516,9.31884857 59.7225516,7.40907714 M54.8564415,7.45467714 C54.8564415,5.22679143 56.5021067,3.66553429 58.601643,3.66553429 C60.7582956,3.66553429 62.3325654,5.15133429 62.3325654,7.37867714 C62.3325654,9.60656286 60.6874102,11.1672771 58.5873639,11.1672771 C56.4312212,11.1672771 54.8564415,9.68202 54.8564415,7.45467714" id="Fill-16"></path>
                    <path d="M63.0672246,9.62127429 L64.003525,9.62127429 L64.003525,5.21164571 L63.0672246,5.21164571 L63.0672246,3.83278857 L66.2305531,3.83278857 L66.2305531,5.74201714 C66.5854905,4.60527429 67.2805763,3.66558857 68.6279105,3.66558857 C70.2312484,3.66558857 70.7845631,4.80287429 70.7845631,6.30278857 L70.7845631,9.62127429 L71.7065844,9.62127429 L71.7065844,11.0006743 L67.7058892,11.0006743 L67.7058892,9.62127429 L68.3872058,9.62127429 L68.3872058,6.51450286 C68.3872058,6.06013143 68.3015313,5.72681714 68.1031539,5.51510286 C67.9613829,5.36310286 67.7630056,5.28764571 67.4932327,5.28764571 C66.8828016,5.28764571 66.4008823,5.93907429 66.4008823,6.80330286 L66.4008823,9.62127429 L67.0536407,9.62127429 L67.0536407,11.0006743 L63.0672246,11.0006743 L63.0672246,9.62127429 Z" id="Fill-18"></path>
                    <path d="M72.3549571,8.53083714 L73.5467512,8.53083714 C74.2132788,9.42438 75.0358564,10.0150086 75.7880585,10.0150086 C76.3128151,10.0150086 76.5540297,9.78809429 76.5540297,9.40918 C76.5540297,8.89455143 76.2281605,8.69749429 74.8803163,8.34898 C73.2769784,7.92446571 72.4401217,7.37889429 72.4401217,6.04509429 C72.4401217,4.74223714 73.3901912,3.66575143 74.9369227,3.66575143 C75.8732231,3.66575143 76.5254715,4.02946571 76.9793426,4.56038 L77.2348363,3.69560857 L78.4546787,3.69560857 L78.4546787,6.15095143 L77.2633945,6.15095143 C76.7100798,5.36326571 75.9298295,4.78729429 75.277071,4.78729429 C74.7099871,4.78729429 74.5253789,5.04515143 74.5253789,5.39366571 C74.5253789,5.86323714 74.8655272,6.01469429 76.156765,6.36320857 C77.5892638,6.75678 78.6821242,7.25729429 78.6821242,8.75720857 C78.6821242,10.0606086 77.773872,11.1669514 76.0858795,11.1669514 C74.9654809,11.1669514 74.256116,10.6675229 73.8160141,10.1523514 L73.5610303,11.1370943 L72.3549571,11.1370943 L72.3549571,8.53083714 Z" id="Fill-20"></path>
                    <path d="M83.8857818,9.59109143 C85.8149889,9.59109143 86.4672374,8.69754857 86.4672374,6.01474857 C86.4672374,3.39329143 85.7583825,2.43786286 83.8148963,2.43786286 L83.2044652,2.43786286 L83.2044652,9.59109143 L83.8857818,9.59109143 Z M79.3746091,9.54657714 L80.5235659,9.54657714 L80.5235659,2.48346286 L79.3746091,2.48346286 L79.3746091,1.02969143 L83.6583363,1.02969143 C87.5738669,1.02969143 89.3613031,2.99863429 89.3613031,5.99954857 C89.3613031,9.01512 87.5458187,11.0008914 83.7154526,11.0008914 L79.3746091,11.0008914 L79.3746091,9.54657714 Z" id="Fill-22"></path>
                    <path d="M90.9453642,1.60512 C90.9453642,0.801691429 91.5272371,0.165462857 92.3640939,0.165462857 C93.2152296,0.165462857 93.7828235,0.756091429 93.7828235,1.54377714 C93.7828235,2.34720571 93.2009506,2.98343429 92.3640939,2.98343429 C91.5129581,2.98343429 90.9453642,2.39280571 90.9453642,1.60512 L90.9453642,1.60512 Z M90.2359994,9.62149143 L91.2717434,9.62149143 L91.2717434,5.21186286 L90.2359994,5.21186286 L90.2359994,3.83300571 L93.6691007,3.83300571 L93.6691007,9.62149143 L94.7048448,9.62149143 L94.7048448,11.0008914 L90.2359994,11.0008914 L90.2359994,9.62149143 Z" id="Fill-24"></path>
                    <path d="M95.3553084,8.53083714 L96.5471025,8.53083714 C97.21363,9.42438 98.0367176,10.0150086 98.7884097,10.0150086 C99.3136763,10.0150086 99.5543809,9.78809429 99.5543809,9.40918 C99.5543809,8.89455143 99.2280017,8.69749429 97.8806675,8.34898 C96.2773296,7.92446571 95.4404729,7.37889429 95.4404729,6.04509429 C95.4404729,4.74223714 96.3910524,3.66575143 97.9372739,3.66575143 C98.8735743,3.66575143 99.5258228,4.02946571 99.9796939,4.56038 L100.235698,3.69560857 L101.45503,3.69560857 L101.45503,6.15095143 L100.263746,6.15095143 C99.710941,5.36326571 98.9301807,4.78729429 98.2774223,4.78729429 C97.7103384,4.78729429 97.5257301,5.04515143 97.5257301,5.39366571 C97.5257301,5.86323714 97.8663884,6.01469429 99.1571162,6.36320857 C100.590125,6.75678 101.682475,7.25729429 101.682475,8.75720857 C101.682475,10.0606086 100.774223,11.1669514 99.0862308,11.1669514 C97.9658321,11.1669514 97.2564673,10.6675229 96.8163653,10.1523514 L96.5613815,11.1370943 L95.3553084,11.1370943 L95.3553084,8.53083714 Z" id="Fill-26"></path>
                    <path d="M104.829026,6.74266571 L107.041775,6.74266571 C106.985679,5.22700857 106.630741,4.78675143 105.964214,4.78675143 C105.311455,4.78675143 104.899912,5.25740857 104.829026,6.74266571 L104.829026,6.74266571 Z M104.829026,7.78766571 C104.914191,9.40918 105.496064,9.83315143 106.48897,9.83315143 C107.269221,9.83315143 107.737371,9.48518 107.992355,8.62095143 L109.269313,8.62095143 C109.056657,10.1067514 108.163194,11.1669514 106.119754,11.1669514 C103.82184,11.1669514 102.375062,9.72729429 102.375062,7.48475143 C102.375062,5.28726571 103.921284,3.66575143 105.992262,3.66575143 C108.361571,3.66575143 109.48197,5.28726571 109.354478,7.78766571 L104.829026,7.78766571 Z" id="Fill-28"></path>
                    <path d="M114.21712,8.12103429 L114.21712,7.63626286 C114.089628,7.66666286 113.933068,7.68132 113.578641,7.75732 C112.727505,7.92452 112.472011,8.33329143 112.472011,8.90926286 C112.472011,9.33323429 112.699457,9.74254857 113.28082,9.74254857 C113.90502,9.74254857 114.21712,9.09112 114.21712,8.12103429 M110.060885,9.24257714 C110.060885,8.77300571 110.244983,8.33329143 110.529035,8.03037714 C110.92579,7.60640571 111.592827,7.25734857 113.43687,6.99949143 C114.188562,6.89309143 114.21712,6.87897714 114.21712,6.74272 L114.21712,6.15100571 C114.21712,5.24117714 113.819855,4.89320571 113.039605,4.89320571 C112.798391,4.89320571 112.514849,4.93934857 112.287913,5.04520571 C112.48629,5.22706286 112.600013,5.46917714 112.600013,5.83289143 C112.600013,6.39312 112.117584,6.80297714 111.507663,6.80297714 C110.713133,6.80297714 110.343917,6.27260571 110.343917,5.65103429 C110.343917,4.27163429 111.989582,3.66580571 113.692364,3.66580571 C115.919392,3.66580571 116.57215,4.81720571 116.57215,6.30246286 L116.57215,9.40923429 C116.57215,9.74254857 116.713921,9.80334857 116.88425,9.80334857 C117.026021,9.80334857 117.181561,9.65243429 117.295794,9.04552 L118.075534,9.25832 C117.83483,10.5763771 117.295794,11.1670057 116.202934,11.1670057 C115.309471,11.1670057 114.642433,10.6827771 114.486383,9.54657714 L114.415498,9.54657714 C113.947347,10.7734343 113.195655,11.1670057 112.159911,11.1670057 C110.982906,11.1670057 110.060885,10.44012 110.060885,9.24257714" id="Fill-30"></path>
                    <path d="M118.313791,8.53083714 L119.505585,8.53083714 C120.172113,9.42438 120.994691,10.0150086 121.746893,10.0150086 C122.271649,10.0150086 122.512864,9.78809429 122.512864,9.40918 C122.512864,8.89455143 122.186485,8.69749429 120.83915,8.34898 C119.235813,7.92446571 118.398956,7.37889429 118.398956,6.04509429 C118.398956,4.74223714 119.349025,3.66575143 120.895757,3.66575143 C121.832057,3.66575143 122.484306,4.02946571 122.938177,4.56038 L123.19367,3.69560857 L124.413513,3.69560857 L124.413513,6.15095143 L123.222229,6.15095143 C122.668914,5.36326571 121.888664,4.78729429 121.235905,4.78729429 C120.668311,4.78729429 120.484213,5.04515143 120.484213,5.39366571 C120.484213,5.86323714 120.824361,6.01469429 122.115599,6.36320857 C123.548098,6.75678 124.640958,7.25729429 124.640958,8.75720857 C124.640958,10.0606086 123.732706,11.1669514 122.044714,11.1669514 C120.924315,11.1669514 120.21444,10.6675229 119.774848,10.1523514 L119.519864,11.1370943 L118.313791,11.1370943 L118.313791,8.53083714 Z" id="Fill-32"></path>
                    <path d="M127.789039,6.74266571 L130.001788,6.74266571 C129.945691,5.22700857 129.590754,4.78675143 128.924227,4.78675143 C128.270958,4.78675143 127.859924,5.25740857 127.789039,6.74266571 L127.789039,6.74266571 Z M127.789039,7.78766571 C127.874203,9.40918 128.456076,9.83315143 129.448983,9.83315143 C130.229233,9.83315143 130.697384,9.48518 130.952367,8.62095143 L132.229326,8.62095143 C132.01667,10.1067514 131.123207,11.1669514 129.079767,11.1669514 C126.781853,11.1669514 125.335075,9.72729429 125.335075,7.48475143 C125.335075,5.28726571 126.880787,3.66575143 128.952275,3.66575143 C131.321584,3.66575143 132.441983,5.28726571 132.314491,7.78766571 L127.789039,7.78766571 Z" id="Fill-34"></path>
                    <path d="M132.906869,9.77289429 C132.906869,8.92495143 133.51679,8.25723714 134.339368,8.25723714 C135.133897,8.25723714 135.743818,8.90920857 135.743818,9.74249429 C135.743818,10.5915229 135.133897,11.2581514 134.311319,11.2581514 C133.51679,11.2581514 132.906869,10.6067229 132.906869,9.77289429" id="Fill-36"></path>
                    <path d="M136.593475,9.62127429 L137.529776,9.62127429 L137.529776,5.21164571 L136.593475,5.21164571 L136.593475,3.83278857 L139.757314,3.83278857 L139.757314,5.74201714 C140.111741,4.60527429 140.806827,3.66558857 142.154671,3.66558857 C143.757499,3.66558857 144.310814,4.80287429 144.310814,6.30278857 L144.310814,9.62127429 L145.232835,9.62127429 L145.232835,11.0006743 L141.23265,11.0006743 L141.23265,9.62127429 L141.913456,9.62127429 L141.913456,6.51450286 C141.913456,6.06013143 141.828292,5.72681714 141.629404,5.51510286 C141.488143,5.36310286 141.289256,5.28764571 141.019993,5.28764571 C140.409562,5.28764571 139.927133,5.93907429 139.927133,6.80330286 L139.927133,9.62127429 L140.579891,9.62127429 L140.579891,11.0006743 L136.593475,11.0006743 L136.593475,9.62127429 Z" id="Fill-38"></path>
                    <path d="M148.250721,6.74266571 L150.46347,6.74266571 C150.407373,5.22700857 150.052436,4.78675143 149.385908,4.78675143 C148.73315,4.78675143 148.321606,5.25740857 148.250721,6.74266571 L148.250721,6.74266571 Z M148.250721,7.78766571 C148.335885,9.40918 148.917758,9.83315143 149.910665,9.83315143 C150.690915,9.83315143 151.159066,9.48518 151.414049,8.62095143 L152.691008,8.62095143 C152.478352,10.1067514 151.584888,11.1669514 149.541449,11.1669514 C147.243535,11.1669514 145.796757,9.72729429 145.796757,7.48475143 C145.796757,5.28726571 147.342979,3.66575143 149.413957,3.66575143 C151.783266,3.66575143 152.903664,5.28726571 152.776173,7.78766571 L148.250721,7.78766571 Z" id="Fill-40"></path>
                    <path d="M156.745148,1.96774857 L156.745148,3.90792 L158.873242,3.90792 L158.873242,5.21186286 L156.745148,5.21186286 L156.745148,8.57540571 C156.745148,9.21272 156.957804,9.59109143 157.397396,9.59109143 C157.837498,9.59109143 157.993548,9.24257714 158.234253,8.19703429 L159.170553,8.43914857 C158.887521,10.3342629 158.206205,11.1670057 156.70282,11.1670057 C155.113762,11.1670057 154.34779,10.3190629 154.34779,8.48529143 L154.34779,5.21186286 L153.212603,5.21186286 L153.212603,3.90792 L154.418676,3.90792 L154.418676,2.27174857 L156.745148,1.96774857 Z" id="Fill-42"></path>
                </g>
                <g id="Group-47" transform="translate(54.644628, 58.425000)">
                    <mask id="mask-2" fill="white">
                        <use xlink:href="#path-1"></use>
                    </mask>
                    <g id="Clip-46"></g>
                    <path d="M7.43799202,35.48725 L0.100927716,35.48725 L0.100927716,0.087875 L14.2801916,0.087875 C21.0015042,0.087875 26.6672426,4.27975 26.6672426,11.778038 C26.6672426,19.2747772 21.052431,23.4656196 14.2801916,23.4656196 L7.43799202,23.4656196 L7.43799202,35.48725 Z M43.7194998,35.48725 L32.5310297,35.48725 L32.5310297,0.087875 L43.7194998,0.087875 C55.717655,0.087875 62.9379477,6.59021196 62.9379477,17.7640707 C62.9379477,28.9363804 55.8133357,35.48725 43.7194998,35.48725 L43.7194998,35.48725 Z M43.4813268,6.83029348 L39.8495752,6.83029348 L39.8495752,28.7928478 L43.4813268,28.7928478 C51.4156239,28.7928478 55.5237215,24.7460543 55.5237215,17.8126033 C55.5237215,10.8290707 51.3672692,6.83029348 43.4813268,6.83029348 L43.4813268,6.83029348 Z M13.5620718,6.43222283 L7.43799202,6.43222283 L7.43799202,17.121788 L13.5620718,17.121788 C16.9700541,17.121788 19.2715353,15.3348587 19.2715353,11.778038 C19.2715353,8.31466848 16.9700541,6.43222283 13.5620718,6.43222283 L13.5620718,6.43222283 Z" id="Fill-45" fill="#FEFEFE" mask="url(#mask-2)"></path>
                </g>
                <g id="Group-50" transform="translate(41.702479, 42.750000)">
                    <mask id="mask-4" fill="white">
                        <use xlink:href="#path-3"></use>
                    </mask>
                    <g id="Clip-49"></g>
                    <path d="M13.7582766,2.57582754 C7.83659147,2.57582754 3.019002,7.23880427 3.019002,12.9713581 L3.019002,53.4244547 C3.019002,59.1560094 7.83659147,63.8189862 13.7582766,63.8189862 L34.3830956,63.8189862 L34.3830956,80.771859 L52.9630049,63.8189862 L75.6809405,63.8189862 C81.6026257,63.8189862 86.4202151,59.1560094 86.4202151,53.4244547 L86.4202151,12.9713581 C86.4202151,7.23880427 81.6026257,2.57582754 75.6809405,2.57582754 L13.7582766,2.57582754 Z M31.7913216,86.5763508 L31.7913216,66.316831 L13.7582766,66.316831 C6.4074873,66.316831 0.427228022,60.5333211 0.427228022,53.4244547 L0.427228022,12.9713581 C0.427228022,5.86149263 6.4074873,0.0779827155 13.7582766,0.0779827155 L75.6809405,0.0779827155 C83.0317298,0.0779827155 89.0119891,5.86149263 89.0119891,12.9713581 L89.0119891,53.4244547 C89.0119891,60.5333211 83.0317298,66.316831 75.6809405,66.316831 L53.9955676,66.316831 L31.7913216,86.5763508 Z" id="Fill-48" fill="#FEFEFE" mask="url(#mask-4)"></path>
                </g>
            </g>
        </g>
    </g>
</svg>