<?xml version="1.0" encoding="UTF-8"?>
<svg width="170px" height="171px" viewBox="0 0 170 171" version="1.1" xmlns="http://www.w3.org/2000/svg" xmlns:xlink="http://www.w3.org/1999/xlink">
    <!-- Generator: Sketch 53.2 (72643) - https://sketchapp.com -->
    <title>RA</title>
    <desc>Created with Sketch.</desc>
    <defs>
        <polygon id="path-1" points="0.187358413 0.00763392857 61.6978304 0.00763392857 61.6978304 35.4898286 0.187358413 35.4898286"></polygon>
        <polygon id="path-3" points="0.3155 0.0794314655 84.6905 0.0794314655 84.6905 86.5683078 0.3155 86.5683078"></polygon>
    </defs>
    <g id="Page-1" stroke="none" stroke-width="1" fill="none" fill-rule="evenodd">
        <g id="LP-full-desktop" transform="translate(-893.000000, -1621.000000)">
            <g id="RA" transform="translate(893.000000, 1621.000000)">
                <polygon id="Fill-1" fill="#8D56A2" points="0 171 170 171 170 0 0 0"></polygon>
                <g id="Group-48" transform="translate(10.084746, 146.775000)" fill="#FEFEFE">
                    <path d="M4.23328431,3.96283 C5.02624112,3.96283 5.44686165,3.710605 5.44686165,2.86273 C5.44686165,2.106055 5.21838257,1.773555 4.23328431,1.773555 L3.28502145,1.773555 L3.28502145,3.96283 L4.23328431,3.96283 Z M3.28502145,7.172405 L4.32935503,7.172405 L4.32935503,8.27203 L0.0415144997,8.27203 L0.0415144997,7.172405 L1.01416837,7.172405 L1.01416837,1.83103 L0.0415144997,1.83103 L0.0415144997,0.73093 L4.59417174,0.73093 C6.97204662,0.73093 7.83718092,1.67048 7.83718092,2.621905 C7.83718092,3.58473 7.20002793,4.30673 5.20643595,4.489605 L5.20643595,4.558955 C6.82769165,4.63923 7.38072054,5.30328 7.41656039,6.24378 L7.42850701,6.52973 C7.45240025,7.057455 7.56041759,7.172405 7.80084329,7.172405 C7.9690915,7.172405 8.1129487,7.000455 8.26875252,6.40433 L9.04976271,6.610005 C8.83372803,7.641705 8.34142778,8.444455 7.08006397,8.444455 C5.60266547,8.444455 5.11036522,7.688255 5.11036522,6.346855 L5.11036522,6.17443 C5.11036522,5.31563 4.89383276,5.005455 4.11332034,5.005455 L3.28502145,5.005455 L3.28502145,7.172405 Z" id="Fill-2"></path>
                    <path d="M8.98111943,7.22893 L9.77357847,7.22893 L9.77357847,1.384055 L8.98111943,1.384055 L8.98111943,0.340955 L11.8035081,0.340955 L11.8035081,4.020305 C12.1514533,3.27503 12.7278777,2.72498 13.6885849,2.72498 C15.0465173,2.72498 15.5144265,3.58473 15.5144265,4.719505 L15.5144265,7.22893 L16.2954367,7.22893 L16.2954367,8.27203 L12.9085703,8.27203 L12.9085703,7.22893 L13.4849947,7.22893 L13.4849947,4.880055 C13.4849947,4.536155 13.4123194,4.28393 13.244569,4.12338 C13.1241072,4.008905 12.955859,3.95143 12.7278777,3.95143 C12.2111864,3.95143 11.8035081,4.44448 11.8035081,5.097605 L11.8035081,7.22893 L12.3555414,7.22893 L12.3555414,8.27203 L8.98111943,8.27203 L8.98111943,7.22893 Z" id="Fill-4"></path>
                    <path d="M18.8563935,5.052005 L20.7310171,5.052005 C20.682235,3.90583 20.3820762,3.57333 19.8180963,3.57333 C19.2650674,3.57333 18.9166244,3.92863 18.8563935,5.052005 L18.8563935,5.052005 Z M18.8563935,5.84193 C18.9290688,7.06838 19.421369,7.38948 20.2616145,7.38948 C20.9226607,7.38948 21.3188903,7.125855 21.5349249,6.47273 L22.6160939,6.47273 C22.4358991,7.59563 21.6792799,8.397905 19.9495091,8.397905 C18.0037036,8.397905 16.7786774,7.309205 16.7786774,5.613455 C16.7786774,3.95143 18.0878277,2.72498 19.8414918,2.72498 C21.8470304,2.72498 22.7962888,3.95143 22.6882714,5.84193 L18.8563935,5.84193 Z" id="Fill-6"></path>
                    <path d="M23.9873169,6.4041875 L23.9873169,3.8938125 L23.2073022,3.8938125 L23.2073022,2.8516625 L26.0172465,2.8516625 L26.0172465,6.2436375 C26.0172465,6.5756625 26.0774773,6.8397625 26.2581699,7.0112375 C26.3537429,7.1033875 26.5214933,7.1722625 26.7499724,7.1722625 C27.2422727,7.1722625 27.6509466,6.6792125 27.6509466,6.0260875 L27.6509466,3.8938125 L26.8699364,3.8938125 L26.8699364,2.8516625 L29.6808762,2.8516625 L29.6808762,7.2287875 L30.4728374,7.2287875 L30.4728374,8.2723625 L27.7948038,8.2723625 L27.7948038,6.8283625 C27.494645,7.6881125 26.906274,8.3977625 25.7887674,8.3977625 C24.4557239,8.3977625 23.9873169,7.5389625 23.9873169,6.4041875" id="Fill-8"></path>
                    <path d="M39.3036286,2.72479 C40.60133,2.72479 41.0692393,3.585015 41.0692393,4.719315 L41.0692393,7.22874 L41.8502495,7.22874 L41.8502495,8.272315 L38.5111695,8.272315 L38.5111695,7.22874 L39.0393096,7.22874 L39.0393096,4.879865 C39.0393096,4.535965 38.9676299,4.27234 38.7993817,4.11179 C38.6918622,4.008715 38.5470094,3.95124 38.3429213,3.95124 C37.8864609,3.95124 37.4782848,4.44429 37.4782848,5.097415 L37.4782848,7.22874 L37.9830294,7.22874 L37.9830294,8.272315 L34.9197173,8.272315 L34.9197173,7.22874 L35.448853,7.22874 L35.448853,4.879865 C35.448853,4.535965 35.3761777,4.27234 35.2079295,4.11179 C35.1004099,4.008715 34.956055,3.95124 34.7514691,3.95124 C34.2950087,3.95124 33.8868326,4.44429 33.8868326,5.097415 L33.8868326,7.22874 L34.3915772,7.22874 L34.3915772,8.272315 L31.0644439,8.272315 L31.0644439,7.22874 L31.8574008,7.22874 L31.8574008,3.893765 L31.0644439,3.893765 L31.0644439,2.851615 L33.7429754,2.851615 L33.7429754,4.29514 C34.0431342,3.43539 34.6315052,2.72479 35.7121764,2.72479 C36.7455589,2.72479 37.2383569,3.320915 37.3827119,4.180665 C37.6948173,3.367465 38.2707438,2.72479 39.3036286,2.72479" id="Fill-10"></path>
                    <path d="M45.8184682,6.0942975 L45.8184682,5.7280725 C45.709953,5.7503975 45.5785402,5.7617975 45.2778837,5.8192725 C44.5571043,5.9460975 44.3410697,6.2548475 44.3410697,6.6904225 C44.3410697,7.0115225 44.5332111,7.3207475 45.0255113,7.3207475 C45.5541492,7.3207475 45.8184682,6.8281725 45.8184682,6.0942975 M42.2996912,6.9426475 C42.2996912,6.5873475 42.4549972,6.2548475 42.6959207,6.0258975 C43.0314216,5.7052725 43.5958993,5.4411725 45.1574219,5.2464225 C45.7940771,5.1661475 45.8184682,5.1547475 45.8184682,5.0521475 L45.8184682,4.6042225 C45.8184682,3.9164225 45.4819717,3.6532725 44.8214233,3.6532725 C44.6168374,3.6532725 44.3769095,3.6879475 44.1847681,3.7682225 C44.353514,3.9059725 44.449087,4.0888475 44.449087,4.3638725 C44.449087,4.7875725 44.0414086,5.0972725 43.5247174,5.0972725 C42.8512268,5.0972725 42.5391213,4.6968475 42.5391213,4.2261225 C42.5391213,3.1830225 43.9323957,2.7246475 45.3739544,2.7246475 C47.259529,2.7246475 47.8120601,3.5957975 47.8120601,4.7191725 L47.8120601,7.0685225 C47.8120601,7.3207475 47.9325219,7.3668225 48.0763791,7.3668225 C48.1968408,7.3668225 48.3287514,7.2523475 48.4248221,6.7934975 L49.0848728,6.9545225 C48.8812825,7.9510725 48.4248221,8.3980475 47.4999547,8.3980475 C46.7433355,8.3980475 46.17836,8.0313475 46.0464495,7.1725475 L45.9862186,7.1725475 C45.5899891,8.1002225 44.9533339,8.3980475 44.0767507,8.3980475 C43.0797058,8.3980475 42.2996912,7.8479975 42.2996912,6.9426475" id="Fill-12"></path>
                    <path d="M51.8389168,1.4408175 L51.8389168,2.9080925 L53.6398696,2.9080925 L53.6398696,3.8937175 L51.8389168,3.8937175 L51.8389168,6.4382925 C51.8389168,6.9199425 52.0181161,7.2063675 52.3904524,7.2063675 C52.7627887,7.2063675 52.8956948,6.9427425 53.0992851,6.1518675 L53.8927397,6.3352175 C53.652314,7.7678175 53.0753919,8.3976675 51.8025792,8.3976675 C50.4570913,8.3976675 49.8084894,7.7564175 49.8084894,6.3694175 L49.8084894,3.8937175 L48.8477822,3.8937175 L48.8477822,2.9080925 L49.8687203,2.9080925 L49.8687203,1.6702425 L51.8389168,1.4408175 Z" id="Fill-14"></path>
                    <path d="M58.4709328,5.55579 C58.4709328,4.100865 58.1822229,3.57314 57.4858346,3.57314 C56.8008951,3.57314 56.5609672,4.12319 56.5609672,5.567665 C56.5609672,7.023065 56.8491793,7.550315 57.5455677,7.550315 C58.2305071,7.550315 58.4709328,7.000265 58.4709328,5.55579 M54.3508427,5.590465 C54.3508427,3.90564 55.7441171,2.72479 57.5216744,2.72479 C59.347516,2.72479 60.6800617,3.848165 60.6800617,5.53299 C60.6800617,7.217815 59.2872851,8.397715 57.50923,8.397715 C55.6838863,8.397715 54.3508427,7.27529 54.3508427,5.590465" id="Fill-16"></path>
                    <path d="M61.9081741,1.1666475 C61.9081741,0.5591225 62.3999766,0.0774725 63.1088093,0.0774725 C63.8295886,0.0774725 64.3099422,0.5239725 64.3099422,1.1200975 C64.3099422,1.7280975 63.817642,2.2087975 63.1088093,2.2087975 C62.3885277,2.2087975 61.9081741,1.7622975 61.9081741,1.1666475 L61.9081741,1.1666475 Z M61.3078565,7.2290725 L62.1844397,7.2290725 L62.1844397,3.8936225 L61.3078565,3.8936225 L61.3078565,2.8514725 L64.2143693,2.8514725 L64.2143693,7.2290725 L65.0914502,7.2290725 L65.0914502,8.2721725 L61.3078565,8.2721725 L61.3078565,7.2290725 Z" id="Fill-18"></path>
                    <path d="M69.6800966,5.5678075 C69.6800966,4.5817075 69.3799378,3.8483075 68.6591585,3.8483075 C67.974219,3.8483075 67.7223445,4.4553575 67.7223445,5.6243325 C67.7223445,6.7249075 67.9622724,7.2863575 68.6591585,7.2863575 C69.3436002,7.2863575 69.6800966,6.5187575 69.6800966,5.5678075 M66.3295679,7.8364075 C65.8123789,7.3433575 65.5605043,6.5187575 65.5605043,5.5678075 C65.5605043,4.5589075 65.8601653,3.7680325 66.3654077,3.2868575 C66.737744,2.9315575 67.2424887,2.7249325 67.8303618,2.7249325 C68.6352653,2.7249325 69.1872986,3.0916325 69.5357417,3.6412075 L69.5357417,1.3840075 L68.6830517,1.3840075 L68.6830517,0.3409075 L71.5656713,0.3409075 L71.5656713,7.2288825 L72.3586281,7.2288825 L72.3586281,8.2719825 L69.6800966,8.2719825 L69.6800966,7.1258075 C69.3674934,7.8592075 68.7671759,8.3978575 67.770131,8.3978575 C67.1454224,8.3978575 66.688962,8.1803075 66.3295679,7.8364075" id="Fill-20"></path>
                    <path d="M75.5683361,4.9597125 L77.4897505,4.9597125 L76.5534343,2.2550625 L76.5056478,2.2550625 L75.5683361,4.9597125 Z M77.8501402,5.9686125 L75.2203908,5.9686125 L74.7997703,7.1722625 L75.7968151,7.1722625 L75.7968151,8.2723625 L72.6379301,8.2723625 L72.6379301,7.1722625 L73.5145132,7.1722625 L75.9650633,0.6847125 L78.2583163,0.6847125 L80.7447063,7.1722625 L81.6217873,7.1722625 L81.6217873,8.2723625 L77.2742136,8.2723625 L77.2742136,7.1722625 L78.2712585,7.1722625 L77.8501402,5.9686125 Z" id="Fill-22"></path>
                    <path d="M82.0817321,7.22893 L82.8741911,7.22893 L82.8741911,3.893955 L82.0817321,3.893955 L82.0817321,2.85133 L84.7602635,2.85133 L84.7602635,4.30673 C85.1201554,3.263155 85.7443662,2.72498 86.5731629,2.72498 C87.3058888,2.72498 87.7862425,3.263155 87.7862425,3.848355 C87.7862425,4.489605 87.3297821,4.937055 86.7543533,4.937055 C86.1774312,4.937055 85.7443662,4.627355 85.7443662,4.065905 C85.7443662,4.05403 85.7573084,4.031705 85.7573084,4.020305 C85.5288293,4.065905 85.1201554,4.30673 84.903623,4.94798 L84.903623,7.22893 L85.9494499,7.22893 L85.9494499,8.27203 L82.0817321,8.27203 L82.0817321,7.22893 Z" id="Fill-24"></path>
                    <path d="M90.8394497,1.4408175 L90.8394497,2.9080925 L92.6404025,2.9080925 L92.6404025,3.8937175 L90.8394497,3.8937175 L90.8394497,6.4382925 C90.8394497,6.9199425 91.018649,7.2063675 91.3914831,7.2063675 C91.7638194,7.2063675 91.8962277,6.9427425 92.099818,6.1518675 L92.8932726,6.3352175 C92.6528469,7.7678175 92.0759248,8.3976675 90.8031121,8.3976675 C89.458122,8.3976675 88.8095201,7.7564175 88.8095201,6.3694175 L88.8095201,3.8937175 L87.8483151,3.8937175 L87.8483151,2.9080925 L88.8692532,2.9080925 L88.8692532,1.6702425 L90.8394497,1.4408175 Z" id="Fill-26"></path>
                    <path d="M93.3156851,7.22893 L94.1081442,7.22893 L94.1081442,1.384055 L93.3156851,1.384055 L93.3156851,0.340955 L96.1380738,0.340955 L96.1380738,4.020305 C96.486019,3.27503 97.0624434,2.72498 98.0231506,2.72498 C99.3810829,2.72498 99.8489922,3.58473 99.8489922,4.719505 L99.8489922,7.22893 L100.630002,7.22893 L100.630002,8.27203 L97.243136,8.27203 L97.243136,7.22893 L97.8200581,7.22893 L97.8200581,4.880055 C97.8200581,4.536155 97.7473828,4.28393 97.5791346,4.12338 C97.4586729,4.008905 97.2909225,3.95143 97.0624434,3.95143 C96.5462499,3.95143 96.1380738,4.44448 96.1380738,5.097605 L96.1380738,7.22893 L96.6901071,7.22893 L96.6901071,8.27203 L93.3156851,8.27203 L93.3156851,7.22893 Z" id="Fill-28"></path>
                    <path d="M101.137186,7.22893 L101.929645,7.22893 L101.929645,3.893955 L101.137186,3.893955 L101.137186,2.85133 L103.815718,2.85133 L103.815718,4.30673 C104.175609,3.263155 104.79982,2.72498 105.629115,2.72498 C106.361343,2.72498 106.841696,3.263155 106.841696,3.848355 C106.841696,4.489605 106.385734,4.937055 105.809807,4.937055 C105.232885,4.937055 104.79982,4.627355 104.79982,4.065905 C104.79982,4.05403 104.812762,4.031705 104.812762,4.020305 C104.584283,4.065905 104.175609,4.30673 103.959077,4.94798 L103.959077,7.22893 L105.004904,7.22893 L105.004904,8.27203 L101.137186,8.27203 L101.137186,7.22893 Z" id="Fill-30"></path>
                    <path d="M107.793991,1.1666475 C107.793991,0.5591225 108.285794,0.0774725 108.994129,0.0774725 C109.714908,0.0774725 110.195262,0.5239725 110.195262,1.1200975 C110.195262,1.7280975 109.702961,2.2087975 108.994129,2.2087975 C108.274345,2.2087975 107.793991,1.7622975 107.793991,1.1666475 L107.793991,1.1666475 Z M107.193176,7.2290725 L108.069759,7.2290725 L108.069759,3.8936225 L107.193176,3.8936225 L107.193176,2.8514725 L110.100186,2.8514725 L110.100186,7.2290725 L110.97677,7.2290725 L110.97677,8.2721725 L107.193176,8.2721725 L107.193176,7.2290725 Z" id="Fill-32"></path>
                    <path d="M114.184387,1.4408175 L114.184387,2.9080925 L115.985837,2.9080925 L115.985837,3.8937175 L114.184387,3.8937175 L114.184387,6.4382925 C114.184387,6.9199425 114.364084,7.2063675 114.73642,7.2063675 C115.108757,7.2063675 115.241663,6.9427425 115.445253,6.1518675 L116.238708,6.3352175 C115.998282,7.7678175 115.42136,8.3976675 114.148547,8.3976675 C112.803059,8.3976675 112.154457,7.7564175 112.154457,6.3694175 L112.154457,3.8937175 L111.19375,3.8937175 L111.19375,2.9080925 L112.214688,2.9080925 L112.214688,1.6702425 L114.184387,1.4408175 Z" id="Fill-34"></path>
                    <path d="M117.321718,1.1666475 C117.321718,0.5591225 117.813521,0.0774725 118.521856,0.0774725 C119.242635,0.0774725 119.722989,0.5239725 119.722989,1.1200975 C119.722989,1.7280975 119.230688,2.2087975 118.521856,2.2087975 C117.802072,2.2087975 117.321718,1.7622975 117.321718,1.1666475 L117.321718,1.1666475 Z M116.720903,7.2290725 L117.597486,7.2290725 L117.597486,3.8936225 L116.720903,3.8936225 L116.720903,2.8514725 L119.627914,2.8514725 L119.627914,7.2290725 L120.504497,7.2290725 L120.504497,8.2721725 L116.720903,8.2721725 L116.720903,7.2290725 Z" id="Fill-36"></path>
                    <path d="M121.057974,6.4041875 L122.065969,6.4041875 C122.631443,7.0805875 123.327831,7.5266125 123.964486,7.5266125 C124.408502,7.5266125 124.613088,7.3556125 124.613088,7.0682375 C124.613088,6.6792125 124.336823,6.5300625 123.19592,6.2664375 C121.837988,5.9458125 121.129653,5.5330375 121.129653,4.5246125 C121.129653,3.5385125 121.934557,2.7248375 123.243707,2.7248375 C124.036166,2.7248375 124.589195,2.9998625 124.97298,3.4012375 L125.189512,2.7476375 L126.222895,2.7476375 L126.222895,4.6044125 L125.213903,4.6044125 C124.744501,4.0087625 124.08445,3.5731875 123.531919,3.5731875 C123.051566,3.5731875 122.894766,3.7679375 122.894766,4.0315625 C122.894766,4.3868625 123.183476,4.5013375 124.276592,4.7649625 C125.489173,5.0632625 126.415036,5.4413625 126.415036,6.5756625 C126.415036,7.5617625 125.645973,8.3977625 124.216859,8.3977625 C123.267102,8.3977625 122.666785,8.0196625 122.294449,7.6306375 L122.078912,8.3749625 L121.057974,8.3749625 L121.057974,6.4041875 Z" id="Fill-38"></path>
                    <path d="M127.113914,7.3435 C127.113914,6.701775 127.630107,6.197325 128.326993,6.197325 C128.99899,6.197325 129.515184,6.690375 129.515184,7.3207 C129.515184,7.962425 128.99899,8.466875 128.302602,8.466875 C127.630107,8.466875 127.113914,7.9743 127.113914,7.3435" id="Fill-40"></path>
                    <path d="M130.237656,7.22893 L131.030613,7.22893 L131.030613,3.893955 L130.237656,3.893955 L130.237656,2.85133 L132.916187,2.85133 L132.916187,4.294855 C133.215848,3.43558 133.804219,2.72498 134.945619,2.72498 C136.303551,2.72498 136.771461,3.58473 136.771461,4.719505 L136.771461,7.22893 L137.551973,7.22893 L137.551973,8.27203 L134.165604,8.27203 L134.165604,7.22893 L134.741531,7.22893 L134.741531,4.880055 C134.741531,4.536155 134.669353,4.28393 134.501105,4.12338 C134.381141,4.008905 134.212893,3.95143 133.984912,3.95143 C133.468221,3.95143 133.059547,4.44448 133.059547,5.097605 L133.059547,7.22893 L133.612078,7.22893 L133.612078,8.27203 L130.237656,8.27203 L130.237656,7.22893 Z" id="Fill-42"></path>
                    <path d="M140.112482,5.052005 L141.987105,5.052005 C141.938323,3.90583 141.638165,3.57333 141.074185,3.57333 C140.521156,3.57333 140.172713,3.92863 140.112482,5.052005 L140.112482,5.052005 Z M140.112482,5.84193 C140.185157,7.06838 140.677955,7.38948 141.518201,7.38948 C142.178749,7.38948 142.574979,7.125855 142.791013,6.47273 L143.872182,6.47273 C143.691987,7.59563 142.935368,8.397905 141.205597,8.397905 C139.259792,8.397905 138.034766,7.309205 138.034766,5.613455 C138.034766,3.95143 139.343916,2.72498 141.09758,2.72498 C143.103616,2.72498 144.052377,3.95143 143.94436,5.84193 L140.112482,5.84193 Z" id="Fill-44"></path>
                    <path d="M147.309772,1.4408175 L147.309772,2.9080925 L149.110725,2.9080925 L149.110725,3.8937175 L147.309772,3.8937175 L147.309772,6.4382925 C147.309772,6.9199425 147.488971,7.2063675 147.861308,7.2063675 C148.233644,7.2063675 148.36655,6.9427425 148.57014,6.1518675 L149.363595,6.3352175 C149.123169,7.7678175 148.546247,8.3976675 147.273434,8.3976675 C145.927946,8.3976675 145.279345,7.7564175 145.279345,6.3694175 L145.279345,3.8937175 L144.318637,3.8937175 L144.318637,2.9080925 L145.339575,2.9080925 L145.339575,1.6702425 L147.309772,1.4408175 Z" id="Fill-46"></path>
                </g>
                <g id="Group-51" transform="translate(53.305085, 58.425000)">
                    <mask id="mask-2" fill="white">
                        <use xlink:href="#path-1"></use>
                    </mask>
                    <g id="Clip-50"></g>
                    <path d="M7.3302468,35.4898286 L0.185444536,35.4898286 L0.185444536,0.600230357 L13.7089949,0.600230357 C20.3299994,0.600230357 25.9648541,4.69150714 25.9648541,11.9014982 C25.9648541,16.7856857 23.3342815,20.2581054 19.6258944,21.9650518 L27.6546053,35.4898286 L19.2965063,35.4898286 L12.0645723,23.1915696 L7.3302468,23.1915696 L7.3302468,35.4898286 Z M61.6989384,35.4898286 L53.8102427,35.4898286 L51.5574088,30.0493821 L38.3148961,30.0493821 L36.0605513,35.4898286 L28.1713519,35.4898286 L44.8417178,0.00732857143 L45.0300835,0.00732857143 L61.6989384,35.4898286 Z M40.5687372,24.4918821 L49.3030641,24.4918821 L44.935397,14.0568107 L40.5687372,24.4918821 Z M13.0507222,6.86870357 L7.3302468,6.86870357 L7.3302468,16.9210607 L13.0507222,16.9210607 C16.4317357,16.9210607 18.6865841,15.166275 18.6865841,11.8948821 C18.6865841,8.67031071 16.4317357,6.86870357 13.0507222,6.86870357 L13.0507222,6.86870357 Z" id="Fill-49" fill="#FEFEFE" mask="url(#mask-2)"></path>
                </g>
                <g id="Group-54" transform="translate(41.779661, 42.750000)">
                    <mask id="mask-4" fill="white">
                        <use xlink:href="#path-3"></use>
                    </mask>
                    <g id="Clip-53"></g>
                    <path d="M13.22435,2.57692659 C7.48435,2.57692659 2.81385,7.23990332 2.81385,12.9719576 L2.81385,53.4255537 C2.81385,59.1571085 7.48435,63.8195856 13.22435,63.8195856 L32.48385,63.8195856 L32.48385,80.7814507 L50.49435,63.8195856 L71.78135,63.8195856 C77.52185,63.8195856 82.19185,59.1571085 82.19185,53.4255537 L82.19185,12.9719576 C82.19185,7.23990332 77.52185,2.57692659 71.78135,2.57692659 L13.22435,2.57692659 Z M29.98385,86.5684576 L29.98385,66.3174305 L13.22435,66.3174305 C6.10535,66.3174305 0.31385,60.5344201 0.31385,53.4255538 L0.31385,12.9719576 C0.31385,5.86259168 6.10535,0.0790817672 13.22435,0.0790817672 L71.78135,0.0790817672 C78.90035,0.0790817672 84.69185,5.86259168 84.69185,12.9719576 L84.69185,53.4255538 C84.69185,60.5344201 78.90035,66.3174305 71.78135,66.3174305 L51.48635,66.3174305 L29.98385,86.5684576 Z" id="Fill-52" fill="#FEFEFE" mask="url(#mask-4)"></path>
                </g>
            </g>
        </g>
    </g>
</svg>