<?xml version="1.0" encoding="UTF-8"?>
<svg width="171px" height="171px" viewBox="0 0 171 171" version="1.1" xmlns="http://www.w3.org/2000/svg" xmlns:xlink="http://www.w3.org/1999/xlink">
    <!-- Generator: Sketch 53.2 (72643) - https://sketchapp.com -->
    <title>SC</title>
    <desc>Created with Sketch.</desc>
    <defs>
        <polygon id="path-1" points="0.0630903188 15.4216718 0.0630903188 0.767372927 34.8473377 0.356479839 122.075224 0.356479839 122.075224 15.4216718"></polygon>
        <polygon id="path-3" points="0.0630903188 15.4216718 0.0630903188 0.767372927 34.8473377 0.356479839 122.075224 0.356479839 122.075224 15.4216718"></polygon>
        <polygon id="path-5" points="0.0630903188 15.4216718 0.0630903188 0.767372927 34.8473377 0.356479839 122.075224 0.356479839 122.075224 15.4216718"></polygon>
        <polygon id="path-7" points="0.0630903188 15.4216718 0.0630903188 0.767372927 34.8473377 0.356479839 122.075224 0.356479839 122.075224 15.4216718"></polygon>
        <polyline id="path-9" points="0.0630903188 15.4216718 0.0630903188 0.767372927 34.8473377 0.356479839 122.075224 0.356479839 122.075224 15.4216718"></polyline>
        <polyline id="path-11" points="0.0630903188 15.4216718 0.0630903188 0.767372927 34.8473377 0.356479839 122.075224 0.356479839 122.075224 15.4216718"></polyline>
        <polygon id="path-13" points="0.0630903188 15.4216718 0.0630903188 0.767372927 34.8473377 0.356479839 122.075224 0.356479839 122.075224 15.4216718"></polygon>
        <polyline id="path-15" points="0.0630903188 15.4216718 0.0630903188 0.767372927 34.8473377 0.356479839 122.075224 0.356479839 122.075224 15.4216718"></polyline>
        <polygon id="path-17" points="0.0630903188 15.4216718 0.0630903188 0.767372927 34.8473377 0.356479839 122.075224 0.356479839 122.075224 15.4216718"></polygon>
        <polygon id="path-19" points="0.0630903188 15.4216718 0.0630903188 0.767372927 34.8473377 0.356479839 122.075224 0.356479839 122.075224 15.4216718"></polygon>
        <polyline id="path-21" points="0.0630903188 15.4216718 0.0630903188 0.767372927 34.8473377 0.356479839 122.075224 0.356479839 122.075224 15.4216718"></polyline>
        <polygon id="path-23" points="0.0630903188 15.4216718 0.0630903188 0.767372927 34.8473377 0.356479839 122.075224 0.356479839 122.075224 15.4216718"></polygon>
        <polygon id="path-25" points="0.0630903188 15.4216718 0.0630903188 0.767372927 34.8473377 0.356479839 122.075224 0.356479839 122.075224 15.4216718"></polygon>
        <polygon id="path-27" points="0.0630903188 15.4216718 0.0630903188 0.767372927 34.8473377 0.356479839 122.075224 0.356479839 122.075224 15.4216718"></polygon>
        <polygon id="path-29" points="0.40698 0.484401042 60.0417212 0.484401042 60.0417212 35.6040208 0.40698 35.6040208"></polygon>
        <polygon id="path-31" points="0.0231932773 0.0799310345 85.787395 0.0799310345 85.787395 86.5693069 0.0231932773 86.5693069"></polygon>
    </defs>
    <g id="Page-1" stroke="none" stroke-width="1" fill="none" fill-rule="evenodd">
        <g id="LP-full-desktop" transform="translate(-892.000000, -1072.000000)">
            <g id="SC" transform="translate(892.000000, 1072.000000)">
                <polygon id="Fill-1" fill="#42C4E4" points="0 171 171 171 171 0 0 0"></polygon>
                <g id="Group-44" transform="translate(24.428571, 142.500000)">
                    <g id="Group-4">
                        <mask id="mask-2" fill="white">
                            <use xlink:href="#path-1"></use>
                        </mask>
                        <g id="Clip-3"></g>
                        <path d="M0.727759445,9.97961516 L2.33731966,9.97961516 C2.83548081,11.6244789 3.76921753,12.4951998 5.57208648,12.4951998 C6.66632497,12.4951998 7.26139286,11.9627555 7.26139286,11.2371547 C7.26139286,10.398795 6.31150502,10.2051329 4.63834976,9.81831435 C2.85213666,9.41582081 0.808515053,8.80297887 0.808515053,6.35211677 C0.808515053,4.20767565 2.60986983,2.85254661 4.70244953,2.85254661 C5.95819923,2.85254661 6.90808707,3.32026839 7.43905519,4.04637484 L7.77671458,2.88591919 L9.33832615,2.88591919 L9.33832615,6.69039339 L7.72826122,6.69039339 C7.19729309,5.07789097 6.45787456,4.33712081 5.02496724,4.33712081 C3.93072875,4.33712081 3.38310478,4.9494571 3.38310478,5.57797403 C3.38310478,6.48055065 4.44504103,6.69039339 6.08639876,7.07771758 C7.85747019,7.49689742 9.83699203,8.09305306 9.83699203,10.4630119 C9.83699203,12.5594168 8.19512957,13.9777515 5.79719274,13.9777515 C4.42939463,13.9777515 3.23875413,13.3821015 2.65882792,12.6398144 L2.28886629,13.9458958 L0.727759445,13.9458958 L0.727759445,9.97961516 Z" id="Fill-2" fill="#FEFEFE" mask="url(#mask-2)"></path>
                    </g>
                    <g id="Group-7">
                        <mask id="mask-4" fill="white">
                            <use xlink:href="#path-3"></use>
                        </mask>
                        <g id="Clip-6"></g>
                        <polygon id="Fill-5" fill="#FEFEFE" mask="url(#mask-4)" points="17.0296921 8.89920315 19.4760823 12.2526419 20.2639543 12.2526419 20.2639543 13.7200241 15.8385469 13.7200241 15.8385469 12.2855088 16.6597305 12.2855088 15.2919324 10.3013572 14.3743468 11.1078612 14.3743468 12.2855088 15.1304212 12.2855088 15.1304212 13.7200241 10.591956 13.7200241 10.591956 12.2526419 11.654397 12.2526419 11.654397 4.03034589 10.591956 4.03034589 10.591956 2.56296363 14.3743468 2.56296363 14.3743468 9.67334589 16.8363834 7.52890476 15.661894 7.52890476 15.661894 6.09438944 19.7329861 6.09438944 19.7329861 7.56126605 18.590799 7.56126605"></polygon>
                    </g>
                    <g id="Group-10">
                        <mask id="mask-6" fill="white">
                            <use xlink:href="#path-5"></use>
                        </mask>
                        <g id="Clip-9"></g>
                        <path d="M21.4381408,3.72422831 C21.4381408,2.86968798 22.0973084,2.19262911 23.0471963,2.19262911 C24.0127305,2.19262911 24.6562518,2.8206404 24.6562518,3.65900008 C24.6562518,4.51404605 23.9960747,5.19059927 23.0471963,5.19059927 C22.081662,5.19059927 21.4381408,4.56258798 21.4381408,3.72422831 L21.4381408,3.72422831 Z M20.6331083,12.2524396 L21.8075977,12.2524396 L21.8075977,7.56106379 L20.6331083,7.56106379 L20.6331083,6.09418718 L24.5280522,6.09418718 L24.5280522,12.2524396 L25.7025416,12.2524396 L25.7025416,13.7203275 L20.6331083,13.7203275 L20.6331083,12.2524396 Z" id="Fill-8" fill="#FEFEFE" mask="url(#mask-6)"></path>
                    </g>
                    <g id="Group-13">
                        <mask id="mask-8" fill="white">
                            <use xlink:href="#path-7"></use>
                        </mask>
                        <g id="Clip-12"></g>
                        <path d="M26.3774061,12.2525407 L27.4393424,12.2525407 L27.4393424,7.56116492 L26.3774061,7.56116492 L26.3774061,6.09428831 L29.9664882,6.09428831 L29.9664882,8.12495927 C30.3682473,6.91596169 31.1571287,5.91630121 32.6859333,5.91630121 C34.5054581,5.91630121 35.1323235,7.12580444 35.1323235,8.72263185 L35.1323235,12.2525407 L36.1786133,12.2525407 L36.1786133,13.719923 L31.6401482,13.719923 L31.6401482,12.2525407 L32.4118689,12.2525407 L32.4118689,8.94764395 C32.4118689,8.46475282 32.3159717,8.10978992 32.0903607,7.88376653 C31.9293542,7.72246573 31.7042479,7.6415625 31.3983861,7.6415625 C30.7064115,7.6415625 30.1587875,8.33530766 30.1587875,9.25406492 L30.1587875,12.2525407 L30.8997202,12.2525407 L30.8997202,13.719923 L26.3774061,13.719923 L26.3774061,12.2525407 Z" id="Fill-11" fill="#FEFEFE" mask="url(#mask-8)"></path>
                    </g>
                    <g id="Group-16">
                        <mask id="mask-10" fill="white">
                            <use xlink:href="#path-9"></use>
                        </mask>
                        <g id="Clip-15"></g>
                        <path d="M36.9810213,8.52881806 C36.9810213,5.09447613 39.3633117,2.85244548 42.1473613,2.85244548 C43.5318152,2.85244548 44.5452981,3.3049979 45.1888194,4.12667129 L45.5431346,2.88581806 L47.1526948,2.88581806 L47.1526948,7.14183339 L45.3013725,7.14183339 C44.6896488,5.15869306 43.8694746,4.2879721 42.5657763,4.2879721 C41.1656759,4.2879721 40.248595,5.35235516 40.248595,8.33515597 C40.248595,11.2370535 41.3105313,12.3014366 42.9998377,12.3014366 C44.4483914,12.3014366 45.269575,11.2203673 45.5749321,9.47993661 L47.2970455,9.47993661 C47.0234858,12.1719915 45.6072344,13.9776503 42.5814227,13.9776503 C39.1533471,13.9776503 36.9810213,11.8665818 36.9810213,8.52881806" id="Fill-14" fill="#FEFEFE" mask="url(#mask-10)"></path>
                    </g>
                    <g id="Group-19">
                        <mask id="mask-12" fill="white">
                            <use xlink:href="#path-11"></use>
                        </mask>
                        <g id="Clip-18"></g>
                        <path d="M52.7999345,10.6566235 L52.7999345,10.1408654 C52.6555838,10.1732267 52.4784262,10.1889017 52.0756576,10.2692993 C51.1096187,10.447792 50.8204126,10.8821412 50.8204126,11.4949831 C50.8204126,11.9465243 51.0778211,12.3818848 51.7379982,12.3818848 C52.4456192,12.3818848 52.7999345,11.6886452 52.7999345,10.6566235 M48.0848164,11.849946 C48.0848164,11.349863 48.2932668,10.8821412 48.6157845,10.5605509 C49.0665018,10.1079985 49.8225762,9.73786621 51.9146511,9.46330089 C52.768137,9.35054202 52.7999345,9.33486702 52.7999345,9.1902525 L52.7999345,8.56072427 C52.7999345,7.59291944 52.3492172,7.22228153 51.4644386,7.22228153 C51.190879,7.22228153 50.8693707,7.27132911 50.6109528,7.38358234 C50.8370685,7.57724444 50.965268,7.83512347 50.965268,8.22244766 C50.965268,8.81860331 50.4186535,9.25446944 49.7261741,9.25446944 C48.8247397,9.25446944 48.4063247,8.68966379 48.4063247,8.02878556 C48.4063247,6.56089766 50.2727887,5.91620008 52.2048666,5.91620008 C54.731003,5.91620008 55.4719357,7.14188395 55.4719357,8.72253073 L55.4719357,12.0269219 C55.4719357,12.3818848 55.6324374,12.4461017 55.8257462,12.4461017 C55.9867527,12.4461017 56.1639103,12.2858122 56.2931192,11.6395977 L57.1773932,11.8666323 C56.904843,13.2687864 56.2931192,13.8973033 55.0535207,13.8973033 C54.0395331,13.8973033 53.2824492,13.3820509 53.1057963,12.172042 L53.0250407,12.172042 C52.4945773,13.4781235 51.6410915,13.8973033 50.4660974,13.8973033 C49.1300968,13.8973033 48.0848164,13.1241719 48.0848164,11.849946" id="Fill-17" fill="#FEFEFE" mask="url(#mask-12)"></path>
                    </g>
                    <g id="Group-22">
                        <mask id="mask-14" fill="white">
                            <use xlink:href="#path-13"></use>
                        </mask>
                        <g id="Clip-21"></g>
                        <path d="M57.3853388,12.2525407 L58.4472751,12.2525407 L58.4472751,7.56116492 L57.3853388,7.56116492 L57.3853388,6.09428831 L60.9739162,6.09428831 L60.9739162,8.12495927 C61.37618,6.91596169 62.1645567,5.91630121 63.6933613,5.91630121 C65.5128861,5.91630121 66.1402562,7.12580444 66.1402562,8.72263185 L66.1402562,12.2525407 L67.186546,12.2525407 L67.186546,13.719923 L62.6480809,13.719923 L62.6480809,12.2525407 L63.4198017,12.2525407 L63.4198017,8.94764395 C63.4198017,8.46475282 63.3239044,8.10978992 63.0982934,7.88376653 C62.9372869,7.72246573 62.7121806,7.6415625 62.4063188,7.6415625 C61.7138394,7.6415625 61.1662155,8.33530766 61.1662155,9.25406492 L61.1662155,12.2525407 L61.9071482,12.2525407 L61.9071482,13.719923 L57.3853388,13.719923 L57.3853388,12.2525407 Z" id="Fill-20" fill="#FEFEFE" mask="url(#mask-14)"></path>
                    </g>
                    <g id="Group-25">
                        <mask id="mask-16" fill="white">
                            <use xlink:href="#path-15"></use>
                        </mask>
                        <g id="Clip-24"></g>
                        <path d="M67.8282503,10.0437815 C67.8282503,7.56106379 69.5503636,5.91620008 72.1259628,5.91620008 C74.5405555,5.91620008 75.5858359,7.30318476 75.5858359,8.51218234 C75.5858359,9.35054202 75.1033211,9.94770895 74.2013819,9.94770895 C73.3650567,9.94770895 72.898693,9.38239766 72.898693,8.72253073 C72.898693,8.17390573 73.2363524,7.83512347 73.606314,7.69050895 C73.3812078,7.41594363 73.0268926,7.22228153 72.4641269,7.22228153 C71.4339882,7.22228153 70.7097113,8.20576137 70.7097113,9.88248073 C70.7097113,11.349863 71.2886281,12.3657041 72.4469664,12.3657041 C73.3004522,12.3657041 73.831925,11.8661267 74.1054847,11.0601283 L75.5701895,11.0601283 C75.2476718,12.6716194 74.1372822,13.8973033 72.109307,13.8973033 C69.4221641,13.8973033 67.8282503,12.3818848 67.8282503,10.0437815" id="Fill-23" fill="#FEFEFE" mask="url(#mask-16)"></path>
                    </g>
                    <g id="Group-28">
                        <mask id="mask-18" fill="white">
                            <use xlink:href="#path-17"></use>
                        </mask>
                        <g id="Clip-27"></g>
                        <path d="M79.0923453,9.19005024 L81.6043495,9.19005024 C81.5392403,7.57754782 81.1369764,7.10982605 80.380902,7.10982605 C79.6399693,7.10982605 79.1731009,7.60940347 79.0923453,9.19005024 L79.0923453,9.19005024 Z M79.0923453,10.3014583 C79.1892521,12.0267196 79.8494292,12.4782607 80.9754652,12.4782607 C81.8612532,12.4782607 82.3922214,12.1081285 82.6814274,11.1883599 L84.1299811,11.1883599 C83.8892285,12.7690067 82.8747361,13.8976067 80.5570502,13.8976067 C77.9496535,13.8976067 76.3082957,12.3655019 76.3082957,9.97986798 C76.3082957,7.64125911 78.0627113,5.91599782 80.4126995,5.91599782 C83.0998424,5.91599782 84.3717432,7.64125911 84.2268878,10.3014583 L79.0923453,10.3014583 Z" id="Fill-26" fill="#FEFEFE" mask="url(#mask-18)"></path>
                    </g>
                    <g id="Group-31">
                        <mask id="mask-20" fill="white">
                            <use xlink:href="#path-19"></use>
                        </mask>
                        <g id="Clip-30"></g>
                        <path d="M85.1125245,12.2525407 L86.1744607,12.2525407 L86.1744607,7.56116492 L85.1125245,7.56116492 L85.1125245,6.09428831 L88.7011018,6.09428831 L88.7011018,8.14164556 C89.1836166,6.67426331 90.0209513,5.91630121 91.1313409,5.91630121 C92.1125215,5.91630121 92.7565475,6.67426331 92.7565475,7.49694798 C92.7565475,8.3995246 92.1448238,9.02854718 91.3720936,9.02854718 C90.6003728,9.02854718 90.0209513,8.59318669 90.0209513,7.80286331 C90.0209513,7.78668266 90.0371024,7.75432137 90.0371024,7.73864637 C89.7312406,7.80286331 89.1836166,8.14164556 88.8934011,9.04422218 L88.8934011,12.2525407 L90.2945109,12.2525407 L90.2945109,13.719923 L85.1125245,13.719923 L85.1125245,12.2525407 Z" id="Fill-29" fill="#FEFEFE" mask="url(#mask-20)"></path>
                    </g>
                    <g id="Group-34">
                        <mask id="mask-22" fill="white">
                            <use xlink:href="#path-21"></use>
                        </mask>
                        <g id="Clip-33"></g>
                        <path d="M92.0643205,12.4139932 C92.0643205,11.5114166 92.7562952,10.8019965 93.6895272,10.8019965 C94.5904569,10.8019965 95.2824315,11.495236 95.2824315,12.3821376 C95.2824315,13.2847142 94.5904569,13.99464 93.6572249,13.99464 C92.7562952,13.99464 92.0643205,13.3008948 92.0643205,12.4139932" id="Fill-32" fill="#FEFEFE" mask="url(#mask-22)"></path>
                    </g>
                    <g id="Group-37">
                        <mask id="mask-24" fill="white">
                            <use xlink:href="#path-23"></use>
                        </mask>
                        <g id="Clip-36"></g>
                        <path d="M96.2484705,12.2525407 L97.3104067,12.2525407 L97.3104067,7.56116492 L96.2484705,7.56116492 L96.2484705,6.09428831 L99.8375525,6.09428831 L99.8375525,8.12495927 C100.239312,6.91596169 101.027688,5.91630121 102.556493,5.91630121 C104.376018,5.91630121 105.003388,7.12580444 105.003388,8.72263185 L105.003388,12.2525407 L106.049678,12.2525407 L106.049678,13.719923 L101.511213,13.719923 L101.511213,12.2525407 L102.282933,12.2525407 L102.282933,8.94764395 C102.282933,8.46475282 102.187036,8.10978992 101.961425,7.88376653 C101.800419,7.72246573 101.575312,7.6415625 101.26945,7.6415625 C100.576971,7.6415625 100.029852,8.33530766 100.029852,9.25406492 L100.029852,12.2525407 L100.77028,12.2525407 L100.77028,13.719923 L96.2484705,13.719923 L96.2484705,12.2525407 Z" id="Fill-35" fill="#FEFEFE" mask="url(#mask-24)"></path>
                    </g>
                    <g id="Group-40">
                        <mask id="mask-26" fill="white">
                            <use xlink:href="#path-25"></use>
                        </mask>
                        <g id="Clip-39"></g>
                        <path d="M109.474775,9.19005024 L111.986275,9.19005024 C111.921166,7.57754782 111.519406,7.10982605 110.763332,7.10982605 C110.022399,7.10982605 109.555531,7.60940347 109.474775,9.19005024 L109.474775,9.19005024 Z M109.474775,10.3014583 C109.571682,12.0267196 110.231859,12.4782607 111.357895,12.4782607 C112.243179,12.4782607 112.774651,12.1081285 113.063857,11.1883599 L114.511906,11.1883599 C114.271659,12.7690067 113.257166,13.8976067 110.93948,13.8976067 C108.332084,13.8976067 106.690221,12.3655019 106.690221,9.97986798 C106.690221,7.64125911 108.444637,5.91599782 110.79513,5.91599782 C113.482272,5.91599782 114.754173,7.64125911 114.609318,10.3014583 L109.474775,10.3014583 Z" id="Fill-38" fill="#FEFEFE" mask="url(#mask-26)"></path>
                    </g>
                    <g id="Group-43">
                        <mask id="mask-28" fill="white">
                            <use xlink:href="#path-27"></use>
                        </mask>
                        <g id="Clip-42"></g>
                        <path d="M119.114774,4.11038952 L119.114774,6.17392742 L121.528357,6.17392742 L121.528357,7.5609121 L119.114774,7.5609121 L119.114774,11.1408798 C119.114774,11.8179387 119.356032,12.2204323 119.854697,12.2204323 C120.353363,12.2204323 120.53153,11.8503 120.804081,10.737375 L121.867026,10.995254 C121.544509,13.0112613 120.771778,13.8971516 119.066321,13.8971516 C117.263452,13.8971516 116.39432,12.994575 116.39432,11.043796 L116.39432,7.5609121 L115.107782,7.5609121 L115.107782,6.17392742 L116.47558,6.17392742 L116.47558,4.43349677 L119.114774,4.11038952 Z" id="Fill-41" fill="#FEFEFE" mask="url(#mask-28)"></path>
                    </g>
                </g>
                <g id="Group-47" transform="translate(56.042017, 58.425000)">
                    <mask id="mask-30" fill="white">
                        <use xlink:href="#path-29"></use>
                    </mask>
                    <g id="Clip-46"></g>
                    <path d="M13.5855476,0.484203125 C6.17621824,0.484203125 1.43951824,4.82303125 1.43951824,10.9158958 C1.43951824,15.8979531 4.11114176,19.4045417 13.0247682,21.2976146 C18.1391771,22.2669115 19.6857212,23.3757396 19.6857212,25.3598542 C19.6857212,27.851625 17.6206447,29.1890469 14.01003,29.1890469 C10.4924594,29.1890469 6.59667706,27.6215469 4.29873882,25.2218073 L0.40698,31.081625 C3.83050059,33.9870417 8.52143294,35.6040208 13.7761624,35.6040208 C21.8906153,35.6040208 26.8149124,31.2196719 26.8149124,24.7131615 C26.8149124,19.4965729 24.0019624,16.3120938 15.0883359,14.4689948 C9.92765647,13.4996979 8.61498,12.5299062 8.61498,10.5903229 C8.61498,8.10003646 10.4924594,6.89967188 13.5382712,6.89967188 C17.2001859,6.89967188 19.8260418,8.19107812 21.9363829,9.85407292 L25.6420535,4.03779687 C22.7818271,1.86764062 18.5133653,0.484203125 13.5855476,0.484203125 M47.5179829,0.484203125 C37.1508565,0.484203125 29.8325594,8.00701563 29.8325594,18.0211042 C29.8325594,28.0807135 37.1508565,35.6040208 47.5179829,35.6040208 C52.5388447,35.6040208 56.6176976,34.1285521 60.0417212,30.4339427 L55.5856624,25.3148281 C53.7579741,27.4830052 51.0823271,29.1890469 47.5179829,29.1890469 C41.1834388,29.1890469 37.0583153,24.4825885 37.0583153,18.0211042 C37.0583153,11.5606094 41.1834388,6.89967188 47.5179829,6.89967188 C51.0355535,6.89967188 53.6639241,8.55920312 55.4911094,10.6823542 L59.9944447,5.56274479 C56.6634653,2.19321354 52.9593035,0.484203125 47.5179829,0.484203125" id="Fill-45" fill="#FEFEFE" mask="url(#mask-30)"></path>
                </g>
                <g id="Group-50" transform="translate(43.109244, 42.750000)">
                    <mask id="mask-32" fill="white">
                        <use xlink:href="#path-31"></use>
                    </mask>
                    <g id="Clip-49"></g>
                    <path d="M13.0346723,2.57692659 C7.24946218,2.57692659 2.5432437,7.23990332 2.5432437,12.9719576 L2.5432437,53.4255538 C2.5432437,59.1571085 7.24946218,63.8195856 13.0346723,63.8195856 L32.8074454,63.8195856 L32.8074454,80.779952 L50.9566891,63.8195856 L72.7750084,63.8195856 C78.5602185,63.8195856 83.266437,59.1571085 83.266437,53.4255538 L83.266437,12.9719576 C83.266437,7.23990332 78.5602185,2.57692659 72.7750084,2.57692659 L13.0346723,2.57692659 Z M30.286437,86.5699563 L30.286437,66.3174305 L13.0346723,66.3174305 C5.85988235,66.3174305 0.0222352941,60.5344201 0.0222352941,53.4255537 L0.0222352941,12.9719576 C0.0222352941,5.86259168 5.85988235,0.0790817672 13.0346723,0.0790817672 L72.7750084,0.0790817672 C79.9503025,0.0790817672 85.7874454,5.86259168 85.7874454,12.9719576 L85.7874454,53.4255537 C85.7874454,60.5344201 79.9503025,66.3174305 72.7750084,66.3174305 L51.9580336,66.3174305 L30.286437,86.5699563 Z" id="Fill-48" fill="#FEFEFE" mask="url(#mask-32)"></path>
                </g>
            </g>
        </g>
    </g>
</svg>