<?xml version="1.0" encoding="UTF-8"?>
<svg width="174px" height="171px" viewBox="0 0 174 171" version="1.1" xmlns="http://www.w3.org/2000/svg" xmlns:xlink="http://www.w3.org/1999/xlink">
    <!-- Generator: Sketch 53.2 (72643) - https://sketchapp.com -->
    <title>T2D</title>
    <desc>Created with Sketch.</desc>
    <defs>
        <polygon id="path-1" points="0.185109082 0.491223592 90.1505658 0.491223592 90.1505658 35.4917324 0.185109082 35.4917324"></polygon>
        <polygon id="path-3" points="0.0495797557 0.0799310345 114.731831 0.0799310345 114.731831 86.5618134 0.0495797557 86.5618134"></polygon>
    </defs>
    <g id="Page-1" stroke="none" stroke-width="1" fill="none" fill-rule="evenodd">
        <g id="LP-full-desktop" transform="translate(-337.000000, -1257.000000)">
            <g id="T2D" transform="translate(337.000000, 1257.000000)">
                <polygon id="Fill-1" fill="#EE3C4F" points="0 171 174 171 174 0 0 0"></polygon>
                <g id="Group-36" transform="translate(15.818182, 143.925000)" fill="#FEFEFE">
                    <path d="M2.22999475,9.84791111 L3.66631276,9.84791111 L3.66631276,2.62052222 L3.41662932,2.62052222 C2.27390636,2.62052222 2.03954093,3.01266111 1.57029946,5.56235556 L0.208529069,5.56235556 L0.208529069,1.36810556 L9.89257003,1.36810556 L9.89257003,5.56235556 L8.53028904,5.56235556 C8.06104757,3.01266111 7.82668214,2.62052222 6.68395918,2.62052222 L6.43478635,2.62052222 L6.43478635,9.84791111 L7.87059375,9.84791111 L7.87059375,11.2966611 L2.22999475,11.2966611 L2.22999475,9.84791111 Z" id="Fill-2"></path>
                    <path d="M12.8389367,12.1724028 C12.8389367,12.3835139 12.7950251,12.594625 12.7066913,12.7761806 C13.322475,12.7307917 13.6885752,12.4589861 14.0990977,11.4936806 L11.1396596,5.53243056 L10.2461095,5.53243056 L10.2461095,4.15915278 L14.8604024,4.15915278 L14.8604024,5.53243056 L13.8647322,5.53243056 L15.4026596,8.94293056 L16.6628206,5.53243056 L15.8279895,5.53243056 L15.8279895,4.15915278 L18.8905687,4.15915278 L18.8905687,5.53243056 L18.0695238,5.53243056 L15.7248483,11.0851806 C15.095789,12.594625 14.3482705,13.967375 12.5019406,13.967375 C11.1095342,13.967375 10.4069485,13.2284861 10.4069485,12.2325694 C10.4069485,11.4324583 10.8909974,10.8439861 11.6380053,10.8439861 C12.458029,10.8439861 12.8389367,11.5237639 12.8389367,12.1724028" id="Fill-4"></path>
                    <path d="M24.7512874,7.69046111 C24.7512874,6.31665556 24.458203,5.57776667 23.6815803,5.57776667 C22.8319418,5.57776667 22.4219299,6.58898889 22.4219299,7.76593333 C22.4219299,8.98826667 22.8171344,9.9541 23.7545961,9.9541 C24.4730104,9.9541 24.7512874,9.15398889 24.7512874,7.69046111 L24.7512874,7.69046111 Z M19.1540894,12.3982389 L20.121166,12.3982389 L20.121166,5.53237778 L19.1540894,5.53237778 L19.1540894,4.15962778 L22.4219299,4.15962778 L22.4219299,5.86435 C22.8171344,4.77712778 23.4911264,3.99285 24.7221832,3.99285 C25.4548943,3.99285 26.0114484,4.27943333 26.4505645,4.73279444 C27.080645,5.38090556 27.3880262,6.39212778 27.3880262,7.59915556 C27.3880262,8.89748889 27.0510301,9.84801667 26.4357571,10.4818778 C25.9231146,11.0101833 25.3665605,11.2967667 24.63436,11.2967667 C23.6371581,11.2967667 22.9340618,10.8286278 22.5975763,10.1799889 L22.5975763,12.3982389 L23.7985077,12.3982389 L23.7985077,13.7715167 L19.1540894,13.7715167 L19.1540894,12.3982389 Z" id="Fill-6"></path>
                    <path d="M30.6570921,7.05702222 L32.9430486,7.05702222 C32.883819,5.54810556 32.5177188,5.11005 31.8289193,5.11005 C31.1554378,5.11005 30.7306185,5.57766111 30.6570921,7.05702222 L30.6570921,7.05702222 Z M30.6570921,8.09727222 C30.7454259,9.71174444 31.3458916,10.1344944 32.3711765,10.1344944 C33.177414,10.1344944 33.6604417,9.78774444 33.924422,8.92746667 L35.2422807,8.92746667 C35.0232333,10.4068278 34.0995578,11.4629111 31.9897583,11.4629111 C29.6164891,11.4629111 28.1224733,10.0289389 28.1224733,7.79591111 C28.1224733,5.60774444 29.7196304,3.99274444 31.8585341,3.99274444 C34.304819,3.99274444 35.4623494,5.60774444 35.330104,8.09727222 L30.6570921,8.09727222 Z" id="Fill-8"></path>
                    <path d="M38.5843625,6.78484722 C39.8006118,5.95465278 40.6359535,5.38095833 40.6359535,4.12854167 C40.6359535,3.16270833 40.1667121,2.62015278 39.3466884,2.62015278 C38.7753269,2.62015278 38.3060854,2.86134722 38.0722306,3.28356944 C38.5991699,3.465125 38.8927649,3.90265278 38.8927649,4.44626389 C38.8927649,5.10968056 38.4531382,5.683375 37.6177965,5.683375 C36.8120696,5.683375 36.2550049,5.04951389 36.2550049,4.14384722 C36.2550049,2.81595833 37.6177965,1.48806944 39.8593308,1.48806944 C42.2331106,1.48806944 43.594881,2.63493056 43.594881,4.26523611 C43.594881,6.15098611 41.9109219,6.75423611 40.4894113,7.28254167 C39.0832187,7.84145833 37.8516513,8.18820833 37.4712543,9.27543056 L37.5447807,9.33506944 C38.013001,8.94293056 38.5843625,8.67059722 39.4202148,8.67059722 C40.4746039,8.67059722 41.1480854,9.12395833 41.8956039,9.12395833 C42.4235644,9.12395833 42.5992108,8.80729167 42.789154,7.91640278 L43.7128296,7.991875 C43.6387926,10.6334028 42.9362069,11.5380139 41.7199575,11.5380139 C39.9180498,11.5380139 39.4641264,9.81745833 38.4965392,9.81745833 C38.3944192,9.81745833 38.3060854,9.83276389 38.2182622,9.84806944 C38.3357002,9.93884722 38.4965392,10.1953472 38.4965392,10.5420972 C38.4965392,11.0851806 38.1299284,11.5533194 37.4712543,11.5533194 C36.7089284,11.5533194 36.1523743,10.9046806 36.1523743,9.863375 C36.1523743,8.23359722 37.7056197,7.37331944 38.5843625,6.78484722" id="Fill-10"></path>
                    <path d="M49.2665244,9.8933 C51.2588859,9.8933 51.932878,9.00293889 51.932878,6.33238333 C51.932878,3.72199444 51.2001669,2.77041111 49.1935086,2.77041111 L48.5634281,2.77041111 L48.5634281,9.8933 L49.2665244,9.8933 Z M44.6072988,9.84791111 L45.7939333,9.84791111 L45.7939333,2.81632778 L44.6072988,2.81632778 L44.6072988,1.36810556 L49.0316484,1.36810556 C53.075601,1.36810556 54.9214202,3.32932778 54.9214202,6.31707778 C54.9214202,9.31960556 53.0459862,11.2966611 49.0903674,11.2966611 L44.6072988,11.2966611 L44.6072988,9.84791111 Z" id="Fill-12"></path>
                    <path d="M56.5635611,1.94106111 C56.5635611,1.14095 57.165048,0.507616667 58.0284727,0.507616667 C58.9082367,0.507616667 59.4938949,1.09556111 59.4938949,1.88036667 C59.4938949,2.67995 58.8929186,3.31433889 58.0284727,3.31433889 C57.14973,3.31433889 56.5635611,2.72586667 56.5635611,1.94106111 L56.5635611,1.94106111 Z M55.83085,9.92317222 L56.9010678,9.92317222 L56.9010678,5.53258889 L55.83085,5.53258889 L55.83085,4.15931111 L59.3769675,4.15931111 L59.3769675,9.92317222 L60.4461641,9.92317222 L60.4461641,11.2969778 L55.83085,11.2969778 L55.83085,9.92317222 Z" id="Fill-14"></path>
                    <path d="M65.282619,8.42950833 L65.282619,7.94711944 C65.1503736,7.97720278 64.9895346,7.99198056 64.6229237,8.066925 C63.744181,8.23370278 63.4802008,8.64061944 63.4802008,9.21378611 C63.4802008,9.63653611 63.7145662,10.0445083 64.3155425,10.0445083 C64.9604304,10.0445083 65.282619,9.39534167 65.282619,8.42950833 M60.9894936,9.54628611 C60.9894936,9.07814722 61.1799474,8.64061944 61.4730319,8.33925833 C61.8835543,7.91598056 62.5713326,7.56923056 64.4768921,7.31273056 C65.2535148,7.207175 65.282619,7.19239722 65.282619,7.05675833 L65.282619,6.46775833 C65.282619,5.56209167 64.8720966,5.21534167 64.0663696,5.21534167 C63.8177074,5.21534167 63.524623,5.26073056 63.2902575,5.36628611 C63.4950082,5.54784167 63.6124462,5.78903611 63.6124462,6.15109167 C63.6124462,6.70895278 63.1141005,7.116925 62.48402,7.116925 C61.6639963,7.116925 61.282578,6.58914722 61.282578,5.97006389 C61.282578,4.59625833 62.9818551,3.99300833 64.7403617,3.99300833 C67.0406151,3.99300833 67.7146072,5.13986944 67.7146072,6.61870278 L67.7146072,9.71200833 C67.7146072,10.0445083 67.86166,10.104675 68.0367958,10.104675 C68.1838486,10.104675 68.3446876,9.95425833 68.4621257,9.349425 L69.267342,9.56211944 C69.0181691,10.8747028 68.4621257,11.4626472 67.3331889,11.4626472 C66.4105346,11.4626472 65.7217351,10.9797306 65.560896,9.848175 L65.4873696,9.848175 C65.004342,11.0699806 64.2282299,11.4626472 63.1580121,11.4626472 C61.9422733,11.4626472 60.9894936,10.7385361 60.9894936,9.54628611" id="Fill-16"></path>
                    <path d="M74.6320127,7.76566944 C74.6320127,6.31691944 74.3389282,5.57750278 73.5332013,5.57750278 C72.6544586,5.57750278 72.2439361,6.58925278 72.2439361,7.84166944 C72.2439361,9.13894722 72.6396512,10.1047806 73.5480087,10.1047806 C74.3537356,10.1047806 74.6320127,9.30519722 74.6320127,7.76566944 L74.6320127,7.76566944 Z M69.9431722,2.228225 L68.9766063,2.228225 L68.9766063,0.854419444 L72.419072,0.854419444 L72.419072,5.56219722 C72.8152976,4.64175278 73.4744823,3.99311389 74.5738043,3.99311389 C75.335109,3.99311389 75.8916631,4.27969722 76.3318003,4.73305833 C76.9613702,5.38064167 77.2697727,6.46786389 77.2697727,7.72028056 C77.2697727,9.04869722 76.9021406,10.089475 76.2878887,10.7233361 C75.8339653,11.1909472 75.2181816,11.4627528 74.4563663,11.4627528 C73.1665905,11.4627528 72.419072,10.8748083 71.9656591,9.93853056 L71.2181406,11.4025861 L69.9431722,11.4025861 L69.9431722,2.228225 Z" id="Fill-18"></path>
                    <path d="M80.5378174,7.05702222 L82.8232633,7.05702222 C82.7640337,5.54810556 82.398444,5.11005 81.7096445,5.11005 C81.036163,5.11005 80.6108332,5.57766111 80.5378174,7.05702222 L80.5378174,7.05702222 Z M80.5378174,8.09727222 C80.6256406,9.71174444 81.2266169,10.1344944 82.2519018,10.1344944 C83.0576287,10.1344944 83.541167,9.78774444 83.8046366,8.92746667 L85.123006,8.92746667 C84.9039586,10.4068278 83.980283,11.4629111 81.8704835,11.4629111 C79.4972144,11.4629111 78.002688,10.0289389 78.002688,7.79591111 C78.002688,5.60774444 79.599845,3.99274444 81.7387487,3.99274444 C84.1855443,3.99274444 85.3430746,5.60774444 85.2108292,8.09727222 L80.5378174,8.09727222 Z" id="Fill-20"></path>
                    <path d="M89.3147262,2.30285278 L89.3147262,4.23399167 L91.5133701,4.23399167 L91.5133701,5.532325 L89.3147262,5.532325 L89.3147262,8.88265833 C89.3147262,9.51651944 89.5347949,9.89335278 89.9887183,9.89335278 C90.4431524,9.89335278 90.604502,9.54660278 90.8536748,8.50529722 L91.8202408,8.74649167 C91.5271563,10.6332972 90.8235494,11.4624361 89.2713252,11.4624361 C87.6302566,11.4624361 86.8388265,10.6179917 86.8388265,8.79188056 L86.8388265,5.532325 L85.6669993,5.532325 L85.6669993,4.23399167 L86.9118423,4.23399167 L86.9118423,2.60474167 L89.3147262,2.30285278 Z" id="Fill-22"></path>
                    <path d="M94.9123838,7.05702222 L97.1983403,7.05702222 C97.1391107,5.54810556 96.7730104,5.11005 96.0842109,5.11005 C95.4107294,5.11005 94.9859102,5.57766111 94.9123838,7.05702222 L94.9123838,7.05702222 Z M94.9123838,8.09727222 C95.0007176,9.71174444 95.6011833,10.1344944 96.6264682,10.1344944 C97.4321951,10.1344944 97.9157334,9.78774444 98.1797136,8.92746667 L99.4975724,8.92746667 C99.278525,10.4068278 98.3548494,11.4629111 96.2450499,11.4629111 C93.8717808,11.4629111 92.377765,10.0289389 92.377765,7.79591111 C92.377765,5.60774444 93.974922,3.99274444 96.1138257,3.99274444 C98.5601107,3.99274444 99.717641,5.60774444 99.5853956,8.09727222 L94.9123838,8.09727222 Z" id="Fill-24"></path>
                    <path d="M100.45219,8.83721667 L101.682736,8.83721667 C102.371536,9.72757778 103.221174,10.3155222 103.997287,10.3155222 C104.540054,10.3155222 104.788206,10.0896333 104.788206,9.71174444 C104.788206,9.1998 104.451721,9.00293889 103.059825,8.65618889 C101.404459,8.23343889 100.540014,7.69035556 100.540014,6.36246667 C100.540014,5.06466111 101.521897,3.99274444 103.118033,3.99274444 C104.08562,3.99274444 104.759102,4.35532778 105.228343,4.88310556 L105.491813,4.02282778 L106.751463,4.02282778 L106.751463,6.46802222 L105.521428,6.46802222 C104.950577,5.68321667 104.143318,5.11005 103.469837,5.11005 C102.884178,5.11005 102.693725,5.36655 102.693725,5.7133 C102.693725,6.18143889 103.045017,6.33238333 104.378705,6.67913333 C105.857913,7.07127222 106.98685,7.56949444 106.98685,9.06310556 C106.98685,10.3614389 106.048878,11.4629111 104.304668,11.4629111 C103.147648,11.4629111 102.415448,10.9646889 101.961014,10.4522167 L101.697033,11.4323 L100.45219,11.4323 L100.45219,8.83721667 Z" id="Fill-26"></path>
                    <path d="M107.836948,10.0742222 C107.836948,9.22925 108.466518,8.56530556 109.316156,8.56530556 C110.136691,8.56530556 110.766771,9.21394444 110.766771,10.0441389 C110.766771,10.8891111 110.136691,11.5535833 109.287052,11.5535833 C108.466518,11.5535833 107.836948,10.9044167 107.836948,10.0742222" id="Fill-28"></path>
                    <path d="M111.339358,7.85586667 C111.339358,5.53258889 112.907411,3.99306111 115.251065,3.99306111 C117.448688,3.99306111 118.401468,5.29139444 118.401468,6.42242222 C118.401468,7.20722778 117.962352,7.76561667 117.141307,7.76561667 C116.378981,7.76561667 115.954672,7.23678333 115.954672,6.61875556 C115.954672,6.10575556 116.262054,5.78908889 116.59905,5.65292222 C116.393788,5.39642222 116.07211,5.21539444 115.559468,5.21539444 C114.622006,5.21539444 113.962311,6.13531111 113.962311,7.70492222 C113.962311,9.0782 114.489761,10.0287278 115.54415,10.0287278 C116.320773,10.0287278 116.804311,9.56164444 117.052973,8.80745 L118.38666,8.80745 C118.093576,10.3153111 117.082588,11.4627 115.236258,11.4627 C112.789462,11.4627 111.339358,10.0440333 111.339358,7.85586667" id="Fill-30"></path>
                    <path d="M124.086897,7.72033333 C124.086897,5.8045 123.735094,5.10994444 122.884945,5.10994444 C122.050624,5.10994444 121.75754,5.83458333 121.75754,7.73563889 C121.75754,9.652 122.108833,10.3465556 122.958471,10.3465556 C123.794324,10.3465556 124.086897,9.62191667 124.086897,7.72033333 M119.061572,7.76572222 C119.061572,5.548 120.760849,3.99316667 122.929367,3.99316667 C125.157115,3.99316667 126.782866,5.472 126.782866,7.69025 C126.782866,9.9085 125.083078,11.4628056 122.91507,11.4628056 C120.687833,11.4628056 119.061572,9.98397222 119.061572,7.76572222" id="Fill-32"></path>
                    <path d="M137.596354,3.99290278 C139.178704,3.99290278 139.750065,5.12551389 139.750065,6.619125 L139.750065,9.92301389 L140.702845,9.92301389 L140.702845,11.2968194 L136.628767,11.2968194 L136.628767,9.92301389 L137.274166,9.92301389 L137.274166,6.83023611 C137.274166,6.37793056 137.185832,6.030125 136.981081,5.81901389 C136.848836,5.683375 136.672679,5.60790278 136.424527,5.60790278 C135.866952,5.60790278 135.369117,6.25654167 135.369117,7.11681944 L135.369117,9.92301389 L135.98439,9.92301389 L135.98439,11.2968194 L132.248329,11.2968194 L132.248329,9.92301389 L132.893217,9.92301389 L132.893217,6.83023611 C132.893217,6.37793056 132.804883,6.030125 132.600132,5.81901389 C132.468908,5.683375 132.292751,5.60790278 132.043578,5.60790278 C131.487024,5.60790278 130.989189,6.25654167 130.989189,7.11681944 L130.989189,9.92301389 L131.604462,9.92301389 L131.604462,11.2968194 L127.545192,11.2968194 L127.545192,9.92301389 L128.512779,9.92301389 L128.512779,5.53243056 L127.545192,5.53243056 L127.545192,4.15915278 L130.813032,4.15915278 L130.813032,6.06020833 C131.179132,4.92865278 131.897547,3.99290278 133.215406,3.99290278 C134.475567,3.99290278 135.076543,4.77718056 135.251679,5.90979167 C135.633097,4.83893056 136.336193,3.99290278 137.596354,3.99290278" id="Fill-34"></path>
                </g>
                <g id="Group-39" transform="translate(41.702479, 58.425000)">
                    <mask id="mask-2" fill="white">
                        <use xlink:href="#path-1"></use>
                    </mask>
                    <g id="Clip-38"></g>
                    <path d="M55.0633098,35.4917324 L32.4964922,35.4917324 L32.4964922,35.236838 L44.9670523,17.6792324 C46.9219712,14.916037 47.5800576,13.5096021 47.5800576,11.1698926 C47.5800576,8.36103697 45.7640851,6.6736162 43.1398827,6.6736162 C40.3746981,6.6736162 38.8473064,8.36103697 38.2737075,11.7760194 L31.8821764,10.3274366 C33.1718833,3.72376585 37.030316,0.490922535 43.135811,0.490922535 C50.1452206,0.490922535 54.722815,5.03386268 54.722815,11.3565475 C54.722815,15.1965211 53.2437746,17.9993556 50.8608196,21.1810194 L44.7553246,29.3235898 L55.0633098,29.3235898 L55.0633098,35.4917324 Z M70.9825891,35.4917324 L59.8052986,35.4917324 L59.8052986,1.11511268 L70.9825891,1.11511268 C82.9533496,1.11511268 90.1505658,7.41672359 90.1505658,18.2818468 C90.1505658,29.1444613 83.0475074,35.4917324 70.9825891,35.4917324 L70.9825891,35.4917324 Z M30.0590784,7.41321127 L18.7754151,7.41321127 L18.7754151,35.4917324 L11.4682634,35.4917324 L11.4682634,7.41321127 L0.185109082,7.41321127 L0.185109082,1.11511268 L30.0590784,1.11511268 L30.0590784,7.41321127 Z M70.7454133,7.66409155 L67.1175399,7.66409155 L67.1175399,29.0686954 L70.7454133,29.0686954 C78.6592464,29.0686954 82.7635072,25.1113099 82.7635072,18.3681496 C82.7635072,11.5753151 78.612931,7.66409155 70.7454133,7.66409155 L70.7454133,7.66409155 Z" id="Fill-37" fill="#FEFEFE" mask="url(#mask-2)"></path>
                </g>
                <g id="Group-42" transform="translate(28.760331, 42.750000)">
                    <mask id="mask-4" fill="white">
                        <use xlink:href="#path-3"></use>
                    </mask>
                    <g id="Clip-41"></g>
                    <path d="M13.2314828,2.57692659 C7.36641147,2.57692659 2.59474175,7.23990332 2.59474175,12.9719576 L2.59474175,53.4255538 C2.59474175,59.1571085 7.36641147,63.8195856 13.2314828,63.8195856 L47.1523838,63.8195856 L47.1523838,80.7879451 L65.5559412,63.8195856 L101.551658,63.8195856 C107.41673,63.8195856 112.188399,59.1571085 112.188399,53.4255538 L112.188399,12.9719576 C112.188399,7.23990332 107.41673,2.57692659 101.551658,2.57692659 L13.2314828,2.57692659 Z M44.6072218,86.5619632 L44.6072218,66.3174305 L13.2314828,66.3174305 C5.96300914,66.3174305 0.0495797557,60.5344201 0.0495797557,53.4255538 L0.0495797557,12.9719576 C0.0495797557,5.86259168 5.96300914,0.0790817672 13.2314828,0.0790817672 L101.551658,0.0790817672 C108.820132,0.0790817672 114.733561,5.86259168 114.733561,12.9719576 L114.733561,53.4255538 C114.733561,60.5344201 108.820132,66.3174305 101.551658,66.3174305 L66.5638253,66.3174305 L44.6072218,86.5619632 Z" id="Fill-40" fill="#FEFEFE" mask="url(#mask-4)"></path>
                </g>
            </g>
        </g>
    </g>
</svg>