<?xml version="1.0" encoding="UTF-8" standalone="no"?>
<!DOCTYPE svg PUBLIC "-//W3C//DTD SVG 1.1//EN" "http://www.w3.org/Graphics/SVG/1.1/DTD/svg11.dtd">
<svg width="100%" height="100%" viewBox="0 0 1133 1048" version="1.1" xmlns="http://www.w3.org/2000/svg" xmlns:xlink="http://www.w3.org/1999/xlink" xml:space="preserve" xmlns:serif="http://www.serif.com/" style="fill-rule:evenodd;clip-rule:evenodd;stroke-linecap:round;stroke-linejoin:round;stroke-miterlimit:1.5;">
    <g transform="matrix(1,0,0,1,-391.796,-232.624)">
        <path d="M1008.51,698.869C856.261,1142.22 370.25,1129.8 569.211,667.131C645.868,488.871 1309.84,580.512 1286.33,384.703C1258.1,149.595 683.906,320.293 417.457,398.132" style="fill:none;stroke:rgb(0,205,255);stroke-width:36px;"/>
    </g>
    <g transform="matrix(1,0,0,1,-407,-253)">
        <path d="M774.742,586.094C859.962,516.673 959.492,525.834 1055.16,513.787L1173.29,802.376C1095.29,851.64 1032.7,926.522 903.368,890.487C855.398,827.69 808.103,729.44 774.742,586.094Z" style="fill:rgb(132,132,132);"/>
    </g>
    <g transform="matrix(1,0,0,1,-410,-253)">
        <path d="M779.452,586.862L819.106,596.565L965.524,899.025L904.145,891.467C839.112,799.808 802.232,696.302 779.452,586.862Z" style="fill:rgb(69,69,69);"/>
    </g>
    <g transform="matrix(1.0999,-0.437717,0.389691,0.979218,-536.451,121.4)">
        <circle cx="787.815" cy="452.535" r="114.868" style="fill:white;"/>
    </g>
    <g transform="matrix(1,0,0,1,-407,-253)">
        <path d="M791.644,606.089L932.872,878.125L1195.64,829.343L1092.82,540.402C992.07,538.594 891.685,560.875 791.644,606.089Z" style="fill:rgb(235,235,235);"/>
    </g>
    <g transform="matrix(0.752789,0,0,0.806106,-188.564,-128.415)">
        <path d="M794.901,642.078L720.182,769.238L560.425,786.931" style="fill:none;stroke:rgb(235,235,235);stroke-width:110.27px;"/>
    </g>
    <g transform="matrix(0.725246,0.292344,-0.27046,0.670957,487.621,-364.503)">
        <path d="M794.901,642.078L720.182,769.238L560.425,786.931" style="fill:none;stroke:rgb(235,235,235);stroke-width:106.21px;"/>
    </g>
    <g transform="matrix(-0.6867,-0.726941,0.726941,-0.6867,783.201,1575.97)">
        <path d="M794.901,642.078L720.182,769.238L560.425,786.931" style="fill:none;stroke:rgb(235,235,235);stroke-width:120px;"/>
    </g>
    <g transform="matrix(0.215553,-0.976492,0.976492,0.215553,-220.1,1233.16)">
        <path d="M794.901,642.078L720.182,769.238L560.425,786.931" style="fill:none;stroke:rgb(235,235,235);stroke-width:120px;"/>
    </g>
    <g transform="matrix(0.867659,-0.289033,0.316043,0.948745,-453.235,4.92869)">
        <path d="M1020.9,473.835C1018.12,465.258 1011.59,458.108 1002.86,454.073C956.441,432.413 907.219,429.476 855.16,445.64C843.609,449.2 834.851,457.916 831.948,468.742C824.155,497.579 823.844,519.585 828.444,537.149C831.758,549.718 842.893,559.301 856.813,561.563C905.612,569.42 952.427,570.001 996.988,562.314C1011.12,559.834 1022.22,549.814 1025.11,536.928C1029.61,517.017 1028.09,495.965 1020.9,473.835Z" style="fill:rgb(69,69,69);"/>
    </g>
    <g transform="matrix(1.0539,0,0,1.05604,-460.845,-287.549)">
        <path d="M912.372,650.273L981.602,775.89L1094.85,726.539L1058.58,603.857L912.372,650.273Z" style="fill:rgb(69,69,69);"/>
    </g>
    <g transform="matrix(0.944717,0,0,0.946629,-343.196,-221.864)">
        <path d="M912.372,650.273L981.602,775.89L1094.85,726.539L1058.58,603.857L912.372,650.273Z" style="fill:rgb(132,132,132);"/>
    </g>
    <g transform="matrix(1,0,0,1,-407,-253)">
        <path d="M1155.28,745.865C1149.09,785.128 1060.41,827.514 945.377,870.898" style="fill:none;stroke:rgb(183,27,55);stroke-width:30px;"/>
    </g>
    <g transform="matrix(0.446067,1.02847,-0.977126,0.4238,906.448,-853.056)">
        <path d="M1414.01,836.415C1468.48,838.152 1473.18,850.884 1467.62,901.426C1463.16,941.866 1413.34,930.08 1358.54,934.252L1414.01,836.415Z" style="fill:rgb(69,69,69);"/>
    </g>
    <g transform="matrix(1,0,0,1,-408.374,-279.91)">
        <path d="M1022.97,1080.15L1142.72,1096.1L1126.28,1243.85L1007.91,1224.4L1022.97,1080.15Z" style="fill:rgb(69,69,69);"/>
    </g>
    <g transform="matrix(0.555137,-0.831759,0.831759,0.555137,-592.835,877.193)">
        <path d="M1022.97,1080.15L1142.72,1096.1L1126.28,1243.85L1005.09,1232.02L1022.97,1080.15Z" style="fill:rgb(69,69,69);"/>
    </g>
    <g transform="matrix(0.993199,-0.116428,0.124604,1.06295,-471.313,-236.753)">
        <path d="M673.438,725.636C673.438,725.636 618.624,725.636 578.222,725.636C567.016,725.636 556.269,729.796 548.345,737.2C540.421,744.604 535.969,754.646 535.969,765.116C535.969,765.658 535.969,766.2 535.969,766.741C535.969,777.212 540.421,787.254 548.345,794.658C556.269,802.062 567.016,806.221 578.222,806.221C618.624,806.221 673.438,806.221 673.438,806.221L673.438,725.636Z" style="fill:rgb(69,69,69);"/>
    </g>
    <g transform="matrix(-0.682028,0.731326,0.731326,0.682028,1716.84,-754.155)">
        <g transform="matrix(0.993199,-0.116428,0.124604,1.06295,572.177,-621.857)">
            <path d="M673.438,725.636C673.438,725.636 618.624,725.636 578.222,725.636C567.016,725.636 556.269,729.796 548.345,737.2C540.421,744.604 535.969,754.646 535.969,765.116C535.969,765.658 535.969,766.2 535.969,766.741C535.969,777.212 540.421,787.254 548.345,794.658C556.269,802.062 567.016,806.221 578.222,806.221C618.624,806.221 673.438,806.221 673.438,806.221L673.438,725.636Z" style="fill:rgb(69,69,69);"/>
        </g>
        <g transform="matrix(0.402623,0.273348,-0.292544,0.430898,1266.46,-417.838)">
            <path d="M673.438,725.636C673.438,725.636 619.404,725.636 579.089,725.636C555.275,725.636 535.969,743.675 535.969,765.927C535.969,765.928 535.969,765.93 535.969,765.931C535.969,788.183 555.275,806.221 579.089,806.221C619.404,806.221 673.438,806.221 673.438,806.221L673.438,725.636Z" style="fill:rgb(69,69,69);"/>
        </g>
    </g>
    <g transform="matrix(0.402623,0.273348,-0.292544,0.430898,222.973,-32.7335)">
        <path d="M673.438,725.636C673.438,725.636 619.404,725.636 579.089,725.636C555.275,725.636 535.969,743.675 535.969,765.927C535.969,765.928 535.969,765.93 535.969,765.931C535.969,788.183 555.275,806.221 579.089,806.221C619.404,806.221 673.438,806.221 673.438,806.221L673.438,725.636Z" style="fill:rgb(69,69,69);"/>
    </g>
    <g transform="matrix(-1.01355,0.145714,-0.182198,-1.26732,1805.16,1546.45)">
        <path d="M673.438,725.636C673.438,725.636 617.723,725.636 577.233,725.636C566.289,725.636 555.793,729.113 548.055,735.302C540.317,741.491 535.969,749.885 535.969,758.637C535.969,763.45 535.969,768.407 535.969,773.221C535.969,781.973 540.317,790.367 548.055,796.556C555.793,802.745 566.289,806.221 577.233,806.221C617.723,806.221 673.438,806.221 673.438,806.221L673.438,725.636Z" style="fill:rgb(69,69,69);"/>
    </g>
    <g transform="matrix(1,0,0,1,-354.499,-225.423)">
        <circle cx="860.92" cy="450.44" r="12.796" style="fill:white;"/>
    </g>
    <g transform="matrix(1.89622,0,0,1.89622,-1167.06,-646.186)">
        <circle cx="860.92" cy="450.44" r="12.796" style="fill:white;"/>
    </g>
    <g transform="matrix(1,0,0,1,-407,-253)">
        <path d="M1031.9,971.35C1078.97,930.082 1119.08,910.826 1148.38,925.753" style="fill:none;stroke:rgb(0,205,255);stroke-width:10px;"/>
    </g>
    <g transform="matrix(1,0,0,1,-407,-253)">
        <path d="M1259.68,716.727L1239.44,839.524" style="fill:none;stroke:rgb(0,205,255);stroke-width:10px;"/>
    </g>
    <g transform="matrix(1,0,0,1,-407,-253)">
        <path d="M739.327,702.551L790.381,776.823" style="fill:none;stroke:rgb(0,205,255);stroke-width:10px;"/>
    </g>
    <g transform="matrix(1,0,0,1,-407,-253)">
        <path d="M1200.88,572.54L1220.6,651.32" style="fill:none;stroke:rgb(0,205,255);stroke-width:10px;"/>
    </g>
</svg>
