<?xml version="1.0" encoding="UTF-8"?>
<svg width="42px" height="44px" viewBox="0 0 42 44" version="1.1" xmlns="http://www.w3.org/2000/svg" xmlns:xlink="http://www.w3.org/1999/xlink">
    <!-- Generator: Sketch 50.2 (55047) - http://www.bohemiancoding.com/sketch -->
    <title>logo</title>
    <desc>Created with Sketch.</desc>
    <defs></defs>
    <g id="Welcome" stroke="none" stroke-width="1" fill="none" fill-rule="evenodd">
        <g id="Desktop" transform="translate(-22.000000, -21.000000)" fill="#6D82D7">
            <path d="M43.1237877,58.564122 L43.1237877,57.4985258 L42.6870703,57.4985258 L42.6870703,58.564122 L34.6690196,58.564122 L32.4887936,63.4090687 C32.1859844,64.1358107 31.5198042,64.8625527 30.3085676,64.8625527 L23.6467659,64.8625527 C22.7383384,64.8625527 22.2538437,64.0752489 22.6172147,63.2879451 L41.5730687,22.5298309 C41.7547542,22.1664599 42.178687,21.8636508 42.6026198,21.8636508 L43.2082382,21.8636508 C43.632171,21.8636508 44.0561038,22.1664599 44.2377893,22.5298309 L63.1936433,63.2879451 C63.5570143,64.0752489 63.0725196,64.8625527 62.1640921,64.8625527 L55.4417286,64.8625527 C54.3516156,64.8625527 53.8671209,64.4991817 53.3220644,63.3485069 L51.1418384,58.564122 L43.1237877,58.564122 Z M43.8756769,50.3277126 L42.9001862,52.4337029 L41.9246956,50.3277126 L38.3027296,50.3277126 L42.8448672,40.3350101 L42.905429,40.3350101 L47.5081284,50.3277126 L43.8756769,50.3277126 Z M42.6870703,53.1313527 L43.1237877,53.1313527 L43.1237877,54.223146 L42.6870703,54.223146 L42.6870703,53.1313527 Z M42.6870703,55.3149393 L43.1237877,55.3149393 L43.1237877,56.4067325 L42.6870703,56.4067325 L42.6870703,55.3149393 Z" id="logo"></path>
        </g>
    </g>
</svg>