<?xml version="1.0" encoding="UTF-8"?>
<svg width="295px" height="70px" viewBox="0 0 295 70" version="1.1" xmlns="http://www.w3.org/2000/svg" xmlns:xlink="http://www.w3.org/1999/xlink">
    <!-- Generator: Sketch 50.2 (55047) - http://www.bohemiancoding.com/sketch -->
    <title>logo-main</title>
    <desc>Created with Sketch.</desc>
    <defs>
        <linearGradient x1="53.4882247%" y1="-14.6359131%" x2="53.4882247%" y2="100%" id="linearGradient-1">
            <stop stop-color="#BB46FE" offset="0%"></stop>
            <stop stop-color="#59A6E1" offset="100%"></stop>
        </linearGradient>
    </defs>
    <g id="Welcome" stroke="none" stroke-width="1" fill="none" fill-rule="evenodd">
        <g id="Desktop" transform="translate(-351.000000, -195.000000)" fill="url(#linearGradient-1)">
            <path d="M353.5664,263.659356 C352.133117,263.659356 351.3687,262.417178 351.942013,261.175 L381.849841,196.868392 C382.136497,196.295079 382.805362,195.817319 383.474228,195.817319 L384.429749,195.817319 C385.098614,195.817319 385.76748,196.295079 386.054136,196.868392 L415.961964,261.175 C416.535277,262.417178 415.77086,263.659356 414.337577,263.659356 L403.731287,263.659356 C402.011348,263.659356 401.24693,263.086043 400.386961,261.270552 L396.947083,253.721931 L370.956894,253.721931 L367.517016,261.366104 C367.039255,262.51273 365.988181,263.659356 364.077138,263.659356 L353.5664,263.659356 Z M376.690024,240.726836 L391.213953,240.726836 L383.951988,224.960729 L383.856436,224.960729 L376.690024,240.726836 Z M443.226182,263.563804 L413.413906,199.257196 C412.840593,198.015018 413.605011,196.77284 415.038293,196.77284 L427.746731,196.77284 C428.511148,196.77284 429.180014,197.346153 429.371118,197.823914 L445.137225,232.700454 L445.710538,232.700454 L461.476646,197.823914 C461.66775,197.346153 462.336615,196.77284 463.101032,196.77284 L475.80947,196.77284 C477.242753,196.77284 478.00717,198.015018 477.433857,199.257196 L447.430477,263.563804 C447.143821,264.137117 446.570508,264.614878 445.80609,264.614878 L444.850569,264.614878 C444.086151,264.614878 443.512838,264.137117 443.226182,263.563804 Z M546.963983,257.257361 C546.008461,256.301839 545.721805,255.919631 546.486222,254.5819 L550.977174,246.651071 C551.741591,245.408893 553.557082,245.599997 554.225948,246.077758 C554.608156,246.268862 561.487912,251.333127 567.794355,251.333127 C571.616442,251.333127 574.387455,248.944323 574.387455,245.599997 C574.387455,241.586806 571.043129,238.529137 564.545581,235.949228 C556.328095,232.700454 546.008461,226.298459 546.008461,214.832199 C546.008461,205.372535 553.365978,195.817319 568.081012,195.817319 C578.018437,195.817319 585.66261,200.881583 588.529175,202.983731 C589.675801,203.652596 589.484697,205.372535 589.102488,206.0414 L584.229328,213.398917 C583.560462,214.449991 581.840523,215.30996 580.980554,214.641095 C580.120585,214.163334 573.145276,208.907965 567.316594,208.907965 C563.876716,208.907965 561.296808,211.201217 561.296808,213.781126 C561.296808,217.316556 564.163373,219.992016 571.711994,223.049686 C579.165063,226.011803 591.013531,231.840485 591.013531,244.83558 C591.013531,254.677453 582.509389,264.614878 568.46322,264.614878 C556.041439,264.614878 549.161683,259.455061 546.963983,257.257361 Z M506.411753,253.620358 L506.411753,251.955787 L505.729555,251.955787 L505.729555,253.620358 L493.204529,253.620358 L489.79879,261.188667 C489.325771,262.323913 488.285128,263.45916 486.393051,263.45916 L475.986627,263.45916 C474.567569,263.45916 473.810738,262.229309 474.378361,260.999459 L503.989369,197.331063 C504.27318,196.76344 504.935407,196.29042 505.597634,196.29042 L506.543673,196.29042 C507.2059,196.29042 507.868127,196.76344 508.151939,197.331063 L537.762946,260.999459 C538.330569,262.229309 537.573738,263.45916 536.154681,263.45916 L525.653652,263.45916 C523.950783,263.45916 523.193952,262.891536 522.342517,261.094063 L518.936778,253.620358 L506.411753,253.620358 Z M614.837871,261.843865 L614.837871,210.819009 L601.173912,210.819009 C600.122838,210.819009 599.35842,209.959039 599.35842,209.003517 L599.35842,198.588331 C599.35842,197.63281 600.122838,196.77284 601.173912,196.77284 L643.599073,196.77284 C644.650147,196.77284 645.414564,197.63281 645.414564,198.588331 L645.414564,209.003517 C645.414564,209.959039 644.650147,210.819009 643.599073,210.819009 L629.935113,210.819009 L629.935113,261.843865 C629.935113,262.799387 629.075144,263.659356 628.119622,263.659356 L616.653362,263.659356 C615.697841,263.659356 614.837871,262.799387 614.837871,261.843865 Z M507.586281,240.754234 L506.062464,244.044009 L504.538647,240.754234 L498.880761,240.754234 L505.97605,225.144597 L506.070654,225.144597 L513.260547,240.754234 L507.586281,240.754234 Z M505.729555,245.13381 L506.411753,245.13381 L506.411753,246.839304 L505.729555,246.839304 L505.729555,245.13381 Z M505.729555,248.544798 L506.411753,248.544798 L506.411753,250.250292 L505.729555,250.250292 L505.729555,248.544798 Z" id="logo-main"></path>
        </g>
    </g>
</svg>