<?xml version="1.0" encoding="UTF-8"?>
<svg width="981px" height="547px" viewBox="0 0 981 547" version="1.1" xmlns="http://www.w3.org/2000/svg" xmlns:xlink="http://www.w3.org/1999/xlink">
    <!-- Generator: Sketch 50.2 (55047) - http://www.bohemiancoding.com/sketch -->
    <title>stars</title>
    <desc>Created with Sketch.</desc>
    <defs></defs>
    <g id="Welcome" stroke="none" stroke-width="1" fill="none" fill-rule="evenodd" opacity="0.370703125">
        <g id="Desktop" transform="translate(0.000000, -52.000000)" fill="#FFFFFF">
            <g id="stars" transform="translate(0.000000, 51.408831)">
                <g id="Group-2" transform="translate(710.000000, 45.000000)">
                    <ellipse id="Oval" cx="77" cy="129.5" rx="5" ry="4.5"></ellipse>
                    <ellipse id="Oval-Copy" cx="202.709575" cy="28.3587439" rx="2.5" ry="2.25"></ellipse>
                    <ellipse id="Oval-Copy-2" cx="255.5" cy="78.8173185" rx="2.5" ry="2.25"></ellipse>
                    <ellipse id="Oval-Copy-3" cx="261.611111" cy="16.2017871" rx="3.61111111" ry="3.25"></ellipse>
                    <ellipse id="Oval-Copy-4" cx="201.598464" cy="162.940754" rx="1.38888889" ry="1.25"></ellipse>
                    <ellipse id="Oval-Copy-5" cx="209.098464" cy="93.6524953" rx="5.27777778" ry="4.75"></ellipse>
                    <ellipse id="Oval-Copy-6" cx="111.980545" cy="23.2017871" rx="4.16666667" ry="3.75"></ellipse>
                    <ellipse id="Oval-Copy-7" cx="137.0361" cy="83.6524953" rx="2.5" ry="2.25"></ellipse>
                    <ellipse id="Oval-Copy-8" cx="2.61111111" cy="2.5078637" rx="1.94444444" ry="1.75"></ellipse>
                </g>
                <g id="Group-2-Copy-8" transform="translate(228.000000, 383.222053)">
                    <ellipse id="Oval" cx="77" cy="129.5" rx="5" ry="4.5"></ellipse>
                    <ellipse id="Oval-Copy" cx="202.709575" cy="28.3587439" rx="2.5" ry="2.25"></ellipse>
                    <ellipse id="Oval-Copy-2" cx="255.5" cy="78.8173185" rx="2.5" ry="2.25"></ellipse>
                    <ellipse id="Oval-Copy-3" cx="261.611111" cy="16.2017871" rx="3.61111111" ry="3.25"></ellipse>
                    <ellipse id="Oval-Copy-4" cx="201.598464" cy="162.940754" rx="1.38888889" ry="1.25"></ellipse>
                    <ellipse id="Oval-Copy-5" cx="209.098464" cy="93.6524953" rx="5.27777778" ry="4.75"></ellipse>
                    <ellipse id="Oval-Copy-6" cx="111.980545" cy="23.2017871" rx="4.16666667" ry="3.75"></ellipse>
                    <ellipse id="Oval-Copy-7" cx="137.0361" cy="83.6524953" rx="2.5" ry="2.25"></ellipse>
                    <ellipse id="Oval-Copy-8" cx="2.61111111" cy="2.5078637" rx="1.94444444" ry="1.75"></ellipse>
                </g>
                <g id="Group-2-Copy" transform="translate(510.000000, 0.624106)">
                    <ellipse id="Oval" cx="77" cy="129.5" rx="5" ry="4.5"></ellipse>
                    <ellipse id="Oval-Copy" cx="202.709575" cy="28.3587439" rx="2.5" ry="2.25"></ellipse>
                    <ellipse id="Oval-Copy-2" cx="255.5" cy="78.8173185" rx="2.5" ry="2.25"></ellipse>
                    <ellipse id="Oval-Copy-3" cx="261.611111" cy="16.2017871" rx="3.61111111" ry="3.25"></ellipse>
                    <ellipse id="Oval-Copy-4" cx="201.598464" cy="162.940754" rx="1.38888889" ry="1.25"></ellipse>
                    <ellipse id="Oval-Copy-5" cx="209.098464" cy="93.6524953" rx="5.27777778" ry="4.75"></ellipse>
                    <ellipse id="Oval-Copy-6" cx="111.980545" cy="23.2017871" rx="4.16666667" ry="3.75"></ellipse>
                    <ellipse id="Oval-Copy-7" cx="137.0361" cy="83.6524953" rx="2.5" ry="2.25"></ellipse>
                    <ellipse id="Oval-Copy-8" cx="2.61111111" cy="2.5078637" rx="1.94444444" ry="1.75"></ellipse>
                </g>
                <g id="Group-2-Copy-2" transform="translate(848.666667, 316.248167) scale(1, -1) translate(-848.666667, -316.248167) translate(715.666667, 233.748167)">
                    <ellipse id="Oval" cx="77" cy="129.5" rx="5" ry="4.5"></ellipse>
                    <ellipse id="Oval-Copy" cx="202.709575" cy="28.3587439" rx="2.5" ry="2.25"></ellipse>
                    <ellipse id="Oval-Copy-2" cx="255.5" cy="78.8173185" rx="2.5" ry="2.25"></ellipse>
                    <ellipse id="Oval-Copy-3" cx="261.611111" cy="16.2017871" rx="3.61111111" ry="3.25"></ellipse>
                    <ellipse id="Oval-Copy-4" cx="201.598464" cy="162.940754" rx="1.38888889" ry="1.25"></ellipse>
                    <ellipse id="Oval-Copy-5" cx="209.098464" cy="93.6524953" rx="5.27777778" ry="4.75"></ellipse>
                    <ellipse id="Oval-Copy-6" cx="111.980545" cy="23.2017871" rx="4.16666667" ry="3.75"></ellipse>
                    <ellipse id="Oval-Copy-7" cx="137.0361" cy="83.6524953" rx="2.5" ry="2.25"></ellipse>
                    <ellipse id="Oval-Copy-8" cx="2.61111111" cy="2.5078637" rx="1.94444444" ry="1.75"></ellipse>
                </g>
                <g id="Group-2-Copy-6" transform="translate(133.232979, 207.361929) scale(1, -1) translate(-133.232979, -207.361929) translate(0.232979, 124.861929)">
                    <ellipse id="Oval" cx="77" cy="129.5" rx="5" ry="4.5"></ellipse>
                    <ellipse id="Oval-Copy" cx="202.709575" cy="28.3587439" rx="2.5" ry="2.25"></ellipse>
                    <ellipse id="Oval-Copy-2" cx="255.5" cy="78.8173185" rx="2.5" ry="2.25"></ellipse>
                    <ellipse id="Oval-Copy-3" cx="261.611111" cy="16.2017871" rx="3.61111111" ry="3.25"></ellipse>
                    <ellipse id="Oval-Copy-4" cx="201.598464" cy="162.940754" rx="1.38888889" ry="1.25"></ellipse>
                    <ellipse id="Oval-Copy-5" cx="209.098464" cy="93.6524953" rx="5.27777778" ry="4.75"></ellipse>
                    <ellipse id="Oval-Copy-6" cx="111.980545" cy="23.2017871" rx="4.16666667" ry="3.75"></ellipse>
                    <ellipse id="Oval-Copy-7" cx="137.0361" cy="83.6524953" rx="2.5" ry="2.25"></ellipse>
                    <ellipse id="Oval-Copy-8" cx="2.61111111" cy="2.5078637" rx="1.94444444" ry="1.75"></ellipse>
                </g>
                <g id="Group-2-Copy-3" transform="translate(199.082561, 37.000000)">
                    <ellipse id="Oval" cx="77" cy="129.5" rx="5" ry="4.5"></ellipse>
                    <ellipse id="Oval-Copy" cx="202.709575" cy="28.3587439" rx="2.5" ry="2.25"></ellipse>
                    <ellipse id="Oval-Copy-2" cx="255.5" cy="78.8173185" rx="2.5" ry="2.25"></ellipse>
                    <ellipse id="Oval-Copy-3" cx="261.611111" cy="16.2017871" rx="3.61111111" ry="3.25"></ellipse>
                    <ellipse id="Oval-Copy-4" cx="201.598464" cy="162.940754" rx="1.38888889" ry="1.25"></ellipse>
                    <ellipse id="Oval-Copy-5" cx="209.098464" cy="93.6524953" rx="5.27777778" ry="4.75"></ellipse>
                    <ellipse id="Oval-Copy-6" cx="111.980545" cy="23.2017871" rx="4.16666667" ry="3.75"></ellipse>
                    <ellipse id="Oval-Copy-7" cx="137.0361" cy="83.6524953" rx="2.5" ry="2.25"></ellipse>
                    <ellipse id="Oval-Copy-8" cx="2.61111111" cy="2.5078637" rx="1.94444444" ry="1.75"></ellipse>
                </g>
                <g id="Group-2-Copy-4" transform="translate(192.822555, 232.000000)">
                    <ellipse id="Oval" cx="77" cy="129.5" rx="5" ry="4.5"></ellipse>
                    <ellipse id="Oval-Copy" cx="202.709575" cy="28.3587439" rx="2.5" ry="2.25"></ellipse>
                    <ellipse id="Oval-Copy-2" cx="255.5" cy="78.8173185" rx="2.5" ry="2.25"></ellipse>
                    <ellipse id="Oval-Copy-3" cx="261.611111" cy="16.2017871" rx="3.61111111" ry="3.25"></ellipse>
                    <ellipse id="Oval-Copy-4" cx="201.598464" cy="162.940754" rx="1.38888889" ry="1.25"></ellipse>
                    <ellipse id="Oval-Copy-5" cx="209.098464" cy="93.6524953" rx="5.27777778" ry="4.75"></ellipse>
                    <ellipse id="Oval-Copy-6" cx="111.980545" cy="23.2017871" rx="4.16666667" ry="3.75"></ellipse>
                    <ellipse id="Oval-Copy-7" cx="137.0361" cy="83.6524953" rx="2.5" ry="2.25"></ellipse>
                    <ellipse id="Oval-Copy-8" cx="2.61111111" cy="2.5078637" rx="1.94444444" ry="1.75"></ellipse>
                </g>
                <g id="Group-2-Copy-5" transform="translate(710.000000, 435.500000) scale(-1, 1) translate(-710.000000, -435.500000) translate(577.000000, 353.000000)">
                    <ellipse id="Oval" cx="77" cy="129.5" rx="5" ry="4.5"></ellipse>
                    <ellipse id="Oval-Copy" cx="202.709575" cy="28.3587439" rx="2.5" ry="2.25"></ellipse>
                    <ellipse id="Oval-Copy-2" cx="255.5" cy="78.8173185" rx="2.5" ry="2.25"></ellipse>
                    <ellipse id="Oval-Copy-3" cx="261.611111" cy="16.2017871" rx="3.61111111" ry="3.25"></ellipse>
                    <ellipse id="Oval-Copy-4" cx="201.598464" cy="162.940754" rx="1.38888889" ry="1.25"></ellipse>
                    <ellipse id="Oval-Copy-5" cx="209.098464" cy="93.6524953" rx="5.27777778" ry="4.75"></ellipse>
                    <ellipse id="Oval-Copy-6" cx="111.980545" cy="23.2017871" rx="4.16666667" ry="3.75"></ellipse>
                    <ellipse id="Oval-Copy-7" cx="137.0361" cy="83.6524953" rx="2.5" ry="2.25"></ellipse>
                    <ellipse id="Oval-Copy-8" cx="2.61111111" cy="2.5078637" rx="1.94444444" ry="1.75"></ellipse>
                </g>
                <g id="Group-2-Copy-7" transform="translate(199.000000, 403.861929) scale(-1, 1) translate(-199.000000, -403.861929) translate(66.000000, 321.361929)">
                    <ellipse id="Oval" cx="77" cy="129.5" rx="5" ry="4.5"></ellipse>
                    <ellipse id="Oval-Copy" cx="202.709575" cy="28.3587439" rx="2.5" ry="2.25"></ellipse>
                    <ellipse id="Oval-Copy-2" cx="255.5" cy="78.8173185" rx="2.5" ry="2.25"></ellipse>
                    <ellipse id="Oval-Copy-3" cx="261.611111" cy="16.2017871" rx="3.61111111" ry="3.25"></ellipse>
                    <ellipse id="Oval-Copy-4" cx="201.598464" cy="162.940754" rx="1.38888889" ry="1.25"></ellipse>
                    <ellipse id="Oval-Copy-5" cx="209.098464" cy="93.6524953" rx="5.27777778" ry="4.75"></ellipse>
                    <ellipse id="Oval-Copy-6" cx="111.980545" cy="23.2017871" rx="4.16666667" ry="3.75"></ellipse>
                    <ellipse id="Oval-Copy-7" cx="137.0361" cy="83.6524953" rx="2.5" ry="2.25"></ellipse>
                    <ellipse id="Oval-Copy-8" cx="2.61111111" cy="2.5078637" rx="1.94444444" ry="1.75"></ellipse>
                </g>
            </g>
        </g>
    </g>
</svg>