<?xml version="1.0" encoding="UTF-8"?>
<svg width="81px" height="81px" viewBox="0 0 81 81" version="1.1" xmlns="http://www.w3.org/2000/svg" xmlns:xlink="http://www.w3.org/1999/xlink">
    <!-- Generator: Sketch 49.2 (51160) - http://www.bohemiancoding.com/sketch -->
    <title>site-logo-11</title>
    <desc>Created with Sketch.</desc>
    <defs></defs>
    <g id="Page-1" stroke="none" stroke-width="1" fill="none" fill-rule="evenodd">
        <g id="site-logo-11" transform="translate(0.621601, 0.363990)">
            <rect id="Rectangle-1" fill="#FF6E43" x="0" y="0" width="80" height="80"></rect>
            <path d="M16.9842497,19.0681472 C14.9710065,19.0681472 12.961547,19.8430121 11.471547,21.1940932 C9.94289835,22.5794986 9.10127673,24.4124716 9.10127673,26.3551743 L9.10127673,53.114904 C9.10127673,55.0651743 9.97316862,57.0373364 11.4928984,58.5243635 C13.0093848,60.0081472 15.0107362,60.858958 16.9842497,60.858958 L33.5128165,60.858958 L33.5128165,72.5943635 L45.9190327,60.858958 L64.1738156,60.858958 C66.0957075,60.858958 67.8611129,60.0462553 69.1440859,58.5705797 C70.4057075,57.1181472 71.1008427,55.1808499 71.1008427,53.114904 L71.1008427,26.3551743 C71.1008427,22.1327418 68.1873291,19.0681472 64.1738156,19.0681472 L16.9842497,19.0681472 Z M31.953357,76.2154445 L31.953357,62.4184175 L16.9842497,62.4184175 C14.6066821,62.4184175 12.2077632,61.4054445 10.4023578,59.638958 C8.58451997,57.8603094 7.54208754,55.4824716 7.54208754,53.114904 L7.54208754,26.3551743 C7.54208754,23.9673364 8.56560106,21.7240932 10.4239794,20.038958 C12.1972227,18.4311202 14.588574,17.5084175 16.9842497,17.5084175 L64.1738156,17.5084175 C66.56814,17.5084175 68.7440859,18.4230121 70.3011129,20.0830121 C71.822194,21.7054445 72.6600319,23.9324716 72.6600319,26.3551743 L72.6600319,53.114904 C72.6600319,55.5567959 71.8294913,57.8576067 70.3208427,59.5930121 C68.7373291,61.4154445 66.5543562,62.4184175 64.1738156,62.4184175 L46.5398435,62.4184175 L31.953357,76.2154445 Z" id="Fill-115" fill="#FFFFFF" opacity="0.4"></path>
            <g id="Group-2" transform="translate(15.892256, 28.282828)" fill="#FFFFFF" opacity="0.8">
                <path d="M9.19388499,0.13717206 L0,0.13717206 L0,23.1218845 L4.7845728,23.1218845 L4.7845728,15.3352268 L9.19388499,15.3352268 C13.6031972,15.3352268 17.2619881,12.6145874 17.2619881,7.73619945 C17.2619881,2.8578115 13.5719255,0.13717206 9.19388499,0.13717206 L9.19388499,0.13717206 Z M8.72480923,4.26503879 C10.9451012,4.26503879 12.4461436,5.48463578 12.4461436,7.73619945 C12.4461436,10.0503066 10.9451012,11.2073601 8.72480923,11.2073601 L4.7845728,11.2073601 L4.7845728,4.26503879 L8.72480923,4.26503879 Z" id="P"></path>
                <path d="M23.9341022,6.66129936 C20.2784384,6.66129936 17.9799672,8.8941 17.9799672,11.8273871 C17.9799672,14.1477486 19.1620381,16.0521962 23.4962982,16.9715847 C25.6634282,17.3656083 26.1231224,17.759632 26.1231224,18.3287772 C26.1231224,19.1168245 25.4883066,19.5327383 24.0654434,19.5327383 C22.4893488,19.5327383 20.6943523,18.7884715 19.6655127,17.6501809 L17.4327121,21.1088329 C19.0744773,22.5535863 21.4167289,23.3197434 23.9341022,23.3197434 C27.918119,23.3197434 30.2822609,21.1745035 30.2822609,17.9347536 C30.2822609,15.4830509 29.0782998,13.8193955 24.7221495,12.9218972 C22.5550195,12.5497638 22.1609958,12.1557401 22.1609958,11.6084851 C22.1609958,10.842328 22.7301411,10.4483044 23.912212,10.4483044 C25.6196478,10.4483044 26.7798285,11.0393398 27.699217,11.7836067 L29.8444568,8.34684494 C28.4872643,7.29611523 26.3201343,6.66129936 23.9341022,6.66129936 L23.9341022,6.66129936 Z" id="S"></path>
                <path d="M39.8984926,6.73400673 C44.6702116,6.73400673 48.2818337,10.2580744 48.2818337,15.0954592 C48.2818337,19.8890668 44.6702116,23.3912458 39.8984926,23.3912458 C35.104885,23.3912458 31.5151515,19.8890668 31.5151515,15.0954592 C31.5151515,10.2580744 35.104885,6.73400673 39.8984926,6.73400673 Z M39.8984926,10.5207378 C37.4469673,10.5207378 35.739655,12.4031591 35.739655,15.0954592 C35.739655,17.7439821 37.4469673,19.6045147 39.8984926,19.6045147 C42.3500179,19.6045147 44.0573302,17.7439821 44.0573302,15.0954592 C44.0573302,12.4031591 42.3500179,10.5207378 39.8984926,10.5207378 Z" id="O"></path>
            </g>
        </g>
    </g>
</svg>