<?xml version="1.0" encoding="UTF-8"?>
<svg width="81px" height="81px" viewBox="0 0 81 81" version="1.1" xmlns="http://www.w3.org/2000/svg" xmlns:xlink="http://www.w3.org/1999/xlink">
    <!-- Generator: Sketch 49.2 (51160) - http://www.bohemiancoding.com/sketch -->
    <title>site-logo-13</title>
    <desc>Created with Sketch.</desc>
    <defs></defs>
    <g id="Page-1" stroke="none" stroke-width="1" fill="none" fill-rule="evenodd">
        <g id="site-logo-13" transform="translate(0.621601, 0.237842)">
            <rect id="Rectangle-path" fill="#1E7EBE" x="0" y="0" width="80" height="80"></rect>
            <path d="M30.2922559,79.1226936 L30.2922559,63.9625589 L24.5462626,63.9625589 C21.9350842,63.9625589 19.4036364,62.8754209 17.4136027,60.8638384 C15.430303,58.8587205 14.4,56.2750168 14.4,53.6584512 L14.4,23.9221549 C14.4,21.2969697 15.4136027,18.889697 17.4488889,17.0742088 C19.3815488,15.350303 21.9000673,14.4 24.5462626,14.4 L55.1811448,14.4 C60.5828956,14.4 64.7703704,18.3601347 64.7703704,23.9221549 L64.7703704,53.6584512 C64.7703704,56.3614815 63.7279461,58.8611448 62.077037,60.8180471 C60.3302357,62.8888889 57.7952862,63.9625589 55.1811448,63.9625589 L46.2936027,63.9625589 L30.2922559,79.1226936 L30.2922559,79.1226936 Z M24.5462626,16.0161616 C22.2779798,16.0161616 20.1659259,16.7943434 18.5155556,18.2663973 C16.8161616,19.7820875 16.0161616,21.7478788 16.0161616,23.9221549 L16.0161616,53.6584512 C16.0161616,58.3046465 19.940202,62.6157576 24.5462626,62.6157576 L31.9084175,62.6157576 L31.9084175,75.5105724 L45.6751515,62.6157576 L55.1814141,62.6157576 C57.3276768,62.6157576 59.4114478,61.6323232 60.8565657,59.9186532 C62.249697,58.2672054 63.1542088,55.9598653 63.1542088,53.6584512 L63.1542088,23.9221549 C63.1542088,21.6611448 62.2820202,19.68 60.8891582,18.2232997 C59.4672054,16.7361616 57.4241077,16.016431 55.1814141,16.016431 L24.5462626,16.016431 L24.5462626,16.0161616 Z" id="Shape" fill="#FFFFFF" opacity="0.4"></path>
            <g id="Group" opacity="0.85" transform="translate(26.936027, 25.589226)" fill="#FFFFFF" fill-opacity="0.8">
                <polygon id="Shape" points="25.9205387 26.082963 20.5333333 26.082963 20.5333333 15.2627609 13.0879461 26.3523232 12.8102357 26.3523232 5.44915825 15.2627609 5.44915825 26.082963 0.061952862 26.082963 0.061952862 0.224377104 0.198518519 0.224377104 12.9489562 18.2208754 25.6649158 0.224377104 25.9205387 0.224377104 25.9205387 26.082963"></polygon>
            </g>
        </g>
    </g>
</svg>