<?xml version="1.0" encoding="UTF-8"?>
<svg width="81px" height="81px" viewBox="0 0 81 81" version="1.1" xmlns="http://www.w3.org/2000/svg" xmlns:xlink="http://www.w3.org/1999/xlink">
    <!-- Generator: Sketch 49.2 (51160) - http://www.bohemiancoding.com/sketch -->
    <title>site-logo-14</title>
    <desc>Created with Sketch.</desc>
    <defs>
        <linearGradient x1="50%" y1="0%" x2="50%" y2="123.768185%" id="linearGradient-1">
            <stop stop-color="#80D2E5" offset="0%"></stop>
            <stop stop-color="#7DB6FF" offset="100%"></stop>
        </linearGradient>
    </defs>
    <g id="Page-1" stroke="none" stroke-width="1" fill="none" fill-rule="evenodd">
        <g id="site-logo-14" transform="translate(0.621601, 0.363990)">
            <g id="bug">
                <g id="Group">
                    <rect id="Rectangle-path" fill="url(#linearGradient-1)" x="0" y="0" width="80" height="80"></rect>
                    <path d="M31.4591246,62.7776431 L21.5824916,62.7776431 C19.2002694,62.7776431 16.796229,61.7624242 14.9874747,59.9929966 C13.1657912,58.2106397 12.1212121,55.8278788 12.1212121,53.4550842 L12.1212121,26.6421549 C12.1212121,24.2491582 13.146936,22.0018855 15.0087542,20.3135354 C16.7857239,18.7022222 19.1816835,17.7777778 21.5822222,17.7777778 L58.6211448,17.7777778 C61.0200673,17.7777778 63.2005387,18.6938721 64.7606734,20.3577104 C66.2849832,21.9830303 67.1245791,24.2146801 67.1245791,26.6421549 L67.1245791,53.4550842 C67.1245791,55.9024916 66.2917172,58.2079461 64.7803367,59.9474747 C63.1935354,61.7723906 61.00633,62.7779125 58.6211448,62.7779125 L46.0743434,62.7779125 L31.4591246,76.6028283 L31.4591246,62.7776431 Z M16.0584512,21.4707071 C14.527138,22.8589899 13.683771,24.6957576 13.683771,26.6418855 L13.683771,53.4548148 C13.683771,55.410101 14.557037,57.3858586 16.08,58.8756902 C17.5997306,60.3625589 19.6051178,61.2153535 21.5824916,61.2153535 L33.0214141,61.2153535 L33.0214141,72.9740067 L45.4526599,61.2153535 L58.6214141,61.2153535 C60.5473401,61.2153535 62.316229,60.4008081 63.6013468,58.9217508 C64.8657239,57.466936 65.5620202,55.5259259 65.5620202,53.4548148 L65.5620202,26.6418855 C65.5620202,22.4110438 62.642963,19.3403367 58.6211448,19.3403367 L21.5824916,19.3403367 C19.5649832,19.3403367 17.5517845,20.1169024 16.0584512,21.4707071 Z" id="Shape" fill="#000000" opacity="0.2"></path>
                    <path d="M26.7463067,27.3547565 L21.8181818,27.3547565 L21.8181818,51.0290819 L36.8280262,51.0290819 L36.8280262,46.7129464 L26.7463067,46.7129464 L26.7463067,27.3547565 Z M49.8086427,26.9360269 C42.6902401,26.9360269 37.6654853,32.1862515 37.6654853,39.1758142 C37.6654853,46.1975869 42.6902401,51.4478114 49.8086427,51.4478114 C53.2551091,51.4478114 56.0573762,50.4170925 58.4087038,47.8402952 L55.348757,44.2649889 C54.0925683,45.7788573 52.2566002,46.9706261 49.8086427,46.9706261 C45.4602972,46.9706261 42.6258202,43.6852095 42.6258202,39.1758142 C42.6258202,34.6664189 45.4602972,31.4132123 49.8086427,31.4132123 C52.2243902,31.4132123 54.0281483,32.5727711 55.284337,34.0544295 L58.3764938,30.4791233 C56.0895862,28.1277957 53.5449988,26.9360269 49.8086427,26.9360269 L49.8086427,26.9360269 Z" id="LC" fill="#000000" opacity="0.4"></path>
                </g>
            </g>
        </g>
    </g>
</svg>