<?xml version="1.0" encoding="UTF-8"?>
<svg width="81px" height="81px" viewBox="0 0 81 81" version="1.1" xmlns="http://www.w3.org/2000/svg" xmlns:xlink="http://www.w3.org/1999/xlink">
    <!-- Generator: Sketch 49.2 (51160) - http://www.bohemiancoding.com/sketch -->
    <title>site-logo-2</title>
    <desc>Created with Sketch.</desc>
    <defs></defs>
    <g id="Page-1" stroke="none" stroke-width="1" fill="none" fill-rule="evenodd">
        <g id="site-logo-2" transform="translate(0.621601, 0.363990)">
            <polygon id="Fill-1" fill="#EE394E" points="0 80 80 80 80 0 0 0"></polygon>
            <g id="Fill-2-+-Fill-4-+-Shape" transform="translate(4.000000, 18.777778)" fill="#FFFFFF">
                <path d="M9.71622896,2.22839057 C7.83959596,2.22839057 5.96754209,2.92064646 4.58006734,4.12764983 C3.15218855,5.36993939 2.36565657,7.02731313 2.36565657,8.79485522 L2.36565657,33.6352593 C2.36565657,35.4372795 3.18639731,37.2845522 4.61723906,38.7038114 C6.04727273,40.1219933 7.90585859,40.9349226 9.71622896,40.9349226 L29.9909764,40.9349226 L29.9909764,51.5988956 L41.3921886,40.9349226 L63.4078114,40.9349226 C65.6410774,40.9349226 67.0778451,39.7540471 67.8905051,38.7630707 C68.9986532,37.4124983 69.6340741,35.543138 69.6340741,33.6352593 L69.6340741,8.79485522 C69.6340741,6.92872727 69.026936,5.25142088 67.9241751,4.07216162 C66.796633,2.86596633 65.2348822,2.22839057 63.4078114,2.22839057 L9.71622896,2.22839057 Z M28.430303,55.196202 L28.430303,42.495596 L9.71622896,42.495596 C5.05225589,42.495596 0.805252525,38.2722963 0.805252525,33.6352593 L0.805252525,8.79485522 C0.805252525,6.56913131 1.78195286,4.49317172 3.5559596,2.95027609 C5.22329966,1.49977104 7.46868687,0.667717172 9.71622896,0.667717172 L63.4078114,0.667717172 C65.6453872,0.667717172 67.6545455,1.49815488 69.0638384,3.00630303 C70.4383838,4.47593266 71.1947475,6.53169024 71.1947475,8.79485522 L71.1947475,33.6352593 C71.1947475,35.9310168 70.4499663,38.1036768 69.0972391,39.7527003 C67.6472727,41.5215892 65.6259933,42.495596 63.4078114,42.495596 L42.0082155,42.495596 L28.430303,55.196202 Z" id="Fill-13" opacity="0.4"></path>
                <g id="Group" transform="translate(8.000000, 10.222222)" opacity="0.8">
                    <polygon id="Fill-15" points="18.9259529 4.51787205 12.0583434 4.51787205 12.0583434 21.9201616 7.61012795 21.9201616 7.61012795 4.51787205 0.743326599 4.51787205 0.743326599 0.616457912 18.9259529 0.616457912"></polygon>
                    <path d="M33.9359461,6.96237037 C33.9359461,9.34216835 33.0362828,11.078734 31.5855084,13.0515286 L27.8704916,18.0966465 L34.1430842,18.0966465 L34.1430842,21.9202155 L20.408404,21.9202155 L20.408404,21.7629091 L27.9992458,10.8799461 C29.1890101,9.16789226 29.5890101,8.29758923 29.5890101,6.84627609 C29.5890101,5.10486195 28.4827475,4.06028283 26.8867879,4.06028283 C25.2040943,4.06028283 24.2731852,5.10486195 23.9251717,7.22338047 L20.0356094,6.32398653 C20.8194478,2.23186532 23.1693468,0.229441077 26.8840943,0.229441077 C31.1504916,0.229441077 33.9359461,3.04452525 33.9359461,6.96237037" id="Fill-17"></path>
                    <path d="M41.4782761,4.67385859 L41.4782761,17.9403906 L43.6870303,17.9403906 C48.5042694,17.9403906 51.000431,15.4865185 51.000431,11.3073939 C51.000431,7.09917845 48.4757172,4.67385859 43.6870303,4.67385859 L41.4782761,4.67385859 Z M55.4984781,11.2537912 C55.4984781,17.9867205 51.1741684,21.9201886 43.8324848,21.9201886 L37.03033,21.9201886 L37.03033,0.616484848 L43.8324848,0.616484848 C51.1162559,0.616484848 55.4984781,4.52086195 55.4984781,11.2537912 L55.4984781,11.2537912 Z" id="Fill-19"></path>
                </g>
            </g>
        </g>
    </g>
</svg>