<?xml version="1.0" encoding="UTF-8"?>
<svg width="81px" height="81px" viewBox="0 0 81 81" version="1.1" xmlns="http://www.w3.org/2000/svg" xmlns:xlink="http://www.w3.org/1999/xlink">
    <!-- Generator: Sketch 49.2 (51160) - http://www.bohemiancoding.com/sketch -->
    <title>site-logo-8</title>
    <desc>Created with Sketch.</desc>
    <defs></defs>
    <g id="Page-1" stroke="none" stroke-width="1" fill="none" fill-rule="evenodd">
        <g id="site-logo-8" transform="translate(0.621601, 0.363990)">
            <rect id="Rectangle-1" fill="#B84E8B" x="0" y="0" width="80" height="80"></rect>
            <path d="M15.8673706,19.2723243 C13.8541273,19.2723243 11.8446678,20.0471892 10.3546678,21.3982703 C8.8260192,22.7836757 7.98439758,24.6166486 7.98439758,26.5593514 L7.98439758,53.3190811 C7.98439758,55.2693514 8.85628947,57.2415135 10.3760192,58.7285405 C11.8925057,60.2123243 13.893857,61.0631351 15.8673706,61.0631351 L33.4733784,61.0631351 L33.4733784,72.7985405 L45.8795946,61.0631351 L65.2118186,61.0631351 C67.1337105,61.0631351 68.8991159,60.2504324 70.1820889,58.7747568 C71.4437105,57.3223243 72.1388457,55.385027 72.1388457,53.3190811 L72.1388457,26.5593514 C72.1388457,22.3369189 69.2253322,19.2723243 65.2118186,19.2723243 L15.8673706,19.2723243 Z M31.9139189,76.4196216 L31.9139189,62.6225946 L15.8673706,62.6225946 C13.489803,62.6225946 11.0908841,61.6096216 9.28547866,59.8431351 C7.46764082,58.0644865 6.42520839,55.6866486 6.42520839,53.3190811 L6.42520839,26.5593514 C6.42520839,24.1715135 7.4487219,21.9282703 9.30710028,20.2431351 C11.0803435,18.6352973 13.4716949,17.7125946 15.8673706,17.7125946 L65.2118186,17.7125946 C67.606143,17.7125946 69.7820889,18.6271892 71.3391159,20.2871892 C72.860197,21.9096216 73.6980349,24.1366486 73.6980349,26.5593514 L73.6980349,53.3190811 C73.6980349,55.760973 72.8674943,58.0617838 71.3588457,59.7971892 C69.7753322,61.6196216 67.5923592,62.6225946 65.2118186,62.6225946 L46.5004054,62.6225946 L31.9139189,76.4196216 Z" id="Fill-115" fill="#FFFFFF" opacity="0.4"></path>
            <path d="M24.0086998,27.6119195 L14.8148148,27.6119195 L14.8148148,50.596632 L19.5993876,50.596632 L19.5993876,42.8099743 L24.0086998,42.8099743 C28.418012,42.8099743 32.076803,40.0893349 32.076803,35.2109469 C32.076803,30.332559 28.3867403,27.6119195 24.0086998,27.6119195 L24.0086998,27.6119195 Z M23.539624,31.7397863 C25.759916,31.7397863 27.2609584,32.9593833 27.2609584,35.2109469 C27.2609584,37.525054 25.759916,38.6821076 23.539624,38.6821076 L19.5993876,38.6821076 L19.5993876,31.7397863 L23.539624,31.7397863 Z M38.748917,34.1360468 C35.0932532,34.1360468 32.794782,36.3688475 32.794782,39.3021346 C32.794782,41.622496 33.9768529,43.5269436 38.311113,44.4463321 C40.478243,44.8403558 40.9379372,45.2343794 40.9379372,45.8035247 C40.9379372,46.591572 40.3031214,47.0074858 38.8802582,47.0074858 C37.3041637,47.0074858 35.5091671,46.2632189 34.4803276,45.1249284 L32.2475269,48.5835804 C33.8892921,50.0283337 36.2315437,50.7944908 38.748917,50.7944908 C42.7329338,50.7944908 45.0970757,48.649251 45.0970757,45.409501 C45.0970757,42.9577984 43.8931146,41.294143 39.5369643,40.3966447 C37.3698343,40.0245113 36.9758106,39.6304876 36.9758106,39.0832326 C36.9758106,38.3170755 37.5449559,37.9230518 38.7270268,37.9230518 C40.4344626,37.9230518 41.5946433,38.5140873 42.5140318,39.2583542 L44.6592717,35.8215924 C43.3020791,34.7708627 41.1349491,34.1360468 38.748917,34.1360468 L38.748917,34.1360468 Z M55.8184537,27.2053872 L55.6933668,27.2053872 L44.5919071,50.596632 L49.8455556,50.596632 L51.3465981,47.0316562 L60.1652224,47.0316562 L61.6662649,50.596632 L66.9199135,50.596632 L55.8184537,27.2053872 Z M55.7559103,36.4305439 L58.66418,43.3103218 L52.8476405,43.3103218 L55.7559103,36.4305439 Z" id="PSA" fill="#FFFFFF" opacity="0.8"></path>
        </g>
    </g>
</svg>