<?xml version="1.0" encoding="UTF-8"?>
<svg width="81px" height="81px" viewBox="0 0 81 81" version="1.1" xmlns="http://www.w3.org/2000/svg" xmlns:xlink="http://www.w3.org/1999/xlink">
    <!-- Generator: Sketch 49.3 (51167) - http://www.bohemiancoding.com/sketch -->
    <title>16</title>
    <desc>Created with Sketch.</desc>
    <defs></defs>
    <g id="Page-1" stroke="none" stroke-width="1" fill="none" fill-rule="evenodd">
        <g id="16" transform="translate(0.758532, 0.361540)">
            <polygon id="Fill-1" fill="#5285C6" points="0 80 80 80 80 0 0 0"></polygon>
            <g id="Fill-2-+-Fill-4-+-Shape" transform="translate(9.696970, 17.777778)" fill="#FFFFFF">
                <path d="M22.0252391,58.8070842 L22.0252391,44.9849428 L9.459367,44.9849428 C7.07752189,44.9849428 4.67358923,43.9714747 2.86556229,42.202101 C1.0447138,40.419798 0,38.0379529 0,35.665266 L0,8.85979798 C0,6.46868687 1.02628956,4.22114478 2.88764983,2.53441077 C4.6643771,0.923097643 7.05915152,0 9.459367,0 L51.8730505,0 C54.2695488,0 56.4510976,0.915824916 58.0106936,2.57858586 C59.5336566,4.20255892 60.3724444,6.43367003 60.3724444,8.85979798 L60.3724444,35.665266 C60.3724444,38.1115421 59.5409293,40.4179663 58.0292795,42.1560943 C56.4438249,43.9806599 54.2568889,44.9849428 51.8730505,44.9849428 L36.6364175,44.9849428 L22.0252391,58.8070842 Z M9.459367,1.56148148 C7.44172391,1.56148148 5.42954882,2.33750842 3.93602694,3.69131313 C2.40576431,5.07824916 1.563367,6.91555556 1.563367,8.85979798 L1.563367,35.665266 C1.563367,37.6204444 2.43515152,39.5958519 3.95808754,41.0856566 C5.47736027,42.571798 7.48218182,43.4233535 9.459367,43.4233535 L23.5869899,43.4233535 L23.5869899,55.1781549 L36.014734,43.4233535 L51.8730505,43.4233535 C53.7987071,43.4233535 55.5662492,42.6085926 56.8502896,41.1316364 C58.1154747,39.6767946 58.810963,37.7363232 58.810963,35.665266 L58.810963,8.85979798 C58.810963,4.63111111 55.8919057,1.56148148 51.8730505,1.56148148 L9.459367,1.56148148 Z" id="Fill-2" fill-opacity="0.3988"></path>
                <g id="Group" transform="translate(5.925926, 10.505051)" opacity="0.8">
                    <path d="M11.3537572,0 L11.2272529,0 L0,23.6562963 L5.31317885,23.6562963 L6.83122995,20.0509249 L15.7497802,20.0509249 L17.2678313,23.6562963 L22.5810101,23.6562963 L11.3537572,0 Z M11.2905051,9.32968905 L14.2317291,16.2874233 L8.34928105,16.2874233 L11.2905051,9.32968905 Z" id="A"></path>
                    <path d="M28.2372387,7.16497659 L23.973064,7.16497659 L23.973064,23.6605999 L34.6559439,23.6605999 L34.6559439,19.9126148 L28.2372387,19.9126148 L28.2372387,7.16497659 Z M48.4136501,7.16497659 L36.2046445,7.16497659 L36.2046445,10.8231897 L42.017388,10.8231897 L35.8904421,23.5708278 L35.8904421,23.6605999 L48.6380803,23.6605999 L48.6380803,20.0023869 L42.3091473,20.0023869 L48.4136501,7.25474869 L48.4136501,7.16497659 Z" id="LZ"></path>
                </g>
            </g>
        </g>
    </g>
</svg>