<?xml version="1.0" encoding="UTF-8"?>
<svg width="81px" height="81px" viewBox="0 0 81 81" version="1.1" xmlns="http://www.w3.org/2000/svg" xmlns:xlink="http://www.w3.org/1999/xlink">
    <!-- Generator: Sketch 49.2 (51160) - http://www.bohemiancoding.com/sketch -->
    <title>site-logo-16</title>
    <desc>Created with Sketch.</desc>
    <defs></defs>
    <g id="Page-1" stroke="none" stroke-width="1" fill="none" fill-rule="evenodd">
        <g id="site-logo-16" transform="translate(0.621601, 0.237842)">
            <polygon id="Fill-1" fill="#6059AF" points="0 80 80 80 80 0 0 0"></polygon>
            <path d="M30.5497643,74.9090909 L30.5497643,61.6149226 L17.4262896,61.6149226 C15.135569,61.6149226 12.8238653,60.6386801 11.0845791,58.9372121 C9.33287542,57.2233266 8.32843098,54.9320673 8.32843098,52.6505051 L8.32843098,26.8673401 C8.32843098,24.5661953 9.31474747,22.4053872 11.1050505,20.7816835 C12.8137643,19.2323232 15.1177104,18.3434343 17.4260471,18.3434343 L63.4946801,18.3434343 C65.8014815,18.3434343 67.8981818,19.2242424 69.3985185,20.8242424 C70.8641077,22.3870707 71.6716498,24.533064 71.6716498,26.8673401 L71.6716498,52.6505051 C71.6716498,55.0038249 70.8708418,57.2207407 69.4173737,58.8934411 C67.8914478,60.6482694 65.7882828,61.615165 63.4946801,61.615165 L44.6036364,61.615165 L30.5497643,74.9090909 Z M17.4262896,19.8459259 C15.4862761,19.8459259 13.5504108,20.5925926 12.1144242,21.8944108 C10.6419394,23.2293603 9.83094949,24.9958249 9.83094949,26.8670707 L9.83094949,52.6502357 C9.83094949,54.5303434 10.6706801,56.4302222 12.135165,57.8628418 C13.5965253,59.2925791 15.5248754,60.1126195 17.4262896,60.1126195 L32.0519865,60.1126195 L32.0519865,71.4196364 L44.0059259,60.1126195 L63.4949495,60.1126195 C65.3470707,60.1126195 67.0478114,59.3293737 68.2836364,57.9071246 C69.4995286,56.5081751 70.1691582,54.6417239 70.1691582,52.6502357 L70.1691582,26.8670707 C70.1691582,22.7986532 67.3621549,19.8459259 63.4946801,19.8459259 L17.4262896,19.8459259 Z" id="Fill-2" fill="#FFFFFF" opacity="0.4"></path>
            <polygon id="Fill-3" fill="#FFFFFF" opacity="0.8" points="15.9470303 50.9985185 20.532835 50.9985185 20.532835 28.9686465 15.9470303 28.9686465"></polygon>
            <path d="M33.6792323,28.9688889 L25.1671515,28.9688889 L25.1671515,50.9985185 L35.1480539,50.9985185 C39.2242828,50.9985185 42.4614545,48.6906397 42.4614545,44.5845118 C42.4614545,41.5272727 40.7828013,39.9687542 38.5349899,39.1894949 C39.5838788,38.4999327 40.662936,37.0914478 40.662936,34.9333333 C40.662936,31.2167003 38.0552593,28.9688889 33.6792323,28.9688889 L33.6792323,28.9688889 Z M34.4587609,41.5873401 C36.5867071,41.5873401 37.8155286,42.5163636 37.8155286,44.2249158 C37.8155286,45.9331987 36.5568081,46.8323232 34.5786263,46.8323232 L29.7228687,46.8323232 L29.7228687,41.5873401 L34.4587609,41.5873401 Z M33.0799057,33.1350842 C34.9681212,33.1350842 36.0770774,34.0342088 36.0770774,35.5326599 C36.0770774,37.0014815 34.9382222,37.9606734 33.199771,37.9606734 L29.7228687,37.9606734 L29.7228687,33.1350842 L33.0799057,33.1350842 Z" id="Fill-4" fill="#FFFFFF" opacity="0.8"></path>
            <path d="M52.6153378,50.9999939 L45.6000404,50.9999939 L45.6000404,28.9679932 L52.6153378,28.9679932 C60.1404106,28.9679932 64.6664551,33.0144043 64.6664551,39.9682074 C64.6664551,46.9237157 60.2001448,50.9999939 52.6153378,50.9999939 L52.6153378,50.9999939 Z M50.1878542,33.1637947 L50.1878542,46.8340595 L52.4658924,46.8340595 C57.4421982,46.8340595 60.0190722,44.3151594 60.0190722,39.9980745 C60.0190722,35.6528276 57.4122761,33.1637947 52.4658924,33.1637947 L50.1878542,33.1637947 Z" id="Fill-4" fill="#FFFFFF" opacity="0.8"></path>
        </g>
    </g>
</svg>