<?xml version="1.0" encoding="UTF-8"?>
<svg width="81px" height="81px" viewBox="0 0 81 81" version="1.1" xmlns="http://www.w3.org/2000/svg" xmlns:xlink="http://www.w3.org/1999/xlink">
    <!-- Generator: Sketch 49.2 (51160) - http://www.bohemiancoding.com/sketch -->
    <title>site-logo-18</title>
    <desc>Created with Sketch.</desc>
    <defs></defs>
    <g id="Page-1" stroke="none" stroke-width="1" fill="none" fill-rule="evenodd">
        <g id="site-logo-18" transform="translate(0.621601, 0.237842)">
            <rect id="Rectangle-path" fill="#1BABA4" x="0.108260392" y="0.0131103192" width="80" height="80"></rect>
            <path d="M34.1184774,66.5196445 L34.1184774,56.4865248 L9.24360054,56.4865248 C5.52986524,56.4865248 2.14786793,53.146112 2.14786793,49.4783385 L2.14786793,30.3125233 C2.14786793,28.5444005 2.93265806,26.8989989 4.35763058,25.6799165 C5.68374873,24.544889 7.46484713,23.8938154 9.24360054,23.8938154 L71.8897594,23.8938154 C73.6648129,23.8938154 75.2585726,24.5489015 76.3778105,25.737968 C77.4677621,26.8973313 78.0686529,28.5216801 78.0686529,30.3125233 L78.0686529,49.4783385 C78.0686529,51.2902866 77.4805814,53.005621 76.4126206,54.3079245 C75.2603965,55.7125737 73.6538696,56.4865248 71.8897594,56.4865248 L44.842275,56.4865248 L34.1185816,66.5196445 L34.1184774,66.5196445 Z M9.24333998,25.4494821 C7.82915442,25.4494821 6.41679274,25.9642336 5.36858201,26.8618438 C4.29473273,27.7805589 3.70363881,29.0060509 3.70363881,30.3123669 L3.70363881,49.4781822 C3.70363881,52.2807584 6.39480194,54.9305976 9.24333998,54.9305976 L35.6734666,54.9305976 L35.6734666,62.9334246 L44.2282522,54.9305976 L71.8893946,54.9305976 C73.541727,54.9305976 74.60604,54.0552908 75.2087025,53.3212567 C76.0367447,52.3113996 76.5112144,50.9103981 76.5112144,49.4781822 L76.5112144,30.3123669 C76.5112144,27.4036929 74.6536693,25.4494821 71.8893946,25.4494821 L9.24323576,25.4494821 L9.24333998,25.4494821 Z" id="Shape" fill-opacity="0.4" fill="#FFFFFF"></path>
            <g id="Group-4" transform="translate(8.108260, 31.000000)" fill="#FFFFFF" opacity="0.8">
                <path d="M8.9166307,17.3699397 C3.96692912,17.3699397 0.473570818,13.7201445 0.473570818,8.83855184 C0.473570818,3.97921055 3.96692912,0.329571663 8.9166307,0.329571663 C11.5142027,0.329571663 13.2819607,1.15777017 14.8720205,2.79248906 L12.7232797,5.27817892 C11.8494842,4.24810279 10.5964255,3.44173874 8.9166307,3.44173874 C5.89221838,3.44173874 3.92299963,5.70350807 3.92299963,8.83855184 C3.92299963,11.9734393 5.89221838,14.2574078 8.9166307,14.2574078 C10.6165924,14.2574078 11.8934137,13.4292093 12.7672092,12.3766213 L14.8940113,14.8621027 C13.2599699,16.6536754 11.3126898,17.3699397 8.9166307,17.3699397 L8.9166307,17.3699397 Z" id="Shape"></path>
                <path d="M23.8521353,17.3699397 C18.9921687,17.3699397 15.4090754,13.7871591 15.4090754,8.88310666 C15.4090754,3.9344994 18.9921687,0.329571663 23.8521353,0.329571663 C28.6882352,0.329571663 32.3171339,3.9344994 32.3171339,8.88310666 C32.3171339,13.7871591 28.6882352,17.3699397 23.8521353,17.3699397 L23.8521353,17.3699397 Z M23.8521353,3.44173874 C20.917458,3.44173874 18.8584521,5.70350807 18.8584521,8.88310666 C18.8584521,12.017942 20.917458,14.2574078 23.8521353,14.2574078 C26.7849367,14.2574078 28.8458185,12.017942 28.8458185,8.88310666 C28.8458185,5.70350807 26.7849367,3.44173874 23.8521353,3.44173874 L23.8521353,3.44173874 Z" id="Shape"></path>
                <path d="M37.9903432,17.0854142 L34.5684289,17.0854142 L34.5684289,0.594816137 L41.1832822,0.594816137 C44.3175964,0.594816137 46.9609738,2.54662984 46.9609738,6.04004025 C46.9609738,9.53303378 44.3414111,11.4848475 41.1832822,11.4848475 L37.9903432,11.4848475 L37.9903432,17.0854142 L37.9903432,17.0854142 Z M37.9903432,3.55065052 L37.9903432,8.52911732 L40.8480528,8.52911732 C42.4381126,8.52911732 43.511545,7.69690627 43.511545,6.03998814 C43.511545,4.42736428 42.4381126,3.55065052 40.8480528,3.55065052 L37.9903432,3.55065052 L37.9903432,3.55065052 Z" id="Shape"></path>
                <path d="M54.394854,17.0854142 L49.1923625,17.0854142 L49.1923625,0.594816137 L54.394854,0.594816137 C60.0150666,0.594816137 63.396647,3.63387163 63.396647,8.82885921 C63.396647,14.0242116 60.060872,17.0854142 54.394854,17.0854142 L54.394854,17.0854142 Z M52.615788,3.78358624 L52.615788,13.9738724 L54.2827635,13.9738724 C57.9996255,13.9738724 59.9249147,12.1031433 59.9249147,8.87872934 C59.9249147,5.63175136 57.9776347,3.78358624 54.2827635,3.78358624 L52.615788,3.78358624 L52.615788,3.78358624 Z" id="Shape"></path>
            </g>
        </g>
    </g>
</svg>