<?xml version="1.0" encoding="UTF-8"?>
<svg width="81px" height="81px" viewBox="0 0 81 81" version="1.1" xmlns="http://www.w3.org/2000/svg" xmlns:xlink="http://www.w3.org/1999/xlink">
    <!-- Generator: Sketch 49.2 (51160) - http://www.bohemiancoding.com/sketch -->
    <title>site-logo-9</title>
    <desc>Created with Sketch.</desc>
    <defs></defs>
    <g id="Page-1" stroke="none" stroke-width="1" fill="none" fill-rule="evenodd">
        <g id="site-logo-9" transform="translate(0.621601, 0.363990)">
            <rect id="Rectangle-1" fill="#8D55A4" x="0" y="0" width="80" height="80"></rect>
            <path d="M19.3690541,19.2723243 C17.3558108,19.2723243 15.3463514,20.0471892 13.8563514,21.3982703 C12.3277027,22.7836757 11.4860811,24.6166486 11.4860811,26.5593514 L11.4860811,53.3190811 C11.4860811,55.2693514 12.357973,57.2415135 13.8777027,58.7285405 C15.3941892,60.2123243 17.3955405,61.0631351 19.3690541,61.0631351 L33.4733784,61.0631351 L33.4733784,72.7985405 L45.8795946,61.0631351 L61.7101351,61.0631351 C63.632027,61.0631351 65.3974324,60.2504324 66.6804054,58.7747568 C67.942027,57.3223243 68.6371622,55.385027 68.6371622,53.3190811 L68.6371622,26.5593514 C68.6371622,22.3369189 65.7236486,19.2723243 61.7101351,19.2723243 L19.3690541,19.2723243 Z M31.9139189,76.4196216 L31.9139189,62.6225946 L19.3690541,62.6225946 C16.9914865,62.6225946 14.5925676,61.6096216 12.7871622,59.8431351 C10.9693243,58.0644865 9.92689189,55.6866486 9.92689189,53.3190811 L9.92689189,26.5593514 C9.92689189,24.1715135 10.9504054,21.9282703 12.8087838,20.2431351 C14.582027,18.6352973 16.9733784,17.7125946 19.3690541,17.7125946 L61.7101351,17.7125946 C64.1044595,17.7125946 66.2804054,18.6271892 67.8374324,20.2871892 C69.3585135,21.9096216 70.1963514,24.1366486 70.1963514,26.5593514 L70.1963514,53.3190811 C70.1963514,55.760973 69.3658108,58.0617838 67.8571622,59.7971892 C66.2736486,61.6196216 64.0906757,62.6225946 61.7101351,62.6225946 L46.5004054,62.6225946 L31.9139189,76.4196216 Z" id="Fill-115" fill="#FFFFFF" opacity="0.4"></path>
            <g id="Group-118" transform="translate(20.810811, 27.297297)" fill="#FFFFFF" opacity="0.8">
                <path d="M4.94364865,4.76191892 L4.94364865,11.3889459 L8.75283784,11.3889459 C11.0039189,11.3889459 12.5047297,10.2324595 12.5047297,8.07489189 C12.5047297,5.94975676 11.0039189,4.76191892 8.75283784,4.76191892 L4.94364865,4.76191892 Z M17.3506757,8.07948649 C17.3506757,11.2997568 15.5998649,13.5881351 13.1301351,14.7138108 L18.4763514,23.630027 L12.9109459,23.630027 L8.09635135,15.5216486 L4.94364865,15.5216486 L4.94364865,23.630027 L0.187432432,23.630027 L0.187432432,0.629486486 L9.19067568,0.629486486 C13.5987838,0.629486486 17.3506757,3.32759459 17.3506757,8.07948649 L17.3506757,8.07948649 Z" id="Fill-116"></path>
                <path d="M27.0737568,16.3790541 L32.8888919,16.3790541 L29.9813243,9.50094595 L27.0737568,16.3790541 Z M41.1424054,23.6298649 L35.8902432,23.6298649 L34.3897027,20.0436486 L25.5729459,20.0436486 L24.0721351,23.6298649 L18.8197027,23.6298649 L29.9186216,0.239324324 L30.0437568,0.239324324 L41.1424054,23.6298649 Z" id="Fill-117"></path>
            </g>
        </g>
    </g>
</svg>