<?xml version="1.0" encoding="UTF-8"?>
<svg width="81px" height="81px" viewBox="0 0 81 81" version="1.1" xmlns="http://www.w3.org/2000/svg" xmlns:xlink="http://www.w3.org/1999/xlink">
    <!-- Generator: Sketch 49.2 (51160) - http://www.bohemiancoding.com/sketch -->
    <title>site-logo-19</title>
    <desc>Created with Sketch.</desc>
    <defs></defs>
    <g id="Page-1" stroke="none" stroke-width="1" fill="none" fill-rule="evenodd">
        <g id="site-logo-19" transform="translate(0.621601, 0.237842)">
            <polygon id="Fill-1" fill="#ED3970" points="0 80 80 80 80 0 0 0"></polygon>
            <g id="Fill-2-+-Fill-4-+-Shape" transform="translate(9.696970, 17.777778)" fill="#FFFFFF">
                <path d="M22.0252391,58.8070842 L22.0252391,44.9849428 L9.459367,44.9849428 C7.07752189,44.9849428 4.67358923,43.9714747 2.86556229,42.202101 C1.0447138,40.419798 0,38.0379529 0,35.665266 L0,8.85979798 C0,6.46868687 1.02628956,4.22114478 2.88764983,2.53441077 C4.6643771,0.923097643 7.05915152,0 9.459367,0 L51.8730505,0 C54.2695488,0 56.4510976,0.915824916 58.0106936,2.57858586 C59.5336566,4.20255892 60.3724444,6.43367003 60.3724444,8.85979798 L60.3724444,35.665266 C60.3724444,38.1115421 59.5409293,40.4179663 58.0292795,42.1560943 C56.4438249,43.9806599 54.2568889,44.9849428 51.8730505,44.9849428 L36.6364175,44.9849428 L22.0252391,58.8070842 Z M9.459367,1.56148148 C7.44172391,1.56148148 5.42954882,2.33750842 3.93602694,3.69131313 C2.40576431,5.07824916 1.563367,6.91555556 1.563367,8.85979798 L1.563367,35.665266 C1.563367,37.6204444 2.43515152,39.5958519 3.95808754,41.0856566 C5.47736027,42.571798 7.48218182,43.4233535 9.459367,43.4233535 L23.5869899,43.4233535 L23.5869899,55.1781549 L36.014734,43.4233535 L51.8730505,43.4233535 C53.7987071,43.4233535 55.5662492,42.6085926 56.8502896,41.1316364 C58.1154747,39.6767946 58.810963,37.7363232 58.810963,35.665266 L58.810963,8.85979798 C58.810963,4.63111111 55.8919057,1.56148148 51.8730505,1.56148148 L9.459367,1.56148148 Z" id="Fill-2" fill-opacity="0.3988"></path>
                <path d="M18.6264845,10.5050505 L18.4999802,10.5050505 L7.27272727,34.1613468 L12.5859061,34.1613468 L14.1039572,30.5559754 L23.0225074,30.5559754 L24.5405585,34.1613468 L29.8537374,34.1613468 L18.6264845,10.5050505 Z M18.5632323,19.8347396 L21.5044563,26.7924738 L15.6220083,26.7924738 L18.5632323,19.8347396 Z M39.7210695,10.9161893 L32.3205704,10.9161893 L32.3205704,34.1613468 L39.7210695,34.1613468 C47.7224639,34.1613468 52.4347475,29.860202 52.4347475,22.522955 C52.4347475,15.1857081 47.6592117,10.9161893 39.7210695,10.9161893 L39.7210695,10.9161893 Z M39.5629392,15.3438384 C44.7812398,15.3438384 47.5327075,17.9688017 47.5327075,22.5545811 C47.5327075,27.1087344 44.8128659,29.7653238 39.5629392,29.7653238 L37.1593583,29.7653238 L37.1593583,15.3438384 L39.5629392,15.3438384 Z" id="AD" opacity="0.8"></path>
            </g>
        </g>
    </g>
</svg>