<?xml version="1.0" encoding="UTF-8"?>
<svg width="81px" height="81px" viewBox="0 0 81 81" version="1.1" xmlns="http://www.w3.org/2000/svg" xmlns:xlink="http://www.w3.org/1999/xlink">
    <!-- Generator: Sketch 49.2 (51160) - http://www.bohemiancoding.com/sketch -->
    <title>site-logo-12</title>
    <desc>Created with Sketch.</desc>
    <defs></defs>
    <g id="Page-1" stroke="none" stroke-width="1" fill="none" fill-rule="evenodd">
        <g id="site-logo-12" transform="translate(0.621601, 0.237842)">
            <g id="bug">
                <g id="Group">
                    <rect id="Rectangle-path" fill="#FF574C" x="0" y="0" width="80" height="80"></rect>
                    <path d="M31.5463973,76.5147475 L31.5463973,62.6895623 L18.9761616,62.6895623 C16.5939394,62.6895623 14.189899,61.6743434 12.3811448,59.9049158 C10.5594613,58.1225589 9.51488215,55.739798 9.51488215,53.3670034 L9.51488215,26.5540741 C9.51488215,24.1610774 10.5406061,21.9138047 12.4024242,20.2254545 C14.1793939,18.6141414 16.5753535,17.689697 18.9758923,17.689697 L61.4020202,17.689697 C63.8009428,17.689697 65.9814141,18.6057912 67.5415488,20.2696296 C69.0658586,21.8949495 69.9054545,24.1265993 69.9054545,26.5540741 L69.9054545,53.3670034 C69.9054545,55.8144108 69.0725926,58.1198653 67.5612121,59.8593939 C65.9744108,61.6843098 63.7872054,62.6898316 61.4020202,62.6898316 L46.1616162,62.6898316 L31.5463973,76.5147475 L31.5463973,76.5147475 Z M18.9761616,19.2522559 C16.9586532,19.2522559 14.9454545,20.0288215 13.4521212,21.3826263 C11.9208081,22.7709091 11.0774411,24.6076768 11.0774411,26.5538047 L11.0774411,53.366734 C11.0774411,55.3220202 11.9507071,57.2977778 13.47367,58.7876094 C14.9934007,60.2744781 16.9987879,61.1272727 18.9761616,61.1272727 L33.1086869,61.1272727 L33.1086869,72.8859259 L45.5399327,61.1272727 L61.4022896,61.1272727 C63.3282155,61.1272727 65.0971044,60.3127273 66.3822222,58.83367 C67.6465993,57.3788552 68.3428956,55.4378451 68.3428956,53.366734 L68.3428956,26.5538047 C68.3428956,22.322963 65.4238384,19.2522559 61.4020202,19.2522559 L18.9761616,19.2522559 L18.9761616,19.2522559 Z" id="Shape" fill="#FFFFFF" opacity="0.4"></path>
                    <polygon id="Shape" fill="#FFFFFF" opacity="0.8" points="42.2494276 50.9707744 37.4839057 50.9707744 37.4839057 41.2880808 30.7579798 51.2835017 30.5072054 51.2835017 23.8122559 41.2880808 23.8122559 50.9707744 19.046734 50.9707744 19.046734 27.5331987 19.1358923 27.5331987 30.6329966 43.7605387 42.0985859 27.5331987 42.2499663 27.5331987 42.2499663 50.9707744"></polygon>
                    <path d="M61.896835,29.9477441 L59.4219529,33.8949495 C58.0121212,32.767138 56.2577778,31.8898316 53.8144108,31.8898316 C51.7780471,31.8898316 50.5249832,32.7041077 50.5249832,34.396229 C50.5249832,35.7120539 51.4022896,36.370101 54.8479461,37.0276094 C60.8005387,38.2809428 62.6801347,40.4425589 62.6801347,43.9824916 C62.6801347,48.3994613 59.3907071,51.3756229 53.9709091,51.3756229 C50.4622222,51.3756229 47.3295623,50.2793266 45.0426936,48.3057239 L47.6428283,44.3270034 C49.1779125,45.9560943 51.7780471,47.0211448 54.1274074,47.0211448 C56.539798,47.0211448 57.9178451,46.1125926 57.9178451,44.4210101 C57.9178451,43.0739394 56.8840404,42.3221549 53.4696296,41.6641077 C47.5173064,40.3795286 45.7317172,37.9991919 45.7317172,34.6157576 C45.7317172,30.4805387 48.8958923,27.5361616 53.8456566,27.5361616 C57.1350842,27.5358923 59.9854545,28.4751515 61.896835,29.9477441 L61.896835,29.9477441 Z" id="Shape" fill="#FFFFFF" opacity="0.8"></path>
                </g>
            </g>
        </g>
    </g>
</svg>