<?xml version="1.0" encoding="UTF-8"?>
<svg width="81px" height="81px" viewBox="0 0 81 81" version="1.1" xmlns="http://www.w3.org/2000/svg" xmlns:xlink="http://www.w3.org/1999/xlink">
    <!-- Generator: Sketch 49.2 (51160) - http://www.bohemiancoding.com/sketch -->
    <title>site-logo-20</title>
    <desc>Created with Sketch.</desc>
    <defs></defs>
    <g id="Page-1" stroke="none" stroke-width="1" fill="none" fill-rule="evenodd">
        <g id="site-logo-20" transform="translate(0.621601, 0.237842)">
            <rect id="Rectangle-4" fill="#6385A1" x="0" y="0" width="80" height="80"></rect>
            <path d="M31.2014241,78.6346434 L31.2014241,63.7184513 L25.4846915,63.7184513 C22.8957948,63.7184513 20.2781567,62.5806562 18.3032374,60.596519 C16.331011,58.6151782 15.2,55.9927758 15.2,53.4019112 L15.2,23.9368467 C15.2,21.3354695 16.3137144,18.9075244 18.3360181,17.1009621 C20.2575976,15.384456 22.8632213,14.4 25.4846915,14.4 L55.8401165,14.4 C61.1822276,14.4 65.0596173,18.4107392 65.0596173,23.9368467 L65.0596173,53.4019112 C65.0596173,56.080191 64.1619549,58.6185961 62.5319319,60.549756 C60.8068293,62.5931885 58.4304632,63.7184513 55.8401165,63.7184513 L47.034077,63.7184513 L31.2014241,78.6346434 L31.2014241,78.6346434 Z M25.4847433,15.9458705 C23.2381017,15.9458705 21.0078764,16.7870858 19.3659943,18.2538787 C17.6765724,19.7631881 16.7461294,21.781556 16.7461294,23.9367431 L16.7461294,53.4018077 C16.7461294,57.9920864 20.9111915,62.1724255 25.4847433,62.1724255 L32.7476053,62.1724255 L32.7476053,75.0540923 L46.420462,62.1724255 L55.8401683,62.1724255 C57.9671837,62.1724255 59.9243403,61.2421378 61.350481,59.5524052 C62.7250945,57.9238322 63.5137468,55.6819549 63.5137468,53.4018077 L63.5137468,23.9367431 C63.5137468,21.6926909 62.7560626,19.6586835 61.3805171,18.2096015 C59.974573,16.7285674 58.0587418,15.9458705 55.8401683,15.9458705 L25.4847433,15.9458705 L25.4847433,15.9458705 Z" id="Shape" fill="#FFFFFF" opacity="0.4"></path>
            <path d="M52.3240228,51.0613971 L46.5406413,51.0613971 L44.8881948,47.1190157 L35.1801429,47.1190157 L33.527541,51.0613971 L27.7441077,51.0613971 L39.9653449,25.3198653 L40.1029927,25.3198653 L52.3240228,51.0613971 L52.3240228,51.0613971 Z M40.034117,35.4483696 L36.8324858,43.0222078 L43.2357483,43.0222078 L40.034117,35.4483696 L40.034117,35.4483696 Z" id="Shape" fill="#FFFFFF" opacity="0.8"></path>
        </g>
    </g>
</svg>