<?xml version="1.0" encoding="UTF-8"?>
<svg width="80px" height="81px" viewBox="0 0 80 81" version="1.1" xmlns="http://www.w3.org/2000/svg" xmlns:xlink="http://www.w3.org/1999/xlink">
    <!-- Generator: Sketch 49.3 (51167) - http://www.bohemiancoding.com/sketch -->
    <title>20</title>
    <desc>Created with Sketch.</desc>
    <defs>
        <linearGradient x1="50%" y1="0%" x2="50%" y2="100%" id="linearGradient-1">
            <stop stop-color="#FC798A" offset="0%"></stop>
            <stop stop-color="#FFBC8E" offset="100%"></stop>
        </linearGradient>
    </defs>
    <g id="Page-1" stroke="none" stroke-width="1" fill="none" fill-rule="evenodd">
        <g id="20" transform="translate(0.000000, 0.253495)">
            <g id="abc">
                <polygon id="Fill-1" fill="url(#linearGradient-1)" points="0 80 80 80 80 0 0 0"></polygon>
                <g id="Fill-2-+-Fill-4-+-Shape" transform="translate(4.800000, 17.977778)" fill="#000000">
                    <g id="Group-4" transform="translate(0.000000, 0.422222)">
                        <path d="M8.91622896,2.21147396 C7.03959596,2.21147396 5.16754209,2.90372985 3.78006734,4.11073322 C2.35218855,5.35302278 1.56565657,7.01039652 1.56565657,8.77793861 L1.56565657,33.6183426 C1.56565657,35.4203629 2.38639731,37.2676356 3.81723906,38.6868948 C5.24727273,40.1050767 7.10585859,40.9180059 8.91622896,40.9180059 L29.1909764,40.9180059 L29.1909764,51.581979 L40.5921886,40.9180059 L62.6078114,40.9180059 C64.8410774,40.9180059 66.2778451,39.7371305 67.0905051,38.7461541 C68.1986532,37.3955817 68.8340741,35.5262214 68.8340741,33.6183426 L68.8340741,8.77793861 C68.8340741,6.91181066 68.226936,5.23450426 67.1241751,4.05524501 C65.996633,2.84904972 64.4348822,2.21147396 62.6078114,2.21147396 L8.91622896,2.21147396 Z M27.630303,55.1792854 L27.630303,42.4786793 L8.91622896,42.4786793 C4.25225589,42.4786793 0.00525252525,38.2553797 0.00525252525,33.6183426 L0.00525252525,8.77793861 C0.00525252525,6.5522147 0.981952862,4.47625511 2.7559596,2.93335948 C4.42329966,1.48285443 6.66868687,0.650800561 8.91622896,0.650800561 L62.6078114,0.650800561 C64.8453872,0.650800561 66.8545455,1.48123827 68.2638384,2.98938642 C69.6383838,4.45901605 70.3947475,6.51477362 70.3947475,8.77793861 L70.3947475,33.6183426 C70.3947475,35.9141002 69.6499663,38.0867602 68.2972391,39.7357837 C66.8472727,41.5046726 64.8259933,42.4786793 62.6078114,42.4786793 L41.2082155,42.4786793 L27.630303,55.1792854 Z" id="Fill-13" opacity="0.2"></path>
                        <path d="M16.3306996,10.5263599 L26.6451026,32.2592427 L21.7639203,32.2592427 L20.3692968,28.9470119 L12.1758837,28.9470119 L10.7812602,32.2592427 L5.90007799,32.2592427 L16.214481,10.5263599 L16.3306996,10.5263599 Z M16.2725903,19.0974835 L13.5705072,25.4895078 L18.9746733,25.4895078 L16.2725903,19.0974835 Z M36.2010923,10.9040704 C40.4430721,10.9040704 42.9708272,13.0831696 42.9708272,16.685947 C42.9708272,18.7778822 41.9248596,20.1434511 40.9079466,20.8117082 C43.0870458,21.5671292 44.7141066,23.0779714 44.7141066,26.0415463 C44.7141066,30.0220342 41.5762037,32.2592427 37.6247704,32.2592427 L27.9495699,32.2592427 L27.9495699,10.9040704 L36.2010923,10.9040704 Z M36.9565133,23.1360807 L32.3658777,23.1360807 L32.3658777,28.2206455 L37.072732,28.2206455 C38.9903393,28.2206455 40.2106348,27.3490058 40.2106348,25.6928904 C40.2106348,24.036775 39.0193939,23.1360807 36.9565133,23.1360807 Z M35.6199992,14.9426676 L32.3658777,14.9426676 L32.3658777,19.6204673 L35.7362178,19.6204673 C37.4213878,19.6204673 38.5254648,18.6907183 38.5254648,17.2670401 C38.5254648,15.8143073 37.4504425,14.9426676 35.6199992,14.9426676 Z M56.7423288,10.5263599 C50.3212498,10.5263599 45.7887234,15.2622688 45.7887234,21.5671292 C45.7887234,27.9010443 50.3212498,32.6369533 56.7423288,32.6369533 C59.851177,32.6369533 62.3789321,31.7072043 64.499922,29.3828318 L61.7397297,26.1577649 C60.6065981,27.5233338 58.9504827,28.5983561 56.7423288,28.5983561 C52.8199502,28.5983561 50.2631404,25.6347811 50.2631404,21.5671292 C50.2631404,17.4994774 52.8199502,14.5649571 56.7423288,14.5649571 C58.921428,14.5649571 60.5484888,15.6109247 61.6816203,16.9474389 L64.4708673,13.722372 C62.4079868,11.6013821 60.1126689,10.5263599 56.7423288,10.5263599 Z" id="ABC" opacity="0.4"></path>
                    </g>
                </g>
            </g>
        </g>
    </g>
</svg>