<?xml version="1.0" encoding="UTF-8"?>
<svg width="81px" height="81px" viewBox="0 0 81 81" version="1.1" xmlns="http://www.w3.org/2000/svg" xmlns:xlink="http://www.w3.org/1999/xlink">
    <!-- Generator: Sketch 49.2 (51160) - http://www.bohemiancoding.com/sketch -->
    <title>site-logo-3</title>
    <desc>Created with Sketch.</desc>
    <defs>
        <linearGradient x1="50%" y1="0%" x2="50%" y2="100%" id="linearGradient-1">
            <stop stop-color="#8EB2EE" offset="0%"></stop>
            <stop stop-color="#AFA0D9" offset="100%"></stop>
        </linearGradient>
        <linearGradient x1="50%" y1="0%" x2="50%" y2="100%" id="linearGradient-2">
            <stop stop-color="#93BCFF" offset="0%"></stop>
            <stop stop-color="#B094FF" offset="100%"></stop>
        </linearGradient>
    </defs>
    <g id="Page-1" stroke="none" stroke-width="1" fill="none" fill-rule="evenodd">
        <g id="site-logo-3" transform="translate(0.621601, 0.363990)">
            <g id="bug">
                <g id="Group">
                    <rect id="Rectangle-path" fill="url(#linearGradient-2)" x="0" y="0" width="80" height="80"></rect>
                    <path d="M31.7284848,62.7776431 L19.96633,62.7776431 C17.5841077,62.7776431 15.1800673,61.7624242 13.3713131,59.9929966 C11.5496296,58.2106397 10.5050505,55.8278788 10.5050505,53.4550842 L10.5050505,26.6421549 C10.5050505,24.2491582 11.5307744,22.0018855 13.3925926,20.3135354 C15.1695623,18.7022222 17.5655219,17.7777778 19.9660606,17.7777778 L60.7760269,17.7777778 C63.1749495,17.7777778 65.3554209,18.6938721 66.9155556,20.3577104 C68.4398653,21.9830303 69.2794613,24.2146801 69.2794613,26.6421549 L69.2794613,53.4550842 C69.2794613,55.9024916 68.4465993,58.2079461 66.9352189,59.9474747 C65.3484175,61.7723906 63.1612121,62.7779125 60.7760269,62.7779125 L46.3437037,62.7779125 L31.7284848,76.6028283 L31.7284848,62.7776431 Z M14.4422896,21.4707071 C12.9109764,22.8589899 12.0676094,24.6957576 12.0676094,26.6418855 L12.0676094,53.4548148 C12.0676094,55.410101 12.9408754,57.3858586 14.4638384,58.8756902 C15.983569,60.3625589 17.9889562,61.2153535 19.96633,61.2153535 L33.2907744,61.2153535 L33.2907744,72.9740067 L45.7220202,61.2153535 L60.7762963,61.2153535 C62.7022222,61.2153535 64.4711111,60.4008081 65.756229,58.9217508 C67.0206061,57.466936 67.7169024,55.5259259 67.7169024,53.4548148 L67.7169024,26.6418855 C67.7169024,22.4110438 64.7978451,19.3403367 60.7760269,19.3403367 L19.96633,19.3403367 C17.9488215,19.3403367 15.9356229,20.1169024 14.4422896,21.4707071 Z" id="Shape" fill="#000000" opacity="0.2"></path>
                    <g id="Group-3" transform="translate(19.663300, 27.744108)" fill="#000000" opacity="0.4">
                        <path d="M32.0566142,0 C24.9243677,0 19.8898407,5.26043521 19.8898407,12.2635913 C19.8898407,19.29902 24.9243677,24.5594552 32.0566142,24.5594552 C35.5097833,24.5594552 38.3175002,23.5267317 40.6734007,20.944923 L37.6075029,17.3626634 C36.3488711,18.879476 34.5093324,20.0735626 32.0566142,20.0735626 C27.699812,20.0735626 24.8598224,16.7817565 24.8598224,12.2635913 C24.8598224,7.74542607 27.699812,4.4858926 32.0566142,4.4858926 C34.4770598,4.4858926 36.2843259,5.64770651 37.5429576,7.13224651 L40.6411281,3.54998695 C38.3497729,1.19408652 35.8002368,0 32.0566142,0 L32.0566142,0 Z" id="BC"></path>
                        <path d="M4.95201152,24.2585852 L0,24.2585852 L0,0.538720539 L9.57266223,0.538720539 C14.1084743,0.538720539 17.9338289,3.34618433 17.9338289,8.37106105 C17.9338289,13.3953381 14.1429377,16.2028019 9.57266223,16.2028019 L4.95201152,16.2028019 L4.95201152,24.2585852 L4.95201152,24.2585852 Z M4.95201152,4.79035479 L4.95201152,11.9513176 L9.08753613,11.9513176 C11.3885858,11.9513176 12.9419998,10.7542759 12.9419998,8.37098609 C12.9419998,6.05140861 11.3885858,4.79035479 9.08753613,4.79035479 L4.95201152,4.79035479 L4.95201152,4.79035479 Z" id="Shape"></path>
                    </g>
                </g>
            </g>
        </g>
    </g>
</svg>