<?xml version="1.0" encoding="UTF-8"?>
<svg width="81px" height="81px" viewBox="0 0 81 81" version="1.1" xmlns="http://www.w3.org/2000/svg" xmlns:xlink="http://www.w3.org/1999/xlink">
    <!-- Generator: Sketch 49.2 (51160) - http://www.bohemiancoding.com/sketch -->
    <title>site-logo-6</title>
    <desc>Created with Sketch.</desc>
    <defs>
        <linearGradient x1="50%" y1="100%" x2="50%" y2="0%" id="linearGradient-1">
            <stop stop-color="#979AED" offset="0%"></stop>
            <stop stop-color="#CA89D6" offset="100%"></stop>
        </linearGradient>
    </defs>
    <g id="Page-1" stroke="none" stroke-width="1" fill="none" fill-rule="evenodd">
        <g id="site-logo-6" transform="translate(0.621601, 0.363990)">
            <g id="bug">
                <g id="Group">
                    <rect id="Rectangle-path" fill="url(#linearGradient-1)" x="0" y="0" width="80" height="80"></rect>
                    <path d="M31.4591246,62.7776431 L19.6969697,62.7776431 C17.3147475,62.7776431 14.9107071,61.7624242 13.1019529,59.9929966 C11.2802694,58.2106397 10.2356902,55.8278788 10.2356902,53.4550842 L10.2356902,26.6421549 C10.2356902,24.2491582 11.2614141,22.0018855 13.1232323,20.3135354 C14.900202,18.7022222 17.2961616,17.7777778 19.6967003,17.7777778 L60.5066667,17.7777778 C62.9055892,17.7777778 65.0860606,18.6938721 66.6461953,20.3577104 C68.1705051,21.9830303 69.010101,24.2146801 69.010101,26.6421549 L69.010101,53.4550842 C69.010101,55.9024916 68.1772391,58.2079461 66.6658586,59.9474747 C65.0790572,61.7723906 62.8918519,62.7779125 60.5066667,62.7779125 L46.0743434,62.7779125 L31.4591246,76.6028283 L31.4591246,62.7776431 Z M14.1729293,21.4707071 C12.6416162,22.8589899 11.7982492,24.6957576 11.7982492,26.6418855 L11.7982492,53.4548148 C11.7982492,55.410101 12.6715152,57.3858586 14.1944781,58.8756902 C15.7142088,60.3625589 17.719596,61.2153535 19.6969697,61.2153535 L33.0214141,61.2153535 L33.0214141,72.9740067 L45.4526599,61.2153535 L60.506936,61.2153535 C62.432862,61.2153535 64.2017508,60.4008081 65.4868687,58.9217508 C66.7512458,57.466936 67.4475421,55.5259259 67.4475421,53.4548148 L67.4475421,26.6418855 C67.4475421,22.4110438 64.5284848,19.3403367 60.5066667,19.3403367 L19.6969697,19.3403367 C17.6794613,19.3403367 15.6662626,20.1169024 14.1729293,21.4707071 Z" id="Shape" fill="#000000" opacity="0.2"></path>
                    <path d="M19.9326599,27.3555708 L19.9326599,51.0759382 L30.6794386,51.0759382 C35.0685134,51.0759382 38.5539551,48.5909473 38.5539551,44.1695999 C38.5539551,40.8777939 36.6317708,39.0146451 34.5956036,38.3605304 C35.4797579,37.8814 37.344585,37.3550137 37.5140599,33.77782 C37.796529,29.6971698 33.8098816,27.3555708 29.0980808,27.3555708 L19.9326599,27.3555708 Z M29.9371686,40.9423391 C32.2285238,40.9423391 33.5517008,41.9427899 33.5517008,43.7823286 C33.5517008,45.6218673 32.1962512,46.5900456 30.066259,46.5900456 L24.8380964,46.5900456 L24.8380964,40.9423391 L29.9371686,40.9423391 Z M28.4526286,31.8414634 C30.485803,31.8414634 32.8536516,32.2422258 32.5763508,34.4232721 C32.5763508,36.6146297 30.4535303,37.0373534 28.581719,37.0373534 L24.8380964,37.0373534 L24.8380964,31.8414634 L28.4526286,31.8414634 Z M51.9892741,26.9360269 C44.8570276,26.9360269 39.8225007,32.1964621 39.8225007,39.1996182 C39.8225007,46.2350469 44.8570276,51.4954821 51.9892741,51.4954821 C55.4424432,51.4954821 58.2501602,50.4627586 60.6060606,47.8809499 L57.5401628,44.2986904 C56.2815311,45.815503 54.4419924,47.0095895 51.9892741,47.0095895 C47.6324719,47.0095895 44.7924824,43.7177834 44.7924824,39.1996182 C44.7924824,34.681453 47.6324719,31.4219195 51.9892741,31.4219195 C54.4097198,31.4219195 56.2169858,32.5837334 57.4756176,34.0682734 L60.573788,30.4860139 C58.2824328,28.1301135 55.7328967,26.9360269 51.9892741,26.9360269 L51.9892741,26.9360269 Z" id="BC" fill="#000000" opacity="0.4"></path>
                </g>
            </g>
        </g>
    </g>
</svg>