<?xml version="1.0" encoding="UTF-8"?>
<svg width="81px" height="81px" viewBox="0 0 81 81" version="1.1" xmlns="http://www.w3.org/2000/svg" xmlns:xlink="http://www.w3.org/1999/xlink">
    <!-- Generator: Sketch 49.2 (51160) - http://www.bohemiancoding.com/sketch -->
    <title>site-logo-4</title>
    <desc>Created with Sketch.</desc>
    <defs>
        <linearGradient x1="50%" y1="0%" x2="50%" y2="100%" id="linearGradient-1">
            <stop stop-color="#FD7982" offset="0%"></stop>
            <stop stop-color="#F975AD" offset="100%"></stop>
        </linearGradient>
    </defs>
    <g id="Page-1" stroke="none" stroke-width="1" fill="none" fill-rule="evenodd">
        <g id="site-logo-4" transform="translate(0.621601, 0.363990)">
            <rect id="Rectangle-path" fill="url(#linearGradient-1)" x="0" y="0" width="80" height="80"></rect>
            <path d="M31.0855992,78.5107376 L31.0855992,63.5945455 L25.3688666,63.5945455 C22.7799699,63.5945455 20.1623318,62.4567505 18.1874125,60.4726133 C16.2151861,58.4912725 15.0841751,55.8688701 15.0841751,53.2780055 L15.0841751,23.812941 C15.0841751,21.2115638 16.1978895,18.7836187 18.2201932,16.9770564 C20.1417727,15.2605503 22.7473963,14.2760943 25.3688666,14.2760943 L55.7242916,14.2760943 C61.0664027,14.2760943 64.9437924,18.2868334 64.9437924,23.812941 L64.9437924,53.2780055 C64.9437924,55.9562852 64.04613,58.4946904 62.416107,60.4258503 C60.6910044,62.4692828 58.3146383,63.5945455 55.7242916,63.5945455 L46.918252,63.5945455 L31.0855992,78.5107376 L31.0855992,78.5107376 Z M25.3689184,15.8219647 C23.1222768,15.8219647 20.8920514,16.6631801 19.2501693,18.129973 C17.5607475,19.6392824 16.6303045,21.6576503 16.6303045,23.8128374 L16.6303045,53.2779019 C16.6303045,57.8681807 20.7953666,62.0485197 25.3689184,62.0485197 L32.6317804,62.0485197 L32.6317804,74.9301866 L46.3046371,62.0485197 L55.7243434,62.0485197 C57.8513588,62.0485197 59.8085154,61.1182321 61.2346561,59.4284995 C62.6092696,57.7999265 63.3979219,55.5580492 63.3979219,53.2779019 L63.3979219,23.8128374 C63.3979219,21.5687851 62.6402377,19.5347778 61.2646921,18.0856958 C59.8587481,16.6046617 57.9429168,15.8219647 55.7243434,15.8219647 L25.3689184,15.8219647 L25.3689184,15.8219647 Z" id="Shape" fill="#000000" opacity="0.2"></path>
            <path d="M29.6296296,25.3198653 L29.6296296,52.6707073 L42.0212356,52.6707073 C47.0820717,52.6707073 51.1009709,49.805381 51.1009709,44.7073329 C51.1009709,40.9117059 48.8845904,38.7633965 46.5367817,38.0091675 C47.5562584,37.4567048 49.7065029,36.8497534 49.9019166,32.7250593 C50.2276184,28.0198531 45.6308025,25.3198653 40.1978461,25.3198653 L29.6296296,25.3198653 Z M41.1653589,40.9861299 C43.807413,40.9861299 45.3331063,42.1397028 45.3331063,44.2607886 C45.3331063,46.3818743 43.770201,47.4982352 41.314207,47.4982352 L35.2858582,47.4982352 L35.2858582,40.9861299 L41.1653589,40.9861299 Z M39.4536055,30.4923375 C41.7979634,30.4923375 44.5282185,30.9544378 44.208476,33.4692999 C44.208476,35.9960514 41.7607514,36.4834743 39.6024537,36.4834743 L35.2858582,36.4834743 L35.2858582,30.4923375 L39.4536055,30.4923375 Z" id="BC" fill="#000000" opacity="0.4"></path>
        </g>
    </g>
</svg>