<?xml version="1.0" encoding="UTF-8"?>
<svg width="81px" height="81px" viewBox="0 0 81 81" version="1.1" xmlns="http://www.w3.org/2000/svg" xmlns:xlink="http://www.w3.org/1999/xlink">
    <!-- Generator: Sketch 49.2 (51160) - http://www.bohemiancoding.com/sketch -->
    <title>site-logo-7</title>
    <desc>Created with Sketch.</desc>
    <defs></defs>
    <g id="Page-1" stroke="none" stroke-width="1" fill="none" fill-rule="evenodd">
        <g id="site-logo-7" transform="translate(0.621601, 0.237842)">
            <polygon id="Fill-1" fill="#5B7288" points="0 80 80 80 80 0 0 0"></polygon>
            <g id="Fill-2-+-Fill-4-+-Shape" transform="translate(9.696970, 17.777778)" fill="#FFFFFF">
                <path d="M22.0252391,58.8070842 L22.0252391,44.9849428 L9.459367,44.9849428 C7.07752189,44.9849428 4.67358923,43.9714747 2.86556229,42.202101 C1.0447138,40.419798 0,38.0379529 0,35.665266 L0,8.85979798 C0,6.46868687 1.02628956,4.22114478 2.88764983,2.53441077 C4.6643771,0.923097643 7.05915152,0 9.459367,0 L51.8730505,0 C54.2695488,0 56.4510976,0.915824916 58.0106936,2.57858586 C59.5336566,4.20255892 60.3724444,6.43367003 60.3724444,8.85979798 L60.3724444,35.665266 C60.3724444,38.1115421 59.5409293,40.4179663 58.0292795,42.1560943 C56.4438249,43.9806599 54.2568889,44.9849428 51.8730505,44.9849428 L36.6364175,44.9849428 L22.0252391,58.8070842 Z M9.459367,1.56148148 C7.44172391,1.56148148 5.42954882,2.33750842 3.93602694,3.69131313 C2.40576431,5.07824916 1.563367,6.91555556 1.563367,8.85979798 L1.563367,35.665266 C1.563367,37.6204444 2.43515152,39.5958519 3.95808754,41.0856566 C5.47736027,42.571798 7.48218182,43.4233535 9.459367,43.4233535 L23.5869899,43.4233535 L23.5869899,55.1781549 L36.014734,43.4233535 L51.8730505,43.4233535 C53.7987071,43.4233535 55.5662492,42.6085926 56.8502896,41.1316364 C58.1154747,39.6767946 58.810963,37.7363232 58.810963,35.665266 L58.810963,8.85979798 C58.810963,4.63111111 55.8919057,1.56148148 51.8730505,1.56148148 L9.459367,1.56148148 Z" id="Fill-2" fill-opacity="0.3988"></path>
                <g id="Fill-4-+-Shape" transform="translate(9.696970, 11.043771)" opacity="0.8">
                    <path d="M28.6200673,23.0545445 L21.2794613,23.0545445 L21.2794613,0 L28.6200673,0 C36.4940067,0 41.2301684,4.23427178 41.2301684,11.5108405 C41.2301684,18.7890254 36.5564983,23.0545445 28.6200673,23.0545445 L28.6200673,23.0545445 Z M26.08,4.39050803 L26.08,18.6952837 L28.4638384,18.6952837 C33.6708418,18.6952837 36.367138,16.0594704 36.367138,11.5420877 C36.367138,6.99507409 33.6393266,4.39050803 28.4638384,4.39050803 L26.08,4.39050803 Z" id="Fill-4"></path>
                    <path d="M4.81311219,23.0545445 L0,23.0545445 L0,0 L9.30415793,0 C13.7127447,0 17.4308017,2.72871703 17.4308017,7.61265062 C17.4308017,12.4960014 13.7462414,15.2247184 9.30415793,15.2247184 L4.81311219,15.2247184 L4.81311219,23.0545445 L4.81311219,23.0545445 Z M4.81311219,4.13237986 L4.81311219,11.0924843 L8.83263918,11.0924843 C11.0691465,11.0924843 12.5789887,9.92901848 12.5789887,7.61257777 C12.5789887,5.35806229 11.0691465,4.13237986 8.83263918,4.13237986 L4.81311219,4.13237986 L4.81311219,4.13237986 Z" id="Shape"></path>
                </g>
            </g>
        </g>
    </g>
</svg>