<?xml version="1.0" encoding="UTF-8"?>
<svg width="81px" height="81px" viewBox="0 0 81 81" version="1.1" xmlns="http://www.w3.org/2000/svg" xmlns:xlink="http://www.w3.org/1999/xlink">
    <!-- Generator: Sketch 49.2 (51160) - http://www.bohemiancoding.com/sketch -->
    <title>site-logo-5</title>
    <desc>Created with Sketch.</desc>
    <defs>
        <linearGradient x1="50%" y1="0%" x2="50%" y2="100%" id="linearGradient-1">
            <stop stop-color="#36D9BC" offset="0%"></stop>
            <stop stop-color="#71F8B3" offset="100%"></stop>
        </linearGradient>
    </defs>
    <g id="Page-1" stroke="none" stroke-width="1" fill="none" fill-rule="evenodd">
        <g id="site-logo-5" transform="translate(0.621601, 0.363990)">
            <rect id="Rectangle-path" fill="url(#linearGradient-1)" x="0" y="0" width="80" height="80"></rect>
            <path d="M31.0855992,78.5107376 L31.0855992,63.5945455 L25.3688666,63.5945455 C22.7799699,63.5945455 20.1623318,62.4567505 18.1874125,60.4726133 C16.2151861,58.4912725 15.0841751,55.8688701 15.0841751,53.2780055 L15.0841751,23.812941 C15.0841751,21.2115638 16.1978895,18.7836187 18.2201932,16.9770564 C20.1417727,15.2605503 22.7473963,14.2760943 25.3688666,14.2760943 L55.7242916,14.2760943 C61.0664027,14.2760943 64.9437924,18.2868334 64.9437924,23.812941 L64.9437924,53.2780055 C64.9437924,55.9562852 64.04613,58.4946904 62.416107,60.4258503 C60.6910044,62.4692828 58.3146383,63.5945455 55.7242916,63.5945455 L46.918252,63.5945455 L31.0855992,78.5107376 L31.0855992,78.5107376 Z M25.3689184,15.8219647 C23.1222768,15.8219647 20.8920514,16.6631801 19.2501693,18.129973 C17.5607475,19.6392824 16.6303045,21.6576503 16.6303045,23.8128374 L16.6303045,53.2779019 C16.6303045,57.8681807 20.7953666,62.0485197 25.3689184,62.0485197 L32.6317804,62.0485197 L32.6317804,74.9301866 L46.3046371,62.0485197 L55.7243434,62.0485197 C57.8513588,62.0485197 59.8085154,61.1182321 61.2346561,59.4284995 C62.6092696,57.7999265 63.3979219,55.5580492 63.3979219,53.2779019 L63.3979219,23.8128374 C63.3979219,21.5687851 62.6402377,19.5347778 61.2646921,18.0856958 C59.8587481,16.6046617 57.9429168,15.8219647 55.7243434,15.8219647 L25.3689184,15.8219647 L25.3689184,15.8219647 Z" id="Shape" fill="#000000" opacity="0.2"></path>
            <path d="M41.2590917,24.7619053 C33.0414761,24.7619053 27.2408063,30.8228615 27.2408063,38.891742 C27.2408063,46.9978062 33.0414761,53.0587624 41.2590917,53.0587624 C45.2377562,53.0587624 48.4727451,51.8688815 51.1871611,48.894179 L47.654702,44.7667793 C46.2045345,46.514417 44.085059,47.8902169 41.2590917,47.8902169 C36.2392813,47.8902169 32.9671085,44.0974713 32.9671085,38.891742 C32.9671085,33.6860126 36.2392813,29.9304508 41.2590917,29.9304508 C44.0478752,29.9304508 46.1301669,31.2690669 47.5803344,32.9795208 L51.1499774,28.8521211 C48.5099289,26.1377051 45.5724102,24.7619053 41.2590917,24.7619053 L41.2590917,24.7619053 Z" id="BC" fill="#000000" opacity="0.4"></path>
        </g>
    </g>
</svg>