<?xml version="1.0" encoding="UTF-8"?>
<svg width="81px" height="81px" viewBox="0 0 81 81" version="1.1" xmlns="http://www.w3.org/2000/svg" xmlns:xlink="http://www.w3.org/1999/xlink">
    <!-- Generator: Sketch 49.2 (51160) - http://www.bohemiancoding.com/sketch -->
    <title>site-logo-17</title>
    <desc>Created with Sketch.</desc>
    <defs>
        <path d="M33.7288863,16.9610584 L30.2914666,16.9610584 L30.2914666,0.448290959 L36.8964173,0.448290959 C40.0418527,0.448290959 42.6927442,2.40296447 42.6927442,5.90740032 C42.6927442,9.41178405 40.0640004,11.3664576 36.8964173,11.3664576 L33.7288863,11.3664576 L33.7288863,16.9610584 L33.7288863,16.9610584 Z M33.7288863,3.41414805 L33.7288863,8.4024244 L36.5595645,8.4024244 C38.1544039,8.4024244 39.2328642,7.57071496 39.2328642,5.90740032 C39.2328642,4.289788 38.1544039,3.41414805 36.5595645,3.41414805 L33.7288863,3.41414805 L33.7288863,3.41414805 Z" id="path-1"></path>
    </defs>
    <g id="Page-1" stroke="none" stroke-width="1" fill="none" fill-rule="evenodd">
        <g id="site-logo-17" transform="translate(0.621601, 0.237842)">
            <polygon id="Clip-78" fill="#379EC1" points="0 0 80 0 80 80 0 80"></polygon>
            <path d="M34.0102329,65.5222427 L34.0102329,55.4888878 L9.13487722,55.4888878 C5.42131544,55.4888878 2.03923885,52.1474587 2.03923885,48.4800161 L2.03923885,29.3145854 C2.03923885,27.5450141 2.82404737,25.8999387 4.24894907,24.6817137 C5.5750983,23.54593 7.35618634,22.8956229 9.13487722,22.8956229 L71.781775,22.8956229 C73.5579645,22.8956229 75.1522827,23.5495779 76.2705045,24.7385159 C77.3604816,25.8981148 77.9607612,27.5230228 77.9607612,29.3145854 L77.9607612,48.4800161 C77.9607612,50.2917461 77.372728,52.0064433 76.3053154,53.3089336 C75.1535855,54.7139806 73.5469688,55.4888878 71.781775,55.4888878 L44.7343861,55.4888878 L34.0102329,65.5222427 L34.0102329,65.5222427 Z M9.13487722,24.4509091 C7.7214923,24.4509091 6.30914962,24.9656726 5.26028899,25.8633039 C4.18641453,26.7811026 3.5950983,28.0066233 3.5950983,29.3145854 L3.5950983,48.4800161 C3.5950983,51.2828144 6.28721042,53.9317777 9.13487722,53.9317777 L35.5662487,53.9317777 L35.5662487,61.9353655 L44.1201927,53.9317777 L71.781775,53.9317777 C73.4356052,53.9317777 74.5001516,53.0579616 75.1020987,52.3233371 C75.9301082,51.3139774 76.4049538,49.9125783 76.4049538,48.4800161 L76.4049538,29.3145854 C76.4049538,26.4055305 74.5470525,24.4509091 71.781775,24.4509091 L9.13487722,24.4509091 L9.13487722,24.4509091 Z" id="Clip-81" fill="#FFFFFF" opacity="0.4"></path>
            <g id="Group" transform="translate(8.356544, 30.168350)">
                <polygon id="Clip-84" fill-opacity="0.8" fill="#FFFFFF" points="13.6867213 16.9610584 10.2715014 16.9610584 10.2715014 10.0639672 3.57707422 10.0639672 3.57707422 16.9610584 0.139550336 16.9610584 0.139550336 0.448290959 3.57707422 0.448290959 3.57707422 6.94239913 10.2715014 6.94239913 10.2715014 0.448290959 13.6867213 0.448290959"></polygon>
                <polygon id="Clip-87" fill-opacity="0.8" fill="#FFFFFF" points="27.8416759 16.9610584 16.9905776 16.9610584 16.9905776 0.448290959 27.6617848 0.448290959 27.6617848 3.57168298 20.4277888 3.57168298 20.4277888 7.1439167 26.6958346 7.1439167 26.6958346 10.0419759 20.4277888 10.0419759 20.4277888 13.8376664 27.8416759 13.8376664"></polygon>
                <path d="M57.0650063,17.2541891 C52.1001283,17.2541891 48.5953277,13.5903944 48.5953277,8.69367904 C48.5953277,3.81900711 52.1001283,0.156984208 57.0650063,0.156984208 C59.6712377,0.156984208 61.4456032,0.988693644 63.0410158,2.62824516 L60.8843036,5.12144532 C60.0079341,4.08827043 58.7495827,3.27860442 57.0650063,3.27860442 C54.0318725,3.27860442 52.0552598,5.5482957 52.0552598,8.69367904 C52.0552598,11.8390624 54.0318725,14.1307971 57.0650063,14.1307971 C58.7723036,14.1307971 60.0531674,13.2991398 60.929589,12.2439214 L63.0633719,14.7371737 C61.4234556,16.5342602 59.469199,17.2541891 57.0650063,17.2541891 L57.0650063,17.2541891 Z" id="Clip-93" fill-opacity="0.8" fill="#FFFFFF"></path>
                <mask id="mask-2" fill="white">
                    <use xlink:href="#path-1"></use>
                </mask>
                <use id="Clip-90" fill-opacity="0.8" fill="#FFFFFF" xlink:href="#path-1"></use>
            </g>
        </g>
    </g>
</svg>