<?xml version="1.0" encoding="UTF-8"?>
<svg width="81px" height="81px" viewBox="0 0 81 81" version="1.1" xmlns="http://www.w3.org/2000/svg" xmlns:xlink="http://www.w3.org/1999/xlink">
    <!-- Generator: Sketch 49.2 (51160) - http://www.bohemiancoding.com/sketch -->
    <title>site-logo-10</title>
    <desc>Created with Sketch.</desc>
    <defs>
        <linearGradient x1="50%" y1="-23.0671033%" x2="50%" y2="108.515435%" id="linearGradient-1">
            <stop stop-color="#FFB289" offset="0%"></stop>
            <stop stop-color="#FF938C" offset="100%"></stop>
        </linearGradient>
        <linearGradient x1="50%" y1="0%" x2="50%" y2="100%" id="linearGradient-2">
            <stop stop-color="#62DECE" offset="0%"></stop>
            <stop stop-color="#69CDF6" offset="100%"></stop>
        </linearGradient>
    </defs>
    <g id="Page-1" stroke="none" stroke-width="1" fill="none" fill-rule="evenodd">
        <g id="site-logo-10" transform="translate(0.621601, 0.363990)">
            <g id="bug">
                <g id="Group">
                    <rect id="Rectangle-path" fill="url(#linearGradient-2)" x="0" y="0" width="80" height="80"></rect>
                    <path d="M31.4591246,62.7776431 L19.6969697,62.7776431 C17.3147475,62.7776431 14.9107071,61.7624242 13.1019529,59.9929966 C11.2802694,58.2106397 10.2356902,55.8278788 10.2356902,53.4550842 L10.2356902,26.6421549 C10.2356902,24.2491582 11.2614141,22.0018855 13.1232323,20.3135354 C14.900202,18.7022222 17.2961616,17.7777778 19.6967003,17.7777778 L60.5066667,17.7777778 C62.9055892,17.7777778 65.0860606,18.6938721 66.6461953,20.3577104 C68.1705051,21.9830303 69.010101,24.2146801 69.010101,26.6421549 L69.010101,53.4550842 C69.010101,55.9024916 68.1772391,58.2079461 66.6658586,59.9474747 C65.0790572,61.7723906 62.8918519,62.7779125 60.5066667,62.7779125 L46.0743434,62.7779125 L31.4591246,76.6028283 L31.4591246,62.7776431 Z M14.1729293,21.4707071 C12.6416162,22.8589899 11.7982492,24.6957576 11.7982492,26.6418855 L11.7982492,53.4548148 C11.7982492,55.410101 12.6715152,57.3858586 14.1944781,58.8756902 C15.7142088,60.3625589 17.719596,61.2153535 19.6969697,61.2153535 L33.0214141,61.2153535 L33.0214141,72.9740067 L45.4526599,61.2153535 L60.506936,61.2153535 C62.432862,61.2153535 64.2017508,60.4008081 65.4868687,58.9217508 C66.7512458,57.466936 67.4475421,55.5259259 67.4475421,53.4548148 L67.4475421,26.6418855 C67.4475421,22.4110438 64.5284848,19.3403367 60.5066667,19.3403367 L19.6969697,19.3403367 C17.6794613,19.3403367 15.6662626,20.1169024 14.1729293,21.4707071 Z" id="Shape" fill="#000000" opacity="0.2"></path>
                    <path d="M28.4242583,26.9360269 C23.3467124,26.9360269 20.1009395,29.9568454 20.1009395,34.1988457 C20.1009395,37.6695732 21.9327123,40.1119371 28.0386219,41.4295281 C31.5414858,42.1043918 32.6019859,42.8756646 32.6019859,44.2575283 C32.6019859,45.9928921 31.1879858,46.9248467 28.7134856,46.9248467 C26.3032581,46.9248467 23.6359397,45.8322103 22.0612578,44.1611192 L19.3939394,48.2424377 C21.7398941,50.2670288 24.9535307,51.3918016 28.5528038,51.3918016 C34.1123951,51.3918016 37.4867136,48.3388468 37.4867136,43.8076192 C37.4867136,40.1762098 35.5585316,37.9588005 29.452622,36.6733459 C25.9176217,35.9984822 25.0178035,35.3236185 25.0178035,33.9738911 C25.0178035,32.2385274 26.3032581,31.4029818 28.3921219,31.4029818 C30.8987585,31.4029818 32.698395,32.3028001 34.1445315,33.4597093 L36.6833044,29.4105271 C34.7229861,27.9001179 31.7985767,26.9360269 28.4242583,26.9360269 L28.4242583,26.9360269 Z M51.305351,26.9360269 C44.2032141,26.9360269 39.189941,32.1742546 39.189941,39.1478461 C39.189941,46.1535739 44.2032141,51.3918016 51.305351,51.3918016 C54.7439422,51.3918016 57.5398061,50.3634379 59.8857608,47.7925286 L56.832806,44.225392 C55.5794877,45.7358012 53.7477149,46.9248467 51.305351,46.9248467 C46.9669416,46.9248467 44.1389414,43.6469374 44.1389414,39.1478461 C44.1389414,34.6487548 46.9669416,31.4029818 51.305351,31.4029818 C53.7155785,31.4029818 55.515215,32.559891 56.7685333,34.0381639 L59.8536244,30.4710272 C57.5719424,28.1250725 55.0331695,26.9360269 51.305351,26.9360269 L51.305351,26.9360269 Z" id="SC" fill="#000000" opacity="0.4"></path>
                </g>
            </g>
        </g>
    </g>
</svg>