<?xml version="1.0" encoding="UTF-8"?>
<svg width="81px" height="81px" viewBox="0 0 81 81" version="1.1" xmlns="http://www.w3.org/2000/svg" xmlns:xlink="http://www.w3.org/1999/xlink">
    <!-- Generator: Sketch 49.2 (51160) - http://www.bohemiancoding.com/sketch -->
    <title>site-logo-15</title>
    <desc>Created with Sketch.</desc>
    <defs></defs>
    <g id="Page-1" stroke="none" stroke-width="1" fill="none" fill-rule="evenodd">
        <g id="site-logo-15" transform="translate(0.621601, 0.237842)">
            <polygon id="Fill-1" fill="#5470C0" points="0 80 80 80 80 0 0 0"></polygon>
            <path d="M32.1497643,74.9090909 L32.1497643,61.6149226 L19.0262896,61.6149226 C16.735569,61.6149226 14.4238653,60.6386801 12.6845791,58.9372121 C10.9328754,57.2233266 9.92843098,54.9320673 9.92843098,52.6505051 L9.92843098,26.8673401 C9.92843098,24.5661953 10.9147475,22.4053872 12.7050505,20.7816835 C14.4137643,19.2323232 16.7177104,18.3434343 19.0260471,18.3434343 L61.8946801,18.3434343 C64.2014815,18.3434343 66.2981818,19.2242424 67.7985185,20.8242424 C69.2641077,22.3870707 70.0716498,24.533064 70.0716498,26.8673401 L70.0716498,52.6505051 C70.0716498,55.0038249 69.2708418,57.2207407 67.8173737,58.8934411 C66.2914478,60.6482694 64.1882828,61.615165 61.8946801,61.615165 L46.2036364,61.615165 L32.1497643,74.9090909 Z M19.0262896,19.8459259 C17.0862761,19.8459259 15.1504108,20.5925926 13.7144242,21.8944108 C12.2419394,23.2293603 11.4309495,24.9958249 11.4309495,26.8670707 L11.4309495,52.6502357 C11.4309495,54.5303434 12.2706801,56.4302222 13.735165,57.8628418 C15.1965253,59.2925791 17.1248754,60.1126195 19.0262896,60.1126195 L33.6519865,60.1126195 L33.6519865,71.4196364 L45.6059259,60.1126195 L61.8949495,60.1126195 C63.7470707,60.1126195 65.4478114,59.3293737 66.6836364,57.9071246 C67.8995286,56.5081751 68.5691582,54.6417239 68.5691582,52.6502357 L68.5691582,26.8670707 C68.5691582,22.7986532 65.7621549,19.8459259 61.8946801,19.8459259 L19.0262896,19.8459259 Z" id="Fill-2" fill="#FFFFFF" opacity="0.4"></path>
            <polygon id="Fill-3" fill="#FFFFFF" opacity="0.8" points="17.5469899 50.9985185 22.1327946 50.9985185 22.1327946 28.9686465 17.5469899 28.9686465"></polygon>
            <path d="M35.2791919,28.9688889 L26.7671111,28.9688889 L26.7671111,50.9985185 L36.7480135,50.9985185 C40.8242424,50.9985185 44.0614141,48.6906397 44.0614141,44.5845118 C44.0614141,41.5272727 42.3827609,39.9687542 40.1349495,39.1894949 C41.1838384,38.4999327 42.2628956,37.0914478 42.2628956,34.9333333 C42.2628956,31.2167003 39.6552189,28.9688889 35.2791919,28.9688889 L35.2791919,28.9688889 Z M36.0587205,41.5873401 C38.1866667,41.5873401 39.4154882,42.5163636 39.4154882,44.2249158 C39.4154882,45.9331987 38.1567677,46.8323232 36.1785859,46.8323232 L31.3228283,46.8323232 L31.3228283,41.5873401 L36.0587205,41.5873401 Z M34.6798653,33.1350842 C36.5680808,33.1350842 37.677037,34.0342088 37.677037,35.5326599 C37.677037,37.0014815 36.5381818,37.9606734 34.7997306,37.9606734 L31.3228283,37.9606734 L31.3228283,33.1350842 L34.6798653,33.1350842 Z" id="Fill-4" fill="#FFFFFF" opacity="0.8"></path>
            <path d="M54.0008081,28.5791246 C49.2651852,28.5791246 46.2378451,31.396633 46.2378451,35.3529966 C46.2378451,38.589899 47.9463973,40.8678788 53.6409428,42.0967003 C56.9080135,42.7261953 57.8971044,43.4456566 57.8971044,44.7342761 C57.8971044,46.352862 56.5783165,47.2220875 54.2704377,47.2220875 C52.0226263,47.2220875 49.5348148,46.2030976 48.0662626,44.6443098 L45.5784512,48.4509091 C47.7664646,50.3391246 50.7636364,51.3882828 54.1206734,51.3882828 C59.3058586,51.3882828 62.453064,48.5408754 62.453064,44.3146128 C62.453064,40.9279461 60.6545455,38.859798 54.9597306,37.6608754 C51.6627609,37.0313805 50.8237037,36.4018855 50.8237037,35.143165 C50.8237037,33.5245791 52.0226263,32.7453199 53.9706397,32.7453199 C56.3086869,32.7453199 57.9870707,33.5846465 59.3357576,34.6634343 L61.7037037,30.8870034 C59.8752862,29.4782492 57.1477441,28.5791246 54.0008081,28.5791246 L54.0008081,28.5791246 Z" id="Fill-5" fill="#FFFFFF" opacity="0.8"></path>
        </g>
    </g>
</svg>