<?xml version="1.0" encoding="UTF-8"?>
<svg width="1290px" height="642px" viewBox="0 0 1290 642" version="1.1" xmlns="http://www.w3.org/2000/svg" xmlns:xlink="http://www.w3.org/1999/xlink">
    <!-- Generator: Sketch 49.2 (51160) - http://www.bohemiancoding.com/sketch -->
    <title>big-light-blue-brain</title>
    <desc>Created with Sketch.</desc>
    <defs></defs>
    <g id="Page-1" stroke="none" stroke-width="1" fill="none" fill-rule="evenodd" opacity="0.15">
        <g id="Desktop-HD" transform="translate(-75.000000, -4366.000000)">
            <g id="big-light-blue-brain" transform="translate(81.000000, 4372.000000)">
                <path d="M1159.45384,392.903681 L1155.38866,392.903681 C1171.27069,372.337167 1180.74233,346.568407 1180.74233,318.574093 C1180.74233,251.333881 1126.23499,196.82483 1058.99562,196.82483 C1044.59728,196.82483 1030.79014,199.341346 1017.96938,203.930713 C1017.96938,203.819281 1017.97763,203.709912 1017.97763,203.59848 C1017.97763,123.36813 952.93799,58.3266459 872.70761,58.3266459 C835.44423,58.3266459 801.470131,72.3722965 775.755345,95.4388186 C755.300519,39.7390901 701.792963,0 639.000516,0 C576.208069,0 522.700513,39.7390901 502.245687,95.4388186 C476.529869,72.3722965 442.556802,58.3266459 405.293422,58.3266459 C325.063042,58.3266459 260.023401,123.36813 260.023401,203.59848 C260.023401,203.709912 260.030624,203.819281 260.031655,203.930713 C247.21089,199.341346 233.403754,196.82483 219.005413,196.82483 C151.76604,196.82483 97.2576686,251.333881 97.2576686,318.574093 C97.2576686,346.568407 106.730342,372.337167 122.612367,392.903681 L118.547196,392.903681 C53.3465994,392.903681 0,446.249914 0,511.451324 C0,576.653767 53.3465994,630 118.547196,630 L1159.45384,630 C1224.65443,630 1278,576.653767 1278,511.451324 C1278,446.249914 1224.65443,392.903681 1159.45384,392.903681" id="Fill-1" fill="#84D0F1"></path>
                <path d="M1159.45384,392.903681 L1155.38866,392.903681 C1171.27069,372.337167 1180.74233,346.568407 1180.74233,318.574093 C1180.74233,251.333881 1126.23499,196.82483 1058.99562,196.82483 C1044.59728,196.82483 1030.79014,199.341346 1017.96938,203.930713 C1017.96938,203.819281 1017.97763,203.709912 1017.97763,203.59848 C1017.97763,123.36813 952.93799,58.3266459 872.70761,58.3266459 C835.44423,58.3266459 801.470131,72.3722965 775.755345,95.4388186 C755.300519,39.7390901 701.792963,0 639.000516,0 C576.208069,0 522.700513,39.7390901 502.245687,95.4388186 C476.529869,72.3722965 442.556802,58.3266459 405.293422,58.3266459 C325.063042,58.3266459 260.023401,123.36813 260.023401,203.59848 C260.023401,203.709912 260.030624,203.819281 260.031655,203.930713 C247.21089,199.341346 233.403754,196.82483 219.005413,196.82483 C151.76604,196.82483 97.2576686,251.333881 97.2576686,318.574093 C97.2576686,346.568407 106.730342,372.337167 122.612367,392.903681 L118.547196,392.903681 C53.3465994,392.903681 0,446.249914 0,511.451324 C0,576.653767 53.3465994,630 118.547196,630 L1159.45384,630 C1224.65443,630 1278,576.653767 1278,511.451324 C1278,446.249914 1224.65443,392.903681 1159.45384,392.903681 Z" id="Stroke-3" stroke="#FFFFFF" stroke-width="10.416"></path>
                <g id="Group-8" transform="translate(900.000000, 392.000000)">
                    <path d="M0.983477689,0.9989 L258.95986,0.9989" id="Fill-5" fill="#84D0F1"></path>
                    <path d="M0.983477689,0.9989 L258.95986,0.9989" id="Stroke-7" stroke="#FFFFFF" stroke-width="10.416"></path>
                </g>
                <g id="Group-12" transform="translate(119.000000, 392.000000)">
                    <path d="M0.107870968,0.9989 L319.469935,0.9989" id="Fill-9" fill="#84D0F1"></path>
                    <path d="M0.107870968,0.9989 L319.469935,0.9989" id="Stroke-11" stroke="#FFFFFF" stroke-width="10.416"></path>
                </g>
                <g id="Group-16" transform="translate(219.000000, 196.000000)">
                    <path d="M0.482627523,0.986939437 C49.7975633,0.986939437 92.2352881,30.4470662 111.178701,72.7387423" id="Fill-13" fill="#84D0F1"></path>
                    <path d="M0.482627523,0.986939437 C49.7975633,0.986939437 92.2352881,30.4470662 111.178701,72.7387423" id="Stroke-15" stroke="#FFFFFF" stroke-width="10.416"></path>
                </g>
                <g id="Group-20" transform="translate(946.000000, 196.000000)">
                    <path d="M0.896813596,75.4829294 C19.3597741,31.7073328 62.5832829,0.99247563 112.960893,0.99247563 C180.130695,0.99247563 234.581638,55.5982739 234.581638,122.956795" id="Fill-17" fill="#84D0F1"></path>
                    <path d="M0.896813596,75.4829294 C19.3597741,31.7073328 62.5832829,0.99247563 112.960893,0.99247563 C180.130695,0.99247563 234.581638,55.5982739 234.581638,122.956795" id="Stroke-19" stroke="#FFFFFF" stroke-width="10.416"></path>
                </g>
                <g id="Group-24" transform="translate(260.000000, 58.000000)">
                    <path d="M0.23236129,145.511928 C0.23236129,65.5615056 65.3028129,0.748815493 145.5712,0.748815493 C215.806039,0.748815493 274.404232,50.3713366 287.956748,116.337632" id="Fill-21" fill="#84D0F1"></path>
                    <path d="M0.23236129,145.511928 C0.23236129,65.5615056 65.3028129,0.748815493 145.5712,0.748815493 C215.806039,0.748815493 274.404232,50.3713366 287.956748,116.337632" id="Stroke-23" stroke="#FFFFFF" stroke-width="10.416"></path>
                </g>
                <g id="Group-28" transform="translate(437.000000, 208.000000)">
                    <path d="M0.503543333,184.998863 C51.4747767,184.998863 92.7936433,143.671517 92.7936433,92.6921313 C92.7936433,41.7117123 51.4747767,0.384365922 0.503543333,0.384365922" id="Fill-25" fill="#84D0F1"></path>
                    <path d="M0.503543333,184.998863 C51.4747767,184.998863 92.7936433,143.671517 92.7936433,92.6921313 C92.7936433,41.7117123 51.4747767,0.384365922 0.503543333,0.384365922" id="Stroke-27" stroke="#FFFFFF" stroke-width="10.416"></path>
                </g>
                <g id="Group-32" transform="translate(917.000000, 510.000000)">
                    <path d="M0.563689655,0.926275862 C33.2502414,0.926275862 59.9926552,27.6697241 59.9926552,60.3552414 C59.9926552,93.0417931 33.2502414,119.784207 0.563689655,119.784207" id="Fill-29" fill="#84D0F1"></path>
                    <path d="M0.563689655,0.926275862 C33.2502414,0.926275862 59.9926552,27.6697241 59.9926552,60.3552414 C59.9926552,93.0417931 33.2502414,119.784207 0.563689655,119.784207" id="Stroke-31" stroke="#FFFFFF" stroke-width="10.416"></path>
                </g>
                <g id="Group-36" transform="translate(259.000000, 493.000000)">
                    <path d="M0.734178261,0.161824812 L50.0384652,0.161824812 C87.7821609,0.161824812 118.662143,30.9023586 118.662143,68.4733211 C118.662143,106.045314 87.7821609,136.785847 50.0384652,136.785847" id="Fill-33" fill="#84D0F1"></path>
                    <path d="M0.734178261,0.161824812 L50.0384652,0.161824812 C87.7821609,0.161824812 118.662143,30.9023586 118.662143,68.4733211 C118.662143,106.045314 87.7821609,136.785847 50.0384652,136.785847" id="Stroke-35" stroke="#FFFFFF" stroke-width="10.416"></path>
                </g>
                <g id="Group-40" transform="translate(655.000000, 95.000000)">
                    <path d="M121.045815,0.717812121 C63.4907644,51.9795091 54.4400186,101.958479 0.135544068,101.958479" id="Fill-37" fill="#84D0F1"></path>
                    <path d="M121.045815,0.717812121 C63.4907644,51.9795091 54.4400186,101.958479 0.135544068,101.958479" id="Stroke-39" stroke="#FFFFFF" stroke-width="10.416"></path>
                </g>
            </g>
        </g>
    </g>
</svg>