<?xml version="1.0" encoding="UTF-8"?>
<svg width="1440px" height="616px" viewBox="0 0 1440 616" version="1.1" xmlns="http://www.w3.org/2000/svg" xmlns:xlink="http://www.w3.org/1999/xlink">
    <!-- Generator: Sketch 49.3 (51167) - http://www.bohemiancoding.com/sketch -->
    <title>section-11</title>
    <desc>Created with Sketch.</desc>
    <defs>
        <polygon id="path-1" points="0 0.274786037 1453.93972 0.274786037 1453.93972 675.750294 0 675.750294"></polygon>
    </defs>
    <g id="Page-1" stroke="none" stroke-width="1" fill="none" fill-rule="evenodd">
        <g id="Desktop-HD" transform="translate(0.000000, -8912.000000)">
            <g id="section-11" transform="translate(-7.000000, 8852.000000)">
                <polygon id="Fill-1" fill="#F76381" points="194 76.299003 189.942754 60 172 60.1730016 188.731159 83"></polygon>
                <polygon id="Fill-2" fill="#FFF78F" points="226.790581 77 237 83.2730924 225.868737 88 222 84.1771738"></polygon>
                <g id="Group-13" transform="translate(186.000000, 66.000000)">
                    <path d="M0.565348837,15.9289565 C0.646186047,24.4192464 10.3087907,31.2112754 22.1478605,31.1017101 C33.9869302,30.9911304 43.5195814,24.0195362 43.4387442,15.5292464 C43.357907,7.03895652 33.6953023,0.246927536 21.8562326,0.357507246 C10.0171628,0.468086957 0.484511628,7.43968116 0.565348837,15.9289565" id="Fill-3" fill="#F76381"></path>
                    <polyline id="Stroke-5" stroke="#170A4C" stroke-width="1.34" points="21.9367628 8.88594203 10.3842047 16.0330435 22.0667163 22.5724638"></polyline>
                    <path d="M30.293693,11.5312319 C30.3090419,13.1361594 31.6259721,14.4245652 33.2355535,14.4093478 C34.8441116,14.3941304 36.1354605,13.0813768 36.1211349,11.4764493 C36.105786,9.87253623 34.7888558,8.58413043 33.1792744,8.59833333 C31.5707163,8.61355072 30.2783442,9.92731884 30.293693,11.5312319" id="Fill-7" fill="#170A4C"></path>
                    <polygon id="Fill-9" fill="#F76381" points="25.3777674 69.5346522 24.7187907 28.7763913 27.5931163 28.749 28.252093 69.5072609"></polygon>
                    <polygon id="Fill-11" fill="#F76381" points="17.1317581 69.610942 16.4727814 28.8526812 19.347107 28.8263043 20.0060837 69.5845652"></polygon>
                </g>
                <g id="Group-16">
                    <mask id="mask-2" fill="white">
                        <use xlink:href="#path-1"></use>
                    </mask>
                    <g id="Clip-15"></g>
                    <path d="M1453.93565,282.052692 L1453.93565,296.224848 L1453.93565,282.052692 L1453.93565,191.903928 C1220.74276,97.6048559 983.881275,194.980757 709.503941,194.980757 C403.375848,194.980757 342.932009,71.0306628 -0.000203641457,162.771312 L-0.000203641457,0.274786037 L-0.000203641457,204.689932 L-0.000203641457,1983.9998 L1453.93972,1983.9998 L1453.93972,168.764051 C1453.9387,168.763032 1453.93667,191.904946 1453.93565,191.903928 L1453.93565,282.052692 Z" id="Fill-14" fill="#5450F5" mask="url(#mask-2)"></path>
                </g>
            </g>
        </g>
    </g>
</svg>