<?xml version="1.0" encoding="UTF-8"?>
<svg width="1477px" height="992px" viewBox="0 0 1477 992" version="1.1" xmlns="http://www.w3.org/2000/svg" xmlns:xlink="http://www.w3.org/1999/xlink">
    <!-- Generator: Sketch 49.2 (51160) - http://www.bohemiancoding.com/sketch -->
    <title>Group</title>
    <desc>Created with Sketch.</desc>
    <defs>
        <polygon id="path-1" points="0.702839707 0.00234548994 1476.69456 0.00234548994 1476.69456 719.531826 0.702839707 719.531826"></polygon>
        <polygon id="path-3" points="0 0.422138347 64.9596242 0.422138347 64.9596242 65.3799222 0 65.3799222"></polygon>
        <polygon id="path-5" points="0 382.520185 158.961727 382.520185 158.961727 0.422138347 0 0.422138347"></polygon>
    </defs>
    <g id="Page-1" stroke="none" stroke-width="1" fill="none" fill-rule="evenodd">
        <g id="Group" transform="translate(-1.000000, 0.000000)">
            <g id="blue-bottom" transform="translate(0.417258, 271.617770)">
                <mask id="mask-2" fill="white">
                    <use xlink:href="#path-1"></use>
                </mask>
                <g id="path-1"></g>
                <path d="M1476.69179,869.965262 L1476.69179,852.329937 C1476.69317,459.210645 1476.69456,26.8361302 1476.69456,0.00234548994 C1369.28353,165.558064 1229.4675,110.53149 1025.35744,110.53149 C494.510979,110.53149 305.798378,435.833009 0.702563767,133.046814 L0.702563767,868.600739 L0.702563767,368.64576 L0.702563767,1230.01453 L0.702563767,1454.19645 L0.702563767,2447.43556 L1476.69456,2447.43556 L1476.69041,1496.58084 L1476.69041,1482.25128 L1476.69041,1444.47233 C1476.69179,1444.47233 1476.69317,1444.4737 1476.69456,1444.47509 C1476.69456,1425.70565 1476.69317,1138.87154 1476.69179,869.965262" id="Fill-1" fill="#5450F5" fill-rule="nonzero" mask="url(#mask-2)"></path>
            </g>
            <g id="Page-1" transform="translate(933.908690, 0.106331)">
                <polygon id="Fill-1" fill="#170A4C" points="121.039769 372.808165 121.039769 381.546019 135.43619 381.653944 142.97457 381.923074 143.074298 379.09789 131.21344 372.033561"></polygon>
                <polygon id="Fill-2" fill="#170A4C" points="64.772826 374.860249 52.8067749 378.914963 52.1209709 382.502456 76.4916051 382.841259 76.2484315 373.637551 66.1007175 372.62114"></polygon>
                <polygon id="Fill-3" fill="#170A4C" points="156.967021 233.252916 148.509227 235.205135 149.065247 242.511271 158.13644 241.176548"></polygon>
                <polygon id="Fill-4" fill="#170A4C" points="156.641469 230.825415 148.179576 232.100027 149.355826 240.040053 157.808156 238.765442"></polygon>
                <g id="Group-73" transform="translate(0.000000, 0.320938)">
                    <path d="M151.631821,241.74374 C151.518431,241.027881 150.847655,240.51831 150.124965,240.626235 C149.422767,240.728696 148.913195,241.410401 149.027951,242.116698 L149.47468,245.27932 C149.574409,245.980151 150.241087,246.485624 150.965143,246.373601 C151.683734,246.269774 152.182377,245.603096 152.064888,244.881772 L151.631821,241.74374 Z" id="Fill-5" fill="#170A4C"></path>
                    <path d="M151.977319,244.22534 C151.869393,243.504016 151.198617,242.999909 150.473195,243.10237 L150.475927,243.126961 C149.770997,243.229421 149.264158,243.886536 149.372083,244.598297 L150.074281,249.418052 C150.178108,250.114785 150.844786,250.620258 151.567476,250.506868 C152.284701,250.404407 152.78471,249.736363 152.664489,249.016405 L151.977319,244.22534 Z" id="Fill-7" fill="#170A4C"></path>
                    <path d="M154.250718,242.185415 C154.142793,241.473654 153.478847,240.959984 152.754791,241.076106 C152.030735,241.179933 151.536191,241.852076 151.641384,242.577498 L152.094944,245.711431 C152.197404,246.42729 152.864082,246.927299 153.578576,246.824838 C154.313561,246.715546 154.798542,246.050235 154.698813,245.328911 L154.250718,242.185415 Z" id="Fill-9" fill="#170A4C"></path>
                    <path d="M154.696218,245.220576 C154.593757,244.504716 153.931177,243.98968 153.203023,244.107169 L153.194826,244.057987 C152.472136,244.161814 151.985789,244.881772 152.092348,245.60856 L152.786349,250.310826 C152.890176,251.036249 153.55822,251.532159 154.274079,251.428332 C155.009064,251.320406 155.488581,250.64963 155.392951,249.933771 L154.696218,245.220576 Z" id="Fill-11" fill="#170A4C"></path>
                    <path d="M156.446657,241.626389 C156.341464,240.905065 155.677518,240.420084 154.956195,240.51708 C154.230772,240.635935 153.725299,241.297148 153.848252,242.023936 L154.294981,245.156503 C154.402907,245.883292 155.079148,246.392863 155.790908,246.26991 C156.516331,246.16745 157.004044,245.495307 156.896118,244.784912 L156.446657,241.626389 Z" id="Fill-13" fill="#170A4C"></path>
                    <path d="M157.052405,245.401999 C156.947212,244.682042 156.280534,244.19023 155.55921,244.298155 C154.839253,244.406081 154.33378,245.074125 154.454,245.794083 L154.903461,248.932114 C155.008655,249.653438 155.682163,250.16301 156.391192,250.045521 C157.119346,249.94306 157.611158,249.270918 157.501866,248.564622 L157.052405,245.401999 Z" id="Fill-15" fill="#170A4C"></path>
                    <path d="M158.099691,240.54249 C157.989033,239.817068 157.330552,239.321158 156.601031,239.434548 C155.890637,239.537009 155.397459,240.214616 155.504018,240.930475 L155.954846,244.07807 C156.068235,244.788464 156.726717,245.289839 157.446674,245.186012 C158.161167,245.078087 158.66664,244.401846 158.555983,243.685987 L158.099691,240.54249 Z" id="Fill-17" fill="#170A4C"></path>
                    <path d="M158.489178,243.293357 C158.381253,242.567935 157.72004,242.072025 156.990519,242.185415 C156.280124,242.287875 155.78558,242.969581 155.890773,243.681342 L156.341601,246.828936 C156.457723,247.539331 157.11074,248.044804 157.836162,247.93278 C158.550655,247.828953 159.050663,247.152712 158.948203,246.436853 L158.489178,243.293357 Z" id="Fill-19" fill="#170A4C"></path>
                    <path d="M151.834557,237.614708 C151.935651,236.148836 150.837272,234.878323 149.360471,234.785425 C147.904162,234.682964 146.62955,235.790907 146.527089,237.256779 L146.51616,237.457602 C146.413699,238.928938 147.523008,240.193987 148.991612,240.297814 C150.457484,240.39481 151.722533,239.292332 151.822261,237.820996 L151.834557,237.614708 Z" id="Fill-21" fill="#170A4C"></path>
                    <path d="M148.598026,237.585336 C148.64994,237.011556 148.204577,236.501984 147.634895,236.458268 C147.054284,236.428213 146.54198,236.869477 146.496897,237.439159 L146.100716,243.459753 C146.061098,244.044463 146.495531,244.54857 147.070678,244.588188 C147.663584,244.616877 148.155396,244.196105 148.201844,243.612761 L148.598026,237.585336 Z" id="Fill-23" fill="#170A4C"></path>
                    <path d="M74.32859,68.6678378 L79.3327738,56.342491 L83.2795624,44.6086843 L103.805869,47.7125624 C108.893387,48.1538267 111.699446,49.7754391 112.099726,54.867056 L114.967261,84.7623745 C100.531223,91.9414587 91.2072932,89.8758497 76.8737154,83.4577075 L77.0882,70.4998362 L74.32859,68.6678378 Z" id="Fill-25" fill="#170A4C"></path>
                    <path d="M80.8725541,58.5731301 C80.7782902,59.4556588 80.3629826,60.1400967 79.9408442,60.1004785 C79.520072,60.0499312 79.2646032,59.2917216 79.3479379,58.4037283 C79.4613279,57.5075381 79.8766355,56.8258325 80.2974077,56.8640845 C80.7236445,56.9091673 80.9709164,57.6728415 80.8725541,58.5731301" id="Fill-27" fill="#170A4C"></path>
                    <path d="M84.4866868,68.4543095 L87.344659,68.2288959 C87.9006794,63.5484882 88.8665429,57.5825394 91.3597548,58.1262645 C93.2969463,58.549769 94.2218255,67.1646701 93.8830219,72.313665 C93.8830219,72.3382556 114.4831,69.8108901 114.4831,69.8108901 L113.315047,54.8693784 C112.9175,49.7832261 108.890108,45.717583 103.803956,45.2845155 L82.0631482,43.3992374 L80.2598387,47.831007 L85.8323382,52.4485721 L84.4866868,68.4543095 Z" id="Fill-29" fill="#5450F5"></path>
                    <path d="M114.4831,69.8104802 L115.106061,89.0252888 C106.981606,93.5718144 106.03077,93.4584245 93.2791865,94.8368633 L90.6111082,83.1904898 L114.4831,69.8104802 Z" id="Fill-31" fill="#170A4C"></path>
                    <path d="M128.096447,190.422646 C138.3152,269.490935 131.107427,302.405431 135.529634,367.384681 C135.868437,372.295967 136.059697,373.737248 136.059697,373.737248 L119.674172,375.156671 C102.534536,291.68257 112.428147,276.456901 84.3743898,199.088095 L128.096447,190.422646 Z" id="Fill-33" fill="#3431B0"></path>
                    <path d="M102.981674,200.718177 C82.3611041,333.235465 95.1796287,268.719337 82.5018169,339.828473 C79.2708875,358.178513 77.8733226,375.049019 77.8733226,375.049019 L60.6585482,374.583164 C60.6585482,374.583164 61.8115733,364.52425 61.494628,345.332665 C61.2364269,326.45666 60.8921587,301.288198 60.5465244,276.11837 C59.9672795,225.733631 64.3047852,197.789166 64.3047852,197.789166 L102.981674,200.718177 Z" id="Fill-35" fill="#3431B0"></path>
                    <path d="M63.6782718,202.593892 L129.443055,201.435403 L133.328367,120.602057 C133.152134,114.835565 131.149368,95.0428777 126.718964,91.3460934 C122.287195,87.6506752 114.635425,87.2667888 107.554703,87.0154184 L88.3808789,87.7626989 C84.0529362,87.9321007 79.8629741,89.3747483 76.3588159,91.9185075 C69.4229053,96.9541125 64.7138086,103.701495 64.165985,107.114122 L63.6782718,202.593892 Z" id="Fill-37" fill="#F5A396"></path>
                    <polygon id="Fill-39" fill="#5450F5" points="25.1541175 128.33115 19.0460899 127.531956 26.3904774 62.313631 32.4957728 63.1155573"></polygon>
                    <polygon id="Fill-41" fill="#170A4C" points="25.3209236 118.646832 29.4439448 111.909012 22.6979281 106.281867 19.4273805 114.355775"></polygon>
                    <polygon id="Fill-43" fill="#170A4C" points="25.9265351 120.389895 31.6670701 113.676665 25.7680624 109.382876 19.0835222 115.419865"></polygon>
                    <path d="M21.7801529,108.616197 C22.3156811,108.998717 23.0752569,108.883961 23.4673401,108.348433 C23.8484942,107.819735 23.7310058,107.053328 23.2009421,106.688568 L20.858006,104.960397 C20.3416037,104.573778 19.5847602,104.685802 19.1981416,105.234991 C18.8087907,105.765055 18.9262791,106.509603 19.468638,106.889391 L21.7801529,108.616197 Z" id="Fill-45" fill="#170A4C"></path>
                    <path d="M29.2685319,113.973392 C29.4283707,114.605916 30.0677259,115.013027 30.7221087,114.855921 C31.3478024,114.711109 31.7521809,114.056727 31.6032712,113.417371 L30.2453246,107.880392 C30.0936826,107.245135 29.4474968,106.846221 28.7972124,107.012891 C28.1510266,107.159068 27.7603095,107.803888 27.9201483,108.441877 L29.2685319,113.973392 Z" id="Fill-47" fill="#170A4C"></path>
                    <path d="M21.0864252,111.026347 C21.6164889,111.408867 22.3706001,111.309139 22.759951,110.769512 C23.1520342,110.224421 23.0345459,109.479873 22.4908207,109.086423 L20.1697429,107.377378 C19.6369469,106.992125 18.885568,107.100051 18.4975832,107.635579 C18.1000355,108.182036 18.228453,108.918388 18.7598828,109.310471 L21.0864252,111.026347 Z" id="Fill-49" fill="#170A4C"></path>
                    <path d="M20.4593653,113.480351 C20.998992,113.857406 21.7394418,113.74265 22.131525,113.21122 C22.5113129,112.677058 22.4143167,111.920215 21.8637609,111.539061 L19.5440492,109.827283 C19.0085209,109.4352 18.2407482,109.549956 17.8691572,110.093681 C17.4716094,110.626477 17.5945624,111.366927 18.1232599,111.756278 L20.4593653,113.480351 Z" id="Fill-51" fill="#170A4C"></path>
                    <path d="M19.9963793,116.059903 C20.5332737,116.458817 21.2778219,116.344061 21.6685389,115.797603 C22.0524253,115.273004 21.9281062,114.522991 21.392578,114.135007 L19.0742324,112.420497 C18.5318734,112.03661 17.7900575,112.148634 17.3843129,112.685528 C17.0072573,113.214226 17.1315763,113.976534 17.6561754,114.35359 L19.9963793,116.059903 Z" id="Fill-53" fill="#170A4C"></path>
                    <polygon id="Fill-55" fill="#170A4C" points="31.6673434 113.676529 25.4992054 120.034561 31.6673434 132.224659 39.4584598 128.098906"></polygon>
                    <path d="M155.83968,210.387195 C154.552772,197.75993 152.946188,180.851172 150.636039,163.751153 C147.263031,138.779416 142.843556,109.568535 126.911591,91.2813382 L101.907066,117.609656 C101.963078,117.654739 103.774584,119.09602 103.841525,119.124709 L103.938521,119.100119 C111.322527,122.265473 124.561824,109.595858 133.478643,161.594013 C133.581103,162.191017 147.028054,233.103429 147.028054,233.68404 L158.061029,231.345202 C158.061029,231.345202 157.093799,223.017191 155.83968,210.387195" id="Fill-57" fill="#F5A396"></path>
                    <path d="M51.3376242,141.479735 C45.3320573,135.50559 40.1516411,126.202152 37.6324724,122.114651 C36.2048524,119.76625 35.3878986,118.426063 35.3878986,118.426063 L23.8658442,123.682984 C23.8658442,123.682984 24.3945417,125.23219 25.3221532,127.942619 C53.8759188,209.758222 70.5824879,132.225479 88.6292438,114.886386 L64.4252791,106.084323 C54.515274,131.278742 53.1641581,138.127219 51.3376242,141.479735" id="Fill-59" fill="#F5A396"></path>
                    <g id="Group-63">
                        <mask id="mask-4" fill="white">
                            <use xlink:href="#path-3"></use>
                        </mask>
                        <g id="Clip-62"></g>
                        <path d="M38.921019,5.68643578 C23.9152986,2.13446263 8.81668042,11.4542937 5.26334113,26.4600141 C1.71136798,41.4671006 11.0339313,56.5643527 26.0355533,60.1163258 C41.044006,63.6669328 56.1426242,54.3471017 59.6932312,39.3413813 C63.2465704,24.3356609 53.9253732,9.23840892 38.921019,5.68643578 M25.0000165,64.5030126 C7.57348982,60.3786254 -3.24909913,42.8482717 0.876654295,25.4231112 C5.00240772,7.99521832 22.5327613,-2.82463834 39.9579219,1.2983828 C57.3871809,5.42277008 68.2070376,22.9544898 64.0826503,40.3810166 C59.9568969,57.8061771 42.423811,68.6273999 25.0000165,64.5030126" id="Fill-61" fill="#5450F5" mask="url(#mask-4)"></path>
                    </g>
                    <path d="M117.698319,87.816525 L117.698319,84.8492613 C117.698319,84.8492613 96.0203534,84.0828548 91.7320289,84.8492613 L87.4833226,87.816525 L116.62453,89.59661 L117.698319,88.1416672" id="Fill-64" fill="#F5A396"></path>
                    <polygon id="Fill-66" fill="#F4667E" points="131.138302 210.818759 62.8188309 210.818759 63.4281309 204.78587 129.755765 204.191597"></polygon>
                    <mask id="mask-6" fill="white">
                        <use xlink:href="#path-5"></use>
                    </mask>
                    <g id="Clip-69"></g>
                    <polygon id="Fill-68" fill="#3431B0" mask="url(#mask-6)" points="69.098173 212.838329 71.6952118 212.838329 71.6952118 203.459754 69.098173 203.459754"></polygon>
                    <polygon id="Fill-70" fill="#3431B0" mask="url(#mask-6)" points="97.6669662 212.550073 100.259907 212.550073 100.259907 203.171498 97.6669662 203.171498"></polygon>
                    <polygon id="Fill-71" fill="#3431B0" mask="url(#mask-6)" points="123.637354 212.194876 126.230295 212.194876 126.230295 202.8163 123.637354 202.8163"></polygon>
                    <path d="M24.5444077,11.8648198 C28.5977555,10.3292745 33.133352,9.94402205 37.6593854,11.0150786 M10.469031,37.5168967 C9.8064514,34.3774989 9.80781754,31.046841 10.5947162,27.7216476 C11.9567613,21.9633527 15.4349627,17.2460592 20.0088112,14.198193" id="Stroke-72" stroke="#FFFFFF" stroke-width="1.781" stroke-linecap="round" mask="url(#mask-6)"></path>
                </g>
            </g>
        </g>
    </g>
</svg>