<?xml version="1.0" encoding="UTF-8"?>
<svg width="958px" height="235px" viewBox="0 0 958 235" version="1.1" xmlns="http://www.w3.org/2000/svg" xmlns:xlink="http://www.w3.org/1999/xlink">
    <!-- Generator: Sketch 49.2 (51160) - http://www.bohemiancoding.com/sketch -->
    <title>brain-clouds</title>
    <desc>Created with Sketch.</desc>
    <defs></defs>
    <g id="Page-1" stroke="none" stroke-width="1" fill="none" fill-rule="evenodd">
        <g id="Desktop-HD" transform="translate(-241.000000, -2415.000000)">
            <g id="brain-clouds" transform="translate(243.000000, 2416.000000)">
                <g id="Group-41" transform="translate(0.000000, 100.000000)">
                    <path d="M241.68068,81.9257145 L240.833571,81.9257145 C244.143728,77.6375371 246.117812,72.2660532 246.117812,66.4290694 C246.117812,52.4093677 234.756908,41.0453758 220.742089,41.0453758 C217.740752,41.0453758 214.862728,41.5698677 212.190583,42.5266097 C212.190583,42.5040855 212.192728,42.4815613 212.192728,42.4579645 C212.192728,25.7299968 198.635776,12.1704323 181.913427,12.1704323 C174.145764,12.1704323 167.065439,15.0985774 161.705065,19.908029 C157.440571,8.29519839 146.288764,0.00951290323 133.200402,0.00951290323 C120.112041,0.00951290323 108.959161,8.29519839 104.69574,19.908029 C99.3353663,15.0985774 92.2539687,12.1704323 84.4873783,12.1704323 C67.7650289,12.1704323 54.2080771,25.7299968 54.2080771,42.4579645 C54.2080771,42.4815613 54.2102217,42.5040855 54.2102217,42.5266097 C51.5380771,41.5698677 48.660053,41.0453758 45.6587157,41.0453758 C31.6438964,41.0453758 20.2819205,52.4093677 20.2819205,66.4290694 C20.2819205,72.2660532 22.2570771,77.6375371 25.5672337,81.9257145 L24.7201253,81.9257145 C11.1299325,81.9257145 0.0102939759,93.0483758 0.0102939759,106.64119 C0.0102939759,120.235077 11.1299325,131.357739 24.7201253,131.357739 L241.68068,131.357739 C255.270872,131.357739 266.390511,120.235077 266.390511,106.64119 C266.390511,93.0483758 255.270872,81.9257145 241.68068,81.9257145" id="Fill-1" fill="#3431B0"></path>
                    <path d="M241.68068,81.9257145 L240.833571,81.9257145 C244.143728,77.6375371 246.117812,72.2660532 246.117812,66.4290694 C246.117812,52.4093677 234.756908,41.0453758 220.742089,41.0453758 C217.740752,41.0453758 214.862728,41.5698677 212.190583,42.5266097 C212.190583,42.5040855 212.192728,42.4815613 212.192728,42.4579645 C212.192728,25.7299968 198.635776,12.1704323 181.913427,12.1704323 C174.145764,12.1704323 167.065439,15.0985774 161.705065,19.908029 C157.440571,8.29519839 146.288764,0.00951290323 133.200402,0.00951290323 C120.112041,0.00951290323 108.959161,8.29519839 104.69574,19.908029 C99.3353663,15.0985774 92.2539687,12.1704323 84.4873783,12.1704323 C67.7650289,12.1704323 54.2080771,25.7299968 54.2080771,42.4579645 C54.2080771,42.4815613 54.2102217,42.5040855 54.2102217,42.5266097 C51.5380771,41.5698677 48.660053,41.0453758 45.6587157,41.0453758 C31.6438964,41.0453758 20.2819205,52.4093677 20.2819205,66.4290694 C20.2819205,72.2660532 22.2570771,77.6375371 25.5672337,81.9257145 L24.7201253,81.9257145 C11.1299325,81.9257145 0.0102939759,93.0483758 0.0102939759,106.64119 C0.0102939759,120.235077 11.1299325,131.357739 24.7201253,131.357739 L241.68068,131.357739 C255.270872,131.357739 266.390511,120.235077 266.390511,106.64119 C266.390511,93.0483758 255.270872,81.9257145 241.68068,81.9257145 Z" id="Stroke-3" stroke="#5450F5" stroke-width="4.019"></path>
                    <g id="Group-8" transform="translate(187.650602, 81.588710)">
                        <path d="M0.264319277,0.337004839 L54.0299699,0.337004839" id="Fill-5" fill="#3431B0"></path>
                        <path d="M0.264319277,0.337004839 L54.0299699,0.337004839" id="Stroke-7" stroke="#5450F5" stroke-width="4.019"></path>
                    </g>
                    <g id="Group-12" transform="translate(24.662651, 81.588710)">
                        <path d="M0.0570457831,0.337004839 L66.5915157,0.337004839" id="Fill-9" fill="#3431B0"></path>
                        <path d="M0.0570457831,0.337004839 L66.5915157,0.337004839" id="Stroke-11" stroke="#5450F5" stroke-width="4.019"></path>
                    </g>
                    <g id="Group-16" transform="translate(45.036145, 40.830645)">
                        <path d="M0.622463855,0.214945161 C10.943247,0.214945161 19.8260904,6.37906613 23.7903434,15.2267839" id="Fill-13" fill="#3431B0"></path>
                        <path d="M0.622463855,0.214945161 C10.943247,0.214945161 19.8260904,6.37906613 23.7903434,15.2267839" id="Stroke-15" stroke="#5450F5" stroke-width="4.019"></path>
                    </g>
                    <g id="Group-20" transform="translate(197.301205, 40.830645)">
                        <path d="M0.058546988,15.717704 C3.91128193,6.60720403 12.9292337,0.214623387 23.4408843,0.214623387 C37.4557036,0.214623387 48.8166072,11.5796879 48.8166072,25.5983169" id="Fill-17" fill="#3431B0"></path>
                        <path d="M0.058546988,15.717704 C3.91128193,6.60720403 12.9292337,0.214623387 23.4408843,0.214623387 C37.4557036,0.214623387 48.8166072,11.5796879 48.8166072,25.5983169" id="Stroke-19" stroke="#5450F5" stroke-width="4.019"></path>
                    </g>
                    <g id="Group-24" transform="translate(53.614458, 11.870968)">
                        <path d="M0.593619277,30.587104 C0.593619277,13.8591363 14.1505711,0.299571774 30.8729205,0.299571774 C45.5053783,0.299571774 57.7144627,10.6810798 60.5367277,24.4830476" id="Fill-21" fill="#3431B0"></path>
                        <path d="M0.593619277,30.587104 C0.593619277,13.8591363 14.1505711,0.299571774 30.8729205,0.299571774 C45.5053783,0.299571774 57.7144627,10.6810798 60.5367277,24.4830476" id="Stroke-23" stroke="#5450F5" stroke-width="4.019"></path>
                    </g>
                    <g id="Group-28" transform="translate(91.144578, 42.975806)">
                        <path d="M0.109909639,38.9499081 C10.7180663,38.9499081 19.3178253,30.3478113 19.3178253,19.736771 C19.3178253,9.12680323 10.7180663,0.524706452 0.109909639,0.524706452" id="Fill-25" fill="#3431B0"></path>
                        <path d="M0.109909639,38.9499081 C10.7180663,38.9499081 19.3178253,30.3478113 19.3178253,19.736771 C19.3178253,9.12680323 10.7180663,0.524706452 0.109909639,0.524706452" id="Stroke-27" stroke="#5450F5" stroke-width="4.019"></path>
                    </g>
                    <g id="Group-32" transform="translate(190.867470, 106.258065)">
                        <path d="M0.401036145,0.383662097 C7.19613253,0.383662097 12.7548795,5.94499274 12.7548795,12.7419363 C12.7548795,19.5388798 7.19613253,25.0991379 0.401036145,25.0991379" id="Fill-29" fill="#3431B0"></path>
                        <path d="M0.401036145,0.383662097 C7.19613253,0.383662097 12.7548795,5.94499274 12.7548795,12.7419363 C12.7548795,19.5388798 7.19613253,25.0991379 0.401036145,25.0991379" id="Stroke-31" stroke="#5450F5" stroke-width="4.019"></path>
                    </g>
                    <g id="Group-36" transform="translate(53.614458, 101.967742)">
                        <path d="M0.483173494,0.858064516 L10.7299687,0.858064516 C18.5737639,0.858064516 24.9914145,7.27745968 24.9914145,15.1244597 C24.9914145,22.9703871 18.5737639,29.3897823 10.7299687,29.3897823" id="Fill-33" fill="#3431B0"></path>
                        <path d="M0.483173494,0.858064516 L10.7299687,0.858064516 C18.5737639,0.858064516 24.9914145,7.27745968 24.9914145,15.1244597 C24.9914145,22.9703871 18.5737639,29.3897823 10.7299687,29.3897823" id="Stroke-35" stroke="#5450F5" stroke-width="4.019"></path>
                    </g>
                    <g id="Group-40" transform="translate(136.180723, 19.379032)">
                        <path d="M25.5239133,0.528675 C13.5518048,11.2319573 11.6699373,21.6670944 0.374443373,21.6670944" id="Fill-37" fill="#3431B0"></path>
                        <path d="M25.5239133,0.528675 C13.5518048,11.2319573 11.6699373,21.6670944 0.374443373,21.6670944" id="Stroke-39" stroke="#5450F5" stroke-width="4.019"></path>
                    </g>
                </g>
                <g id="Group-92" transform="translate(632.000000, 0.000000)">
                    <path d="M144.879773,154.826618 L145.503241,154.826618 C143.068389,151.671352 141.614345,147.718412 141.614345,143.422999 C141.614345,133.106922 149.973754,124.743695 160.28405,124.743695 C162.492479,124.743695 164.610768,125.130186 166.576678,125.834457 C166.576678,125.81728 166.575605,125.800103 166.575605,125.783999 C166.575605,113.474274 176.548949,103.495303 188.853054,103.495303 C194.567285,103.495303 199.77716,105.651061 203.720784,109.189597 C206.85744,100.643861 215.062323,94.548046 224.692277,94.548046 C234.32223,94.548046 242.527114,100.643861 245.66377,109.189597 C249.607393,105.651061 254.817269,103.495303 260.531499,103.495303 C272.834532,103.495303 282.808949,113.474274 282.808949,125.783999 C282.808949,125.800103 282.807876,125.81728 282.807876,125.834457 C284.773785,125.130186 286.891002,124.743695 289.099431,124.743695 C299.410799,124.743695 307.769135,133.106922 307.769135,143.422999 C307.769135,147.718412 306.316165,151.671352 303.881313,154.826618 L304.504781,154.826618 C314.502806,154.826618 322.684081,163.011629 322.684081,173.01422 C322.684081,183.017884 314.502806,191.201822 304.504781,191.201822 L144.879773,191.201822 C134.881748,191.201822 126.700473,183.017884 126.700473,173.01422 C126.700473,163.011629 134.881748,154.826618 144.879773,154.826618" id="Fill-44" fill="#3431B0"></path>
                    <path d="M144.879773,154.826618 L145.503241,154.826618 C143.068389,151.671352 141.614345,147.718412 141.614345,143.422999 C141.614345,133.106922 149.973754,124.743695 160.28405,124.743695 C162.492479,124.743695 164.610768,125.130186 166.576678,125.834457 C166.576678,125.81728 166.575605,125.800103 166.575605,125.783999 C166.575605,113.474274 176.548949,103.495303 188.853054,103.495303 C194.567285,103.495303 199.77716,105.651061 203.720784,109.189597 C206.85744,100.643861 215.062323,94.548046 224.692277,94.548046 C234.32223,94.548046 242.527114,100.643861 245.66377,109.189597 C249.607393,105.651061 254.817269,103.495303 260.531499,103.495303 C272.834532,103.495303 282.808949,113.474274 282.808949,125.783999 C282.808949,125.800103 282.807876,125.81728 282.807876,125.834457 C284.773785,125.130186 286.891002,124.743695 289.099431,124.743695 C299.410799,124.743695 307.769135,133.106922 307.769135,143.422999 C307.769135,147.718412 306.316165,151.671352 303.881313,154.826618 L304.504781,154.826618 C314.502806,154.826618 322.684081,163.011629 322.684081,173.01422 C322.684081,183.017884 314.502806,191.201822 304.504781,191.201822 L144.879773,191.201822 C134.881748,191.201822 126.700473,183.017884 126.700473,173.01422 C126.700473,163.011629 134.881748,154.826618 144.879773,154.826618 Z" id="Stroke-46" stroke="#5450F5" stroke-width="2.68"></path>
                    <g id="Group-51" transform="translate(271.491446, 124.535849)">
                        <path d="M17.6074479,0.20838283 C10.0142286,0.20838283 3.47908087,4.74427906 0.561335925,11.2555715" id="Fill-48" fill="#3431B0"></path>
                        <path d="M17.6074479,0.20838283 C10.0142286,0.20838283 3.47908087,4.74427906 0.561335925,11.2555715" id="Stroke-50" stroke="#5450F5" stroke-width="2.68"></path>
                    </g>
                    <g id="Group-55" transform="translate(141.573872, 124.535849)">
                        <path d="M35.9138196,11.6168328 C33.079776,4.91229509 26.4448305,0.208919623 18.7110358,0.208919623 C8.39966719,0.208919623 0.0402581649,8.57107245 0.0402581649,18.8871498" id="Fill-52" fill="#3431B0"></path>
                        <path d="M35.9138196,11.6168328 C33.079776,4.91229509 26.4448305,0.208919623 18.7110358,0.208919623 C8.39966719,0.208919623 0.0402581649,8.57107245 0.0402581649,18.8871498" id="Stroke-54" stroke="#5450F5" stroke-width="2.68"></path>
                    </g>
                    <g id="Group-59" transform="translate(238.225505, 103.064151)">
                        <path d="M44.5836579,22.7196332 C44.5836579,10.4109823 34.6092411,0.432010566 22.3062084,0.432010566 C11.5398476,0.432010566 2.55804355,8.07164075 0.480531882,18.227754" id="Fill-56" fill="#3431B0"></path>
                        <path d="M44.5836579,22.7196332 C44.5836579,10.4109823 34.6092411,0.432010566 22.3062084,0.432010566 C11.5398476,0.432010566 2.55804355,8.07164075 0.480531882,18.227754" id="Stroke-58" stroke="#5450F5" stroke-width="2.68"></path>
                    </g>
                    <g id="Group-63" transform="translate(172.766719, 172.847170)">
                        <path d="M9.2029689,0.167479245 C4.20341991,0.167479245 0.112782271,4.25998491 0.112782271,9.2607434 C0.112782271,14.2625755 4.20341991,18.3550811 9.2029689,18.3550811" id="Fill-60" fill="#3431B0"></path>
                        <path d="M9.2029689,0.167479245 C4.20341991,0.167479245 0.112782271,4.25998491 0.112782271,9.2607434 C0.112782271,14.2625755 4.20341991,18.3550811 9.2029689,18.3550811" id="Stroke-62" stroke="#5450F5" stroke-width="2.68"></path>
                    </g>
                    <path d="M92.9762131,31.7685583 L92.6521384,31.7685583 C93.9183904,30.1291942 94.672776,28.0764998 94.672776,25.8445168 C94.672776,20.4862545 90.3299611,16.14253 84.9741446,16.14253 C83.8280793,16.14253 82.727084,16.3422168 81.7065708,16.7083092 L81.7065708,16.6825432 C81.7065708,10.2882715 76.5256687,5.10500358 70.1353888,5.10500358 C67.1661353,5.10500358 64.4608631,6.22475264 62.412325,8.06273 C60.7822939,3.62345642 56.5199611,0.456380943 51.5182659,0.456380943 C46.5154977,0.456380943 42.2531649,3.62345642 40.6242068,8.06273 C38.5756687,6.22475264 35.8693235,5.10500358 32.9011431,5.10500358 C26.5108631,5.10500358 21.328888,10.2882715 21.328888,16.6825432 L21.328888,16.7083092 C20.3083748,16.3422168 19.2084526,16.14253 18.0613142,16.14253 C12.7054977,16.14253 8.36268274,20.4862545 8.36268274,25.8445168 C8.36268274,28.0764998 9.11814152,30.1291942 10.3833204,31.7685583 L10.0592457,31.7685583 C4.86546656,31.7685583 0.616010886,36.0199545 0.616010886,41.2161055 C0.616010886,46.4122564 4.86546656,50.6636526 10.0592457,50.6636526 L92.9762131,50.6636526 C98.1710653,50.6636526 102.420521,46.4122564 102.420521,41.2161055 C102.420521,36.0199545 98.1710653,31.7685583 92.9762131,31.7685583" id="Fill-64" fill="#3431B0"></path>
                    <path d="M92.9762131,31.7685583 L92.6521384,31.7685583 C93.9183904,30.1291942 94.672776,28.0764998 94.672776,25.8445168 C94.672776,20.4862545 90.3299611,16.14253 84.9741446,16.14253 C83.8280793,16.14253 82.727084,16.3422168 81.7065708,16.7083092 L81.7065708,16.6825432 C81.7065708,10.2882715 76.5256687,5.10500358 70.1353888,5.10500358 C67.1661353,5.10500358 64.4608631,6.22475264 62.412325,8.06273 C60.7822939,3.62345642 56.5199611,0.456380943 51.5182659,0.456380943 C46.5154977,0.456380943 42.2531649,3.62345642 40.6242068,8.06273 C38.5756687,6.22475264 35.8693235,5.10500358 32.9011431,5.10500358 C26.5108631,5.10500358 21.328888,10.2882715 21.328888,16.6825432 L21.328888,16.7083092 C20.3083748,16.3422168 19.2084526,16.14253 18.0613142,16.14253 C12.7054977,16.14253 8.36268274,20.4862545 8.36268274,25.8445168 C8.36268274,28.0764998 9.11814152,30.1291942 10.3833204,31.7685583 L10.0592457,31.7685583 C4.86546656,31.7685583 0.616010886,36.0199545 0.616010886,41.2161055 C0.616010886,46.4122564 4.86546656,50.6636526 10.0592457,50.6636526 L92.9762131,50.6636526 C98.1710653,50.6636526 102.420521,46.4122564 102.420521,41.2161055 C102.420521,36.0199545 98.1710653,31.7685583 92.9762131,31.7685583 Z" id="Stroke-66" stroke="#5450F5" stroke-width="1.876"></path>
                    <g id="Group-71" transform="translate(71.895801, 31.133962)">
                        <path d="M0.533328149,0.634596038 L21.0798756,0.634596038" id="Fill-68" fill="#3431B0"></path>
                        <path d="M0.533328149,0.634596038 L21.0798756,0.634596038" id="Stroke-70" stroke="#5450F5" stroke-width="1.876"></path>
                    </g>
                    <g id="Group-75" transform="translate(17.167963, 16.103774)">
                        <path d="M0.893780715,0.0385416981 C4.83847745,0.0385416981 8.23267652,2.39398698 9.74788647,5.77685302" id="Fill-72" fill="#3431B0"></path>
                        <path d="M0.893780715,0.0385416981 C4.83847745,0.0385416981 8.23267652,2.39398698 9.74788647,5.77685302" id="Stroke-74" stroke="#5450F5" stroke-width="1.876"></path>
                    </g>
                    <g id="Group-79" transform="translate(75.115086, 16.103774)">
                        <path d="M0.923183515,5.96419358 C2.39546967,2.48148415 5.84225039,0.0380049057 9.85884448,0.0380049057 C15.214661,0.0380049057 19.5574759,4.38280302 19.5574759,9.74106528" id="Fill-76" fill="#3431B0"></path>
                        <path d="M0.923183515,5.96419358 C2.39546967,2.48148415 5.84225039,0.0380049057 9.85884448,0.0380049057 C15.214661,0.0380049057 19.5574759,4.38280302 19.5574759,9.74106528" id="Stroke-78" stroke="#5450F5" stroke-width="1.876"></path>
                    </g>
                    <g id="Group-83" transform="translate(20.387247, 4.294340)">
                        <path d="M0.942069984,12.3878815 C0.942069984,5.99360981 6.12297201,0.810341887 12.5132519,0.810341887 C18.1062224,0.810341887 22.7720389,4.77938528 23.8515723,10.0549815" id="Fill-80" fill="#3431B0"></path>
                        <path d="M0.942069984,12.3878815 C0.942069984,5.99360981 6.12297201,0.810341887 12.5132519,0.810341887 C18.1062224,0.810341887 22.7720389,4.77938528 23.8515723,10.0549815" id="Stroke-82" stroke="#5450F5" stroke-width="1.876"></path>
                    </g>
                </g>
            </g>
        </g>
    </g>
</svg>