<?xml version="1.0" encoding="UTF-8"?>
<svg width="437px" height="217px" viewBox="0 0 437 217" version="1.1" xmlns="http://www.w3.org/2000/svg" xmlns:xlink="http://www.w3.org/1999/xlink">
    <!-- Generator: Sketch 49.2 (51160) - http://www.bohemiancoding.com/sketch -->
    <title>Page 1</title>
    <desc>Created with Sketch.</desc>
    <defs>
        <polygon id="path-1" points="0 0.0838008025 435.308662 0.0838008025 435.308662 216.410842 0 216.410842"></polygon>
        <polygon id="path-3" points="0 216.929875 435.308798 216.929875 435.308798 0.602423943 0 0.602423943"></polygon>
    </defs>
    <g id="Page-1" stroke="none" stroke-width="1" fill="none" fill-rule="evenodd">
        <g transform="translate(0.845595, -0.449044)">
            <path d="M393.532386,135.091362 L392.158315,135.091362 C397.524842,128.141784 400.726456,119.434324 400.726456,109.972901 C400.726456,87.2515525 382.306251,68.8313479 359.584903,68.8313479 C354.718286,68.8313479 350.052454,69.6822887 345.719895,71.232558 C345.719895,71.1943135 345.722627,71.1574348 345.722627,71.1205562 C345.722627,44.0079164 323.742949,22.0296047 296.631675,22.0296047 C284.039664,22.0296047 272.558109,26.776024 263.868406,34.5697128 C256.955707,15.7479407 238.87424,2.31864721 217.653989,2.31864721 C196.435105,2.31864721 178.353638,15.7479407 171.440939,34.5697128 C162.751235,26.776024 151.271047,22.0296047 138.67767,22.0296047 C111.56503,22.0296047 89.5867182,44.0079164 89.5867182,71.1205562 C89.5867182,71.1574348 89.5894499,71.1943135 89.5894499,71.232558 C85.2568911,69.6822887 80.5910584,68.8313479 75.724442,68.8313479 C53.0030937,68.8313479 34.5828892,87.2515525 34.5828892,109.972901 C34.5828892,119.434324 37.7845027,128.141784 43.1510297,135.091362 L41.7769584,135.091362 C19.7440116,135.091362 1.71717938,153.118194 1.71717938,175.152506 C1.71717938,197.185453 19.7440116,215.213651 41.7769584,215.213651 L393.532386,215.213651 C415.565333,215.213651 433.592165,197.185453 433.592165,175.152506 C433.592165,153.118194 415.565333,135.091362 393.532386,135.091362" id="Fill-1" fill="#F76381"></path>
            <g id="Group-5" transform="translate(0.000000, 0.519033)">
                <mask id="mask-2" fill="white">
                    <use xlink:href="#path-1"></use>
                </mask>
                <g id="Clip-4"></g>
                <path d="M41.7765486,136.288962 C20.6341531,136.288962 3.43367583,153.489439 3.43367583,174.6332 C3.43367583,195.775596 20.6341531,212.977439 41.7765486,212.977439 L393.531977,212.977439 C414.674372,212.977439 431.876215,195.776962 431.876215,174.6332 C431.876215,153.490805 414.674372,136.288962 393.531977,136.288962 L388.663994,136.288962 L390.798859,133.523063 C396.170849,126.568022 399.00914,118.245739 399.00914,109.454961 C399.00914,87.7156772 381.323776,70.028948 359.584493,70.028948 C355.033394,70.028948 350.562882,70.8033998 346.298617,72.3304492 L344.003945,73.1513407 L344.003945,70.7132519 C344.005311,44.4788704 322.753645,23.2272048 296.631265,23.2272048 C284.942098,23.2272048 273.715963,27.5256168 265.015332,35.3288667 L263.130423,37.0198213 L262.257628,34.6431969 C255.418687,16.0263062 237.494295,3.51624734 217.654946,3.51624734 C197.812864,3.51624734 179.889838,16.0263062 173.052263,34.6431969 L172.180834,37.0198213 L170.295925,35.3288667 C161.593928,27.5256168 150.365061,23.2272048 138.67726,23.2272048 C112.55488,23.2272048 91.3032146,44.4788704 91.3032146,70.6012501 L91.3032146,73.0393389 L89.0099087,72.3304492 C84.7456436,70.8033998 80.2764972,70.028948 75.7240323,70.028948 C53.9847489,70.028948 36.2993856,87.7156772 36.2993856,109.454961 C36.2993856,118.245739 39.1376761,126.568022 44.5096666,133.523063 L46.6445309,136.288962 L41.7765486,136.288962 Z M393.531977,216.411251 L41.7765486,216.411251 C18.7410489,216.411251 -0.000136587606,197.670066 -0.000136587606,174.6332 C-0.000136587606,152.242394 17.7043489,133.90824 39.8506634,132.898857 C35.2695151,125.928792 32.8669391,117.889245 32.8669391,109.454961 C32.8669391,85.8225729 52.0930105,66.5965015 75.7240323,66.5965015 C79.8790272,66.5965015 83.9739237,67.1892917 87.9254031,68.3639451 C89.1505939,41.3277944 111.447155,19.7933924 138.67726,19.7933924 C150.395111,19.7933924 161.68271,23.8213609 170.727542,31.1834328 C178.642793,12.4845896 197.199586,0.0838008025 217.654946,0.0838008025 C238.10894,0.0838008025 256.664366,12.4845896 264.580984,31.1834328 C273.625815,23.8213609 284.912049,19.7933924 296.631265,19.7933924 C323.896883,19.7933924 346.215298,41.3810635 347.391317,68.3612134 C351.341431,67.1892917 355.43223,66.5965015 359.584493,66.5965015 C383.216881,66.5965015 402.442952,85.8225729 402.442952,109.454961 C402.442952,117.889245 400.03901,125.928792 395.457862,132.898857 C417.604176,133.90824 435.308662,152.242394 435.308662,174.6332 C435.308662,197.6687 416.567476,216.411251 393.531977,216.411251 Z" id="Fill-3" fill="#FFFFFF" mask="url(#mask-2)"></path>
            </g>
            <path d="M306.363132,135.091362 L393.531977,135.091362" id="Fill-6" fill="#FFFFFF"></path>
            <path d="M393.532386,136.807995 L306.363542,136.807995 C305.414258,136.807995 304.646636,136.040372 304.646636,135.091088 C304.646636,134.14317 305.414258,133.374182 306.363542,133.374182 L393.532386,133.374182 C394.480304,133.374182 395.249293,134.14317 395.249293,135.091088 C395.249293,136.040372 394.480304,136.807995 393.532386,136.807995" id="Fill-8" fill="#FFFFFF"></path>
            <path d="M41.7765486,135.091362 L149.649342,135.091362" id="Fill-10" fill="#FFFFFF"></path>
            <mask id="mask-4" fill="white">
                <use xlink:href="#path-3"></use>
            </mask>
            <g id="Clip-13"></g>
            <polygon id="Fill-12" fill="#FFFFFF" mask="url(#mask-4)" points="41.7766852 136.807585 149.649479 136.807585 149.649479 133.373772 41.7766852 133.373772"></polygon>
            <path d="M113.289039,94.8806532 C112.633418,94.8806532 112.007847,94.5023055 111.721013,93.8658073 C105.372421,79.7016725 91.2424331,70.548937 75.7247152,70.548937 C74.7767972,70.548937 74.007809,69.7799488 74.007809,68.8320308 C74.007809,67.882747 74.7767972,67.1151246 75.7247152,67.1151246 C92.5946504,67.1151246 107.953927,77.0641659 114.854333,92.4616867 C115.242241,93.3262863 114.854333,94.342498 113.989733,94.7304068 C113.762998,94.8314817 113.523969,94.8806532 113.289039,94.8806532" id="Fill-14" fill="#FFFFFF" mask="url(#mask-4)"></path>
            <path d="M400.725909,111.69008 C399.777991,111.69008 399.009003,110.922458 399.009003,109.973174 C399.009003,88.2352564 381.32364,70.5485273 359.584356,70.5485273 C343.703315,70.5485273 329.443569,80.0003896 323.254785,94.6275564 C322.887364,95.5003512 321.876616,95.910114 321.006553,95.5399616 C320.132392,95.171175 319.723995,94.1631585 320.094148,93.2903637 C326.819721,77.3888346 342.321049,67.1147149 359.584356,67.1147149 C383.216744,67.1147149 402.442815,86.3407863 402.442815,109.973174 C402.442815,110.922458 401.673827,111.69008 400.725909,111.69008" id="Fill-15" fill="#FFFFFF" mask="url(#mask-4)"></path>
            <path d="M89.5863084,72.8373258 C88.6383904,72.8373258 87.8694022,72.0697035 87.8694022,71.1204196 C87.8694022,43.1049357 110.661776,20.3125619 138.67726,20.3125619 C162.708483,20.3125619 183.6419,37.3750856 188.453881,60.8831785 C188.643738,61.8119742 188.045484,62.7189159 187.115323,62.9087727 C186.182429,63.1013612 185.280951,62.4990099 185.089728,61.5702142 C180.604192,39.6533669 161.085823,23.7463743 138.67726,23.7463743 C112.55488,23.7463743 91.3032146,44.9980399 91.3032146,71.1204196 C91.3032146,72.0697035 90.5342264,72.8373258 89.5863084,72.8373258" id="Fill-16" fill="#FFFFFF" mask="url(#mask-4)"></path>
            <path d="M149.648796,136.807995 C148.700878,136.807995 147.93189,136.040372 147.93189,135.091088 C147.93189,134.14317 148.700878,133.374182 149.648796,133.374182 C165.872672,133.374182 179.072498,120.175722 179.072498,103.95048 C179.072498,87.7266042 165.872672,74.5267779 149.648796,74.5267779 C148.700878,74.5267779 147.93189,73.7591556 147.93189,72.8112376 C147.93189,71.8619537 148.700878,71.0943314 149.648796,71.0943314 C167.767142,71.0943314 182.506311,85.8334999 182.506311,103.95048 C182.506311,122.068826 167.767142,136.807995 149.648796,136.807995" id="Fill-17" fill="#FFFFFF" mask="url(#mask-4)"></path>
            <path d="M311.798499,216.929875 C310.850581,216.929875 310.081593,216.162252 310.081593,215.212968 C310.081593,214.26505 310.850581,213.496062 311.798499,213.496062 C321.897787,213.496062 330.112166,205.280318 330.112166,195.182396 C330.112166,185.084474 321.897787,176.86873 311.798499,176.86873 C310.850581,176.86873 310.081593,176.101107 310.081593,175.153189 C310.081593,174.203905 310.850581,173.436283 311.798499,173.436283 C323.789525,173.436283 333.545978,183.19137 333.545978,195.182396 C333.545978,207.173422 323.789525,216.929875 311.798499,216.929875" id="Fill-18" fill="#FFFFFF" mask="url(#mask-4)"></path>
            <path d="M106.019436,216.929875 C105.071518,216.929875 104.30253,216.162252 104.30253,215.212968 C104.30253,214.26505 105.071518,213.496062 106.019436,213.496062 C117.823337,213.496062 127.425446,203.893953 127.425446,192.090053 C127.425446,180.286152 117.823337,170.684043 106.019436,170.684043 L89.4062859,170.684043 C88.458368,170.684043 87.6893797,169.916421 87.6893797,168.967137 C87.6893797,168.019219 88.458368,167.25023 89.4062859,167.25023 L106.019436,167.25023 C119.715076,167.25023 130.859259,178.393047 130.859259,192.090053 C130.859259,205.787058 119.715076,216.929875 106.019436,216.929875" id="Fill-19" fill="#FFFFFF" mask="url(#mask-4)"></path>
            <path d="M223.092635,70.5483907 C222.144717,70.5483907 221.375729,69.7807684 221.375729,68.8314845 C221.375729,67.8835665 222.144717,67.1145783 223.092635,67.1145783 C233.995057,67.1145783 238.958651,60.8110603 246.470969,51.2690501 C250.769381,45.8096435 255.641461,39.620859 262.724895,33.2900235 C263.431052,32.6603546 264.514192,32.7177214 265.149325,33.4266111 C265.780359,34.132769 265.720261,35.2186405 265.012737,35.8496752 C258.153307,41.9810929 253.380936,48.0428508 249.168575,53.3929874 C241.622109,62.9787056 235.661426,70.5483907 223.092635,70.5483907" id="Fill-20" fill="#FFFFFF" mask="url(#mask-4)"></path>
        </g>
    </g>
</svg>