<?xml version="1.0" encoding="UTF-8"?>
<svg width="989px" height="127px" viewBox="0 0 989 127" version="1.1" xmlns="http://www.w3.org/2000/svg" xmlns:xlink="http://www.w3.org/1999/xlink">
    <!-- Generator: Sketch 49.3 (51167) - http://www.bohemiancoding.com/sketch -->
    <title>brain-cloud-bottom</title>
    <desc>Created with Sketch.</desc>
    <defs></defs>
    <g id="Page-1" stroke="none" stroke-width="1" fill="none" fill-rule="evenodd">
        <g id="Desktop-HD" transform="translate(-177.000000, -9039.000000)">
            <g id="brain-cloud-bottom" transform="translate(179.000000, 9041.000000)">
                <path d="M225.3877,76.3826 L224.5977,76.3826 C227.6847,72.3846 229.5257,67.3756 229.5257,61.9346 C229.5257,48.8636 218.9307,38.2686 205.8607,38.2686 C203.0617,38.2686 200.3777,38.7576 197.8857,39.6496 C197.8857,39.6276 197.8877,39.6076 197.8877,39.5846 C197.8877,23.9896 185.2447,11.3476 169.6497,11.3476 C162.4057,11.3476 155.8017,14.0766 150.8037,18.5616 C146.8267,7.7346 136.4267,0.0096 124.2207,0.0096 C112.0147,0.0096 101.6137,7.7346 97.6377,18.5616 C92.6387,14.0766 86.0347,11.3476 78.7917,11.3476 C63.1967,11.3476 50.5537,23.9896 50.5537,39.5846 C50.5537,39.6076 50.5547,39.6276 50.5557,39.6496 C48.0637,38.7576 45.3797,38.2686 42.5807,38.2686 C29.5107,38.2686 18.9147,48.8636 18.9147,61.9346 C18.9147,67.3756 20.7567,72.3846 23.8437,76.3826 L23.0537,76.3826 C10.3797,76.3826 0.0097,86.7516 0.0097,99.4256 C0.0097,112.0996 10.3797,122.4696 23.0537,122.4696 L225.3877,122.4696 C238.0617,122.4696 248.4307,112.0996 248.4307,99.4256 C248.4307,86.7516 238.0617,76.3826 225.3877,76.3826" id="Fill-1" fill="#3431B0"></path>
                <path d="M225.3877,76.3826 L224.5977,76.3826 C227.6847,72.3846 229.5257,67.3756 229.5257,61.9346 C229.5257,48.8636 218.9307,38.2686 205.8607,38.2686 C203.0617,38.2686 200.3777,38.7576 197.8857,39.6496 C197.8857,39.6276 197.8877,39.6076 197.8877,39.5846 C197.8877,23.9896 185.2447,11.3476 169.6497,11.3476 C162.4057,11.3476 155.8017,14.0766 150.8037,18.5616 C146.8267,7.7346 136.4267,0.0096 124.2207,0.0096 C112.0147,0.0096 101.6137,7.7346 97.6377,18.5616 C92.6387,14.0766 86.0347,11.3476 78.7917,11.3476 C63.1967,11.3476 50.5537,23.9896 50.5537,39.5846 C50.5537,39.6076 50.5547,39.6276 50.5557,39.6496 C48.0637,38.7576 45.3797,38.2686 42.5807,38.2686 C29.5107,38.2686 18.9147,48.8636 18.9147,61.9346 C18.9147,67.3756 20.7567,72.3846 23.8437,76.3826 L23.0537,76.3826 C10.3797,76.3826 0.0097,86.7516 0.0097,99.4256 C0.0097,112.0996 10.3797,122.4696 23.0537,122.4696 L225.3877,122.4696 C238.0617,122.4696 248.4307,112.0996 248.4307,99.4256 C248.4307,86.7516 238.0617,76.3826 225.3877,76.3826 Z" id="Stroke-3" stroke="#5450F5" stroke-width="4.019"></path>
                <g id="Group-8" transform="translate(175.000000, 75.479000)">
                    <path d="M0.2466,0.9036 L50.3876,0.9036" id="Fill-5" fill="#3431B0"></path>
                    <path d="M0.2466,0.9036 L50.3876,0.9036" id="Stroke-7" stroke="#5450F5" stroke-width="4.019"></path>
                </g>
                <g id="Group-12" transform="translate(23.000000, 75.479000)">
                    <path d="M0.0532,0.9036 L62.1022,0.9036" id="Fill-9" fill="#3431B0"></path>
                    <path d="M0.0532,0.9036 L62.1022,0.9036" id="Stroke-11" stroke="#5450F5" stroke-width="4.019"></path>
                </g>
                <g id="Group-16" transform="translate(42.000000, 37.479000)">
                    <path d="M0.5805,0.7893 C10.2055,0.7893 18.4895,6.5363 22.1865,14.7853" id="Fill-13" fill="#3431B0"></path>
                    <path d="M0.5805,0.7893 C10.2055,0.7893 18.4895,6.5363 22.1865,14.7853" id="Stroke-15" stroke="#5450F5" stroke-width="4.019"></path>
                </g>
                <g id="Group-20" transform="translate(184.000000, 37.479000)">
                    <path d="M0.0547,15.2434 C3.6467,6.7494 12.0577,0.7894 21.8607,0.7894 C34.9307,0.7894 45.5257,11.3854 45.5257,24.4554" id="Fill-17" fill="#3431B0"></path>
                    <path d="M0.0547,15.2434 C3.6467,6.7494 12.0577,0.7894 21.8607,0.7894 C34.9307,0.7894 45.5257,11.3854 45.5257,24.4554" id="Stroke-19" stroke="#5450F5" stroke-width="4.019"></path>
                </g>
                <g id="Group-24" transform="translate(50.000000, 10.479000)">
                    <path d="M0.5537,29.1057 C0.5537,13.5107 13.1967,0.8687 28.7917,0.8687 C42.4377,0.8687 53.8237,10.5477 56.4557,23.4157" id="Fill-21" fill="#3431B0"></path>
                    <path d="M0.5537,29.1057 C0.5537,13.5107 13.1967,0.8687 28.7917,0.8687 C42.4377,0.8687 53.8237,10.5477 56.4557,23.4157" id="Stroke-23" stroke="#5450F5" stroke-width="4.019"></path>
                </g>
                <g id="Group-28" transform="translate(85.000000, 40.479000)">
                    <path d="M0.1025,35.9036 C9.9955,35.9036 18.0155,27.8836 18.0155,17.9906 C18.0155,8.0976 9.9955,0.0786 0.1025,0.0786" id="Fill-25" fill="#3431B0"></path>
                    <path d="M0.1025,35.9036 C9.9955,35.9036 18.0155,27.8836 18.0155,17.9906 C18.0155,8.0976 9.9955,0.0786 0.1025,0.0786" id="Stroke-27" stroke="#5450F5" stroke-width="4.019"></path>
                </g>
                <g id="Group-32" transform="translate(178.000000, 98.479000)">
                    <path d="M0.374,0.9465 C6.711,0.9465 11.895,6.1315 11.895,12.4685 C11.895,18.8055 6.711,23.9905 0.374,23.9905" id="Fill-29" fill="#3431B0"></path>
                    <path d="M0.374,0.9465 C6.711,0.9465 11.895,6.1315 11.895,12.4685 C11.895,18.8055 6.711,23.9905 0.374,23.9905" id="Stroke-31" stroke="#5450F5" stroke-width="4.019"></path>
                </g>
                <g id="Group-36" transform="translate(50.000000, 95.479000)">
                    <path d="M0.4507,0.3889 L10.0067,0.3889 C17.3217,0.3889 23.3067,6.3739 23.3067,13.6899 C23.3067,21.0049 17.3217,26.9909 10.0067,26.9909" id="Fill-33" fill="#3431B0"></path>
                    <path d="M0.4507,0.3889 L10.0067,0.3889 C17.3217,0.3889 23.3067,6.3739 23.3067,13.6899 C23.3067,21.0049 17.3217,26.9909 10.0067,26.9909" id="Stroke-35" stroke="#5450F5" stroke-width="4.019"></path>
                </g>
                <g id="Group-40" transform="translate(127.000000, 18.479000)">
                    <path d="M23.8032,0.0823 C12.6382,10.0613 10.8832,19.7893 0.3492,19.7893" id="Fill-37" fill="#3431B0"></path>
                    <path d="M23.8032,0.0823 C12.6382,10.0613 10.8832,19.7893 0.3492,19.7893" id="Stroke-39" stroke="#5450F5" stroke-width="4.019"></path>
                </g>
                <path d="M976.85,105.2088 L976.548,105.2088 C977.727,103.6828 978.43,101.7698 978.43,99.6908 C978.43,94.6998 974.384,90.6528 969.393,90.6528 C968.324,90.6528 967.299,90.8408 966.347,91.1808 L966.348,91.1648 C966.348,85.2008 961.52,80.3728 955.564,80.3728 C952.798,80.3728 950.276,81.4148 948.368,83.1278 C946.849,78.9928 942.876,76.0428 938.215,76.0428 C933.554,76.0428 929.582,78.9928 928.064,83.1278 C926.155,81.4148 923.633,80.3728 920.867,80.3728 C914.911,80.3728 910.083,85.2008 910.083,91.1558 L910.083,91.1808 C909.132,90.8408 908.107,90.6528 907.038,90.6528 C902.046,90.6528 898,94.6998 898,99.6908 C898,101.7698 898.704,103.6828 899.882,105.2088 L899.58,105.2088 C894.741,105.2088 890.781,109.1688 890.781,114.0088 C890.781,118.8488 894.741,122.8088 899.58,122.8088 L976.85,122.8088 C981.69,122.8088 985.65,118.8488 985.65,114.0088 C985.65,109.1688 981.69,105.2088 976.85,105.2088" id="Fill-41" fill="#3431B0"></path>
                <path d="M976.85,105.2088 L976.548,105.2088 C977.727,103.6828 978.43,101.7698 978.43,99.6908 C978.43,94.6998 974.384,90.6528 969.393,90.6528 C968.324,90.6528 967.299,90.8408 966.347,91.1808 L966.348,91.1648 C966.348,85.2008 961.52,80.3728 955.564,80.3728 C952.798,80.3728 950.276,81.4148 948.368,83.1278 C946.849,78.9928 942.876,76.0428 938.215,76.0428 C933.554,76.0428 929.582,78.9928 928.064,83.1278 C926.155,81.4148 923.633,80.3728 920.867,80.3728 C914.911,80.3728 910.083,85.2008 910.083,91.1558 L910.083,91.1808 C909.132,90.8408 908.107,90.6528 907.038,90.6528 C902.046,90.6528 898,94.6998 898,99.6908 C898,101.7698 898.704,103.6828 899.882,105.2088 L899.58,105.2088 C894.741,105.2088 890.781,109.1688 890.781,114.0088 C890.781,118.8488 894.741,122.8088 899.58,122.8088 L976.85,122.8088 C981.69,122.8088 985.65,118.8488 985.65,114.0088 C985.65,109.1688 981.69,105.2088 976.85,105.2088 Z" id="Stroke-43" stroke="#5450F5" stroke-width="1.876"></path>
                <g id="Group-48" transform="translate(957.000000, 104.479000)">
                    <path d="M0.7016,0.7298 L19.8496,0.7298" id="Fill-45" fill="#3431B0"></path>
                    <path d="M0.7016,0.7298 L19.8496,0.7298" id="Stroke-47" stroke="#5450F5" stroke-width="1.876"></path>
                </g>
                <g id="Group-52" transform="translate(907.000000, 90.479000)">
                    <path d="M0.0385,0.1741 C3.7145,0.1741 6.8775,2.3691 8.2895,5.5201" id="Fill-49" fill="#3431B0"></path>
                    <path d="M0.0385,0.1741 C3.7145,0.1741 6.8775,2.3691 8.2895,5.5201" id="Stroke-51" stroke="#5450F5" stroke-width="1.876"></path>
                </g>
                <g id="Group-56" transform="translate(961.000000, 90.479000)">
                    <path d="M0.0659,5.6946 C1.4369,2.4506 4.6489,0.1736 8.3929,0.1736 C13.3839,0.1736 17.4299,4.2206 17.4299,9.2126" id="Fill-53" fill="#3431B0"></path>
                    <path d="M0.0659,5.6946 C1.4369,2.4506 4.6489,0.1736 8.3929,0.1736 C13.3839,0.1736 17.4299,4.2206 17.4299,9.2126" id="Stroke-55" stroke="#5450F5" stroke-width="1.876"></path>
                </g>
                <g id="Group-60" transform="translate(910.000000, 79.479000)">
                    <path d="M0.0834,11.677 C0.0834,5.722 4.9104,0.894 10.8664,0.894 C16.0774,0.894 20.4264,4.59 21.4314,9.504" id="Fill-57" fill="#3431B0"></path>
                    <path d="M0.0834,11.677 C0.0834,5.722 4.9104,0.894 10.8664,0.894 C16.0774,0.894 20.4264,4.59 21.4314,9.504" id="Stroke-59" stroke="#5450F5" stroke-width="1.876"></path>
                </g>
            </g>
        </g>
    </g>
</svg>