<?xml version="1.0" encoding="UTF-8"?>
<svg width="284px" height="934px" viewBox="0 0 284 934" version="1.1" xmlns="http://www.w3.org/2000/svg" xmlns:xlink="http://www.w3.org/1999/xlink">
    <!-- Generator: Sketch 49.2 (51160) - http://www.bohemiancoding.com/sketch -->
    <title>curvey-line-1</title>
    <desc>Created with Sketch.</desc>
    <defs>
        <polygon id="path-1" points="0 0 283.1425 0 283.1425 933.366 0 933.366"></polygon>
    </defs>
    <g id="Page-1" stroke="none" stroke-width="1" fill="none" fill-rule="evenodd">
        <g id="Desktop-HD" transform="translate(-578.000000, -3308.000000)">
            <g id="curvey-line-1" transform="translate(578.000000, 3308.000000)">
                <mask id="mask-2" fill="white">
                    <use xlink:href="#path-1"></use>
                </mask>
                <g id="Clip-2"></g>
                <path d="M158.6455,933.366 L149.2665,933.366 L149.2665,833.835 C149.2665,823.485 150.9425,808.548 158.9215,796.162 C167.1715,783.359 180.3685,776.591 197.0855,776.591 C217.3125,776.591 236.4825,768.741 251.0665,754.487 C265.7035,740.181 273.7635,721.275 273.7635,701.253 C273.7635,659.711 239.9675,625.914 198.4255,625.914 C178.1265,625.914 159.2075,633.654 145.1535,647.709 C129.1225,664.045 107.6475,673.06 84.7165,673.06 C38.0035,673.06 -0.0005,635.056 -0.0005,588.343 C-0.0005,541.63 38.0035,503.626 84.7165,503.626 C107.6605,503.626 129.6895,512.477 145.1555,527.908 C159.3865,542.138 178.3045,549.972 198.4255,549.972 C239.9675,549.972 273.7635,516.176 273.7635,474.635 C273.7635,433.093 239.9675,399.296 198.4255,399.296 C178.2095,399.296 159.2875,407.039 145.1435,421.1 C129.1215,437.427 107.6465,446.442 84.7165,446.442 C38.0035,446.442 -0.0005,408.438 -0.0005,361.725 C-0.0005,315.012 38.0035,277.008 84.7165,277.008 C107.6615,277.008 129.6885,285.858 145.1525,301.287 C159.3855,315.519 178.3035,323.354 198.4255,323.354 C239.9675,323.354 273.7635,289.558 273.7635,248.016 C273.7635,206.474 239.9675,172.678 198.4255,172.678 C178.6675,172.678 159.2095,180.762 145.0405,194.857 C129.0385,210.95 107.7035,219.824 84.9835,219.824 C38.2705,219.824 0.2665,181.82 0.2665,135.107 C0.2665,112.116 9.2755,90.567 25.6345,74.428 C41.6515,58.626 62.7265,50.087 85.0465,50.39 C120.3905,50.39 136.8815,34.378 136.8815,0 L146.2605,0 C146.2605,18.856 141.4335,33.489 131.9155,43.493 C121.6395,54.293 105.8495,59.769 84.9835,59.769 C65.1215,59.468 46.4375,67.078 32.2215,81.104 C17.6625,95.467 9.6455,114.645 9.6455,135.107 C9.6455,176.648 43.4415,210.445 84.9835,210.445 C105.1875,210.445 124.1615,202.554 138.4085,188.226 C154.3395,172.378 176.2085,163.299 198.4255,163.299 C245.1385,163.299 283.1425,201.303 283.1425,248.016 C283.1425,294.729 245.1385,332.733 198.4255,332.733 C175.7985,332.733 154.5255,323.922 138.5245,307.923 C124.8085,294.238 105.1955,286.387 84.7165,286.387 C43.1755,286.387 9.3785,320.183 9.3785,361.725 C9.3785,403.266 43.1755,437.063 84.7165,437.063 C105.1085,437.063 124.2065,429.047 138.4915,414.49 C154.4445,398.63 175.7145,389.917 198.4255,389.917 C245.1385,389.917 283.1425,427.921 283.1425,474.635 C283.1425,521.347 245.1385,559.351 198.4255,559.351 C175.7995,559.351 154.5275,550.541 138.5275,534.543 C124.8095,520.857 105.1955,513.005 84.7165,513.005 C43.1755,513.005 9.3785,546.802 9.3785,588.343 C9.3785,629.885 43.1755,663.681 84.7165,663.681 C105.1085,663.681 124.2065,655.665 138.4915,641.108 C154.3475,625.251 175.6215,616.535 198.4255,616.535 C245.1385,616.535 283.1425,654.539 283.1425,701.253 C283.1425,723.821 274.0795,745.109 257.6215,761.194 C241.2755,777.171 219.7775,785.97 197.0855,785.97 C162.3905,785.97 158.6455,819.443 158.6455,833.835 L158.6455,933.366 Z" id="Fill-1" fill="#69CDF6" mask="url(#mask-2)"></path>
            </g>
        </g>
    </g>
</svg>