<?xml version="1.0" encoding="UTF-8"?>
<svg width="411px" height="209px" viewBox="0 0 411 209" version="1.1" xmlns="http://www.w3.org/2000/svg" xmlns:xlink="http://www.w3.org/1999/xlink">
    <!-- Generator: Sketch 49.2 (51160) - http://www.bohemiancoding.com/sketch -->
    <title>Cloud-brain-1</title>
    <desc>Created with Sketch.</desc>
    <defs></defs>
    <g id="Page-1" stroke="none" stroke-width="1" fill="none" fill-rule="evenodd">
        <g id="Desktop-HD" transform="translate(-751.000000, -231.000000)">
            <g id="Cloud-brain-1" transform="translate(753.000000, 232.000000)">
                <path d="M368.829893,128.792613 L367.539121,128.792613 C372.583014,122.086012 375.590938,113.682609 375.590938,104.552714 C375.590938,82.6246471 358.28084,64.8485221 336.929814,64.8485221 C332.356878,64.8485221 327.972907,65.6695558 323.901938,67.1653298 C323.901938,67.1295029 323.904845,67.093676 323.904845,67.057849 C323.904845,40.8932481 303.250564,19.6827144 277.773333,19.6827144 C265.940293,19.6827144 255.151885,24.2625894 246.98669,31.7852481 C240.491164,13.6209981 223.498914,0.661603846 203.55979,0.661603846 C183.619697,0.661603846 166.628416,13.6209981 160.13289,31.7852481 C151.966726,24.2625894 141.178319,19.6827144 129.345278,19.6827144 C103.868047,19.6827144 83.2157045,40.8932481 83.2157045,67.057849 C83.2157045,67.093676 83.2176426,67.1295029 83.2176426,67.1653298 C79.1457045,65.6695558 74.7617331,64.8485221 70.1897664,64.8485221 C48.8377712,64.8485221 31.5286426,82.6246471 31.5286426,104.552714 C31.5286426,113.682609 34.5365664,122.086012 39.5794902,128.792613 L38.2887188,128.792613 C17.5840474,128.792613 0.645095,146.18957 0.645095,167.452849 C0.645095,188.716128 17.5840474,206.113085 38.2887188,206.113085 L368.829893,206.113085 C389.534564,206.113085 406.475455,188.716128 406.475455,167.452849 C406.475455,146.18957 389.534564,128.792613 368.829893,128.792613" id="Fill-1" fill="#F76381"></path>
                <path d="M368.829893,128.792613 L367.539121,128.792613 C372.583014,122.086012 375.590938,113.682609 375.590938,104.552714 C375.590938,82.6246471 358.28084,64.8485221 336.929814,64.8485221 C332.356878,64.8485221 327.972907,65.6695558 323.901938,67.1653298 C323.901938,67.1295029 323.904845,67.093676 323.904845,67.057849 C323.904845,40.8932481 303.250564,19.6827144 277.773333,19.6827144 C265.940293,19.6827144 255.151885,24.2625894 246.98669,31.7852481 C240.491164,13.6209981 223.498914,0.661603846 203.55979,0.661603846 C183.619697,0.661603846 166.628416,13.6209981 160.13289,31.7852481 C151.966726,24.2625894 141.178319,19.6827144 129.345278,19.6827144 C103.868047,19.6827144 83.2157045,40.8932481 83.2157045,67.057849 C83.2157045,67.093676 83.2176426,67.1295029 83.2176426,67.1653298 C79.1457045,65.6695558 74.7617331,64.8485221 70.1897664,64.8485221 C48.8377712,64.8485221 31.5286426,82.6246471 31.5286426,104.552714 C31.5286426,113.682609 34.5365664,122.086012 39.5794902,128.792613 L38.2887188,128.792613 C17.5840474,128.792613 0.645095,146.18957 0.645095,167.452849 C0.645095,188.716128 17.5840474,206.113085 38.2887188,206.113085 L368.829893,206.113085 C389.534564,206.113085 406.475455,188.716128 406.475455,167.452849 C406.475455,146.18957 389.534564,128.792613 368.829893,128.792613 Z" id="Stroke-3" stroke="#FFFFFF" stroke-width="3.33"></path>
                <g id="Group-8" transform="translate(286.838095, 128.154894)">
                    <path d="M0.079752619,0.637719231 L81.9914098,0.637719231" id="Fill-5" fill="#FFFFFF"></path>
                    <path d="M0.079752619,0.637719231 L81.9914098,0.637719231" id="Stroke-7" stroke="#FFFFFF" stroke-width="3.33" stroke-linecap="round"></path>
                </g>
                <g id="Group-12" transform="translate(37.792857, 128.154894)">
                    <path d="M0.496152381,0.637719231 L101.86241,0.637719231" id="Fill-9" fill="#FFFFFF"></path>
                    <path d="M0.496152381,0.637719231 L101.86241,0.637719231" id="Stroke-11" stroke="#FFFFFF" stroke-width="3.33"></path>
                </g>
                <path d="M70.1899602,64.8486216 C85.914696,64.8486216 99.4455079,74.4900447 105.486551,88.3301841" id="Stroke-13" stroke="#FFFFFF" stroke-width="3.33" stroke-linecap="round"></path>
                <path d="M301.306945,89.098174 C307.176467,74.8480154 320.915624,64.8483231 336.930105,64.8483231 C358.281131,64.8483231 375.59026,82.6244481 375.59026,104.552515" id="Stroke-15" stroke="#FFFFFF" stroke-width="3.33" stroke-linecap="round"></path>
                <path d="M83.2154138,67.0579486 C83.2154138,40.8933476 103.867757,19.6828139 129.345957,19.6828139 C151.637928,19.6828139 170.237828,35.922362 174.53943,57.5100736" id="Stroke-17" stroke="#FFFFFF" stroke-width="3.33" stroke-linecap="round"></path>
                <path d="M139.654782,128.792613 C155.816558,128.792613 168.917113,115.337613 168.917113,98.7407913 C168.917113,82.142974 155.816558,68.687974 139.654782,68.687974" id="Stroke-19" stroke="#FFFFFF" stroke-width="3.33" stroke-linecap="round"></path>
                <path d="M292.026182,167.453048 C302.378518,167.453048 310.848963,176.151029 310.848963,186.783663 C310.848963,197.414308 302.378518,206.113284 292.026182,206.113284" id="Stroke-21" stroke="#FFFFFF" stroke-width="3.33" stroke-linecap="round"></path>
                <path d="M83.0459274,161.484581 L98.6572845,161.484581 C110.60758,161.484581 120.38527,171.526072 120.38527,183.798783 C120.38527,196.071495 110.60758,206.112985 98.6572845,206.112985" id="Stroke-23" stroke="#FFFFFF" stroke-width="3.33" stroke-linecap="round"></path>
                <path d="M246.986303,31.7852481 C228.747857,48.5263731 225.879476,64.8485221 208.67016,64.8485221" id="Stroke-25" stroke="#FFFFFF" stroke-width="3.33" stroke-linecap="round"></path>
            </g>
        </g>
    </g>
</svg>