<?xml version="1.0" encoding="UTF-8"?>
<svg width="1440px" height="1004px" viewBox="0 0 1440 1004" version="1.1" xmlns="http://www.w3.org/2000/svg" xmlns:xlink="http://www.w3.org/1999/xlink">
    <!-- Generator: Sketch 49.2 (51160) - http://www.bohemiancoding.com/sketch -->
    <title>Fill 1</title>
    <desc>Created with Sketch.</desc>
    <defs></defs>
    <g id="Page-1" stroke="none" stroke-width="1" fill="none" fill-rule="evenodd">
        <g id="Desktop-HD" fill="#FFFFFF">
            <path d="M1442.05811,870.57102 C1442.05811,870.57102 834.054708,887.052671 576.863013,887.052671 C794.246198,745.947211 565.728363,663.545841 612.281556,506.331905 C654.517766,363.692435 668.604765,267.358294 549.045666,203.03042 C406.240953,126.194998 526.802529,42.1288018 393.339575,0.267143477 L686.692031,0.267143477 C618.584215,0.677497891 615.776454,105.945798 686.692031,154.05228 C757.606231,202.158761 838.213333,118.457477 892.432443,146.262431 C946.650175,174.067385 950.821194,295.017283 1105.13649,360.357273 C1259.45315,425.698639 1404.03561,295.017283 1442.05811,143.482211 L1442.05811,870.57102 Z M-1,1003.72827 L1506.3433,1003.72827 L1506.3433,0 L-1,0 L-1,1003.72827 Z" id="Fill-1"></path>
        </g>
    </g>
</svg>