<?xml version="1.0" encoding="UTF-8"?>
<svg width="605px" height="578px" viewBox="0 0 605 578" version="1.1" xmlns="http://www.w3.org/2000/svg" xmlns:xlink="http://www.w3.org/1999/xlink">
    <!-- Generator: Sketch 49.3 (51167) - http://www.bohemiancoding.com/sketch -->
    <title>computer</title>
    <desc>Created with Sketch.</desc>
    <defs>
        <polygon id="path-1" points="0 0.8871 604.1033 0.8871 604.1033 77.4271 0 77.4271"></polygon>
        <polygon id="path-3" points="0.294813002 0.4264 269.778431 0.4264 269.778431 93 0.294813002 93"></polygon>
        <polygon id="path-5" points="0 0.552 604.1033 0.552 604.1033 409.8033 0 409.8033"></polygon>
    </defs>
    <g id="Page-1" stroke="none" stroke-width="1" fill="none" fill-rule="evenodd">
        <g id="Desktop-HD" transform="translate(-636.000000, -11619.000000)">
            <g id="computer" transform="translate(636.000000, 11619.000000)">
                <g id="Group-3" transform="translate(0.000000, 408.000000)">
                    <mask id="mask-2" fill="white">
                        <use xlink:href="#path-1"></use>
                    </mask>
                    <g id="Clip-2"></g>
                    <path d="M604.1033,43.9111 L604.1033,0.8871 L-0.0007,0.8871 L-0.0007,43.9111 C-0.0007,62.4071 14.9803,77.4271 33.5343,77.4271 L84.5853,77.4271 L533.6143,77.4271 L570.5603,77.4271 C589.0543,77.4271 604.1033,62.4071 604.1033,43.9111" id="Fill-1" fill="#84D0F1" mask="url(#mask-2)"></path>
                </g>
                <g id="Group-6" transform="translate(167.000000, 485.000000)">
                    <mask id="mask-4" fill="white">
                        <use xlink:href="#path-3"></use>
                    </mask>
                    <g id="Clip-5"></g>
                    <path d="M265.1072,82.0654 C260.6022,80.3504 255.6602,80.0874 250.9952,78.9994 C244.0102,77.3204 237.1992,74.9354 231.9812,69.8074 C226.9622,64.8654 223.6232,58.2944 222.3062,51.3854 C220.4342,41.5144 220.1432,31.0834 219.2742,21.0634 C218.8102,15.8654 218.2992,7.2784 217.8142,0.4264 L52.2802,0.4264 C51.7782,7.2784 51.2682,15.8654 50.7952,21.0634 C49.9062,31.0834 49.6402,41.5144 47.7512,51.3854 C46.4212,58.2944 43.1232,64.8654 38.0882,69.8074 C32.8322,74.9354 26.0802,77.3204 19.0532,78.9994 C14.3982,80.0874 9.4832,80.3504 4.9662,82.0654 C0.7442,83.6694 -1.9128,87.0804 2.7742,90.1444 C7.3412,93.0734 13.5202,93.0004 18.7292,93.0004 L126.5702,93.0004 L143.5082,93.0004 L251.3032,93.0004 C256.5372,93.0004 262.7372,93.0734 267.2842,90.1444 C271.9912,87.0804 269.3342,83.6694 265.1072,82.0654" id="Fill-4" fill="#84D0F1" mask="url(#mask-4)"></path>
                </g>
                <g id="Group-9">
                    <mask id="mask-6" fill="white">
                        <use xlink:href="#path-5"></use>
                    </mask>
                    <g id="Clip-8"></g>
                    <path d="M604.1033,34.1093 C604.1033,15.5913 589.0543,0.5513 570.5603,0.5513 L33.5343,0.5513 C14.9803,0.5513 -0.0007,15.5913 -0.0007,34.1093 L-0.0007,409.8033 L604.1033,409.8033 L604.1033,34.1093 Z" id="Fill-7" fill="#27229D" mask="url(#mask-6)"></path>
                </g>
                <path d="M217.2166,485.4267 C216.9206,489.4617 216.6216,494.0887 216.3306,498.2807 L387.7466,498.2807 C387.4586,494.0887 387.1646,489.4617 386.8786,485.4267 L217.2166,485.4267 Z" id="Fill-10" fill="#5450F5"></path>
                <polygon id="Fill-12" fill="#FFFFFF" points="28.259 409.804 575.828 409.804 575.828 27.436 28.259 27.436"></polygon>
                <path d="M316.4305,447.6152 C316.4305,455.5562 309.9935,461.9942 302.0515,461.9942 C294.1105,461.9942 287.6725,455.5562 287.6725,447.6152 C287.6725,439.6752 294.1105,433.2362 302.0515,433.2362 C309.9935,433.2362 316.4305,439.6752 316.4305,447.6152" id="Fill-14" fill="#5450F5"></path>
            </g>
        </g>
    </g>
</svg>