<?xml version="1.0" encoding="UTF-8"?>
<svg width="339px" height="1458px" viewBox="0 0 339 1458" version="1.1" xmlns="http://www.w3.org/2000/svg" xmlns:xlink="http://www.w3.org/1999/xlink">
    <!-- Generator: Sketch 49.3 (51167) - http://www.bohemiancoding.com/sketch -->
    <title>curvey-line-3</title>
    <desc>Created with Sketch.</desc>
    <defs></defs>
    <g id="Page-1" stroke="none" stroke-width="1" fill="none" fill-rule="evenodd">
        <g id="curvey-line-1" transform="translate(0.389707, 0.866044)" fill="#69CDF6">
            <path d="M189.395226,1456.91431 L178.201825,1456.91431 L178.201825,995.143346 C178.201825,982.791102 180.202053,964.964486 189.724619,950.18237 C199.570611,934.902584 215.320618,926.825291 235.271581,926.825291 C259.411566,926.825291 282.290071,917.45668 299.695397,900.445193 C317.163977,883.371647 326.783213,860.808214 326.783213,836.912887 C326.783213,787.334439 286.449256,746.999289 236.870809,746.999289 C212.644895,746.999289 190.065947,756.23662 173.293151,773.010609 C154.160897,792.506867 128.531482,803.265851 101.164398,803.265851 C45.4146023,803.265851 0.0585933044,757.909842 0.0585933044,702.160046 C0.0585933044,646.41025 45.4146023,601.054241 101.164398,601.054241 C128.546997,601.054241 154.837585,611.617498 173.295538,630.03368 C190.279575,647.016524 212.85733,656.366039 236.870809,656.366039 C286.449256,656.366039 326.783213,616.032083 326.783213,566.454829 C326.783213,516.876381 286.449256,476.541231 236.870809,476.541231 C212.743952,476.541231 190.161423,485.782142 173.281216,502.563293 C154.159703,522.048809 128.530288,532.807793 101.164398,532.807793 C45.4146023,532.807793 0.0585933044,487.451784 0.0585933044,431.701988 C0.0585933044,375.952192 45.4146023,330.596183 101.164398,330.596183 C128.54819,330.596183 154.836392,341.158247 173.291957,359.572042 C190.278382,376.557273 212.856136,385.907981 236.870809,385.907981 C286.449256,385.907981 326.783213,345.574025 326.783213,295.995577 C326.783213,246.41713 286.449256,206.083173 236.870809,206.083173 C213.290553,206.083173 190.068334,215.731052 173.158291,232.55278 C154.060647,251.759028 128.598315,262.349735 101.48305,262.349735 C45.7332544,262.349735 0.377245404,216.993726 0.377245404,161.24393 C0.377245404,133.805239 11.1290685,108.087508 30.6527752,88.8263613 C49.7683208,69.9674082 74.9203545,59.7765083 101.558238,60.1381247 C143.73966,60.1381247 163.420903,41.0285464 163.420903,0 L174.614304,0 C174.614304,22.5037603 168.853504,39.9675661 157.494213,51.9068755 C145.230284,64.7961739 126.385652,71.3315256 101.48305,71.3315256 C77.7786758,70.9722961 55.4801895,80.0544776 38.5140538,96.7938572 C21.1385635,113.935431 11.5706463,136.823483 11.5706463,161.24393 C11.5706463,210.821184 51.9046027,251.156334 101.48305,251.156334 C125.595586,251.156334 148.240174,241.738792 165.243307,224.638989 C184.256215,205.725137 210.355851,194.889772 236.870809,194.889772 C292.620605,194.889772 337.976614,240.245781 337.976614,295.995577 C337.976614,351.745373 292.620605,397.101382 236.870809,397.101382 C209.866535,397.101382 184.478198,386.585863 165.381747,367.491799 C149.012338,351.159387 125.605134,341.789584 101.164398,341.789584 C51.587144,341.789584 11.2519942,382.12354 11.2519942,431.701988 C11.2519942,481.279242 51.587144,521.614392 101.164398,521.614392 C125.501303,521.614392 148.293879,512.047668 165.342363,494.674565 C184.381528,475.746391 209.766285,465.34783 236.870809,465.34783 C292.620605,465.34783 337.976614,510.703839 337.976614,566.454829 C337.976614,622.203431 292.620605,667.55944 236.870809,667.55944 C209.867728,667.55944 184.480584,657.045114 165.385328,637.952244 C149.013532,621.618639 125.605134,612.247642 101.164398,612.247642 C51.587144,612.247642 11.2519942,652.582791 11.2519942,702.160046 C11.2519942,751.738493 51.587144,792.07245 101.164398,792.07245 C125.501303,792.07245 148.293879,782.505726 165.342363,765.132623 C184.265763,746.208029 209.655294,735.805888 236.870809,735.805888 C292.620605,735.805888 337.976614,781.161897 337.976614,836.912887 C337.976614,863.846747 327.160344,889.252986 307.518485,908.449686 C288.010294,927.517494 262.353429,938.018692 235.271581,938.018692 C193.86471,938.018692 189.395226,977.967162 189.395226,995.143346 L189.395226,1456.91431 Z" id="curvey-line-3"></path>
        </g>
    </g>
</svg>