<?xml version="1.0" encoding="UTF-8"?>
<svg width="2359px" height="742px" viewBox="0 0 2359 742" version="1.1" xmlns="http://www.w3.org/2000/svg" xmlns:xlink="http://www.w3.org/1999/xlink">
    <!-- Generator: Sketch 49.3 (51167) - http://www.bohemiancoding.com/sketch -->
    <title>curve-line-2</title>
    <desc>Created with Sketch.</desc>
    <defs></defs>
    <g id="Page-1" stroke="none" stroke-width="1" fill="none" fill-rule="evenodd">
        <path d="M0.49422876,6 L996.483192,6 C1063.41775,6 1117.87156,60.4548475 1117.87156,127.388366 C1117.87156,194.322927 1063.41775,249.579655 996.484235,249.579655 C929.550716,249.579655 875.094826,304.032417 875.094826,370.966978 C875.094826,437.900497 929.550716,492.354301 996.484235,492.354301 C1063.41775,492.354301 1117.87156,437.900497 1117.87156,370.966978 C1117.80378,303.161715 1172.35039,249.579655 1239.28391,249.579655 C1306.21638,249.579655 1360.67123,304.032417 1360.67123,370.966978 C1360.67123,437.900497 1306.21638,492.354301 1239.28391,492.354301 C1172.35039,492.354301 1117.89554,546.808106 1117.89554,613.741625 C1117.89554,680.676186 1172.35039,735.128948 1239.28391,735.128948 L2358.20392,735.128948" id="curve-line-2" stroke="#84D0F1" stroke-width="11.884"></path>
    </g>
</svg>