<?xml version="1.0" encoding="UTF-8"?>
<svg width="1607px" height="742px" viewBox="0 0 1607 742" version="1.1" xmlns="http://www.w3.org/2000/svg" xmlns:xlink="http://www.w3.org/1999/xlink">
    <!-- Generator: Sketch 49.3 (51167) - http://www.bohemiancoding.com/sketch -->
    <title>curve-line-2</title>
    <desc>Created with Sketch.</desc>
    <defs></defs>
    <g id="Page-1" stroke="none" stroke-width="1" fill="none" fill-rule="evenodd">
        <path d="M0.41515947,6 L657.483192,6 C724.417753,6 778.871558,60.4548475 778.871558,127.388366 C778.871558,194.322927 724.417753,249.579655 657.484235,249.579655 C590.550716,249.579655 536.094826,304.032417 536.094826,370.966978 C536.094826,437.900497 590.550716,492.354301 657.484235,492.354301 C724.417753,492.354301 778.871558,437.900497 778.871558,370.966978 C778.803779,303.161715 833.350389,249.579655 900.283908,249.579655 C967.216383,249.579655 1021.67123,304.032417 1021.67123,370.966978 C1021.67123,437.900497 967.216383,492.354301 900.283908,492.354301 C833.350389,492.354301 778.895541,546.808106 778.895541,613.741625 C778.895541,680.676186 833.350389,735.128948 900.283908,735.128948 L1606.77491,735.128948" id="curve-line-2" stroke="#84D0F1" stroke-width="11.884"></path>
    </g>
</svg>