<?xml version="1.0" encoding="UTF-8"?>
<svg width="1440px" height="580px" viewBox="0 0 1440 580" version="1.1" xmlns="http://www.w3.org/2000/svg" xmlns:xlink="http://www.w3.org/1999/xlink">
    <!-- Generator: Sketch 49.2 (51160) - http://www.bohemiancoding.com/sketch -->
    <title>dark-blue-bottom</title>
    <desc>Created with Sketch.</desc>
    <defs>
        <polygon id="path-1" points="0.000507735584 0.869071023 1443.9279 0.869071023 1443.9279 628.424433 0.000507735584 628.424433"></polygon>
        <polygon id="path-3" points="0 0.575771429 40.3493189 0.575771429 40.3493189 15.9494857 0 15.9494857"></polygon>
    </defs>
    <g id="Page-1" stroke="none" stroke-width="1" fill="none" fill-rule="evenodd">
        <g id="Desktop-HD" transform="translate(0.000000, -2595.000000)">
            <g id="dark-blue-bottom" transform="translate(-2.000000, 2592.000000)">
                <path d="M613,182 L614,202" id="Stroke-1" stroke="#3431B0" stroke-width="1.34"></path>
                <path d="M609,182 L610,202" id="Stroke-2" stroke="#3431B0" stroke-width="1.34"></path>
                <polygon id="Fill-3" fill="#3431B0" points="603 173.651728 600.598924 166 592 166.606727 600.66013 177"></polygon>
                <polygon id="Fill-4" fill="#3431B0" points="619.047579 173 624 175.554146 618.916526 178 617 176.378537"></polygon>
                <g id="Group-11" transform="translate(600.000000, 168.000000)" fill="#3431B0">
                    <path d="M0.1584,8.4585 C0.4334,12.4415 5.1214,15.3605 10.6284,14.9795 C16.1344,14.5985 20.3754,11.0615 20.0994,7.0785 C19.8244,3.0955 15.1364,0.1755 9.6294,0.5565 C4.1234,0.9375 -0.1176,4.4755 0.1584,8.4585" id="Fill-5"></path>
                    <polyline id="Fill-7" points="9.9069 4.5576 4.7309 8.2336 10.3509 10.9786"></polyline>
                    <path d="M13.8698,5.5669 C13.9218,6.3199 14.5708,6.8879 15.3198,6.8369 C16.0678,6.7849 16.6328,6.1319 16.5798,5.3799 C16.5288,4.6269 15.8788,4.0589 15.1308,4.1099 C14.3828,4.1619 13.8178,4.8149 13.8698,5.5669" id="Fill-9"></path>
                </g>
                <g id="Group-14">
                    <mask id="mask-2" fill="white">
                        <use xlink:href="#path-1"></use>
                    </mask>
                    <g id="Clip-13"></g>
                    <path d="M1443.92841,71.8363346 C1338.8505,235.059244 1202.07161,176.727928 1002.39545,176.727928 C483.080451,176.727928 315.083948,328.275233 0.000507735584,0.868969496 L-1.92282419,582.573398 L1442,582.573398 C1443.28561,259.719968 1443.92841,89.4742799 1443.92841,71.8363346 Z" id="Fill-12" fill="#3431B0" mask="url(#mask-2)"></path>
                </g>
                <g id="sad-girl" transform="translate(646.000000, 29.000000)">
                    <g id="Group-3" transform="translate(0.000000, 159.000000)">
                        <mask id="mask-4" fill="white">
                            <use xlink:href="#path-3"></use>
                        </mask>
                        <g id="Clip-2"></g>
                        <path d="M36.906427,0.575771429 L40.3493189,13.6089143 L-0.000221621622,15.9494857 C-0.000221621622,15.9494857 6.56753514,6.90377143 22.1841027,3.82034286 L36.906427,0.575771429 Z" id="Fill-1" fill="#A8A8A8" mask="url(#mask-4)"></path>
                    </g>
                    <path d="M45.8975621,55 C33.7497698,68.3919638 27,162 27,162 L39.4414555,161.305874 L55,79.9184635 L45.8975621,55 Z" id="Fill-4" fill="#B94A61"></path>
                    <polygon id="Fill-6" fill="#000000" points="57.7664474 22.2875131 53 38.1359807 54.0208333 56.3766697 105 98 102.60307 55.1099399 101.755482 31.1722768 82.0405702 13"></polygon>
                    <path d="M50.5407009,159 L54,172.694343 L14,175 C14,175 20.4638031,165.233605 35.9455125,162.196172 L50.5407009,159 Z" id="Fill-8" fill="#FFFFFF"></path>
                    <polygon id="Stroke-10" stroke="#833A85" stroke-width="0.761" points="57.8356461 22.4558353 53 38.3293933 56.2026283 77.2789028 112 118 105.761605 58.7871969 94.1168973 20.4278482 85.2198424 13"></polygon>
                    <path d="M88.6546524,8 L67.2298639,9.43171256 L56,22.9246541 L58.0102979,32.1983991 C64.6083119,38.1530726 70.369989,46.0833306 71.1699154,47.4402189 C72.4045605,46.14252 73.4130195,44.7197417 73.4130195,44.7197417 C73.4130195,44.7197417 85.3247517,53.5713437 94.8002942,42.1935843 C101.981979,40.343079 109.817948,43.3516856 110,45.3574233" id="Fill-12" fill="#F5A396"></path>
                    <path d="M163.846764,133.225091 C163.850103,133.211747 163.854553,133.199514 163.857892,133.186169 C175.000591,91.9391653 156.996909,37.8757981 102,31 L103.124952,59.8454353 L114.29992,110.204568 L126.264913,129.817773 C126.264913,129.817773 150.148166,136.158676 163.846764,133.225091" id="Fill-14" fill="#5450F5"></path>
                    <path d="M125.770531,129.329262 L113.917726,109.788133 L114.101807,110.622429 C114.101807,110.622429 110.029989,106.662572 86.8457574,76.6567412 C74.326074,60.4561186 63.3705243,53.1014658 55.2114561,52.1187034 C53.965881,51.9691285 52.7820334,51.9591569 51.6720386,52.0987601 C46.5850216,52.7347304 42.9596264,56.3056924 41.2257418,61.9828904 C36.633648,77.0190448 37.0073205,163.149807 37.0073205,163.149807 L52.3190763,165.305901 C52.3190763,165.305901 63.2437622,119.953686 56.9166815,90.7644233 C62.6176678,104.346931 79.8672299,143.346091 99.3841795,159.541174 C118.892311,175.729609 151.950757,173.782919 163,132.724058 C149.430947,135.646862 125.770531,129.329262 125.770531,129.329262" id="Fill-16" fill="#F76381"></path>
                    <path d="M125.817888,91.3992119 C119.278894,81.3420242 136.128824,75.6816028 121.260912,59.1422303 C106.394111,42.6028578 114.96398,26.8852486 98.7458533,8.48527976 C82.5299476,-9.91468911 60.271385,5.72982517 54.6695469,16.7150961 C50.314659,25.2572268 48.4059256,35.9146784 51.5749338,52.151704 C52.6930807,52.0132668 53.8856226,52.0221268 55.1403455,52.1727465 C55.1658842,44.1987621 57.1157014,35.5613866 60.0559724,29.8212254 C64.4408404,21.2658047 77.4510957,19.1604513 80.5579229,23.9492719 C82.0125132,14.4369731 93.1062624,18.7783645 88.0884811,26.8774961 C99.7085478,40.9925559 93.4715756,61.5698655 91.7471643,67.9955679 C90.0238635,74.4212703 98.9057472,81.9888029 93.6969815,95.434934 C89.2377185,106.950696 99.8417927,119.909528 111.52293,117.765413 C123.202957,115.620189 132.357993,101.4564 125.817888,91.3992119" id="Fill-18" fill="#170A4C"></path>
                    <path d="M81.5993502,138.631597 C78.0291896,144.347699 91.3954134,155.751239 95.6757914,155.990467 C99.9561695,156.229694 107,151.887221 107,151.887221 L106.844044,149.178549 C106.844044,149.178549 100.906492,152.623644 96.7371905,152.701917 L95.9360923,151.881708 C95.9360923,151.881708 105.173406,148.53032 106.718381,146.961561 C106.382907,145.498636 105.635665,143.439296 105.635665,143.439296 C105.635665,143.439296 97.9163982,147.454348 93.1827377,147.710112 L92.8618496,146.493028 C92.8618496,146.493028 102.857626,143.22322 103.525208,141.702968 C102.326927,140.534392 101.664955,139.953411 101.664955,139.953411 C101.664955,139.953411 92.5218877,144.041223 90.7480272,143.150459 L90.351966,142.18473 C90.351966,142.18473 101.056838,139.245651 100.781951,138.272205 C99.1359974,137.499401 97.849079,137 97.849079,137 C97.849079,137 85.8965581,139.051623 81.5993502,138.631597" id="Fill-20" fill="#F5A396"></path>
                    <path d="M93.0685466,116.152053 C93.0685466,116.152053 70.7726461,112.922309 67.1781981,112.763596 C61.8145306,116.187569 67.0090734,126.227525 75.6552967,128.651498 C84.30152,131.076582 103.056785,132 103.056785,132 L120,87.1354051 L107.591302,72 L93.0685466,116.152053 Z" id="Fill-22" fill="#F5A396"></path>
                    <polygon id="Fill-24" fill="#5450F5" points="116.563291 48 108 71.7475912 120.452089 87 131 58.9556091"></polygon>
                    <path d="M69,33.5842273 C69.6107821,33.3867278 70.1105129,33.2085711 70.5091077,32.9479532 C70.9007617,32.6822452 71.2031782,32.3727615 71.4252808,31.9818347 C71.6662224,31.6041424 71.8238756,31.1521333 71.9339353,30.6634749 C72.0311052,30.1687082 72.0777071,29.6454364 71.989461,29 C72.549675,29.3288264 72.8858035,29.9986957 72.971075,30.6736553 C73.0692364,31.3577771 72.9145578,32.0805844 72.5526496,32.7026059 C72.1758685,33.311393 71.5581457,33.8010695 70.874982,33.9395227 C70.1967759,34.0942646 69.5205529,33.9435949 69,33.5842273" id="Fill-26" fill="#170A4C"></path>
                    <path d="M85,33.5 C85,35.4328358 83.4325759,37 81.4994195,37 C79.5662631,37 78,35.4328358 78,33.5 C78,31.5671642 79.5662631,30 81.4994195,30 C83.4325759,30 85,31.5671642 85,33.5" id="Fill-28" fill="#F76381"></path>
                </g>
            </g>
        </g>
    </g>
</svg>