<?xml version="1.0" encoding="UTF-8"?>
<svg width="551px" height="320px" viewBox="0 0 551 320" version="1.1" xmlns="http://www.w3.org/2000/svg" xmlns:xlink="http://www.w3.org/1999/xlink">
    <!-- Generator: Sketch 49.3 (51167) - http://www.bohemiancoding.com/sketch -->
    <title>educate-image</title>
    <desc>Created with Sketch.</desc>
    <defs>
        <polygon id="path-1" points="0 319.247 550.467 319.247 550.467 0 0 0"></polygon>
    </defs>
    <g id="Page-1" stroke="none" stroke-width="1" fill="none" fill-rule="evenodd">
        <g id="Desktop-HD" transform="translate(-720.000000, -7537.000000)">
            <g id="educate-image" transform="translate(720.000000, 7537.000000)">
                <path d="M67.4041,103.7712 C25.2341,72.0592 30.0691,1.4492 156.8541,17.5832 C255.7951,30.1742 266.6691,-36.4218 358.2621,29.8712 C426.7401,79.4332 437.5041,43.5582 502.1801,66.5232 C548.0891,82.8232 572.0911,142.2172 524.4601,171.1842 C484.6601,195.3892 491.1551,211.8672 523.0561,223.5592 C567.6261,239.8932 566.5251,309.0122 453.8581,316.0972 C341.1921,323.1832 184.1411,316.0972 134.2951,316.0972 C84.4481,316.0972 0.0971,289.6052 0.0001,214.1932 C-0.0849,148.4942 108.3741,134.5822 67.4041,103.7712" id="Fill-1" fill="#84D0F1"></path>
                <path d="M142.7839,270.0153 L142.7839,96.4553 C142.7839,94.1273 143.6859,91.7953 145.4739,90.0083 C147.2379,88.2243 149.5909,87.3213 151.9219,87.3213 L407.7049,87.3213 C410.0309,87.3213 412.3659,88.2243 414.1719,90.0083 C415.9349,91.7953 416.8409,94.1273 416.8409,96.4553 L416.8409,270.0153 L142.7839,270.0153 Z" id="Fill-3" fill="#170A4C"></path>
                <mask id="mask-2" fill="white">
                    <use xlink:href="#path-1"></use>
                </mask>
                <g id="Clip-6"></g>
                <polygon id="Fill-5" fill="#84D0F1" mask="url(#mask-2)" points="158.008 254.794 401.6 254.794 401.6 102.543 158.008 102.543"></polygon>
                <path d="M283.6326,94.946 C283.6326,97.05 281.8956,98.743 279.8126,98.743 C277.7046,98.743 276.0096,97.05 276.0096,94.946 C276.0096,92.835 277.7046,91.141 279.8126,91.141 C281.8956,91.141 283.6326,92.835 283.6326,94.946" id="Fill-7" fill="#3E4959" mask="url(#mask-2)"></path>
                <path d="M281.3484,94.946 C281.3484,95.778 280.6644,96.456 279.8124,96.456 C278.9744,96.456 278.2964,95.778 278.2964,94.946 C278.2964,94.109 278.9744,93.426 279.8124,93.426 C280.6644,93.426 281.3484,94.109 281.3484,94.946" id="Fill-8" fill="#FFFFFF" mask="url(#mask-2)"></path>
                <polygon id="Fill-9" fill="#FFFFFF" mask="url(#mask-2)" points="112.341 276.123 447.289 276.123 447.289 270.016 112.341 270.016"></polygon>
                <path d="M447.2888,276.1227 C447.2888,278.8387 446.2558,281.5707 444.1458,283.6587 C442.0818,285.7417 439.3678,286.7807 436.6128,286.7807 L122.9908,286.7807 C120.2588,286.7807 117.5478,285.7417 115.4568,283.6587 C113.3708,281.5707 112.3408,278.8387 112.3408,276.1227 L447.2888,276.1227 Z" id="Fill-10" fill="#FFFFFF" mask="url(#mask-2)"></path>
                <polygon id="Fill-11" fill="#FFFFFF" mask="url(#mask-2)" points="198.341 254.794 361.289 254.794 361.289 50.359 198.341 50.359"></polygon>
                <polygon id="Fill-12" fill="#84D0F1" mask="url(#mask-2)" points="220.015 217.782 339.614 217.782 339.614 210.106 220.015 210.106"></polygon>
                <polygon id="Fill-13" fill="#84D0F1" mask="url(#mask-2)" points="220.015 202.439 339.614 202.439 339.614 194.769 220.015 194.769"></polygon>
                <polygon id="Fill-14" fill="#84D0F1" mask="url(#mask-2)" points="220.015 187.096 339.614 187.096 339.614 179.426 220.015 179.426"></polygon>
                <polygon id="Fill-15" fill="#84D0F1" mask="url(#mask-2)" points="220.015 171.76 339.614 171.76 339.614 164.087 220.015 164.087"></polygon>
                <polygon id="Fill-16" fill="#84D0F1" mask="url(#mask-2)" points="220.015 156.415 339.614 156.415 339.614 148.74 220.015 148.74"></polygon>
                <polygon id="Fill-17" fill="#84D0F1" mask="url(#mask-2)" points="220.015 141.07 339.614 141.07 339.614 133.4 220.015 133.4"></polygon>
                <polygon id="Fill-18" fill="#84D0F1" mask="url(#mask-2)" points="279.803 125.727 339.614 125.727 339.614 118.06 279.803 118.06"></polygon>
                <polygon id="Fill-19" fill="#84D0F1" mask="url(#mask-2)" points="279.803 110.389 339.614 110.389 339.614 102.716 279.803 102.716"></polygon>
                <polygon id="Fill-20" fill="#84D0F1" mask="url(#mask-2)" points="279.803 95.046 339.614 95.046 339.614 87.376 279.803 87.376"></polygon>
                <polygon id="Fill-21" fill="#84D0F1" mask="url(#mask-2)" points="279.803 79.704 339.614 79.704 339.614 72.034 279.803 72.034"></polygon>
                <polygon id="Fill-22" fill="#84D0F1" mask="url(#mask-2)" points="220.015 233.119 339.614 233.119 339.614 225.446 220.015 225.446"></polygon>
                <polygon id="Fill-23" fill="#170A4C" mask="url(#mask-2)" points="248.9021 72.0339 244.8231 72.0339 243.6341 77.9589 250.0881 77.9589"></polygon>
                <polygon id="Fill-24" fill="#170A4C" mask="url(#mask-2)" points="235.2009 74.6139 231.6739 76.6499 233.6069 82.3779 239.1939 79.1539"></polygon>
                <polygon id="Fill-25" fill="#170A4C" mask="url(#mask-2)" points="224.6316 83.6921 222.5906 87.2191 227.1366 91.2131 230.3616 85.6331"></polygon>
                <polygon id="Fill-26" fill="#170A4C" mask="url(#mask-2)" points="220.0154 96.8464 220.0154 100.9204 225.9434 102.1114 225.9434 95.6584"></polygon>
                <polygon id="Fill-27" fill="#170A4C" mask="url(#mask-2)" points="222.5906 110.5446 224.6316 114.0696 230.3616 112.1366 227.1366 106.5436"></polygon>
                <polygon id="Fill-28" fill="#170A4C" mask="url(#mask-2)" points="231.6736 121.112 235.2006 123.15 239.1946 118.607 233.6076 115.388"></polygon>
                <polygon id="Fill-29" fill="#170A4C" mask="url(#mask-2)" points="244.8308 125.7272 248.9018 125.7272 250.0878 119.8082 243.6428 119.8082"></polygon>
                <polygon id="Fill-30" fill="#170A4C" mask="url(#mask-2)" points="258.5212 123.1501 262.0542 121.1121 260.1182 115.3881 254.5282 118.6071"></polygon>
                <polygon id="Fill-31" fill="#170A4C" mask="url(#mask-2)" points="269.0984 114.07 271.1294 110.545 266.5914 106.544 263.3654 112.136"></polygon>
                <polygon id="Fill-32" fill="#170A4C" mask="url(#mask-2)" points="273.7068 100.9206 273.7068 96.8466 267.7878 95.6576 267.7878 102.1106"></polygon>
                <polygon id="Fill-33" fill="#170A4C" mask="url(#mask-2)" points="271.1296 87.2194 269.0986 83.6924 263.3646 85.6334 266.5916 91.2094"></polygon>
                <polygon id="Fill-34" fill="#170A4C" mask="url(#mask-2)" points="262.0544 76.6501 258.5214 74.6171 254.5284 79.1541 260.1174 82.3781"></polygon>
                <path d="M246.8689,109.0378 C241.2489,109.0378 236.7059,104.4978 236.7059,98.8798 C236.7059,93.2638 241.2489,88.7218 246.8689,88.7218 C252.4739,88.7218 257.0219,93.2638 257.0219,98.8798 C257.0219,104.4978 252.4739,109.0378 246.8689,109.0378 M246.8689,77.7178 C235.1669,77.7178 225.6939,87.1928 225.6939,98.8798 C225.6939,110.5688 235.1669,120.0438 246.8689,120.0438 C258.5579,120.0438 268.0309,110.5688 268.0309,98.8798 C268.0309,87.1928 258.5579,77.7178 246.8689,77.7178" id="Fill-35" fill="#170A4C" mask="url(#mask-2)"></path>
                <polygon id="Fill-36" fill="#F76381" mask="url(#mask-2)" points="316.699 254.7936 316.696 133.3976 339.614 133.3976 339.614 254.7936"></polygon>
                <polygon id="Fill-37" fill="#E6E5E5" mask="url(#mask-2)" points="316.696 133.4001 328.155 110.3881 339.614 133.4001"></polygon>
                <polygon id="Fill-38" fill="#170A4C" mask="url(#mask-2)" points="328.155 110.3884 324.332 118.0604 331.975 118.0604"></polygon>
                <path d="M248.4148,148.7399 L171.5818,148.7399 C167.1538,148.7399 163.5638,152.3299 163.5638,156.7589 L163.5638,194.4209 C163.5638,198.8489 167.1538,202.4389 171.5818,202.4389 L248.4148,202.4389 C252.8438,202.4389 256.4338,198.8489 256.4338,194.4209 L256.4338,156.7589 C256.4338,152.3299 252.8438,148.7399 248.4148,148.7399" id="Fill-39" fill="#F76381" mask="url(#mask-2)"></path>
                <polygon id="Fill-40" fill="#F76381" mask="url(#mask-2)" points="175.4968 214.3747 175.4968 202.4387 187.4318 202.4387"></polygon>
                <polygon id="Fill-41" fill="#FFFFFF" mask="url(#mask-2)" points="175.497 166.638 244.501 166.638 244.501 160.674 175.497 160.674"></polygon>
                <polygon id="Fill-42" fill="#FFFFFF" mask="url(#mask-2)" points="175.497 178.574 244.501 178.574 244.501 172.607 175.497 172.607"></polygon>
                <polygon id="Fill-43" fill="#FFFFFF" mask="url(#mask-2)" points="175.497 190.507 209.996 190.507 209.996 184.54 175.497 184.54"></polygon>
                <path d="M390.7136,72.0339 L435.2496,72.0339 C441.8996,72.0339 447.2886,77.4239 447.2886,84.0729 L447.2886,128.6059 C447.2886,135.2559 441.8996,140.6459 435.2496,140.6459 L390.7136,140.6459 C384.0646,140.6459 378.6746,135.2559 378.6746,128.6059 L378.6746,84.0729 C378.6746,77.4239 384.0646,72.0339 390.7136,72.0339" id="Fill-44" fill="#FFFFFF" mask="url(#mask-2)"></path>
                <polygon id="Fill-45" fill="#FFFFFF" mask="url(#mask-2)" points="432.5095 155.4225 417.7335 140.6465 432.5095 140.6465"></polygon>
                <polygon id="Fill-46" fill="#170A4C" mask="url(#mask-2)" points="393.804 110.176 401.474 110.176 401.474 102.503 393.804 102.503"></polygon>
                <polygon id="Fill-47" fill="#170A4C" mask="url(#mask-2)" points="409.144 110.176 416.819 110.176 416.819 102.503 409.144 102.503"></polygon>
                <polygon id="Fill-48" fill="#170A4C" mask="url(#mask-2)" points="424.492 110.176 432.162 110.176 432.162 102.503 424.492 102.503"></polygon>
            </g>
        </g>
    </g>
</svg>