<?xml version="1.0" encoding="UTF-8"?>
<svg width="591px" height="344px" viewBox="0 0 591 344" version="1.1" xmlns="http://www.w3.org/2000/svg" xmlns:xlink="http://www.w3.org/1999/xlink">
    <!-- Generator: Sketch 49.2 (51160) - http://www.bohemiancoding.com/sketch -->
    <title>hand</title>
    <desc>Created with Sketch.</desc>
    <defs></defs>
    <g id="Page-1" stroke="none" stroke-width="1" fill="none" fill-rule="evenodd">
        <g id="Desktop-HD" transform="translate(-720.000000, -2000.000000)">
            <g id="hand" transform="translate(720.000000, 2000.000000)">
                <path d="M388.683753,316.4628 C388.683753,316.4628 358.320726,217.654175 373.559087,208.49195 C388.796375,199.32865 397.209813,210.7731 397.209813,210.7731 L364.67049,179.220775 C364.67049,179.220775 343.249689,184.400125 342.276846,183.8465 C341.306147,183.29395 333.941708,226.817475 333.941708,226.817475 L388.683753,316.4628 Z" id="Fill-1" fill="#C9361F"></path>
                <path d="M378.291914,338.56695 C372.578199,335.8945 365.720024,320.24035 365.720024,320.24035 C365.720024,320.24035 364.196939,327.112825 354.483516,325.394975 C344.769021,323.67605 338.864384,308.214325 338.864384,308.214325 C338.864384,308.214325 338.102841,312.03165 330.674046,309.168925 C323.246324,306.305125 312.389514,285.497425 312.389514,285.497425 C308.198885,286.260675 299.247004,286.0704 294.293759,281.107125 C289.34266,276.14385 231.439676,175.3497 206.678814,150.533325 C186.509732,130.319025 107.842376,52.75885 79.3553183,24.68415 C33.6488156,43.112875 40.5531114,87.630775 72.2965688,111.555975 C116.240797,144.676725 -0.0907415608,159.632125 0.000429038113,230.259625 C0.10447078,311.327525 90.5789554,339.806425 144.04354,339.806425 C186.259817,339.806425 300.160856,344.553625 405.713885,342.80245 L395.583222,332.649075 C393.429451,335.841825 383.34062,340.92765 378.291914,338.56695" id="Fill-3" fill="#3431B0"></path>
                <path d="M396.556388,210.14272 L403.614065,216.946395 C402.898644,216.19927 400.248261,213.47522 396.556388,210.14272" id="Fill-5" fill="#3431B0"></path>
                <path d="M561.028041,240.327752 C526.810106,227.758852 519.8436,210.045002 562.532892,184.025702 C613.622751,152.885102 587.877246,89.0365525 538.636542,71.5140525 C469.264297,46.8277525 457.719954,85.3923025 384.270774,32.1131525 C301.123188,-28.2018725 279.985553,13.8059025 211.119573,19.9355525 L314.865279,138.315627 C356.006816,144.806477 392.767874,182.031577 402.671146,192.721377 C408.335522,200.667777 403.898195,216.856202 403.818823,217.143227 L525.412515,334.350477 C607.208631,315.086477 603.06734,255.770127 561.028041,240.327752" id="Fill-7" fill="#3431B0"></path>
                <path d="M403.814211,217.15645 C403.814211,217.15645 403.741275,217.07905 403.613636,216.946825 L396.555959,210.14315 C383.886463,198.70945 359.002253,180.201175 358.293267,210.475325 C357.340803,251.136125 391.815088,324.631725 396.005717,331.503125 C396.027169,331.83745 395.867353,332.22875 395.583115,332.649075 L405.713777,342.80245 C433.841516,342.3359 461.379327,341.40925 486.806271,339.806425 C501.379623,338.888375 514.196064,336.992075 525.412193,334.3508 L403.818501,217.142475 C403.817429,217.1457 403.814211,217.15645 403.814211,217.15645" id="Fill-9" fill="#F76381"></path>
                <path d="M403.814211,217.15645 C403.814211,217.15645 403.817429,217.1457 403.818501,217.142475 L403.613636,216.946825 C403.741275,217.07905 403.814211,217.15645 403.814211,217.15645" id="Fill-11" fill="#F5A396"></path>
                <path d="M402.671468,192.721807 C392.768196,182.032007 356.007138,144.806907 314.865601,138.316057 L211.119895,19.9359825 C198.616651,21.0486075 184.547419,20.9830325 168.241826,18.9039825 C127.690216,13.7310825 98.7762648,16.8539575 79.354782,24.6842575 C107.84184,52.7589575 186.510268,130.319132 206.678277,150.533432 C231.43914,175.349807 289.343196,276.143957 294.294296,281.107232 C299.246468,286.070507 308.199421,286.260782 312.388978,285.497532 C312.388978,285.497532 323.245787,306.305232 330.674582,309.169032 C338.103377,312.031757 338.86492,308.214432 338.86492,308.214432 C338.86492,308.214432 344.769557,323.676157 354.48298,325.395082 C364.197475,327.112932 365.721633,320.240457 365.721633,320.240457 C365.721633,320.240457 372.577662,335.894607 378.29245,338.567057 C383.341156,340.927757 393.429987,335.841932 395.583758,332.649182 C395.866924,332.228857 396.027813,331.837557 396.005288,331.504307 C391.815731,324.631832 357.340374,251.136232 358.292838,210.475432 C359.001824,180.201283 383.886034,198.709557 396.556602,210.142182 C400.247403,213.474683 402.898858,216.199807 403.614279,216.946933 L403.818072,217.142583 C403.898517,216.856632 408.334771,200.668207 402.671468,192.721807" id="Fill-13" fill="#F5A396"></path>
                <path d="M214.058055,22.9431875 C214.058055,22.9431875 232.533509,53.6774375 234.69157,60.4230625 C236.850705,67.1676125 238.754561,78.4938125 244.976686,77.3489375 C251.199884,76.2029875 256.787033,65.2584125 255.262875,55.5866375 C253.738717,45.9148625 240.405285,31.5335125 236.724138,28.6062875 C233.040846,25.6790625 220.97844,20.2073125 214.058055,22.9431875" id="Fill-15" fill="#F76381"></path>
                <path d="M254.792649,53.5512325 C254.792649,53.5512325 269.865831,55.4593575 274.183027,57.7501825 C278.500223,60.0410075 285.184637,71.9219075 288.127838,79.9166825 C291.07104,87.9114575 286.441718,99.9331825 286.441718,99.9331825 C286.441718,99.9331825 275.197702,106.364907 269.610553,101.528482 C264.023404,96.6931325 253.436889,75.4672575 253.14407,69.4085575 C252.850179,63.3498575 254.792649,53.5512325 254.792649,53.5512325" id="Fill-17" fill="#F76381"></path>
                <path d="M286.6217,76.220725 C286.6217,76.220725 280.084232,92.618775 281.704923,102.037925 C283.325615,111.456 287.730763,118.7488 289.020023,121.020275 C290.309282,123.29175 298.308698,125.20095 298.308698,125.20095 C298.308698,125.20095 306.263065,107.5559 307.238054,99.06985 C308.213043,90.5838 299.960495,82.56645 298.371981,80.97545 C296.785613,79.38445 286.6217,76.220725 286.6217,76.220725" id="Fill-19" fill="#F76381"></path>
                <path d="M307.30788,97.9721675 C307.30788,97.9721675 297.504359,120.772917 297.143967,124.895542 C296.784647,129.018167 300.46794,142.889967 304.912774,146.325667 C309.355464,149.762442 316.213638,146.707292 318.499339,144.671242 C320.783967,142.635192 321.35137,120.550392 319.670613,114.538992 C317.990929,108.528667 307.30788,97.9721675 307.30788,97.9721675" id="Fill-21" fill="#F76381"></path>
                <path d="M316.109704,292.054817 C316.109704,292.054817 304.975092,276.358742 308.880412,258.414843" id="Stroke-23" stroke="#F76381" stroke-width="0.502"></path>
                <path d="M342.476241,315.29277 C342.476241,315.29277 332.657704,298.852795 334.307355,277.853745" id="Stroke-25" stroke="#F76381" stroke-width="0.502"></path>
                <path d="M365.720346,320.240565 L360.116036,302.89329" id="Stroke-27" stroke="#F76381" stroke-width="0.502"></path>
                <path d="M254.792649,53.5512325 C254.792649,53.5512325 255.504853,68.8463325 251.150116,79.0631325" id="Stroke-29" stroke="#F5A396" stroke-width="1.005"></path>
                <path d="M286.6217,76.220725 C286.6217,76.220725 291.004324,87.8404 286.441504,99.933075 L269.943916,108.20735" id="Stroke-31" stroke="#F5A396" stroke-width="1.005"></path>
                <path d="M307.30788,97.9721675 C307.30788,97.9721675 305.618542,117.596292 301.593092,123.510942 C297.567642,129.425592 281.117248,118.261717 281.117248,118.261717" id="Stroke-33" stroke="#F5A396" stroke-width="1.005"></path>
                <path d="M223.919925,111.60177 C223.919925,111.60177 239.075696,129.44892 228.859226,157.64402 L240.026016,194.36387 L224.026112,161.216245 C224.026112,161.216245 224.478747,112.50047 223.919925,111.60177" id="Fill-35" fill="#8C1B10"></path>
                <path d="M202.058395,99.2383025 C202.058395,99.2383025 187.200805,147.216627 185.550081,155.235052 C183.899357,163.252402 185.805359,181.196302 202.693372,190.996002 C219.581384,200.795702 265.961477,236.144927 265.961477,236.144927 L241.040798,196.467752 L224.025146,161.216352 C224.025146,161.216352 230.502549,134.872402 229.485729,126.727127 C228.469981,118.582927 220.342927,96.9474775 202.058395,99.2383025" id="Fill-37" fill="#F76381"></path>
                <path d="M213.95337,120.105235 C213.95337,120.105235 214.025233,121.74461 212.276903,122.480985" id="Stroke-39" stroke="#1A2444" stroke-width="0.502"></path>
                <g id="Group-49" transform="translate(197.357532, 110.990525)" fill="#1A2444">
                    <path d="M32.7265982,16.341505 C19.2837615,20.813505 1.15261089,3.753255 0.386777858,3.024405 L0.949890381,2.289105 C1.13330417,2.463255 19.457522,19.70518 32.4262715,15.39228 L32.7265982,16.341505 Z" id="Fill-41"></path>
                    <path d="M31.3084127,11.7790975 C22.047625,17.7550225 1.49777205,2.2406225 0.627897278,1.5773475 L1.10949256,0.7721725 C1.31650345,0.9312725 22.0444073,16.5832725 30.8257448,10.9158725 L31.3084127,11.7790975 Z" id="Fill-43"></path>
                    <path d="M12.3693833,16.24239 C12.0486773,16.703565 11.7783833,17.228165 11.5863887,17.830165 C11.2410131,18.90194 11.341837,19.416865 11.4855648,19.489965 C12.1334123,19.81569 14.6668824,18.05914 16.8978806,13.29259 C15.720171,13.611865 13.6457717,14.407365 12.3693833,16.24239 M15.7877445,17.144315 C13.9997281,19.71464 12.1816791,20.90574 11.1509151,20.386515 C10.7154414,20.167215 10.0815376,19.494265 10.7390385,17.45284 C12.2235103,12.837865 17.4180893,12.143415 17.6390439,12.11654 L18.4703053,12.012265 L18.1206392,12.837865 C17.3987826,14.536365 16.5954087,15.981165 15.7877445,17.144315" id="Fill-45"></path>
                    <path d="M16.2428466,4.07511 C15.4652151,5.19311 15.1445091,6.374535 15.2893094,7.591435 C15.5166996,9.50171 16.8209755,11.072285 17.5235254,11.79361 C18.2314383,9.46086 18.7044528,3.51181 17.7841661,2.78511 C17.6211316,2.655035 17.1631334,2.89261 16.5120681,3.714985 C16.4166071,3.833235 16.3275817,3.953635 16.2428466,4.07511 Z M17.8764093,13.349135 L17.4548793,12.99761 C17.3454746,12.906235 14.7637377,10.719685 14.4001279,7.666685 C14.2059882,6.030535 14.6865109,4.47501 15.8234619,3.03881 C16.7920154,1.81976 17.6179138,1.466085 18.2786325,1.98961 C20.0258902,3.370985 18.8964474,11.216335 18.1113076,12.85786 L17.8764093,13.349135 Z" id="Fill-47"></path>
                </g>
                <path d="M367.875941,163.200265 L229.447866,131.94034 C229.447866,131.94034 216.248509,127.959615 213.578819,123.21994" id="Stroke-50" stroke="#1A2444" stroke-width="0.867"></path>
                <path d="M419.637137,189.720407 L375.9085,163.964482 L376.103712,164.020382 L371.141886,163.951582 L371.094692,163.950507 L371.04428,163.938682 C365.135353,162.431533 359.225353,160.924382 353.326079,159.381757 L335.61753,154.781833 L300.200434,145.579833 L229.36946,127.177983 L229.574325,127.184433 C226.52601,127.775683 223.382233,127.441358 220.452975,126.609308 C217.511919,125.769733 214.741405,124.460383 212.125345,122.931733 C209.509285,121.396633 207.040171,119.630408 204.693333,117.724433 C203.518841,116.770908 202.375454,115.780833 201.2621,114.757433 C200.149819,113.729733 199.06757,112.683758 198.023935,111.564683 L198.709324,110.935808 C199.716491,112.014033 200.796594,113.060008 201.890641,114.070508 C202.991124,115.081008 204.119494,116.059258 205.277897,117.000958 C207.595775,118.882208 210.027349,120.621558 212.595142,122.127633 C215.159717,123.627258 217.865875,124.902208 220.705035,125.712758 C223.536687,126.516858 226.5303,126.826458 229.397347,126.270683 L229.500316,126.250258 L229.602213,126.276058 L300.43426,144.677908 L335.851356,153.878832 L353.558832,158.479832 C359.463469,160.003107 365.359525,161.564007 371.255581,163.123832 L371.157975,163.110932 L376.118728,163.229182 L376.224915,163.231332 L376.312868,163.285082 L419.750832,189.526907 L419.637137,189.720407 Z" id="Fill-52" fill="#170A4C"></path>
                <path d="M198.783011,109.890585 C198.783011,109.890585 218.298882,126.94546 228.563619,122.369185" id="Stroke-54" stroke="#1A2444" stroke-width="0.867"></path>
                <path d="M214.581803,122.214277 C214.581803,122.214277 209.183431,122.294902 207.100451,126.248753 C205.019616,130.202603 210.118734,129.051278 214.581803,122.214277 Z" id="Stroke-56" stroke="#1A2444" stroke-width="0.867"></path>
                <path d="M214.581803,122.214277 C214.581803,122.214277 209.691841,117.534802 214.286839,113.462702 C218.880765,109.391677 215.930055,120.336252 214.581803,122.214277 Z" id="Stroke-58" stroke="#1A2444" stroke-width="0.867"></path>
                <polygon id="Fill-60" fill="#170A4C" points="383.206545 184.875597 384.685654 184.687472 384.208349 185.250772"></polygon>
                <polygon id="Fill-62" fill="#FFF78F" points="386.272452 159.81466 385.122629 159.942585 377.490041 163.10416 376.932292 162.05066 384.318183 157.201335 388.587112 158.91811"></polygon>
                <polygon id="Fill-64" fill="#F76381" points="377.153354 162.123652 376.026056 162.886902 375.042486 164.301602 375.699987 165.060552 376.795107 163.339477 377.303517 162.793377"></polygon>
                <polygon id="Fill-66" fill="#F76381" points="376.849595 163.059548 376.647947 164.240972 376.29399 164.402222 376.254304 163.687348"></polygon>
                <polygon id="Fill-68" fill="#F76381" points="375.699451 165.060445 376.034101 164.98627 375.896808 164.75192"></polygon>
                <polygon id="Fill-70" fill="#F76381" points="376.647411 164.24108 376.322414 164.670005 376.128274 164.553905 376.294527 164.401255"></polygon>
                <path d="M391.99153,164.675165 C391.99153,164.675165 391.944335,169.054715 386.607101,173.38159 L384.749366,184.472365 L383.900943,184.35949 L383.269185,172.83119 L387.5778,165.696415 L391.99153,164.675165 Z" id="Fill-72" fill="#170A4C"></path>
                <polygon id="Fill-74" fill="#040D21" points="386.910324 166.64994 391.961175 164.933165 391.62438 166.522015 385.349698 169.38689"></polygon>
                <path d="M390.579565,159.942155 C390.579565,159.942155 393.883159,162.11258 391.631781,165.25373 C389.381476,168.39488 381.118202,165.98903 381.118202,165.98903 L376.983347,173.34633 L376.102747,173.141005 L378.936543,164.31633 L390.579565,159.942155 Z" id="Fill-76" fill="#170A4C"></path>
                <polygon id="Fill-78" fill="#FFF78F" points="375.188252 157.286153 377.351677 154.851278 380.407501 152.605603 390.628261 160.220902 385.295317 163.844727 377.05564 159.093228"></polygon>
                <path d="M376.172894,154.512545 C376.251194,154.213695 376.228669,153.58052 376.409938,153.216095 L379.491504,154.546945 L378.028484,156.58192 L376.054909,156.05302 L375.211849,156.07237 C375.322326,156.045495 375.100299,156.13687 375.211849,156.07237 C375.783542,155.742345 376.057054,154.953295 376.172894,154.512545" id="Fill-80" fill="#F76381"></path>
                <path d="M373.359477,155.273108 C372.745952,154.374408 372.443481,153.710058 372.287954,152.436183 C372.184985,151.601983 375.881148,149.518633 376.583698,151.926633 C376.583698,151.926633 376.681305,152.378133 376.882952,152.972608 C376.948381,153.166108 376.614804,152.967233 376.527923,153.142458 C376.346655,153.505808 376.621239,154.116408 376.54294,154.414183 C376.427099,154.854933 375.783542,155.741808 375.212922,156.071833 C375.100299,156.136333 374.990894,156.183633 374.880417,156.210508 C374.433145,156.320158 373.96013,156.151383 373.359477,155.273108" id="Fill-82" fill="#F76381"></path>
                <path d="M374.58599,149.98314 C377.072266,149.541315 376.926393,153.45324 376.926393,153.45324 L376.744051,153.493015 C376.560638,153.32209 376.060808,152.949065 376.060808,152.949065 C376.083333,152.88134 376.090841,152.811465 376.08655,152.744815 L375.874177,152.46424 C375.874177,152.46424 375.790514,152.293315 375.507349,152.359965 C375.352895,152.50079 375.334661,152.777065 375.353968,153.01249 C375.197369,152.953365 375.080456,152.860915 374.996794,152.772765 C374.908841,152.445965 374.839122,152.157865 374.824106,152.09444 C374.818743,152.09014 376.07797,151.489215 376.073679,151.48384 L372.348556,152.90284 C372.05252,152.069715 372.209119,150.40669 374.58599,149.98314" id="Fill-84" fill="#170A4C"></path>
                <path d="M379.891368,160.728518 C379.958941,160.768293 377.055426,159.093443 377.055426,159.093443 L375.188037,157.286368 L376.054694,156.052268" id="Fill-86" fill="#FFF78F"></path>
                <polygon id="Fill-88" fill="#170A4C" points="376.924998 173.548108 376.420878 174.213532 375.341848 173.619058"></polygon>
                <path d="M390.9598,160.24079 C390.9598,160.24079 391.49288,160.62994 391.810368,161.19754 L386.158864,163.25724 C386.158864,163.25724 389.354125,160.486965 390.9598,160.24079" id="Fill-90" fill="#091430"></path>
                <polyline id="Fill-92" fill="#FFF78F" points="377.709494 158.433607 369.844153 162.501408 370.357926 163.576408 380.111035 160.446008 382.560843 155.223657 380.049897 152.901657"></polyline>
                <polygon id="Fill-94" fill="#F76381" points="370.430756 163.355065 369.147932 163.808715 367.428561 163.76034 367.210825 162.778865 369.24232 162.920765 369.982411 162.836915"></polygon>
                <polygon id="Fill-96" fill="#F76381" points="369.499528 163.043315 368.432296 162.503665 368.092283 162.69179 368.641452 163.148665"></polygon>
                <polygon id="Fill-98" fill="#F76381" points="367.210825 162.779295 367.46932 162.553545 367.574434 162.80402"></polygon>
                <polygon id="Fill-100" fill="#F76381" points="368.432189 162.503127 367.893746 162.509577 367.872294 162.736402 368.093249 162.691252"></polygon>
            </g>
        </g>
    </g>
</svg>