<?xml version="1.0" encoding="UTF-8"?>
<svg width="196px" height="229px" viewBox="0 0 196 229" version="1.1" xmlns="http://www.w3.org/2000/svg" xmlns:xlink="http://www.w3.org/1999/xlink">
    <!-- Generator: Sketch 49.3 (51167) - http://www.bohemiancoding.com/sketch -->
    <title>head-4</title>
    <desc>Created with Sketch.</desc>
    <defs>
        <polygon id="path-1" points="6.34633174e-05 0.504616205 192.425244 0.504616205 192.425244 206 6.34633174e-05 206"></polygon>
        <polygon id="path-3" points="0.759431267 0.881421435 187.645 0.881421435 187.645 179.904689 0.759431267 179.904689"></polygon>
    </defs>
    <g id="Page-1" stroke="none" stroke-width="1" fill="none" fill-rule="evenodd">
        <g id="Desktop-HD" transform="translate(-969.000000, -9922.000000)">
            <g id="head-4" transform="translate(969.000000, 9921.000000)">
                <g id="Group-3" transform="translate(0.000000, 23.119000)">
                    <mask id="mask-2" fill="white">
                        <use xlink:href="#path-1"></use>
                    </mask>
                    <g id="Clip-2"></g>
                    <path d="M54.1697,206.0002 C54.1697,206.0002 7.6607,204.6562 0.9427,172.4062 C-5.7753,140.1572 24.6077,54.1592 54.1697,27.2852 C83.7317,0.4102 151.0867,-12.0738 179.1367,17.8792 C212.7297,53.7512 176.4487,138.8132 138.8247,167.0322 C110.7927,188.0562 99.8567,204.6562 54.1697,206.0002" id="Fill-1" fill="#F5A396" mask="url(#mask-2)"></path>
                </g>
                <g id="Group-6" transform="translate(8.000000, 0.119000)">
                    <mask id="mask-4" fill="white">
                        <use xlink:href="#path-3"></use>
                    </mask>
                    <g id="Clip-5"></g>
                    <path d="M159.532,22.7991 C127.822,-4.6049 86.803,-5.2759 53.096,15.0211 C-1.875,48.1231 -8.418,84.7731 10.012,82.2021 C28.443,79.6331 46.17,50.2851 46.17,50.2851 C46.17,50.2851 49.009,81.2831 65.318,101.0491 C83.909,123.5781 140.972,134.1781 140.972,134.1781 C140.363,152.4451 128.916,164.5651 138.535,177.0461 C148.154,189.5281 180.612,160.6091 186.962,100.5541 C191.083,61.5861 175.891,36.9371 159.532,22.7991" id="Fill-4" fill="#27229D" mask="url(#mask-4)"></path>
                </g>
                <path d="M28.8162,163.9005 C28.8162,163.9005 22.9612,173.1805 28.8162,175.4295" id="Stroke-7" stroke="#27229D" stroke-width="2.129"></path>
                <path d="M32.9608,196.586 C32.9608,196.586 10.9518,187.307 15.1928,196.586 C19.4358,205.866 32.9608,196.586 32.9608,196.586" id="Fill-9" fill="#F76381"></path>
                <path d="M105.8318,54.5333 C105.8318,54.5333 98.6798,106.2063 153.5168,121.6963" id="Stroke-11" stroke="#FFFFFF" stroke-width="2.129"></path>
                <path d="M129.5213,42.6124 C127.2903,44.9964 115.3693,99.8344 159.8753,105.3974" id="Stroke-13" stroke="#FFFFFF" stroke-width="2.129"></path>
                <path d="M147.9539,36.254 C147.9539,36.254 147.9539,72.393 167.0269,86.511" id="Stroke-15" stroke="#FFFFFF" stroke-width="2.129"></path>
                <path d="M21.0828,114.1397 C18.4098,115.3307 11.2888,132.8157 14.6498,135.9947 C18.0128,139.1737 37.0868,149.5057 40.2658,146.3267 C43.4438,143.1477 53.7758,130.6557 49.4048,126.3707 C45.0338,122.0867 21.0828,114.1397 21.0828,114.1397 Z" id="Stroke-17" stroke="#27229D" stroke-width="2.129"></path>
                <path d="M61.5252,132.0216 C58.9402,133.1286 51.3912,146.9226 51.9882,150.2016 C52.5842,153.4796 72.8502,163.8906 81.7912,163.9006 C90.7322,163.9106 96.2132,144.8356 96.2132,144.8356 C96.2132,144.8356 67.7832,129.3386 61.5252,132.0216 Z" id="Stroke-19" stroke="#27229D" stroke-width="2.129"></path>
                <path d="M93.2635,152.5304 C93.2635,152.5304 143.2845,146.6254 153.5165,151.6914 C163.7485,156.7584 153.5165,165.9964 153.5165,165.9964" id="Stroke-21" stroke="#27229D" stroke-width="2.129"></path>
                <path d="M46.6229,131.7091 C46.6229,131.7091 57.9479,132.3191 60.3329,138.8761" id="Stroke-23" stroke="#27229D" stroke-width="2.129"></path>
                <path d="M28.8162,126.3712 C25.0342,127.4832 23.8242,136.1802 28.8162,135.2932 C33.8082,134.4052 34.8512,124.5962 28.8162,126.3712" id="Fill-25" fill="#170A4C"></path>
                <path d="M69.3484,143.546 C65.5664,144.658 64.3564,153.355 69.3484,152.467 C74.3394,151.58 75.3834,141.771 69.3484,143.546" id="Fill-27" fill="#170A4C"></path>
            </g>
        </g>
    </g>
</svg>