<?xml version="1.0" encoding="UTF-8"?>
<svg width="225px" height="209px" viewBox="0 0 225 209" version="1.1" xmlns="http://www.w3.org/2000/svg" xmlns:xlink="http://www.w3.org/1999/xlink">
    <!-- Generator: Sketch 49.3 (51167) - http://www.bohemiancoding.com/sketch -->
    <title>head-6</title>
    <desc>Created with Sketch.</desc>
    <defs>
        <polygon id="path-1" points="0.809860513 0.124 150.134808 0.124 150.134808 200.271427 0.809860513 200.271427"></polygon>
    </defs>
    <g id="Page-1" stroke="none" stroke-width="1" fill="none" fill-rule="evenodd">
        <g id="Desktop-HD" transform="translate(-810.000000, -10197.000000)">
            <g id="head-6" transform="translate(810.000000, 10196.000000)">
                <path d="M41.015,204.6461 C41.015,204.6461 -3.166,189.2431 0.181,156.2861 C3.528,123.3291 58.758,50.1031 95.256,33.3101 C131.753,16.5181 200.116,24.9921 217.916,62.2201 C239.235,106.8071 178.636,177.3461 134,192.9801 C100.745,204.6281 85.223,217.2241 41.015,204.6461" id="Fill-1" fill="#FFF78F"></path>
                <path d="M49.6839,68.5855 C49.6839,68.5855 43.8479,90.3645 70.0549,91.9305" id="Stroke-3" stroke="#170A4C" stroke-width="1.675"></path>
                <path d="M80.7709,102.1432 C80.7709,102.1432 79.4069,120.6412 97.5749,121.8222" id="Stroke-5" stroke="#170A4C" stroke-width="1.675"></path>
                <path d="M58.9115,102.7096 C58.6825,104.0386 17.8225,123.6026 38.2035,136.5546" id="Stroke-7" stroke="#170A4C" stroke-width="1.675"></path>
                <g id="Group-11" transform="translate(74.000000, 0.876000)">
                    <mask id="mask-2" fill="white">
                        <use xlink:href="#path-1"></use>
                    </mask>
                    <g id="Clip-10"></g>
                    <path d="M138.2787,40.4888 C116.1957,4.5928 78.0577,-2.1932 38.5987,0.7288 C-0.8603,3.6508 -7.9423,27.8158 10.5077,30.9458 C28.9587,34.0758 31.4197,37.9258 31.4197,37.9258 C31.4197,37.9258 5.9177,47.4748 18.6037,54.0598 C31.2917,60.6448 56.7247,62.9178 56.7247,62.9178 C56.7247,62.9178 32.2357,71.8628 42.1887,76.9398 C52.1407,82.0178 88.3027,91.5388 88.3027,91.5388 C88.3027,91.5388 96.4667,106.3258 90.3397,123.6528 C84.2117,140.9798 54.8547,181.7818 60.2897,196.6678 C65.7227,211.5528 116.6627,179.0068 140.9767,123.3588 C156.7547,87.2508 149.6727,59.0098 138.2787,40.4888" id="Fill-9" fill="#27229D" mask="url(#mask-2)"></path>
                </g>
                <path d="M15.1,142.3697 C7.052,157.1077 19.342,172.9617 38.1,164.6997 C30.415,160.1517 15.1,142.3697 15.1,142.3697" id="Fill-12" fill="#F5A396"></path>
            </g>
        </g>
    </g>
</svg>