<?xml version="1.0" encoding="UTF-8"?>
<svg width="257px" height="268px" viewBox="0 0 257 268" version="1.1" xmlns="http://www.w3.org/2000/svg" xmlns:xlink="http://www.w3.org/1999/xlink">
    <!-- Generator: Sketch 49.3 (51167) - http://www.bohemiancoding.com/sketch -->
    <title>head-2</title>
    <desc>Created with Sketch.</desc>
    <defs>
        <polygon id="path-1" points="0.857234356 0.48308386 157.946959 0.48308386 157.946959 241 0.857234356 241"></polygon>
        <polygon id="path-3" points="3.66345768e-05 0.735 256.874 0.735 256.874 205.325449 3.66345768e-05 205.325449"></polygon>
    </defs>
    <g id="Page-1" stroke="none" stroke-width="1" fill="none" fill-rule="evenodd">
        <g id="Desktop-HD" transform="translate(-805.000000, -9627.000000)">
            <g id="head-2" transform="translate(805.000000, 9626.000000)">
                <g id="Group-3" transform="translate(23.000000, 27.265000)">
                    <mask id="mask-2" fill="white">
                        <use xlink:href="#path-1"></use>
                    </mask>
                    <g id="Clip-2"></g>
                    <path d="M99.6866,1.4011 C59.2596,-6.8769 11.2416,42.5131 2.5996,81.7491 C-2.0454,102.8441 3.0496,138.1051 12.5226,169.7071 C18.6746,167.5681 24.3456,174.0571 24.3456,174.0571 C27.1456,180.1491 25.3706,187.5601 19.8036,191.0121 C26.8346,209.1281 35.0916,224.1791 43.2606,231.7771 C67.5176,254.3381 106.4656,228.4111 106.4656,228.4111 C143.1776,200.7551 142.5036,180.7771 153.2906,147.2321 C167.7666,102.2091 148.1036,11.3161 99.6866,1.4011" id="Fill-1" fill="#84D0F1" mask="url(#mask-2)"></path>
                </g>
                <path d="M47.3458,201.3224 C47.3458,201.3224 41.6748,194.8334 35.5228,196.9714 C37.7338,204.3494 40.1838,211.5254 42.8038,218.2774 C48.3698,214.8254 50.1458,207.4144 47.3458,201.3224" id="Fill-4" fill="#FCDCC5"></path>
                <path d="M47.3458,201.3224 C47.3458,201.3224 41.6748,194.8334 35.5228,196.9714 C37.7338,204.3494 40.1838,211.5254 42.8038,218.2774 C48.3698,214.8254 50.1458,207.4144 47.3458,201.3224" id="Fill-6" fill="#84D0F1"></path>
                <path d="M94.126,159.0646 C94.126,159.0646 80.465,146.5166 68.266,160.0326" id="Stroke-8" stroke="#27229D" stroke-width="1.675"></path>
                <g id="Group-12" transform="translate(0.000000, 0.265000)">
                    <mask id="mask-4" fill="white">
                        <use xlink:href="#path-3"></use>
                    </mask>
                    <g id="Clip-11"></g>
                    <path d="M82.8839,20.367 C53.3709,54.993 32.2769,42.559 10.7889,75.783 C-10.6981,109.008 4.2939,129.239 17.9259,116.419 C31.5579,103.597 36.1129,103.96 36.1129,103.96 C36.1129,103.96 28.3329,130.055 41.2409,123.915 C54.1499,117.775 71.3129,98.868 71.3129,98.868 C71.3129,98.868 63.6629,123.793 73.7189,118.922 C83.7749,114.052 113.1929,90.967 113.1929,90.967 C113.1929,90.967 129.9099,93.383 140.0269,108.727 C150.1429,124.071 166.0319,194.483 179.9329,202.094 C210.9789,219.093 200.1809,163.277 228.5639,167.653 C257.4309,172.104 264.0429,134.835 249.2209,112.439 C240.8159,99.74 204.5949,98.127 193.6789,58.352 C175.5619,-7.655 110.4589,-11.987 82.8839,20.367" id="Fill-10" fill="#27229D" mask="url(#mask-4)"></path>
                </g>
                <path d="M93.377,237.3136 C93.377,237.3136 81.701,252.5566 73.132,243.7276 C64.563,234.8976 75.364,231.4746 93.377,237.3136" id="Fill-13" fill="#F76381"></path>
                <path d="M98.1221,199.3654 C98.1221,199.3654 92.2441,188.9714 100.9391,184.3454 C109.6351,179.7194 123.3031,180.7664 120.3791,192.7974 C117.4551,204.8274 104.9781,206.0024 98.1221,199.3654" id="Fill-15" fill="#F5A396"></path>
                <path d="M28.1866,167.3243 C28.1866,167.3243 44.8746,157.0453 51.6336,169.6633 C58.3936,182.2803 60.0136,199.7113 62.9086,204.5263 C65.8036,209.3423 78.1636,202.2043 78.1636,202.2043" id="Stroke-17" stroke="#27229D" stroke-width="1.675"></path>
                <path d="M115.7667,73.2189 C115.7667,73.2189 97.6657,55.3779 75.0227,64.1929" id="Stroke-19" stroke="#84D0F1" stroke-width="1.675" stroke-linecap="round" stroke-linejoin="round"></path>
                <path d="M47.3458,201.3224 C47.3458,201.3224 41.6748,194.8334 35.5228,196.9714 C37.7338,204.3494 40.1838,211.5254 42.8038,218.2774 C48.3698,214.8254 50.1458,207.4144 47.3458,201.3224" id="Fill-21" fill="#F5A396"></path>
            </g>
        </g>
    </g>
</svg>