<?xml version="1.0" encoding="UTF-8"?>
<svg width="174px" height="239px" viewBox="0 0 174 239" version="1.1" xmlns="http://www.w3.org/2000/svg" xmlns:xlink="http://www.w3.org/1999/xlink">
    <!-- Generator: Sketch 49.3 (51167) - http://www.bohemiancoding.com/sketch -->
    <title>head-3</title>
    <desc>Created with Sketch.</desc>
    <defs>
        <polygon id="path-1" points="0.527576875 0.0145 21.902 0.0145 21.902 46.2898786 0.527576875 46.2898786"></polygon>
    </defs>
    <g id="Page-1" stroke="none" stroke-width="1" fill="none" fill-rule="evenodd">
        <g id="Desktop-HD" transform="translate(-298.000000, -9876.000000)">
            <g id="head-3" transform="translate(298.000000, 9876.000000)">
                <path d="M72.1168,228.8486 C72.1168,228.8486 115.4888,251.0396 137.0078,225.8056 C158.5268,200.5706 171.6068,109.0346 158.4868,71.0126 C145.3668,32.9916 91.9148,-10.5864 52.6658,2.3116 C5.6608,17.7586 -3.4062,110.4166 16.1848,153.5216 C30.7818,185.6356 32.4168,205.5816 72.1168,228.8486" id="Fill-1" fill="#84D0F1"></path>
                <path d="M64.4391,32.4892 C92.5241,37.6112 100.4091,83.0482 89.8471,79.3642 C79.2851,75.6802 68.4631,69.8002 68.4631,69.8002 C68.4631,69.8002 52.1171,74.1322 43.8271,90.5582 C35.5371,106.9842 30.6161,136.0362 16.0881,142.4112 C1.5601,148.7862 -7.8619,100.9342 8.9941,42.5212 C20.0221,4.3012 42.0971,28.4152 64.4391,32.4892" id="Fill-3" fill="#170A4C"></path>
                <path d="M125.5924,106.9999 C125.5924,106.9999 138.9804,119.8689 151.4964,106.6189" id="Stroke-5" stroke="#27229D" stroke-width="1.675"></path>
                <path d="M46.9073,109.9462 C46.9073,109.9462 42.4263,149.8052 39.0363,163.5752 C35.6463,177.3432 36.9363,210.7262 72.1163,228.8482 C107.2973,246.9702 153.6103,245.0422 156.9383,174.7372 C156.9383,174.7372 147.5143,173.3622 138.1813,178.5702 C126.2203,185.2462 112.7933,198.2552 102.2973,191.0492 C84.2643,178.6692 62.2823,162.8722 63.1793,153.8922 C64.0753,144.9122 83.3903,51.3892 83.3903,51.3892 L23.9023,72.8842 L46.9073,109.9462 Z" id="Fill-7" fill="#170A4C"></path>
                <g id="Group-11" transform="translate(152.000000, 111.505000)">
                    <mask id="mask-2" fill="white">
                        <use xlink:href="#path-1"></use>
                    </mask>
                    <g id="Clip-10"></g>
                    <path d="M6.6026,0.0145 C6.6026,0.0145 18.6816,30.4425 21.5756,36.7775 C24.4706,43.1125 7.3106,48.4535 2.0716,45.4115 C-3.1664,42.3695 6.6026,0.0145 6.6026,0.0145" id="Fill-9" fill="#84D0F1" mask="url(#mask-2)"></path>
                </g>
                <path d="M140.4762,189.6533 C140.4762,189.6533 158.2082,179.6083 155.2052,194.1803 C153.2462,203.6913 145.0932,199.1823 140.4762,189.6533" id="Fill-12" fill="#F5A396"></path>
                <path d="M48.9845,56.2275 C48.9845,56.2275 51.8745,76.4085 36.4525,71.9985" id="Stroke-14" stroke="#C9CACB" stroke-width="1.675" stroke-linecap="round" stroke-linejoin="round"></path>
                <path d="M40.2462,37.9589 C40.2462,37.9589 21.3072,43.3839 27.7572,53.6229" id="Stroke-16" stroke="#C9CACB" stroke-width="1.675" stroke-linecap="round" stroke-linejoin="round"></path>
                <path d="M23.9025,72.8847 C23.9025,72.8847 9.0755,80.5757 16.7975,90.2497" id="Stroke-18" stroke="#C9CACB" stroke-width="1.675" stroke-linecap="round" stroke-linejoin="round"></path>
                <path d="M65.8522,48.4365 C65.8522,48.4365 78.3922,49.4845 73.4272,59.6415" id="Stroke-20" stroke="#C9CACB" stroke-width="1.675" stroke-linecap="round" stroke-linejoin="round"></path>
                <path d="M23.086,108.7949 C23.086,108.7949 22.544,124.6529 11.617,120.3149" id="Stroke-22" stroke="#C9CACB" stroke-width="1.675" stroke-linecap="round" stroke-linejoin="round"></path>
                <path d="M155.9669,95.6923 C162.6769,102.7443 162.8409,134.4083 135.8669,127.2733 C108.8939,120.1373 114.9999,91.6393 127.9099,88.5193 C138.0309,86.0743 149.8509,89.2643 155.9669,95.6923 Z" id="Stroke-24" stroke="#FFFFFF" stroke-width="1.675" stroke-linecap="round" stroke-linejoin="round"></path>
                <path d="M117.484,100.1816 C117.484,100.1816 57.147,73.8346 44.54,86.9166 C31.934,99.9986 50.318,112.5566 50.318,112.5566" id="Stroke-26" stroke="#FFFFFF" stroke-width="1.675" stroke-linecap="round" stroke-linejoin="round"></path>
            </g>
        </g>
    </g>
</svg>