<?xml version="1.0" encoding="UTF-8"?>
<svg width="264px" height="236px" viewBox="0 0 264 236" version="1.1" xmlns="http://www.w3.org/2000/svg" xmlns:xlink="http://www.w3.org/1999/xlink">
    <!-- Generator: Sketch 49.3 (51167) - http://www.bohemiancoding.com/sketch -->
    <title>head-1</title>
    <desc>Created with Sketch.</desc>
    <defs></defs>
    <g id="Page-1" stroke="none" stroke-width="1" fill="none" fill-rule="evenodd">
        <g id="Desktop-HD" transform="translate(-378.000000, -9626.000000)">
            <g id="head-1" transform="translate(378.000000, 9626.000000)">
                <path d="M109.0434,213.613 C109.0434,213.613 139.3044,246.804 167.1354,231.421 C194.9674,216.037 238.7784,139.663 239.8374,101.11 C240.8964,62.557 207.6324,5.404 168.0544,3.732 C120.6534,1.728 81.2384,81.828 84.2724,127.128 C86.5314,160.878 81.2674,179.331 109.0434,213.613" id="Fill-1" fill="#F5A396"></path>
                <path d="M225.8857,154.6443 C225.8857,154.6443 208.8607,168.0093 197.5947,145.4653" id="Stroke-3" stroke="#170A4C" stroke-width="1.939"></path>
                <path d="M184.5371,139.8572 C184.5371,139.8572 168.7211,148.0392 160.8271,132.4462" id="Stroke-5" stroke="#170A4C" stroke-width="1.939"></path>
                <path d="M188.5913,0.8425 C228.6083,6.7985 254.9213,36.3965 261.2853,73.8425 C271.6653,134.9115 236.6583,130.4875 226.9363,115.3805 C217.2153,100.2735 215.6123,71.4115 215.6123,71.4115 C215.6123,71.4115 187.0423,98.8515 162.3103,99.3575 C134.1183,99.9345 118.7613,84.5395 118.7613,84.5395 C105.7763,96.4845 104.1123,112.4925 88.9223,113.3105 C73.7313,114.1265 74.4643,72.1675 114.4183,29.7155 C140.3433,2.1695 167.9453,-2.2295 188.5913,0.8425" id="Fill-7" fill="#F76381"></path>
                <path d="M145.8325,154.1374 C145.8325,154.1374 146.0985,164.1694 154.3655,163.7374 C162.6315,163.3054 172.0255,156.6334 164.7105,149.2324 C157.3955,141.8314 147.8975,146.3874 145.8325,154.1374" id="Fill-9" fill="#F76381"></path>
                <path d="M186.938,175.8601 C186.938,175.8601 183.833,185.9871 178.5,183.1181" id="Stroke-11" stroke="#170A4C" stroke-width="1.939"></path>
                <path d="M168.0337,197.5544 C168.0337,197.5544 175.1127,197.9104 176.9447,201.7054 C178.7767,205.5004 170.0917,205.8104 165.1967,201.7844 C160.3027,197.7594 158.4917,186.4264 168.0337,197.5544" id="Fill-13" fill="#F76381"></path>
                <path d="M94.9443,54.8279 C70.7033,92.3769 26.6553,129.3729 0.0003,137.2239 C30.0623,175.4439 70.2563,214.4369 112.2363,198.7369 C107.7703,168.7449 108.2173,117.8329 135.0133,85.6779 C161.8093,53.5229 116.7023,62.4939 116.7023,62.4939 L94.9443,54.8279 Z" id="Fill-15" fill="#F76381"></path>
            </g>
        </g>
    </g>
</svg>