<?xml version="1.0" encoding="UTF-8"?>
<svg width="262px" height="43px" viewBox="0 0 262 43" version="1.1" xmlns="http://www.w3.org/2000/svg" xmlns:xlink="http://www.w3.org/1999/xlink">
    <!-- Generator: Sketch 49.2 (51160) - http://www.bohemiancoding.com/sketch -->
    <title>health-union-informal</title>
    <desc>Created with Sketch.</desc>
    <defs></defs>
    <g id="Page-1" stroke="none" stroke-width="1" fill="none" fill-rule="evenodd">
        <g id="health-union" transform="translate(-26.000000, -149.000000)">
            <g id="health-union-informal" transform="translate(26.301744, 149.045378)">
                <path d="M125.481827,2.35196147e-15 C125.054773,0.00235383927 124.874536,0.292212333 124.75718,0.876973261 L119.739804,24.3798567 C119.622784,24.9644831 119.856823,25.2567963 120.442929,25.2567963 L150.706241,25.2567963 C151.292011,25.2567963 151.643741,24.9644831 151.760761,24.3798567 L153.782036,14.8505065 C153.957565,14.0320429 154.045666,13.2720219 154.045666,12.628953 C154.045666,9.88121552 152.346531,8.77040514 147.982176,8.77040514 L130.600418,8.77040514 C130.600418,8.77040514 126.460688,0.973144409 126.007405,0.28817718 C126.007405,0.28817718 125.83154,-0.00201757652 125.481827,2.35196147e-15 Z" id="Fill-1" fill="#2180AE"></path>
                <path d="M153.875181,42.4114424 C154.302235,42.4091558 154.482472,42.1191628 154.599827,41.5345364 L159.617204,18.0316194 C159.73456,17.446993 159.500184,17.1546798 158.914415,17.1546798 L128.650767,17.1546798 C128.064997,17.1546798 127.713603,17.446993 127.596247,18.0316194 L125.575308,27.5609359 C125.399442,28.3794331 125.311678,29.1394206 125.311678,29.7825231 C125.311678,32.5302269 127.010477,33.6410037 131.374831,33.6410037 L148.756589,33.6410037 C148.756589,33.6410037 152.89632,41.4384325 153.349602,42.1231644 C153.349602,42.1231644 153.525468,42.4133591 153.875181,42.4114424 Z" id="Fill-2" fill="#21AEAB"></path>
                <path d="M153.29311,17.1546798 L151.760761,24.3798567 C151.643741,24.9644831 151.292011,25.2567963 150.706241,25.2567963 L126.063898,25.2567963 L127.596247,18.0316194 C127.713603,17.446993 128.064997,17.1546798 128.650767,17.1546798 L153.29311,17.1546798 Z" id="Fill-3" fill="#045775"></path>
                <path d="M5.35609402,3.40432412 C4.77388869,3.40432412 4.42457894,3.69552766 4.30816477,4.27759849 L0.0291203545,24.3630435 C-0.0873274371,24.9452152 0.14553452,25.2363179 0.727739851,25.2363179 L4.65747452,25.2363179 C5.23964623,25.2363179 5.58895597,24.9452152 5.70540377,24.3630435 L7.94679678,13.8546307 L17.3490396,13.8546307 C18.4260892,13.8546307 18.775399,14.0292856 18.775399,14.7279051 C18.775399,15.1063352 18.6880715,15.6011795 18.542537,16.299799 L16.825075,24.3630435 C16.7086608,24.9452152 16.9415228,25.2363179 17.5236945,25.2363179 L21.4534292,25.2363179 C22.0356345,25.2363179 22.3849442,24.9452152 22.5013584,24.3630435 L24.5098895,14.8734732 C24.6845443,14.0584059 24.7718718,13.3015794 24.7718718,12.661167 C24.7718718,9.92492968 23.0835637,8.81875972 18.7462786,8.81875972 L9.02384637,8.81875972 L9.98444818,4.27759849 C10.1008623,3.69552766 9.86800039,3.40432412 9.28582869,3.40432412 L5.35609402,3.40432412 Z" id="Fill-4" fill="#2180AE"></path>
                <path d="M40.135986,8.81875972 C34.7799929,8.81875972 32.6841007,10.5362217 31.781706,14.8734732 C30.7046564,19.9966717 30.617329,20.7244115 30.617329,21.3647903 C30.617329,24.1010612 32.3056706,25.2363179 36.6428885,25.2363179 L49.305535,25.2363179 C49.7712589,25.2363179 50.0621262,25.0034559 50.1788094,24.5376984 L50.8772271,21.1901354 C50.9646554,20.7244115 50.7901351,20.4915159 50.3240749,20.4915159 L38.2438355,20.4915159 C36.9340921,20.4915159 36.5265416,20.2004469 36.5265416,19.5309141 C36.5265416,19.3562593 36.5554602,19.1525177 36.6721434,18.5703123 L50.2369829,18.5703123 C51.4011245,18.5703123 52.0124502,18.1627955 52.2743989,16.8820043 C53.1476732,12.9231493 53.2351016,12.2536501 53.2351016,11.6714448 C53.2351016,9.60470666 52.041705,8.81875972 48.8398111,8.81875972 L40.135986,8.81875972 Z M37.399816,15.1354555 C37.7199381,13.6217688 38.1567434,13.1560112 39.8158639,13.1560112 L46.8020588,13.1560112 C47.2096093,13.1560112 47.3841297,13.3015794 47.3841297,13.6217688 C47.3841297,13.7090962 47.3841297,13.7964236 47.1514358,14.8443529 C47.122181,15.0481281 47.0058341,15.1354555 46.8020588,15.1354555 L37.399816,15.1354555 Z" id="Fill-5" fill="#2180AE"></path>
                <path d="M61.9577574,8.81875972 C61.4920335,8.81875972 61.2008299,9.0516553 61.084483,9.51737922 L60.3860653,12.8649422 C60.298637,13.3306661 60.4731573,13.5635617 60.9388812,13.5635617 L73.0191207,13.5635617 C74.3292004,13.5635617 74.7367508,13.825544 74.7367508,14.4950431 C74.7367508,14.669698 74.707496,14.90256 74.5622304,15.4847653 L63.9373362,15.4847653 C60.4149839,15.4847653 59.0178121,16.8820043 58.4939148,19.3853796 C58.0571094,21.5685655 57.998936,22.0925302 57.998936,22.5582877 C57.998936,24.4212506 59.0467307,25.2363179 61.8703291,25.2363179 L76.0175756,25.2363179 C77.7348695,25.2363179 78.2880218,24.7996807 78.6955722,22.8493567 L80.3839475,14.8734732 C80.5584679,14.0584059 80.6458962,13.3015794 80.6458962,12.661167 C80.6458962,9.92492968 78.9575209,8.81875972 74.6204039,8.81875972 L61.9577574,8.81875972 Z M72.8156817,20.8990664 L64.4612336,20.8990664 C64.0536831,20.8990664 63.8791628,20.7244115 63.8791628,20.4041885 C63.8791628,20.3459814 63.8791628,20.258654 63.9955097,19.6764823 C64.082938,19.1816044 64.4030601,18.9196221 64.8977026,18.9196221 L73.8342216,18.9196221 L73.5722729,20.2004469 C73.4851808,20.6661708 73.2228959,20.8990664 72.8156817,20.8990664 Z" id="Fill-6" fill="#2180AE"></path>
                <path d="M90.9489869,3.40432412 C90.3669161,3.40432412 90.0175391,3.69552766 89.9011922,4.27759849 L85.6222487,24.3630435 C85.5055655,24.9452152 85.7385956,25.2363179 86.3206664,25.2363179 L90.2505692,25.2363179 C90.83264,25.2363179 91.182017,24.9452152 91.2983639,24.3630435 L95.5773075,4.27759849 C95.6939907,3.69552766 95.4609606,3.40432412 94.8788897,3.40432412 L90.9489869,3.40432412 Z" id="Fill-7" fill="#2180AE"></path>
                <path d="M102.545681,8.81875972 C102.079957,8.81875972 101.788753,9.0516553 101.701325,9.51737922 L101.002907,12.7776147 C100.915479,13.2433387 101.089999,13.4762342 101.555723,13.4762342 L104.204801,13.4762342 L102.98215,19.2689318 C102.778374,20.2004469 102.662027,21.0446009 102.662027,21.7432204 C102.662027,24.217509 104.029944,25.2363179 107.726817,25.2363179 L111.627465,25.2363179 C112.093189,25.2363179 112.413647,25.0034559 112.500739,24.5376984 L113.170238,21.2774629 C113.257667,20.811739 113.083146,20.5788434 112.617423,20.5788434 L109.706396,20.5788434 C108.92055,20.5788434 108.571173,20.4624292 108.571173,19.8802239 C108.571173,19.705569 108.600091,19.5018274 108.658601,19.2689318 L109.880916,13.4762342 L113.956421,13.4762342 C114.422145,13.4762342 114.713012,13.2433387 114.80044,12.7776147 L115.499194,9.51737922 C115.586286,9.0516553 115.411766,8.81875972 114.946042,8.81875972 L110.870874,8.81875972 L111.685975,5.06378081 C111.802322,4.48137372 111.569292,4.19050643 110.987221,4.19050643 L107.057318,4.19050643 C106.475247,4.19050643 106.12587,4.48137372 106.009523,5.06378081 L105.194422,8.81875972 L102.545681,8.81875972 Z" id="Fill-8" fill="#2180AE"></path>
                <path d="M174.164603,17.1554868 C168.80861,17.1554868 166.741939,18.8729488 165.810491,23.2102003 L163.772739,32.6997706 C163.656392,33.2819759 163.889086,33.573045 164.471493,33.573045 L168.401059,33.573045 C168.98313,33.573045 169.332507,33.2819759 169.44919,32.6997706 L171.166484,24.6365596 C171.602953,22.6571153 172.010504,22.1913914 173.669961,22.1913914 L181.2964,22.1913914 C182.373449,22.1913914 182.722826,22.3660463 182.722826,23.0646658 C182.722826,23.4430623 182.635398,23.9379402 182.489796,24.6365596 L180.772502,32.6997706 C180.656156,33.2819759 180.888849,33.573045 181.471256,33.573045 L185.400823,33.573045 C185.982894,33.573045 186.332271,33.2819759 186.448618,32.6997706 L188.457451,23.2102003 C188.631972,22.395133 188.7194,21.6383064 188.7194,20.997894 C188.7194,18.2616567 187.031025,17.1554868 182.693572,17.1554868 L174.164603,17.1554868 Z" id="Fill-9" fill="#21AEAB"></path>
                <path d="M197.909461,17.1554868 C197.32739,17.1554868 196.949095,17.4465895 196.832412,18.0287612 L193.717946,32.6997706 C193.601263,33.2819759 193.834293,33.573045 194.416364,33.573045 L198.346266,33.573045 C198.928337,33.573045 199.277714,33.2819759 199.394061,32.6997706 L202.508863,18.0287612 C202.62521,17.4465895 202.421435,17.1554868 201.839364,17.1554868 L197.909461,17.1554868 Z M199.219541,10.9552388 C198.637134,10.9552388 198.288093,11.2463414 198.17141,11.8285131 L197.531166,14.7394389 C197.414819,15.3216106 197.647512,15.6127133 198.22992,15.6127133 L202.159486,15.6127133 C202.741557,15.6127133 203.090934,15.3216106 203.207281,14.7394389 L203.847861,11.8285131 C203.964208,11.2463414 203.731514,10.9552388 203.149107,10.9552388 L199.219541,10.9552388 Z" id="Fill-10" fill="#21AEAB"></path>
                <path d="M217.038104,17.1554868 C211.681775,17.1554868 209.586185,18.8729488 208.683656,23.2102003 C207.606606,28.3333987 207.519178,29.0611386 207.519178,29.701551 C207.519178,32.4377883 209.207553,33.573045 213.545007,33.573045 L221.957292,33.573045 C227.313621,33.573045 229.438466,31.8556166 230.340995,27.5183651 C231.418045,22.395133 231.505137,21.6965135 231.505137,21.0561347 C231.505137,18.2907435 229.816761,17.1554868 225.450389,17.1554868 L217.038104,17.1554868 Z M214.156332,24.2290092 C214.592801,22.2495985 215.000352,21.783841 216.659472,21.783841 L223.907616,21.783841 C225.101349,21.783841 225.567073,22.0167365 225.567073,22.8900109 C225.567073,23.2393207 225.479644,23.6759578 224.868319,26.4995226 C224.43185,28.4789669 224.024299,28.9446908 222.364842,28.9446908 L215.116699,28.9446908 C213.923302,28.9446908 213.457578,28.7118288 213.457578,27.8385545 C213.457578,27.4892447 213.545007,27.0526075 214.156332,24.2290092 Z" id="Fill-11" fill="#21AEAB"></path>
                <path d="M246.88176,17.1694081 C241.525767,17.1694081 239.459096,18.8868365 238.527648,23.2241216 L236.489896,32.7136919 C236.373549,33.2958636 236.606243,33.5869662 237.188313,33.5869662 L241.118216,33.5869662 C241.700287,33.5869662 242.049664,33.2958636 242.166011,32.7136919 L243.883641,24.6504473 C244.32011,22.6710366 244.727661,22.2052791 246.387117,22.2052791 L254.013557,22.2052791 C255.090606,22.2052791 255.439983,22.3799339 255.439983,23.0785534 C255.439983,23.4569835 255.352555,23.9518278 255.206953,24.6504473 L253.489659,32.7136919 C253.373312,33.2958636 253.606006,33.5869662 254.188077,33.5869662 L258.11798,33.5869662 C258.700051,33.5869662 259.049428,33.2958636 259.165774,32.7136919 L261.174272,23.2241216 C261.349129,22.4090543 261.436557,21.6522277 261.436557,21.0118153 C261.436557,18.2755444 259.748182,17.1694081 255.410728,17.1694081 L246.88176,17.1694081 Z" id="Fill-12" fill="#21AEAB"></path>
            </g>
        </g>
    </g>
</svg>