<?xml version="1.0" encoding="UTF-8"?>
<svg width="641px" height="134px" viewBox="0 0 641 134" version="1.1" xmlns="http://www.w3.org/2000/svg" xmlns:xlink="http://www.w3.org/1999/xlink">
    <!-- Generator: Sketch 49.2 (51160) - http://www.bohemiancoding.com/sketch -->
    <title>leader-line-1</title>
    <desc>Created with Sketch.</desc>
    <defs></defs>
    <g id="Page-1" stroke="none" stroke-width="1" fill="none" fill-rule="evenodd">
        <g id="Desktop-HD" transform="translate(-396.000000, -1329.000000)" stroke="#FFFFFF" stroke-width="1.34">
            <g id="leader-line-1" transform="translate(396.000000, 1329.000000)">
                <path d="M640.180336,7.75218387 C640.180336,11.637071 637.026874,14.7861677 633.138999,14.7861677 C629.250051,14.7861677 626.098736,11.637071 626.098736,7.75218387 C626.098736,3.86729677 629.250051,0.7182 633.138999,0.7182 C637.026874,0.7182 640.180336,3.86729677 640.180336,7.75218387 Z" id="Stroke-5"></path>
                <path d="M8.16786466,118.475756 C11.6294794,89.0323452 36.6918278,66.18745 67.0969166,66.18745 L573.802585,66.18745 C603.924216,66.18745 628.804036,43.7662242 632.628561,14.7185952" id="Stroke-1" transform="translate(320.398213, 66.597176) rotate(-180.000000) translate(-320.398213, -66.597176) "></path>
                <path d="M14.8008725,125.462761 C14.8008725,129.347648 11.6484839,132.495673 7.75953585,132.495673 C3.87166147,132.495673 0.719272864,129.347648 0.719272864,125.462761 C0.719272864,121.577874 3.87166147,118.428777 7.75953585,118.428777 C11.6484839,118.428777 14.8008725,121.577874 14.8008725,125.462761 Z" id="Stroke-3"></path>
            </g>
        </g>
    </g>
</svg>