<?xml version="1.0" encoding="UTF-8"?>
<svg width="641px" height="134px" viewBox="0 0 641 134" version="1.1" xmlns="http://www.w3.org/2000/svg" xmlns:xlink="http://www.w3.org/1999/xlink">
    <!-- Generator: Sketch 49.2 (51160) - http://www.bohemiancoding.com/sketch -->
    <title>line-l</title>
    <desc>Created with Sketch.</desc>
    <defs></defs>
    <g id="Page-1" stroke="none" stroke-width="1" fill="none" fill-rule="evenodd">
        <g id="Desktop-HD" transform="translate(-396.000000, -1849.000000)" stroke="#FFFFFF" stroke-width="1.34">
            <g id="line-l" transform="translate(396.000000, 1849.000000)">
                <path d="M632.731529,118.475864 C629.269915,89.0313798 604.207566,66.1875573 573.802478,66.1875573 L67.0968092,66.1875573 C36.9751777,66.1875573 12.0953586,43.7663315 8.26975896,14.7187024" id="Stroke-1"></path>
                <path d="M626.098414,125.462332 C626.098414,129.347219 629.250803,132.496316 633.139751,132.496316 C637.027625,132.496316 640.180014,129.347219 640.180014,125.462332 C640.180014,121.577445 637.027625,118.428348 633.139751,118.428348 C629.250803,118.428348 626.098414,121.577445 626.098414,125.462332 Z" id="Stroke-3"></path>
                <path d="M0.719058124,7.75239839 C0.719058124,11.6372855 3.87144673,14.7863823 7.76039481,14.7863823 C11.6482692,14.7863823 14.8006578,11.6372855 14.8006578,7.75239839 C14.8006578,3.86751129 11.6482692,0.718414516 7.76039481,0.718414516 C3.87144673,0.718414516 0.719058124,3.86751129 0.719058124,7.75239839 Z" id="Stroke-5"></path>
            </g>
        </g>
    </g>
</svg>