<?xml version="1.0" encoding="UTF-8"?>
<svg width="117px" height="280px" viewBox="0 0 117 280" version="1.1" xmlns="http://www.w3.org/2000/svg" xmlns:xlink="http://www.w3.org/1999/xlink">
    <!-- Generator: Sketch 49.2 (51160) - http://www.bohemiancoding.com/sketch -->
    <title>Page 1</title>
    <desc>Created with Sketch.</desc>
    <defs>
        <polygon id="path-1" points="0 0.309 47.549634 0.309 47.549634 47.8572868 0 47.8572868"></polygon>
        <polygon id="path-3" points="0 280 116.358 280 116.358 0.309 0 0.309"></polygon>
    </defs>
    <g id="Page-1" stroke="none" stroke-width="1" fill="none" fill-rule="evenodd">
        <g transform="translate(0.385372, -1.000000)">
            <polygon id="Fill-1" fill="#170A4C" points="88.5996 273.347 88.5996 279.743 99.1376 279.822 104.6556 280.019 104.7286 277.951 96.0466 272.78"></polygon>
            <polygon id="Fill-2" fill="#170A4C" points="47.4129 274.8491 38.6539 277.8171 38.1519 280.4431 55.9909 280.6911 55.8129 273.9541 48.3849 273.2101"></polygon>
            <polygon id="Fill-3" fill="#170A4C" points="114.8979 171.1943 108.7069 172.6233 109.1139 177.9713 115.7539 176.9943"></polygon>
            <polygon id="Fill-4" fill="#170A4C" points="114.6596 169.4174 108.4656 170.3504 109.3266 176.1624 115.5136 175.2294"></polygon>
            <g id="Group-73" transform="translate(0.000000, 0.691000)">
                <path d="M110.9926,176.9534 C110.9096,176.4294 110.4186,176.0564 109.8896,176.1354 C109.3756,176.2104 109.0026,176.7094 109.0866,177.2264 L109.4136,179.5414 C109.4866,180.0544 109.9746,180.4244 110.5046,180.3424 C111.0306,180.2664 111.3956,179.7784 111.3096,179.2504 L110.9926,176.9534 Z" id="Fill-5" fill="#170A4C"></path>
                <path d="M111.2455,178.7699 C111.1665,178.2419 110.6755,177.8729 110.1445,177.9479 L110.1465,177.9659 C109.6305,178.0409 109.2595,178.5219 109.3385,179.0429 L109.8525,182.5709 C109.9285,183.0809 110.4165,183.4509 110.9455,183.3679 C111.4705,183.2929 111.8365,182.8039 111.7485,182.2769 L111.2455,178.7699 Z" id="Fill-7" fill="#170A4C"></path>
                <path d="M112.9096,177.2767 C112.8306,176.7557 112.3446,176.3797 111.8146,176.4647 C111.2846,176.5407 110.9226,177.0327 110.9996,177.5637 L111.3316,179.8577 C111.4066,180.3817 111.8946,180.7477 112.4176,180.6727 C112.9556,180.5927 113.3106,180.1057 113.2376,179.5777 L112.9096,177.2767 Z" id="Fill-9" fill="#170A4C"></path>
                <path d="M113.2357,179.4984 C113.1607,178.9744 112.6757,178.5974 112.1427,178.6834 L112.1367,178.6474 C111.6077,178.7234 111.2517,179.2504 111.3297,179.7824 L111.8377,183.2244 C111.9137,183.7554 112.4027,184.1184 112.9267,184.0424 C113.4647,183.9634 113.8157,183.4724 113.7457,182.9484 L113.2357,179.4984 Z" id="Fill-11" fill="#170A4C"></path>
                <path d="M114.517,176.8675 C114.44,176.3395 113.954,175.9845 113.426,176.0555 C112.895,176.1425 112.525,176.6265 112.615,177.1585 L112.942,179.4515 C113.021,179.9835 113.516,180.3565 114.037,180.2665 C114.568,180.1915 114.925,179.6995 114.846,179.1795 L114.517,176.8675 Z" id="Fill-13" fill="#170A4C"></path>
                <path d="M114.9604,179.6312 C114.8834,179.1042 114.3954,178.7442 113.8674,178.8232 C113.3404,178.9022 112.9704,179.3912 113.0584,179.9182 L113.3874,182.2152 C113.4644,182.7432 113.9574,183.1162 114.4764,183.0302 C115.0094,182.9552 115.3694,182.4632 115.2894,181.9462 L114.9604,179.6312 Z" id="Fill-15" fill="#170A4C"></path>
                <path d="M115.727,176.0741 C115.646,175.5431 115.164,175.1801 114.63,175.2631 C114.11,175.3381 113.749,175.8341 113.827,176.3581 L114.157,178.6621 C114.24,179.1821 114.722,179.5491 115.249,179.4731 C115.772,179.3941 116.142,178.8991 116.061,178.3751 L115.727,176.0741 Z" id="Fill-17" fill="#170A4C"></path>
                <path d="M116.0121,178.0877 C115.9331,177.5567 115.4491,177.1937 114.9151,177.2767 C114.3951,177.3517 114.0331,177.8507 114.1101,178.3717 L114.4401,180.6757 C114.5251,181.1957 115.0031,181.5657 115.5341,181.4837 C116.0571,181.4077 116.4231,180.9127 116.3481,180.3887 L116.0121,178.0877 Z" id="Fill-19" fill="#170A4C"></path>
                <path d="M111.141,173.931 C111.215,172.858 110.411,171.928 109.33,171.86 C108.264,171.785 107.331,172.596 107.256,173.669 L107.248,173.816 C107.173,174.893 107.985,175.819 109.06,175.895 C110.133,175.966 111.059,175.159 111.132,174.082 L111.141,173.931 Z" id="Fill-21" fill="#170A4C"></path>
                <path d="M108.7719,173.9095 C108.8099,173.4895 108.4839,173.1165 108.0669,173.0845 C107.6419,173.0625 107.2669,173.3855 107.2339,173.8025 L106.9439,178.2095 C106.9149,178.6375 107.2329,179.0065 107.6539,179.0355 C108.0879,179.0565 108.4479,178.7485 108.4819,178.3215 L108.7719,173.9095 Z" id="Fill-23" fill="#170A4C"></path>
                <path d="M54.4076,50.264 L58.0706,41.242 L60.9596,32.653 L75.9846,34.925 C79.7086,35.248 81.7626,36.435 82.0556,40.162 L84.1546,62.045 C73.5876,67.3 66.7626,65.788 56.2706,61.09 L56.4276,51.605 L54.4076,50.264 Z" id="Fill-25" fill="#170A4C"></path>
                <path d="M59.1977,42.8748 C59.1287,43.5208 58.8247,44.0218 58.5157,43.9928 C58.2077,43.9558 58.0207,43.4008 58.0817,42.7508 C58.1647,42.0948 58.4687,41.5958 58.7767,41.6238 C59.0887,41.6568 59.2697,42.2158 59.1977,42.8748" id="Fill-27" fill="#170A4C"></path>
                <path d="M61.8432,50.1077 L63.9352,49.9427 C64.3422,46.5167 65.0492,42.1497 66.8742,42.5477 C68.2922,42.8577 68.9692,49.1637 68.7212,52.9327 C68.7212,52.9507 83.8002,51.1007 83.8002,51.1007 L82.9452,40.1637 C82.6542,36.4407 79.7062,33.4647 75.9832,33.1477 L60.0692,31.7677 L58.7492,35.0117 L62.8282,38.3917 L61.8432,50.1077 Z" id="Fill-29" fill="#5450F5"></path>
                <path d="M83.8002,51.1004 L84.2562,65.1654 C78.3092,68.4934 77.6132,68.4104 68.2792,69.4194 L66.3262,60.8944 L83.8002,51.1004 Z" id="Fill-31" fill="#170A4C"></path>
                <path d="M93.765,139.387 C101.245,197.264 95.969,221.357 99.206,268.921 C99.454,272.516 99.594,273.571 99.594,273.571 L87.6,274.61 C75.054,213.508 82.296,202.363 61.761,145.73 L93.765,139.387 Z" id="Fill-33" fill="#3431B0"></path>
                <path d="M75.3813,146.9232 C60.2873,243.9242 69.6703,196.6992 60.3903,248.7502 C58.0253,262.1822 57.0023,274.5312 57.0023,274.5312 L44.4013,274.1902 C44.4013,274.1902 45.2453,266.8272 45.0133,252.7792 C44.8243,238.9622 44.5723,220.5392 44.3193,202.1152 C43.8953,165.2342 47.0703,144.7792 47.0703,144.7792 L75.3813,146.9232 Z" id="Fill-35" fill="#3431B0"></path>
                <path d="M46.6117,148.2962 L94.7507,147.4482 L97.5947,88.2792 C97.4657,84.0582 95.9997,69.5702 92.7567,66.8642 C89.5127,64.1592 83.9117,63.8782 78.7287,63.6942 L64.6937,64.2412 C61.5257,64.3652 58.4587,65.4212 55.8937,67.2832 C50.8167,70.9692 47.3697,75.9082 46.9687,78.4062 L46.6117,148.2962 Z" id="Fill-37" fill="#F5A396"></path>
                <polygon id="Fill-39" fill="#5450F5" points="18.4125 93.9368 13.9415 93.3518 19.3175 45.6128 23.7865 46.1998"></polygon>
                <polygon id="Fill-41" fill="#170A4C" points="18.5346 86.848 21.5526 81.916 16.6146 77.797 14.2206 83.707"></polygon>
                <polygon id="Fill-43" fill="#170A4C" points="18.9779 88.1239 23.1799 83.2099 18.8619 80.0669 13.9689 84.4859"></polygon>
                <path d="M15.9428,79.5057 C16.3348,79.7857 16.8908,79.7017 17.1778,79.3097 C17.4568,78.9227 17.3708,78.3617 16.9828,78.0947 L15.2678,76.8297 C14.8898,76.5467 14.3358,76.6287 14.0528,77.0307 C13.7678,77.4187 13.8538,77.9637 14.2508,78.2417 L15.9428,79.5057 Z" id="Fill-45" fill="#170A4C"></path>
                <path d="M21.4242,83.4271 C21.5412,83.8901 22.0092,84.1881 22.4882,84.0731 C22.9462,83.9671 23.2422,83.4881 23.1332,83.0201 L22.1392,78.9671 C22.0282,78.5021 21.5552,78.2101 21.0792,78.3321 C20.6062,78.4391 20.3202,78.9111 20.4372,79.3781 L21.4242,83.4271 Z" id="Fill-47" fill="#170A4C"></path>
                <path d="M15.435,81.2699 C15.823,81.5499 16.375,81.4769 16.66,81.0819 C16.947,80.6829 16.861,80.1379 16.463,79.8499 L14.764,78.5989 C14.374,78.3169 13.824,78.3959 13.54,78.7879 C13.249,79.1879 13.343,79.7269 13.732,80.0139 L15.435,81.2699 Z" id="Fill-49" fill="#170A4C"></path>
                <path d="M14.976,83.0662 C15.371,83.3422 15.913,83.2582 16.2,82.8692 C16.478,82.4782 16.407,81.9242 16.004,81.6452 L14.306,80.3922 C13.914,80.1052 13.352,80.1892 13.08,80.5872 C12.789,80.9772 12.879,81.5192 13.266,81.8042 L14.976,83.0662 Z" id="Fill-51" fill="#170A4C"></path>
                <path d="M14.6371,84.9544 C15.0301,85.2464 15.5751,85.1624 15.8611,84.7624 C16.1421,84.3784 16.0511,83.8294 15.6591,83.5454 L13.9621,82.2904 C13.5651,82.0094 13.0221,82.0914 12.7251,82.4844 C12.4491,82.8714 12.5401,83.4294 12.9241,83.7054 L14.6371,84.9544 Z" id="Fill-53" fill="#170A4C"></path>
                <polygon id="Fill-55" fill="#170A4C" points="23.1801 83.2098 18.6651 87.8638 23.1801 96.7868 28.8831 93.7668"></polygon>
                <path d="M114.0727,154.0008 C113.1307,144.7578 111.9547,132.3808 110.2637,119.8638 C107.7947,101.5848 104.5597,80.2028 92.8977,66.8168 L74.5947,86.0888 C74.6357,86.1218 75.9617,87.1768 76.0107,87.1978 L76.0817,87.1798 C81.4867,89.4968 91.1777,80.2228 97.7047,118.2848 C97.7797,118.7218 107.6227,170.6288 107.6227,171.0538 L115.6987,169.3418 C115.6987,169.3418 114.9907,163.2458 114.0727,154.0008" id="Fill-57" fill="#F5A396"></path>
                <path d="M37.5785,103.5614 C33.1825,99.1884 29.3905,92.3784 27.5465,89.3864 C26.5015,87.6674 25.9035,86.6864 25.9035,86.6864 L17.4695,90.5344 C17.4695,90.5344 17.8565,91.6684 18.5355,93.6524 C39.4365,153.5404 51.6655,96.7874 64.8755,84.0954 L47.1585,77.6524 C39.9045,96.0944 38.9155,101.1074 37.5785,103.5614" id="Fill-59" fill="#F5A396"></path>
                <g id="Group-63">
                    <mask id="mask-2" fill="white">
                        <use xlink:href="#path-1"></use>
                    </mask>
                    <g id="Clip-62"></g>
                    <path d="M28.4897,4.1624 C17.5057,1.5624 6.4537,8.3844 3.8527,19.3684 C1.2527,30.3534 8.0767,41.4044 19.0577,44.0044 C30.0437,46.6034 41.0957,39.7814 43.6947,28.7974 C46.2957,17.8134 39.4727,6.7624 28.4897,4.1624 M18.2997,47.2154 C5.5437,44.1964 -2.3783,31.3644 0.6417,18.6094 C3.6617,5.8524 16.4937,-2.0676 29.2487,0.9504 C42.0067,3.9694 49.9267,16.8024 46.9077,29.5584 C43.8877,42.3134 31.0537,50.2344 18.2997,47.2154" id="Fill-61" fill="#5450F5" mask="url(#mask-2)"></path>
                </g>
                <path d="M86.1537,64.2806 L86.1537,62.1086 C86.1537,62.1086 70.2857,61.5476 67.1467,62.1086 L64.0367,64.2806 L85.3677,65.5836 L86.1537,64.5186" id="Fill-64" fill="#F5A396"></path>
                <polygon id="Fill-66" fill="#F4667E" points="95.9916 154.3167 45.9826 154.3167 46.4286 149.9007 94.9796 149.4657"></polygon>
                <mask id="mask-4" fill="white">
                    <use xlink:href="#path-3"></use>
                </mask>
                <g id="Clip-69"></g>
                <polygon id="Fill-68" fill="#3431B0" mask="url(#mask-4)" points="50.579 155.795 52.48 155.795 52.48 148.93 50.579 148.93"></polygon>
                <polygon id="Fill-70" fill="#3431B0" mask="url(#mask-4)" points="71.491 155.584 73.389 155.584 73.389 148.719 71.491 148.719"></polygon>
                <polygon id="Fill-71" fill="#3431B0" mask="url(#mask-4)" points="90.501 155.324 92.399 155.324 92.399 148.459 90.501 148.459"></polygon>
                <path d="M17.9662,8.6849 C20.9332,7.5609 24.2532,7.2789 27.5662,8.0629 M7.6632,27.4619 C7.1782,25.1639 7.1792,22.7259 7.7552,20.2919 C8.7522,16.0769 11.2982,12.6239 14.6462,10.3929" id="Stroke-72" stroke="#FFFFFF" stroke-width="1.781" stroke-linecap="round" mask="url(#mask-4)"></path>
            </g>
        </g>
    </g>
</svg>