<?xml version="1.0" encoding="UTF-8"?>
<svg width="310px" height="309px" viewBox="0 0 310 309" version="1.1" xmlns="http://www.w3.org/2000/svg" xmlns:xlink="http://www.w3.org/1999/xlink">
    <!-- Generator: Sketch 49.2 (51160) - http://www.bohemiancoding.com/sketch -->
    <title>Page 1</title>
    <desc>Created with Sketch.</desc>
    <defs>
        <polygon id="path-1" points="0 0.1732 308.8267 0.1732 308.8267 309 0 309"></polygon>
    </defs>
    <g id="Page-1" stroke="none" stroke-width="1" fill="none" fill-rule="evenodd">
        <g transform="translate(0.267848, -0.966834)">
            <g id="Group-3" transform="translate(0.000000, 0.827000)">
                <mask id="mask-2" fill="white">
                    <use xlink:href="#path-1"></use>
                </mask>
                <g id="Clip-2"></g>
                <path d="M308.8267,154.5862 C308.8267,239.8662 239.6937,309.0002 154.4137,309.0002 C69.1337,309.0002 -0.0003,239.8662 -0.0003,154.5862 C-0.0003,69.3072 69.1337,0.1732 154.4137,0.1732 C239.6937,0.1732 308.8267,69.3072 308.8267,154.5862" id="Fill-1" fill="#FFFFFF" mask="url(#mask-2)"></path>
            </g>
            <path d="M106.9859,53.9025 C106.9859,65.0335 97.9629,74.0565 86.8319,74.0565 C75.7009,74.0565 66.6769,65.0335 66.6769,53.9025 C66.6769,42.7715 75.7009,33.7485 86.8319,33.7485 C97.9629,33.7485 106.9859,42.7715 106.9859,53.9025" id="Fill-4" fill="#84D0F1" opacity="0.47"></path>
            <path d="M170.981,26.2521 C170.981,32.9621 165.542,38.4021 158.832,38.4021 C152.122,38.4021 146.682,32.9621 146.682,26.2521 C146.682,19.5421 152.122,14.1031 158.832,14.1031 C165.542,14.1031 170.981,19.5421 170.981,26.2521" id="Fill-6" fill="#84D0F1" opacity="0.47"></path>
            <path d="M262.8287,74.0568 C262.8287,89.7948 250.0697,102.5528 234.3317,102.5528 C218.5937,102.5528 205.8347,89.7948 205.8347,74.0568 C205.8347,58.3178 218.5937,45.5598 234.3317,45.5598 C250.0697,45.5598 262.8287,58.3178 262.8287,74.0568" id="Fill-8" fill="#84D0F1" opacity="0.47"></path>
            <path d="M142.4473,119.3429 C142.4473,135.3259 129.4893,148.2829 113.5063,148.2829 C97.5233,148.2829 84.5663,135.3259 84.5663,119.3429 C84.5663,103.3599 97.5233,90.4029 113.5063,90.4029 C129.4893,90.4029 142.4473,103.3599 142.4473,119.3429" id="Fill-10" fill="#84D0F1" opacity="0.47"></path>
        </g>
    </g>
</svg>