<?xml version="1.0" encoding="UTF-8"?>
<svg width="591px" height="344px" viewBox="0 0 591 344" version="1.1" xmlns="http://www.w3.org/2000/svg" xmlns:xlink="http://www.w3.org/1999/xlink">
    <!-- Generator: Sketch 49.2 (51160) - http://www.bohemiancoding.com/sketch -->
    <title>rocket</title>
    <desc>Created with Sketch.</desc>
    <defs></defs>
    <g id="Page-1" stroke="none" stroke-width="1" fill="none" fill-rule="evenodd">
        <g id="Desktop-HD" transform="translate(-718.000000, -959.000000)">
            <g id="rocket" transform="translate(718.000000, 959.000000)">
                <path d="M72.2963543,111.554255 C27.0660838,77.463855 32.252082,1.55703 168.241075,18.902155 C274.364725,32.43748 286.028126,-39.15322 384.270345,32.111755 C457.719525,85.390905 469.26494,46.82528 538.636113,71.51158 C587.87789,89.035155 613.622322,152.883705 562.533536,184.02323 C519.844244,210.043605 526.809677,227.757455 561.027612,240.326355 C608.833184,257.885405 607.652256,332.18833 486.806164,339.804705 C365.960071,347.422155 197.508982,339.804705 144.044398,339.804705 C90.5787408,339.804705 0.104256261,311.32473 0.000214519056,230.25683 C-0.0909560799,159.630405 116.240583,144.675005 72.2963543,111.554255" id="rocket-bg" fill="#3431B0"></path>
                <g transform="translate(84.735027, 38.965525)">
                    <path d="M343.769791,74.6642325 C338.024971,74.6642325 333.366689,69.9955075 333.366689,64.2378075 C333.366689,69.9955075 328.708408,74.6642325 322.963588,74.6642325 C328.708408,74.6642325 333.366689,79.3318825 333.366689,85.0906575 C333.366689,79.3318825 338.024971,74.6642325 343.769791,74.6642325" id="Fill-3" fill="#FFF78F"></path>
                    <path d="M252.339517,56.8258975 C248.892195,56.8258975 246.098085,54.0255225 246.098085,50.5704725 C246.098085,54.0255225 243.302901,56.8258975 239.85558,56.8258975 C243.302901,56.8258975 246.098085,59.6262725 246.098085,63.0823975 C246.098085,59.6262725 248.892195,56.8258975 252.339517,56.8258975" id="Fill-5" fill="#FFF78F"></path>
                    <path d="M366.656722,160.161885 C363.209401,160.161885 360.41529,157.36151 360.41529,153.90646 C360.41529,157.36151 357.620107,160.161885 354.172785,160.161885 C357.620107,160.161885 360.41529,162.96226 360.41529,166.418385 C360.41529,162.96226 363.209401,160.161885 366.656722,160.161885" id="Fill-7" fill="#FFF78F"></path>
                    <path d="M71.1368788,137.750178 C67.6884849,137.750178 64.8943742,134.949803 64.8943742,131.493678 C64.8943742,134.949803 62.0991909,137.750178 58.6518697,137.750178 C62.0991909,137.750178 64.8943742,140.550553 64.8943742,144.005603 C64.8943742,140.550553 67.6884849,137.750178 71.1368788,137.750178" id="Fill-9" fill="#FFF78F"></path>
                    <path d="M287.592613,189.356413 C287.592613,192.811463 284.798502,195.611838 281.350109,195.611838 C277.902787,195.611838 275.107604,192.811463 275.107604,189.356413 C275.107604,185.901362 277.902787,183.100987 281.350109,183.100987 C284.798502,183.100987 287.592613,185.901362 287.592613,189.356413" id="Fill-11" fill="#84D0F1"></path>
                    <path d="M315.375405,243.657565 C311.939882,243.657565 308.72746,244.60894 305.980543,246.26014 C306.288378,244.685265 306.45463,243.05879 306.45463,241.393615 C306.45463,227.47344 295.195597,216.19024 281.306561,216.19024 C272.408311,216.19024 264.595527,220.826715 260.12495,227.816365 C258.058058,217.950015 249.328205,210.541115 238.869329,210.541115 C228.702198,210.541115 220.170775,217.54044 217.801412,226.992915 C215.080238,224.39894 211.402309,222.804715 207.351117,222.804715 C203.009251,222.804715 199.096423,224.63544 196.331273,227.564815 C195.980534,205.52409 178.046741,187.764015 155.971657,187.764015 C133.676692,187.764015 115.602389,205.877765 115.602389,228.222715 C115.602389,231.07469 115.898425,233.857865 116.459392,236.54429 C114.298113,235.749865 111.963073,235.31664 109.528282,235.31664 C106.046637,235.31664 102.770931,236.20244 99.9135376,237.762265 C100.379044,235.599365 100.628959,233.356915 100.628959,231.05534 C100.628959,213.542515 86.4631927,199.34499 68.9884704,199.34499 C51.5148207,199.34499 37.3490548,213.542515 37.3490548,231.05534 C37.3490548,234.35344 37.852102,237.53329 38.7831147,240.52179 C34.7737535,237.26884 29.6682,235.31664 24.1057209,235.31664 C11.2109804,235.31664 0.758539383,245.79359 0.758539383,258.71724 L333.366046,258.71724 C331.827944,250.154865 324.361608,243.657565 315.375405,243.657565" id="Fill-13" fill="#84D0F1"></path>
                    <path d="M406.018073,243.657565 C402.58255,243.657565 399.370127,244.60894 396.623211,246.26014 C396.931045,244.685265 397.097298,243.05879 397.097298,241.393615 C397.097298,227.47344 385.838265,216.19024 371.949229,216.19024 C363.050978,216.19024 355.238194,220.826715 350.76869,227.816365 C348.700726,217.950015 339.970873,210.541115 329.511996,210.541115 C319.345938,210.541115 310.813443,217.54044 308.44408,226.992915 C305.722906,224.39894 302.044976,222.804715 297.993784,222.804715 C293.651918,222.804715 289.740163,224.63544 286.97394,227.564815 C286.623201,205.52409 268.689408,187.764015 246.614325,187.764015 C224.319359,187.764015 206.246129,205.877765 206.246129,228.222715 C206.246129,231.07469 206.541093,233.857865 207.10206,236.54429 C204.94078,235.749865 202.606813,235.31664 200.172022,235.31664 C196.689305,235.31664 193.413599,236.20244 190.556205,237.762265 C191.021711,235.599365 191.271626,233.356915 191.271626,231.05534 C191.271626,213.542515 177.10586,199.34499 159.632211,199.34499 C142.157488,199.34499 127.991722,213.542515 127.991722,231.05534 C127.991722,234.35344 128.49477,237.53329 129.426855,240.52179 C125.416421,237.26884 120.310868,235.31664 114.749461,235.31664 C101.854721,235.31664 91.4012069,245.79359 91.4012069,258.71724 L424.008713,258.71724 C422.470612,250.154865 415.004276,243.657565 406.018073,243.657565" id="Fill-15" fill="#84D0F1"></path>
                    <path d="M262.734467,27.152135 C262.734467,22.54576 259.007198,18.81121 254.411127,18.81121 C254.397183,18.81121 254.382167,18.812285 254.367151,18.812285 C254.393966,18.46721 254.411127,18.119985 254.411127,17.76846 C254.411127,10.28216 248.356327,4.213785 240.886773,4.213785 C234.393281,4.213785 228.971312,8.80081 227.664891,14.918635 C226.899058,14.73911 226.103193,14.64021 225.282657,14.64021 C219.536764,14.64021 214.879556,19.308935 214.879556,25.06771 C214.879556,26.550135 215.190608,27.95946 215.746213,29.237635 L262.471681,29.237635 C262.643296,28.571135 262.734467,27.872385 262.734467,27.152135" id="Fill-17" fill="#84D0F1"></path>
                    <path d="M122.20668,83.7019725 C119.999279,83.7019725 117.93346,84.2964475 116.150807,85.3305975 C116.150807,85.2929725 116.154025,85.2564225 116.154025,85.2187975 C116.154025,76.0049725 108.701632,68.5358725 99.5094909,68.5358725 C90.4793113,68.5358725 83.1341788,75.7437475 82.8756833,84.7307475 C81.4973984,84.0717725 79.9528612,83.7019725 78.3246615,83.7019725 C72.7042623,83.7019725 68.1071189,88.0901225 67.7553076,93.6349725 C66.858618,93.1082225 65.8192731,92.8018475 64.7059192,92.8018475 C61.3615672,92.8018475 58.6521915,95.5172975 58.6521915,98.8680725 C58.6521915,99.9742475 58.9525181,101.008398 59.4695091,101.901723 L132.688081,101.901723 C133.718845,100.116148 134.31199,98.0456975 134.31199,95.8354975 C134.31199,89.1339475 128.892166,83.7019725 122.20668,83.7019725" id="Fill-19" fill="#84D0F1"></path>
                    <polygon id="Fill-21" fill="#84D0F1" points="284.959392 261.672738 301.083717 250.818463 206.809027 118.862213 198.746328 124.289888"></polygon>
                    <polygon id="Fill-23" fill="#E6F6FC" points="288.990956 258.959008 297.052582 253.532408 213.817043 133.686033 209.78623 136.399333"></polygon>
                    <path d="M121.556151,182.50017 C121.556151,187.43872 117.560733,191.44202 112.634303,191.44202 C107.7068,191.44202 103.712456,187.43872 103.712456,182.50017 C103.712456,177.56162 107.7068,173.55832 112.634303,173.55832 C117.560733,173.55832 121.556151,177.56162 121.556151,182.50017" id="Fill-25" fill="#84D0F1"></path>
                    <path d="M325.383792,241.195278 C310.383547,241.023278 297.907118,252.247353 296.139481,266.836178 C294.63463,264.964603 292.337131,263.756303 289.752176,263.726203 C289.379986,263.722978 289.015303,263.750928 288.654911,263.795003 C289.385349,261.823453 289.798298,259.694953 289.82404,257.471853 C289.942026,247.106703 281.655155,238.608828 271.314264,238.489503 C267.345661,238.444353 263.653788,239.642978 260.602254,241.717728 C260.789959,240.628753 260.898291,239.511828 260.911162,238.370178 C261.043091,226.854778 251.834861,217.411978 240.344147,217.279753 C228.853434,217.147528 219.43283,226.377478 219.300901,237.892878 C219.261215,241.387703 220.084968,244.689028 221.568367,247.600128 C219.571195,246.715403 217.365939,246.212303 215.044842,246.186503 C211.957913,246.151028 209.060833,246.962653 206.565977,248.402078 C206.65822,247.643128 206.712922,246.872353 206.722576,246.090828 C206.853432,234.574353 197.645202,225.132628 186.155561,225.000403 C174.664848,224.868178 165.243171,234.097053 165.112314,245.613528 C165.082282,248.268778 165.553151,250.811153 166.430534,253.157878 C164.553492,251.072378 161.846262,249.746903 158.822616,249.712503 C153.665577,249.653378 149.344091,253.366428 148.466708,258.292078 C144.590349,248.263403 134.934846,241.096378 123.549247,240.965228 C108.611213,240.794303 96.3632472,252.792378 96.1927045,267.762828 L354.179567,270.722303 C354.362098,254.599453 341.469503,241.380178 325.383792,241.195278" id="Fill-27" fill="#E6F6FC"></path>
                    <path d="M203.986814,102.747533 L193.92158,109.895208 L183.856346,117.043958 C183.856346,117.043958 180.376847,129.401083 195.448956,142.223683 C195.448956,142.223683 193.046342,133.846208 197.609163,132.977608 C197.609163,132.977608 211.89935,154.068033 226.67864,156.225558 C229.54676,141.534608 214.428529,121.031133 214.428529,121.031133 C216.758206,117.004183 223.849134,122.053458 223.849134,122.053458 C216.773223,103.551633 203.986814,102.747533 203.986814,102.747533" id="Fill-29" fill="#F76381"></path>
                    <path d="M201.842589,104.27027 L193.921473,109.895745 L186.001429,115.52122 C186.001429,115.52122 181.33993,126.611995 193.198544,136.70087 C193.198544,136.70087 193.231794,128.74157 196.823916,128.061095 C196.823916,128.061095 208.070077,144.656945 219.700228,146.35437 C221.956968,134.79382 210.059741,118.66022 210.059741,118.66022 C211.891734,115.48897 219.532903,117.999095 219.532903,117.999095 C213.965061,103.44037 201.842589,104.27027 201.842589,104.27027" id="Fill-31" fill="#F5A396"></path>
                    <path d="M198.977901,106.305353 L193.946357,109.878653 L188.912667,113.454103 C188.912667,113.454103 185.951232,120.499653 193.486214,126.909878 C193.486214,126.909878 193.506593,121.854153 195.788003,121.420928 C195.788003,121.420928 202.933633,131.965603 210.323814,133.042753 C211.757874,125.698353 204.199295,115.447153 204.199295,115.447153 C205.363061,113.433678 210.217627,115.026828 210.217627,115.026828 C206.681281,105.777528 198.977901,106.305353 198.977901,106.305353" id="Fill-33" fill="#FFF78F"></path>
                    <polygon id="Fill-35" fill="#5450F5" points="205.147362 101.923438 182.695798 117.868913 179.111184 112.797063 201.561676 96.8515875"></polygon>
                    <path d="M155.750381,95.62254 C155.750381,95.62254 149.116379,100.82124 143.033691,97.565065 C143.033691,97.565065 145.252891,129.726915 174.725664,147.22469 C174.725664,147.22469 163.28,121.614965 171.546492,107.083115 L155.750381,95.62254 Z" id="Fill-37" fill="#170A4C"></path>
                    <path d="M193.156069,69.0561725 C193.156069,69.0561725 200.248069,64.5067725 199.199071,57.6751475 C199.199071,57.6751475 228.74049,70.4321725 235.44421,104.101173 C235.44421,104.101173 215.128183,84.7898725 198.709967,87.7912725 L193.156069,69.0561725 Z" id="Fill-39" fill="#00476A"></path>
                    <path d="M201.581841,96.83772 C199.312229,82.044645 194.75799,67.96967 179.795286,46.80722 C156.002977,13.15972 116.437082,0.286595 116.437082,0.286595 C116.437082,0.286595 115.442787,41.966495 139.234023,75.61507 C154.196727,96.77752 165.938427,105.748395 179.11097,112.79717 L201.581841,96.83772 Z" id="Fill-41" fill="#FFF78F"></path>
                    <path d="M172.990419,109.293638 C175.007971,110.535263 177.040539,111.689813 179.110648,112.797063 L201.581519,96.8376125 C201.225418,94.5134625 200.811396,92.2075875 200.311566,89.8898875 L172.990419,109.293638 Z" id="Fill-43" fill="#27229D"></path>
                    <path d="M147.871418,16.34387 C131.061705,5.05637 116.436868,0.28552 116.436868,0.28552 C116.436868,0.28552 116.079694,15.695645 121.135908,35.331595 L147.871418,16.34387 Z" id="Fill-45" fill="#F76381"></path>
                    <path d="M185.84483,103.243538 C195.223603,116.507963 205.085044,125.662663 205.085044,125.662663 C205.085044,125.662663 199.734939,113.304463 190.356166,100.040038 C180.975248,86.7713125 172.362308,76.7351125 171.117025,77.6198375 C169.869596,78.5045625 176.463912,89.9758875 185.84483,103.243538" id="Fill-47" fill="#27229D"></path>
                    <path d="M158.640274,39.664275 C162.382559,44.955425 161.135131,52.28585 155.854744,56.03545 C150.574358,59.786125 143.261403,58.5359 139.520191,53.24475 C135.778979,47.95145 137.025334,40.6221 142.305721,36.871425 C147.585035,33.1229 154.899062,34.37205 158.640274,39.664275" id="Fill-49" fill="#F76381"></path>
                    <path d="M156.133726,41.4452275 C158.893514,45.3485525 157.9743,50.7568775 154.078634,53.5228525 C150.182968,56.2899025 144.786741,55.3686275 142.026953,51.4642275 C139.265021,47.5587525 140.18638,42.1515025 144.082046,39.3844525 C147.977712,36.6174025 153.372866,37.5408275 156.133726,41.4452275" id="Fill-51" fill="#5450F5"></path>
                    <g id="Group-69" transform="translate(115.840290, 0.000000)">
                        <path d="M80.0717047,108.482658 L89.3067501,101.923008 L85.7221367,96.8522325 L76.7176993,103.246333 C77.913643,105.036208 79.0345051,106.790608 80.0717047,108.482658" id="Fill-53" fill="#808080"></path>
                        <path d="M83.3585657,57.6747175 C84.4086365,64.5063425 77.3155639,69.0557425 77.3155639,69.0557425 L77.3177091,69.0643425 C80.4936637,75.7228925 82.5369577,81.7514925 83.9560013,87.6392675 C100.171497,85.6386925 119.603705,104.100743 119.603705,104.100743 C112.899985,70.4317425 83.3585657,57.6747175 83.3585657,57.6747175" id="Fill-55" fill="#170A4C"></path>
                        <path d="M0.976168966,0.415165 C1.03516171,0.436665 1.10809819,0.460315 1.17996207,0.486115 C1.1048804,0.460315 1.0362343,0.436665 0.976168966,0.415165" id="Fill-57" fill="#FAFBF2"></path>
                        <path d="M0.657715426,0.3060525 C0.679167332,0.3135775 0.708127405,0.3243275 0.742450454,0.3350775 C0.695256261,0.3200275 0.679167332,0.3135775 0.657715426,0.3060525" id="Fill-59" fill="#FAFBF2"></path>
                        <path d="M85.1832648,93.5066175 C85.3838401,94.6149425 85.5693991,95.7243425 85.7420869,96.8380425 C85.5704717,95.7243425 85.3838401,94.6149425 85.1832648,93.5066175" id="Fill-61" fill="#FAFBF2"></path>
                        <path d="M1.34589256,0.54481 C1.54646788,0.61576 1.77922105,0.698535 2.05487804,0.799585 C1.78029365,0.69961 1.54432269,0.614685 1.34589256,0.54481" id="Fill-63" fill="#FAFBF2"></path>
                        <path d="M84.4720269,89.8974125 C84.7133608,91.0121875 84.9321702,92.1226625 85.1348907,93.2352875 C84.9321702,92.1226625 84.7133608,91.0121875 84.4720269,89.8974125" id="Fill-65" fill="#FAFBF2"></path>
                        <path d="M55.2763051,77.6194075 L70.8107025,99.5913325 L74.5068659,104.816908 L78.0914793,109.888758 L89.2453976,125.662233 C89.2453976,125.662233 85.9771998,118.113583 80.0714902,108.482658 C79.0342906,106.790608 77.9134285,105.036208 76.7174848,103.246333 L85.7219221,96.8522325 L85.7412289,96.8371825 C85.5696136,95.7234825 85.3840546,94.6151575 85.1834793,93.5068325 C85.168463,93.4165325 85.152374,93.3273075 85.1352125,93.2359325 C84.9314194,92.1222325 84.71261,91.0117575 84.4723486,89.8969825 C84.471276,89.8937575 84.471276,89.8916075 84.471276,89.8894575 L73.0577897,97.9960325 C64.258218,85.7582325 56.4572325,76.7809075 55.2763051,77.6194075" id="Fill-67" fill="#00476A"></path>
                    </g>
                    <path d="M303.595735,257.483033 C303.595735,263.073033 299.074746,267.604158 293.49725,267.604158 C287.920827,267.604158 283.398766,263.073033 283.398766,257.483033 C283.398766,251.893033 287.920827,247.361908 293.49725,247.361908 C299.074746,247.361908 303.595735,251.893033 303.595735,257.483033" id="Fill-70" fill="#E6F6FC"></path>
                </g>
            </g>
        </g>
    </g>
</svg>