<?xml version="1.0" encoding="UTF-8"?>
<svg width="191px" height="20px" viewBox="0 0 191 20" version="1.1" xmlns="http://www.w3.org/2000/svg" xmlns:xlink="http://www.w3.org/1999/xlink">
    <!-- Generator: Sketch 49.2 (51160) - http://www.bohemiancoding.com/sketch -->
    <title>site-logo-name</title>
    <desc>Created with Sketch.</desc>
    <defs>
        <path d="M33.642,2.958 C33.642,4.265 34.574,5.171 36.014,5.171 C37.427,5.171 38.413,4.184 38.413,2.878 C38.413,1.599 37.454,0.639 36.014,0.639 C34.601,0.639 33.642,1.652 33.642,2.958 Z M16.103,1.092 L16.103,3.358 L17.915,3.358 L17.915,17.271 L16.103,17.271 L16.103,19.483 L23.167,19.483 L23.167,17.297 L21.835,17.297 L21.835,15.245 L23.433,13.806 L25.885,17.297 L24.5,17.297 L24.5,19.483 L31.351,19.483 L31.351,17.271 L30.017,17.271 L25.913,11.727 L28.684,9.222 L30.551,9.222 L30.551,7.009 L24.046,7.009 L24.046,9.196 L26.019,9.196 L21.835,13.06 L21.835,1.092 L16.103,1.092 Z M57.304,10.821 C57.304,16.232 60.823,19.91 66.287,19.91 C71.031,19.91 73.616,17.005 74.07,12.473 L71.51,12.473 C71.057,15.406 69.538,17.405 66.9,17.405 C63.887,17.405 62.049,15.352 62.049,10.555 C62.049,5.543 63.807,3.704 66.313,3.704 C68.525,3.704 70.018,5.33 71.085,8.555 L73.723,8.555 L73.723,1.572 L71.324,1.572 L70.764,3.598 C69.698,2.292 68.019,1.519 65.78,1.519 C61.195,1.519 57.304,5.357 57.304,10.821 Z M0.404,7.09 C0.404,11.008 3.656,11.994 6.535,12.687 C9.2,13.353 10.986,13.753 10.986,15.379 C10.986,16.766 9.92,17.698 8.027,17.698 C5.202,17.698 3.736,16.338 2.59,13.353 L0.244,13.353 L0.244,19.857 L2.563,19.857 L3.203,17.778 C4.189,19.004 6.108,19.91 8.294,19.91 C12.105,19.91 14.744,17.538 14.744,14.206 C14.744,10.394 11.599,9.461 8.746,8.768 C6.108,8.129 4.163,7.729 4.163,5.97 C4.163,4.77 5.122,3.731 6.908,3.731 C9.174,3.731 10.479,4.904 11.599,7.809 L13.945,7.809 L13.945,1.572 L11.599,1.572 L11.039,3.464 C10.133,2.239 8.48,1.519 6.561,1.519 C3.149,1.519 0.404,3.837 0.404,7.09 Z M182.081,4.211 L182.081,7.143 L179.788,7.143 L179.788,9.222 L182.001,9.222 L182.001,15.486 C182.001,18.338 183.334,19.75 186.052,19.75 C188.558,19.75 189.864,18.444 190.45,15.406 L188.852,14.953 C188.371,16.685 187.997,17.297 187.199,17.297 C186.293,17.297 185.892,16.658 185.892,15.512 L185.892,9.222 L189.89,9.222 L189.89,7.143 L185.892,7.143 L185.892,3.758 L182.081,4.211 Z M166.877,13.353 C166.877,17.191 169.41,19.75 173.568,19.75 C177.06,19.75 178.819,18.044 179.298,15.432 L177.22,15.432 C176.66,17.005 175.727,17.618 174.235,17.618 C172.262,17.618 171.089,16.658 170.929,13.753 L179.432,13.753 C179.618,9.701 177.646,6.716 173.435,6.716 C169.676,6.716 166.877,9.568 166.877,13.353 Z M173.355,8.529 C174.794,8.529 175.486,9.541 175.621,12.074 L170.956,12.074 C171.116,9.408 171.969,8.529 173.355,8.529 Z M119.467,13.353 C119.467,17.191 121.999,19.75 126.157,19.75 C129.649,19.75 131.408,18.044 131.888,15.432 L129.809,15.432 C129.25,17.005 128.316,17.618 126.824,17.618 C124.851,17.618 123.678,16.658 123.518,13.753 L132.021,13.753 C132.207,9.701 130.234,6.716 126.024,6.716 C122.265,6.716 119.467,9.568 119.467,13.353 Z M125.944,8.529 C127.383,8.529 128.076,9.541 128.21,12.074 L123.546,12.074 C123.705,9.408 124.558,8.529 125.944,8.529 Z M105.793,13.46 C105.793,17.218 108.299,19.75 112.537,19.75 C115.682,19.75 117.547,17.884 118.134,15.192 L116.055,15.192 C115.548,16.631 114.563,17.485 113.124,17.485 C111.045,17.485 109.978,15.779 109.978,13.166 C109.978,10.288 111.284,8.635 113.044,8.635 C114.082,8.635 114.722,9.008 115.096,9.488 C114.536,9.701 113.976,10.314 113.976,11.168 C113.976,12.18 114.67,13.06 115.975,13.06 C117.361,13.06 118.108,12.101 118.108,10.768 C118.108,8.875 116.268,6.716 112.67,6.716 C108.618,6.716 105.793,9.435 105.793,13.46 Z M156.301,10.288 L156.301,7.009 L150.81,7.009 L150.81,9.222 L152.649,9.222 L152.649,17.271 L150.81,17.271 L150.81,19.483 L157.927,19.483 L157.927,17.271 L156.541,17.271 L156.541,12.393 C156.541,10.608 157.687,9.355 158.94,9.355 C159.472,9.355 159.872,9.515 160.166,9.782 C160.566,10.181 160.725,10.848 160.725,11.674 L160.725,17.271 L159.313,17.271 L159.313,19.483 L166.429,19.483 L166.429,17.271 L164.644,17.271 L164.644,11.141 C164.644,8.555 163.524,6.742 160.832,6.742 C158.539,6.742 157.18,8.182 156.301,10.288 Z M138.534,10.208 L138.534,7.009 L133.043,7.009 L133.043,9.222 L134.883,9.222 L134.883,17.271 L133.043,17.271 L133.043,19.483 L141.093,19.483 L141.093,17.271 L138.775,17.271 L138.775,11.78 C139.228,10.235 140.107,9.435 140.827,9.382 C140.827,9.461 140.8,9.541 140.8,9.594 C140.8,10.821 141.707,11.487 142.88,11.487 C144.025,11.487 144.958,10.528 144.958,9.196 C144.958,7.889 143.972,6.742 142.426,6.742 C140.72,6.742 139.28,7.889 138.534,10.208 Z M95.042,10.288 L95.042,7.009 L89.551,7.009 L89.551,9.222 L91.391,9.222 L91.391,17.271 L89.551,17.271 L89.551,19.483 L96.667,19.483 L96.667,17.271 L95.282,17.271 L95.282,12.393 C95.282,10.608 96.429,9.355 97.681,9.355 C98.213,9.355 98.614,9.515 98.906,9.782 C99.306,10.181 99.466,10.848 99.466,11.674 L99.466,17.271 L98.053,17.271 L98.053,19.483 L105.17,19.483 L105.17,17.271 L103.384,17.271 L103.384,11.141 C103.384,8.555 102.265,6.742 99.572,6.742 C97.281,6.742 95.921,8.182 95.042,10.288 Z M75.424,10.128 C75.424,11.114 76.09,11.994 77.45,11.994 C78.542,11.994 79.342,11.274 79.342,10.341 C79.342,9.728 79.102,9.275 78.702,8.982 C79.21,8.768 79.769,8.662 80.303,8.662 C81.848,8.662 82.594,9.249 82.594,10.848 L82.594,11.941 C82.594,12.26 82.461,12.287 80.995,12.5 C77.93,12.9 76.65,13.433 75.824,14.259 C75.264,14.82 74.945,15.592 74.945,16.418 C74.945,18.444 76.543,19.724 78.756,19.724 C80.595,19.724 82.087,18.977 82.887,17.085 L83.021,17.085 C83.234,18.924 84.434,19.724 85.953,19.724 C87.739,19.724 88.725,18.791 89.231,16.739 L87.926,16.312 C87.685,17.218 87.392,17.512 87.099,17.512 C86.673,17.512 86.432,17.378 86.432,16.766 L86.432,11.087 C86.432,8.502 85.1,6.742 81.341,6.742 C78.276,6.742 75.424,7.836 75.424,10.128 Z M78.916,15.859 C78.916,14.66 79.502,14.047 81.395,13.726 C82.061,13.593 82.355,13.566 82.594,13.513 L82.594,14.74 C82.594,16.338 81.768,17.458 80.569,17.458 C79.396,17.458 78.916,16.712 78.916,15.859 Z M46.513,10.288 L46.513,7.009 L41.023,7.009 L41.023,9.222 L42.862,9.222 L42.862,17.271 L41.023,17.271 L41.023,19.483 L48.139,19.483 L48.139,17.271 L46.753,17.271 L46.753,12.393 C46.753,10.608 47.9,9.355 49.153,9.355 C49.685,9.355 50.086,9.515 50.378,9.782 C50.778,10.181 50.938,10.848 50.938,11.674 L50.938,17.271 L49.526,17.271 L49.526,19.483 L56.642,19.483 L56.642,17.271 L54.856,17.271 L54.856,11.141 C54.856,8.555 53.737,6.742 51.044,6.742 C48.752,6.742 47.393,8.182 46.513,10.288 Z M32.229,7.009 L32.229,9.222 L34.256,9.222 L34.256,17.271 L32.229,17.271 L32.229,19.483 L40.172,19.483 L40.172,17.271 L38.147,17.271 L38.147,7.009 L32.229,7.009 Z M143.73,17.592 C143.73,18.898 144.77,19.937 146.102,19.937 C147.461,19.937 148.501,18.871 148.501,17.565 C148.501,16.258 147.461,15.218 146.128,15.218 C144.77,15.218 143.73,16.258 143.73,17.592 Z" id="path-1"></path>
        <linearGradient x1="50.0000715%" y1="-38.3847604%" x2="50.0000715%" y2="99.9993888%" id="linearGradient-3">
            <stop stop-color="#62DECE" offset="0%"></stop>
            <stop stop-color="#69CDF6" offset="100%"></stop>
        </linearGradient>
    </defs>
    <g id="Page-1" stroke="none" stroke-width="1" fill="none" fill-rule="evenodd">
        <g id="Desktop-HD" transform="translate(-625.000000, -3221.000000)">
            <g id="site-logo-name" transform="translate(625.000000, 3221.000000)">
                <mask id="mask-2" fill="white">
                    <use xlink:href="#path-1"></use>
                </mask>
                <g id="Clip-2"></g>
                <path d="M33.642,2.958 C33.642,4.265 34.574,5.171 36.014,5.171 C37.427,5.171 38.413,4.184 38.413,2.878 C38.413,1.599 37.454,0.639 36.014,0.639 C34.601,0.639 33.642,1.652 33.642,2.958 Z M16.103,1.092 L16.103,3.358 L17.915,3.358 L17.915,17.271 L16.103,17.271 L16.103,19.483 L23.167,19.483 L23.167,17.297 L21.835,17.297 L21.835,15.245 L23.433,13.806 L25.885,17.297 L24.5,17.297 L24.5,19.483 L31.351,19.483 L31.351,17.271 L30.017,17.271 L25.913,11.727 L28.684,9.222 L30.551,9.222 L30.551,7.009 L24.046,7.009 L24.046,9.196 L26.019,9.196 L21.835,13.06 L21.835,1.092 L16.103,1.092 Z M57.304,10.821 C57.304,16.232 60.823,19.91 66.287,19.91 C71.031,19.91 73.616,17.005 74.07,12.473 L71.51,12.473 C71.057,15.406 69.538,17.405 66.9,17.405 C63.887,17.405 62.049,15.352 62.049,10.555 C62.049,5.543 63.807,3.704 66.313,3.704 C68.525,3.704 70.018,5.33 71.085,8.555 L73.723,8.555 L73.723,1.572 L71.324,1.572 L70.764,3.598 C69.698,2.292 68.019,1.519 65.78,1.519 C61.195,1.519 57.304,5.357 57.304,10.821 Z M0.404,7.09 C0.404,11.008 3.656,11.994 6.535,12.687 C9.2,13.353 10.986,13.753 10.986,15.379 C10.986,16.766 9.92,17.698 8.027,17.698 C5.202,17.698 3.736,16.338 2.59,13.353 L0.244,13.353 L0.244,19.857 L2.563,19.857 L3.203,17.778 C4.189,19.004 6.108,19.91 8.294,19.91 C12.105,19.91 14.744,17.538 14.744,14.206 C14.744,10.394 11.599,9.461 8.746,8.768 C6.108,8.129 4.163,7.729 4.163,5.97 C4.163,4.77 5.122,3.731 6.908,3.731 C9.174,3.731 10.479,4.904 11.599,7.809 L13.945,7.809 L13.945,1.572 L11.599,1.572 L11.039,3.464 C10.133,2.239 8.48,1.519 6.561,1.519 C3.149,1.519 0.404,3.837 0.404,7.09 Z M182.081,4.211 L182.081,7.143 L179.788,7.143 L179.788,9.222 L182.001,9.222 L182.001,15.486 C182.001,18.338 183.334,19.75 186.052,19.75 C188.558,19.75 189.864,18.444 190.45,15.406 L188.852,14.953 C188.371,16.685 187.997,17.297 187.199,17.297 C186.293,17.297 185.892,16.658 185.892,15.512 L185.892,9.222 L189.89,9.222 L189.89,7.143 L185.892,7.143 L185.892,3.758 L182.081,4.211 Z M166.877,13.353 C166.877,17.191 169.41,19.75 173.568,19.75 C177.06,19.75 178.819,18.044 179.298,15.432 L177.22,15.432 C176.66,17.005 175.727,17.618 174.235,17.618 C172.262,17.618 171.089,16.658 170.929,13.753 L179.432,13.753 C179.618,9.701 177.646,6.716 173.435,6.716 C169.676,6.716 166.877,9.568 166.877,13.353 Z M173.355,8.529 C174.794,8.529 175.486,9.541 175.621,12.074 L170.956,12.074 C171.116,9.408 171.969,8.529 173.355,8.529 Z M119.467,13.353 C119.467,17.191 121.999,19.75 126.157,19.75 C129.649,19.75 131.408,18.044 131.888,15.432 L129.809,15.432 C129.25,17.005 128.316,17.618 126.824,17.618 C124.851,17.618 123.678,16.658 123.518,13.753 L132.021,13.753 C132.207,9.701 130.234,6.716 126.024,6.716 C122.265,6.716 119.467,9.568 119.467,13.353 Z M125.944,8.529 C127.383,8.529 128.076,9.541 128.21,12.074 L123.546,12.074 C123.705,9.408 124.558,8.529 125.944,8.529 Z M105.793,13.46 C105.793,17.218 108.299,19.75 112.537,19.75 C115.682,19.75 117.547,17.884 118.134,15.192 L116.055,15.192 C115.548,16.631 114.563,17.485 113.124,17.485 C111.045,17.485 109.978,15.779 109.978,13.166 C109.978,10.288 111.284,8.635 113.044,8.635 C114.082,8.635 114.722,9.008 115.096,9.488 C114.536,9.701 113.976,10.314 113.976,11.168 C113.976,12.18 114.67,13.06 115.975,13.06 C117.361,13.06 118.108,12.101 118.108,10.768 C118.108,8.875 116.268,6.716 112.67,6.716 C108.618,6.716 105.793,9.435 105.793,13.46 Z M156.301,10.288 L156.301,7.009 L150.81,7.009 L150.81,9.222 L152.649,9.222 L152.649,17.271 L150.81,17.271 L150.81,19.483 L157.927,19.483 L157.927,17.271 L156.541,17.271 L156.541,12.393 C156.541,10.608 157.687,9.355 158.94,9.355 C159.472,9.355 159.872,9.515 160.166,9.782 C160.566,10.181 160.725,10.848 160.725,11.674 L160.725,17.271 L159.313,17.271 L159.313,19.483 L166.429,19.483 L166.429,17.271 L164.644,17.271 L164.644,11.141 C164.644,8.555 163.524,6.742 160.832,6.742 C158.539,6.742 157.18,8.182 156.301,10.288 Z M138.534,10.208 L138.534,7.009 L133.043,7.009 L133.043,9.222 L134.883,9.222 L134.883,17.271 L133.043,17.271 L133.043,19.483 L141.093,19.483 L141.093,17.271 L138.775,17.271 L138.775,11.78 C139.228,10.235 140.107,9.435 140.827,9.382 C140.827,9.461 140.8,9.541 140.8,9.594 C140.8,10.821 141.707,11.487 142.88,11.487 C144.025,11.487 144.958,10.528 144.958,9.196 C144.958,7.889 143.972,6.742 142.426,6.742 C140.72,6.742 139.28,7.889 138.534,10.208 Z M95.042,10.288 L95.042,7.009 L89.551,7.009 L89.551,9.222 L91.391,9.222 L91.391,17.271 L89.551,17.271 L89.551,19.483 L96.667,19.483 L96.667,17.271 L95.282,17.271 L95.282,12.393 C95.282,10.608 96.429,9.355 97.681,9.355 C98.213,9.355 98.614,9.515 98.906,9.782 C99.306,10.181 99.466,10.848 99.466,11.674 L99.466,17.271 L98.053,17.271 L98.053,19.483 L105.17,19.483 L105.17,17.271 L103.384,17.271 L103.384,11.141 C103.384,8.555 102.265,6.742 99.572,6.742 C97.281,6.742 95.921,8.182 95.042,10.288 Z M75.424,10.128 C75.424,11.114 76.09,11.994 77.45,11.994 C78.542,11.994 79.342,11.274 79.342,10.341 C79.342,9.728 79.102,9.275 78.702,8.982 C79.21,8.768 79.769,8.662 80.303,8.662 C81.848,8.662 82.594,9.249 82.594,10.848 L82.594,11.941 C82.594,12.26 82.461,12.287 80.995,12.5 C77.93,12.9 76.65,13.433 75.824,14.259 C75.264,14.82 74.945,15.592 74.945,16.418 C74.945,18.444 76.543,19.724 78.756,19.724 C80.595,19.724 82.087,18.977 82.887,17.085 L83.021,17.085 C83.234,18.924 84.434,19.724 85.953,19.724 C87.739,19.724 88.725,18.791 89.231,16.739 L87.926,16.312 C87.685,17.218 87.392,17.512 87.099,17.512 C86.673,17.512 86.432,17.378 86.432,16.766 L86.432,11.087 C86.432,8.502 85.1,6.742 81.341,6.742 C78.276,6.742 75.424,7.836 75.424,10.128 Z M78.916,15.859 C78.916,14.66 79.502,14.047 81.395,13.726 C82.061,13.593 82.355,13.566 82.594,13.513 L82.594,14.74 C82.594,16.338 81.768,17.458 80.569,17.458 C79.396,17.458 78.916,16.712 78.916,15.859 Z M46.513,10.288 L46.513,7.009 L41.023,7.009 L41.023,9.222 L42.862,9.222 L42.862,17.271 L41.023,17.271 L41.023,19.483 L48.139,19.483 L48.139,17.271 L46.753,17.271 L46.753,12.393 C46.753,10.608 47.9,9.355 49.153,9.355 C49.685,9.355 50.086,9.515 50.378,9.782 C50.778,10.181 50.938,10.848 50.938,11.674 L50.938,17.271 L49.526,17.271 L49.526,19.483 L56.642,19.483 L56.642,17.271 L54.856,17.271 L54.856,11.141 C54.856,8.555 53.737,6.742 51.044,6.742 C48.752,6.742 47.393,8.182 46.513,10.288 Z M32.229,7.009 L32.229,9.222 L34.256,9.222 L34.256,17.271 L32.229,17.271 L32.229,19.483 L40.172,19.483 L40.172,17.271 L38.147,17.271 L38.147,7.009 L32.229,7.009 Z M143.73,17.592 C143.73,18.898 144.77,19.937 146.102,19.937 C147.461,19.937 148.501,18.871 148.501,17.565 C148.501,16.258 147.461,15.218 146.128,15.218 C144.77,15.218 143.73,16.258 143.73,17.592 Z" id="Fill-1" fill="url(#linearGradient-3)" mask="url(#mask-2)"></path>
            </g>
        </g>
    </g>
</svg>