<?xml version="1.0" encoding="UTF-8"?>
<svg width="993px" height="220px" viewBox="0 0 993 220" version="1.1" xmlns="http://www.w3.org/2000/svg" xmlns:xlink="http://www.w3.org/1999/xlink">
    <!-- Generator: Sketch 49.3 (51167) - http://www.bohemiancoding.com/sketch -->
    <title>video-plants</title>
    <desc>Created with Sketch.</desc>
    <defs>
        <polygon id="path-1" points="0.428920833 0.578896552 69.4206825 0.578896552 69.4206825 139.293379 0.428920833 139.293379"></polygon>
    </defs>
    <g id="Page-1" stroke="none" stroke-width="1" fill="none" fill-rule="evenodd">
        <g id="Desktop-HD" transform="translate(-185.000000, -11005.000000)">
            <g id="video-plants" transform="translate(185.000000, 11005.000000)">
                <path d="M349.942066,219.069448 C351.122895,218.648069 348.411191,211.332207 348.085445,210.150828 C347.365651,207.546 346.890824,204.841862 346.084997,202.235655 C344.385995,196.74531 342.149118,191.473586 339.454489,186.443931 C339.294243,186.14531 338.854223,185.992207 338.555403,186.116345 C331.301643,189.135655 323.314955,189.647379 315.789959,187.657034 C322.352822,185.994276 328.767917,183.737034 334.959062,180.899793 C335.271673,180.756345 335.519923,180.46531 335.49037,180.081172 C335.113397,175.199103 333.792024,170.474966 331.579447,166.161172 C329.539594,162.183241 326.871235,158.319103 323.253221,155.792897 C323.052913,155.652897 322.848665,155.516345 322.64179,155.384621 C322.553786,155.328759 322.463155,155.272897 322.362016,155.255655 C322.179441,155.223241 321.999493,155.317724 321.835306,155.409448 C320.200665,156.32531 318.690806,157.491517 317.07127,158.448759 C316.225382,158.948069 315.367671,159.426 314.499453,159.880483 C313.893276,160.197724 312.443838,160.569448 312.026147,161.097724 C314.129048,158.437034 315.173274,154.954966 315.985669,151.552207 C316.487423,149.453586 316.289743,147.892897 314.851469,146.263241 C313.118316,144.299793 311.263009,142.441862 309.470749,140.537034 C305.884915,136.728759 302.299739,132.920483 298.713905,129.112897 C297.073354,127.370138 295.429518,125.604621 293.517074,124.18531 C291.181028,122.450828 288.507415,121.377034 285.907358,120.167379 C283.135889,118.878414 280.364421,117.589448 277.592296,116.299793 C277.192995,116.114276 276.759542,115.923931 276.332657,116.021862 C275.585937,116.191517 275.331776,117.739103 275.097318,118.364621 C274.67109,119.504621 274.246832,120.646 273.825201,121.788069 C272.980626,124.072207 272.143931,126.359103 271.307893,128.64669 C269.658147,133.161172 268.012342,137.677034 266.322534,142.176345 C265.687461,143.866 264.815302,145.632897 264.615651,147.461172 C264.396298,149.474966 265.410314,150.924621 266.467675,152.484621 C268.407046,155.343241 270.357582,158.192207 272.277907,161.063931 C269.595757,159.570828 267.082389,157.774276 264.754882,155.704621 C264.100106,155.121862 263.275889,155.690828 263.227947,156.491517 C262.663802,165.887379 262.42409,175.300483 262.404388,184.714966 C262.403731,185.321862 262.405044,185.929448 262.403731,186.537034 C262.403074,187.072897 262.265157,187.84531 262.398477,188.359793 C262.583022,189.074276 263.371774,189.488759 263.91556,189.912207 C265.562022,191.191517 267.270876,192.38669 269.029641,193.489448 C271.75054,195.196345 274.596221,196.659793 277.535816,197.891517 C274.002522,198.168069 270.45084,197.90669 266.974026,197.116345 C266.91886,197.103241 266.867634,197.100483 266.819034,197.101172 C266.465705,196.444621 265.213947,196.673586 265.178483,197.657724 C264.930889,204.500483 265.701909,211.390138 267.497453,217.976345 C267.592681,218.011517 267.687253,218.048069 267.784451,218.080483 C267.768032,217.967379 267.751614,217.857034 267.734538,217.741862 C268.101003,217.754276 268.463526,217.76531 268.829334,217.777724 C270.272205,217.819793 271.720987,217.859793 273.167141,217.901862 C275.376435,217.964621 277.594266,218.021862 279.809471,218.082552 C281.148576,218.117724 282.482427,218.156345 283.824159,218.191517 C285.23682,218.22669 286.646854,218.26531 288.061485,218.299103 C297.715651,218.538414 307.423014,218.744621 317.170439,218.921862 C318.63761,218.948069 320.106751,218.971517 321.576548,218.997034 L349.224899,219.347379 C349.238034,219.332897 349.253796,219.321172 349.264961,219.304621 C349.490225,219.226 349.716802,219.150138 349.942066,219.069448" id="Fill-1" fill="#27229D"></path>
                <g id="Group-5" transform="translate(923.384921, 56.588966)">
                    <mask id="mask-2" fill="white">
                        <use xlink:href="#path-1"></use>
                    </mask>
                    <g id="Clip-4"></g>
                    <path d="M42.9735855,86.3947586 C51.8192978,97.3726897 69.4207482,77.6630345 69.4207482,77.6630345 C69.4207482,77.6630345 53.7468474,73.3795862 43.2448216,85.2844138 C45.1566093,77.1506207 44.7809506,69.1264828 43.2842264,61.3333793 C59.3193375,66.4382069 63.041774,41.774069 63.041774,41.774069 C63.041774,41.774069 45.8218931,44.8885517 42.7325597,58.6809655 C41.4216946,52.8347586 39.5545657,47.1278621 37.6316133,41.6126897 C48.7332482,44.9175172 52.4129962,24.5230345 52.4129962,24.5230345 C52.4129962,24.5230345 39.5256688,28.2285517 37.1988177,40.3754483 C36.8711014,39.4437241 36.5433851,38.5161379 36.2176391,37.5961379 C34.5173236,32.792 32.8531292,28.0851034 31.5790419,23.5223448 C42.0252442,27.2623448 45.3168554,8.61958621 45.3168554,8.61958621 C45.3168554,8.61958621 33.1361867,11.9388966 31.5179645,23.3009655 C29.3145815,15.3395862 28.325522,7.82165517 30.4619169,1.00717241 L29.4433038,0.578896552 C27.3417165,7.28372414 28.1028851,14.5306207 30.0744367,22.1547586 C24.193276,14.4968276 12.5189585,18.2457931 12.5189585,18.2457931 C12.5189585,18.2457931 21.7843315,33.1216552 30.65303,24.2857931 C31.9244903,28.7692414 33.5538772,33.3761379 35.2161014,38.0733793 C35.4518732,38.7368276 35.687645,39.4051034 35.9240736,40.0754483 C28.8496054,30.1106207 14.1220756,34.8313103 14.1220756,34.8313103 C14.1220756,34.8313103 25.6505954,53.3568276 36.5821331,41.9513103 C42.8139962,59.814069 48.5257165,79.7133793 35.9838375,99.6402759 C35.1615915,100.947862 34.3347482,102.267862 33.5059347,103.593379 C30.1479923,87.7975172 7.15531369,90.0009655 7.15531369,90.0009655 C7.15531369,90.0009655 13.6531589,115.462345 33.0869308,104.264414 C30.4704546,108.457517 27.8323058,112.743724 25.1987542,117.123724 C22.6643712,105.990621 5.19689702,108.334069 5.19689702,108.334069 C5.19689702,108.334069 9.51697242,126.614759 24.5091708,118.272 C21.9898931,122.478897 19.4798097,126.774069 17.0019069,131.154759 C15.0067125,122.075448 0.428920833,124.237517 0.428920833,124.237517 C0.428920833,124.237517 3.85779187,139.188552 16.4981827,132.045793 C15.1531669,134.436138 13.8173454,136.85131 12.4966292,139.293379 C12.5912006,139.263724 12.685772,139.234759 12.7796867,139.205103 C13.2019744,139.07269 13.6242621,138.934069 14.0458931,138.798897 C15.1603911,136.753379 16.28277,134.723724 17.4143435,132.714759 C18.5334387,134.310621 19.6026212,135.600966 20.6199208,136.636138 C22.9040835,135.859586 25.1869327,135.059586 27.4651847,134.23269 C28.2434288,133.950621 29.0203593,133.661655 29.7979466,133.374759 C26.4991113,131.119586 21.9077998,128.65269 19.0030121,129.909931 C21.2339784,126.003724 23.4885875,122.170621 25.7484506,118.403724 C39.4035141,137.767172 51.1428494,120.204414 51.1428494,120.204414 C51.1428494,120.204414 35.612776,108.844414 27.7213157,115.134759 C29.9332363,111.49131 32.1438435,107.91269 34.3380319,104.400966 C46.0510974,119.812 64.7525974,97.5244138 64.7525974,97.5244138 C64.7525974,97.5244138 47.45128,90.4388966 36.2268335,101.387172 C36.4369923,101.05269 36.6484645,100.714759 36.8573097,100.380966 C39.8041292,95.6995862 41.7651728,91.0306207 42.9735855,86.3947586" id="Fill-3" fill="#27229D" mask="url(#mask-2)"></path>
                </g>
                <path d="M965.382976,117.899586 C957.779827,104.058897 939.07767,110.065103 939.07767,110.065103 C939.07767,110.065103 952.651297,131.883724 965.382976,117.899586" id="Fill-6" fill="#27229D"></path>
                <path d="M965.073254,142.824828 C960.116792,122.706897 935.379796,122.168966 935.379796,122.168966 C935.379796,122.168966 945.133788,154.551724 965.073254,142.824828" id="Fill-8" fill="#27229D"></path>
                <path d="M916.638825,193.408759 C916.638825,193.408759 917.583883,197.517724 920.299528,200.402552 C924.104714,199.387379 927.917782,198.294966 931.730849,197.14669 C927.450179,191.800483 916.638825,193.408759 916.638825,193.408759" id="Fill-10" fill="#27229D"></path>
                <path d="M130.895461,37.2321379 C132.207639,59.0328276 160.069433,54.6652414 160.069433,54.6652414 C160.069433,54.6652414 149.681024,34.8452414 133.971659,35.5990345 C144.787609,29.6569655 153.687832,22.5231724 158.435449,12.1721379 L156.700982,11.2935172 C151.875213,21.8135172 142.39574,28.9473103 130.921074,34.9590345 C141.380411,20.0148966 129.893923,0.000413793103 129.893923,0.000413793103 C129.893923,0.000413793103 113.515334,25.3735172 130.595984,35.128 C124.006851,38.5569655 116.775421,41.6266207 109.392282,44.7569655 C107.977651,45.3569655 106.553826,45.9604138 105.123433,46.5714483 C115.563724,29.7976552 103.622111,8.40524138 103.622111,8.40524138 C103.622111,8.40524138 85.7875161,36.2742069 103.201794,47.3948966 C94.7809962,51.0204138 86.2176847,54.9307586 78.1915915,59.7404138 C89.4547859,40.0997241 71.4855577,13.6038621 71.4855577,13.6038621 C71.4855577,13.6038621 49.0419188,46.3176552 74.5525617,62.0093793 C64.1549585,68.765931 54.8876153,77.270069 48.3352601,88.950069 C48.3260657,61.5528276 24.1702899,45.4486897 24.1702899,45.4486897 C24.1702899,45.4486897 24.402778,91.1348966 47.4309208,90.6197241 C43.8450875,97.4473103 41.1635935,105.325241 39.6852581,114.525931 C39.5808355,115.176966 39.4731292,115.834897 39.3680498,116.48731 C37.4326192,89.1776552 8.16932956,74.028 8.16932956,74.028 C8.16932956,74.028 6.93990099,124.096966 38.4032899,122.416966 C37.2763137,129.289379 36.0967978,136.259034 34.8470101,143.303172 C31.9205498,125.697655 0.182641071,117.732138 0.182641071,117.732138 C0.182641071,117.732138 -4.51112282,153.178345 33.704272,149.648 C32.3783018,156.899034 30.9741788,164.216966 29.4597224,171.585241 C25.6473117,162.58731 3.92543671,159.178345 3.92543671,159.178345 C3.92543671,159.178345 3.43550417,161.463862 3.85713512,164.402483 C9.65882956,168.850069 16.0942839,173.110759 23.1897681,177.136966 C24.7797502,177.140414 26.4945141,177.061793 28.3491649,176.884552 C28.1547681,177.803862 27.9544605,178.724552 27.7554665,179.645241 C28.3432542,179.956966 28.9316986,180.26869 29.5273673,180.578345 C29.7572284,179.516276 29.9897165,178.452828 30.2143236,177.391448 C30.7265855,179.012138 31.2927006,180.471448 31.9028177,181.790759 C38.9740022,185.34869 46.6218097,188.686621 54.8692264,191.766621 C57.2367958,190.951448 58.7538792,190.052138 58.7538792,190.052138 C58.7538792,190.052138 43.0208712,168.125931 30.5781609,175.661103 C32.3067165,167.428 33.9019526,159.249379 35.3888256,151.156276 C44.8551629,180.579724 70.2863395,165.789379 70.2863395,165.789379 C70.2863395,165.789379 51.1638653,139.794207 35.7966649,148.918345 C37.3314804,140.479724 38.7566192,132.140414 40.1068891,123.935586 C51.9578712,162.505241 87.9757938,142.550759 87.9757938,142.550759 C87.9757938,142.550759 61.8353315,109.328 40.3275558,122.599034 C40.7518137,120.006621 41.1721312,117.423862 41.5839109,114.861103 C45.6997383,89.2328276 59.5058534,74.0590345 76.2174129,63.3362759 C77.5046351,94.9348966 117.459093,88.6742069 117.459093,88.6742069 C117.459093,88.6742069 101.845613,58.8776552 78.4726788,61.9273103 C86.6820042,56.9217931 95.4994764,52.8942069 104.159986,49.1686897 C105.218004,76.6093793 139.873836,71.1797241 139.873836,71.1797241 C139.873836,71.1797241 126.789484,46.210069 107.096298,47.9128276 C108.10506,47.4831724 109.111195,47.0562759 110.112076,46.6321379 C117.326431,43.5728276 124.399586,40.5728276 130.895461,37.2321379" id="Fill-12" fill="#27229D"></path>
                <path d="M49.2101115,92.1587586 C61.1083794,132.000138 108.767782,108.610483 108.767782,108.610483 C108.767782,108.610483 77.4488774,76.1532414 49.2101115,92.1587586" id="Fill-14" fill="#27229D"></path>
                <path d="M201.992684,179.312552 C201.07324,180.798759 199.771569,182.013931 198.358909,182.969103 C196.914067,183.945655 195.295188,184.651862 193.619829,185.047724 C191.910976,185.451862 190.004442,185.638069 188.290992,185.168414 C186.580168,184.699448 185.280468,183.419448 185.40525,181.467724 C185.512299,179.805655 186.393653,178.303586 187.386653,177.056 C189.670159,174.184276 193.248768,172.168414 196.841825,172.069103 C198.854095,172.013241 201.035805,172.598759 202.3447,174.312552 C202.688835,174.762897 202.945623,175.279448 203.11178,175.827034 C203.002103,177.060828 202.666506,178.223586 201.992684,179.312552 M185.804551,148.833241 C186.381831,147.482207 187.261871,146.309793 188.327113,145.344276 C190.561363,143.319448 194.075611,142.005655 196.957413,143.147034 C198.531633,143.770483 199.889784,145.204276 200.072359,147.01669 C200.246397,148.744966 199.453704,150.423586 198.31425,151.622897 C197.005355,153.000138 195.228857,153.884276 193.484539,154.480138 C191.981905,154.993931 190.348577,155.286345 188.774357,154.993931 C186.107968,154.499448 184.687426,151.443586 185.804551,148.833241 M166.341883,134.153931 C165.574147,136.051862 164.024883,137.344966 162.001448,136.885655 C160.27749,136.493241 158.849067,135.233931 157.703045,133.886345 C155.06621,130.785655 153.533365,126.329103 154.010162,122.164276 C154.277458,119.832552 155.242218,117.407724 157.248577,116.173931 C157.775944,115.849793 158.359135,115.636 158.958087,115.533241 C160.232174,115.858759 161.394615,116.433931 162.426363,117.388414 C163.83377,118.690483 164.895728,120.389793 165.666091,122.174621 C166.4555,124.000828 166.932954,125.983586 167.077438,127.981517 C167.224549,130.019448 167.110932,132.251172 166.341883,134.153931 M146.640815,165.951172 C145.920365,166.248414 145.067252,166.013241 144.386863,165.707034 C142.806732,164.999448 141.451208,163.630483 140.33474,162.289793 C139.157194,160.87669 138.192434,159.244276 137.479865,157.522897 C137.015545,156.401517 136.662216,155.258069 136.407399,154.099448 C136.239272,152.138759 135.628498,149.907724 136.533494,148.058759 C137.510075,146.062897 139.461924,146.018069 141.075549,147.171862 C142.588036,148.253931 143.773462,149.93531 144.740849,151.540138 C145.810032,153.313931 146.627024,155.243586 147.166869,157.264276 C147.690952,159.231862 147.996339,161.329793 147.906365,163.377379 C147.86302,164.372552 147.625934,165.545655 146.640815,165.951172 M142.163778,204.138069 C141.179972,204.900828 139.832986,204.454621 138.799924,204.032552 C137.640768,203.557379 136.516418,202.971172 135.438698,202.318069 C133.303617,201.023586 131.353081,199.431862 129.620585,197.611172 C129.341468,197.225655 129.078113,196.825655 128.83446,196.404276 C127.644436,194.349103 126.81628,192.074621 126.589702,189.669103 C126.38217,187.469793 126.539133,184.149103 128.950047,183.316 C130.756099,182.691862 132.635706,184.087034 133.90848,185.285655 C135.770355,187.038759 137.32947,189.21669 138.845897,191.291172 C140.25396,193.217379 141.732295,195.213241 142.635978,197.468414 C143.399117,199.372552 144.05652,202.673241 142.163778,204.138069 M246.215335,187.647724 C246.173303,186.548414 246.062313,185.462897 245.908635,184.374621 C245.886305,184.214621 245.769405,184.132552 245.653817,184.129793 C245.73394,183.516 244.812526,183.106345 244.446061,183.758759 C241.472972,189.049103 237.340069,195.283586 230.869151,195.411862 C228.343305,195.461517 225.67626,194.489793 224.255718,192.180138 C222.841087,189.877379 222.968496,186.952552 223.789428,184.446345 C224.808041,181.340138 227.005514,178.862207 229.169492,176.573931 C231.161403,174.466345 233.167105,172.408414 234.860853,170.020138 C237.745282,165.951172 239.965083,161.284966 240.986323,156.308414 C242.102135,150.869793 241.639786,145.141517 238.988502,140.257379 C238.664726,139.659448 237.905528,139.91531 237.726893,140.476 C236.732579,143.592552 235.285768,146.568414 233.441625,149.224966 C231.691397,151.745655 229.576018,154.238069 226.985155,155.822897 C224.645825,157.25531 221.681274,157.800138 219.215192,156.367034 C216.942194,155.046345 216.224371,152.280138 216.649286,149.724276 C217.159577,146.660138 219.104859,144.21669 221.061305,142.000138 C223.119547,139.669103 225.179103,137.360138 226.991722,134.807034 C230.385129,130.028414 233.093549,124.525655 233.643903,118.51531 C234.184405,112.608414 232.68571,106.392552 228.617825,102.113931 C228.306528,101.787034 227.730561,101.893931 227.538135,102.306345 C226.101174,105.382207 224.531551,108.388414 222.824668,111.308414 C221.238627,114.020828 219.602672,116.992552 217.192414,118.998759 C215.204444,120.652552 212.367958,121.566345 209.959014,120.342897 C207.619684,119.156 207.127125,116.338069 207.791095,113.907034 C208.625163,110.852552 211.177278,108.707724 213.389855,106.73669 C215.823756,104.568414 218.188041,102.313241 220.390768,99.8849655 C224.501341,95.3525517 228.101623,90.1691034 230.246555,84.2911724 C232.327784,78.5808276 233.083041,72.3442759 231.745907,66.3456552 C231.652649,65.9304828 231.230361,65.7863448 230.877688,65.8532414 C224.995214,66.9711724 219.046409,68.1884138 213.617089,70.9187586 C210.953327,72.2587586 208.459663,73.993931 206.354135,76.1787586 C204.198038,78.413931 202.504289,81.1091034 201.155333,83.9470345 C199.741359,86.9187586 198.678087,90.0594483 197.660131,93.2008276 C197.15772,94.7525517 196.667788,96.3097931 196.153555,97.858069 C195.674788,99.3022069 195.228857,101.149103 194.01322,102.125655 C191.838734,103.870483 189.968978,100.825655 189.380534,98.9615172 C188.573393,96.4070345 188.782238,93.3815172 189.123746,90.7553103 C189.589379,87.1822069 190.706504,83.7111724 192.373982,80.5594483 C193.205422,78.9849655 194.173466,77.4904828 195.260381,76.0987586 C195.738492,75.4870345 198.62292,73.0166897 197.637145,72.2401379 C197.103867,72.2297931 196.736746,71.9546207 196.170631,71.9753103 C195.47842,72.0015172 194.786867,72.0870345 194.103194,72.1973793 C192.778537,72.4091034 191.473583,72.7435862 190.181107,73.1091034 C188.012532,73.7222069 185.866942,74.538069 183.920347,75.7291034 C182.064383,76.8642759 180.429085,78.3684138 179.225926,80.2463448 C177.968258,82.2111724 177.351573,84.5132414 176.993647,86.8277241 C176.623899,89.2118621 176.49452,91.6353103 175.980944,93.9946207 C175.492325,96.2366897 174.62542,98.653931 172.854176,100.131172 C171.452024,101.300138 169.425962,101.891862 167.684272,101.309793 C165.478918,100.571172 164.879966,98.0435862 164.683599,95.8870345 C164.215996,90.7311724 165.790216,85.6808276 167.342107,80.8628966 C167.513518,80.3311724 166.928357,79.8615172 166.469291,80.0056552 C156.653565,83.0891034 150.455196,92.7084138 147.915559,102.671862 C147.246992,105.297379 146.792524,107.978759 146.485166,110.67669 C146.335428,111.988414 146.219841,113.304966 146.13118,114.622897 C146.04252,115.941517 146.04843,117.278069 145.910514,118.591862 C145.790329,119.742207 145.470494,121.101517 144.316591,121.540138 C143.432611,121.87669 142.410057,121.559448 141.657426,121.030483 C139.607065,119.590483 139.517091,116.472552 139.318097,114.158069 C138.721115,107.179448 138.089325,100.207034 137.287438,93.2511724 C137.268393,93.0925517 137.148865,93.0125517 137.031307,93.0104828 C137.116684,92.6691034 137.18827,92.3215172 137.24278,91.9677241 C137.295976,91.6166897 136.813268,91.3801379 136.656962,91.7408276 C135.231166,95.0256552 133.16767,97.8166897 130.736397,100.347724 C128.316287,102.866345 125.677482,105.170483 123.502996,107.939448 C119.498159,113.038759 117.761722,119.705655 118.837472,126.230483 C119.837039,132.297379 122.923089,137.677379 124.382379,143.603586 C125.054887,146.333241 125.537595,149.542897 124.575462,152.259448 C124.155801,153.446345 123.42747,154.746345 122.255178,155.240138 C120.742036,155.878069 119.355645,154.718069 118.294343,153.709793 C115.565563,151.118759 113.324746,147.960138 111.70324,144.493931 C110.039045,140.93669 109.158349,137.148414 108.648714,133.240828 C108.603399,132.892552 108.12069,132.894621 108.120034,133.260138 C108.120034,133.305655 108.121347,133.351172 108.121347,133.397379 C107.92301,133.404276 107.724016,133.518759 107.649803,133.772552 C105.962623,139.525655 104.78048,145.454621 103.985817,151.413931 C103.611472,154.21669 103.205603,157.092552 103.394746,159.929103 C103.551708,162.286345 104.234067,164.499448 105.271069,166.586345 C107.313549,170.700138 110.486289,174.116 112.28052,178.373931 C113.134289,180.397379 114.036002,183.405655 113.017389,185.524276 C111.932444,187.781517 109.459795,186.567034 108.083256,185.381517 C107.028522,184.474621 106.153079,183.345655 105.273039,182.260138 C104.177587,180.908414 103.126793,179.51669 102.120002,178.090483 C100.149764,175.298069 98.3581605,172.371172 96.743222,169.338069 C96.5133609,168.904966 95.8139264,169.01669 95.7318331,169.513241 C94.9910236,173.985655 94.265976,178.471172 93.9802915,183.005655 C93.6913232,187.605655 93.9559919,192.176 94.9706645,196.667034 C95.5243014,199.119448 96.2165117,201.545655 96.9816208,203.948414 C113.205218,207.473241 131.04244,210.187724 150.590486,211.924276 C154.53753,212.274621 158.531202,212.600828 162.618133,212.869793 C162.687748,212.873931 162.75999,212.878759 162.829605,212.882897 C167.165442,213.169103 171.540684,213.440828 175.936942,213.706345 C177.291809,213.788414 178.655214,213.867034 180.015335,213.946345 C183.311543,214.140828 186.623514,214.327034 189.950589,214.509793 C191.312024,214.585655 192.670831,214.660138 194.036863,214.732552 C195.672817,214.819448 197.327817,214.899448 198.969682,214.984276 C199.11745,214.991172 199.266532,214.998759 199.413643,215.006345 C202.148333,215.147724 204.873829,215.291862 207.629536,215.424276 C207.686672,215.427034 207.743809,215.430483 207.800946,215.433241 C212.377809,215.653931 216.98751,215.860138 221.612972,216.062207 C223.015125,216.122207 224.422532,216.181517 225.829282,216.240138 C229.255526,216.384966 232.692934,216.524276 236.143478,216.658069 C237.474702,216.710483 238.805926,216.762897 240.140434,216.813241 C240.703922,215.611172 241.233916,214.391862 241.718595,213.15531 C244.861782,205.145655 246.546335,196.323586 246.215335,187.647724" id="Fill-16" fill="#27229D"></path>
            </g>
        </g>
    </g>
</svg>