<?xml version="1.0" encoding="UTF-8"?>
<svg width="1149px" height="700px" viewBox="0 0 1149 700" version="1.1" xmlns="http://www.w3.org/2000/svg" xmlns:xlink="http://www.w3.org/1999/xlink">
    <!-- Generator: Sketch 49.3 (51167) - http://www.bohemiancoding.com/sketch -->
    <title>video-background</title>
    <desc>Created with Sketch.</desc>
    <defs></defs>
    <g id="Page-1" stroke="none" stroke-width="1" fill="none" fill-rule="evenodd">
        <g id="Desktop-HD" transform="translate(-146.000000, -10525.000000)" fill="#5450F5">
            <g id="Video-background" transform="translate(146.000000, 10525.000000)">
                <g id="Group-3" transform="translate(0.000000, 0.406660)">
                    <path d="M1090.19687,355.895233 C1065.56756,334.607605 1038.21743,317.909034 1019.02059,301.192542 C994.47401,279.84357 983.222346,258.495288 1007.94292,227.578083 C1056.76754,166.245452 998.015557,37.6298548 846.657458,37.6298548 C838.468043,37.6298548 830.027817,38.0048093 821.298043,38.7871133 C618.267774,65.9113495 592.956289,-74.7145092 410.390694,58.7444802 C406.643641,61.4939167 403.880788,63.5513417 401.075258,65.6825169 C398.298618,67.7792294 396.328903,69.2590591 394.390705,70.6913301 C393.580495,71.2889138 392.793923,71.8513456 391.990936,72.437212 C390.625267,73.4345634 389.25172,74.4436321 387.908375,75.4058316 C386.991145,76.0633804 386.096238,76.6830203 385.189513,77.3247164 C383.986017,78.1745673 382.77333,79.0402711 381.587562,79.8625518 C380.68215,80.491152 379.799718,81.0832217 378.904154,81.6945905 C377.741366,82.4899903 376.570043,83.298486 375.424326,84.0663156 C374.553055,84.6501142 373.704109,85.1994501 372.844,85.7687744 C371.698283,86.5241975 370.545343,87.2927164 369.416697,88.0219477 C368.576942,88.5650803 367.756228,89.0765073 366.925009,89.6051655 C365.801615,90.3199226 364.670999,91.0457076 363.563363,91.7356515 C360.047423,93.8840581 358.939787,94.5664201 357.853818,95.2150087 C354.427171,97.2228074 353.349738,97.8596786 352.293314,98.4634656 C348.934295,100.345131 347.88969,100.935133 346.864125,101.494807 C343.593086,103.242068 342.566865,103.794161 341.559028,104.317305 C338.385818,105.928093 337.375355,106.443655 336.381962,106.932337 C333.282945,108.422505 332.299401,108.897402 331.330958,109.347485 C328.28775,110.727373 327.330469,111.163671 326.386975,111.575845 C323.419273,112.839938 322.481032,113.241084 321.556579,113.619485 C318.641402,114.780879 317.727455,115.145495 316.825326,115.490122 C313.975149,116.546749 313.078273,116.87897 312.193214,117.191892 C309.392281,118.152023 308.519041,118.451849 307.656306,118.733065 C304.901989,119.601526 304.047789,119.870335 303.202782,120.121913 C300.493768,120.90146 299.658609,121.14132 298.831986,121.364639 C296.164336,122.061475 295.348874,122.272387 294.539978,122.470203 C291.898591,123.089154 291.107423,123.273185 290.322163,123.44412 C287.706383,123.98932 286.930972,124.147849 286.162127,124.296039 C283.573922,124.770935 282.816895,124.907408 282.065121,125.032163 C279.50121,125.440201 278.759941,125.555307 278.023267,125.661452 C275.471174,126.006769 274.748289,126.101886 274.028687,126.188732 C271.496291,126.476151 270.786537,126.553348 270.081379,126.623652 C267.548983,126.857998 266.855644,126.918652 266.165587,126.973104 C263.646323,127.157135 262.964802,127.202625 262.28525,127.243981 C259.766642,127.382521 259.102849,127.414916 258.440368,127.443864 C255.906002,127.541049 255.252057,127.562416 254.599425,127.581026 C252.073595,127.640991 251.418993,127.652019 250.765048,127.661669 C248.253006,127.68855 247.603657,127.691996 246.954964,127.693375 C242.439066,127.689928 239.220553,127.647884 235.991534,127.581026 C232.121702,127.497626 228.878239,127.408712 225.607201,127.31842 C222.274444,127.22606 218.908202,127.136457 215.501253,127.066153 C211.444955,126.984132 208.028814,126.940709 204.554894,126.937952 C202.199116,126.942087 201.061934,126.950358 199.918843,126.962765 C197.006293,127.003431 195.718099,127.032379 194.422684,127.066842 C191.716953,127.14266 190.074211,127.206761 188.415712,127.283957 C185.762507,127.421808 184.532749,127.492112 183.293142,127.572066 C180.261095,127.782978 179.026084,127.880163 177.782538,127.985619 C174.420235,128.281998 172.656028,128.457069 170.868184,128.657642 C168.374526,128.950575 166.886735,129.135295 165.38253,129.335179 C162.178461,129.783195 160.885672,129.976186 159.582378,130.179516 C156.003407,130.756422 154.365918,131.042463 152.711358,131.346424 C149.836231,131.876461 147.857325,132.276228 145.857409,132.697363 C142.529905,133.424527 141.063781,133.756747 139.581242,134.104821 C135.876866,134.998784 134.289277,135.402687 132.687242,135.821754 C128.814127,136.845297 126.629058,137.456666 124.409846,138.104565 C121.170323,139.074347 119.379853,139.622304 117.565089,140.196453 C113.623034,141.469506 111.943525,142.031249 110.246944,142.610223 C105.652257,144.198955 103.226226,145.065348 100.752265,145.98757 C94.7656462,148.219377 88.9569588,150.819245 83.3524651,153.748577 C80.5502182,155.213932 77.7985274,156.761309 75.1013319,158.385193 C73.7533908,159.197824 72.4185811,160.030443 71.0969028,160.879605 C65.8128159,164.282455 60.7513068,167.983752 55.9379817,171.946277 C48.7176657,177.88903 42.0560919,184.419028 36.0386148,191.401866 C31.0243788,197.221932 26.4566114,203.355609 22.3858685,209.729146 C21.5717199,211.003578 20.7772685,212.287659 20.0031708,213.580012 C4.52252966,239.440844 -2.8527372,268.866501 1.04401423,296.945355 C1.43336109,299.753379 1.93563823,302.546238 2.55412851,305.322556 C3.07872909,307.677049 3.70509823,310.015001 4.39843766,312.339857 C5.09505994,314.678498 5.88163251,316.997839 6.75355937,319.301328 C9.73833309,327.185712 13.7539239,334.841952 18.8869994,342.14805 C19.9480188,343.656829 21.0622205,345.147686 22.2184428,346.626137 C24.6589188,349.747082 27.2904571,352.804616 30.1675531,355.771857 C33.4786428,359.1623 36.8580159,362.257053 40.4934519,365.247729 C44.7250548,368.729843 49.3000445,372.071349 54.2643811,375.241231 C55.2387331,375.863628 56.1336399,376.471551 57.0804159,377.088434 C60.3278182,379.203067 63.4235525,381.290819 66.3630228,383.353069 C79.6638468,392.679373 89.8426737,401.455652 97.1647582,409.72326 C99.0760377,411.880627 100.85469,414.015249 102.381218,416.103001 C104.390983,418.853127 106.07115,421.545355 107.433535,424.179686 C110.156337,429.44697 111.604077,434.485421 111.86211,439.306068 C112.055142,442.920519 111.578471,446.41504 110.469522,449.791698 C105.290486,465.549437 86.3155719,478.760379 57.1926897,489.964902 C52.8330554,491.641169 48.6835239,493.573839 44.7578834,495.732585 C42.1394765,497.171748 39.6215251,498.712922 37.2073119,500.347833 C27.5484897,506.886103 19.5468537,514.92419 13.4702851,523.969967 C10.4323291,528.494234 7.87563994,533.26939 5.8337028,538.236848 C1.75048509,548.169007 -0.273724629,558.862792 0.0302679429,569.829522 C0.105773657,572.571377 0.3276948,575.329773 0.698657657,578.09782 C1.37689594,583.158327 2.58301766,588.249162 4.28813366,593.324833 C4.9145028,595.189266 5.58617537,597.053011 6.35502051,598.911241 C7.50073766,601.67722 8.8073148,604.434238 10.2780348,607.172647 C13.2188182,612.650153 16.8181428,618.058734 21.1075239,623.334288 C23.2525428,625.972066 25.5702399,628.578137 28.0645548,631.142165 C56.6129371,660.489247 108.363241,684.506323 189.554863,691.718683 C193.501514,692.069514 197.493469,692.394842 201.579313,692.663652 C206.124757,692.962788 210.499492,693.234354 214.894581,693.499717 C216.249088,693.581739 217.611474,693.660314 218.97189,693.739578 C222.267222,693.933948 225.577655,694.120736 228.904502,694.303388 C230.265575,694.378517 231.624021,694.453646 232.98969,694.526017 C234.624553,694.612174 236.280426,694.692128 237.921198,694.777595 C241.099003,694.940259 243.823118,695.085003 246.578092,695.216651 C251.325103,695.446172 255.933578,695.652259 260.557811,695.854211 C261.959591,695.914865 263.367937,695.973452 264.772999,696.032728 C268.198333,696.176782 271.635484,696.316701 275.084454,696.449727 C276.492799,696.504867 277.899175,696.560697 279.310804,696.61377 C283.995441,696.790908 288.694523,696.959775 293.417241,697.118304 C295.878071,697.201015 298.275213,697.271318 300.662507,697.345069 C302.343986,697.397452 304.02087,697.452592 305.704975,697.504287 C309.205158,697.61181 310.652898,697.651787 312.098668,697.692453 C314.307374,697.755864 316.524616,697.813073 318.739888,697.873727 C320.078637,697.908879 321.412134,697.946788 322.752853,697.98194 C324.164481,698.017781 325.575453,698.056379 326.989051,698.089464 C336.639995,698.329324 346.34609,698.536101 356.08961,698.71255 C357.557047,698.738742 359.026454,698.762176 360.495205,698.786989 L405.046202,699.352178 C408.191179,699.377681 408.839215,699.381816 409.487908,699.38733 C413.091829,699.414211 416.695749,699.439024 420.300326,699.460391 C421.806501,699.468662 423.312676,699.477622 424.818851,699.485204 C429.693237,699.505193 431.49093,699.511396 433.289279,699.517599 C435.264246,699.524492 436.970675,699.533452 438.676447,699.537588 C444.720844,699.55413 449.425178,699.558265 454.12623,699.559644 C455.650132,699.559644 457.172721,699.559644 458.695967,699.558265 C462.255897,699.556887 465.813201,699.552062 469.366566,699.545169 C470.881276,699.542412 472.397299,699.541034 473.911353,699.536209 C478.549374,699.523113 483.182798,699.508639 487.807031,699.487961 C493.754911,699.458323 498.369295,699.432132 502.974487,699.401115 C504.503642,699.390776 506.029514,699.380438 507.556699,699.36872 C511.058195,699.343907 514.553125,699.317715 518.040832,699.288077 C519.526653,699.274292 521.013131,699.263264 522.496326,699.249479 C527.255812,699.206745 532.00545,699.161255 536.73539,699.110939 C541.662959,699.058556 546.370576,699.002726 551.065718,698.944829 C552.600126,698.92553 554.129281,698.90692 555.659749,698.887621 C559.013515,698.843508 562.35809,698.799396 565.691503,698.753216 C567.216719,698.733227 568.743247,698.71255 570.264523,698.689804 C574.547995,698.629839 578.81571,698.566428 583.06307,698.500259 C589.532925,698.398939 593.70675,698.331392 597.86219,698.260399 C599.452406,698.233518 601.034743,698.205948 602.61905,698.177688 C605.763371,698.123237 608.895873,698.068786 612.015244,698.011578 C613.547025,697.984008 615.080776,697.957127 616.606648,697.929557 C620.588097,697.855806 624.550506,697.780678 628.487965,697.70417 C635.36949,697.569076 639.258362,697.490501 643.122942,697.411237 C644.682299,697.380221 646.233121,697.347826 647.784599,697.315431 C650.62624,697.256844 653.454093,697.196879 656.268158,697.136225 C657.952264,697.101073 659.639653,697.063853 661.312597,697.028701 C664.755001,696.953572 668.173768,696.879133 671.570212,696.801936 C672.98381,696.77092 674.392156,696.739903 675.797875,696.708197 C679.313159,696.628244 682.808745,696.54898 686.271503,696.469715 C687.708081,696.435942 689.132185,696.402858 690.558914,696.369084 C693.445859,696.303605 696.315733,696.235369 699.163283,696.167822 C700.461981,696.136805 701.766589,696.105789 703.056751,696.07684 C706.167587,696.001712 709.243624,695.927961 712.303903,695.854211 C715.119282,695.786664 717.906427,695.719117 720.676502,695.650881 C722.365204,695.610215 724.060471,695.56886 725.732102,695.528194 C728.391217,695.462714 731.029977,695.397924 733.646414,695.333135 C745.810057,695.033309 755.403878,694.794827 764.650374,694.568062 C769.52673,694.448821 772.808274,694.368178 776.043201,694.290292 C784.738833,694.07938 791.653843,693.914649 798.307538,693.763013 C803.028287,693.656178 805.516693,693.599659 807.966361,693.545897 C816.559567,693.35842 822.452296,693.239179 828.071891,693.133034 C832.365211,693.055837 834.459018,693.018618 836.51146,692.984844 C843.864403,692.864914 848.822831,692.798056 853.481862,692.750498 C857.079873,692.716724 858.762666,692.703628 860.402125,692.693289 C864.323169,692.671233 866.399905,692.663652 868.369619,692.663652 C875.917564,692.663652 883.869957,692.327985 892.081696,691.696627 C900.865309,691.022536 909.968015,689.969355 919.28739,688.528124 C927.130792,687.317104 935.104195,685.860019 943.175428,684.076228 C954.30497,681.554246 963.277675,679.177696 972.247754,676.428949 C979.823932,674.054467 984.721298,672.399566 989.601594,670.628871 C992.03813,669.743868 994.471384,668.842323 996.896759,667.900802 C998.830362,667.150203 1000.75937,666.380306 1002.68444,665.591109 C1005.42037,664.47176 1008.14186,663.300027 1010.85415,662.103481 C1018.6017,658.686157 1026.24025,654.955911 1033.71203,650.902405 C1036.50377,649.386734 1039.2791,647.842114 1042.02029,646.236151 C1046.29391,643.7314 1050.49268,641.101894 1054.62318,638.371756 C1056.89557,636.869181 1059.14433,635.332833 1061.36748,633.759264 C1065.35024,630.944348 1069.26078,628.029491 1073.06627,624.985742 C1075.43715,623.090292 1077.75616,621.134188 1080.05022,619.149135 C1084.87076,614.977076 1089.51404,610.606513 1093.95771,606.031241 C1095.42055,604.52522 1096.86173,602.995075 1098.28058,601.44563 C1101.79389,597.602347 1105.18508,593.639133 1108.40491,589.519458 C1113.07182,583.547067 1117.39337,577.263133 1121.36563,570.691779 C1125.09561,564.521572 1128.52029,558.101166 1131.56219,551.387136 C1133.35659,547.427369 1135.02494,543.371106 1136.55804,539.217657 C1144.22876,518.451795 1148.55294,495.258378 1148.58446,469.449239 C1148.59168,417.686908 1121.6125,383.057379 1090.19687,355.895233 Z" id="video-background"></path>
                </g>
            </g>
        </g>
    </g>
</svg>