<?xml version="1.0" encoding="UTF-8"?>
<svg width="1440px" height="544px" viewBox="0 0 1440 544" version="1.1" xmlns="http://www.w3.org/2000/svg" xmlns:xlink="http://www.w3.org/1999/xlink">
    <!-- Generator: Sketch 49.2 (51160) - http://www.bohemiancoding.com/sketch -->
    <title>white-bottom</title>
    <desc>Created with Sketch.</desc>
    <defs>
        <polygon id="path-1" points="0.0514578353 0.725 61.7146815 0.725 61.7146815 76.669727 0.0514578353 76.669727"></polygon>
        <polygon id="path-3" points="0.352456125 0.6681 31.6791 0.6681 31.6791 107 0.352456125 107"></polygon>
        <polygon id="path-5" points="1 0 1445 0 1444 401.013748 2.95585778e-12 401.013748"></polygon>
    </defs>
    <g id="Page-1" stroke="none" stroke-width="1" fill="none" fill-rule="evenodd">
        <g id="Desktop-HD" transform="translate(0.000000, -3846.000000)">
            <g id="white-bottom" transform="translate(-4.000000, 3845.000000)">
                <g id="girl-stading-" transform="translate(614.000000, 210.000000)">
                    <polygon id="Fill-1" fill="#5450F5" points="28.2996 132.3195 -0.0004 158.3395 2.4816 170.6575 17.0256 173.4845 10.5996 168.9595 9.4816 161.1665 44.8826 137.2835 36.6806 95.4265"></polygon>
                    <g id="Group-16" transform="translate(14.000000, 0.275000)">
                        <g id="Group-4">
                            <mask id="mask-2" fill="white">
                                <use xlink:href="#path-1"></use>
                            </mask>
                            <g id="Clip-3"></g>
                            <path d="M41.8169,59.2044 C52.4329,62.4724 59.2779,61.0894 61.3029,52.0394 C63.9709,40.1184 52.8519,39.5964 51.5249,35.9514 C50.1979,32.3064 54.4369,28.2844 51.6189,21.3714 C48.8009,14.4574 43.7729,17.4744 40.8389,10.1844 C37.9059,2.8934 29.5249,-2.0076 22.6799,2.3914 C15.8359,6.7904 14.7679,12.4464 19.3529,20.9934 C23.9379,29.5404 1.5879,34.6944 5.0799,42.3614 C8.5719,50.0284 6.0579,53.2964 2.1469,58.1984 C-1.7641,63.1004 -1.7641,78.8124 16.1149,76.4244 C33.9949,74.0364 31.7599,53.6734 31.7599,53.6734 L41.8169,59.2044 Z" id="Fill-2" fill="#F76381" mask="url(#mask-2)"></path>
                        </g>
                        <path d="M23.3139,42.3304 C23.8199,40.3964 24.5709,38.5214 25.6139,36.7054 C29.9439,29.1634 28.8269,22.7534 26.8709,18.1024 C24.9159,17.9764 23.3779,17.2234 23.3779,15.3374 C23.3779,13.4524 25.8929,14.0804 25.8929,14.0804 C25.8929,14.0804 24.1469,12.2584 24.7059,10.6234 C25.2639,8.9904 33.0299,5.9524 33.0299,5.9524 C34.9169,11.0434 39.8059,12.4264 39.8059,12.4264 C39.8059,12.4264 40.0939,12.9914 38.8769,13.7454 C40.6579,15.8184 42.7579,20.2494 35.8249,22.7944 C31.7409,24.2934 38.1019,31.4474 43.7239,39.9254 C37.3649,41.5054 30.0399,42.8574 23.3139,42.3304" id="Fill-5" fill="#FFFFFF"></path>
                        <g id="Group-9" transform="translate(19.000000, 74.000000)">
                            <mask id="mask-4" fill="white">
                                <use xlink:href="#path-3"></use>
                            </mask>
                            <g id="Clip-8"></g>
                            <path d="M28.2651,3.1751 C27.5061,18.5221 26.0381,45.8471 22.7501,63.1331 C18.2071,87.0151 17.7881,101.0921 17.7881,101.0921 L31.6791,107.0001 L5.3571,107.0001 C5.3571,107.0001 7.5911,82.6151 7.1721,74.9481 C6.7531,67.2811 -0.6499,22.0321 0.4671,14.6161 C1.0931,10.4631 3.2961,5.7171 4.6971,0.6681 C10.4881,1.7591 19.9141,3.2371 28.2651,3.1751" id="Fill-7" fill="#5450F5" mask="url(#mask-4)"></path>
                        </g>
                        <path d="M24.3569,62.3465 C22.5539,55.0955 21.7179,48.4235 23.3139,42.3305 C30.0399,42.8575 37.3649,41.5055 43.7239,39.9255 C47.6489,45.8445 51.2119,52.4085 50.6099,58.1435 C50.1909,61.1595 48.4099,61.9145 47.8859,66.0615 C47.7419,67.2075 47.5549,71.3195 47.2649,77.1755 C38.9149,77.2375 29.4879,75.7595 23.6969,74.6675 C24.7959,70.7015 25.4009,66.5485 24.3569,62.3465" id="Fill-10" fill="#84D0F1"></path>
                        <polygon id="Fill-12" fill="#FFFFFF" points="17.9756 58.1878 27.1746 60.0988 19.3526 71.0198 36.5716 89.6218 33.5186 95.1518 8.9916 72.5278"></polygon>
                        <polygon id="Fill-14" fill="#84D0F1" points="23.6391 49.1487 35.0161 49.1487 27.1741 60.0987 17.9751 58.1877"></polygon>
                    </g>
                </g>
                <g id="leaves-group-1" transform="translate(28.000000, 0.000000)" fill="#FFFFFF">
                    <g id="Group-131" transform="translate(0.000000, 0.280000)">
                        <path d="M48.8663,253.594 L47.4583,253.245 C60.7783,199.671 92.0393,153.88 120.2953,115.164 C138.3243,90.462 128.1993,65.798 119.2663,44.036 C112.8633,28.434 106.8153,13.699 111.5333,0.72 L112.8963,1.215 C108.3693,13.667 114.3143,28.151 120.6083,43.485 C129.6863,65.598 139.9733,90.661 121.4663,116.019 C93.2923,154.624 62.1233,200.276 48.8663,253.594" id="Fill-1"></path>
                        <path d="M113.8087,27.5374 C106.5967,16.2164 88.8577,21.1294 88.8577,21.1294 C88.8577,21.1294 101.7337,38.9754 113.8087,27.5374" id="Fill-3"></path>
                        <path d="M121.523,48.1282 C112.702,34.2822 91.006,40.2912 91.006,40.2912 C91.006,40.2912 106.753,62.1172 121.523,48.1282" id="Fill-5"></path>
                        <path d="M128.3521,70.8821 C118.1651,54.8911 93.1101,61.8311 93.1101,61.8311 C93.1101,61.8311 111.2961,87.0371 128.3521,70.8821" id="Fill-7"></path>
                        <path d="M127.9371,99.678 C121.2971,76.435 88.1561,75.814 88.1561,75.814 C88.1561,75.814 101.2241,113.225 127.9371,99.678" id="Fill-9"></path>
                        <path d="M117.0943,120.1668 C112.9923,101.4288 81.6723,104.0268 81.6723,104.0268 C81.6723,104.0268 90.5273,133.9648 117.0943,120.1668" id="Fill-11"></path>
                        <path d="M106.0372,136.1312 C103.3982,122.3802 79.0492,125.2072 79.0492,125.2072 C79.0492,125.2072 85.0492,147.1102 106.0372,136.1312" id="Fill-13"></path>
                        <path d="M95.0147,152.1981 C92.9817,140.9731 72.6607,143.5801 72.6607,143.5801 C72.6607,143.5801 77.3957,161.4381 95.0147,152.1981" id="Fill-15"></path>
                        <path d="M85.4029,166.7337 C83.3699,155.5087 63.0489,158.1157 63.0489,158.1157 C63.0489,158.1157 67.7839,175.9737 85.4029,166.7337" id="Fill-17"></path>
                        <path d="M117.6163,120.1194 C132.3283,103.3534 158.8383,112.7194 158.8383,112.7194 C158.8383,112.7194 133.2723,138.9974 117.6163,120.1194" id="Fill-19"></path>
                        <path d="M106.1197,136.2733 C114.9147,122.7063 140.6037,138.9213 140.6037,138.9213 C140.6037,138.9213 124.6107,159.5633 106.1197,136.2733" id="Fill-21"></path>
                        <path d="M86.589,167.4529 C90.504,160.0839 105.63,171.2849 105.63,171.2849 C105.63,171.2849 98.245,182.3229 86.589,167.4529" id="Fill-23"></path>
                        <path d="M129.2193,99.3734 C143.2783,84.6194 165.0913,89.7734 165.0913,89.7734 C165.0913,89.7734 140.9143,113.1214 129.2193,99.3734" id="Fill-25"></path>
                        <path d="M128.8228,70.535 C130.8918,52.301 156.5448,48.311 156.5448,48.311 C156.5448,48.311 151.3668,77.914 128.8228,70.535" id="Fill-27"></path>
                        <path d="M121.6876,47.91 C124.0416,32.906 142.3056,28.383 142.3056,28.383 C142.3056,28.383 137.2016,52.831 121.6876,47.91" id="Fill-29"></path>
                        <path d="M114.2686,27.1927 C116.2856,13.8837 132.7986,10.0077 132.7986,10.0077 C132.7986,10.0077 128.3646,31.6837 114.2686,27.1927" id="Fill-31"></path>
                        <path d="M94.8102,152.6136 C99.2392,143.9156 117.3572,157.6696 117.3572,157.6696 C117.3572,157.6696 108.9292,170.6606 94.8102,152.6136" id="Fill-33"></path>
                        <path d="M59.9469,138.3094 C55.2029,138.9564 50.8319,135.6364 50.1849,130.8924 C49.5369,126.1484 52.8579,121.7784 57.6009,121.1304 C58.9069,120.9524 60.1809,121.0834 61.3609,121.4534 C60.6349,117.3264 59.7089,113.3574 58.6969,109.5524 C57.7079,110.3224 56.5139,110.8544 55.1829,111.0364 C51.1599,111.5854 47.4539,108.7694 46.9049,104.7464 C46.3549,100.7234 49.1709,97.0164 53.1949,96.4674 C53.7459,96.3914 54.2909,96.3854 54.8229,96.4314 C53.7949,93.1324 52.8139,90.0004 51.9849,87.0424 C51.2849,87.6064 50.4309,87.9974 49.4759,88.1284 C46.6789,88.5104 44.1019,86.5524 43.7199,83.7554 C43.3389,80.9584 45.2959,78.3814 48.0929,77.9994 C48.7369,77.9124 49.3669,77.9534 49.9629,78.0944 C49.4349,74.5394 49.4069,71.3314 50.1619,68.4964 C42.3479,70.5674 35.6859,73.5904 30.0049,77.3464 C32.0259,77.8014 33.6499,79.4624 33.9469,81.6364 C34.3279,84.4334 32.3709,87.0104 29.5729,87.3924 C26.7769,87.7734 24.1999,85.8154 23.8179,83.0184 C23.7749,82.7054 23.7659,82.3964 23.7799,82.0914 C20.0339,85.3654 16.8259,89.0174 14.0959,92.9674 C18.0509,92.5224 21.6589,95.3084 22.1999,99.2724 C22.7489,103.2954 19.9329,107.0024 15.9099,107.5514 C12.6299,107.9994 9.5609,106.2094 8.2419,103.3524 C6.1409,107.9844 4.5089,112.8594 3.2759,117.8784 C4.1979,117.3614 5.2269,116.9984 6.3379,116.8474 C11.0809,116.1994 15.4519,119.5194 16.0999,124.2644 C16.7469,129.0074 13.4269,133.3784 8.6829,134.0264 C5.6509,134.4404 2.7769,133.2284 0.9239,131.0644 C-3.6621,169.9994 10.3199,211.7864 10.3199,211.7864 C10.3199,211.7864 15.3599,212.1074 22.4829,209.3864 C32.7969,205.4464 47.4809,195.1254 57.5659,168.1954 C61.6499,157.2894 63.0589,146.9724 62.9179,137.3264 C62.0189,137.8164 61.0219,138.1624 59.9469,138.3094" id="Fill-35"></path>
                        <path d="M164.6178,135.4969 C167.7048,123.1589 176.2378,128.0069 178.7328,122.1509 C181.2278,116.2949 172.6628,114.6669 174.4588,109.9769 C176.2558,105.2879 181.5918,109.1909 182.6168,106.0239 C183.6418,102.8569 177.5818,95.5019 181.8178,92.8359 C186.0538,90.1709 192.1758,93.1229 193.2928,89.9769 C194.4098,86.8319 186.6738,78.6619 195.4088,74.5179 C204.1438,70.3749 204.0718,81.9699 210.5688,80.9079 C217.0658,79.8459 214.3758,68.7279 222.9698,71.6349 C231.5638,74.5419 227.0158,82.6239 229.2298,85.2899 C231.4438,87.9549 239.4918,85.9329 239.2588,92.5679 C239.0258,99.2029 227.7758,100.3469 228.3908,105.7919 C229.0048,111.2379 239.1278,115.6979 236.8838,124.4479 C234.6398,133.1979 228.6498,128.8739 227.7578,135.8969 C226.8668,142.9209 236.4428,148.1989 231.3108,155.8919 C226.1788,163.5849 202.7258,165.9029 202.7258,165.9029 L167.4808,159.9899 L164.6178,135.4969 Z" id="Fill-37"></path>
                        <path d="M233.7569,93.4212 C229.1559,93.6662 219.7549,106.1722 212.6739,102.9272 C205.5919,99.6812 206.7069,85.3912 200.0429,80.5822" id="Fill-39"></path>
                        <path d="M230.3546,124.035 C217.1666,118.114 208.4006,127.225 200.2626,123.989 C192.1246,120.752 196.4266,108.884 187.2706,97.08" id="Fill-41"></path>
                        <path d="M224.7472,147.9134 C215.6052,143.3054 210.9842,149.4384 199.5282,146.5464 C188.0712,143.6554 196.0312,135.5594 179.4882,130.2204" id="Fill-43"></path>
                        <path d="M221.5265,80.1995 C219.1335,102.4825 203.5915,109.8135 200.9375,121.1175 C198.2825,132.4215 202.1045,147.5185 194.1985,163.0795" id="Fill-45"></path>
                        <path d="M1305.7423,454.9998 L1307.0443,454.6448 C1294.7393,399.9948 1265.8633,353.2828 1239.7623,313.7898 C1223.1083,288.5918 1232.4623,263.4328 1240.7123,241.2338 C1246.6273,225.3188 1252.2153,210.2878 1247.8563,197.0478 L1246.5963,197.5528 C1250.7783,210.2548 1245.2873,225.0298 1239.4723,240.6718 C1231.0883,263.2288 1221.5853,288.7948 1238.6803,314.6628 C1264.7063,354.0418 1293.4973,400.6108 1305.7423,454.9998" id="Fill-47"></path>
                        <path d="M1245.754,224.4041 C1252.416,212.8561 1268.802,217.8671 1268.802,217.8671 C1268.802,217.8671 1256.908,236.0711 1245.754,224.4041" id="Fill-49"></path>
                        <path d="M1238.6281,245.4085 C1246.7761,231.2835 1266.8171,237.4135 1266.8171,237.4135 C1266.8171,237.4135 1252.2711,259.6785 1238.6281,245.4085" id="Fill-51"></path>
                        <path d="M1232.3204,268.6189 C1241.7294,252.3069 1264.8744,259.3859 1264.8744,259.3859 C1264.8744,259.3859 1248.0754,285.0989 1232.3204,268.6189" id="Fill-53"></path>
                        <path d="M1232.7032,297.993 C1238.8372,274.284 1269.4492,273.65 1269.4492,273.65 C1269.4492,273.65 1257.3792,311.813 1232.7032,297.993" id="Fill-55"></path>
                        <path d="M1242.7189,318.8934 C1246.5079,299.7784 1275.4399,302.4294 1275.4399,302.4294 C1275.4399,302.4294 1267.2599,332.9684 1242.7189,318.8934" id="Fill-57"></path>
                        <path d="M1252.9327,335.178 C1255.3707,321.151 1277.8627,324.035 1277.8627,324.035 C1277.8627,324.035 1272.3207,346.378 1252.9327,335.178" id="Fill-59"></path>
                        <path d="M1263.1144,351.5682 C1264.9924,340.1182 1283.7634,342.7772 1283.7634,342.7772 C1283.7634,342.7772 1279.3894,360.9932 1263.1144,351.5682" id="Fill-61"></path>
                        <path d="M1271.9933,366.3953 C1273.8713,354.9453 1292.6413,357.6043 1292.6413,357.6043 C1292.6413,357.6043 1288.2673,375.8203 1271.9933,366.3953" id="Fill-63"></path>
                        <path d="M1242.2365,318.845 C1228.6465,301.742 1204.1605,311.296 1204.1605,311.296 C1204.1605,311.296 1227.7755,338.102 1242.2365,318.845" id="Fill-65"></path>
                        <path d="M1252.8566,335.3235 C1244.7326,321.4835 1221.0026,338.0245 1221.0026,338.0245 C1221.0026,338.0245 1235.7766,359.0805 1252.8566,335.3235" id="Fill-67"></path>
                        <path d="M1270.8976,367.1292 C1267.2816,359.6122 1253.3086,371.0372 1253.3086,371.0372 C1253.3086,371.0372 1260.1306,382.2972 1270.8976,367.1292" id="Fill-69"></path>
                        <path d="M1231.5187,297.6824 C1218.5337,282.6324 1198.3837,287.8904 1198.3837,287.8904 C1198.3837,287.8904 1220.7157,311.7064 1231.5187,297.6824" id="Fill-71"></path>
                        <path d="M1231.8849,268.2649 C1229.9739,249.6639 1206.2779,245.5949 1206.2779,245.5949 C1206.2779,245.5949 1211.0609,275.7929 1231.8849,268.2649" id="Fill-73"></path>
                        <path d="M1238.4767,245.1853 C1236.3007,229.8803 1219.4307,225.2663 1219.4307,225.2663 C1219.4307,225.2663 1224.1457,250.2053 1238.4767,245.1853" id="Fill-75"></path>
                        <path d="M1245.3292,224.052 C1243.4662,210.476 1228.2132,206.523 1228.2132,206.523 C1228.2132,206.523 1232.3082,228.634 1245.3292,224.052" id="Fill-77"></path>
                        <path d="M1263.3029,351.992 C1259.2119,343.118 1242.4759,357.149 1242.4759,357.149 C1242.4759,357.149 1250.2619,370.402 1263.3029,351.992" id="Fill-79"></path>
                        <path d="M1136.3458,413.2161 L1135.5328,413.5091 C1124.3858,382.5581 1124.7038,349.5191 1125.8788,320.9811 C1126.6278,302.7721 1113.4428,293.9071 1101.8098,286.0861 C1093.4698,280.4781 1085.5928,275.1821 1083.6308,267.1901 L1084.4708,266.9831 C1086.3528,274.6511 1094.0948,279.8571 1102.2918,285.3681 C1114.1138,293.3161 1127.5108,302.3251 1126.7418,321.0171 C1125.5718,349.4731 1125.2518,382.4121 1136.3458,413.2161" id="Fill-81"></path>
                        <path d="M1093.6407,279.7205 C1086.3187,276.5015 1079.1587,284.8105 1079.1587,284.8105 C1079.1587,284.8105 1091.4477,289.3865 1093.6407,279.7205" id="Fill-83"></path>
                        <path d="M1104.2823,287.366 C1095.3273,283.428 1086.5693,293.591 1086.5693,293.591 C1086.5693,293.591 1101.5993,299.188 1104.2823,287.366" id="Fill-85"></path>
                        <path d="M1115.2023,296.3758 C1104.8593,291.8288 1094.7463,303.5648 1094.7463,303.5648 C1094.7463,303.5648 1112.1043,310.0288 1115.2023,296.3758" id="Fill-87"></path>
                        <path d="M1124.5353,310.7781 C1113.5473,301.4641 1096.9243,312.1331 1096.9243,312.1331 C1096.9243,312.1331 1115.7893,326.3371 1124.5353,310.7781" id="Fill-89"></path>
                        <path d="M1125.9503,324.5193 C1117.7113,316.5953 1103.0563,328.2573 1103.0563,328.2573 C1103.0563,328.2573 1117.3593,340.1543 1125.9503,324.5193" id="Fill-91"></path>
                        <path d="M1125.7599,336.0901 C1119.8989,330.1521 1108.7729,339.6181 1108.7729,339.6181 C1108.7729,339.6181 1118.9989,348.4811 1125.7599,336.0901" id="Fill-93"></path>
                        <path d="M1125.6222,347.7005 C1120.8962,342.8135 1111.6932,350.8355 1111.6932,350.8355 C1111.6932,350.8355 1119.9542,358.1135 1125.6222,347.7005" id="Fill-95"></path>
                        <path d="M1125.6749,358.0848 C1120.9489,353.1978 1111.7459,361.2198 1111.7459,361.2198 C1111.7459,361.2198 1120.0069,368.4978 1125.6749,358.0848" id="Fill-97"></path>
                        <path d="M1126.1925,324.323 C1127.9275,311.144 1144.1625,307.003 1144.1625,307.003 C1144.1625,307.003 1140.2015,328.489 1126.1925,324.323" id="Fill-99"></path>
                        <path d="M1125.8478,336.1336 C1125.7108,326.4996 1143.8088,326.0236 1143.8088,326.0236 C1143.8088,326.0236 1142.7218,341.5466 1125.8478,336.1336" id="Fill-101"></path>
                        <path d="M1126.5001,358.0486 C1125.9991,353.1016 1137.2021,353.6396 1137.2021,353.6396 C1137.2021,353.6396 1137.1991,361.5536 1126.5001,358.0486" id="Fill-103"></path>
                        <path d="M1125.0695,310.2029 C1127.1465,298.2379 1139.6595,293.5659 1139.6595,293.5659 C1139.6595,293.5659 1135.4165,313.1399 1125.0695,310.2029" id="Fill-105"></path>
                        <path d="M1115.3204,296.0481 C1110.3054,286.3291 1121.6924,275.8561 1121.6924,275.8561 C1121.6924,275.8561 1128.9324,292.2361 1115.3204,296.0481" id="Fill-107"></path>
                        <path d="M1104.2921,287.2034 C1100.4881,278.9904 1108.0381,270.7004 1108.0381,270.7004 C1108.0381,270.7004 1113.6071,284.5024 1104.2921,287.2034" id="Fill-109"></path>
                        <path d="M1093.755,279.3973 C1090.346,272.1363 1097.242,264.7473 1097.242,264.7473 C1097.242,264.7473 1102.225,276.9543 1093.755,279.3973" id="Fill-111"></path>
                        <path d="M1125.6583,347.9739 C1124.9713,342.1979 1138.5023,343.0109 1138.5023,343.0109 C1138.5023,343.0109 1138.6303,352.2379 1125.6583,347.9739" id="Fill-113"></path>
                        <path d="M1336.9122,311.387 C1336.9782,313.131 1338.4462,314.491 1340.1902,314.425 C1341.9342,314.358 1343.2942,312.89 1343.2272,311.146 C1343.1612,309.403 1341.6932,308.042 1339.9502,308.109 C1338.2062,308.176 1336.8462,309.643 1336.9122,311.387" id="Fill-115"></path>
                        <path d="M1342.0148,338.4134 C1342.1288,341.3984 1344.6408,343.7254 1347.6248,343.6114 C1350.6098,343.4984 1352.9368,340.9864 1352.8238,338.0014 C1352.7088,335.0174 1350.1978,332.6894 1347.2128,332.8034 C1344.2288,332.9174 1341.9018,335.4294 1342.0148,338.4134" id="Fill-117"></path>
                        <path d="M1383.9386,324.6785 C1381.8236,328.2535 1378.0016,330.7185 1373.5426,330.8875 C1366.5656,331.1535 1360.6956,325.7145 1360.4296,318.7385 C1360.1646,311.7615 1365.6036,305.8915 1372.5806,305.6255 C1374.2126,305.5635 1375.7816,305.8245 1377.2366,306.3345 C1374.1996,299.4375 1370.6276,292.8475 1366.4436,286.7265 C1365.2676,291.1615 1361.3126,294.5065 1356.4896,294.6895 C1350.5736,294.9145 1345.5946,290.3015 1345.3696,284.3855 C1345.1466,278.5555 1349.6266,273.6455 1355.4176,273.2875 C1350.5016,268.3035 1344.9736,263.8665 1338.7696,260.1095 C1338.8656,260.5445 1338.9306,260.9905 1338.9486,261.4515 C1339.1046,265.5645 1335.8976,269.0255 1331.7846,269.1815 C1327.6716,269.3385 1324.2096,266.1315 1324.0536,262.0185 C1323.9316,258.8225 1325.8456,256.0275 1328.6326,254.8635 C1319.5276,250.9025 1309.1986,248.2405 1297.4556,247.2365 C1299.2526,251.1175 1300.0216,255.7315 1300.1596,260.9705 C1300.9796,260.6165 1301.8746,260.3985 1302.8206,260.3625 C1306.9336,260.2055 1310.3946,263.4125 1310.5516,267.5265 C1310.7086,271.6385 1307.5006,275.0995 1303.3876,275.2565 C1301.9836,275.3095 1300.6596,274.9635 1299.5116,274.3305 C1299.0656,278.7865 1298.4476,283.5315 1297.8016,288.5285 C1298.5546,288.3285 1299.3386,288.2005 1300.1506,288.1695 C1306.0666,287.9445 1311.0446,292.5575 1311.2706,298.4735 C1311.4966,304.3895 1306.8826,309.3675 1300.9656,309.5935 C1299.0096,309.6685 1297.1616,309.2045 1295.5476,308.3485 C1295.0516,314.0685 1294.7226,320.0015 1294.7206,326.1115 C1296.3216,325.2825 1298.1186,324.7725 1300.0386,324.6995 C1307.0146,324.4335 1312.8846,329.8735 1313.1506,336.8495 C1313.4166,343.8255 1307.9766,349.6965 1301.0006,349.9625 C1299.4196,350.0225 1297.9016,349.7765 1296.4866,349.2995 C1298.7146,363.1875 1303.3396,377.6485 1311.9546,392.2815 C1333.2256,428.4135 1356.9156,439.5345 1372.7216,442.5935 C1383.6366,444.7045 1390.7926,442.9725 1390.7926,442.9725 C1390.7926,442.9725 1400.3396,379.4375 1383.9386,324.6785" id="Fill-119"></path>
                        <path d="M1208.2941,346.1429 C1205.6211,335.3279 1199.7411,339.1999 1197.7411,334.0269 C1195.7401,328.8549 1201.7671,327.7749 1200.3081,323.6399 C1198.8491,319.5049 1195.2061,322.6829 1194.3551,319.8969 C1193.5031,317.1119 1197.5271,310.9709 1194.4121,308.4959 C1191.2971,306.0209 1187.0581,308.3439 1186.1421,305.5739 C1185.2261,302.8039 1190.4101,296.0209 1184.0391,292.0909 C1177.6671,288.1609 1178.1681,298.2149 1173.5071,297.0429 C1168.8461,295.8709 1170.3281,286.3369 1164.3301,288.5239 C1158.3321,290.7109 1161.8791,297.8939 1160.4081,300.1189 C1158.9371,302.3439 1153.1361,300.2789 1153.5591,306.0389 C1153.9811,311.7989 1162.0241,313.2269 1161.7981,317.9239 C1161.5721,322.6209 1154.5471,326.0939 1156.4811,333.7659 C1158.4161,341.4379 1162.5081,337.9219 1163.4141,344.0449 C1164.3201,350.1669 1157.7151,354.3719 1161.6621,361.2399 C1165.6091,368.1069 1182.3751,371.0239 1182.3751,371.0239 L1207.2071,367.2639 L1208.2941,346.1429 Z" id="Fill-121"></path>
                        <path d="M1157.504,306.992 C1160.785,307.383 1167.953,318.588 1172.863,316.049 C1177.773,313.509 1176.427,301.079 1180.979,297.168" id="Fill-123"></path>
                        <path d="M1161.1085,333.6614 C1170.2555,329.0384 1176.8415,337.2764 1182.5035,334.7864 C1188.1645,332.2964 1184.6465,321.8414 1190.6995,311.9644" id="Fill-125"></path>
                        <path d="M1166.0206,354.5774 C1172.3416,350.9374 1175.8656,356.4324 1183.8996,354.3694 C1191.9336,352.3064 1185.9596,344.9794 1197.5156,340.9924" id="Fill-127"></path>
                        <path d="M1165.6876,296.0042 C1168.2516,315.4132 1179.5866,322.3702 1181.9126,332.2722 C1184.2386,342.1732 1182.1056,355.1122 1188.3296,368.9072" id="Fill-129"></path>
                    </g>
                    <g id="Group-136" transform="translate(234.000000, 130.280000)">
                        <path d="M824.3058,203.5501 C824.1728,205.4241 824.7278,207.3091 825.4858,209.0081 C826.3068,210.8511 827.4978,212.4921 828.9898,213.8501 C829.1068,213.9571 829.2678,213.9451 829.3968,213.8741 C831.9568,212.4681 834.3878,210.8411 836.6638,209.0131 C835.3248,212.0891 833.0468,214.6941 830.1468,216.4171 C830.0278,216.4881 829.9608,216.6771 830.0158,216.8071 C830.9438,218.9951 832.0708,221.0871 833.4108,223.0501 C834.0478,223.9821 834.8038,224.8251 835.4628,225.7271 C835.7618,226.1351 837.4298,228.9041 837.8788,228.6061 C837.9648,228.5501 838.0498,228.4911 838.1348,228.4331 C838.2178,228.4391 838.2998,228.3831 838.3208,228.3081 C840.0518,227.1311 841.7008,225.8391 843.2718,224.4561 C843.0118,226.5171 842.0708,228.4561 840.6318,229.9631 C840.5258,230.0751 840.4988,230.3091 840.6048,230.4321 C841.7708,231.7961 842.8158,233.2551 843.7228,234.8031 C843.7998,234.9371 843.9948,234.9941 844.1368,234.9431 C847.0258,233.8961 849.6268,232.1531 851.7228,229.9081 C852.7558,228.8021 853.6598,227.5711 854.4098,226.2571 C855.0568,225.1291 855.6588,223.8871 855.9878,222.6101 C856.4928,223.2621 857.0368,223.8831 857.4788,224.5911 C858.0758,225.5461 858.5768,226.5611 858.9598,227.6201 C859.5948,229.3691 860.0988,231.1861 859.4938,233.0161 C859.4188,233.2421 859.3288,233.4681 859.3218,233.7061 C859.3168,233.8241 859.3418,233.9591 859.4408,234.0251 C859.4878,234.0561 859.5438,234.0681 859.5998,234.0771 C860.4808,234.2231 860.4778,233.7221 860.5588,233.0421 C860.6448,232.3151 860.6058,231.5781 860.5388,230.8511 C860.4318,229.6871 860.1598,228.5311 859.7708,227.4301 C859.3808,226.3251 858.8698,225.2581 858.2378,224.2711 C857.9088,223.7581 857.5398,223.2081 857.1238,222.7081 C857.1538,222.7101 857.1828,222.7131 857.2118,222.7151 C857.7838,222.7551 858.3568,222.7551 858.9288,222.7181 C860.0498,222.6471 861.1528,222.4201 862.2268,222.0941 C863.3618,221.7501 864.4588,221.2941 865.5228,220.7681 C866.0658,220.4991 866.6018,220.2161 867.1308,219.9191 C867.1558,219.9051 867.1788,219.8921 867.2028,219.8791 C867.4128,219.7621 867.6258,219.6501 867.8308,219.5241 C868.0298,219.4021 868.2348,219.2631 868.3928,219.0911 C868.4048,219.0791 868.4148,219.0661 868.4218,219.0511 C868.4278,219.0381 868.4298,219.0241 868.4318,219.0101 C868.4858,218.6611 868.4648,218.3221 868.4328,217.9721 C868.3858,217.4721 868.3188,216.9751 868.2348,216.4801 C868.1508,215.9841 868.0488,215.4911 867.9338,215.0011 C867.8178,214.5121 867.6878,214.0261 867.5468,213.5431 C867.4058,213.0631 867.2538,212.5871 867.0918,212.1131 C866.3258,209.8681 865.2878,207.7131 864.0498,205.6911 C863.9408,205.5131 863.6428,205.4891 863.5148,205.6591 C862.2328,207.3571 860.6388,208.7541 858.7798,209.7561 C859.5668,208.4781 860.3098,207.1711 860.9688,205.8231 C861.2998,205.1471 861.7258,204.4651 861.4818,203.6921 C861.2468,202.9481 860.7368,202.2401 860.3248,201.5881 C858.4968,198.6961 856.0778,196.1891 853.2958,194.2061 C852.9658,193.9701 852.5608,194.3411 852.6818,194.6271 C852.6678,194.6441 852.6558,194.6621 852.6458,194.6841 C851.9848,196.0731 851.1308,197.3551 850.1078,198.4941 C850.4828,197.1781 850.7568,195.8361 850.9198,194.4751 C851.0258,193.5951 851.0868,192.7101 851.1058,191.8241 C851.1118,191.5321 851.1838,191.1571 850.9998,190.9151 C850.8678,190.7391 850.5788,190.5921 850.4048,190.4581 C850.2058,190.3051 850.0088,190.1521 849.8108,190.0001 C846.7368,187.6381 843.6048,185.3511 840.3938,183.1801 C840.1198,182.9951 839.7168,183.1341 839.7338,183.5051 C839.7928,184.8221 839.7148,186.1341 839.4928,187.4281 C839.0638,186.0491 838.6508,184.6641 838.2318,183.2811 C838.0028,182.5271 837.7978,181.8151 837.0828,181.3831 C836.4348,180.9911 835.6278,180.8451 834.9098,180.6371 C832.9968,180.0841 831.0898,179.5111 829.1828,178.9401 C828.2158,178.6501 827.2488,178.3611 826.2828,178.0751 C825.7978,177.9331 825.3148,177.7911 824.8298,177.6501 C824.5648,177.5721 823.9928,177.2701 823.7408,177.4831 C823.5958,177.6051 823.5428,177.8011 823.4978,177.9841 C823.1858,179.2581 822.8728,180.5301 822.5618,181.8031 C822.2688,182.9981 821.9118,184.1831 821.8608,185.4191 C821.8178,186.4301 821.9588,187.4381 822.0928,188.4381 C822.3868,190.6231 822.6808,192.8081 822.9748,194.9941 C823.1218,196.0871 823.2378,197.1891 823.4198,198.2771 C823.5708,199.1781 824.0278,199.6391 824.8438,199.9951 C826.1678,200.5731 827.5778,201.0921 829.0008,201.0421 C828.7188,201.0521 828.2148,201.4541 827.9518,201.5821 C827.5738,201.7651 827.1918,201.9391 826.8048,202.1021 C826.0658,202.4161 825.2858,202.6391 824.5558,202.9681 C824.4828,203.0011 824.4048,203.0391 824.3668,203.1101 C824.3458,203.1491 824.3388,203.1941 824.3338,203.2381 C824.3228,203.3421 824.3138,203.4461 824.3058,203.5501" id="Fill-132"></path>
                        <path d="M46.5309,34.0438 C46.6069,34.7568 46.2629,35.4498 45.7689,35.9448 C45.2019,36.5128 44.4319,36.8778 43.6759,37.1238 C43.0249,37.3358 42.3169,37.4568 41.6349,37.3358 C40.4789,37.1318 39.8639,35.8708 40.3469,34.7938 C40.5979,34.2358 40.9789,33.7518 41.4409,33.3538 C42.4089,32.5178 43.9319,31.9758 45.1809,32.4468 C45.8639,32.7038 46.4519,33.2958 46.5309,34.0438 M30.0309,29.8628 C29.2839,29.7008 28.6649,29.1808 28.1689,28.6248 C27.0259,27.3448 26.3619,25.5058 26.5679,23.7868 C26.6839,22.8248 27.1019,21.8238 27.9719,21.3148 C28.1999,21.1808 28.4529,21.0928 28.7129,21.0498 C29.2649,21.1848 29.7679,21.4218 30.2159,21.8158 C30.8259,22.3528 31.2859,23.0538 31.6199,23.7908 C31.9619,24.5448 32.1689,25.3628 32.2319,26.1878 C32.2949,27.0288 32.2459,27.9498 31.9119,28.7348 C31.5799,29.5188 30.9079,30.0518 30.0309,29.8628 M47.5159,45.3088 C47.6649,45.4948 47.7769,45.7088 47.8479,45.9338 C47.8009,46.4428 47.6559,46.9228 47.3639,47.3728 C46.9649,47.9858 46.4009,48.4878 45.7879,48.8818 C45.1619,49.2848 44.4609,49.5758 43.7349,49.7398 C42.9939,49.9068 42.1679,49.9828 41.4249,49.7898 C40.6839,49.5958 40.1199,49.0678 40.1749,48.2618 C40.2209,47.5758 40.6029,46.9568 41.0329,46.4408 C42.0229,45.2558 43.5729,44.4238 45.1309,44.3828 C46.0029,44.3598 46.9489,44.6018 47.5159,45.3088 M22.5509,35.9108 C23.0139,36.6428 23.3679,37.4388 23.6019,38.2728 C23.8299,39.0848 23.9619,39.9508 23.9229,40.7958 C23.9039,41.2068 23.8009,41.6908 23.3739,41.8578 C23.0619,41.9808 22.6929,41.8838 22.3979,41.7578 C21.7129,41.4658 21.1249,40.8998 20.6409,40.3468 C20.1309,39.7638 19.7129,39.0898 19.4039,38.3798 C19.2029,37.9168 19.0499,37.4448 18.9389,36.9668 C18.8659,36.1578 18.6019,35.2368 18.9939,34.4738 C19.4169,33.6498 20.2629,33.6308 20.9629,34.1078 C21.6179,34.5538 22.1319,35.2488 22.5509,35.9108 M19.9959,52.3158 C20.6059,53.1108 21.2469,53.9348 21.6389,54.8658 C21.9689,55.6508 22.2549,57.0138 21.4339,57.6188 C21.0079,57.9328 20.4239,57.7488 19.9759,57.5748 C19.4739,57.3788 18.9869,57.1368 18.5199,56.8668 C17.5939,56.3328 16.7489,55.6758 15.9979,54.9248 C15.8769,54.7658 15.7629,54.6008 15.6569,54.4268 C15.1409,53.5778 14.7829,52.6398 14.6839,51.6468 C14.5939,50.7388 14.6619,49.3688 15.7069,49.0248 C16.4899,48.7678 17.3039,49.3428 17.8559,49.8378 C18.6629,50.5618 19.3389,51.4608 19.9959,52.3158 M59.8819,0.5468 C57.3329,1.0078 54.7539,1.5098 52.4009,2.6368 C51.2469,3.1898 50.1659,3.9068 49.2539,4.8078 C48.3199,5.7308 47.5849,6.8428 46.9999,8.0138 C46.3879,9.2408 45.9269,10.5368 45.4859,11.8328 C45.2679,12.4738 45.0549,13.1158 44.8329,13.7548 C44.6249,14.3518 44.4319,15.1138 43.9049,15.5168 C42.9629,16.2368 42.1529,14.9798 41.8969,14.2108 C41.5479,13.1568 41.6379,11.9078 41.7859,10.8238 C41.9879,9.3488 42.4719,7.9168 43.1949,6.6158 C43.5549,5.9658 43.9749,5.3498 44.4459,4.7748 C44.6529,4.5228 45.9029,3.5028 45.4759,3.1828 C45.2439,3.1778 45.0859,3.0648 44.8399,3.0728 C44.5399,3.0848 44.2399,3.1198 43.9439,3.1648 C43.3699,3.2518 42.8049,3.3898 42.2439,3.5408 C41.3039,3.7938 40.3749,4.1308 39.5309,4.6228 C38.7269,5.0908 38.0179,5.7118 37.4969,6.4868 C36.9509,7.2978 36.6839,8.2478 36.5289,9.2028 C36.3689,10.1868 36.3129,11.1878 36.0899,12.1608 C35.8789,13.0858 35.5029,14.0838 34.7349,14.6928 C34.1269,15.1758 33.2489,15.4198 32.4939,15.1798 C31.5389,14.8748 31.2789,13.8318 31.1939,12.9418 C30.9909,10.8138 31.6739,8.7298 32.3459,6.7408 C32.4199,6.5218 32.1669,6.3278 31.9679,6.3878 C27.7139,7.6598 25.0279,11.6298 23.9269,15.7418 C23.6369,16.8258 23.4399,17.9328 23.3069,19.0458 C23.2419,19.5868 23.1919,20.1298 23.1539,20.6738 C23.1149,21.2188 23.1179,21.7708 23.0579,22.3128 C23.0059,22.7868 22.8669,23.3478 22.3669,23.5288 C21.9839,23.6678 21.5409,23.5368 21.2149,23.3188 C20.3259,22.7248 20.2869,21.4378 20.2009,20.4818 C19.9419,17.6028 19.6679,14.7248 19.3209,11.8538 C19.3129,11.7888 19.2599,11.7558 19.2099,11.7548 C19.2469,11.6138 19.2779,11.4708 19.3019,11.3238 C19.3239,11.1798 19.1149,11.0818 19.0469,11.2308 C18.4289,12.5858 17.5349,13.7378 16.4819,14.7828 C15.4329,15.8228 14.2889,16.7728 13.3469,17.9158 C11.6109,20.0208 10.8579,22.7728 11.3239,25.4648 C11.7579,27.9688 13.0949,30.1898 13.7279,32.6348 C14.0189,33.7618 14.2279,35.0858 13.8119,36.2078 C13.6299,36.6968 13.3139,37.2338 12.8059,37.4378 C12.1499,37.7008 11.5489,37.2218 11.0889,36.8058 C9.9059,35.7368 8.9349,34.4328 8.2329,33.0018 C7.5109,31.5348 7.1299,29.9708 6.9089,28.3578 C6.8889,28.2148 6.6799,28.2148 6.6799,28.3658 C6.6799,28.3848 6.6799,28.4038 6.6799,28.4228 C6.5939,28.4258 6.5079,28.4728 6.4759,28.5778 C5.7449,30.9518 5.2319,33.3988 4.8879,35.8578 C4.7259,37.0158 4.5499,38.2018 4.6319,39.3728 C4.6999,40.3458 4.9959,41.2588 5.4449,42.1208 C6.3299,43.8178 7.7049,45.2278 8.4829,46.9848 C8.8529,47.8208 9.2439,49.0618 8.8019,49.9358 C8.3319,50.8678 7.2599,50.3668 6.6639,49.8768 C6.2069,49.5028 5.8269,49.0368 5.4459,48.5888 C4.9709,48.0308 4.5149,47.4568 4.0789,46.8678 C3.2249,45.7158 2.4489,44.5078 1.7489,43.2558 C1.6499,43.0768 1.3459,43.1238 1.3109,43.3278 C0.9899,45.1738 0.6759,47.0248 0.5519,48.8968 C0.4269,50.7948 0.5409,52.6818 0.9809,54.5348 C1.4399,56.4698 2.1159,58.3668 2.8169,60.2258 C3.5149,62.0788 4.3089,63.9018 5.2779,65.6318 C7.1119,68.9068 9.6489,71.8608 12.9579,73.7078 C15.9149,75.3578 19.3129,75.8968 22.6119,75.0838 C24.7699,74.5518 26.9049,73.4648 28.5679,71.9218 C28.5089,72.5148 28.4689,73.1098 28.4589,73.7038 C28.4369,75.0678 28.5449,76.4358 28.7729,77.7808 C28.9949,79.0878 29.3089,80.6258 30.1119,81.7108 C30.3289,82.0048 30.8149,81.8768 30.8019,81.4898 C30.7629,80.2298 30.3549,78.9618 30.1709,77.7158 C29.9759,76.3998 29.8909,75.0708 29.9279,73.7408 C29.9629,72.5258 30.0879,71.3218 30.3159,70.1288 C32.1229,70.5938 33.7369,71.5598 35.3589,72.4558 C36.8929,73.3018 38.4659,74.0268 40.1669,74.4688 C43.3159,75.2868 46.6669,75.2288 49.8159,74.4498 C52.9889,73.6638 55.9889,72.1408 58.4609,69.9968 C61.1539,67.6588 63.2249,64.6298 64.5799,61.3398 C65.9429,58.0338 66.6729,54.3938 66.5289,50.8128 C66.5109,50.3588 66.4629,49.9108 66.3959,49.4618 C66.3859,49.3958 66.3359,49.3618 66.2859,49.3608 C66.3209,49.1068 65.9219,48.9388 65.7619,49.2078 C64.4739,51.3908 62.6829,53.9638 59.8779,54.0168 C58.7839,54.0378 57.6279,53.6358 57.0119,52.6828 C56.3989,51.7328 56.4539,50.5258 56.8099,49.4918 C57.2509,48.2098 58.2039,47.1868 59.1409,46.2418 C60.0049,45.3728 60.8739,44.5228 61.6079,43.5378 C62.8589,41.8578 63.8209,39.9328 64.2629,37.8778 C64.7469,35.6338 64.5459,33.2698 63.3969,31.2538 C63.2569,31.0068 62.9269,31.1128 62.8499,31.3438 C62.4199,32.6298 61.7929,33.8578 60.9929,34.9548 C60.2349,35.9958 59.3179,37.0238 58.1949,37.6778 C57.1809,38.2698 55.8969,38.4938 54.8269,37.9028 C53.8429,37.3578 53.5309,36.2158 53.7159,35.1608 C53.9369,33.8968 54.7799,32.8878 55.6279,31.9738 C56.5199,31.0108 57.4119,30.0588 58.1979,29.0038 C59.6689,27.0328 60.8429,24.7608 61.0809,22.2808 C61.3149,19.8428 60.6659,17.2778 58.9029,15.5118 C58.7679,15.3768 58.5179,15.4208 58.4349,15.5908 C57.8119,16.8608 57.1319,18.1018 56.3919,19.3068 C55.7039,20.4258 54.9959,21.6518 53.9509,22.4808 C53.0899,23.1628 51.8599,23.5398 50.8159,23.0348 C49.8019,22.5448 49.5889,21.3818 49.8759,20.3788 C50.2379,19.1188 51.3439,18.2328 52.3029,17.4188 C53.3579,16.5248 54.3829,15.5938 55.3369,14.5918 C57.1189,12.7208 58.6789,10.5818 59.6079,8.1558 C60.5099,5.7998 60.8379,3.2258 60.2579,0.7498 C60.2179,0.5788 60.0349,0.5188 59.8819,0.5468" id="Fill-134"></path>
                    </g>
                </g>
                <g id="section-5" transform="translate(0.000000, 143.000000)">
                    <mask id="mask-6" fill="white">
                        <use xlink:href="#path-5"></use>
                    </mask>
                    <g id="Clip-2"></g>
                    <path d="M1444.99596,335.329212 L1444.99596,349.399143 L1444.99596,335.329212 L1444.99596,298.233736 C1215.36519,125.072978 978.155129,248.885337 705.653587,248.885337 C401.617342,248.885337 256.788675,-141.509491 1,55.5827882 L1,97.2000562 L1,2025 L1445,2025 L1445,298.236769 C1444.99798,298.235758 1444.99697,298.234747 1444.99596,298.233736 L1444.99596,335.329212 Z" id="Fill-1" fill="#FFFFFF" mask="url(#mask-6)"></path>
                </g>
            </g>
        </g>
    </g>
</svg>