<?xml version="1.0" encoding="UTF-8"?>
<svg width="575px" height="335px" viewBox="0 0 575 335" version="1.1" xmlns="http://www.w3.org/2000/svg" xmlns:xlink="http://www.w3.org/1999/xlink">
    <!-- Generator: Sketch 49.2 (51160) - http://www.bohemiancoding.com/sketch -->
    <title>woman</title>
    <desc>Created with Sketch.</desc>
    <defs>
        <polygon id="path-1" points="0.708880597 0.0919974441 1.78164179 0.0919974441 1.78164179 1.07348243 0.708880597 1.07348243"></polygon>
        <polygon id="path-3" points="0.213801306 0.981377636 1.2865625 0.981377636 1.2865625 1.07348243 0.213801306 1.07348243"></polygon>
        <polygon id="path-5" points="0 333.767642 575 333.767642 575 0.0734824281 0 0.0734824281"></polygon>
    </defs>
    <g id="Page-1" stroke="none" stroke-width="1" fill="none" fill-rule="evenodd">
        <g id="Desktop-HD" transform="translate(-129.000000, -1482.000000)">
            <g id="woman" transform="translate(129.000000, 1482.000000)">
                <path d="M545.771227,169.771088 C533.44091,159.612723 519.748186,151.644263 510.138391,143.667215 C497.849911,133.479867 492.216842,123.292519 504.592215,108.538576 C529.035079,79.270078 499.622113,17.8947936 423.850844,17.8947936 C419.750751,17.8947936 415.525145,18.0740652 411.155788,18.4487105 C309.514883,31.3916882 296.843428,-35.7149188 205.448465,27.9715732 C203.572206,29.2833687 202.189417,30.2656051 200.7841,31.282193 C199.394874,32.2826786 198.409007,32.98903 197.438158,33.6717649 C197.032654,33.9573112 196.638951,34.2256818 196.237738,34.5058607 C195.553316,34.9814134 194.865676,35.463407 194.193055,35.921784 C193.733913,36.2363144 193.286572,36.531522 192.831721,36.8374645 C192.229902,37.2432409 191.622719,37.6565316 191.029482,38.0483527 C190.575704,38.3489278 190.133727,38.6312537 189.685312,38.9232409 C189.103876,39.3021802 188.517076,39.6886339 187.943148,40.0546914 C187.507607,40.3337968 187.082794,40.5957265 186.651544,40.8673176 C186.077617,41.2280077 185.500471,41.5951387 184.936199,41.942947 C184.515676,42.2016562 184.104809,42.4464102 183.688577,42.6976051 C183.126451,43.0389725 182.560033,43.3857073 182.005415,43.714193 C180.245014,44.7393687 179.691469,45.0657073 179.147579,45.3748703 C177.432234,46.3334901 176.892635,46.6362121 176.363764,46.9249789 C174.681674,47.8234837 174.15924,48.1047361 173.645387,48.3720332 C172.008354,49.2050556 171.494501,49.4691323 170.990303,49.7181802 C169.401544,50.4867936 168.895201,50.7336946 168.398512,50.9666403 C166.847299,51.6772856 166.354902,51.9048639 165.870014,52.1184869 C164.346693,52.7776051 163.866096,52.9858607 163.394081,53.182308 C161.90938,53.7856051 161.43951,53.976685 160.976077,54.1581035 C159.517122,54.7120204 159.059053,54.8859246 158.608493,55.0501674 C157.180648,55.5536307 156.732234,55.7125061 156.289184,55.8627936 C154.887085,56.3200971 154.449398,56.4639438 154.018148,56.5981291 C152.638577,57.0124933 152.211618,57.1402377 151.787878,57.2604677 C150.431908,57.6329661 150.013531,57.7467553 149.600518,57.8541035 C148.26493,58.1858096 147.856208,58.2867169 147.451777,58.3811834 C146.129062,58.6763911 145.733214,58.7644166 145.33951,58.8460013 C144.030742,59.105784 143.642402,59.1820013 143.257281,59.2528511 C141.961385,59.4793559 141.582701,59.5437649 141.206161,59.6038799 C139.923139,59.7992537 139.551964,59.8529278 139.182934,59.9033815 C137.905275,60.0686978 137.543755,60.113784 137.183307,60.1556498 C135.915303,60.2930556 135.560219,60.329554 135.207281,60.3628319 C133.939277,60.4744741 133.592775,60.5034581 133.246273,60.5302952 C131.985779,60.6172473 131.644641,60.6397904 131.304576,60.6591131 C130.044081,60.7245955 129.711525,60.7406978 129.378969,60.754653 C128.110965,60.8008128 127.783773,60.8115476 127.456581,60.8201355 C126.191796,60.848046 125.864604,60.8534134 125.537411,60.8587808 C124.280135,60.8716626 123.954016,60.8738096 123.630042,60.8738096 C121.368661,60.8716626 119.757374,60.8523399 118.140723,60.8201355 C116.203316,60.7804166 114.580229,60.7374773 112.942122,60.694538 C111.273979,60.6505252 109.588671,60.6075859 107.884053,60.574308 C105.852243,60.5356626 104.143335,60.514193 102.403316,60.5131195 C101.224352,60.5152665 100.654715,60.5184869 100.082934,60.5249278 C98.6250513,60.5442505 97.9792491,60.5582058 97.3313013,60.574308 C95.9764039,60.6108064 95.1546688,60.6408639 94.3243517,60.6784358 C92.9952006,60.7439182 92.3805084,60.7771962 91.7593797,60.8158415 C90.2414226,60.9167489 89.6235121,60.9629086 89.0013106,61.0133623 C87.3170756,61.155062 86.4352659,61.2377201 85.5395103,61.3332601 C84.2908162,61.4738863 83.54632,61.5619118 82.7932416,61.6574518 C81.1894636,61.8710748 80.5425886,61.9633942 79.8892771,62.0600077 C78.0977659,62.3348192 77.2781763,62.4711514 76.4500047,62.617145 C75.0103591,62.8694134 74.0191278,63.0604933 73.0182416,63.262308 C71.3522435,63.6090428 70.6195476,63.7668447 69.8771968,63.9332345 C68.0223927,64.359407 67.2274767,64.5526339 66.4250513,64.7523016 C64.4865718,65.2407361 63.3923554,65.5327233 62.2820476,65.8418863 C60.6600326,66.3045572 59.7632043,66.5664869 58.8556483,66.8402249 C56.8817677,67.447816 56.0407229,67.7151131 55.1910961,67.9920716 C52.8910961,68.7499502 51.6767304,69.1632409 50.438764,69.6033687 C47.4414692,70.6682633 44.5332136,71.9092089 41.7268703,73.3079565 C40.3247715,74.0067936 38.9473461,74.744276 37.5967397,75.5204038 C36.9219729,75.907931 36.2536427,76.3051195 35.5928218,76.7098224 C32.94632,78.3340013 30.4135308,80.0998799 28.0030364,81.9902824 C24.3889039,84.826423 21.0536894,87.9427425 18.0413759,91.2748319 C15.5311147,94.051931 13.2450606,96.9793176 11.2068144,100.020493 C10.7991651,100.629158 10.4011707,101.242116 10.0139039,101.859369 C2.26427705,114.199049 -1.42816698,128.241273 0.522112873,141.640481 C0.71735541,142.980187 0.969454291,144.313452 1.27840951,145.638129 C1.54123601,146.762065 1.85448228,147.877413 2.2020569,148.987394 C2.55070429,150.102742 2.94440765,151.209503 3.38102146,152.308749 C4.87430504,156.071305 6.88465951,159.724365 9.45499534,163.211036 C9.98601213,163.931343 10.5438479,164.643062 11.123139,165.34834 C12.345014,166.83726 13.6623647,168.296123 15.103083,169.712046 C16.7604991,171.330858 18.4522435,172.806896 20.2716465,174.234627 C22.3903498,175.895305 24.680695,177.4905 27.1662826,179.003036 C27.6533162,179.300391 28.1017304,179.590231 28.5758909,179.884365 C30.2011241,180.894512 31.751264,181.890704 33.2220196,182.874014 C39.8806483,187.324672 44.976264,191.512327 48.6429618,195.458449 C49.598792,196.487918 50.4891838,197.50558 51.2540625,198.502845 C52.2603125,199.81464 53.1013573,201.098525 53.7825606,202.355573 C55.1460401,204.869669 55.8712267,207.27427 55.999958,209.574742 C56.0965065,211.299829 55.8583535,212.966947 55.3026632,214.578244 C52.7097994,222.096915 43.2104991,228.402551 28.6316744,233.749567 C26.4496782,234.549311 24.3717397,235.471433 22.4064412,236.500902 C21.0965998,237.187931 19.8350326,237.923266 18.6260308,238.703688 C13.7910961,241.823228 9.78540578,245.659854 6.7441278,249.976327 C5.22295243,252.1351 3.94314832,254.414104 2.9208069,256.784353 C0.876124067,261.523778 -0.1365625,266.627113 0.0146968284,271.86034 C0.0533162313,273.168915 0.163810634,274.485004 0.349398321,275.806461 C0.689463619,278.220723 1.29342817,280.650014 2.14627332,283.072864 C2.46059235,283.961707 2.7963666,284.851624 3.18148787,285.738321 C3.75541511,287.058704 4.40872668,288.37372 5.14571362,289.681222 C6.61754198,292.295151 8.41978078,294.87473 10.5674487,297.393119 C11.6412826,298.651241 12.8009375,299.895407 14.0496315,301.118104 C28.3409562,315.122755 54.248139,326.583254 94.8939879,330.025912 C111.369195,332.090772 249.070544,338.387571 415.87151,330.025912 C425.200412,329.558258 450.629385,330.999497 460.209939,328.503714 C464.137318,327.925107 468.12799,327.230564 472.169081,326.379292 C477.741003,325.174845 482.232654,324.041247 486.723232,322.729452 C490.515443,321.595854 492.967775,320.806845 495.411525,319.962014 C496.630182,319.539062 497.848839,319.108596 499.063204,318.65988 C500.030835,318.301337 500.997393,317.934206 501.95966,317.558487 C503.329576,317.023893 504.691982,316.464608 506.050098,315.892442 C509.929202,314.262896 513.752523,312.483062 517.493242,310.547573 C518.889977,309.825119 520.280275,309.087637 521.652337,308.321171 C523.792495,307.126385 525.894035,305.871484 527.961245,304.568276 C529.099445,303.85119 530.225844,303.118001 531.338298,302.367637 C533.331488,301.023637 535.289277,299.633477 537.194501,298.179982 C538.380975,297.27611 539.542775,296.343254 540.691702,295.395369 C543.104342,293.405132 545.429016,291.319356 547.65285,289.135893 C548.385546,288.416659 549.106441,287.687765 549.816609,286.947062 C551.575937,285.113554 553.274118,283.222078 554.885406,281.256532 C557.22188,278.406436 559.384566,275.408199 561.374538,272.272557 C563.241143,269.327995 564.956488,266.263203 566.478736,263.059931 C567.376637,261.169528 568.212318,259.23404 568.980415,257.252391 C572.819827,247.343075 574.983587,236.275471 574.999678,223.958334 C575.003969,199.257503 561.497906,182.733388 545.771227,169.771088 Z" id="woman-bg" fill="#3431B0"></path>
                <g>
                    <path d="M101.019883,330.483001 C103.189007,330.619333 105.379585,330.749224 107.579818,330.875895 C108.257803,330.914541 108.940079,330.952112 109.621283,330.990758 C111.270117,331.083077 112.928605,331.172176 114.593531,331.259128 C115.274734,331.294553 115.954865,331.331052 116.638214,331.365403 C117.45673,331.406196 118.285975,331.444841 119.106637,331.485633 C107.944557,323.895039 100.678745,312.918681 96.861861,300.527473 C88.5436707,275.848112 92.4989412,247.276304 109.929165,227.295576 C110.635042,226.487243 111.630564,225.445965 112.729072,224.335985 C116.12007,220.390937 119.901553,216.860253 124.091758,213.926426 C136.758923,205.060534 154.746982,199.668432 170.070303,195.76525 C182.70743,192.548023 195.417505,187.552036 203.773242,177.917531 C216.720396,162.989684 205.950947,142.487243 217.137701,127.760138 C224.987094,117.425723 239.629212,115.191806 251.353419,110.296726 C259.939799,106.711295 261.35048,96.1460805 264.893811,89.0718313 C271.763773,75.3548728 280.573288,65.9372115 292.394044,59.983678 C296.352533,57.7765981 300.567411,56.2307834 304.930331,55.2506939 C309.762048,53.9442658 314.981031,53.0038952 320.681684,52.4467578 C330.089799,51.5267834 340.179118,52.10217 348.511255,55.3215438 C383.492924,64.4450709 368.980611,100.277914 368.980611,100.277914 C368.606217,99.9462083 368.282243,99.5168153 367.980798,99.04663 L367.980798,115.429045 C367.980798,115.429045 374.347635,132.721774 374.550387,132.645557 C374.343344,132.714259 369.200527,135.463448 366.384529,137.247576 C366.353419,138.066643 367.083969,145.309429 367.083969,145.309429 C367.304958,145.586387 367.42618,145.952445 367.384342,146.435512 C367.307104,147.258873 366.76965,147.651767 366.044464,147.802055 C366.604445,148.306592 367.021749,148.975371 367.023895,149.648445 C367.031404,150.411691 366.659156,150.876509 366.134576,151.116969 L364.878372,153.002004 C364.707803,153.865084 364.35701,162.612892 362.906637,165.246144 C358.806544,172.695039 348.706497,172.185135 339.001227,171.81693 L338.723382,171.8384 L324.309762,228.809186 C324.309762,228.809186 329.097495,229.307282 336.735555,230.294886 L350.675014,174.787256 L350.970023,174.764713 C360.674221,175.114668 370.776413,175.60847 374.863633,168.150988 C376.309715,165.515588 376.398755,162.104061 376.26466,158.445633 C377.524081,153.275742 378.129118,147.339384 378.347962,141.451333 C379.242645,139.998911 380.470956,138.66994 382.134809,137.512726 C382.134809,137.512726 386.806684,135.264854 386.780937,135.177902 C386.982617,135.105978 387.180005,135.034055 387.387048,134.965352 C386.709062,135.220841 385.473242,130.674643 384.291059,125.527295 L384.368298,125.454298 L384.241712,125.319039 C382.865359,119.293582 381.572682,112.524202 381.339893,111.686886 C380.432337,108.40847 380.183456,105.367295 380.213493,102.515052 C380.405518,102.755512 380.605051,102.978796 380.821749,103.172023 C380.705891,103.068969 382.859995,95.7660677 382.946889,95.2668984 C383.93812,89.5022978 384.135508,83.3050837 382.544604,77.6274351 C373.582757,45.6430262 329.615639,47.4003169 303.684855,50.3695693 C292.824221,51.6137355 280.030471,54.4155246 270.20076,59.249416 C258.090359,65.20617 249.136021,74.7472818 242.175947,88.7036268 C238.644417,95.7853904 237.251973,106.352751 228.673102,109.953212 C216.956404,114.868688 202.31965,117.128368 194.487421,127.476739 C183.327486,142.223167 194.132337,162.707358 181.212001,177.658822 C172.873428,187.307282 160.171936,192.324739 147.540173,195.564509 C133.018204,199.29164 118.228046,203.602745 105.298055,211.394081 C100.569324,214.244176 96.4209562,217.939103 92.2800979,221.559959 C88.4514132,224.908151 84.8801912,228.567652 81.8614412,232.672649 C76.5577099,239.883231 73.2847155,248.254247 71.512514,256.990247 C70.0342491,264.273825 69.4431576,271.769953 69.6780924,279.197378 C69.8540252,284.776266 70.5373741,290.343346 71.7753405,295.788049 C72.303139,298.112138 72.9178312,300.423346 73.7202565,302.667997 C73.7642397,302.790374 73.7953498,302.939588 73.8586427,303.053378 C75.4742211,305.922796 77.1477285,308.617237 78.870583,311.144215 C82.6874674,318.449263 88.0040718,324.908406 94.894417,330.025697 C96.8693703,330.19316 98.8689972,330.347742 100.91368,330.47656 C100.949081,330.478707 100.984482,330.480854 101.019883,330.483001" id="Fill-4" fill="#3431B0"></path>
                    <path d="M101.019883,330.483001 C103.189007,330.619333 105.379585,330.749224 107.579818,330.875895 C108.257803,330.914541 108.940079,330.952112 109.621283,330.990758 C111.270117,331.083077 112.928605,331.172176 114.593531,331.259128 C115.274734,331.294553 115.954865,331.331052 116.638214,331.365403 C117.45673,331.406196 118.285975,331.444841 119.106637,331.485633 C107.944557,323.895039 100.678745,312.918681 96.861861,300.527473 C88.5436707,275.848112 92.4989412,247.276304 109.929165,227.295576 C110.635042,226.487243 111.630564,225.445965 112.729072,224.335985 C116.12007,220.390937 119.901553,216.860253 124.091758,213.926426 C136.758923,205.060534 154.746982,199.668432 170.070303,195.76525 C182.70743,192.548023 195.417505,187.552036 203.773242,177.917531 C216.720396,162.989684 205.950947,142.487243 217.137701,127.760138 C224.987094,117.425723 239.629212,115.191806 251.353419,110.296726 C259.939799,106.711295 261.35048,96.1460805 264.893811,89.0718313 C271.763773,75.3548728 280.573288,65.9372115 292.394044,59.983678 C296.352533,57.7765981 300.567411,56.2307834 304.930331,55.2506939 C309.762048,53.9442658 314.981031,53.0038952 320.681684,52.4467578 C330.089799,51.5267834 340.179118,52.10217 348.511255,55.3215438 C383.492924,64.4450709 368.980611,100.277914 368.980611,100.277914 C368.606217,99.9462083 368.282243,99.5168153 367.980798,99.04663 L367.980798,115.429045 C367.980798,115.429045 374.347635,132.721774 374.550387,132.645557 C374.343344,132.714259 369.200527,135.463448 366.384529,137.247576 C366.353419,138.066643 367.083969,145.309429 367.083969,145.309429 C367.304958,145.586387 367.42618,145.952445 367.384342,146.435512 C367.307104,147.258873 366.76965,147.651767 366.044464,147.802055 C366.604445,148.306592 367.021749,148.975371 367.023895,149.648445 C367.031404,150.411691 366.659156,150.876509 366.134576,151.116969 L364.878372,153.002004 C364.707803,153.865084 364.35701,162.612892 362.906637,165.246144 C358.806544,172.695039 348.706497,172.185135 339.001227,171.81693 L338.723382,171.8384 L324.309762,228.809186 C324.309762,228.809186 329.097495,229.307282 336.735555,230.294886 L350.675014,174.787256 L350.970023,174.764713 C360.674221,175.114668 370.776413,175.60847 374.863633,168.150988 C376.309715,165.515588 376.398755,162.104061 376.26466,158.445633 C377.524081,153.275742 378.129118,147.339384 378.347962,141.451333 C379.242645,139.998911 380.470956,138.66994 382.134809,137.512726 C382.134809,137.512726 386.806684,135.264854 386.780937,135.177902 C386.982617,135.105978 387.180005,135.034055 387.387048,134.965352 C386.709062,135.220841 385.473242,130.674643 384.291059,125.527295 L384.368298,125.454298 L384.241712,125.319039 C382.865359,119.293582 381.572682,112.524202 381.339893,111.686886 C380.432337,108.40847 380.183456,105.367295 380.213493,102.515052 C380.405518,102.755512 380.605051,102.978796 380.821749,103.172023 C380.705891,103.068969 382.859995,95.7660677 382.946889,95.2668984 C383.93812,89.5022978 384.135508,83.3050837 382.544604,77.6274351 C373.582757,45.6430262 329.615639,47.4003169 303.684855,50.3695693 C292.824221,51.6137355 280.030471,54.4155246 270.20076,59.249416 C258.090359,65.20617 249.136021,74.7472818 242.175947,88.7036268 C238.644417,95.7853904 237.251973,106.352751 228.673102,109.953212 C216.956404,114.868688 202.31965,117.128368 194.487421,127.476739 C183.327486,142.223167 194.132337,162.707358 181.212001,177.658822 C172.873428,187.307282 160.171936,192.324739 147.540173,195.564509 C133.018204,199.29164 118.228046,203.602745 105.298055,211.394081 C100.569324,214.244176 96.4209562,217.939103 92.2800979,221.559959 C88.4514132,224.908151 84.8801912,228.567652 81.8614412,232.672649 C76.5577099,239.883231 73.2847155,248.254247 71.512514,256.990247 C70.0342491,264.273825 69.4431576,271.769953 69.6780924,279.197378 C69.8540252,284.776266 70.5373741,290.343346 71.7753405,295.788049 C72.303139,298.112138 72.9178312,300.423346 73.7202565,302.667997 C73.7642397,302.790374 73.7953498,302.939588 73.8586427,303.053378 C75.4742211,305.922796 77.1477285,308.617237 78.870583,311.144215 C82.6874674,318.449263 88.0040718,324.908406 94.894417,330.025697 C96.8693703,330.19316 98.8689972,330.347742 100.91368,330.47656 C100.949081,330.478707 100.984482,330.480854 101.019883,330.483001" id="Fill-6" fill="#000000"></path>
                    <path d="M451.926399,261.317776 C443.070756,250.614083 410.65084,242.749751 382.415765,237.748396 C407.169729,242.780882 432.098554,249.916319 439.678685,259.11177 C439.678685,259.11177 455.951399,273.946224 446.590485,330.015284 C450.987733,329.69324 455.544823,329.19085 460.210261,328.503821 C467.126353,277.420013 451.926399,261.317776 451.926399,261.317776" id="Fill-8" fill="#3431B0"></path>
                    <path d="M451.926399,261.317776 C443.070756,250.614083 410.65084,242.749751 382.415765,237.748396 C407.169729,242.780882 432.098554,249.916319 439.678685,259.11177 C439.678685,259.11177 455.951399,273.946224 446.590485,330.015284 C450.987733,329.69324 455.544823,329.19085 460.210261,328.503821 C467.126353,277.420013 451.926399,261.317776 451.926399,261.317776" id="Fill-10" fill="#000000"></path>
                    <path d="M356.219151,233.649948 C356.29639,233.469603 356.392938,233.297845 356.468032,233.116427 C348.921157,231.932376 342.120924,230.992005 336.735662,230.295315 L336.503946,231.21851 C336.503946,231.21851 344.454179,232.031136 356.219151,233.649948" id="Fill-12" fill="#F5A396"></path>
                    <path d="M292.394044,59.9832486 C296.23882,58.0466863 300.404352,56.475108 304.930331,55.251338 C300.567411,56.230354 296.352533,57.7761687 292.394044,59.9832486" id="Fill-14" fill="#F5A396"></path>
                    <path d="M345.201357,137.675466 C347.826404,137.281498 350.2959,139.486431 350.711059,142.608118 C351.132654,145.724437 349.347579,148.57668 346.725751,148.969574 C344.099632,149.37213 341.622626,147.16505 341.201031,144.047658 C340.785872,140.925971 342.574165,138.071581 345.201357,137.675466 Z M349.469874,119.2953 C349.699445,119.376884 349.978363,119.469204 350.274445,119.590507 C350.559799,119.73006 350.936339,119.783734 351.293568,119.908258 C351.658307,120.017753 352.027337,120.171261 352.446786,120.231376 C352.859799,120.301153 353.256721,120.464322 353.699771,120.486865 C354.136385,120.534098 354.564417,120.636079 355.017122,120.630712 C355.242402,120.644667 355.466609,120.650035 355.689743,120.677945 L356.373092,120.648961 C356.829016,120.679019 357.287085,120.573817 357.744081,120.557715 C358.197859,120.486865 358.654855,120.432118 359.098979,120.347312 C359.542029,120.252846 359.982934,120.184143 360.398092,120.071427 C360.821833,119.985549 361.215536,119.868539 361.596367,119.778367 C363.174398,119.346827 364.226777,119.059134 364.226777,119.059134 C364.226777,119.059134 364.113064,119.335019 363.821273,119.748309 C363.539137,120.172335 363.076777,120.727325 362.425611,121.299491 C361.770154,121.864143 360.9216,122.44275 359.900331,122.880731 C359.654669,123.010622 359.378969,123.083619 359.107561,123.177012 C358.831861,123.261817 358.55938,123.370239 358.266516,123.421766 C357.681861,123.528041 357.089697,123.659006 356.473932,123.652565 L355.558867,123.653638 C355.254202,123.621434 354.952757,123.568833 354.654529,123.523747 C354.051637,123.465779 353.492729,123.23498 352.957421,123.046047 C352.410312,122.882878 351.957607,122.543658 351.514557,122.292463 C351.063997,122.044488 350.716423,121.6999 350.394594,121.399325 C350.084566,121.081574 349.776684,120.83682 349.585732,120.525511 C349.378689,120.234597 349.218848,119.9673 349.086898,119.753677 C348.825145,119.322137 348.710359,119.059134 348.710359,119.059134 C348.710359,119.059134 349.008587,119.134277 349.469874,119.2953 Z M338.722952,171.837971 L339.00187,171.817574 C348.707141,172.184705 358.807187,172.695683 362.906208,165.245715 C364.356581,162.612463 364.707374,153.864654 364.877943,153.001574 L366.134146,151.116539 C366.658727,150.876079 367.032048,150.412335 367.024538,149.648015 C367.022393,148.974942 366.605089,148.307236 366.045107,147.801626 C366.769221,147.651338 367.306674,147.259517 367.383913,146.435082 C367.426824,145.952015 367.304529,145.587031 367.08354,145.310073 C367.08354,145.310073 366.35299,138.067287 366.385173,137.247146 C369.200098,135.463019 374.343988,132.71383 374.549958,132.645127 C374.347206,132.721344 367.980368,115.428616 367.980368,115.428616 L367.980368,99.0472741 C365.331721,94.9261751 365.30812,86.1526032 365.414324,82.7024307 C365.404669,82.7281942 365.392868,82.7518109 365.382141,82.7775744 C364.363018,87.6554786 361.510546,94.1285776 355.406535,102.709996 C338.840956,125.99705 325.766143,117.437102 326.437691,131.330111 C327.110312,145.225268 323.725751,154.50445 314.425984,161.381178 C305.122999,168.25898 313.633214,175.324642 309.611432,198.444233 C305.591796,221.563824 296.610639,237.317178 274.583633,244.489114 C264.221833,247.86307 257.488111,257.151913 253.260359,266.045715 C297.625471,276.489626 343.688764,262.682495 356.219687,233.650162 C344.454715,232.031351 336.50341,231.218725 336.50341,231.218725 L336.735126,230.29553 C329.097066,229.306852 324.309333,228.808757 324.309333,228.808757 L338.722952,171.837971 Z" id="Fill-16" fill="#FFFFFF"></path>
                    <path d="M382.415872,237.748396 C373.467971,235.929917 364.542598,234.383029 356.468997,233.116319 C356.392831,233.297738 356.296283,233.469495 356.219044,233.64984 C363.748755,234.685751 372.840406,236.052294 382.415872,237.748396" id="Fill-18" fill="#272584"></path>
                    <path d="M253.260252,266.045715 C248.50041,276.059159 246.915942,285.570213 246.915942,285.570213 C241.76347,309.803006 231.516455,324.737293 219.607733,333.757766 C219.651716,333.757766 219.694627,333.757766 219.737537,333.757766 C219.917761,333.75884 220.097985,333.75884 220.277136,333.75884 C222.633993,333.765281 224.988703,333.766354 227.343414,333.767427 C228.106147,333.767427 228.867808,333.767427 229.630541,333.766354 C231.412397,333.766354 233.193181,333.764207 234.972892,333.760987 C235.731334,333.759913 236.489776,333.757766 237.247146,333.756693 C239.569674,333.750252 241.888983,333.742737 244.204002,333.733076 C244.424991,333.732003 244.645979,333.730929 244.866968,333.729856 C247.181987,333.719121 249.491642,333.706239 251.797006,333.692284 C252.562957,333.686916 253.326763,333.681549 254.090569,333.676181 C255.844534,333.664373 257.594207,333.651491 259.33959,333.637536 C260.083013,333.631095 260.827509,333.625728 261.56986,333.619287 C263.952463,333.598891 266.330774,333.577421 268.698358,333.552731 C268.731614,333.552731 268.764869,333.552731 268.798125,333.551658 C271.164636,333.528041 273.521493,333.501204 275.872985,333.474367 C276.640009,333.464705 277.405961,333.455044 278.172985,333.446456 C279.851856,333.42606 281.525364,333.40459 283.19458,333.383121 C283.958386,333.372386 284.722192,333.362725 285.483853,333.353063 C287.628302,333.323006 289.76417,333.294022 291.890382,333.261817 C292.271213,333.25645 292.649897,333.251082 293.029655,333.244642 C295.129049,333.213511 297.218787,333.181306 299.299944,333.146955 C300.095933,333.135146 300.887631,333.121191 301.680401,333.108309 C303.255215,333.082546 304.822519,333.055709 306.384459,333.028872 C307.151483,333.01599 307.91958,333.003108 308.683386,332.989153 C310.676576,332.954801 312.660112,332.918303 314.630774,332.881804 C315.127463,332.872143 315.623078,332.863555 316.117621,332.853894 C318.076483,332.817396 320.022472,332.780897 321.957733,332.742252 C322.738703,332.727223 323.51431,332.712194 324.290989,332.696092 C325.714543,332.668181 327.129515,332.640271 328.53805,332.611287 C329.381241,332.594111 330.226576,332.576935 331.06333,332.55976 C332.787257,332.524335 334.498312,332.487836 336.198638,332.451338 C336.90666,332.436309 337.611465,332.422354 338.315196,332.406252 C340.075597,332.36868 341.825271,332.331108 343.558853,332.292463 C344.277603,332.277434 344.990989,332.261332 345.705448,332.245229 C347.150457,332.213025 348.586884,332.18082 350.012584,332.148616 C350.662677,332.133587 351.315989,332.119632 351.961791,332.105677 C353.518368,332.069178 355.058853,332.034827 356.590756,331.999402 C358.000364,331.967197 359.396026,331.933919 360.782034,331.902788 C361.627369,331.882392 362.476996,331.86307 363.312677,331.843747 C364.645047,331.812616 365.965616,331.781485 367.275457,331.751427 C367.649851,331.741766 368.024244,331.733178 368.397565,331.72459 C373.36445,331.607581 378.168274,331.493792 382.796166,331.38537 C383.055774,331.378929 383.313237,331.373562 383.5707,331.367121 C385.237771,331.328475 386.880168,331.28983 388.498965,331.252258 C388.756427,331.246891 389.016035,331.24045 389.271353,331.235082 C392.853302,331.152424 396.315103,331.07406 399.646026,331.001063 C400.015056,330.992475 400.377649,330.984961 400.743461,330.977447 C402.009319,330.949536 403.254795,330.923773 404.480961,330.898009 C404.88861,330.889421 405.30055,330.87976 405.703909,330.872245 C408.782733,330.80891 411.732826,330.750942 414.546679,330.701562 C414.910345,330.694047 415.266502,330.68868 415.625877,330.682239 C416.69542,330.66399 417.743507,330.645741 418.771213,330.629638 C419.124151,330.624271 419.480308,330.61783 419.827882,330.612463 C422.452929,330.572744 424.934226,330.540539 427.266409,330.517996 C427.583946,330.514776 427.891828,330.512629 428.204002,330.509408 C429.068647,330.501894 429.910765,330.495453 430.731427,330.491159 C431.030728,330.489012 431.334319,330.486865 431.628256,330.485792 C432.693507,330.480424 433.733013,330.477204 434.719953,330.477204 C438.498218,330.477204 442.479235,330.317255 446.590056,330.015606 C455.95097,273.946546 439.679328,259.112092 439.679328,259.112092 C432.098125,249.916642 407.1693,242.781204 382.416409,237.748718 C372.840942,236.052616 363.749291,234.686073 356.21958,233.650162 C343.688657,262.682495 297.625364,276.489626 253.260252,266.045715" id="Fill-20" fill="#272584"></path>
                    <path d="M346.725644,148.970111 C349.347472,148.576143 351.132547,145.7239 350.710951,142.608654 C350.295793,139.486967 347.826297,137.282035 345.20125,137.676003 C342.574058,138.072118 340.785765,140.925434 341.200924,144.048194 C341.622519,147.164514 344.099524,149.372667 346.725644,148.970111" id="Fill-22" fill="#F76381"></path>
                    <path d="M349.586161,120.526047 C349.77604,120.837357 350.084995,121.082111 350.393951,121.399862 C350.715779,121.700437 351.064426,122.045025 351.514986,122.292999 C351.958036,122.543121 352.409669,122.882341 352.95785,123.046584 C353.493158,123.235517 354.052066,123.465242 354.653885,123.52321 C354.952113,123.568296 355.253559,123.621971 355.558223,123.654175 L356.473288,123.652028 C357.090126,123.658469 357.68229,123.528578 358.265872,123.421229 C358.558736,123.369702 358.83229,123.261281 359.106917,123.176475 C359.379398,123.083082 359.654025,123.011159 359.90076,122.881268 C360.920956,122.443287 361.770583,121.86468 362.424967,121.300028 C363.077206,120.727862 363.538493,120.172872 363.821702,119.748846 C364.113493,119.335555 364.226133,119.05967 364.226133,119.05967 C364.226133,119.05967 363.174827,119.34629 361.595723,119.77783 C361.215965,119.868003 360.821189,119.986086 360.397449,120.070891 C359.98229,120.183606 359.541385,120.252309 359.099408,120.346776 C358.655285,120.431581 358.198288,120.487402 357.74451,120.558252 C357.286441,120.573281 356.829445,120.679555 356.373521,120.649498 L355.690173,120.677408 C355.465965,120.649498 355.241758,120.64413 355.017551,120.631249 C354.564846,120.636616 354.135742,120.534635 353.700201,120.486328 C353.256077,120.464859 352.860229,120.301689 352.447215,120.231913 C352.026693,120.170725 351.657663,120.01829 351.292924,119.907721 C350.935695,119.784271 350.560229,119.730597 350.273801,119.589971 C349.977719,119.468667 349.698801,119.377421 349.470303,119.295836 C349.007943,119.134814 348.710788,119.05967 348.710788,119.05967 C348.710788,119.05967 348.825574,119.322673 349.086255,119.75314 C349.218204,119.967836 349.379118,120.235134 349.586161,120.526047" id="Fill-24" fill="#5450F5"></path>
                    <path d="M321.958913,54.108938 C322.981255,51.4628038 331.696367,51.7182927 345.957654,54.7004268 C346.846973,54.8861393 347.678363,55.1040562 348.510826,55.3208997 C340.179762,52.1025994 330.08937,51.5261393 320.681255,52.4461137 C314.981674,53.0043246 309.762691,53.9436217 304.929902,55.2511233 C310.438531,54.0144716 316.183167,53.683839 321.958913,54.108938" id="Fill-26" fill="#F76381"></path>
                    <path d="M100.486077,309.459921 C99.0882696,306.558298 97.8878498,303.570796 96.8622901,300.527473 C100.678102,312.918681 107.944986,323.895039 119.107066,331.485633 C119.181087,331.488854 119.25618,331.492074 119.329128,331.495295 C111.456133,325.880981 104.880107,318.585595 100.486077,309.459921" id="Fill-28" fill="#F76381"></path>
                    <path d="M365.382677,82.7780038 C365.392332,82.7522403 365.405205,82.7286236 365.413787,82.7017866 C365.41486,82.673876 365.415933,82.644892 365.417006,82.6169815 C365.406278,82.6695821 365.394478,82.7243297 365.382677,82.7780038" id="Fill-30" fill="#F76381"></path>
                    <path d="M359.667971,88.6270875 C357.17702,91.0896562 354.048848,93.7722888 350.150434,96.6996754 C342.791292,102.227036 337.10673,105.716928 332.791012,108.379164 C327.795163,114.27473 324.03299,120.871279 323.934296,127.323982 C323.643577,146.371854 311.652253,152.515394 304.880984,168.924647 C305.378745,174.334998 306.234809,181.631458 304.355331,192.433912 C302.15188,205.109592 298.43798,215.553503 291.918811,223.600327 C289.914893,227.764365 287.319883,231.437822 283.85701,234.337298 C275.173008,241.606921 265.304678,246.832634 254.2016,249.78149 C250.706544,254.302998 248.100807,259.443905 246.197729,264.172596 C248.543857,264.867139 250.898568,265.489758 253.260788,266.045822 C257.487467,257.15202 264.222262,247.862104 274.584062,244.489222 C296.611068,237.317286 305.591152,221.563931 309.610788,198.44434 C313.63257,175.324749 305.122355,168.259088 314.42534,161.381286 C323.72618,154.504557 327.110742,145.225375 326.437048,131.330219 C325.765499,117.437209 338.840312,125.997158 355.405891,102.710104 C361.510975,94.128685 364.363447,87.6555859 365.38257,82.7776818 C364.270117,85.6728639 362.20827,87.3260268 359.667971,88.6270875" id="Fill-32" fill="#B94A61"></path>
                    <path d="M241.661021,279.560751 C236.504258,303.807499 226.355937,318.606528 214.590965,327.426259 C215.073708,329.82764 214.918158,331.923077 214.211208,333.737263 C215.111255,333.741557 216.011301,333.744777 216.911348,333.747997 C217.05188,333.72116 217.184902,333.701838 217.325434,333.676074 C217.234249,333.692176 217.138773,333.727601 217.046516,333.747997 C217.900434,333.750144 218.754352,333.755512 219.60827,333.757659 C231.515919,324.737186 241.762934,309.802898 246.916479,285.57118 C246.916479,285.57118 248.499874,276.059052 253.260788,266.045608 C250.898568,265.490617 248.543857,264.866924 246.197729,264.173454 C242.838913,272.51656 241.661021,279.560751 241.661021,279.560751" id="Fill-34" fill="#B94A61"></path>
                    <path d="M365.452407,81.7008716 C364.125401,83.7855744 362.235196,86.0892677 359.668078,88.6269802 C362.208377,87.3259195 364.270224,85.6727565 365.382677,82.7775744 C365.394478,82.7249738 365.406278,82.6702262 365.417006,82.6176256 C365.428806,82.2494211 365.441679,81.9241559 365.452407,81.7008716" id="Fill-36" fill="#B94A61"></path>
                    <path d="M269.328176,238.479545 C263.026777,240.53097 258.071693,244.773373 254.201171,249.781168 C265.305322,246.833385 275.173652,241.606599 283.856581,234.336976 C287.319454,231.4375 289.914464,227.764043 291.919454,223.601079 C286.548139,230.230906 279.279109,235.238702 269.328176,238.479545" id="Fill-38" fill="#B94A61"></path>
                    <path d="M321.182127,125.320542 C321.854748,139.214625 318.471259,148.493807 309.17042,155.371609 C304.214263,159.035404 304.31403,162.753948 304.880448,168.924325 C311.651716,152.515072 323.643041,146.371532 323.934832,127.32366 C324.033526,120.870957 327.794627,114.274408 332.791549,108.379916 C323.710625,113.981347 320.727276,115.902881 321.182127,125.320542" id="Fill-40" fill="#B94A61"></path>
                    <path d="M204.996511,333.685091 C206.800896,333.697973 208.604207,333.709781 210.409664,333.719443 C211.163815,333.723737 211.916894,333.728031 212.671045,333.731251 C213.184897,333.733398 213.697677,333.735545 214.21153,333.737692 C214.918479,331.922433 215.07403,329.828069 214.590215,327.425615 C211.176688,329.985871 207.626922,332.042663 204.022444,333.67865 C204.347491,333.680797 204.671465,333.682944 204.996511,333.685091" id="Fill-42" fill="#B94A61"></path>
                    <g id="Group-46" transform="translate(152.332090, 332.694160)">
                        <mask id="mask-2" fill="white">
                            <use xlink:href="#path-1"></use>
                        </mask>
                        <g id="Clip-45"></g>
                        <path d="M0.708880597,0.0919974441 C0.880522388,0.148892013 1.04358209,0.211153994 1.21629664,0.268048562 C1.20771455,0.213300958 1.19913246,0.160700319 1.19055037,0.107026198 C1.02963619,0.101658786 0.869794776,0.0962913738 0.708880597,0.0919974441" id="Fill-44" fill="#F76381" mask="url(#mask-2)"></path>
                    </g>
                    <path d="M153.522854,332.800864 C153.368377,331.811113 153.208535,330.745145 153.044403,329.614768 L151.024394,332.088072 C151.684142,332.330679 152.361054,332.55933 153.041185,332.785835 C153.202099,332.791203 153.36194,332.79657 153.522854,332.800864" id="Fill-47" fill="#F76381"></path>
                    <path d="M259.868675,192.935765 L280.468909,167.374001 L281.298153,163.3785 C281.090037,163.076851 280.884067,162.765541 280.678097,162.456378 L230.155336,230.519458 C231.54778,229.88503 232.929496,229.255969 234.299412,228.632276 L259.868675,192.935765 Z" id="Fill-49" fill="#F76381"></path>
                    <path d="M321.958913,54.108938 C326.363671,54.4331297 330.78452,55.1877879 335.127057,56.309577 C347.823186,59.5933597 357.60784,59.6652831 363.402896,67.8151617 C360.185686,61.7703821 354.861572,57.775954 348.510826,55.3208997 C347.678363,55.1040562 346.846973,54.8861393 345.957654,54.7004268 C331.696367,51.7182927 322.981255,51.4628038 321.958913,54.108938" id="Fill-51" fill="#F76381"></path>
                    <path d="M217.73555,251.75498 L234.298983,228.632169 C232.929067,229.255862 231.547351,229.884923 230.154907,230.519351 L215.430187,250.357306 C216.186483,250.826418 216.95458,251.292309 217.73555,251.75498" id="Fill-53" fill="#F76381"></path>
                    <path d="M332.791334,108.379594 C337.105979,105.717357 342.791614,102.227466 350.150756,96.7001048 C354.04917,93.7727182 357.176269,91.0900856 359.668293,88.6275169 C356.209711,90.3987629 351.897211,91.558124 347.984851,94.4490121 C343.144552,98.029076 337.434244,102.900539 332.791334,108.379594" id="Fill-55" fill="#F76381"></path>
                    <path d="M348.510826,55.3213291 C354.861572,57.7753099 360.185686,61.769738 363.402896,67.8155911 C357.606768,59.664639 347.823186,59.5937891 335.127057,56.3100064 C330.78452,55.1871438 326.362598,54.4324856 321.958913,54.1093674 C316.183167,53.6842684 310.438531,54.0138275 304.929902,55.2504792 C300.403923,56.4753227 296.238391,58.046901 292.393615,59.9834633 C280.573932,65.9369968 271.763344,75.3557316 264.894454,89.0716166 C261.350051,96.1458658 259.93937,106.712153 251.354062,110.295438 C239.628783,115.191591 224.986665,117.425508 217.137271,127.759923 C205.950518,142.487029 216.719967,162.98947 203.773885,177.91839 C195.418148,187.551821 182.707001,192.547808 170.070947,195.766109 C154.746553,199.668217 136.759566,205.060319 124.091329,213.927284 C119.901124,216.860038 116.119641,220.390722 112.728643,224.33577 C115.463111,221.569406 118.849818,218.353252 120.099585,217.102645 C120.065257,217.201406 88.8629244,309.258965 151.025145,332.088716 L153.044081,329.614339 C153.208214,330.745789 153.369128,331.810684 153.522533,332.800435 C153.705975,332.805802 153.887271,332.812243 154.070714,332.816537 C154.792682,332.838006 155.517868,332.857329 156.241982,332.876652 C157.346926,332.906709 158.457234,332.93462 159.566469,332.96253 C160.236945,332.979706 160.904202,332.997955 161.575751,333.014058 C162.281628,333.032307 162.988577,333.049482 163.6966,333.066658 C168.528316,333.180447 173.385779,333.279208 178.264697,333.362939 C178.998465,333.375821 179.73438,333.387629 180.469221,333.398364 L202.772999,333.668882 C203.18923,333.672102 203.605462,333.675323 204.022766,333.67747 C207.627243,332.042556 211.175937,329.985764 214.590536,327.426581 C226.355508,318.605776 236.504902,303.807821 241.660592,279.56 C241.660592,279.56 242.839557,272.515808 246.197299,264.172703 C248.101451,259.442939 250.706115,254.303105 254.201171,249.781597 C258.071693,244.773802 263.026777,240.530326 269.328176,238.479974 C279.279109,235.239131 286.548139,230.231335 291.919454,223.600435 C298.437551,215.55361 302.151451,205.1097 304.355975,192.434019 C306.23438,181.632639 305.378316,174.335105 304.880555,168.924754 C304.314137,162.754377 304.21437,159.035834 309.170527,155.372038 C318.471367,148.494236 321.854855,139.213981 321.182234,125.320971 C320.727383,115.902236 323.710732,113.981776 332.791656,108.379272 C337.434566,102.901291 343.143801,98.028754 347.985173,94.4497636 C351.897533,91.5578019 356.210033,90.3984409 359.667542,88.6271949 C362.23466,86.0894824 364.124865,83.7857891 365.45187,81.7010863 C365.441143,81.9243706 365.429342,82.2496358 365.417542,82.6167668 C365.416469,82.6446773 365.415396,82.6736613 365.414324,82.7015719 C365.307048,86.1517444 365.331721,94.9263898 367.980368,99.0464153 C368.281814,99.5155272 368.605788,99.9459936 368.980182,100.2777 C368.980182,100.2777 383.492495,64.4448562 348.510826,55.3213291" id="Fill-57" fill="#F76381"></path>
                    <path d="M112.728643,224.335663 C111.631208,225.446717 110.634613,226.486921 109.929809,227.296327 C92.4985121,247.277056 88.5432416,275.84779 96.8614319,300.528225 C89.0817677,275.264889 95.6299021,244.228365 112.728643,224.335663" id="Fill-59" fill="#B94A61"></path>
                    <path d="M119.329664,331.495724 C120.698507,331.56228 122.061987,331.632056 123.441558,331.695392 C123.46945,331.696465 123.498414,331.697539 123.527379,331.698612 C125.817724,331.804887 128.125233,331.903647 130.439179,331.999187 C131.141838,332.028171 131.845569,332.056082 132.550373,332.083992 C134.264646,332.153769 135.985354,332.219251 137.711427,332.28366 C138.416231,332.309424 139.121035,332.336261 139.826912,332.362024 C142.173041,332.445756 144.524534,332.527341 146.889972,332.602484 C146.903918,332.603558 146.916791,332.603558 146.930737,332.603558 C148.121502,332.642203 149.321922,332.675481 150.516978,332.710906 L151.024394,332.088286 C88.8632463,309.259609 120.065578,217.200976 120.098834,217.102216 C118.849067,218.353896 115.463433,221.568976 112.728965,224.335341 C95.6291511,244.229117 89.0810168,275.264567 96.8617537,300.527903 C97.8873134,303.571226 99.088806,306.558727 100.486614,309.46035 C104.880644,318.586024 111.45667,325.881411 119.329664,331.495724" id="Fill-61" fill="#B94A61"></path>
                    <g id="Group-65" transform="translate(216.697761, 332.694160)">
                        <mask id="mask-4" fill="white">
                            <use xlink:href="#path-3"></use>
                        </mask>
                        <g id="Clip-64"></g>
                        <path d="M0.213801306,1.05330096 C0.258857276,1.05330096 0.303913246,1.05330096 0.347896455,1.05330096 C0.440153918,1.03290479 0.536702425,0.998553355 0.627887127,0.981377636 C0.486282649,1.0082147 0.354333022,1.02753738 0.213801306,1.05330096" id="Fill-63" fill="#B94A61" mask="url(#mask-4)"></path>
                    </g>
                    <path d="M151.024823,332.088501 L150.516334,332.711121 C151.358451,332.735811 152.197351,332.761574 153.040541,332.786265 C152.36041,332.55976 151.684571,332.331108 151.024823,332.088501" id="Fill-66" fill="#B94A61"></path>
                    <mask id="mask-6" fill="white">
                        <use xlink:href="#path-5"></use>
                    </mask>
                    <g id="Clip-69"></g>
                    <polygon id="Fill-68" fill="#170A4C" mask="url(#mask-6)" points="298.824067 169.144818 301.800979 169.144818 301.800979 97.080869 298.824067 97.080869"></polygon>
                    <path d="M266.865438,168.315016 L298.341325,168.315016 L298.341325,97.9117444 L266.865438,97.9117444 L266.865438,168.315016 Z M266.035121,169.144818 L299.171642,169.144818 L299.171642,97.080869 L266.035121,97.080869 L266.035121,169.144818 Z" id="Fill-70" fill="#170A4C" mask="url(#mask-6)"></path>
                    <path d="M282.367374,140.228207 C282.495033,140.228207 282.621618,140.231427 282.75035,140.236795 C284.629827,140.322673 286.369846,140.899134 288.053008,141.457344 C288.409165,141.575427 288.765322,141.693511 289.121479,141.806226 C290.024743,142.092846 290.98701,142.378392 291.986824,142.659645 L291.809818,105.957281 C290.365882,105.824169 289.255574,105.387261 288.086264,104.926737 C287.545592,104.714188 286.986684,104.494124 286.381646,104.300897 C283.797365,103.476463 280.84298,103.62353 277.907906,104.70882 C277.463783,104.873063 273.859305,105.653485 272.674977,105.9079 L272.674977,142.656424 C273.626516,142.520092 275.953335,141.941485 276.21187,141.849165 C276.558372,141.724642 276.901656,141.593677 277.244939,141.463785 C278.841208,140.856194 280.492187,140.228207 282.367374,140.228207 Z M292.822505,143.75245 L292.293633,143.606456 C291.093214,143.276897 289.942141,142.937677 288.870452,142.598456 C288.511077,142.483594 288.151702,142.365511 287.792327,142.245281 C286.162803,141.705319 284.477495,141.147108 282.713876,141.066597 C280.838689,140.987159 279.242421,141.592603 277.539949,142.239913 C277.192374,142.371951 276.844799,142.50399 276.492934,142.630661 C276.204361,142.734788 273.113736,143.516284 272.388549,143.516284 C271.851096,143.516284 271.84466,143.081523 271.84466,143.063274 L271.84466,105.2359 L272.172924,105.16505 C274.100676,104.753907 277.284632,104.053996 277.620406,103.929472 C280.73034,102.778699 283.871385,102.628412 286.634818,103.508667 C287.264529,103.710482 287.837383,103.935913 288.389855,104.15383 C289.598857,104.629383 290.740275,105.079172 292.244286,105.156463 L292.635844,105.176859 L292.822505,143.75245 Z" id="Fill-71" fill="#170A4C" mask="url(#mask-6)"></path>
                    <path d="M272.491964,162.691149 L292.17284,162.691149 C292.186786,160.08044 292.246861,149.191034 292.276898,147.190063 C291.700826,147.077347 290.159268,146.967852 289.279604,146.906663 C288.301245,146.836887 287.915051,146.807903 287.757355,146.768184 C286.863745,146.543826 286.214725,146.247545 285.640798,145.985615 C284.791171,145.598088 284.056329,145.264235 282.737906,145.257794 C281.120182,145.257794 279.32438,145.908325 277.739911,146.482638 C277.394482,146.608235 277.061926,146.728465 276.745462,146.836887 C275.748867,147.179328 274.153671,147.600133 272.491964,147.540018 L272.491964,162.691149 Z M292.998867,163.520951 L271.662719,163.520951 L271.662719,146.649027 L272.112206,146.686599 C273.447794,146.797168 274.988279,146.562075 276.476199,146.052171 C276.787299,145.944823 277.116637,145.825666 277.456702,145.702216 C279.106609,145.104286 280.974286,144.426919 282.715378,144.426919 C284.238699,144.434433 285.087253,144.820887 285.985154,145.229884 C286.552645,145.488593 287.139445,145.756964 287.959035,145.961999 C288.079184,145.988836 288.748587,146.036069 289.338605,146.077935 C291.61715,146.237884 292.461413,146.32913 292.816497,146.488005 L293.097561,146.488005 L293.119016,146.836887 L293.114725,146.898075 L293.115798,146.902369 L293.112579,146.938868 C293.091124,147.305999 293.029977,157.676912 293.001012,163.108734 L292.998867,163.520951 Z" id="Fill-72" fill="#170A4C" mask="url(#mask-6)"></path>
                    <path d="M295.307985,132.176015 C294.941101,132.176015 294.608545,132.293025 294.362882,132.480884 L290.083638,132.480884 L290.083638,133.961217 L294.282425,133.961217 C294.532379,134.189868 294.896045,134.339082 295.307985,134.339082 C296.059991,134.339082 296.670392,133.853868 296.670392,133.257012 C296.670392,132.660156 296.059991,132.176015 295.307985,132.176015" id="Fill-73" fill="#170A4C" mask="url(#mask-6)"></path>
                </g>
            </g>
        </g>
    </g>
</svg>