<?xml version="1.0" encoding="UTF-8"?>
<svg width="129px" height="82px" viewBox="0 0 129 82" version="1.1" xmlns="http://www.w3.org/2000/svg" xmlns:xlink="http://www.w3.org/1999/xlink">
    <!-- Generator: Sketch 50.2 (55047) - http://www.bohemiancoding.com/sketch -->
    <title>ia</title>
    <desc>Created with Sketch.</desc>
    <defs>
        <linearGradient x1="50%" y1="0%" x2="50%" y2="100%" id="linearGradient-1">
            <stop stop-color="#DD7DA3" offset="0%"></stop>
            <stop stop-color="#C878B6" offset="100%"></stop>
        </linearGradient>
    </defs>
    <g id="Page-1" stroke="none" stroke-width="1" fill="none" fill-rule="evenodd">
        <g id="bladdercancer.net" transform="translate(-427.000000, -513.000000)">
            <g id="ia" transform="translate(426.547945, 513.452055)">
                <path d="M63.5558888,21.2328767 L63.5558888,15.7534247 L128.711571,15.7534247 L128.711571,21.2328767 L63.5558888,21.2328767 Z M63.6531635,5.47945205 L63.6531635,0 L128.808846,0 L128.808846,5.47945205 L63.6531635,5.47945205 Z M63.5558888,36.3013699 L63.5558888,30.8219178 L128.711571,30.8219178 L128.711571,36.3013699 L63.5558888,36.3013699 Z M63.5558888,51.369863 L63.5558888,45.890411 L128.711571,45.890411 L128.711571,51.369863 L63.5558888,51.369863 Z M0.684931507,66.4383562 L0.684931507,60.9589041 L128.855783,60.9589041 L128.855783,66.4383562 L0.684931507,66.4383562 Z M0.547945205,81.5068493 L0.547945205,76.0273973 L128.718797,76.0273973 L128.718797,81.5068493 L0.547945205,81.5068493 Z" id="Combined-Shape" fill="url(#linearGradient-1)" fill-rule="nonzero"></path>
                <g id="favicon" transform="translate(0.684932, 0.000000)">
                    <rect id="Rectangle-path" fill="url(#linearGradient-1)" x="0" y="0" width="53.4246575" height="53.4246575"></rect>
                    <path d="M20.7592186,52.4301159 L20.7592186,42.4689602 L16.9415376,42.4689602 C15.2126511,42.4689602 13.4645709,41.7091313 12.1457036,40.3841082 C10.8286346,39.0609525 10.0733361,37.3096906 10.0733361,35.57949 L10.0733361,15.9024777 C10.0733361,14.1652566 10.8170838,12.5438549 12.1675948,11.3374178 C13.4508414,10.1911209 15.1908982,9.5336931 16.9415376,9.5336931 L37.2131399,9.5336931 C40.7806456,9.5336931 43.3699983,12.2120977 43.3699983,15.9024777 L43.3699983,35.57949 C43.3699983,37.3680672 42.770532,39.063235 41.6819892,40.3528795 C40.5299516,41.7175005 38.9429948,42.4689602 37.2131399,42.4689602 L31.3323943,42.4689602 L20.7592186,52.4301159 L20.7592186,52.4301159 Z" id="Shape" fill="#000000" opacity="0.4"></path>
                    <path d="M19.7869102,16.9088142 L19.7869102,35.1739313 L28.0621265,35.1739313 C31.4417944,35.1739313 34.1256484,33.2604428 34.1256484,29.8559244 C34.1256484,27.3211734 32.6455313,25.8865148 31.0776453,25.3828345 C31.7584603,25.0138953 33.1944112,24.6085682 33.3249101,21.8540636 C33.5424164,18.7118882 30.472625,16.9088142 26.844452,16.9088142 L19.7869102,16.9088142 Z M27.490565,27.3708744 C29.2549505,27.3708744 30.273821,28.1412399 30.273821,29.5577184 C30.273821,30.9741969 29.2301,31.7197118 27.589967,31.7197118 L23.5641861,31.7197118 L23.5641861,27.3708744 L27.490565,27.3708744 Z M26.347442,20.3630336 C27.9130235,20.3630336 29.7363103,20.671628 29.5227836,22.3510735 C29.5227836,24.038459 27.888173,24.363964 26.446844,24.363964 L23.5641861,24.363964 L23.5641861,20.3630336 L26.347442,20.3630336 Z" id="BC" fill="url(#linearGradient-1)"></path>
                </g>
            </g>
        </g>
    </g>
</svg>