<svg xmlns="http://www.w3.org/2000/svg" xmlns:xlink="http://www.w3.org/1999/xlink" viewBox="0 0 51.87 51.87"><defs><style>.cls-1{fill:#002e3b;}.cls-2,.cls-3{fill:#fff;fill-rule:evenodd;}.cls-2{opacity:0.8;}.cls-3{opacity:0.4;}</style><clipPath id="clip-path"><circle class="cls-1" cx="25.93" cy="25.93" r="25.93"/></clipPath></defs><title>A</title><g id="Layer_2" data-name="Layer 2"><g id="Layer_1-2" data-name="Layer 1"><circle class="cls-1" cx="25.93" cy="25.93" r="25.93"/><path class="cls-2" d="M25.29,23.27l-1.92,4.56h3.85Zm7.4,9.4H29.21l-1-2.38H22.37l-1,2.38H17.9l7.35-15.5h.09Z"/><path class="cls-3" d="M16.11,11.36A4.83,4.83,0,0,0,11.41,16q-.06,9.06,0,18.11a4.82,4.82,0,0,0,4.7,4.64h4.66v7.64l8.1-7.64c3.28,0,7.06.64,9.05-1.5a4.73,4.73,0,0,0,1.26-3.14q.06-9,0-18.11a4.81,4.81,0,0,0-4.63-4.63C28.4,11.32,22.25,11.36,16.11,11.36Zm18.45-1A5.8,5.8,0,0,1,40.14,16q.06,9.07,0,18.14a5.81,5.81,0,0,1-5.65,5.58H29.26l-9.45,8.91V39.7c-1.84,0-3.62.43-5.72-.36a5.81,5.81,0,0,1-3.65-5.22q0-9.07,0-18.14A5.81,5.81,0,0,1,16,10.39Q25.3,10.33,34.56,10.39Z"/></g></g></svg>