<svg xmlns="http://www.w3.org/2000/svg" viewBox="0 0 80.27 80.27"><defs><style>.cls-1{fill:#2180ae;}.cls-2,.cls-3{fill:#fff;fill-rule:evenodd;}.cls-2{opacity:0.4;}.cls-3{opacity:0.8;isolation:isolate;}</style></defs><title>ABC</title><g id="Layer_2" data-name="Layer 2"><g id="Layer_1-2" data-name="Layer 1"><circle class="cls-1" cx="40.14" cy="40.14" r="40.14"/><path class="cls-2" d="M8.83,22.4A6.27,6.27,0,0,0,6.7,27.05V51.13A6.9,6.9,0,0,0,8.85,56a7.17,7.17,0,0,0,4.94,2.1h19V68.67L43.93,58.1H66.45A5.84,5.84,0,0,0,70.92,56a7.43,7.43,0,0,0,1.77-4.91V27.05a6.2,6.2,0,0,0-6.24-6.56H13.79A7.5,7.5,0,0,0,8.83,22.4ZM31.36,59.51H13.79A8.57,8.57,0,0,1,7.87,57,8.34,8.34,0,0,1,5.3,51.13V27.05a7.65,7.65,0,0,1,2.59-5.69,8.91,8.91,0,0,1,5.9-2.27H66.45A7.48,7.48,0,0,1,72,21.4a8.19,8.19,0,0,1,2.12,5.65V51.13A8.84,8.84,0,0,1,72,57a7.24,7.24,0,0,1-5.53,2.55h-22L31.36,71.93Z"/><path id="ABC" class="cls-3" d="M20.81,27.18,31.13,48.92H26.25l-1.4-3.31h-8.2l-1.39,3.31H10.38L20.69,27.18Zm-.06,8.58-2.7,6.39h5.41Zm19.94-8.2c4.24,0,6.77,2.18,6.77,5.78a4.8,4.8,0,0,1-2.06,4.13,5.13,5.13,0,0,1,3.81,5.23c0,4-3.14,6.22-7.1,6.22H32.43V27.56Zm.75,12.24H36.85v5.08h4.71c1.92,0,3.14-.87,3.14-2.53S43.51,39.8,41.44,39.8Zm-1.33-8.2H36.85v4.68h3.37c1.69,0,2.79-.93,2.79-2.35S41.94,31.6,40.11,31.6Zm21.13-4.42a10.66,10.66,0,0,0-11,11,10.66,10.66,0,0,0,11,11.07A9.83,9.83,0,0,0,69,46.05l-2.76-3.23a6.36,6.36,0,0,1-5,2.44c-3.92,0-6.48-3-6.48-7s2.56-7,6.48-7a6.33,6.33,0,0,1,4.94,2.39L69,30.38A9.93,9.93,0,0,0,61.24,27.18Z"/></g></g></svg>