<svg xmlns="http://www.w3.org/2000/svg" xmlns:xlink="http://www.w3.org/1999/xlink" viewBox="0 0 51.87 51.87"><defs><style>.cls-1{fill:#002e3b;}.cls-2,.cls-3{fill:#fff;fill-rule:evenodd;}.cls-2{opacity:0.8;}.cls-3{opacity:0.4;}</style><clipPath id="clip-path"><circle class="cls-1" cx="25.93" cy="25.93" r="25.93"/></clipPath></defs><title>AD</title><g id="Layer_2" data-name="Layer 2"><g id="Layer_1-2" data-name="Layer 1"><circle class="cls-1" cx="25.93" cy="25.93" r="25.93"/><path class="cls-2" d="M31.36,20.3c3.15,0,4.81,1.58,4.81,4.35S34.53,29,31.36,29H29.91V20.3Zm.1-2.67H27v14h4.47c4.82,0,7.67-2.6,7.67-7S36.25,17.63,31.46,17.63ZM18.7,23l1.77,4.19H16.92Zm0-5.63h-.08L11.89,31.65h3.2L16,29.47h5.38l.91,2.18h3.21Z"/><path class="cls-3" d="M13.21,12a5,5,0,0,0-3.33,1.28,4.18,4.18,0,0,0-1.43,3.12V32.56a4.61,4.61,0,0,0,1.44,3.26,4.82,4.82,0,0,0,3.32,1.41h8.52v7.09l7.49-7.09h9.57a3.94,3.94,0,0,0,3-1.38A5,5,0,0,0,43,32.56V16.39A4.15,4.15,0,0,0,38.79,12Zm7.58,34.52V38.18H13.21a5.8,5.8,0,0,1-4-1.68A5.59,5.59,0,0,1,7.5,32.56V16.39a5.14,5.14,0,0,1,1.74-3.82,6,6,0,0,1,4-1.52H38.79a5,5,0,0,1,3.7,1.55,5.49,5.49,0,0,1,1.42,3.79V32.56a6,6,0,0,1-1.41,3.91,4.88,4.88,0,0,1-3.71,1.71H29.6Z"/></g></g></svg>