<svg xmlns="http://www.w3.org/2000/svg" xmlns:xlink="http://www.w3.org/1999/xlink" viewBox="0 0 80.27 80.27"><defs><style>.cls-1{fill:url(#linear-gradient);}.cls-2,.cls-4{fill:#fff;fill-rule:evenodd;}.cls-2{opacity:0.4;}.cls-3{opacity:0.8;}</style><linearGradient id="linear-gradient" x1="-289.47" y1="38.39" x2="275.5" y2="41.38" gradientUnits="userSpaceOnUse"><stop offset="0" stop-color="#045775"/><stop offset="0.41" stop-color="#2180ae"/><stop offset="1" stop-color="#21aeab"/></linearGradient></defs><title>Alz</title><g id="Layer_2" data-name="Layer 2"><g id="Layer_1-2" data-name="Layer 1"><circle class="cls-1" cx="40.14" cy="40.14" r="40.14"/><path class="cls-2" d="M17.14,23.4A6.24,6.24,0,0,0,15,28.05V52.13A6.91,6.91,0,0,0,17.16,57a7.13,7.13,0,0,0,4.94,2.1h12V69.67L45.23,59.1H58.76A5.84,5.84,0,0,0,63.23,57,7.42,7.42,0,0,0,65,52.13V28.05c0-3.8-2.62-6.56-6.23-6.56H22.1A7.5,7.5,0,0,0,17.14,23.4ZM32.66,60.51H22.1A8.61,8.61,0,0,1,16.17,58a8.38,8.38,0,0,1-2.57-5.88V28.05a7.65,7.65,0,0,1,2.59-5.69,8.94,8.94,0,0,1,5.91-2.27H58.76a7.46,7.46,0,0,1,5.51,2.31,8.19,8.19,0,0,1,2.12,5.65V52.13A8.83,8.83,0,0,1,64.29,58a7.25,7.25,0,0,1-5.53,2.55h-13L32.66,72.93Z"/><g id="Alz" class="cls-3"><path id="LZ" class="cls-4" d="M42.62,34.56H38.8V49.3h9.55V46H42.62Zm18,0H49.74v3.27h5.19L49.46,49.22v.08H60.85V46H55.19l5.46-11.39Z"/><path id="A" class="cls-4" d="M27.53,28.15h-.12l-10,21.15h4.75l1.35-3.22h8l1.36,3.22h4.75Zm-.06,8.34,2.63,6.22H24.84Z"/></g></g></g></svg>