<svg xmlns="http://www.w3.org/2000/svg" xmlns:xlink="http://www.w3.org/1999/xlink" viewBox="0 0 80.27 80.27"><defs><style>.cls-1{fill:url(#linear-gradient);}.cls-2,.cls-3{fill:#fff;fill-rule:evenodd;}.cls-2{opacity:0.4;}.cls-3{opacity:0.8;isolation:isolate;}</style><linearGradient id="linear-gradient" x1="-190.09" y1="38.92" x2="374.88" y2="41.91" gradientUnits="userSpaceOnUse"><stop offset="0" stop-color="#045775"/><stop offset="0.41" stop-color="#2180ae"/><stop offset="1" stop-color="#21aeab"/></linearGradient></defs><title>AS</title><g id="Layer_2" data-name="Layer 2"><g id="Layer_1-2" data-name="Layer 1"><circle class="cls-1" cx="40.14" cy="40.14" r="40.14"/><path class="cls-2" d="M16.66,23.4a6.24,6.24,0,0,0-2.14,4.65V52.13A6.91,6.91,0,0,0,16.68,57a7.13,7.13,0,0,0,4.94,2.1h12V69.67L44.75,59.1H58.28A5.84,5.84,0,0,0,62.75,57a7.42,7.42,0,0,0,1.76-4.91V28.05c0-3.8-2.62-6.56-6.23-6.56H21.62A7.5,7.5,0,0,0,16.66,23.4ZM32.18,60.51H21.62A8.61,8.61,0,0,1,15.69,58a8.38,8.38,0,0,1-2.57-5.88V28.05a7.65,7.65,0,0,1,2.59-5.69,8.94,8.94,0,0,1,5.91-2.27H58.28a7.46,7.46,0,0,1,5.51,2.31,8.19,8.19,0,0,1,2.12,5.65V52.13A8.83,8.83,0,0,1,63.81,58a7.25,7.25,0,0,1-5.53,2.55h-13L32.18,72.93Z"/><path id="AS" class="cls-3" d="M31.12,28.14,41,48.94H36.32L35,45.77H27.15l-1.34,3.17H21.14L31,28.14Zm-.05,8.2-2.59,6.12h5.17Zm18.32-8.2c-4.39,0-7.2,2.62-7.2,6.29,0,3,1.59,5.11,6.87,6.25,3,.59,3.95,1.25,3.95,2.45,0,1.5-1.23,2.31-3.37,2.31a8.35,8.35,0,0,1-5.75-2.39l-2.31,3.53A12,12,0,0,0,49.5,49.3c4.81,0,7.73-2.64,7.73-6.56,0-3.14-1.67-5.06-6.95-6.17-3.06-.59-3.84-1.17-3.84-2.34,0-1.5,1.12-2.22,2.92-2.22a7.65,7.65,0,0,1,5,1.78l2.2-3.51A11.87,11.87,0,0,0,49.39,28.14Z"/></g></g></svg>