<svg xmlns="http://www.w3.org/2000/svg" xmlns:xlink="http://www.w3.org/1999/xlink" viewBox="0 0 63.53 63.53"><defs><style>.cls-1,.cls-2{fill:none;}.cls-2{clip-rule:evenodd;}.cls-3{clip-path:url(#clip-path);}.cls-4{clip-path:url(#clip-path-2);}.cls-5{fill:#002e3b;}.cls-6{clip-path:url(#clip-path-3);}.cls-7,.cls-9{fill:#fff;}.cls-7{opacity:0.4;}.cls-8{clip-path:url(#clip-path-4);}.cls-9{opacity:0.8;}.cls-10{clip-path:url(#clip-path-5);}.cls-11{clip-path:url(#clip-path-6);}</style><clipPath id="clip-path"><circle class="cls-1" cx="31.56" cy="32.37" r="25.93"/></clipPath><clipPath id="clip-path-2"><rect class="cls-1" x="0.4" y="0.4" width="62.72" height="62.72"/></clipPath><clipPath id="clip-path-3"><path class="cls-2" d="M27.2,52.25V44.59H15.91a5.56,5.56,0,0,1-5.37-5.34v-15a4.65,4.65,0,0,1,1.66-3.53,5.74,5.74,0,0,1,3.71-1.37H48.29a4.59,4.59,0,0,1,3.41,1.41A5,5,0,0,1,53,24.27v15a5.81,5.81,0,0,1-1.27,3.69,4.38,4.38,0,0,1-3.43,1.65H35.39ZM15.91,20.31a4.83,4.83,0,0,0-3.1,1.14,3.71,3.71,0,0,0-1.33,2.82v15a4.37,4.37,0,0,0,1.36,3.06,4.45,4.45,0,0,0,3.07,1.34H28.14v6.43L35,43.65H48.29A3.43,3.43,0,0,0,51,42.34a5,5,0,0,0,1-3.09v-15a4.15,4.15,0,0,0-1-2.85,3.62,3.62,0,0,0-2.73-1.11Z"/></clipPath><clipPath id="clip-path-4"><polygon class="cls-2" points="26.29 27.85 22.15 27.85 22.15 38.35 19.47 38.35 19.47 27.85 15.32 27.85 15.32 25.5 26.29 25.5 26.29 27.85"/></clipPath><clipPath id="clip-path-5"><path class="cls-2" d="M35.34,29.33A5.86,5.86,0,0,1,33.92,33l-2.24,3h3.79v2.31H27.18v-.1l4.58-6.56a3.79,3.79,0,0,0,1-2.43,1.55,1.55,0,0,0-1.63-1.68c-1,0-1.58.63-1.78,1.9L27,28.94c.47-2.47,1.89-3.67,4.13-3.67a4,4,0,0,1,4.25,4.06"/></clipPath><clipPath id="clip-path-6"><path class="cls-2" d="M48.35,31.92c0,4.06-2.61,6.43-7,6.43h-4.1V25.5h4.1C45.7,25.5,48.35,27.86,48.35,31.92Zm-8.46-4v8h1.33c2.91,0,4.41-1.48,4.41-4s-1.52-4-4.41-4Z"/></clipPath></defs><title>Asset 37</title><g id="Layer_2" data-name="Layer 2"><g id="Layer_1-2" data-name="Layer 1"><g class="cls-3"><g class="cls-4"><rect class="cls-5" width="63.53" height="63.53"/></g><g class="cls-6"><rect class="cls-7" x="8.53" y="17.36" width="46.47" height="36.91"/></g><g class="cls-8"><rect class="cls-9" x="13.31" y="23.49" width="14.99" height="16.87"/></g><g class="cls-10"><rect class="cls-9" x="24.95" y="23.26" width="12.53" height="17.1"/></g><g class="cls-11"><rect class="cls-9" x="35.2" y="23.49" width="15.16" height="16.87"/></g></g></g></g></svg>