<svg xmlns="http://www.w3.org/2000/svg" xmlns:xlink="http://www.w3.org/1999/xlink" viewBox="0 0 51.87 51.87"><defs><style>.cls-1{fill:#002e3b;}.cls-2,.cls-3{fill:#fff;fill-rule:evenodd;}.cls-2{opacity:0.8;}.cls-3{opacity:0.4;}</style><clipPath id="clip-path"><circle class="cls-1" cx="25.93" cy="25.93" r="25.93"/></clipPath></defs><title>B</title><g id="Layer_2" data-name="Layer 2"><g id="Layer_1-2" data-name="Layer 1"><circle class="cls-1" cx="25.93" cy="25.93" r="25.93"/><path class="cls-2" d="M26,19.88c1.36,0,2.14.59,2.14,1.68s-.8,1.66-2.06,1.66H23.19V19.88Zm.53,9.47c1.36,0,2.23-.63,2.23-1.81s-.85-1.82-2.32-1.82H23.19v3.63ZM25.92,17c3,0,5.59,1.5,5.41,4.12-.11,2.3-1.31,2.63-1.88,2.94A3.69,3.69,0,0,1,32,27.79c0,2.84-2.24,4.44-5.06,4.44H20V17Z"/><path class="cls-3" d="M16.83,10.88a4.83,4.83,0,0,0-4.7,4.63q-.06,9.06,0,18.11a4.82,4.82,0,0,0,4.7,4.64H21.5V45.9l8.1-7.64c3.27,0,7,.64,9-1.5a4.73,4.73,0,0,0,1.26-3.14q.06-9,0-18.11a4.8,4.8,0,0,0-4.63-4.63C29.12,10.84,23,10.88,16.83,10.88Zm18.45-1a5.81,5.81,0,0,1,5.59,5.59q.06,9.08,0,18.14a5.84,5.84,0,0,1-5.66,5.59H30l-9.45,8.91V39.23c-1.84,0-3.62.42-5.71-.37a5.78,5.78,0,0,1-3.65-5.22q-.06-9.08,0-18.14a5.81,5.81,0,0,1,5.58-5.59Q26,9.87,35.28,9.91Z"/></g></g></svg>