<svg xmlns="http://www.w3.org/2000/svg" xmlns:xlink="http://www.w3.org/1999/xlink" viewBox="0 0 51.87 51.87"><defs><style>.cls-1{fill:#002e3b;}.cls-2,.cls-3{fill:#fff;fill-rule:evenodd;}.cls-2{opacity:0.8;}.cls-3{opacity:0.4;}</style><clipPath id="clip-path"><circle class="cls-1" cx="25.93" cy="25.93" r="25.93"/></clipPath></defs><title>BC</title><g id="Layer_2" data-name="Layer 2"><g id="Layer_1-2" data-name="Layer 1"><circle class="cls-1" cx="25.93" cy="25.93" r="25.93"/><path class="cls-2" d="M32.93,16.73a7.13,7.13,0,0,0-7.33,7.4,7.13,7.13,0,0,0,7.33,7.41,6.56,6.56,0,0,0,5.2-2.18L36.28,27.2a4.26,4.26,0,0,1-3.35,1.64c-2.62,0-4.34-2-4.34-4.71s1.72-4.69,4.34-4.69A4.26,4.26,0,0,1,36.24,21l1.87-2.16A6.65,6.65,0,0,0,32.93,16.73Zm-14.19,3c1.22,0,2.65.24,2.49,1.56,0,1.32-1.28,1.57-2.41,1.57H16.56V19.69Zm.89,5.49c1.39,0,2.18.6,2.18,1.71s-.81,1.7-2.1,1.7H16.56V25.18ZM13.6,17v14.3h6.48c2.65,0,4.75-1.5,4.75-4.16a3.47,3.47,0,0,0-2.39-3.51,2.66,2.66,0,0,0,1.76-2.76C24.37,18.4,22,17,19.13,17Z"/><path class="cls-3" d="M10.13,13.44a4.15,4.15,0,0,0-1.44,3.11V32.73A4.62,4.62,0,0,0,10.14,36a4.83,4.83,0,0,0,3.32,1.42h8V44.5L29,37.41h9.08a3.93,3.93,0,0,0,3-1.39,5,5,0,0,0,1.19-3.29V16.55a4.16,4.16,0,0,0-4.19-4.4H13.46A5,5,0,0,0,10.13,13.44ZM20.55,38.35H13.46a5.75,5.75,0,0,1-4-1.68,5.59,5.59,0,0,1-1.73-3.94V16.55a5.12,5.12,0,0,1,1.74-3.81,6,6,0,0,1,4-1.53H38.07a5,5,0,0,1,3.7,1.55,5.52,5.52,0,0,1,1.43,3.79V32.73a5.91,5.91,0,0,1-1.42,3.91,4.85,4.85,0,0,1-3.71,1.71h-8.7l-8.82,8.34Z"/></g></g></svg>