<svg xmlns="http://www.w3.org/2000/svg" viewBox="0 0 709.78 219.36"><defs><style>.cls-1{fill:#2180ae;}.cls-2{fill:#fff;}.cls-3{fill:#002e3b;}.cls-4{fill:#a663b9;}.cls-5{fill:#ffe986;}.cls-6{fill:#21aeab;}.cls-7{fill:#045775;}.cls-8{opacity:0.25;}</style></defs><title>books_1</title><g id="Layer_2" data-name="Layer 2"><g id="Layer_1-2" data-name="Layer 1"><rect class="cls-1" x="517.72" y="18.4" width="24.45" height="176.29"/><path class="cls-2" d="M536.44,170a30.7,30.7,0,0,0-3.9-.35q-.18-7.79-.33-15.58a18.36,18.36,0,0,1,2.47-.09c2.42.11,2.41-3.65,0-3.76a21.27,21.27,0,0,0-2.53.06q-.14-6.75-.25-13.5c.67-.06,1.34-.13,2-.22a1.9,1.9,0,0,0,1.32-2.32,1.94,1.94,0,0,0-2.32-1.31c-.35.05-.71.08-1.06.11q-.11-7.65-.18-15.31c.48,0,1,0,1.45,0,2.42.13,2.41-3.63,0-3.76-.49,0-1,0-1.47,0q-.09-9.74-.12-19.47l1.26,0c2.43.06,2.43-3.7,0-3.76l-1.27,0q0-7.59,0-15.19l1-.06c2.4-.16,2.42-3.93,0-3.76l-1,.06q0-7.8.09-15.61l1.8-.1c2.41-.13,2.42-3.89,0-3.76l-1.76.1q.06-6.71.13-13.42c.75,0,1.51-.08,2.26-.09,2.42,0,2.43-3.8,0-3.76-.73,0-1.47,0-2.2.08,0-3.47.08-6.95.14-10.42,0-2.42-3.72-2.42-3.76,0-.06,3.6-.1,7.2-.15,10.81-1,.13-2,.29-3,.48-2.38.47-1.37,4.09,1,3.63q1-.19,1.95-.33-.09,6.62-.14,13.22l-1.36.08c-2.41.13-2.42,3.89,0,3.76l1.33-.07c-.05,5.22-.07,10.43-.09,15.65l-2.8.19c-2.41.17-2.42,3.93,0,3.76l2.79-.18q0,7.41,0,14.84l-2.17-.06c-2.42-.06-2.42,3.7,0,3.76l2.18.06q0,9.81.12,19.64c-.77,0-1.53.1-2.29.19-2.38.27-2.41,4,0,3.76.77-.09,1.54-.15,2.31-.19q.08,7.68.18,15.36c-.52,0-1.05,0-1.57-.07-2.42-.15-2.41,3.61,0,3.76.54,0,1.08.05,1.62.06.07,4.68.17,9.35.26,14-.59.17-1.17.35-1.75.57-2.24.86-1.26,4.5,1,3.63.27-.11.54-.18.82-.27q.13,7.44.31,14.88c-.6.06-1.21.11-1.82.2-2.39.35-1.37,4,1,3.63.3,0,.61-.07.92-.1q.14,5.91.3,11.83c.07,2.42,3.83,2.43,3.76,0q-.16-6-.3-12a26.52,26.52,0,0,1,2.8.27C537.8,174,538.82,170.33,536.44,170Z"/><rect class="cls-3" x="444.36" y="2.98" width="31.72" height="191.13" transform="translate(6.07 -24.97) rotate(3.13)"/><path class="cls-2" d="M459.89,29.22l9.21.82c2.35.21,2.21-3.55-.11-3.76l-9.21-.82C457.43,25.25,457.57,29,459.89,29.22Z"/><path class="cls-2" d="M467.94,44.21l-9.21-.82c-2.34-.21-2.21,3.56.12,3.76l9.21.82C470.41,48.18,470.27,44.42,467.94,44.21Z"/><path class="cls-2" d="M470.16,17.93,461,17.11c-2.35-.21-2.21,3.56.11,3.76l9.21.82C472.62,21.9,472.48,18.14,470.16,17.93Z"/><path class="cls-2" d="M463.4,102.58l-9.21-.82c-2.34-.21-2.21,3.55.12,3.76l9.21.82C465.86,106.55,465.73,102.79,463.4,102.58Z"/><path class="cls-2" d="M469.24,34.43a29.62,29.62,0,0,1-9.33-.85c-2.3-.57-3.16,3.08-.87,3.66a33.2,33.2,0,0,0,10.31.95C471.7,38,471.6,34.28,469.24,34.43Z"/><path class="cls-2" d="M467.84,54.35,459,53.14c-2.38-.32-3.28,3.33-.89,3.66L467,58C469.33,58.33,470.24,54.67,467.84,54.35Z"/><path class="cls-2" d="M465.17,83.65l-8.93-.86c-2.39-.23-3.15,3.46-.74,3.69l8.92.86C466.81,87.57,467.58,83.88,465.17,83.65Z"/><path class="cls-2" d="M465.89,74.05l-8.44-.76c-2.26-.2-2.91,3.49-.63,3.69l8.44.77C467.52,78,468.17,74.26,465.89,74.05Z"/><path class="cls-2" d="M466.58,64.56a29,29,0,0,0-8.74-1.28c-2.42,0-2.3,3.77.12,3.76a25.76,25.76,0,0,1,7.74,1.17C468,68.93,468.89,65.27,466.58,64.56Z"/><path class="cls-2" d="M463.85,93.49l-8.62-.75a2.05,2.05,0,0,0-2.09,2c0,1.12,1.06,1.71,2.2,1.81l8.62.75a2,2,0,0,0,2.08-2C466,94.18,465,93.59,463.85,93.49Z"/><rect class="cls-4" x="378.33" y="2.13" width="28.81" height="194.02" transform="translate(11.8 -38.53) rotate(5.7)"/><path class="cls-2" d="M407.21,13.58c-.62-.19-1.25-.33-1.82-.46-2.76-.65-7.8-3-10.62-2.07-2.24.75-2.35,3.28-2.61,5.21q-1.85,13.72-3,27.52a1.92,1.92,0,0,0,1.88,1.88,46.93,46.93,0,0,1,11.25,2.22,1.9,1.9,0,0,0,2.31-1.31,154.55,154.55,0,0,0,3.83-16.35q.74-4.17,1.25-8.39c.24-1.92,1.41-5.7-.34-7.18A6.2,6.2,0,0,0,407.21,13.58Zm-6,29.7c-.5.32-1.21.06-1.73-.07-.72-.17-1.44-.33-2.16-.47s-1.43-.26-2.15-.37c-.53-.08-1.29-.06-1.62-.56a1.91,1.91,0,0,1-.24-.82,18.87,18.87,0,0,1,.19-3.67c.12-1.32.25-2.65.38-4,.26-2.59.54-5.17.84-7.76.28-2.42.53-5,.66-7.38.07-1.4.16-3.53,2.14-3.06l1.71.4c1.32.22,2.6.6,3.9.9s2.61.36,3,1.93-.17,3.35-.37,4.87c-.31,2.31-.68,4.6-1.1,6.89l-.27,1.31q-.58,2.79-1.22,5.59c-.32,1.45-.76,2.95-1.19,4.4C401.82,42,401.73,42.94,401.24,43.28Z"/><path class="cls-2" d="M404.05,56.8l-.07-.12a5.37,5.37,0,0,0-2.91-2.39,20.7,20.7,0,0,0-5.36-1.42c-1.63-.14-3.48-.43-5,.38a3.8,3.8,0,0,0-2,2.73Q387,70.62,385.16,85.25c-.14,1.09,1,1.77,1.88,1.88,3.39.41,9.82,2.78,12.06-.9,1.14-1.87,1.25-4.8,1.71-6.9l2.13-9.66c.49-2.22,1.17-4.4,1.5-6.66a25.27,25.27,0,0,0,.16-3.25A6.14,6.14,0,0,0,404.05,56.8Zm-3.63,6.78c-.25,1.41-.61,2.81-.92,4.21-.64,2.93-1.29,5.86-1.93,8.79-.4,1.84-.5,6.32-2,7.4-1.15.85-3.46.28-4.73.07-1.82-.31-1.65-1.29-1.46-2.85s.35-2.84.53-4.26L391,68.41a20.74,20.74,0,0,1,.32-2.6l.33-2.7c.28-2.23.05-6.09,3.15-6.26a13.94,13.94,0,0,1,4.21.88C401.62,58.47,400.79,61.52,400.42,63.58Z"/><path class="cls-2" d="M398.58,101.18a29.26,29.26,0,0,0-7.52-3.58c-2.57-.82-5.68-.89-6.46,2.28-1.07,4.37-1,9.36-1.5,13.84l-.9,8.33-.45,4.16c-.12,1.17-.44,2.52.33,3.54a2.57,2.57,0,0,0,.89.71,9.64,9.64,0,0,0,3.6.81,29.93,29.93,0,0,0,3.15.22c1.86,0,3.82-.33,5.08-1.82a6.24,6.24,0,0,0,1.14-2.18,109.22,109.22,0,0,0,4.19-23.93A2.79,2.79,0,0,0,398.58,101.18Zm-4.9,20.19c-.14.8-.29,1.61-.46,2.4-.25,1.1-.49,3.09-1.53,3.76a4,4,0,0,1-2.18.35,20,20,0,0,1-3-.26c-1.57-.26-.92-2.21-.8-3.29l.48-4.48,1-8.85c.24-2.29.15-4.62.58-6.9.19-1,.3-1.77,1.29-2.28a3.34,3.34,0,0,1,2.09-.25,14.59,14.59,0,0,1,3,1.17,3.73,3.73,0,0,1,2.16,1.62,2.79,2.79,0,0,1,.08,1.62c-.31,2.06-.68,4.13-1,6.19s-.68,4.44-1.2,6.61C394,119.63,393.84,120.5,393.68,121.37Z"/><path class="cls-2" d="M395.67,148.81a2.77,2.77,0,0,0-.38-1.72,3,3,0,0,0-1.11-.93,8,8,0,0,0-1.23-.47c-1.13-.36-2.23-.77-3.35-1.13-2.06-.66-4.52-1.46-6.68-.83-3,.88-2.9,4.88-3.35,7.37q-2.64,14.7-4.13,29.55a1.91,1.91,0,0,0,1.88,1.89,28,28,0,0,1,6,1,25.86,25.86,0,0,1,3,1,2.63,2.63,0,0,0,2.67-.27c1.65-1.15,1.81-3.66,2.1-5.47l.63-4,1.29-8,1.56-9.65.78-4.82a20.76,20.76,0,0,0,.3-2.82Zm-9.21,31.36a1.27,1.27,0,0,1-.32.13c-.59.16-1.34-.24-1.91-.4l-3.31-.92a2,2,0,0,1-1.15-.57,1.67,1.67,0,0,1-.23-1.14c.58-6.35,1.58-12.73,2.6-19,.26-1.6.33-3.24.52-4.85.12-1,.26-2.08.45-3.12.15-.82.27-2.41,1.22-2.72s2.24.17,3.19.41c.79.19,1.56.43,2.33.67s1.57.28,1.87.94a3.69,3.69,0,0,1-.06,2.13l-.39,2.42-.78,4.83-1.56,9.67c-.33,2-.65,4.06-1,6.09-.13.8-.29,1.59-.44,2.39a9.09,9.09,0,0,1-.56,2.54A1.32,1.32,0,0,1,386.46,180.17Z"/><rect class="cls-1" x="345.46" y="5.95" width="25.48" height="189.16" transform="translate(4.83 -15.84) rotate(2.55)"/><path class="cls-2" d="M356.67,22.17a61.41,61.41,0,0,1-.78,11.65c-.37,2.29,3.26,3.25,3.64,1a66.72,66.72,0,0,0,.9-12.62C360.38,19.82,356.62,19.84,356.67,22.17Z"/><path class="cls-2" d="M363.21,22.62a47,47,0,0,0-.55,11.25c.21,2.89,4,2.9,3.76,0a42.23,42.23,0,0,1,.42-10C367.31,20.94,363.68,19.74,363.21,22.62Z"/><path class="cls-2" d="M356.75,45.1a52.11,52.11,0,0,0-.41,12.1c.22,2.59,4,2.59,3.76,0a47.71,47.71,0,0,1,.28-11C360.76,43.6,357.13,42.52,356.75,45.1Z"/><path class="cls-2" d="M363.15,45.83a62.13,62.13,0,0,1-.39,10.91c-.33,2.57,3.37,3.38,3.69.81a67.74,67.74,0,0,0,.45-12A1.88,1.88,0,1,0,363.15,45.83Z"/><path class="cls-2" d="M354.64,70.27q-.54,6.65-1.07,13.31c-.18,2.28,3.53,2.83,3.71.53q.54-6.66,1.07-13.31C358.54,68.51,354.83,68,354.64,70.27Z"/><path class="cls-2" d="M361.3,71l-.69,12.19c-.15,2.55,3.56,3.31,3.71.73L365,71.72C365.16,69.17,361.45,68.41,361.3,71Z"/><path class="cls-2" d="M353.7,94.26a117.36,117.36,0,0,0-.72,12.15,1.88,1.88,0,1,0,3.76,0,117.33,117.33,0,0,1,.72-12.14C357.74,91.66,354,91.71,353.7,94.26Z"/><path class="cls-2" d="M359.51,94,359,106.38c-.11,2.74,3.6,3.51,3.72.75l.51-12.35C363.33,92,359.62,91.27,359.51,94Z"/><path class="cls-2" d="M352.5,117.67l-.72,12.8c-.13,2.36,3.63,2.32,3.76,0q.36-6.4.73-12.81C356.4,115.29,352.64,115.32,352.5,117.67Z"/><path class="cls-2" d="M351.3,140.76l-.72,12.68c-.14,2.34,3.63,2.3,3.76,0l.72-12.68C355.19,138.41,351.43,138.44,351.3,140.76Z"/><path class="cls-2" d="M359.37,117.83,358.65,130a1.89,1.89,0,1,0,3.75.22l.72-12.16A1.89,1.89,0,1,0,359.37,117.83Z"/><path class="cls-2" d="M357.72,142.09,356.79,153c-.24,2.78,3.53,2.74,3.76,0l.93-10.93C361.71,139.28,358,139.32,357.72,142.09Z"/><path class="cls-2" d="M350.09,166.23a48.34,48.34,0,0,0-.51,11.84c.23,2.85,4,2.85,3.76,0a44,44,0,0,1,.38-10.64C354.19,164.57,350.56,163.39,350.09,166.23Z"/><path class="cls-2" d="M357.32,166.6l-.57,12a1.89,1.89,0,1,0,3.76.18l.57-12A1.89,1.89,0,1,0,357.32,166.6Z"/><rect class="cls-3" x="132.41" y="8.76" width="35.68" height="184.73" transform="translate(4.65 -6.59) rotate(2.55)"/><path class="cls-2" d="M160.13,28.49c-1-.81-2.48-.76-3.69-.86-1.45-.11-2.9-.26-4.35-.43a31.15,31.15,0,0,0-5.37-.37c-2,.11-1.95,2-2.05,3.57l-.27,4.21c-.18,2.71-.35,5.42-.53,8.13-.15,2.39,2.23,2.27,3.92,2.35s3.52.23,5.27.46a19.06,19.06,0,0,1,2.26.39,5.29,5.29,0,0,0,2.39.31c2.11-.41,2.65-2.81,2.75-4.64.07-1.27,0-2.52.19-3.81a35.71,35.71,0,0,0,.45-4.23C161.28,31.88,161.65,29.72,160.13,28.49Zm-2.77,3.7a3.05,3.05,0,0,1,.26,1.46,25.66,25.66,0,0,1-.3,3.71,17.49,17.49,0,0,1-.59,3.42c-.59,1.62-2.25,1-3.57.91-1.62-.13-3.43,0-4.87-.89-.81-.5-.37-2.24-.33-3s.08-1.57.13-2.36.15-1.83.18-2.75c0-1.16,0-2,1.45-1.88s3,.17,4.44.42a14.38,14.38,0,0,1,2.37.32A1.38,1.38,0,0,1,157.36,32.19Z"/><path class="cls-2" d="M157.58,54.87c-1.22-.53-3-.31-4.29-.35l-6.89-.22c-1.52,0-2.59,1.38-3,2.71a11.53,11.53,0,0,0-.33,2.62c-.15,3-.22,6-.63,8.91a1.89,1.89,0,0,0,1.5,2.2l6.75.49c1.73.12,3.89.69,5.59.33,2-.43,2.72-2.76,2.73-4.6,0-1.22.29-2.41.38-3.64s.08-2.69.06-4C159.44,57.67,159.28,55.61,157.58,54.87Zm-2.1,4.61c0,.27,0,.57-.06.88-.08,1.23-.11,2.47-.22,3.7-.08,1,0,2.81-1,3.26a4.43,4.43,0,0,1-1.45.26,35.93,35.93,0,0,1-4.51-.28c-1.13-.08-1.52-.41-1.66-1.56a17,17,0,0,1,.22-4.55,5.38,5.38,0,0,1,.56-2.25,2.2,2.2,0,0,1,1.7-.59c1.2-.06,2.39,0,3.59-.05a5.44,5.44,0,0,1,2.09.07A1.05,1.05,0,0,1,155.48,59.48Z"/><path class="cls-2" d="M157.24,81.73l-11.33-1.4a3.37,3.37,0,0,0-3.67,3.11q-.11,3.56-.25,7.09c-.05,1.21-.11,2.41-.17,3.62,0,1-.42,2,.46,2.73a2.55,2.55,0,0,0,.75.39,11.4,11.4,0,0,0,1.63.4c1.26.24,6.69.6,8.1.79s2.91,0,3.85-1.23c1.14-1.54,1-3.9,1.23-5.69q.45-3.81.89-7.61A1.9,1.9,0,0,0,157.24,81.73Zm-4.07,12.34a2.18,2.18,0,0,1-.72.16,15.52,15.52,0,0,1-5.79-.68c-1.26-.49-1.07-1.33-1.09-2.52a29.64,29.64,0,0,1,.18-3.65c.12-1.18.53-2.46,1.82-2.76a11.59,11.59,0,0,1,5.2.36,3.73,3.73,0,0,1,1.13.46c1,.67.56,2.73.44,3.76C154.15,90.76,154.77,93.4,153.17,94.07Z"/><path class="cls-2" d="M154.38,107.52l-.07,0a54.52,54.52,0,0,0-11.06,0,2.76,2.76,0,0,0-1.7.74,2.37,2.37,0,0,0-.36.73c-.63,1.91-1,10.56-1.24,12.74a1.92,1.92,0,0,0,1.58,2.19,45.09,45.09,0,0,0,8.46.6c1.95-.06,4.15,0,5.38-1.7s.79-4.06.89-5.81c.14-2.39.24-4.73.19-7.1a2.66,2.66,0,0,0-.26-1.34A2.73,2.73,0,0,0,154.38,107.52Zm-5.27,13.2a31.48,31.48,0,0,1-4.25-.13c-.89-.32-.7-1.43-.64-2.14.11-1.2.38-5.47.56-6.36.35-1.71,3.2-1.62,4.58-1.67a10.15,10.15,0,0,1,2.29.21c1.62.8.86,3,.79,4.31-.09,1.5-.18,3-.28,4.5C152,121.26,150.92,120.7,149.11,120.72Z"/><rect class="cls-4" x="25.72" y="2.86" width="31.72" height="191.13" transform="translate(9.99 -3.64) rotate(5.7)"/><path class="cls-2" d="M33,24.62c10.55.81,21.05,2,31.5,3.75l.37-3.73q-15.66-2.54-31.5-3.75Z"/><path class="cls-2" d="M32.35,31.2q15.78,1.89,31.41,4.68L64,33.07Q48.4,30.31,32.63,28.41Z"/><path class="cls-2" d="M17.46,180.3q15.85.87,31.56,3.18l.37-3.73q-15.7-2.3-31.55-3.2Z"/><rect class="cls-3" x="619.96" y="7.56" width="18.51" height="186.2" transform="translate(-0.88 5.69) rotate(-0.52)"/><path class="cls-2" d="M627.77,26.54a1.89,1.89,0,0,0,.06,3.77C630.25,30.27,630.19,26.51,627.77,26.54Z"/><path class="cls-2" d="M628.19,54.28a1.88,1.88,0,0,0,.06,3.76C630.67,58,630.62,54.25,628.19,54.28Z"/><path class="cls-2" d="M628.62,82a1.88,1.88,0,0,0,.06,3.76C631.1,85.75,631,82,628.62,82Z"/><path class="cls-2" d="M629,109.76a1.88,1.88,0,0,0,.06,3.76A1.88,1.88,0,0,0,629,109.76Z"/><path class="cls-2" d="M629.47,137.5a1.88,1.88,0,0,0,.06,3.76C632,141.23,631.89,137.46,629.47,137.5Z"/><path class="cls-2" d="M629.89,165.24A1.88,1.88,0,0,0,630,169,1.88,1.88,0,0,0,629.89,165.24Z"/><rect class="cls-1" x="175.51" y="3.97" width="28.59" height="191.13" transform="translate(10.83 -18.37) rotate(5.7)"/><path class="cls-2" d="M205.24,20.76l-1.2-.28q-3.53-.78-7.11-1.25c-1.19-.15-2.39-.27-3.59-.36a6.34,6.34,0,0,0-3.21.15,1.88,1.88,0,0,0-1,2.25l4.32,13.82a1.91,1.91,0,0,0,3.38.76,94,94,0,0,0,9.25-12.24C206.69,22.71,206.5,21.06,205.24,20.76Zm-11.72,1.91a71.53,71.53,0,0,1,8,1.1,89.94,89.94,0,0,1-5.39,7.2C195.25,28.2,194.38,25.44,193.52,22.67Z"/><path class="cls-2" d="M203.46,45.58c-1.27-.36-2.55-.67-3.84-.92a46.91,46.91,0,0,0-7.08-.88c-1.1-.06-2.19-.1-3.29-.17a7,7,0,0,0-1.71.11,1.7,1.7,0,0,0-1.07.93c-.49.85-.14,1.6.11,2.47l2.1,7,1,3.52c.17.58.35,1.17.52,1.76.09.3.18.61.28.91a2.79,2.79,0,0,1,.23.78c.41,1.4,2.71,2.3,3.66.78a104.14,104.14,0,0,1,10-13.47A1.85,1.85,0,0,0,203.46,45.58Zm-12.58,1.89a44.46,44.46,0,0,1,8.38,1q-3.09,3.72-5.81,7.67C192.59,53.22,191.74,50.35,190.88,47.47Z"/><path class="cls-2" d="M201.17,71.09a113.72,113.72,0,0,1-14.6-1.81,1.66,1.66,0,0,0-.44,0c-1.25-.45-2.93.35-2.51,2a113.5,113.5,0,0,0,5.13,15.4c.59,1.44,2.35,1.25,3.23.29a149.63,149.63,0,0,0,10.56-12.88A1.9,1.9,0,0,0,201.17,71.09Zm-13.09,2.26c3.11.54,6.22,1,9.36,1.23q-3,4-6.36,7.75Q189.39,77.91,188.08,73.35Z"/><rect class="cls-5" x="278.51" y="5.5" width="25.48" height="189.16" transform="translate(4.74 -12.86) rotate(2.55)"/><path class="cls-2" d="M298.77,19c1.59,1.83,4.29-.79,2.7-2.61-3.86-4.44-10-1-13,2.75a9.7,9.7,0,0,0,1.4,13.7c4,3.2,9.34,1,10.51-3.94s-3.95-9.53-8.4-6.32a2.1,2.1,0,0,0-.19,3.16c1.48,1.41,4.74-2.08,5.24,1.16.31,2-1.56,4.41-3.7,3.71-1.73-.57-3-2.82-3.28-4.51C289.59,22.74,295.44,15.17,298.77,19Z"/><path class="cls-2" d="M299.91,42.34c-5.69-1.67-11.19,1.31-13.66,6.58-1.9,4.08-2,10.17,2.32,12.83,3.89,2.41,9.46.22,10.36-4.32s-3.9-8.61-8-5.69c-1.95,1.39-.13,4.69,1.84,3.28,1.81-1.29,3,1.93,1.62,3.17a3.23,3.23,0,0,1-3.18.57c-2.17-.73-2.64-3.2-2.45-5.24.46-5,5.07-9,10.07-7.57A1.88,1.88,0,0,0,299.91,42.34Z"/><path class="cls-2" d="M296.74,73.18c2.1,1.2,4.06-2,1.95-3.22-11.32-6.48-20.26,15.5-10.16,21.1,4.14,2.29,9.71-.58,9.91-5.39s-4.94-8.52-9-5.4a1.68,1.68,0,0,0,.34,2.83c1.47.88,2.48-1,3.77-.31a2.17,2.17,0,0,1,.89,1,2.94,2.94,0,0,1-3.57,4.1c-2.62-.77-3-3.94-2.81-6.28C288.47,77.61,291.63,70.25,296.74,73.18Z"/><path class="cls-2" d="M295.6,101.58c2.11,1.19,4.07-2,1.95-3.21-10.87-6.12-19.64,12.41-11,19.45,3.58,2.93,8.34,2.06,9.91-2.48a6,6,0,0,0-6.66-8.1c-1.49.19-1.74,1.88-.89,2.91,1.19,1.45,3.54-.23,4.36,1.73a2.19,2.19,0,0,1,0,1.63c-.68,1.89-1.75,2.79-3.73,1.82s-2.6-3.75-2.65-5.76C286.73,105.48,290.56,98.75,295.6,101.58Z"/><path class="cls-2" d="M293.85,128.94c2.06,1.28,4-1.94,2-3.22-4.31-2.68-9.09,1.36-11.43,4.88-2.64,4-4.08,10.74-1,14.91s9.2,2.2,11.44-1.72c2.38-4.17-.56-9.24-5.43-8.34a1.72,1.72,0,0,0-1.17,2.56c.81,1.66,2.23.21,3.28,1.27a1.7,1.7,0,0,1,.41.89,3.25,3.25,0,0,1-1,3c-1.65,1.45-4.26.23-5.11-1.52-.69-1.43-.22-4,.17-5.45C286.59,133.75,290.43,126.8,293.85,128.94Z"/><path class="cls-2" d="M287.92,163.44c-2.24.84-1.33,4.49.94,3.64a1.66,1.66,0,0,1,2.14,2c-.23,1.32-2,1.88-3.15,1.67-2.42-.45-3.56-3.2-3.48-5.37a10.89,10.89,0,0,1,1.71-5.25c1.63-2.46,4.24-2.38,6.88-2,2.4.33,2.44-3.43.07-3.76-5.61-.77-9.43,1.2-11.46,6.52-1.74,4.57-1.13,10.24,3.53,12.79a6.61,6.61,0,0,0,9.6-3.65C296.24,165.28,292.5,161.72,287.92,163.44Z"/><rect class="cls-6" x="314.19" y="4.83" width="25.48" height="189.16" transform="translate(11.5 -31.99) rotate(5.7)"/><path class="cls-2" d="M322.37,16.91,322,20.67A119.92,119.92,0,0,0,347.36,23l.38-3.76A115.44,115.44,0,0,1,322.37,16.91Z"/><path class="cls-2" d="M306.53,175.48l25.33,2.81.37-3.72-25.33-2.81Z"/><path class="cls-2" d="M307.77,163.11a233.79,233.79,0,0,0,25.31,3l.28-2.81a226.49,226.49,0,0,1-25.31-2.95Z"/><path class="cls-2" d="M339.11,29.63c-1.43-.24-3-.16-4.39-.32-2-.22-4-.54-5.9-.94-1.38-.29-2.66,1.18-2.76,2.47-.17,2-.55,4-.73,6.05l-.6,6.72c-.23,2.64-1.39,6.55-.64,9.16a3.4,3.4,0,0,0,2.14,2.3,22.81,22.81,0,0,0,6.63,1.5c1.49.19,3.35.69,4.75-.06,2.7-1.46,1.92-5.16,2.05-7.67.14-2.78.5-5.54.85-8.29.25-2.08.56-4.15.91-6.21.22-1.31.72-3.47-.76-4.27a3.15,3.15,0,0,0-.67-.24A6.59,6.59,0,0,0,339.11,29.63Zm-11,18.27,1.38-15.59a68.62,68.62,0,0,0,8.33,1q-.84,4.92-1.37,9.89c-.17,1.65-.31,3.31-.43,5-.09,1.28.18,3.11-.62,4.2s-3.82-.08-5.05-.32C327.05,51.45,327.79,51.33,328.1,47.9Z"/><path class="cls-2" d="M331.35,38a40.19,40.19,0,0,0-.84,8.75c0,2.4,3.77,2.72,3.74.3a40.67,40.67,0,0,1,.85-8.74C335.58,36,331.83,35.7,331.35,38Z"/><rect class="cls-6" x="583.79" y="11.55" width="29.88" height="182.44" transform="translate(-4.37 29.86) rotate(-2.85)"/><path class="cls-2" d="M593.18,21.07q4.7,79.53,6.7,159.18c.06,2.43,3.81,2.12,3.75-.3q-2-79.63-6.7-159.19C596.79,18.35,593,18.65,593.18,21.07Z"/><rect class="cls-1" x="643.77" y="8.33" width="44.64" height="184.73" transform="translate(-4.54 36.91) rotate(-3.16)"/><path class="cls-2" d="M668.88,17.53A9.63,9.63,0,0,0,663.05,15a7.81,7.81,0,0,0-6.86,2.5A10.59,10.59,0,0,0,653.83,24a8.7,8.7,0,0,0,15.69,5.38C672.16,25.83,672.22,20.67,668.88,17.53Zm-1.79,8.66a4.73,4.73,0,0,1-6.37,2.4,5.14,5.14,0,0,1-3-6.09,5.61,5.61,0,0,1,2.59-3.37,5.15,5.15,0,0,1,4.94.5A4.91,4.91,0,0,1,667.09,26.19Z"/><path class="cls-2" d="M665,45.26c-4.59-.69-9.4,2-10,7-.57,4.49,2.34,10.92,7.34,11.39,4.7.45,10.81-2.33,11.38-7.44.47-4.19-2.29-8.44-6.08-10.18A9.63,9.63,0,0,0,665,45.26Zm.58,14.15c-3.67,1-6-.85-6.76-4.43a5.62,5.62,0,0,1,1.46-5.24,6,6,0,0,1,5.48-1.09,6.47,6.47,0,0,1,3.11,2.53,6.07,6.07,0,0,1,.77,5.41C668.92,58.17,667.16,59,665.58,59.41Z"/><path class="cls-2" d="M668,75.44l-.65-.13a8.13,8.13,0,0,0-7.94,3c-3.1,4.4-1.9,11.35,2.34,14.61s10.34,1.56,11.81-3.55a15.24,15.24,0,0,0,0-8.52A8,8,0,0,0,668,75.44Zm2.16,11.73c-.54,3.3-3.86,4.83-6.51,2.39a7.77,7.77,0,0,1-2-7.16,4.9,4.9,0,0,1,1.79-2.7,5,5,0,0,1,2.51-1,3.11,3.11,0,0,1,2.75,1.11C670.5,81.91,670.62,84.55,670.18,87.17Z"/><path class="cls-2" d="M668.93,105.8c-4.75-1.45-8.48,2.79-9.43,7.28s.53,10,5.35,11.67,9.69-1.58,10.93-6.33a10.76,10.76,0,0,0-5.87-12.25A7,7,0,0,0,668.93,105.8Zm-1.7,15.58c-4.76-.24-5.12-6.85-3.24-10a3.77,3.77,0,0,1,4.07-2,4,4,0,0,1,1.38.31,5.18,5.18,0,0,1,2.53,3C673.12,116.25,671.74,121.61,667.23,121.38Z"/><path class="cls-2" d="M677.16,142.15a6.71,6.71,0,0,0-3.42-5.2,7.33,7.33,0,0,0-6.64-.12c-4.4,2.12-6.66,7.68-5.67,12.35s5.48,7.5,10.12,5.79a8.48,8.48,0,0,0,4.64-4.17,9.46,9.46,0,0,0,1-3,25.18,25.18,0,0,0,.24-3.68,11,11,0,0,0-.11-1.14Zm-5.83,8.71a3.82,3.82,0,0,1-6.16-2.16,7.88,7.88,0,0,1,1.61-6.89,5.55,5.55,0,0,1,4.11-1.92c2,0,3,2,2.92,3.81C673.68,146.28,673.68,149.21,671.33,150.86Z"/><path class="cls-2" d="M678.07,169.65a6.71,6.71,0,0,0-2.83-3c-4.62-2.2-9,1.46-11,5.46s-2.47,9.94,1.57,13c3.62,2.75,9,1.16,11.5-2.31,1.59-2.19,2-5.29,1.91-7.93a16.11,16.11,0,0,0-.23-2.6A10.4,10.4,0,0,0,678.07,169.65Zm-3.16,10c-1.28,2.19-3.76,4-6.21,2.84-4.79-2.19-1.43-10.47,2-12.32,2.17-1.17,4.32,1.37,4.89,3.21a8.73,8.73,0,0,1,.11,4.16A6.56,6.56,0,0,1,674.91,179.63Z"/><rect class="cls-5" x="97.48" y="2.86" width="31.72" height="191.13" transform="translate(4.49 -4.95) rotate(2.55)"/><path class="cls-2" d="M118.83,31.07l10-9.42c1.76-1.67-.79-4.43-2.55-2.77l-10,9.43-8.56-9.26A1.88,1.88,0,0,0,105,21.61l8.58,9.28L102.8,41c-1.76,1.66.79,4.43,2.56,2.77l10.73-10.11,8.73,9.44a1.88,1.88,0,0,0,2.76-2.56Z"/><path class="cls-2" d="M125,51.26l-10.41,9.62-8.48-9.07c-1.66-1.77-4.42.79-2.76,2.56l8.48,9.07L102.51,72a1.88,1.88,0,0,0,2.56,2.76l9.3-8.6q3.43,3.69,6.89,7.37c1.65,1.77,4.42-.78,2.76-2.55l-6.89-7.37L127.53,54A1.88,1.88,0,0,0,125,51.26Z"/><path class="cls-2" d="M126.64,84.35c1.49-1.91-1.69-3.92-3.17-2A90.74,90.74,0,0,1,113.15,93l-8.87-9.61A1.88,1.88,0,0,0,101.52,86l8.86,9.61a89.59,89.59,0,0,0-9.94,10.3c-1.5,1.91,1.69,3.91,3.17,2a85.22,85.22,0,0,1,9.24-9.66l7.83,8.49a1.88,1.88,0,0,0,2.76-2.55l-7.83-8.49A94.63,94.63,0,0,0,126.64,84.35Z"/><rect class="cls-2" x="107.86" y="163.34" width="3.76" height="31.72" transform="translate(-74.11 280.96) rotate(-87.48)"/><rect class="cls-6" x="210.47" y="9.75" width="14.97" height="184.73" transform="translate(4.76 -9.6) rotate(2.55)"/><path class="cls-2" d="M221.19,49.37c1.85-1.78,3.88-3.72,4.5-6.33s-.34-4.94-1.73-7c-2.2-3.33-8-8.18-.88-10.71,2.26-.8,1.28-4.44-1-3.62-5.06,1.79-8.07,6-5.17,11.13,1.43,2.51,4.24,4.52,5,7.36,1,3.62-3.14,6.08-5.25,8.35-3.49,3.75-3.89,7.91-.34,11.81,3,3.34,7.21,7,3,11.57-2.61,2.87-5.66,3.86-6.74,8a11,11,0,0,0,.7,7.55c1.51,3.12,4.74,5,6.24,8.08,3.09,6.25-7.07,9.83-7.52,16-.2,2.71,1.1,5.09,2.47,7.32,2.56,4.16,3.69,6.9.53,11.15-3.29,4.44-5.91,8.45-2.73,13.8,2.11,3.55,6.06,6.34,4.1,10.9-1.4,3.26-4.33,5.61-5.82,8.83a9.48,9.48,0,0,0-.41,7.54c1.32,3.6,5.16,6.31,4.87,10.4-.18,2.41,3.58,2.4,3.76,0,.46-6.41-7.86-10.63-4.49-17,2.32-4.38,7.06-7.78,6.45-13.27-.7-6.36-9.13-9.73-4.69-16.43,3-4.54,6.58-8,4.09-13.75-1.15-2.65-3.68-4.93-4.25-7.79-.81-4.06,3.61-6.67,5.8-9.42,3.14-3.93,2.85-8.09-.18-12-2.41-3.11-5.87-5.56-5.42-9.93.5-4.76,5.58-5.78,7.61-9.62,2.75-5.21.18-9.63-3.46-13.35-1.78-1.81-3.48-3.57-2.15-6.21A14.4,14.4,0,0,1,221.19,49.37Z"/><rect class="cls-3" x="256.94" y="10.21" width="14.97" height="184.73" transform="translate(11.5 -25.77) rotate(5.7)"/><path class="cls-2" d="M274.91,27.22a6,6,0,0,0-6.81.48c-2,1.42-2.7,4.17-2.91,6.45a6.29,6.29,0,0,0,3,5.86c3.27,2,7.23.08,8.94-3S278.13,29.22,274.91,27.22Zm-1.3,8.35c-.76,1.1-2.22,2-3.49,1.19-1.8-1.09-1.42-3.41-.68-5a2.79,2.79,0,0,1,.41-.71,2.41,2.41,0,0,1,3.92.25A3.89,3.89,0,0,1,273.61,35.57Z"/><path class="cls-2" d="M272.31,51.48a5.71,5.71,0,0,0-3.83-.81c-3.25.5-4.72,3.82-5.45,6.67s-.56,6.17,2.19,7.83c3.42,2.06,7.29-.73,8.79-3.87S275.57,53.51,272.31,51.48Zm-2.09,8.91c-.69,1-2.54,2.63-3.51,1.07s-.13-4.17.51-5.57,2.7-2.32,3.67-.5C271.69,56.89,271.13,59.06,270.22,60.39Z"/><path class="cls-2" d="M273,80.28c-.84-3.72-5.41-5.94-8.6-3.55a11.37,11.37,0,0,0-3.62,5.65,7.17,7.17,0,0,0,.38,5.23,5.89,5.89,0,0,0,8.74,1.81C272.66,87.45,273.75,83.51,273,80.28Zm-3.6,2.78c-.18,1.5-.89,3.19-2.44,3.68-1.75.56-2.8-.73-2.76-2.39a5.8,5.8,0,0,1,2.59-4.77C269.06,78.41,269.61,81.41,269.41,83.06Z"/><path class="cls-2" d="M269.44,104.76a5.69,5.69,0,0,0-7.21-3.6,5.62,5.62,0,0,0-2,1.22l-.33.31a7.89,7.89,0,0,0-2.1,4.41,12.09,12.09,0,0,0,.11,5.22c1.09,4.14,5.39,2.67,7.94.88S270.66,108.12,269.44,104.76Zm-3.77,3.34c-.47.9-2.3,3.05-3.5,2.45a1.37,1.37,0,0,1-.58-.61,3.65,3.65,0,0,1,.05-2.48,8.2,8.2,0,0,1,.65-1.9,3,3,0,0,1,.35-.57C264.52,102.64,266.64,106.24,265.67,108.1Z"/><path class="cls-2" d="M266.84,128.2c-2.07-4.79-8.35-3.65-10.72.16a7.19,7.19,0,0,0-.84,6.3c1.2,3.3,5.39,5.51,8.62,3.65S268.24,131.44,266.84,128.2ZM263.6,132c-.19,1.34-.88,3.43-2.56,3.27a2.91,2.91,0,0,1-2.36-3.3,4.73,4.73,0,0,1,1.52-3,2.17,2.17,0,0,1,.75-.22,2.06,2.06,0,0,1,2.28.64A3.72,3.72,0,0,1,263.6,132Z"/><path class="cls-2" d="M263.59,149.79a4.2,4.2,0,0,0-4.59-1.86,6.68,6.68,0,0,0-4.41,3.45c-1.46,2.75-2.73,7.92-.38,10.51s6.32,1.15,8.25-1.27a10.85,10.85,0,0,0,2-8.58A5.88,5.88,0,0,0,263.59,149.79Zm-3,6.33c-.33,1.14-1.58,3.8-3.2,3.39-1.2-.31-.6-3.17-.43-3.91a9,9,0,0,1,1-2.62c.4-.66,1.41-1.78,2.29-1.13C261.34,152.67,260.9,155,260.58,156.12Z"/><rect class="cls-4" x="479.3" y="9.87" width="35.68" height="184.73" transform="translate(5.04 -22.02) rotate(2.55)"/><path class="cls-2" d="M499.13,25.85a8.43,8.43,0,0,0-7.71,7.58c-.43,4.66,3.23,11.84,8.62,11.72,4.95-.11,8.81-5.25,8.8-9.92a9.75,9.75,0,0,0-4.19-7.87A8.36,8.36,0,0,0,499.13,25.85Zm2.46,15.06c-4.69,2-6.92-4.81-6.07-8.28.53-2.17,2.08-3.09,4.28-3.19a4.89,4.89,0,0,1,4.39,2.49C506,35,505,39.48,501.59,40.91Z"/><path class="cls-2" d="M475.65,183.67l35.61,2.4.17-3.75-35.61-2.4Z"/><path class="cls-2" d="M476,175.55q17.82,1,35.66,1.31l.17-3.76q-17.85-.27-35.66-1.3Z"/><path class="cls-2" d="M476.38,167.21q17.85.33,35.65,1.57l.17-3.75q-17.81-1.23-35.65-1.58Z"/><rect class="cls-5" x="544.79" y="12.54" width="32.91" height="182.44"/><path class="cls-2" d="M557.73,67.56c.57,1.17,1.13,2.34,1.7,3.5.35.74.79,2.57,1.88,2.43a1.82,1.82,0,0,0,.84-.4,6.53,6.53,0,0,0,1.75-2.91l1.73-4.26c1.15-2.77,2.32-5.52,3.53-8.27,1-2.34,2.14-4.64,3.14-7a4.72,4.72,0,0,0,.45-2.44,10.59,10.59,0,0,0-1-3q-1.34-3-2.78-6-2.84-5.79-6.12-11.33a1.42,1.42,0,0,0-2.44-.08c-1.54,3-3.39,5.84-4.69,9a60.92,60.92,0,0,1-3.79,7c-1.32,2.26-2.83,4-2.34,6.61.64,3.47,3.31,7.17,4.85,10.33Zm-4.73-20a22.85,22.85,0,0,1,2.18-3.75l3.52-6c.49-.84.92-1.71,1.32-2.58a15.53,15.53,0,0,1,1.3-3c.43-.53.21-.51.69,0a7.38,7.38,0,0,1,.81,1.46c.54,1,1.07,1.94,1.58,2.92q1.8,3.41,3.42,6.9c.75,1.61,1.91,3.22,2,5a5.13,5.13,0,0,1-.83,2.61c-.53,1.17-1.06,2.34-1.58,3.52q-3.13,7-6,14.19c-2.53-5.06-5.16-10.11-7.39-15.3C553.2,51.51,552.25,49.73,553,47.55Z"/><path class="cls-2" d="M558,118.57c.56,1.17,1.13,2.34,1.69,3.5.36.74.8,2.57,1.88,2.43a1.82,1.82,0,0,0,.84-.4,6.64,6.64,0,0,0,1.76-2.91c.57-1.42,1.14-2.84,1.73-4.26,1.14-2.77,2.32-5.52,3.52-8.27,1-2.34,2.14-4.64,3.15-7a4.7,4.7,0,0,0,.44-2.44,10.27,10.27,0,0,0-1-3c-.88-2-1.81-4-2.78-6-1.88-3.86-3.93-7.64-6.12-11.33a1.42,1.42,0,0,0-2.43-.08c-1.55,3-3.4,5.84-4.7,9a59.41,59.41,0,0,1-3.79,7c-1.31,2.26-2.83,4-2.34,6.61.65,3.47,3.32,7.17,4.85,10.33C555.74,114,556.84,116.3,558,118.57Zm-4.74-20a22.85,22.85,0,0,1,2.18-3.75l3.52-6c.49-.84.92-1.71,1.33-2.58a14.39,14.39,0,0,1,1.3-3c.42-.53.21-.51.68,0a7.13,7.13,0,0,1,.82,1.45c.53,1,1.06,1.95,1.58,2.93q1.78,3.4,3.42,6.9c.75,1.61,1.91,3.22,2,5a5,5,0,0,1-.83,2.61c-.53,1.17-1.06,2.34-1.58,3.52q-3.13,7-6,14.19c-2.53-5.06-5.16-10.11-7.39-15.3C553.41,102.52,552.47,100.74,553.21,98.56Z"/><path class="cls-2" d="M573.2,149.57a10.76,10.76,0,0,0-1-2.95c-.89-2-1.82-4-2.78-6q-2.83-5.79-6.12-11.34a1.43,1.43,0,0,0-2.44-.07c-1.54,3-3.39,5.84-4.7,9a58.67,58.67,0,0,1-3.78,7c-1.32,2.26-2.83,4-2.35,6.61.65,3.47,3.32,7.17,4.86,10.33l3.3,6.82,1.7,3.5c.35.73.79,2.57,1.88,2.43a1.74,1.74,0,0,0,.84-.41,6.48,6.48,0,0,0,1.75-2.91c.58-1.42,1.15-2.84,1.73-4.25,1.15-2.77,2.32-5.53,3.53-8.27,1-2.34,2.14-4.64,3.14-7A4.74,4.74,0,0,0,573.2,149.57Zm-3.72,2.88c-.53,1.17-1.06,2.34-1.58,3.51q-3.14,7-6,14.2c-2.53-5.07-5.16-10.12-7.39-15.3-.86-2-1.8-3.77-1-6a22.85,22.85,0,0,1,2.18-3.75l3.52-6.06a27.23,27.23,0,0,0,1.32-2.58,15.71,15.71,0,0,1,1.3-3c.43-.54.21-.51.69,0a7.3,7.3,0,0,1,.81,1.45c.54,1,1.07,1.95,1.58,2.93q1.8,3.4,3.42,6.89c.75,1.62,1.91,3.22,2,5.05A5.13,5.13,0,0,1,569.48,152.45Z"/><rect class="cls-5" x="412.46" y="0.54" width="28.81" height="194.02" transform="translate(4.76 -18.9) rotate(2.55)"/><path class="cls-2" d="M408.47,186.74q14.41,0,28.81.69l.17-3.75q-14.4-.72-28.81-.7Z"/><path class="cls-2" d="M408.81,179.14l28.8,1,.13-2.82-28.8-1Z"/><path class="cls-2" d="M409.12,172.23q14.42-.55,28.83.32l.12-2.81q-14.4-.88-28.83-.34Z"/><path class="cls-2" d="M416,17.65q14.42.47,28.78,1.45l.13-2.81q-14.39-1-28.78-1.46Z"/><rect class="cls-6" x="64.95" y="9.56" width="28.21" height="184.32" transform="translate(4.61 -3.42) rotate(2.55)"/><path class="cls-2" d="M73.37,17.93l-.66,15.51c-.1,2.42,3.66,2.41,3.76,0l.67-15.51C77.24,15.51,73.48,15.51,73.37,17.93Z"/><path class="cls-2" d="M81.3,18.4q-.19,7.77-.81,15.53c-.18,2.41,3.58,2.4,3.77,0q.6-7.75.8-15.53C85.13,16,81.36,16,81.3,18.4Z"/><path class="cls-2" d="M89.64,18.34A86.39,86.39,0,0,0,88.3,33.91c0,2.42,3.78,2.43,3.76,0a80,80,0,0,1,1.21-14.57C93.68,17,90.06,16,89.64,18.34Z"/><path class="cls-2" d="M75.58,45.67c-.11-2.41-3.87-2.42-3.76,0a100.85,100.85,0,0,1-.41,15c-.25,2.4,3.52,2.39,3.76,0A100.85,100.85,0,0,0,75.58,45.67Z"/><path class="cls-2" d="M79.51,46.62l-.93,14.57c-.16,2.42,3.6,2.41,3.76,0l.93-14.57C83.42,44.2,79.66,44.21,79.51,46.62Z"/><path class="cls-2" d="M86.76,47.08a110.54,110.54,0,0,1-1.23,14.54c-.36,2.37,3.26,3.39,3.63,1a117.1,117.1,0,0,0,1.36-15.54C90.57,44.66,86.81,44.66,86.76,47.08Z"/><path class="cls-2" d="M74.91,72.46c-.06-2.41-3.82-2.42-3.76,0A69,69,0,0,1,70.05,87c-.43,2.36,3.19,3.38,3.63,1A73.79,73.79,0,0,0,74.91,72.46Z"/><path class="cls-2" d="M78.55,72.47A142.82,142.82,0,0,1,77,87.93c-.37,2.37,3.25,3.39,3.63,1a154.08,154.08,0,0,0,1.73-16.46C82.43,70.05,78.67,70.06,78.55,72.47Z"/><path class="cls-2" d="M85.7,73.41a110.66,110.66,0,0,1-1.08,14.08c-.35,2.36,3.28,3.39,3.62,1a115.4,115.4,0,0,0,1.22-15.08C89.5,71,85.73,71,85.7,73.41Z"/><path class="cls-2" d="M69.79,97.79a110,110,0,0,1-2.23,18.34c-.47,2.26,3.16,3.22,3.63,1a114.89,114.89,0,0,0,2.36-19.29C73.64,95.48,69.87,95.48,69.79,97.79Z"/><path class="cls-2" d="M77.55,98.34l-2,18.8c-.26,2.4,3.51,2.38,3.76,0l2-18.8C81.56,95.93,77.8,96,77.55,98.34Z"/><path class="cls-2" d="M84.79,98.35q-.78,9.18-2.34,18.25c-.42,2.41,3.21,3.45,3.63,1q1.65-9.59,2.48-19.27C88.77,95.89,85,95.9,84.79,98.35Z"/><rect class="cls-4" x="234.5" y="5.68" width="19.28" height="188.81" transform="translate(13.8 -28.63) rotate(6.91)"/><path class="cls-2" d="M243.76,23l19.18,2,.45-3.72-19.18-2Z"/><path class="cls-2" d="M226.41,166.29l19.12,2.5.45-3.71-19.12-2.51Z"/><path class="cls-2" d="M225.55,173.43a158.17,158.17,0,0,1,19.18,2l.45-3.71a164.49,164.49,0,0,0-19.18-2Z"/><rect class="cls-3" x="5.99" y="198.01" width="697.79" height="21.35"/><rect class="cls-7" y="191.79" width="709.78" height="21.35"/><g class="cls-8"><path class="cls-3" d="M662.06,191.79H660c2.93,4.53,4.76,11.71,1,17.29a13.38,13.38,0,0,1-4.36,4h3.08a14.71,14.71,0,0,0,2.76-3.06C666.1,204.61,665.18,197.23,662.06,191.79Z"/><path class="cls-3" d="M581.19,192.8a27.18,27.18,0,0,0-6.27-.12A41.54,41.54,0,0,0,556.75,199a180.61,180.61,0,0,0-17.24,12.19c-.86.67-1.67,1.3-2.46,1.9H540l.65-.5a181.48,181.48,0,0,1,17.07-12.08,40,40,0,0,1,17.4-6.1,25.4,25.4,0,0,1,5.87.11c2.89.4,10.56,1.45,12.35,6,1.48,3.79-1.51,8.95-5.08,11.89-.29.24-.59.47-.9.68h2.81c3.19-3,6.7-8.45,4.82-13.22C592.78,194.39,584.36,193.23,581.19,192.8Z"/><path class="cls-3" d="M587.75,200.63c-3.26-4.89-14-3.13-20.66-.32-5.6,2.38-12.94,7.55-15.12,12.82h1.95c2.25-4.39,8.76-9,13.87-11.18,6.11-2.6,15.93-4.16,18.48-.33a5.92,5.92,0,0,1-1.15,7.26,6,6,0,0,1-5.17.84c-.86-.25-1.35-.63-1.44-.88-.19-.54,1.12-1.85,1.9-2.63,1.33-1.33,2.7-2.7,2.08-4.11-.87-2-4.93-1.62-7.29-.94a16.21,16.21,0,0,0-9.36,7.7,6,6,0,0,0-.66,4.27h1.93a1.59,1.59,0,0,1-.17-.31,4.12,4.12,0,0,1,.49-3.17,14.53,14.53,0,0,1,8.26-6.78c2.57-.74,5-.46,5.17-.05,0,.38-1.09,1.52-1.7,2.13-1.42,1.42-2.89,2.89-2.33,4.48a3.67,3.67,0,0,0,2.63,2,7.92,7.92,0,0,0,6.77-1.16C589.15,208,589.45,203.18,587.75,200.63Z"/><path class="cls-3" d="M638.68,209c-1-1.78-1.88-3.46-3.68-3.38-2,.08-2.91,2.27-3.92,4.8-.36.9-.74,1.85-1.19,2.75h2c.32-.71.61-1.42.87-2.09.75-1.88,1.46-3.65,2.35-3.69h0c.65,0,1.19.94,2,2.46a22.38,22.38,0,0,0,2.1,3.32h2.44A14.55,14.55,0,0,1,638.68,209Z"/><path class="cls-3" d="M439.16,191.79c-.05.67-.1,1.33-.13,2-.24,5.34.32,14.69,3.48,19.36h2.3c-1.57-1.54-2.8-4.74-3.49-9.19a52.07,52.07,0,0,1-.38-12.15Z"/><path class="cls-3" d="M673.32,207.37c-1.22-2.6-2.17-4.66-4.13-4.46a4.33,4.33,0,0,0-2.94,2.31,16.23,16.23,0,0,0-2.15,7.91h1.77a14.4,14.4,0,0,1,1.88-7c.66-1,1.27-1.44,1.62-1.48.71-.09,1.49,1.64,2.34,3.45a38.27,38.27,0,0,0,2.69,5h2.17A31.35,31.35,0,0,1,673.32,207.37Z"/><path class="cls-3" d="M435.46,207.75a7.33,7.33,0,0,1,.83,5.15,1.55,1.55,0,0,1-.08.23h1.84a9.24,9.24,0,0,0-1-6.17c-1.06-2.14-5.15-8.2-11.3-15.17h-2.47C430.11,199.35,434.58,206,435.46,207.75Z"/><path class="cls-3" d="M547.07,195.86c-1.42,3-5.22,3.54-12.12,4.48a145.63,145.63,0,0,0-22,4.38c-.85.24-14.3,4.12-22.91,8.41h4.21a165.27,165.27,0,0,1,19.18-6.7,143.68,143.68,0,0,1,21.76-4.33c7.27-1,11.66-1.58,13.49-5.49a9.47,9.47,0,0,0,.75-4.82h-1.79A8.06,8.06,0,0,1,547.07,195.86Z"/><path class="cls-3" d="M602.59,199.52c1,5-2.42,10.3-4.81,13.61H600c2.45-3.56,5.37-8.73,4.38-13.95-.72-3.77-3.16-5.8-5.28-7.39h-2.94c.44.36.91.71,1.39,1.07C599.69,194.47,602,196.14,602.59,199.52Z"/><path class="cls-3" d="M338.24,191.79c-.48,2-.37,3.48.34,4.51,1.91,2.75,7.75,1.31,11.62.35a34.24,34.24,0,0,0,11.14-4.86h-3.43a33.32,33.32,0,0,1-8.14,3.14c-2.76.68-8.52,2.1-9.73.36-.43-.63-.41-1.89,0-3.5Z"/><path class="cls-3" d="M670.89,200c2.73,2.63,9.14,8.77,19.14,10.46.58.1,12.09,2,19.75-3v-2.2c-7,5.46-19.31,3.48-19.45,3.46-9.46-1.6-15.59-7.48-18.21-10a37.62,37.62,0,0,1-5.75-6.92h-2.1A38.79,38.79,0,0,0,670.89,200Z"/><path class="cls-3" d="M672.4,191.79c-.09,1.6.84,3.4,2.7,5.21,4.35,4.22,13.25,8.07,21.84,7.24,5.29-.51,9.63-2.73,12.84-4.38v-2l-.65.34c-3.09,1.6-7.33,3.79-12.36,4.28-8,.77-16.48-2.9-20.43-6.75-1.47-1.43-2.24-2.8-2.17-3.87,0,0,0,0,0-.06Z"/><path class="cls-3" d="M688.86,194.79c4.44,2.45,8.14,3.06,11,1.82,2.23-1,3-2.66,3.89-4.46l.18-.36h-2c-.7,1.47-1.31,2.54-2.79,3.18-2.34,1-5.52.43-9.45-1.74a15.41,15.41,0,0,1-2.17-1.44h-2.67A17.37,17.37,0,0,0,688.86,194.79Z"/><path class="cls-3" d="M451.56,199.31c5.12,1.56,9.77-2.38,15.55-7.52h-2.68c-4.68,4.1-8.56,7-12.35,5.82-2.68-.82-4.37-3.28-5.61-5.82h-2C445.9,194.84,448,198.22,451.56,199.31Z"/><path class="cls-3" d="M358.86,209.74c.68-3.55,6.64-5.64,11.43-7.33,5.49-1.93,14.88-3.86,16.73-.82a4,4,0,0,1,.17,3,4.52,4.52,0,0,1-2,2.82c-1.89,1-4.62-.78-6.81-2.18-1.94-1.23-3.46-2.2-4.51-1.24-.76.7-.65,2.08-.42,3.11a14.55,14.55,0,0,0,3.14,6h2.5a13.1,13.1,0,0,1-3.39-4.78,6.87,6.87,0,0,1-.65-2.91,13.89,13.89,0,0,1,2.37,1.33c2.44,1.55,5.78,3.68,8.57,2.27a6.26,6.26,0,0,0,2.94-3.93,5.6,5.6,0,0,0-.36-4.44c-3.19-5.25-17.25-.5-18.84.06-5.49,1.93-11.72,4.12-12.59,8.68a7,7,0,0,0,.4,3.72h1.93A5.75,5.75,0,0,1,358.86,209.74Z"/><path class="cls-3" d="M462.66,202.22a35,35,0,0,1-11.28,10.14c-.53.31-1,.56-1.42.77h3.59a36.4,36.4,0,0,0,10.51-9.82c1.81-2.33,3.38-4.34,6-5.86,4.87-2.83,9.6-1.74,14.18-.68s9.46,2.2,13.92-1.16a11.19,11.19,0,0,0,3.26-3.82h-2.07a9.4,9.4,0,0,1-2.26,2.4c-3.8,2.85-7.81,1.93-12.45.85s-10-2.32-15.48.87C466.25,197.61,464.5,199.85,462.66,202.22Z"/><path class="cls-3" d="M422,197.25c-1.78-1.07-5.31-2.44-7.26-.81s-.83,4.44.49,8.06a39,39,0,0,1,2.35,8.63h1.78a39.69,39.69,0,0,0-2.46-9.23c-1-2.86-1.93-5.33-1-6.09s3.42-.1,5.2,1c4.15,2.49,5,7.86,5.8,12.59.1.61.2,1.19.3,1.76H429c-.12-.65-.24-1.34-.35-2C427.88,206.22,426.89,200.17,422,197.25Z"/><path class="cls-3" d="M407.7,191.79h-2.26c3.47,4.2,5.27,8.86,5,13.29a17.32,17.32,0,0,1-2.66,8h2.09a18.73,18.73,0,0,0,2.35-7.95C412.48,200.69,410.87,196,407.7,191.79Z"/><path class="cls-3" d="M479.29,204.17c4.5-1.89,7.53-2.09,12.55-2.42,3.6-.24,8.09-.54,14.82-1.52,16.56-2.43,25.69-3.77,26.53-8.28a.86.86,0,0,0,0-.16h-1.81c-.91,3.14-11,4.63-25,6.68-6.65,1-11.1,1.27-14.67,1.5-5.21.35-8.35.55-13.12,2.56-6.05,2.55-8.81,5.56-12,9-.46.5-.94,1-1.45,1.56h2.43l.33-.36C471.09,209.31,473.6,206.57,479.29,204.17Z"/><path class="cls-3" d="M600,213.13h2.42a76.13,76.13,0,0,0,10.48-15,41.4,41.4,0,0,1,3.68-5.82c.16-.19.34-.37.5-.56h-2.3a46.55,46.55,0,0,0-3.43,5.51,73.83,73.83,0,0,1-10.78,15.23Z"/><path class="cls-3" d="M646.53,199.44c-1.35-3.1-9.41-2.12-14.43-.49-7.41,2.4-15.05,8.1-17.41,13a6.9,6.9,0,0,0-.48,1.21h1.88c.06-.15.13-.3.2-.44,2.14-4.41,9.47-9.81,16.35-12.05,6.23-2,11.73-1.69,12.26-.49.19.45-.57,1.45-1.18,2.25-1,1.31-2.15,2.81-1.5,4.4.52,1.27,2.15,2.24,4.35,2.59s5.29,0,6.94-1.91c2.44-2.89.82-8.64-2.27-11.86a14.07,14.07,0,0,0-8.67-3.83h-6.16a39.7,39.7,0,0,0-16.07,5.47c-7.17,4.4-9.61,9.49-12,14.4-.24.5-.47,1-.71,1.47h2c.11-.23.22-.47.34-.7,2.24-4.68,4.55-9.53,11.28-13.66,9.09-5.58,23.11-7.74,28.69-1.92,2.46,2.56,4,7.36,2.19,9.48-1.1,1.3-3.46,1.59-5.3,1.3s-2.77-1-3-1.5.55-1.71,1.26-2.65C646.08,202.24,647.14,200.85,646.53,199.44Z"/><path class="cls-3" d="M118.66,191.79a16.39,16.39,0,0,0,.62,12.41c2.22,4.36,7.11,7.78,12.77,8.93h7.11a9.94,9.94,0,0,0,4.16-2,12.13,12.13,0,0,0,3.94-8.15,7.42,7.42,0,0,0-1.63-5.58c-2.15-2.39-6-2.57-8.09-2.11-1.29.28-2.08.82-2.31,1.55-.44,1.43,1.29,2.46,3.29,3.67,1,.59,2.84,1.7,2.92,2.17-.12.32-1.35,1.07-3.67,1.4-3,.42-7.07,0-9-2.61-1-1.42-1.66-3.69-.82-5.28,1.2-2.25,5.72-3.92,10.76-4,4.61,0,10.34,1.32,12.58,5.33,1.24,2.2,1.37,5.18.37,8.38a19.3,19.3,0,0,1-4.16,7.19h2.31a20.74,20.74,0,0,0,3.55-6.67c1.14-3.66,1-7.14-.51-9.77a11.54,11.54,0,0,0-6-4.9H131.14a8.66,8.66,0,0,0-4.74,3.58c-1.24,2.35-.37,5.36,1,7.17,2.45,3.34,7.6,4,11.62,3.15,1.13-.23,3.82-1,4.19-2.59s-1.62-2.83-3.74-4.1a13.65,13.65,0,0,1-2.39-1.65,5.18,5.18,0,0,1,2.28-.47,6.6,6.6,0,0,1,5,1.73,5.73,5.73,0,0,1,1.18,4.27,10.46,10.46,0,0,1-3.31,6.9c-2.17,1.82-5.82,2.42-9.77,1.61-5.14-1-9.57-4.11-11.55-8-1.79-3.51-1.63-7.73-.28-11.6Z"/><path class="cls-3" d="M331.12,195c.47,1.87.95,3.82,3.2,5.53,5,3.83,15.23,1.29,35.58-3.78a40.94,40.94,0,0,1,5.09-.93c4.4-.53,9-1.07,12.85.8,3.5,1.68,8.64,6.28,7.52,11.47a8.62,8.62,0,0,1-3.54,5.07h2.72a9.67,9.67,0,0,0,2.56-4.7c1.33-6.18-4.5-11.53-8.49-13.44-4.36-2.1-9.17-1.52-13.83-1a40.48,40.48,0,0,0-5.33,1c-19.78,4.92-29.7,7.4-34.05,4.09-1.76-1.34-2.13-2.83-2.55-4.55a14.68,14.68,0,0,0-.9-2.75h-2A10.3,10.3,0,0,1,331.12,195Z"/><path class="cls-3" d="M110.56,196.81a24.71,24.71,0,0,0,3.88,10.6,28.06,28.06,0,0,0,5.27,5.72h2.85a27.88,27.88,0,0,1-6.65-6.72,23.22,23.22,0,0,1-3.6-9.91,25.13,25.13,0,0,0-1.15-4.71h-1.92A20.36,20.36,0,0,1,110.56,196.81Z"/><path class="cls-3" d="M23.8,209.89c-1.15-1.34-3.78-.34-6.33.63a24.53,24.53,0,0,0-5,2.61h3.52c.64-.31,1.35-.63,2.17-.94,1.14-.44,3.81-1.46,4.32-1.17.15.33-.13,1.12-.65,2.11h1.93C24.26,211.8,24.42,210.61,23.8,209.89Z"/><path class="cls-3" d="M92.41,196.5A22.21,22.21,0,0,0,98,199.61a11.07,11.07,0,0,1,3.7,2.17c3.09,2.88,4.85,8.1,4.16,11.35h1.81c.67-4.07-1.55-9.66-4.76-12.65A12.63,12.63,0,0,0,98.66,198a20.89,20.89,0,0,1-5.18-2.89,34,34,0,0,1-3.82-3.29H87.29A28.8,28.8,0,0,0,92.41,196.5Z"/><path class="cls-3" d="M90.62,202.15c1.77,2.56,1.72,3.64,1.61,3.79-.26.34-.49.53-.69.55-.6.1-1.77-.86-3.12-2a38.34,38.34,0,0,0-10.72-6.47c-6.35-2.46-10.31-3.81-11.71-1.92-1.82,2.46,3.33,8.3,5,10a38.45,38.45,0,0,0,9,6.95H83.7A38.57,38.57,0,0,1,72.25,205c-3.61-3.85-5.27-7.16-4.83-7.76.7-.94,7.19,1.58,9.64,2.52a36.38,36.38,0,0,1,10.24,6.19c1.88,1.51,3.13,2.51,4.47,2.34A2.84,2.84,0,0,0,93.66,207c.85-1.14.32-3.11-1.58-5.85a44.81,44.81,0,0,0-9.32-9.35H79.7A44,44,0,0,1,90.62,202.15Z"/><path class="cls-3" d="M28.61,194.12c-1,1.9-2.51,3.22-3.86,3.46-.6.11-1.45,0-5.88-2.82-1.93-1.22-3.37-2.2-4.46-3H11.34l.81.57c1.18.85,3,2.13,5.77,3.9,4.84,3.05,5.94,3.29,7.14,3.08,1.9-.34,3.81-2,5.11-4.38a11.38,11.38,0,0,0,1.16-3.17H29.52A10.21,10.21,0,0,1,28.61,194.12Z"/><path class="cls-3" d="M0,193.94a23.3,23.3,0,0,1,1.67-2.15H0Z"/><path class="cls-3" d="M54.67,191.79h-2A7.11,7.11,0,0,0,52,193.9c-.78,6,6.49,11.09,12.32,15.17a57.74,57.74,0,0,1,5.38,4.06h2.4c-1.28-1.68-3.82-3.46-6.75-5.51-5.45-3.82-12.23-8.56-11.59-13.49A6.06,6.06,0,0,1,54.67,191.79Z"/><path class="cls-3" d="M30.31,210.53c-.84-.82-1.82-1.79-3-2.93-12.5-12-15.14-12.42-16.94-11.75-2.35.87-3.94,4.27-3.21,6.85.89,3.15,4.94,4.23,7.62,4.94l.93.25a17.18,17.18,0,0,1-6.76,1c-1.93-.1-4.55-.62-6-2.54-1.58-2.08-1.51-5.51.18-9.17a14.1,14.1,0,0,1,4.16-5.41H4.61a17.86,17.86,0,0,0-3.12,4.66c-2,4.27-2,8.38,0,11,3.16,4.16,10.05,3.53,13.63,2.5,3-.86,3-1.74,3.08-2.07.1-1.14-1.13-1.47-3-2-2.29-.61-5.75-1.53-6.37-3.7-.48-1.69.63-4.15,2.12-4.71,1-.37,3.68.4,15.09,11.37,1.18,1.14,2.16,2.1,3,2.92.5.5,1,.93,1.37,1.33H33C32.32,212.51,31.47,211.68,30.31,210.53Z"/><path class="cls-3" d="M58.12,213.13h2a5.88,5.88,0,0,0-.33-4.1c-1.84-4.67-7.88-10.14-14.06-12.73-3-1.27-8.71-3.64-12-.74-2.38,2.07-2.59,5.9-2,8.78.44,2.15,1.51,4.64,3.21,5.19,1,.34,1.86-.34,2.73-1.05a13,13,0,0,1,2.4-1.67c3.15-1.65,7.36-1.83,9.44-1.05.57.21.83.44.88.58.12.31-.14,1.29-1.36,2.76a17.93,17.93,0,0,1-4.87,4h3.17a18.17,18.17,0,0,0,3.07-2.9c1.06-1.28,2.21-3.1,1.65-4.53a3,3,0,0,0-1.91-1.61c-2.5-.93-7.26-.76-10.89,1.14a15,15,0,0,0-2.71,1.87,4.47,4.47,0,0,1-1.05.74c-.64-.2-1.56-1.63-2-3.85s-.37-5.52,1.43-7.08c2.5-2.18,7.5-.09,10.19,1,5.78,2.41,11.41,7.46,13.09,11.73a4.12,4.12,0,0,1,.23,3.09A2.16,2.16,0,0,1,58.12,213.13Z"/><path class="cls-3" d="M303.21,196.31c-1.06-2.3-4.47-3.82-9.37-4.18-7.29-.53-17,1.77-21.09,8.07a9.82,9.82,0,0,0-1.59,5.74,10.87,10.87,0,0,1-2.46,7.19h2.19a13,13,0,0,0,1.21-2.34,13.17,13.17,0,0,0,.84-4.8,8.13,8.13,0,0,1,1.3-4.82c3.68-5.69,12.68-7.76,19.47-7.26,4.05.29,7.14,1.53,7.88,3.14.52,1.14-.19,2.47-.94,3.88-.85,1.59-1.81,3.39-.79,5.1,1.33,2.25,4.42,1.85,8.7,1.3,4.53-.58,10.72-1.38,17.11.86a28.59,28.59,0,0,1,8.84,4.94H337c-2.34-2.75-7.07-5.33-10.75-6.62-6.79-2.38-13.23-1.55-17.92-.94-3.47.45-6.21.8-6.95-.45-.47-.79,0-1.79.83-3.35S304.1,198.25,303.21,196.31Z"/><path class="cls-3" d="M185.86,202.26c-.4-1.7-1-4.28.28-5.92,2.67-3.41,13.11-2.2,21.09,2.44a47.58,47.58,0,0,1,4.08,2.76,42.38,42.38,0,0,0,9.55,5.58,19.75,19.75,0,0,0,6.76,2c4.93.37,13.52-1.53,15.59-8.18a13,13,0,0,0-.88-9.16h-2l.16.25a11.13,11.13,0,0,1,1,8.38c-1.66,5.37-9,7.29-13.75,6.94-2.08-.16-3.48-.72-6.21-1.88a41.29,41.29,0,0,1-9.19-5.37,45.37,45.37,0,0,0-4.24-2.86c-8.09-4.72-19.81-6.58-23.38-2-1.81,2.32-1.06,5.51-.61,7.42a20.1,20.1,0,0,0,6.6,10.47h2.77C190.34,210.65,187.05,207.33,185.86,202.26Z"/><path class="cls-3" d="M177.49,208.53a29.6,29.6,0,0,1,1.19,4.6h1.81a33.51,33.51,0,0,0-1.32-5.18c-2-5.66-5.93-11.3-11.07-16.16h-2.72C171,196.77,175.47,202.7,177.49,208.53Z"/><path class="cls-3" d="M160.5,203.51a4,4,0,0,1,2.06-2.41c2.5-.7,7,5.82,10,10.14.47.68.91,1.31,1.33,1.89h2.19c-.7-.95-1.42-2-2.06-2.91-3.87-5.56-8.26-11.87-12-10.84-1.28.36-2.39,1.54-3.21,3.42a17.88,17.88,0,0,0-.82,10.33h1.83A15.9,15.9,0,0,1,160.5,203.51Z"/><path class="cls-3" d="M285.75,206.49c-2.26.5-3,3.77-3.5,6.64h1.81c.38-2,1-4.67,2.08-4.91,1.31-.29,3.41,2.67,4.87,4.91h2.12C291.05,209.87,288.49,205.89,285.75,206.49Z"/><path class="cls-3" d="M308.72,191.79H306.8c-1,3.21,1.79,4.62,2.87,5.16a4.06,4.06,0,0,1,.38.2c5.46,6.89,15.54,7.61,23.64,8.19,6.31.45,11.76.84,13.28,3.76a5.81,5.81,0,0,1,.14,4h1.83a7.19,7.19,0,0,0-.39-4.85c-2-3.8-7.89-4.23-14.74-4.72-8.18-.58-17.45-1.24-22.41-7.58a2.5,2.5,0,0,0-.93-.62c-1.44-.72-2.58-1.46-1.9-3.26C308.61,192,308.67,191.89,308.72,191.79Z"/><path class="cls-3" d="M223.27,202.8c4.18,2.24,8.45,3.82,11.34.22a2.11,2.11,0,0,0,.54-2c-.34-1.17-1.74-1.64-3.36-2.18s-3.47-1.17-3.67-2.34a5.71,5.71,0,0,1,1.82-4.74h-2.29a6.91,6.91,0,0,0-1.28,5c.37,2.22,2.86,3,4.85,3.72a7.18,7.18,0,0,1,2.22,1,.92.92,0,0,1-.22.39c-1.72,2.14-4.19,2-9.11-.68-3.37-1.8-6-5.57-7.06-9.44h-1.83C216.37,196.28,219.31,200.68,223.27,202.8Z"/><path class="cls-3" d="M255.51,203a23.83,23.83,0,0,1-5.63,10.16h2.42a26.58,26.58,0,0,0,4.92-9.67,27.17,27.17,0,0,0,.82-11.67h-1.82A25.58,25.58,0,0,1,255.51,203Z"/><path class="cls-3" d="M207.21,202.24c-3.19-2.29-8.51-6.13-12-4.1-2.49,1.45-2.84,5.13-2.66,7.07.29,3,2.13,5.68,4.74,7.92h2.89c-3.17-2.25-5.56-4.95-5.86-8.08-.19-2,.37-4.55,1.79-5.38,2.48-1.44,7.4,2.1,10,4l.55.39a106.33,106.33,0,0,0,15.46,9.06h4.38a100.53,100.53,0,0,1-18.81-10.5Z"/><path class="cls-3" d="M279.81,208.92c-.11-2.08.19-4.92,2.26-6.67,2.78-2.33,7.5-1.7,10.54.09s3.83,4.37,4.78,7.36a33.42,33.42,0,0,0,1.21,3.43h2a28,28,0,0,1-1.48-4c-1-3.07-2-6.24-5.57-8.36s-9.15-2.81-12.59.08-3.36,8.12-2.17,12.24h1.86A16.76,16.76,0,0,1,279.81,208.92Z"/></g></g></g></svg>