<svg xmlns="http://www.w3.org/2000/svg" xmlns:xlink="http://www.w3.org/1999/xlink" viewBox="0 0 80.27 80.27"><defs><style>.cls-1{fill:url(#linear-gradient);}.cls-2,.cls-3{fill:#fff;fill-rule:evenodd;}.cls-2{opacity:0.4;}.cls-3{opacity:0.8;isolation:isolate;}</style><linearGradient id="linear-gradient" x1="-488.24" y1="37.34" x2="76.73" y2="40.33" gradientUnits="userSpaceOnUse"><stop offset="0" stop-color="#045775"/><stop offset="0.41" stop-color="#2180ae"/><stop offset="1" stop-color="#21aeab"/></linearGradient></defs><title>CF</title><g id="Layer_2" data-name="Layer 2"><g id="Layer_1-2" data-name="Layer 1"><circle class="cls-1" cx="40.14" cy="40.14" r="40.14"/><path class="cls-2" d="M17,23.4a6.27,6.27,0,0,0-2.13,4.65V52.13A6.9,6.9,0,0,0,17,57a7.17,7.17,0,0,0,4.94,2.1h12V69.67L45.06,59.1H58.58A5.84,5.84,0,0,0,63.05,57a7.43,7.43,0,0,0,1.77-4.91V28.05a6.2,6.2,0,0,0-6.24-6.56H21.92A7.5,7.5,0,0,0,17,23.4ZM32.49,60.51H21.92A8.57,8.57,0,0,1,16,58a8.35,8.35,0,0,1-2.58-5.88V28.05A7.66,7.66,0,0,1,16,22.36a8.91,8.91,0,0,1,5.9-2.27H58.58A7.48,7.48,0,0,1,64.1,22.4a8.19,8.19,0,0,1,2.12,5.65V52.13A8.84,8.84,0,0,1,64.11,58a7.24,7.24,0,0,1-5.53,2.55h-13L32.49,72.93Z"/><g id="CF"><path id="C" class="cls-3" d="M34.07,51.19c-6.57,0-11.2-4.85-11.2-11.33a10.89,10.89,0,0,1,11.2-11.29A10.16,10.16,0,0,1,42,31.84l-2.86,3.3a6.48,6.48,0,0,0-5-2.44c-4,0-6.63,3-6.63,7.16s2.62,7.2,6.63,7.2a6.51,6.51,0,0,0,5.11-2.5L42,47.86a10.08,10.08,0,0,1-7.94,3.33Z"/></g><polygon id="F" class="cls-3" points="58.08 28.96 44.41 28.96 44.41 50.8 48.96 50.8 48.96 41.98 56.54 41.98 56.54 38.11 48.96 38.11 48.96 33.09 58.08 33.09 58.08 28.96"/></g></g></svg>