<svg xmlns="http://www.w3.org/2000/svg" xmlns:xlink="http://www.w3.org/1999/xlink" viewBox="0 0 51.87 51.87"><defs><style>.cls-1{fill:#002e3b;}.cls-2,.cls-3,.cls-4,.cls-5,.cls-6{fill:#fff;}.cls-2,.cls-5{opacity:0.4;}.cls-2{clip-path:url(#clip-path);}.cls-2,.cls-3,.cls-4{clip-rule:evenodd;}.cls-3,.cls-4,.cls-6{opacity:0.8;}.cls-3{clip-path:url(#clip-path-2);}.cls-4{clip-path:url(#clip-path-3);}.cls-5,.cls-6{fill-rule:evenodd;}</style><clipPath id="clip-path"><circle class="cls-1" cx="25.93" cy="25.93" r="25.93"/></clipPath><clipPath id="clip-path-2"><path class="cls-2" d="M7.36,17.52A3.63,3.63,0,0,0,5,18.37a2.74,2.74,0,0,0-1,2.08V32A3.5,3.5,0,0,0,7.36,35.3H23.3v4.83l5.16-4.83H45.15a2.56,2.56,0,0,0,2-1A3.69,3.69,0,0,0,47.93,32V20.45a2.71,2.71,0,0,0-2.78-2.93Zm15,24.77v-6h-15A4.42,4.42,0,0,1,3.09,32V20.45a3.65,3.65,0,0,1,1.33-2.79,4.61,4.61,0,0,1,2.94-1.08H45.15a3.66,3.66,0,0,1,2.7,1.11,4,4,0,0,1,1,2.76V32a4.57,4.57,0,0,1-1,2.92,3.48,3.48,0,0,1-2.72,1.31H28.83l-6.46,6Z"/></clipPath><clipPath id="clip-path-3"><path class="cls-3" d="M12.1,31.34A5,5,0,0,1,7,26.2a5,5,0,0,1,5.1-5.13,4.64,4.64,0,0,1,3.59,1.48l-1.3,1.5a3,3,0,0,0-2.29-1.11,3,3,0,0,0-3,3.26,3,3,0,0,0,3,3.27,3,3,0,0,0,2.32-1.14l1.28,1.5A4.55,4.55,0,0,1,12.1,31.34Z"/></clipPath><clipPath id="clip-path-4"><path class="cls-4" d="M21.1,22.94a3,3,0,0,0-3,3.29,3,3,0,1,0,6,0A3,3,0,0,0,21.1,22.94Zm0,8.4A5,5,0,0,1,16,26.23a5,5,0,0,1,5.09-5.16,5,5,0,0,1,5.11,5.16A5,5,0,0,1,21.1,31.34Z"/></clipPath></defs><title>COPD</title><g id="Layer_2" data-name="Layer 2"><g id="Layer_1-2" data-name="Layer 1"><circle class="cls-1" cx="25.93" cy="25.93" r="25.93"/><path class="cls-5" d="M7.36,17.52A3.63,3.63,0,0,0,5,18.37a2.74,2.74,0,0,0-1,2.08V32A3.5,3.5,0,0,0,7.36,35.3H23.3v4.83l5.16-4.83H45.15a2.56,2.56,0,0,0,2-1A3.69,3.69,0,0,0,47.93,32V20.45a2.71,2.71,0,0,0-2.78-2.93Zm15,24.77v-6h-15A4.42,4.42,0,0,1,3.09,32V20.45a3.65,3.65,0,0,1,1.33-2.79,4.61,4.61,0,0,1,2.94-1.08H45.15a3.66,3.66,0,0,1,2.7,1.11,4,4,0,0,1,1,2.76V32a4.57,4.57,0,0,1-1,2.92,3.48,3.48,0,0,1-2.72,1.31H28.83l-6.46,6Z"/><path class="cls-6" d="M12.1,31.34A5,5,0,0,1,7,26.2a5,5,0,0,1,5.1-5.13,4.64,4.64,0,0,1,3.59,1.48l-1.3,1.5a3,3,0,0,0-2.29-1.11,3,3,0,0,0-3,3.26,3,3,0,0,0,3,3.27,3,3,0,0,0,2.32-1.14l1.28,1.5A4.55,4.55,0,0,1,12.1,31.34Z"/><path class="cls-6" d="M21.1,22.94a3,3,0,0,0-3,3.29,3,3,0,1,0,6,0A3,3,0,0,0,21.1,22.94Zm0,8.4A5,5,0,0,1,16,26.23a5,5,0,0,1,5.09-5.16,5,5,0,0,1,5.11,5.16A5,5,0,0,1,21.1,31.34Z"/><path class="cls-6" d="M29.63,23v3h1.72A1.42,1.42,0,0,0,33,24.51,1.44,1.44,0,0,0,31.35,23Zm0,8.16H27.57V21.23h4a3.29,3.29,0,1,1,0,6.56H29.63Z"/><path class="cls-6" d="M38.45,23.15V29.3h1c2.24,0,3.4-1.13,3.4-3.08s-1.18-3.07-3.4-3.07Zm1.07,8H36.39V21.23h3.13c3.39,0,5.43,1.83,5.43,5S42.94,31.17,39.52,31.17Z"/></g></g></svg>