<svg xmlns="http://www.w3.org/2000/svg" viewBox="0 0 804.9 368.97"><defs><style>.cls-1{fill:none;stroke:#fff;stroke-miterlimit:10;stroke-width:3px;stroke-dasharray:3 6;}</style></defs><title>dotted-line</title><g id="Layer_2" data-name="Layer 2"><g id="Layer_1-2" data-name="Layer 1"><path class="cls-1" d="M804.9,367.47H641.77c-31.95,0-57.95-26.7-57.95-59.52V237.4c0-32.83,26-59.53,57.95-59.53h58c24.86,0,45.08-20.77,45.08-46.3V61c0-25.53-20.22-46.3-45.08-46.3H373.47c-24.85,0-45.07,20.77-45.07,46.3v70.54c0,25.53,20.22,46.3,45.07,46.3h57.95c32,0,58,26.7,58,59.53V308c0,32.82-26,59.52-58,59.52H105.17c-31.95,0-57.95-26.7-57.95-59.52V237.4c0-32.83,26-59.53,58-59.53h58c24.85,0,45.07-20.77,45.07-46.3V61c0-25.53-20.22-46.3-45.07-46.3H0"/><path class="cls-1" d="M0,1.5H163.13c32,0,58,26.7,58,59.53v70.54c0,32.83-26,59.53-58,59.53h-58c-24.85,0-45.07,20.77-45.07,46.3V308c0,25.52,20.22,46.29,45.07,46.29H431.42c24.86,0,45.08-20.77,45.08-46.29V237.4c0-25.53-20.22-46.3-45.08-46.3H373.47c-32,0-58-26.7-58-59.53V61c0-32.83,26-59.53,58-59.53H699.72c32,0,58,26.7,58,59.53v70.54c0,32.83-26,59.53-58,59.53h-58c-24.85,0-45.07,20.77-45.07,46.3V308c0,25.52,20.22,46.29,45.07,46.29H804.9"/></g></g></svg>