<svg xmlns="http://www.w3.org/2000/svg" xmlns:xlink="http://www.w3.org/1999/xlink" viewBox="0 0 51.87 51.87"><defs><style>.cls-1{fill:#002e3b;}.cls-2,.cls-3{fill:#fff;fill-rule:evenodd;}.cls-2{opacity:0.4;}.cls-3{opacity:0.8;}</style><clipPath id="clip-path"><circle class="cls-1" cx="25.93" cy="25.93" r="25.93"/></clipPath></defs><title>E</title><g id="Layer_2" data-name="Layer 2"><g id="Layer_1-2" data-name="Layer 1"><circle class="cls-1" cx="25.93" cy="25.93" r="25.93"/><path class="cls-2" d="M17,10.51A5.58,5.58,0,0,0,13.3,11.9a4.57,4.57,0,0,0-1.58,3.43V33.1A5.48,5.48,0,0,0,17,38.38h4.38v7.77l8.25-7.77H35.3a4.3,4.3,0,0,0,3.32-1.58,5.8,5.8,0,0,0,1.31-3.7V15.33a5,5,0,0,0-1.29-3.46,4.48,4.48,0,0,0-3.34-1.36Zm3.45,37.8v-9H17a6.43,6.43,0,0,1-6.2-6.22V15.33a5.5,5.5,0,0,1,1.89-4.13A6.57,6.57,0,0,1,17,9.57H35.3a5.48,5.48,0,0,1,5.56,5.76V33.1a6.66,6.66,0,0,1-1.53,4.31,5.22,5.22,0,0,1-4,1.91H30Z"/><polygon class="cls-3" points="30.68 16.77 30.68 19.7 23.88 19.7 23.88 23.06 29.77 23.06 29.77 25.79 23.88 25.79 23.88 29.36 30.85 29.36 30.85 32.29 20.64 32.29 20.64 16.77 30.68 16.77"/></g></g></svg>