<svg xmlns="http://www.w3.org/2000/svg" viewBox="0 0 119.45 81.15"><defs><style>.cls-1,.cls-2,.cls-3{fill:#fff;}.cls-1{opacity:0.34;}.cls-2{opacity:0.24;}.cls-3{opacity:0.45;}</style></defs><title>facebook</title><g id="Layer_2" data-name="Layer 2"><g id="Layer_1-2" data-name="Layer 1"><path class="cls-1" d="M50.25.31,23.57,0A1.65,1.65,0,0,0,21.9,1.64l-.3,26.67A1.65,1.65,0,0,0,23.23,30l14.36.16.14-11.61-3.91-.05,0-4.52,3.91,0,0-3.33c0-3.88,2.43-6,5.88-5.92A32,32,0,0,1,47.19,5l0,4-2.4,0c-1.88,0-2.25.87-2.27,2.18l0,2.89,4.48,0-.63,4.52-3.9-.05L42.27,30.2l7.64.09a1.65,1.65,0,0,0,1.67-1.64L51.89,2A1.66,1.66,0,0,0,50.25.31Z"/><path class="cls-2" d="M20.14,59.68l-19,.14A1.19,1.19,0,0,0,0,61L.14,80a1.17,1.17,0,0,0,1.18,1.17l10.22-.08-.06-8.26-2.78,0,0-3.21,2.78,0V67.22a3.88,3.88,0,0,1,4.11-4.28,21.64,21.64,0,0,1,2.48.11l0,2.87-1.7,0c-1.34,0-1.59.64-1.59,1.58l0,2,3.18,0-.39,3.22-2.77,0,.06,8.26,5.44,0a1.17,1.17,0,0,0,1.16-1.19l-.13-19A1.19,1.19,0,0,0,20.14,59.68Z"/><path class="cls-3" d="M117,31.68,82.31,32a2.16,2.16,0,0,0-2.14,2.17l.3,34.67A2.16,2.16,0,0,0,82.64,71l18.67-.17-.13-15.09-5.08,0,0-5.88,5.08,0,0-4.34c0-5,3-7.8,7.5-7.84a40.59,40.59,0,0,1,4.54.19l.05,5.26-3.12,0c-2.44,0-2.9,1.19-2.89,2.89l0,3.75,5.82,0-.71,5.89-5.06,0,.13,15.09,9.93-.08a2.15,2.15,0,0,0,2.13-2.17l-.3-34.68A2.15,2.15,0,0,0,117,31.68Z"/></g></g></svg>