<svg xmlns="http://www.w3.org/2000/svg" viewBox="0 0 103.26 87.06"><defs><style>.cls-1,.cls-2,.cls-3{fill:#fff;}.cls-1{opacity:0.24;}.cls-2{opacity:0.34;}.cls-3{opacity:0.45;}</style></defs><title>fb-r</title><g id="Layer_2" data-name="Layer 2"><g id="Layer_1-2" data-name="Layer 1"><path class="cls-1" d="M18.26,0,1.06.07A1.08,1.08,0,0,0,0,1.15L.07,18.34A1.07,1.07,0,0,0,1.15,19.4l9.25,0,0-7.48H7.85V9h2.52V6.81a3.51,3.51,0,0,1,3.73-3.87,21.08,21.08,0,0,1,2.26.1V5.65H14.8c-1.21,0-1.44.58-1.44,1.43V9h2.89l-.36,2.91-2.52,0,0,7.48,4.92,0a1.06,1.06,0,0,0,1.06-1.07l-.07-17.2A1.06,1.06,0,0,0,18.26,0Z"/><path class="cls-2" d="M101.36,17.06l-26,.27A1.62,1.62,0,0,0,73.78,19l.27,26a1.61,1.61,0,0,0,1.63,1.59l14-.14-.12-11.32-3.8,0,0-4.4,3.81,0,0-3.26c0-3.77,2.25-5.85,5.61-5.88a30.36,30.36,0,0,1,3.41.14l0,3.94-2.34,0c-1.83,0-2.17.9-2.16,2.17l0,2.82,4.37-.05L97.9,35l-3.79,0,.12,11.31,7.44-.08a1.61,1.61,0,0,0,1.59-1.63l-.27-26A1.61,1.61,0,0,0,101.36,17.06Z"/><path class="cls-3" d="M49.29,43.12,10.2,42.84a2.43,2.43,0,0,0-2.44,2.41L7.48,84.34a2.42,2.42,0,0,0,2.41,2.44l21,.15.13-17-5.73,0,.05-6.63,5.72,0,0-4.89c0-5.67,3.53-8.74,8.59-8.7a46,46,0,0,1,5.11.3l0,5.93-3.51,0c-2.75,0-3.3,1.29-3.31,3.21l0,4.23,6.57.05L43.61,70,37.9,70l-.12,17,11.2.08a2.42,2.42,0,0,0,2.44-2.41l.28-39.09A2.42,2.42,0,0,0,49.29,43.12Z"/></g></g></svg>