<svg xmlns="http://www.w3.org/2000/svg" viewBox="0 0 780 8504"><defs><style>.cls-1{fill:#fff;}</style></defs><title>frame</title><g id="Layer_2" data-name="Layer 2"><g id="Background"><path class="cls-1" d="M0,0V8504H780V0ZM763.89,2097.36c-.13,26.95-2.81,52.85-4.49,79.28-.64,10,5.63,106.11,4.65,229.53-1.09,135.43-2.73,318.24-4,540.37-.76,134-2.24,279.09-3,429.46-.86,175.57-.24,359.43-1,540.37-1,232.66,7.59,461.26,7,668.35-.47,159.48-6.81,314-7,438-.23,201.34-4.84,325.16-3.92,371.54.74,37.05,3.81,72.36,3.67,109.63-.09,23.14-.45,46.48-.21,69.6.22,21.43,3.05,39.62,3.8,60.77,1.09,30.39-.67,62.31-.31,92.82.39,32.73,3.55,63.86,3.75,96.87.17,26.75-.13,53.6-.13,80.37,0,49.42-6,98.84-6,148.25v319.27c0,110.29,6.37,193.45,3.22,303.28-.64,22.26-.61,73.87-.84,96.53-.24,23.5,1,46.73-.64,70-2.95,41.44,3.11,80.52,3.27,122.91.13,36.43-3.57,69.78-3.47,106.6.14,50.36,6,98.6,3.28,148.4-2.76,51.07-1,108.38-.74,159.92.12,31.61-3.37,60-3.52,91.27-.19,41.72.11,220,0,261.69-.13,34.89,3.35,62.57,7,95.21,4.68,42.19-6.49,81.42-5.11,124.54,1,31.47,3.65,57.82,3.62,90.58q0,63.42,0,126.84c0,14.28,1,31.2.18,45.22-.77,13.37-3.15,23.58-3.77,36.87-3.4,72.91,14.59,178.3-25.19,213.92-28,25.08-302.83,13.93-313.7,13.93-9.4,0-18.81,0-28.21,0-10.95,0-213.33-5.57-222.77-5.08C118,8477.1,50.56,8483.12,36,8455.16c-15.48-29.73-9-98.63-11-117-6.82-62.66,8.06-94.31,1-164.24-7.09-70.21-9.65-199-9.65-272.25V7081.19c0-197.07-5.09-358.51-5.4-555.58-.09-62.06,2.25-123.67,3.35-185.58.66-37.45,3.61-72,3.62-110.4q0-122.82,0-245.65V5763c0-88.12,4.35-186.87-1.74-273.07-2.55-36,2.56-81.81-.18-117.43-2.64-34.37,3.74-59.37,1.23-94.09-2.68-37-.43-77.77-.7-115.46-.27-38.59-3.6-75-3.57-114.25,0-35.34,1.25-73.22-.3-108.32-1.93-44,10.8-124.42,9.22-168.65-2.1-58.86-6.85-117.52-7.11-176.76-.26-61.15.13-122.42.13-183.58,0-72.08.13-144.16,0-216.23-.14-59.14,3.62-116.28,3.51-175.44-.08-48.64-7-98.22-6.17-146.79.86-53,1.74-102.54,2.29-155.48.37-35.49-.5-71.15-.21-106.64.33-41.6,3.61-81,3.56-123.33-.13-121.55-5.5-240.45-5.5-362.1v-259q0-66.58,0-133.18c0-22.66-.73-46.28-.18-68.83.52-21.47,3.33-41.74,3.85-63.21,1.83-76.27-.18-155.45-.18-231.95v-224c0-30.88,1.59-65.16-.78-95.09-2.08-26.44-2.77-48.27-2.72-76,.07-36.22,6.42-68.11,5.71-103.65s4.16-70.57,2.12-105.36c-2-35-2.73-71.45-4.54-106.86-1-20.09-2.91-37.62-2.77-58.45.1-14.47.15-26.92-.74-41.13C10,1525,14.3,1492.21,14.4,1457.64c.09-34.14,2.27-63.56,2.52-97.6.13-17.44-1.33-27.47-2.71-44-1.64-19.47,0-38.88-1.07-58.29-1.71-29.41-.45-57.54-1.87-86.87-3-61.09.18-130.92.18-193,0-38.32-4.92-76.65-5-115C6.39,826.4,10.09,795.32,10,759.33c-.2-60.26.2-120.54-.07-180.79-.09-18.86,1.91-31.81,3.22-49.73,1.18-16.1-1.87-62.62-1.78-79,.1-18.06,1.54-30.53,2.79-47.7,1.33-18.12-2-54.67-1.14-72.8,1.78-37.25.22-66.3,1-103.86.69-32.83,6.6-64.6,12-92.51,6.59-34,19.44-52.33,33-71.4,15-21.1,49.92-23.74,61-29.22C143,21,191.68,21,214,21c23.81,0,42.59-1.17,66.4-1.67C292.23,19.05,388,24.83,395,24.22s113.08,1.64,117,1.62c0,0,53-3.43,63.41-7.07,18.51-6.52,39.07.51,57.78.51,22.08,0,63.4-.23,82.81,34.15,23,40.7,29.5,76.7,40,145.76,4.89,32.16,6,118.63,6.69,153.49.63,31.57-3.23,66.14-1.64,97.6,2.59,51.39.55,106.32.2,158.72-.26,39,3.57,75,3.48,114.43-.08,37.64.82,76.05.14,113.63-.73,40.74-3.66,78.64-3.62,120.44.08,105.34-3.73,205.43,2.75,311,2.89,47.18-2.7,102.89-.13,150.88,2.72,50.92,1.92,607.36.59,628.3C763.39,2064.5,764,2080.52,763.89,2097.36Z"/></g></g></svg>