<svg xmlns="http://www.w3.org/2000/svg" xmlns:xlink="http://www.w3.org/1999/xlink" viewBox="0 0 105.83 379.36"><defs><style>.cls-1{fill:#2180ae;}.cls-2{fill:url(#linear-gradient);}</style><linearGradient id="linear-gradient" x1="54.09" y1="213.22" x2="52.94" y2="7.17" gradientUnits="userSpaceOnUse"><stop offset="0.2" stop-color="#002e3b"/><stop offset="0.67" stop-color="#002e3b" stop-opacity="0.34"/><stop offset="0.89" stop-color="#002e3b" stop-opacity="0"/></linearGradient></defs><title>hand-1</title><g id="Layer_2" data-name="Layer 2"><g id="Layer_1-2" data-name="Layer 1"><path class="cls-1" d="M21.92,326.43c6.18-2.05,2.68,17.81,3.44,29.69.17,2.55-.38,14.71,2.12,14.75,4.25.08,4.2-5.25,4.54-7.18.52-3,.72-6,1.22-9,.12-.68,0-3.57,2.31-3.9,3.69-.53,3.52,3.21,3.58,4.67.14,3.27-2,24.34,2.8,23.85,3.26-.34,4.06-14.78,4.34-17.89.16-1.75.81-9,4.22-9,2.34,0,2.93,6.71,3.15,8.27.42,3-.79,11.8,3.36,11.69,3.09-.09,3.16-7.7,3.32-9.65.17-2.21.21-4.42.36-6.63.16-2.51-.29-5.74,1.42-7.81.84-1,1.61-1.53,2.51-.46,1.4,1.67,1.45,5,1.68,7.07.12,1.1.42,8.58,2.85,7.41,3.7-1.8,1.68-21.38,2.64-28.07,3.19-22.12,5.81-138.76,5.81-138.76s-46.13.57-56.39,1c.07,8.43,2,63.28,2.69,80.79.29,7.61.34,15-1.88,22.41-3.31,11-11.9,19.53-15.86,30.26-.84,2.29-2.37,6.46-1.08,8.89C7.5,343.45,18.33,327.62,21.92,326.43Z"/><path class="cls-2" d="M16.07,253.46c.24,3.69.95,5.67,2.37,6.67,1.85,1.31,56.31,2.92,61.34-.71,3.35-2.41,3.31-11.72,3.65-15.23C84.61,231.94,104.15,18.12,105.83,0L0,6.72S15.22,240.82,16.07,253.46Z"/></g></g></svg>