<svg xmlns="http://www.w3.org/2000/svg" xmlns:xlink="http://www.w3.org/1999/xlink" viewBox="0 0 752.78 731.91"><defs><style>.cls-1{fill:#2180ae;}.cls-2{fill:url(#linear-gradient);}.cls-3{fill:#f1634c;}.cls-4{fill:#5cd2cc;}.cls-5{fill:url(#linear-gradient-2);}.cls-6{fill:#ffe986;}.cls-7{fill:#fff;}.cls-8{fill:#9caac1;}.cls-9{fill:#045775;}.cls-10{fill:#a663b9;}.cls-11{fill:#5b164a;}.cls-12{fill:#21aeab;}.cls-13{fill:#002e3b;}</style><linearGradient id="linear-gradient" x1="360.33" y1="213.22" x2="359.18" y2="7.17" gradientUnits="userSpaceOnUse"><stop offset="0.2" stop-color="#002e3b"/><stop offset="0.67" stop-color="#002e3b" stop-opacity="0.34"/><stop offset="0.89" stop-color="#002e3b" stop-opacity="0"/></linearGradient><linearGradient id="linear-gradient-2" x1="332.53" y1="497.8" x2="339.11" y2="708.53" gradientUnits="userSpaceOnUse"><stop offset="0.16" stop-color="#ffe986"/><stop offset="1" stop-color="#ffe986" stop-opacity="0"/></linearGradient></defs><title>hands-group</title><g id="Layer_2" data-name="Layer 2"><g id="Layer_1-2" data-name="Layer 1"><path class="cls-1" d="M328.16,326.43c6.18-2.05,2.68,17.81,3.44,29.69.17,2.55-.38,14.71,2.12,14.75,4.25.08,4.2-5.25,4.54-7.18.52-3,.72-6,1.22-9,.12-.68,0-3.57,2.31-3.9,3.69-.53,3.52,3.21,3.58,4.67.14,3.27-2,24.34,2.8,23.85,3.26-.34,4.06-14.78,4.34-17.89.16-1.75.81-9,4.22-9,2.34,0,2.93,6.71,3.15,8.27.42,3-.79,11.8,3.36,11.69,3.09-.09,3.16-7.7,3.32-9.65.17-2.21.21-4.42.36-6.63.16-2.51-.29-5.74,1.42-7.81.84-1,1.61-1.53,2.51-.46,1.4,1.67,1.45,5,1.68,7.07.12,1.1.42,8.58,2.85,7.41,3.7-1.8,1.68-21.38,2.64-28.07,3.19-22.12,5.81-138.76,5.81-138.76s-46.13.57-56.39,1c.07,8.43,2,63.28,2.69,80.79.29,7.61.34,15-1.88,22.41-3.31,11-11.9,19.53-15.86,30.26-.84,2.29-2.37,6.46-1.08,8.89C313.74,343.45,324.57,327.62,328.16,326.43Z"/><path class="cls-2" d="M322.31,253.46c.24,3.69.95,5.67,2.37,6.67,1.85,1.31,56.31,2.92,61.34-.71,3.35-2.41,3.31-11.72,3.65-15.23C390.85,231.94,410.39,18.12,412.07,0L306.24,6.72S321.46,240.82,322.31,253.46Z"/><path class="cls-3" d="M388.72,360a8.26,8.26,0,0,0-4.19.36c-4.65,1.5-8.79,4.57-12.38,7.8s-2.37,5.85-2.46,10.27c-.05,2.5-1.57,6.56-.79,8.79.65,1.87,4,3.39,5.63,2.07,2-1.58,2.38-5.67,3.18-8,2.3-6.58,6.24-12,11-16.93C391.15,361.87,390.52,360.42,388.72,360Z"/><path class="cls-4" d="M323.55,488.73c4.38-.08,8.74-.26,13.11-.56,4.83-.32,9.65-.61,14.48-.83s9.61-.34,14.41-.34c-.15-7.88-.28-14.72-.38-19.16-.17-7.62-.09-15,2.25-22.38,3.51-11,12.24-19.33,16.38-30,.88-2.27,2.48-6.42,1.22-8.87-2.34-4.6-13.45,11-17,12.18-6.22,1.94-2.38-17.86-2.94-29.75-.12-2.56.63-14.7-1.87-14.79-4.25-.15-4.28,5.18-4.66,7.1-.57,3-.81,6-1.37,9-.13.68-.06,3.57-2.38,3.86-3.69.46-3.46-3.28-3.5-4.74-.08-3.27,2.38-24.3-2.39-23.89-3.27.29-4.31,14.71-4.65,17.82-.19,1.74-.95,9-4.36,8.89-2.34-.08-2.82-6.76-3-8.32-.37-3,1-11.78-3.17-11.74-3.09,0-3.29,7.64-3.47,9.59-.21,2.2-.29,4.41-.48,6.62-.2,2.5.19,5.75-1.55,7.78-.86,1-1.64,1.51-2.52.42-1.37-1.69-1.36-5-1.56-7.1-.1-1.1-.27-8.58-2.72-7.45-3.73,1.73-2,21.35-3.12,28-1.81,11.2-3.89,46.75-5.5,79C316.35,488.85,320,488.79,323.55,488.73Z"/><path class="cls-5" d="M363,486.68c-13.86-4.34-26.79.64-40.83,0l-6.79-.75c-8.11,5.55-10.57,24.38-12.1,33.74-.86,5.32-8.9,206.9-9.46,212.24l92-4c-.21-11.13-13.31-214.72-13.31-225.61C372.47,492,372.34,489.62,363,486.68Z"/><path class="cls-6" d="M359.62,474.27c-5,.2-9.88.13-14.87,0s-10.05-.39-15.07-.53c-3.79-.11-7.78.43-11.54.09-2.71-.24-5-.94-7.6.71-4,2.54-3.63,13.76-1.55,17.49,2.46,4.4,9.44,3.7,13.51,4.09a228.68,228.68,0,0,0,32.69.63c4.32-.22,13.29,1,16.11-3.67,2.55-4.24,1.31-12.05-1.22-15.95S363.42,474.13,359.62,474.27Z"/><path class="cls-7" d="M369.1,497.07a2.93,2.93,0,0,0,1.57-3.09c-2.7-.68-7.17,1.8-10.18,1.91-4.88.18-9.75-.54-14.62-.78-9.2-.44-18.53.47-27.83,0-.83,0-8.19-2.62-8.23-1.47-.12,3.82,10.06,3.76,12.34,3.89,4.27.24,8.53-.12,12.79,0,7.17.19,14.38-.44,21.55,0C358.85,497.6,365.92,498.88,369.1,497.07Z"/><path class="cls-3" d="M370.51,340.3c.06-1.77.8-8.72-2.52-8.5-1.53.1-2.2,3.56-2.58,4.83-.81,2.76-1.85,13.65-5,15.18.29-.14,5.44,5.7,6,6.19,2.65,2.34,1,10.2,5.24,11.33.67-2.66-.87-6-.86-8.78,0-2.49-.56-5.11-.4-7.6C370.64,348.77,370.36,344.5,370.51,340.3Z"/><path class="cls-8" d="M530.3,532.27l0,0Z"/><path class="cls-9" d="M326.74,402.52c-5.23-3.87,13-12.43,22.31-19.89,2-1.61,12.25-8.15,10.85-10.22-2.39-3.53-6.71-.42-8.49.42-2.73,1.28-5.31,2.86-8,4.16-.62.29-2.92,2.05-4.52.35-2.56-2.71.6-4.73,1.76-5.62,2.59-2,21-12.4,17.9-16-2.16-2.47-14.42,5.18-17.13,6.74-1.53.88-7.86,4.54-9.77,1.72-1.31-1.95,3.81-6.26,5-7.34,2.24-2.09,10.1-6.14,7.62-9.47-1.85-2.49-8.12,1.84-9.8,2.84-1.9,1.13-3.74,2.36-5.63,3.51-2.14,1.31-4.53,3.54-7.21,3.33-1.3-.1-2.17-.43-1.81-1.79.55-2.1,3.26-4.06,4.82-5.44.82-.73,6.77-5.27,4.41-6.59-3.6-2-18.45,10.93-24.48,14-19.92,10.12-116.84,75.08-116.84,75.08s27,37.4,33.26,45.56c6.86-4.91,50.6-38.05,64.53-48.68,6.05-4.62,12.1-8.93,19.41-11.37,10.94-3.64,22.82-1.49,33.88-4.43,2.35-.63,6.65-1.78,7.89-4.24C349,404.53,329.78,404.77,326.74,402.52Z"/><path class="cls-7" d="M270.43,449.3c2.87-2.33,4.08-4.05,4.09-5.79,0-2.26-30-47.73-35.87-49.76-3.9-1.35-11.49,4-14.56,5.78C213.4,405.61,17.57,509.86,1.78,518.91c0,0-4,95,0,118C25.78,618.91,260.58,457.25,270.43,449.3Z"/><path class="cls-6" d="M306.54,357.56c1.34-6.4,17.18,7.06,28.12,12.66,2.36,1.21,12.87,8.07,14.18,5.95,2.25-3.62-2.51-6.38-4-7.69-2.37-2-5-3.76-7.34-5.76-.54-.46-3.17-1.88-2.28-4,1.41-3.45,4.65-1.34,6-.62,3,1.6,20.61,14.5,22.6,10.14,1.37-3-11-11.26-13.66-13.14-1.47-1.06-7.62-5.45-5.82-8.35,1.24-2,7.46,1,9,1.65,2.91,1.23,10.07,6.88,12.09,3.25,1.51-2.7-5.22-6.77-6.87-7.92-1.87-1.31-3.82-2.51-5.7-3.8-2.15-1.46-5.25-2.78-6.21-5.34-.47-1.24-.54-2.18.88-2.39,2.19-.33,5.18,1.39,7.13,2.28,1,.47,7.83,4.15,8,1.44.3-4.12-18.12-12.69-23.57-17-18-14.38-120.24-78-120.24-78s-23.05,40-27.93,49c7.52,4.37,57.21,31.57,73.11,40.2,6.91,3.75,13.52,7.61,18.94,13.4C291,352.09,294.15,364,301.66,373c1.6,1.92,4.53,5.43,7.35,5.6C314.29,378.91,305.77,361.27,306.54,357.56Z"/><path class="cls-10" d="M406.15,393.14c-2.4,6.41-16.58-9.92-27-17.37-2.24-1.61-12-10.3-13.67-8.31-2.89,3.4,1.57,7,3,8.56,2.12,2.45,4.5,4.65,6.64,7.08.49.56,3,2.43,1.71,4.53-2,3.34-5,.67-6.27-.27-2.81-2.11-18.92-18.14-21.67-13.94-1.89,2.88,9.58,13.33,12,15.68,1.35,1.32,7,6.79,4.66,9.51-1.6,1.87-7.52-2.18-9-3.07-2.8-1.71-9.28-8.64-11.94-5.2-2,2.56,4.29,7.79,5.81,9.24,1.72,1.64,3.53,3.18,5.27,4.79,2,1.84,5,3.67,5.55,6.47.28,1.36.2,2.34-1.29,2.34-2.31,0-5.12-2.23-7-3.44-1-.65-7.41-5.49-8-2.72-1,4.22,16.65,15.88,21.57,21.21,16.27,17.61,36.09,33.55,54.06,49.42l0,0C430,486,477.94,527.2,477.94,527.2s30.16-37.81,36.63-46.41c-7.05-5.67-53.92-41.36-68.92-52.7-6.53-4.93-12.72-9.93-17.38-16.74-7-10.19-8.33-22.93-14.62-33.43-1.34-2.23-3.8-6.31-6.68-6.91C401.58,369.88,407.54,389.42,406.15,393.14Z"/><path class="cls-9" d="M486.48,451c-12.61.4-17.75,11.53-24.52,21.11-5,7.13-10.7,13.85-15.76,21-2.95,4.17-4.64,6.57-3.59,11.4a43.22,43.22,0,0,0,4.73,12.8c4.8,8.16,12,14.62,19.31,20.36,4.91,3.85,280.13,175.31,280.13,175.31s6-57,6-74-5-77-5-77-249.48-110-257.17-110.8A29.9,29.9,0,0,0,486.48,451Z"/><path class="cls-7" d="M460.41,495.13l-1.24-1.61c.38,3.56,12.17,24.58,15.44,15.71C476.92,503,464,498.39,460.41,495.13Z"/><path class="cls-7" d="M476.28,487.58c-2.29-.71-4.88-2.45-7.3-2.63,2.15,3.66,12.58,16.39,17.35,11.84,2.77-2.64-1-5.86-3.37-7A50.11,50.11,0,0,0,476.28,487.58Z"/><path class="cls-11" d="M468.62,484.94H469l-.15-.27Z"/><path class="cls-7" d="M478.65,472.94c-1,.2,1.76,1.89,2.71,2.57a60.92,60.92,0,0,0,6.59,4.23c1.92,1.05,5.85,3.59,7.52.95,4.76-7.55-15.33-7.83-17.4-8.63Z"/><path class="cls-7" d="M462.33,518.51c4-5.38-7.21-13.36-9.73-17.49l-.74-1.89C451.24,502.66,456.72,526.13,462.33,518.51Z"/><path class="cls-7" d="M481.94,461.35c-.95.39,2.08,1.52,3.15,2a64,64,0,0,0,7.26,2.92c2.09.67,6.43,2.42,7.57-.49,3.25-8.31-16.53-4.8-18.71-5.2Z"/><path class="cls-9" d="M456.25,435.07a75.45,75.45,0,0,1-7.23,13.2C440.69,460,431,470.6,419.19,479a56,56,0,0,0,9.52,12.29,80.52,80.52,0,0,0,9.68,8.41c3.37,2.42,5.07,3.67,9.3,2.91a25.4,25.4,0,0,0,9.18-4.06c5.7-3.75,10.54-8.79,15-13.93,5.52-6.4,12.64-19.11,11.83-28.12-.91-10.2-16-18.2-24.48-20.69C458.23,435.53,457.25,435.28,456.25,435.07Z"/><path class="cls-7" d="M432.37,480.06c-7.94,2.2-1.33,13,4,8a5.25,5.25,0,0,0,.56-.61C439.68,483.94,436.55,478.91,432.37,480.06Z"/><path class="cls-12" d="M246.81,317.07c13-8.51,12.31-23.76,20.14-35.41l4.42-5.29c-3.88-11.52-29.42-28.89-42-37.78C216.59,229.51,14.42,74,1.78,64.91l1,132c22.28,13.56,194.15,102.68,217.16,115.77C234.59,321,238,322.83,246.81,317.07Z"/><path class="cls-12" d="M252.37,331.7c2.11-6.42,11.25-20.7,13.12-23.62,3.15-4.9,15.94-22.66,20.59-23.86-.43.11-9.36-8.08-10.67-8.92-3.73-2.36-8.93-5.76-13.1-3.51-3.72,2-6.78,6.78-9.65,9.74a75.1,75.1,0,0,0-8.12,10.76,148.67,148.67,0,0,0-9,16.1c-1.93,3.82-4.87,8.12-.73,12.23C236,321.8,252,332.92,252.37,331.7Z"/><path class="cls-7" d="M252.57,333.07h0c-.52,0-1.61,0-9.68-5.38-3.48-2.32-7.87-5.43-8.62-6.16a7.59,7.59,0,0,1-2.38-6.72,18.81,18.81,0,0,1,2.3-5.89l.58-1.11a149.36,149.36,0,0,1,9.1-16.23l.42-.64a73,73,0,0,1,7.84-10.3c.85-.88,1.72-1.93,2.65-3,2.12-2.55,4.52-5.44,7.31-6.94a7.56,7.56,0,0,1,3.63-.89c3.76,0,7.53,2.39,10.56,4.32l.21.13c.64.41,2.33,1.88,5,4.25,2.07,1.81,4.89,4.28,5.44,4.59a1,1,0,0,0-.51-.12h0v1.25l.33,1.28h0c-.79.2-3.36,1.59-10.18,10.1-4.27,5.33-8.19,10.93-9.65,13.2-6.93,10.81-11.66,19.31-13,23.33A1.45,1.45,0,0,1,252.57,333.07Zm13.15-60.74a4.94,4.94,0,0,0-2.41.58c-2.36,1.28-4.49,3.84-6.56,6.33-1,1.15-1.86,2.24-2.77,3.18a68.3,68.3,0,0,0-7.55,9.95L246,293a150,150,0,0,0-8.95,16c-.19.38-.39.77-.59,1.14-2.14,4.08-3.23,6.76-.38,9.6.42.41,3.81,2.88,8,5.66a80.85,80.85,0,0,0,7.89,4.85c2.35-6.05,9-16.76,12.88-22.83,1.48-2.32,5.46-8,9.8-13.43,4.86-6.06,7.74-8.72,9.44-9.93l-.41-.34c-1.08-.91-2.46-2.12-3.79-3.29-1.89-1.64-4.23-3.69-4.74-4l-.2-.13C272.16,274.51,268.73,272.33,265.72,272.33Z"/><path class="cls-7" d="M246,319.33c7.88-2.85.32-13.33-4.72-7.78a5.26,5.26,0,0,0-.52.67C238.26,316,241.83,320.83,246,319.33Z"/><path class="cls-13" d="M340.62,341.93c5,3.82-13.31,12-22.73,19.16-2,1.54-12.38,7.82-11.08,9.85,2.2,3.45,6.58.46,8.36-.33,2.74-1.23,5.34-2.74,8.07-4,.62-.28,2.95-2,4.46-.3,2.4,2.65-.79,4.59-2,5.45-2.63,1.91-21.19,11.87-18.24,15.41,2,2.43,14.39-4.91,17.12-6.41,1.53-.83,7.9-4.34,9.67-1.58,1.21,1.9-4,6.05-5.17,7.09-2.28,2-10.18,5.89-7.87,9.15,1.71,2.43,8.05-1.72,9.75-2.68,1.91-1.08,3.77-2.26,5.67-3.37,2.17-1.25,4.6-3.4,7.23-3.17,1.27.11,2.12.44,1.71,1.75-.63,2-3.37,3.93-4.95,5.25-.85.71-6.88,5.08-4.61,6.38,3.46,2,18.58-10.47,24.63-13.39,20-9.67,117.91-72,117.91-72s-25.08-36.62-30.9-44.6c-6.93,4.71-51.28,36.57-65.4,46.79-6.14,4.44-12.25,8.58-19.54,10.88-10.91,3.45-22.51,1.26-33.5,4-2.34.59-6.61,1.67-7.93,4.05C318.84,339.79,337.72,339.72,340.62,341.93Z"/><path class="cls-1" d="M402.09,307c1.79,9.65,8.15,15.23,14.58,20.93,3.87,3.42,7.76,6.87,10.71,11.28l3.22,6.15c12.33.61,38.67-17.08,51.94-25.64,13.62-8.78,250.71-154.16,264.24-162.78v-133c-21.46,16-308.69,242.4-330,259.27C403.19,293.93,400.15,296.51,402.09,307Z"/><path class="cls-7" d="M391.9,302.87c-1.2,1.33-2.9,2.47-2.54,4.32.18.93,3.61,4.76,7.61,9.43a132.07,132.07,0,0,1,9.91,12.66c2.16,3.32,10.91,17.94,12.35,22.09.63,1.79.79,4.54,3.34,4.28,4.28-.45,8.58-4.34,12.47-6.22,2.29-1.11,5.3-2.25,6.77-4.46,1.71-2.57-5.6-20.92-12.18-30.13-8.93-12.47-19.15-22.15-22.14-23.11-3.77-1.22-5.8,2.28-8.3,4.55S394.07,300.44,391.9,302.87Z"/><path class="cls-1" d="M421.34,343.57c.06,4.14,4,.19,7-1.56,3.46-2,6.71-4,10-6.23,0,0,0,0,0,0a1.69,1.69,0,0,0,.32-1.92c-.58-1.05-1-.62-1.95-.05-1.61.92-3.29,2.2-4.58,3-3.29,2.07-6.57,3.93-10,5.78A2.3,2.3,0,0,0,421.34,343.57Z"/><path class="cls-1" d="M424.37,335.05c-1.35.92-3.26,2-4.9,3.17-1,.7-1.52.87-1.28,2.14.43,1.26,1.29.81,1.37.81h.06c3.58-2.27,7-4.61,10.52-7.13,3.05-2.17,8.08-4,5.62-6.62-.11-.12-.88,0-1.13.23C431.16,330.3,427.84,332.73,424.37,335.05Z"/><path class="cls-1" d="M426.17,325.91c-3.12,2.32-6.25,4.43-9.6,6.56a2.06,2.06,0,0,0-.67,1c.61,3.89,4.14-.27,7-2.24,3.3-2.31,6.4-4.51,9.55-7l0-.05a1.5,1.5,0,0,0,.08-1.84c-.74-.91-1.1-.47-2,.18C429,323.62,427.4,325,426.17,325.91Z"/><path class="cls-1" d="M413.81,327.22c-1,.71-1.54.89-1.26,2.12.49,1.21,1.37.75,1.45.75h.06c3.63-2.3,7-4.67,10.64-7.22,3.09-2.18,8.22-4.12,5.6-6.56a1.77,1.77,0,0,0-1.17.25c-3.48,2.67-6.84,5.12-10.35,7.47C417.4,324.94,415.47,326,413.81,327.22Z"/><path class="cls-1" d="M420.53,315.28c-3.29,2.38-6.58,4.57-10.1,6.78a2.18,2.18,0,0,0-.7,1.05c.67,3.79,4.36-.41,7.34-2.45,3.48-2.39,6.74-4.66,10-7.19l0-.06a1.39,1.39,0,0,0,.07-1.8c-.78-.88-1.16-.43-2.12.24C423.47,312.92,421.82,314.34,420.53,315.28Z"/><path class="cls-1" d="M411.8,313.56c-1.15.91-2.8,2-4.16,3.19-.83.69-1.31.89-.83,2,.67,1.09,1.42.63,1.5.63l.05,0c3.05-2.29,5.87-4.63,8.84-7.15,2.55-2.16,7.08-4.19,4.18-6.31a1.6,1.6,0,0,0-1.06.29C417.48,308.82,414.72,311.23,411.8,313.56Z"/><path class="cls-1" d="M408.16,308.69c-1.11,1-2.71,2.23-4,3.54-.79.77-1.27,1-.7,2.07a1.15,1.15,0,0,0,1.57.49s0,0,.05,0c2.95-2.55,5.66-5.14,8.52-7.9,2.45-2.38,6.92-4.81,3.82-6.66a1.79,1.79,0,0,0-1.07.38C413.62,303.46,411,306.1,408.16,308.69Z"/><path class="cls-1" d="M407.43,300.35c-2.65,2.7-5.37,5.19-8.32,7.74a1.68,1.68,0,0,0-.39,1.12c1.92,3.81,4.41-.78,6.85-3.1,2.84-2.71,5.5-5.3,8.12-8.15l0-.06c0-.09.55-.81-.51-1.85-1.1-.82-1.35-.33-2.13.43C409.72,297.71,408.47,299.29,407.43,300.35Z"/><path class="cls-1" d="M402.15,296.45c-2.65,2.7-5.37,5.19-8.32,7.74a1.77,1.77,0,0,0-.39,1.11c1.92,3.81,4.41-.77,6.85-3.1,2.85-2.7,5.5-5.29,8.12-8.14l0-.06c0-.09.55-.81-.5-1.85-1.11-.82-1.35-.33-2.14.42C404.44,293.81,403.19,295.39,402.15,296.45Z"/><path class="cls-1" d="M423,349.4a3.09,3.09,0,0,0,2.31.92c3.07-1.62,6-3.34,9.1-5.17.34-.2.71-.4,1.09-.59,1.45-1.09,2.86-2.23,4.21-3.43a7.6,7.6,0,0,0,.79-.83,2.69,2.69,0,0,0-.44-1l0-.05a1.44,1.44,0,0,0-1.06.08c-3.36,2.19-6.57,4.17-9.91,6-1.31.73-3.13,1.52-4.72,2.5C423.52,348.37,423,348.52,423,349.4Z"/><path class="cls-7" d="M288.68,514.82c.48,7.54-1,15-2.76,22.29-.55,2.29,3,3.23,3.53.93,1.83-7.58,3.38-15.38,2.88-23.22C292.19,512.47,288.53,512.46,288.68,514.82Z"/><path class="cls-7" d="M267.39,515.09c-3.46,6.19-8.54,11.38-11.55,17.83-1,2.13,2.21,3.9,3.21,1.76,3-6.46,8.08-11.64,11.54-17.83C271.74,514.79,268.54,513,267.39,515.09Z"/><path class="cls-7" d="M503.88,331.43c-6.09,1.26-12.32,1.61-18.46,2.55-2.33.35-1.52,3.92.8,3.56,6.14-.93,12.37-1.29,18.46-2.55C507,334.52,506.19,331,503.88,331.43Z"/><path class="cls-7" d="M498.82,414.78c-6.68-3.1-13.83-4.93-20.77-7.37-2.2-.77-3.78,2.53-1.55,3.31,6.93,2.43,14.08,4.27,20.76,7.36C499.4,419.08,501,415.77,498.82,414.78Z"/><path class="cls-7" d="M242.88,505.68c-2.65,1.09-5,2.68-7.58,4-2.09,1.05-.68,4.43,1.43,3.36,2.55-1.28,4.93-2.86,7.58-4C246.48,508.14,245.06,504.77,242.88,505.68Z"/><path class="cls-7" d="M227.11,487.4c-8.57,4.89-15.55,12-23.7,17.5-1.94,1.31-.16,4.51,1.79,3.19,8.15-5.5,15.13-12.62,23.7-17.5C230.94,489.42,229.15,486.23,227.11,487.4Z"/><path class="cls-7" d="M194.6,448.27a58,58,0,0,0-10.46,2.47,1.83,1.83,0,0,0,1.11,3.49,50.71,50.71,0,0,1,9.49-2.3C197.07,451.65,196.94,448,194.6,448.27Z"/><path class="cls-7" d="M200.56,403.2c-9.09,2.36-18.32,5.1-27.82,4.52-2.36-.14-2.46,3.51-.11,3.65,9.81.6,19.36-2.17,28.76-4.61C203.67,406.17,202.84,402.61,200.56,403.2Z"/><path class="cls-7" d="M187.08,377.12l-4.86-.62a1.86,1.86,0,0,0-2.14,1.45,1.84,1.84,0,0,0,1.45,2.14l4.86.62a1.83,1.83,0,1,0,.69-3.59Z"/><path class="cls-7" d="M206.35,344.09c-6.39,1.25-12.86,2.57-19.39,2-2.35-.23-2.38,3.43-.05,3.65,6.82.65,13.65-.75,20.33-2.06C209.55,347.18,208.65,343.64,206.35,344.09Z"/><path class="cls-7" d="M197.59,316c-3.82-.52-7.67-.69-11.49-1.22-2.34-.33-2.41,3.33-.11,3.65,3.82.53,7.68.7,11.49,1.23C199.82,319.94,199.9,316.28,197.59,316Z"/><path class="cls-7" d="M290.83,181.86c.61-2.28-2.91-3.24-3.52-1a25.55,25.55,0,0,0,.73,14.86c.73,2.23,4.25,1.27,3.52-1A22.1,22.1,0,0,1,290.83,181.86Z"/><path class="cls-7" d="M476.48,249.84a56.53,56.53,0,0,0-15.05,6.38c-3.14,1.88-1.22,5,1.91,3.11A47.06,47.06,0,0,1,475.69,254C479,253.17,479.82,249,476.48,249.84Z"/><path class="cls-7" d="M491.92,283.93a69.19,69.19,0,0,0-14,3.69c-2.18.83-1.27,4.37.93,3.53a69.16,69.16,0,0,1,14-3.68C495.18,287.11,494.23,283.58,491.92,283.93Z"/><path class="cls-7" d="M223.05,237.87l-3.8-3.1a1.86,1.86,0,0,0-2.58.1,1.83,1.83,0,0,0,.09,2.58l3.8,3.1a1.85,1.85,0,0,0,2.58-.1A1.83,1.83,0,0,0,223.05,237.87Z"/><path class="cls-7" d="M212.78,274c-6.33-1.47-12.78-2.91-18.49-6.15-2-1.16-3.57,2.17-1.54,3.32,6,3.38,12.78,4.9,19.4,6.43C214.45,278.14,215.07,274.54,212.78,274Z"/><path class="cls-7" d="M245.55,199.43c-1.3-2-4.1.38-2.82,2.32,2.11,3.23,4.53,6.24,6.64,9.46,1.3,2,4.1-.38,2.82-2.33C250.08,205.66,247.66,202.65,245.55,199.43Z"/><path class="cls-7" d="M459,208.41c-4,5.16-7.94,10.43-13.25,14.28-1.92,1.39.48,4.15,2.37,2.78,5.56-4,9.75-9.6,13.89-15C463.45,208.61,460.43,206.55,459,208.41Z"/><path class="cls-7" d="M337,179.68c-.35-2.34-3.88-1.37-3.53.93.57,3.81,1.51,7.56,2.08,11.37.35,2.33,3.88,1.36,3.53-.94C338.52,187.23,337.59,183.49,337,179.68Z"/><path class="cls-7" d="M366.88,184.22a25.55,25.55,0,0,0-2.83,14.6c.17,2.34,3.83,2.25,3.65-.1A22,22,0,0,1,370.07,186C371.21,183.93,368,182.15,366.88,184.22Z"/><path class="cls-7" d="M412.18,201.76c-1.12,3.69-1.88,7.47-3,11.16-.68,2.26,2.92,2.91,3.59.68,1.12-3.69,1.89-7.47,3-11.16C416.46,200.18,412.86,199.54,412.18,201.76Z"/><path class="cls-7" d="M502.38,368.49a68.55,68.55,0,0,0-14.45-.78c-2.33.12-2.55,3.77-.2,3.65a68.55,68.55,0,0,1,14.45.78C504.51,372.51,504.68,368.86,502.38,368.49Z"/><path class="cls-7" d="M428.94,515.74a87.05,87.05,0,0,1-8.77-13.62c-1-2.12-4.33-.54-3.29,1.58a91.4,91.4,0,0,0,9.28,14.41C427.57,520,430.35,517.61,428.94,515.74Z"/><path class="cls-7" d="M393.38,511.7c-.84-2.17-4.37-1.25-3.52.95a69,69,0,0,1,3.76,14c.37,2.33,3.9,1.36,3.53-1A68.38,68.38,0,0,0,393.38,511.7Z"/></g></g></svg>