<svg xmlns="http://www.w3.org/2000/svg" viewBox="0 0 360.03 293.9"><defs><style>.cls-1{fill:#045775;}.cls-2{fill:#fff;}</style></defs><title>hand-5</title><g id="Layer_2" data-name="Layer 2"><g id="Layer_1-2" data-name="Layer 1"><path class="cls-1" d="M326.74,59.51c-5.23-3.87,13-12.43,22.31-19.89C351,38,361.3,31.47,359.9,29.4c-2.39-3.53-6.71-.42-8.49.41-2.73,1.29-5.31,2.86-8,4.16-.62.3-2.92,2.06-4.52.35-2.56-2.7.6-4.72,1.76-5.61,2.59-2,21-12.4,17.9-16-2.16-2.47-14.42,5.18-17.13,6.74-1.53.88-7.86,4.54-9.77,1.72-1.31-1.95,3.81-6.26,5-7.34,2.24-2.09,10.1-6.14,7.62-9.48-1.85-2.48-8.12,1.85-9.8,2.84-1.9,1.13-3.74,2.37-5.63,3.52-2.14,1.31-4.53,3.54-7.21,3.33-1.3-.1-2.17-.43-1.81-1.79.55-2.1,3.26-4.06,4.82-5.44.82-.73,6.77-5.28,4.41-6.59-3.6-2-18.45,10.93-24.48,14C284.58,24.31,187.66,89.27,187.66,89.27s27,37.41,33.26,45.57c6.86-4.91,50.6-38,64.53-48.68,6.05-4.63,12.1-8.93,19.41-11.37,10.94-3.64,22.82-1.49,33.88-4.43,2.35-.63,6.65-1.78,7.89-4.24C349,61.52,329.78,61.76,326.74,59.51Z"/><path class="cls-2" d="M270.43,106.29c2.87-2.33,4.08-4.05,4.09-5.79,0-2.26-30-47.73-35.87-49.76-3.9-1.35-11.49,4-14.56,5.78C213.4,62.6,17.57,166.85,1.78,175.9c0,0-4,95,0,118C25.78,275.9,260.58,114.24,270.43,106.29Z"/></g></g></svg>