<svg xmlns="http://www.w3.org/2000/svg" xmlns:xlink="http://www.w3.org/1999/xlink" viewBox="0 0 92 366.4"><defs><style>.cls-1{fill:#5cd2cc;}.cls-2{fill:url(#linear-gradient);}.cls-3{fill:#ffe986;}.cls-4{fill:#fff;}</style><linearGradient id="linear-gradient" x1="38.75" y1="132.28" x2="45.33" y2="343.01" gradientUnits="userSpaceOnUse"><stop offset="0.16" stop-color="#ffe986"/><stop offset="1" stop-color="#ffe986" stop-opacity="0"/></linearGradient></defs><title>hand-4</title><g id="Layer_2" data-name="Layer 2"><g id="Layer_1-2" data-name="Layer 1"><path class="cls-1" d="M29.77,123.21c4.38-.08,8.74-.26,13.12-.55,4.82-.32,9.64-.62,14.47-.83s9.61-.35,14.42-.34c-.15-7.88-.29-14.73-.39-19.17-.17-7.61-.09-15,2.25-22.37C77.15,69,85.88,60.62,90,50c.88-2.26,2.48-6.42,1.23-8.87C88.9,36.49,77.8,52.13,74.19,53.26c-6.22,2-2.38-17.85-2.94-29.74-.12-2.56.63-14.7-1.86-14.79-4.25-.15-4.29,5.17-4.66,7.1-.58,3-.82,6-1.38,8.94-.12.68-.06,3.57-2.38,3.86-3.69.47-3.46-3.27-3.5-4.73C57.39,20.63,59.86-.41,55.08,0c-3.27.28-4.31,14.7-4.64,17.81-.19,1.74-1,9-4.37,8.9-2.34-.09-2.81-6.76-3-8.33-.37-3,1-11.78-3.16-11.74-3.1,0-3.3,7.65-3.48,9.59-.21,2.21-.29,4.42-.47,6.62-.21,2.51.18,5.75-1.56,7.79-.85,1-1.63,1.5-2.52.41-1.37-1.68-1.36-5-1.56-7.1-.1-1.1-.27-8.58-2.72-7.45-3.73,1.74-2,21.35-3.12,28-1.81,11.2-3.89,46.75-5.49,79C22.57,123.34,26.19,123.28,29.77,123.21Z"/><path class="cls-2" d="M69.18,121.16c-13.85-4.34-26.79.64-40.82,0l-6.8-.75C13.45,126,11,144.8,9.47,154.16,8.6,159.48.57,361.05,0,366.4l92-4c-.2-11.14-13.31-214.73-13.31-225.62C78.69,126.47,78.56,124.1,69.18,121.16Z"/><path class="cls-3" d="M65.85,108.76c-5,.19-9.89.12-14.88,0s-10-.39-15.07-.53c-3.79-.1-7.77.43-11.53.1-2.72-.24-5-.94-7.61.7-4,2.54-3.63,13.76-1.54,17.5,2.45,4.39,9.43,3.7,13.51,4.08a228.54,228.54,0,0,0,32.68.63c4.32-.22,13.3,1,16.11-3.67,2.55-4.24,1.31-12-1.22-15.94S69.64,108.61,65.85,108.76Z"/><path class="cls-4" d="M75.33,131.55a3,3,0,0,0,1.57-3.09c-2.71-.68-7.18,1.8-10.19,1.91-4.88.18-9.75-.54-14.62-.77-9.2-.44-18.53.47-27.82,0-.84,0-8.2-2.62-8.23-1.48-.13,3.83,10.05,3.76,12.33,3.89,4.27.24,8.53-.12,12.79,0,7.18.19,14.38-.43,21.55,0C65.08,132.09,72.14,133.36,75.33,131.55Z"/></g></g></svg>