<svg xmlns="http://www.w3.org/2000/svg" viewBox="0 0 363.76 313.69"><defs><style>.cls-1{fill:#ffe986;}.cls-2{fill:#21aeab;}.cls-3{fill:#fff;}</style></defs><title>hand-6</title><g id="Layer_2" data-name="Layer 2"><g id="Layer_1-2" data-name="Layer 1"><path class="cls-1" d="M304.77,292.64c1.33-6.39,17.17,7.07,28.11,12.67,2.36,1.2,12.87,8.07,14.19,5.94,2.24-3.61-2.52-6.37-4.06-7.68-2.37-2-4.95-3.77-7.34-5.77-.54-.45-3.16-1.87-2.28-4,1.42-3.44,4.66-1.33,6-.62,3,1.6,20.61,14.51,22.6,10.15,1.37-3-11-11.26-13.66-13.15-1.47-1.05-7.61-5.44-5.82-8.34,1.24-2,7.46,1,9,1.65,2.91,1.23,10.07,6.88,12.09,3.25,1.51-2.7-5.22-6.77-6.87-7.93-1.87-1.3-3.81-2.51-5.7-3.79-2.14-1.46-5.25-2.78-6.21-5.34-.47-1.25-.54-2.18.88-2.4,2.19-.32,5.19,1.4,7.13,2.28,1,.48,7.83,4.15,8,1.45.29-4.13-18.13-12.69-23.58-17.05-18-14.38-120.23-78-120.23-78s-23.06,40-27.94,49c7.53,4.37,57.22,31.57,73.11,40.2,6.91,3.75,13.52,7.61,18.94,13.4,8.11,8.66,11.26,20.51,18.77,29.56,1.6,1.93,4.53,5.44,7.35,5.61C312.51,314,304,296.36,304.77,292.64Z"/><path class="cls-2" d="M245,252.16c13-8.51,12.3-23.76,20.13-35.41l4.43-5.29c-3.89-11.52-29.43-28.89-42-37.78C214.81,164.59,12.64,9.05,0,0L1,132c22.29,13.56,194.15,102.67,217.16,115.77C232.81,256.11,236.24,257.92,245,252.16Z"/><path class="cls-2" d="M250.59,266.78c2.11-6.41,11.25-20.69,13.13-23.61,3.14-4.9,15.93-22.66,20.58-23.86-.43.11-9.35-8.08-10.67-8.92-3.73-2.37-8.93-5.77-13.1-3.52-3.72,2-6.78,6.79-9.65,9.75a75.85,75.85,0,0,0-8.12,10.76,149.42,149.42,0,0,0-9,16.1c-1.93,3.82-4.86,8.11-.73,12.23C234.19,256.88,250.19,268,250.59,266.78Z"/><path class="cls-3" d="M250.8,268.16h0c-.52,0-1.6,0-9.67-5.38-3.49-2.33-7.88-5.43-8.62-6.17a7.57,7.57,0,0,1-2.39-6.71,19.06,19.06,0,0,1,2.3-5.89c.21-.39.4-.75.58-1.11a152.14,152.14,0,0,1,9.1-16.24l.43-.63a71.55,71.55,0,0,1,7.84-10.31c.84-.87,1.72-1.92,2.64-3,2.12-2.54,4.52-5.43,7.31-6.93a7.48,7.48,0,0,1,3.63-.9c3.76,0,7.53,2.4,10.57,4.33l.2.13c.64.41,2.33,1.88,5.05,4.25,2.06,1.8,4.89,4.28,5.43,4.59a1,1,0,0,0-.51-.12h0v1.24l.33,1.28h0c-.79.21-3.36,1.6-10.17,10.1-4.28,5.34-8.19,10.94-9.65,13.21-6.94,10.81-11.67,19.31-13,23.32A1.44,1.44,0,0,1,250.8,268.16Zm13.14-60.74a5,5,0,0,0-2.41.58c-2.36,1.27-4.49,3.84-6.56,6.32-.95,1.16-1.86,2.24-2.77,3.19a69,69,0,0,0-7.55,10l-.43.63a147.18,147.18,0,0,0-8.94,16c-.19.38-.4.76-.59,1.14-2.15,4.08-3.24,6.76-.39,9.6.42.41,3.81,2.88,8,5.66a77.75,77.75,0,0,0,7.89,4.84c2.35-6,9-16.75,12.88-22.82,1.49-2.32,5.47-8,9.8-13.43,4.86-6.06,7.74-8.72,9.44-9.93-.12-.11-.26-.22-.41-.34-1.08-.91-2.46-2.12-3.79-3.29-1.89-1.65-4.23-3.69-4.73-4l-.21-.13C270.38,209.59,267,207.42,263.94,207.42Z"/><path class="cls-3" d="M244.21,254.42c7.88-2.86.32-13.33-4.72-7.78a6.36,6.36,0,0,0-.52.67C236.48,251.05,240.05,255.92,244.21,254.42Z"/></g></g></svg>