<svg xmlns="http://www.w3.org/2000/svg" viewBox="0 0 408.56 345.75"><defs><style>.cls-1{fill:#a663b9;}.cls-2{fill:#045775;}.cls-3{fill:#fff;}</style></defs><title>hand-3</title><g id="Layer_2" data-name="Layer 2"><g id="Layer_1-2" data-name="Layer 1"><path class="cls-1" d="M61.92,26C59.52,32.39,45.35,16.05,35,8.6,32.73,7,23-1.7,21.3.3c-2.89,3.39,1.57,7,2.95,8.56,2.12,2.44,4.5,4.65,6.64,7.08.49.55,3,2.42,1.7,4.52-2,3.35-5,.67-6.26-.27C23.52,18.08,7.41,2.06,4.66,6.26c-1.89,2.87,9.58,13.33,12,15.67,1.34,1.32,7,6.79,4.66,9.51-1.6,1.87-7.53-2.18-9-3.06C9.53,26.66,3.05,19.73.38,23.17c-2,2.57,4.3,7.8,5.82,9.24,1.72,1.64,3.53,3.18,5.27,4.8,2,1.84,5,3.67,5.54,6.46C17.3,45,17.22,46,15.73,46c-2.31,0-5.13-2.23-7-3.44-1-.64-7.41-5.48-8-2.71-1,4.22,16.65,15.88,21.57,21.21,16.26,17.61,36.08,33.55,54.06,49.42l0,0c9.45,8.35,57.36,49.52,57.36,49.52s30.16-37.82,36.63-46.42c-7-5.67-53.92-41.36-68.93-52.7C94.9,56,88.71,51,84,44.18c-7-10.19-8.32-22.92-14.61-33.42-1.34-2.23-3.8-6.31-6.68-6.92C57.36,2.72,63.31,22.26,61.92,26Z"/><path class="cls-2" d="M142.26,83.79c-12.61.41-17.75,11.53-24.52,21.11-5,7.14-10.7,13.86-15.76,21-3,4.16-4.65,6.56-3.59,11.39a43.1,43.1,0,0,0,4.72,12.8c4.81,8.17,12,14.62,19.32,20.36,4.91,3.85,280.13,175.32,280.13,175.32s6-57,6-74-5-77-5-77S154.08,84.74,146.39,83.94A31.62,31.62,0,0,0,142.26,83.79Z"/><path class="cls-3" d="M116.19,128l-1.24-1.6c.38,3.56,12.16,24.58,15.43,15.71C132.7,135.8,119.75,131.23,116.19,128Z"/><path class="cls-3" d="M132.06,120.42c-2.29-.72-4.88-2.46-7.3-2.63,2.14,3.65,12.58,16.38,17.35,11.83,2.77-2.63-1-5.85-3.37-7A50.07,50.07,0,0,0,132.06,120.42Z"/><path class="cls-3" d="M134.43,105.77c-1,.21,1.76,1.89,2.71,2.58a64.13,64.13,0,0,0,6.59,4.23c1.92,1,5.85,3.59,7.52,1,4.76-7.56-15.33-7.83-17.4-8.64Z"/><path class="cls-3" d="M118.11,151.35c4-5.38-7.21-13.37-9.73-17.5l-.74-1.88C107,135.49,112.5,159,118.11,151.35Z"/><path class="cls-3" d="M137.72,94.18c-.95.39,2.08,1.52,3.15,2a61.41,61.41,0,0,0,7.26,2.91c2.09.67,6.43,2.42,7.57-.48,3.25-8.32-16.53-4.8-18.71-5.2Z"/><path class="cls-2" d="M112,67.91A75.36,75.36,0,0,1,104.8,81.1c-8.33,11.69-18,22.33-29.83,30.74a56,56,0,0,0,9.52,12.29,80.45,80.45,0,0,0,9.68,8.4c3.36,2.42,5.07,3.67,9.3,2.92a25.47,25.47,0,0,0,9.17-4.07c5.71-3.74,10.55-8.79,15-13.93,5.52-6.4,12.64-19.1,11.83-28.12-.91-10.19-16-18.19-24.48-20.68C114,68.36,113,68.12,112,67.91Z"/><path class="cls-3" d="M88.14,112.9c-7.93,2.19-1.32,13,4,8a5.32,5.32,0,0,0,.56-.62C95.45,116.78,92.33,111.74,88.14,112.9Z"/></g></g></svg>