<svg xmlns="http://www.w3.org/2000/svg" viewBox="0 0 440.08 375.9"><defs><style>.cls-1{fill:#002e3b;}.cls-2{fill:#2180ae;}.cls-3{fill:#fff;}</style></defs><title>hand-2</title><g id="Layer_2" data-name="Layer 2"><g id="Layer_1-2" data-name="Layer 1"><path class="cls-1" d="M33.92,318c5,3.82-13.31,12-22.73,19.16C9.16,338.72-1.18,345,.11,347c2.2,3.45,6.58.46,8.36-.34,2.74-1.22,5.34-2.73,8.07-4,.62-.29,2.95-2,4.46-.3,2.4,2.65-.78,4.59-2,5.44C16.41,349.78-2.15,359.74.8,363.28c2,2.42,14.39-4.92,17.12-6.41,1.53-.84,7.9-4.35,9.67-1.58,1.21,1.9-4,6-5.17,7.09-2.28,2-10.17,5.89-7.87,9.15,1.72,2.43,8.06-1.72,9.75-2.68,1.92-1.08,3.77-2.27,5.68-3.37,2.16-1.25,4.6-3.4,7.22-3.17,1.28.11,2.12.44,1.71,1.75-.63,2-3.37,3.93-4.95,5.25-.85.71-6.87,5.08-4.61,6.38,3.46,2,18.59-10.47,24.64-13.4,20-9.67,117.9-72,117.9-72s-25.08-36.62-30.89-44.6c-6.94,4.71-51.29,36.57-65.41,46.79-6.14,4.44-12.25,8.57-19.54,10.88-10.9,3.44-22.51,1.26-33.5,4-2.34.59-6.61,1.67-7.93,4.05C12.15,315.88,31,315.81,33.92,318Z"/><path class="cls-2" d="M95.39,283.06c1.79,9.65,8.15,15.23,14.59,20.92,3.86,3.42,7.75,6.88,10.7,11.29l3.22,6.15c12.33.61,38.67-17.08,51.94-25.64C189.46,287,426.56,141.61,440.08,133V0c-21.46,16-308.69,242.4-330,259.27C96.49,270,93.45,272.59,95.39,283.06Z"/><path class="cls-3" d="M85.2,279c-1.2,1.34-2.89,2.48-2.53,4.32.18.94,3.6,4.76,7.6,9.44a132,132,0,0,1,9.91,12.65c2.16,3.33,10.91,17.95,12.36,22.1.62,1.79.78,4.54,3.33,4.27,4.28-.44,8.58-4.33,12.47-6.21,2.29-1.11,5.3-2.25,6.77-4.46,1.71-2.58-5.59-20.93-12.18-30.13-8.92-12.47-19.15-22.15-22.13-23.11C97,266.6,95,270.1,92.49,272.37S87.38,276.53,85.2,279Z"/><path class="cls-2" d="M114.64,319.65c.07,4.15,4,.2,7-1.55,3.46-2,6.71-4,10-6.23a.1.1,0,0,0,0-.05,1.69,1.69,0,0,0,.32-1.92c-.58-1-1-.62-1.94,0-1.62.91-3.3,2.2-4.59,3-3.29,2.06-6.56,3.92-10,5.77A2.43,2.43,0,0,0,114.64,319.65Z"/><path class="cls-2" d="M117.68,311.14c-1.36.91-3.27,2-4.91,3.16-1,.7-1.52.88-1.28,2.14.43,1.27,1.29.81,1.37.82h.06c3.59-2.27,7-4.61,10.52-7.14,3.06-2.16,8.08-4,5.63-6.61-.12-.12-.89,0-1.14.23C124.47,306.39,121.15,308.82,117.68,311.14Z"/><path class="cls-2" d="M119.48,302c-3.13,2.32-6.26,4.43-9.61,6.55a2.2,2.2,0,0,0-.67,1.05c.62,3.88,4.14-.27,7-2.24,3.31-2.31,6.41-4.52,9.55-7l0-.05a1.52,1.52,0,0,0,.08-1.84c-.74-.91-1.1-.47-2,.18C122.27,299.71,120.71,301.1,119.48,302Z"/><path class="cls-2" d="M107.12,303.31c-1,.71-1.55.89-1.26,2.12.49,1.21,1.36.75,1.44.75h.06c3.64-2.3,7-4.67,10.65-7.22,3.08-2.18,8.21-4.12,5.6-6.56-.12-.12-.91.05-1.17.25-3.49,2.67-6.85,5.12-10.36,7.47C110.71,301,108.77,302.1,107.12,303.31Z"/><path class="cls-2" d="M113.84,291.37c-3.29,2.38-6.58,4.57-10.11,6.78a2.16,2.16,0,0,0-.7,1c.67,3.8,4.37-.4,7.35-2.45,3.47-2.38,6.73-4.66,10-7.19l0-.05a1.39,1.39,0,0,0,.08-1.81c-.79-.87-1.16-.42-2.13.24C116.77,289,115.12,290.43,113.84,291.37Z"/><path class="cls-2" d="M105.1,289.65c-1.15.91-2.79,2-4.15,3.19-.83.69-1.31.89-.83,2,.66,1.09,1.42.62,1.49.62h0c3-2.29,5.88-4.64,8.85-7.15,2.55-2.16,7.07-4.19,4.18-6.32a1.63,1.63,0,0,0-1.06.29C110.78,284.91,108,287.32,105.1,289.65Z"/><path class="cls-2" d="M101.46,284.78c-1.11,1-2.71,2.22-4,3.54-.8.77-1.28,1-.71,2.07a1.14,1.14,0,0,0,1.57.48l0,0c3-2.55,5.67-5.14,8.52-7.91,2.45-2.37,6.92-4.8,3.82-6.65a1.77,1.77,0,0,0-1.06.38C106.92,279.55,104.27,282.19,101.46,284.78Z"/><path class="cls-2" d="M100.73,276.44c-2.65,2.7-5.37,5.19-8.32,7.74a1.71,1.71,0,0,0-.39,1.11c1.92,3.81,4.41-.77,6.85-3.1,2.84-2.7,5.5-5.29,8.12-8.14l0-.06c0-.09.55-.81-.5-1.85-1.11-.82-1.35-.33-2.14.43C103,273.8,101.77,275.38,100.73,276.44Z"/><path class="cls-2" d="M95.45,272.53c-2.64,2.71-5.36,5.2-8.31,7.75a1.64,1.64,0,0,0-.39,1.11c1.91,3.81,4.4-.78,6.85-3.1,2.84-2.71,5.5-5.29,8.12-8.14v-.06c0-.09.56-.81-.5-1.85-1.1-.83-1.35-.33-2.14.42C97.75,269.9,96.49,271.48,95.45,272.53Z"/><path class="cls-2" d="M116.31,325.49a3.13,3.13,0,0,0,2.32.92c3.06-1.62,6-3.34,9.09-5.17.34-.21.71-.4,1.09-.6Q131,319,133,317.21a6.63,6.63,0,0,0,.78-.82,2.75,2.75,0,0,0-.43-1l0-.05c-.09-.13-.81-.08-1.05.07-3.36,2.2-6.58,4.18-9.92,6-1.31.73-3.12,1.52-4.71,2.5C116.83,324.46,116.34,324.6,116.31,325.49Z"/></g></g></svg>