<svg xmlns="http://www.w3.org/2000/svg" xmlns:xlink="http://www.w3.org/1999/xlink" viewBox="0 0 51.87 51.87"><defs><style>.cls-1{fill:#002e3b;}.cls-2,.cls-3,.cls-4,.cls-5,.cls-6{fill:#fff;}.cls-2,.cls-5{opacity:0.4;}.cls-2{clip-path:url(#clip-path);}.cls-2,.cls-3,.cls-4{clip-rule:evenodd;}.cls-3,.cls-4,.cls-6{opacity:0.8;}.cls-3{clip-path:url(#clip-path-2);}.cls-4{clip-path:url(#clip-path-3);}.cls-5,.cls-6{fill-rule:evenodd;}</style><clipPath id="clip-path"><circle class="cls-1" cx="25.93" cy="25.93" r="25.93"/></clipPath><clipPath id="clip-path-2"><path class="cls-2" d="M7.07,16a3.68,3.68,0,0,0-2.34.85,2.77,2.77,0,0,0-1,2.09V30.44a3.49,3.49,0,0,0,3.34,3.29H23v4.83l5.16-4.83H44.85a2.53,2.53,0,0,0,2-1,3.7,3.7,0,0,0,.79-2.32V18.89A2.71,2.71,0,0,0,44.85,16Zm15,24.77v-6h-15a4.42,4.42,0,0,1-4.28-4.23V18.89a3.69,3.69,0,0,1,1.33-2.8,4.63,4.63,0,0,1,3-1.08H44.85a3.65,3.65,0,0,1,2.71,1.12,4,4,0,0,1,1,2.76V30.44a4.63,4.63,0,0,1-1,2.92,3.49,3.49,0,0,1-2.73,1.31H28.54Z"/></clipPath><clipPath id="clip-path-3"><polygon class="cls-3" points="14.95 29.63 12.88 29.63 12.88 25.47 8.85 25.47 8.85 29.63 6.78 29.63 6.78 19.67 8.85 19.67 8.85 23.59 12.88 23.59 12.88 19.67 14.95 19.67 14.95 29.63"/></clipPath><clipPath id="clip-path-4"><polygon class="cls-4" points="23.48 29.63 16.94 29.63 16.94 19.67 23.37 19.67 23.37 21.55 19.01 21.55 19.01 23.71 22.79 23.71 22.79 25.46 19.01 25.46 19.01 27.75 23.48 27.75 23.48 29.63"/></clipPath></defs><title>HepC</title><g id="Layer_2" data-name="Layer 2"><g id="Layer_1-2" data-name="Layer 1"><circle class="cls-1" cx="25.93" cy="25.93" r="25.93"/><path class="cls-5" d="M7.07,16a3.68,3.68,0,0,0-2.34.85,2.77,2.77,0,0,0-1,2.09V30.44a3.49,3.49,0,0,0,3.34,3.29H23v4.83l5.16-4.83H44.85a2.53,2.53,0,0,0,2-1,3.7,3.7,0,0,0,.79-2.32V18.89A2.71,2.71,0,0,0,44.85,16Zm15,24.77v-6h-15a4.42,4.42,0,0,1-4.28-4.23V18.89a3.69,3.69,0,0,1,1.33-2.8,4.63,4.63,0,0,1,3-1.08H44.85a3.65,3.65,0,0,1,2.71,1.12,4,4,0,0,1,1,2.76V30.44a4.63,4.63,0,0,1-1,2.92,3.49,3.49,0,0,1-2.73,1.31H28.54Z"/><polygon class="cls-6" points="14.95 29.63 12.88 29.63 12.88 25.47 8.85 25.47 8.85 29.63 6.78 29.63 6.78 19.67 8.85 19.67 8.85 23.59 12.88 23.59 12.88 19.67 14.95 19.67 14.95 29.63"/><polygon class="cls-6" points="23.48 29.63 16.94 29.63 16.94 19.67 23.37 19.67 23.37 21.55 19.01 21.55 19.01 23.71 22.79 23.71 22.79 25.46 19.01 25.46 19.01 27.75 23.48 27.75 23.48 29.63"/><path class="cls-6" d="M41.11,29.81A5,5,0,0,1,36,24.64a5,5,0,0,1,5.11-5.15,4.63,4.63,0,0,1,3.6,1.5l-1.3,1.5a3,3,0,0,0-2.3-1.11,3,3,0,0,0-3,3.26,3,3,0,0,0,3,3.28,3,3,0,0,0,2.33-1.14l1.28,1.51A4.58,4.58,0,0,1,41.11,29.81Z"/><path class="cls-6" d="M27,21.46v3h1.71a1.51,1.51,0,1,0,0-3Zm0,8.17H25v-10h4a3.3,3.3,0,1,1,0,6.59H27Z"/></g></g></svg>