<svg xmlns="http://www.w3.org/2000/svg" xmlns:xlink="http://www.w3.org/1999/xlink" viewBox="0 0 51.87 51.87"><defs><style>.cls-1{fill:#002e3b;}.cls-2,.cls-3,.cls-4,.cls-5,.cls-6{fill:#fff;}.cls-2,.cls-4{opacity:0.4;}.cls-2{clip-path:url(#clip-path);clip-rule:evenodd;}.cls-3,.cls-5,.cls-6{opacity:0.8;}.cls-3{clip-path:url(#clip-path-2);}.cls-4,.cls-6{fill-rule:evenodd;}</style><clipPath id="clip-path"><circle class="cls-1" cx="25.93" cy="25.93" r="25.93"/></clipPath><clipPath id="clip-path-2"><path class="cls-2" d="M12.85,14.14a4.83,4.83,0,0,0-3.21,1.24,4,4,0,0,0-1.37,3V33.93a4.43,4.43,0,0,0,1.39,3.14,4.64,4.64,0,0,0,3.19,1.36h8.82v6.81l7.21-6.81H40.63a3.81,3.81,0,0,0,2.89-1.33,4.84,4.84,0,0,0,1.13-3.17V18.38a4,4,0,0,0-4-4.24Zm7.91,33.21v-8H12.85A5.57,5.57,0,0,1,9,37.72a5.42,5.42,0,0,1-1.66-3.79V18.38A4.92,4.92,0,0,1,9,14.71a5.72,5.72,0,0,1,3.82-1.47H40.63a4.82,4.82,0,0,1,3.56,1.49,5.31,5.31,0,0,1,1.37,3.65V33.93a5.71,5.71,0,0,1-1.36,3.76,4.67,4.67,0,0,1-3.57,1.64H29.24Z"/></clipPath><clipPath id="clip-path-3"><rect class="cls-3" x="11.95" y="19.64" width="2.77" height="13.29"/></clipPath></defs><title>IBD</title><g id="Layer_2" data-name="Layer 2"><g id="Layer_1-2" data-name="Layer 1"><circle class="cls-1" cx="25.93" cy="25.93" r="25.93"/><path class="cls-4" d="M12.85,14.14a4.83,4.83,0,0,0-3.21,1.24,4,4,0,0,0-1.37,3V33.93a4.43,4.43,0,0,0,1.39,3.14,4.64,4.64,0,0,0,3.19,1.36h8.82v6.81l7.21-6.81H40.63a3.81,3.81,0,0,0,2.89-1.33,4.84,4.84,0,0,0,1.13-3.17V18.38a4,4,0,0,0-4-4.24Zm7.91,33.21v-8H12.85A5.57,5.57,0,0,1,9,37.72a5.42,5.42,0,0,1-1.66-3.79V18.38A4.92,4.92,0,0,1,9,14.71a5.72,5.72,0,0,1,3.82-1.47H40.63a4.82,4.82,0,0,1,3.56,1.49,5.31,5.31,0,0,1,1.37,3.65V33.93a5.71,5.71,0,0,1-1.36,3.76,4.67,4.67,0,0,1-3.57,1.64H29.24Z"/><rect class="cls-5" x="11.95" y="19.64" width="2.77" height="13.29"/><path class="cls-6" d="M22.29,22.16c1.14,0,1.8.54,1.8,1.44s-.68,1.47-1.73,1.47h-2.1V22.16Zm.83,5.09c1.28,0,2,.56,2,1.59s-.76,1.58-1.95,1.58H20.26V27.25Zm-.47-7.61H17.51V32.93h6c2.46,0,4.41-1.39,4.41-3.87a3.18,3.18,0,0,0-2.36-3.25,3,3,0,0,0,1.28-2.57C26.86,21,25.29,19.64,22.65,19.64Z"/><path class="cls-6" d="M32.6,22.17v8.25H34c3,0,4.55-1.52,4.55-4.12S37,22.17,34,22.17Zm1.47,10.76H29.84V19.64h4.23c4.54,0,7.27,2.44,7.27,6.64S38.64,32.93,34.07,32.93Z"/></g></g></svg>