<svg xmlns="http://www.w3.org/2000/svg" xmlns:xlink="http://www.w3.org/1999/xlink" viewBox="0 0 51.87 51.87"><defs><style>.cls-1{fill:#002e3b;}.cls-2,.cls-3,.cls-4,.cls-5,.cls-6{fill:#fff;}.cls-2,.cls-4{opacity:0.4;}.cls-2{clip-path:url(#clip-path);}.cls-2,.cls-3{clip-rule:evenodd;}.cls-3,.cls-5,.cls-6{opacity:0.8;}.cls-3{clip-path:url(#clip-path-2);}.cls-4,.cls-5{fill-rule:evenodd;}</style><clipPath id="clip-path"><circle class="cls-1" cx="25.93" cy="25.93" r="25.93"/></clipPath><clipPath id="clip-path-2"><path class="cls-2" d="M13.49,14.14a4.79,4.79,0,0,0-3.2,1.24,4,4,0,0,0-1.38,3V33.93a4.47,4.47,0,0,0,1.39,3.14,4.64,4.64,0,0,0,3.19,1.36h8.82v6.81l7.21-6.81h9.82a3.8,3.8,0,0,0,2.89-1.33,4.79,4.79,0,0,0,1.14-3.17V18.38a4,4,0,0,0-4-4.24Zm7.92,33.21v-8H13.49a5.54,5.54,0,0,1-3.82-1.61A5.39,5.39,0,0,1,8,33.93V18.38a4.93,4.93,0,0,1,1.68-3.67,5.71,5.71,0,0,1,3.81-1.47H39.34a4.8,4.8,0,0,1,3.56,1.49,5.27,5.27,0,0,1,1.38,3.65V33.93a5.76,5.76,0,0,1-1.36,3.76,4.68,4.68,0,0,1-3.58,1.64H29.88Z"/></clipPath><clipPath id="clip-path-3"><path class="cls-3" d="M22.93,22.16c1.14,0,1.81.54,1.81,1.44s-.69,1.47-1.74,1.47H20.91V22.16Zm.83,5.09c1.29,0,2,.56,2,1.59s-.76,1.58-2,1.58H20.91V27.25Zm-.47-7.61H18.16V32.93h6c2.46,0,4.41-1.39,4.41-3.87a3.18,3.18,0,0,0-2.37-3.25,3,3,0,0,0,1.28-2.57C27.5,21,25.93,19.64,23.29,19.64Z"/></clipPath></defs><title>IBS</title><g id="Layer_2" data-name="Layer 2"><g id="Layer_1-2" data-name="Layer 1"><circle class="cls-1" cx="25.93" cy="25.93" r="25.93"/><path class="cls-4" d="M13.49,14.14a4.79,4.79,0,0,0-3.2,1.24,4,4,0,0,0-1.38,3V33.93a4.47,4.47,0,0,0,1.39,3.14,4.64,4.64,0,0,0,3.19,1.36h8.82v6.81l7.21-6.81h9.82a3.8,3.8,0,0,0,2.89-1.33,4.79,4.79,0,0,0,1.14-3.17V18.38a4,4,0,0,0-4-4.24Zm7.92,33.21v-8H13.49a5.54,5.54,0,0,1-3.82-1.61A5.39,5.39,0,0,1,8,33.93V18.38a4.93,4.93,0,0,1,1.68-3.67,5.71,5.71,0,0,1,3.81-1.47H39.34a4.8,4.8,0,0,1,3.56,1.49,5.27,5.27,0,0,1,1.38,3.65V33.93a5.76,5.76,0,0,1-1.36,3.76,4.68,4.68,0,0,1-3.58,1.64H29.88Z"/><path class="cls-5" d="M22.93,22.16c1.14,0,1.81.54,1.81,1.44s-.69,1.47-1.74,1.47H20.91V22.16Zm.83,5.09c1.29,0,2,.56,2,1.59s-.76,1.58-2,1.58H20.91V27.25Zm-.47-7.61H18.16V32.93h6c2.46,0,4.41-1.39,4.41-3.87a3.18,3.18,0,0,0-2.37-3.25,3,3,0,0,0,1.28-2.57C27.5,21,25.93,19.64,23.29,19.64Z"/><path class="cls-5" d="M34.58,19.41c-2.85,0-4.68,1.7-4.68,4.08,0,2,1,3.33,4.47,4.07,2,.38,2.56.81,2.56,1.59,0,1-.79,1.5-2.18,1.5A5.43,5.43,0,0,1,31,29.1l-1.5,2.29a7.81,7.81,0,0,0,5.16,1.77c3.12,0,5-1.71,5-4.26,0-2-1.08-3.29-4.52-4-2-.38-2.49-.76-2.49-1.52,0-1,.72-1.45,1.89-1.45a5,5,0,0,1,3.24,1.16l1.43-2.28A7.67,7.67,0,0,0,34.58,19.41Z"/><rect class="cls-6" x="12.6" y="19.64" width="2.77" height="13.29"/></g></g></svg>