<svg xmlns="http://www.w3.org/2000/svg" xmlns:xlink="http://www.w3.org/1999/xlink" viewBox="0 0 64.3 64.3"><defs><style>.cls-1,.cls-2{fill:none;}.cls-2{clip-rule:evenodd;}.cls-3{clip-path:url(#clip-path);}.cls-4{clip-path:url(#clip-path-2);}.cls-5{fill:#002e3b;}.cls-6{clip-path:url(#clip-path-3);}.cls-7,.cls-9{fill:#fff;}.cls-7{opacity:0.4;}.cls-8{clip-path:url(#clip-path-4);}.cls-9{opacity:0.8;}.cls-10{clip-path:url(#clip-path-5);}</style><clipPath id="clip-path"><circle class="cls-1" cx="31.98" cy="32.83" r="25.93"/></clipPath><clipPath id="clip-path-2"><rect class="cls-1" x="2.47" y="2.47" width="59.35" height="59.35"/></clipPath><clipPath id="clip-path-3"><path class="cls-2" d="M19.58,19.69A5,5,0,0,0,16.25,21a4.18,4.18,0,0,0-1.43,3.12V40.26a4.61,4.61,0,0,0,1.44,3.26,4.82,4.82,0,0,0,3.32,1.41H28.1V52l7.49-7.09h9.57a3.94,3.94,0,0,0,3-1.38,5,5,0,0,0,1.18-3.29V24.09a4.15,4.15,0,0,0-4.18-4.4Zm7.58,34.52V45.88H19.58a5.8,5.8,0,0,1-4-1.68,5.59,5.59,0,0,1-1.73-3.94V24.09a5.14,5.14,0,0,1,1.74-3.82,6,6,0,0,1,4-1.52H45.16a5,5,0,0,1,3.7,1.55,5.49,5.49,0,0,1,1.42,3.79V40.26a6,6,0,0,1-1.41,3.91,4.88,4.88,0,0,1-3.71,1.71H36Z"/></clipPath><clipPath id="clip-path-4"><path class="cls-2" d="M35.45,28.05v8.63h1.44c3.14,0,4.76-1.59,4.76-4.31S40,28.05,36.89,28.05ZM37,39.31H32.55V25.41H37c4.75,0,7.61,2.55,7.61,6.94S41.77,39.31,37,39.31Z"/></clipPath><clipPath id="clip-path-5"><path class="cls-2" d="M22.62,27.9v4.2h2.43a2.11,2.11,0,1,0,0-4.2Zm0,11.41h-2.9V25.41h5.61c2.66,0,4.9,1.64,4.9,4.59s-2.22,4.59-4.9,4.59H22.62Z"/></clipPath></defs><title>icon-13</title><g id="Layer_2" data-name="Layer 2"><g id="Layer_1-2" data-name="Layer 1"><g class="cls-3"><g class="cls-4"><rect class="cls-5" width="64.3" height="64.3"/></g><g class="cls-6"><rect class="cls-7" x="11.86" y="16.74" width="40.43" height="39.49"/></g><g class="cls-8"><rect class="cls-9" x="30.54" y="23.4" width="16.05" height="17.92"/></g><g class="cls-10"><rect class="cls-9" x="17.71" y="23.4" width="14.53" height="17.92"/></g></g></g></g></svg>