<svg xmlns="http://www.w3.org/2000/svg" xmlns:xlink="http://www.w3.org/1999/xlink" viewBox="0 0 65.35 65.35"><defs><style>.cls-1,.cls-2{fill:none;}.cls-2{clip-rule:evenodd;}.cls-3{clip-path:url(#clip-path);}.cls-4{clip-path:url(#clip-path-2);}.cls-5{fill:#002e3b;}.cls-6{clip-path:url(#clip-path-3);}.cls-7,.cls-9{fill:#fff;}.cls-7{opacity:0.4;}.cls-8{clip-path:url(#clip-path-4);}.cls-9{opacity:0.8;}.cls-10{clip-path:url(#clip-path-5);}.cls-11{clip-path:url(#clip-path-6);}</style><clipPath id="clip-path"><circle class="cls-1" cx="32.47" cy="32.31" r="25.93"/></clipPath><clipPath id="clip-path-2"><rect class="cls-1" x="2.51" y="2.51" width="60.32" height="60.32"/></clipPath><clipPath id="clip-path-3"><path class="cls-2" d="M20,20.52a4.84,4.84,0,0,0-3.2,1.23,4,4,0,0,0-1.38,3V40.3a4.49,4.49,0,0,0,1.39,3.15A4.64,4.64,0,0,0,20,44.8h8.82v6.82l7.21-6.82h9.83a3.8,3.8,0,0,0,2.89-1.33A4.82,4.82,0,0,0,49.9,40.3V24.75a4,4,0,0,0-4-4.23Zm7.92,33.21v-8H20a5.53,5.53,0,0,1-3.82-1.62,5.34,5.34,0,0,1-1.66-3.79V24.75a4.93,4.93,0,0,1,1.67-3.67A5.76,5.76,0,0,1,20,19.61H45.88a4.81,4.81,0,0,1,3.56,1.5,5.3,5.3,0,0,1,1.37,3.64V40.3a5.72,5.72,0,0,1-1.36,3.77,4.67,4.67,0,0,1-3.57,1.64H36.41Z"/></clipPath><clipPath id="clip-path-4"><path class="cls-2" d="M29.46,28.53c1.14,0,1.81.55,1.81,1.45s-.68,1.46-1.73,1.46h-2.1V28.53Zm.84,5.1c1.28,0,2,.56,2,1.59s-.76,1.57-1.95,1.57H27.44V33.63ZM29.83,26H24.69V39.31h6c2.46,0,4.41-1.4,4.41-3.87a3.18,3.18,0,0,0-2.37-3.26A3,3,0,0,0,34,29.62C34,27.38,32.47,26,29.83,26Z"/></clipPath><clipPath id="clip-path-5"><path class="cls-2" d="M41.12,25.79c-2.86,0-4.68,1.69-4.68,4.08,0,1.95,1,3.33,4.46,4.07,2,.38,2.57.81,2.57,1.59,0,1-.8,1.5-2.19,1.5a5.4,5.4,0,0,1-3.74-1.56L36,37.77a7.79,7.79,0,0,0,5.15,1.77c3.13,0,5-1.72,5-4.26,0-2.05-1.08-3.29-4.51-4-2-.38-2.5-.76-2.5-1.52,0-1,.72-1.44,1.9-1.44a4.94,4.94,0,0,1,3.23,1.15l1.43-2.27A7.66,7.66,0,0,0,41.12,25.79Z"/></clipPath><clipPath id="clip-path-6"><rect class="cls-1" x="19.13" y="26.02" width="2.77" height="13.29"/></clipPath></defs><title>icon-9</title><g id="Layer_2" data-name="Layer 2"><g id="Layer_1-2" data-name="Layer 1"><g class="cls-3"><g class="cls-4"><rect class="cls-5" width="65.35" height="65.35"/></g><g class="cls-6"><rect class="cls-7" x="12.53" y="17.6" width="40.29" height="38.13"/></g><g class="cls-8"><rect class="cls-9" x="22.68" y="24.01" width="14.45" height="17.31"/></g><g class="cls-10"><rect class="cls-9" x="34.03" y="23.78" width="14.2" height="17.78"/></g><g class="cls-11"><rect class="cls-9" x="17.12" y="24.01" width="6.79" height="17.31"/></g></g></g></g></svg>