<svg xmlns="http://www.w3.org/2000/svg" xmlns:xlink="http://www.w3.org/1999/xlink" viewBox="0 0 64.63 64.63"><defs><style>.cls-1,.cls-2{fill:none;}.cls-2{clip-rule:evenodd;}.cls-3{clip-path:url(#clip-path);}.cls-4{clip-path:url(#clip-path-2);}.cls-5{fill:#002e3b;}.cls-6{clip-path:url(#clip-path-3);}.cls-7,.cls-9{fill:#fff;}.cls-7{opacity:0.4;}.cls-8{clip-path:url(#clip-path-4);}.cls-9{opacity:0.8;}.cls-10{clip-path:url(#clip-path-5);}.cls-11{clip-path:url(#clip-path-6);}</style><clipPath id="clip-path"><circle class="cls-1" cx="31.79" cy="31.95" r="25.93"/></clipPath><clipPath id="clip-path-2"><rect class="cls-1" x="2.49" y="2.49" width="59.66" height="59.66"/></clipPath><clipPath id="clip-path-3"><path class="cls-2" d="M18.7,20.16a4.83,4.83,0,0,0-3.2,1.23,4,4,0,0,0-1.38,3V39.94a4.49,4.49,0,0,0,1.39,3.15,4.62,4.62,0,0,0,3.19,1.35h8.82v6.82l7.21-6.82H46.48a3.76,3.76,0,0,0,2.89-1.33,4.83,4.83,0,0,0,1.14-3.17V24.39a4,4,0,0,0-4-4.23Zm7.91,33.21v-8H18.7a5.55,5.55,0,0,1-3.83-1.62,5.38,5.38,0,0,1-1.66-3.79V24.39a4.94,4.94,0,0,1,1.68-3.67,5.76,5.76,0,0,1,3.81-1.47H46.48A4.79,4.79,0,0,1,50,20.75a5.25,5.25,0,0,1,1.37,3.64V39.94a5.72,5.72,0,0,1-1.36,3.77,4.65,4.65,0,0,1-3.57,1.64H35.09Z"/></clipPath><clipPath id="clip-path-4"><rect class="cls-1" x="17.81" y="25.66" width="2.77" height="13.29"/></clipPath><clipPath id="clip-path-5"><path class="cls-2" d="M28.14,28.17c1.14,0,1.81.55,1.81,1.45s-.69,1.46-1.74,1.46H26.12V28.17Zm.83,5.1c1.28,0,2,.56,2,1.59s-.76,1.57-2,1.57H26.12V33.27Zm-.47-7.61H23.37V39h6c2.46,0,4.41-1.4,4.41-3.87a3.18,3.18,0,0,0-2.37-3.26,3,3,0,0,0,1.28-2.56C32.71,27,31.14,25.66,28.5,25.66Z"/></clipPath><clipPath id="clip-path-6"><path class="cls-2" d="M38.46,28.19v8.24h1.37c3,0,4.56-1.51,4.56-4.12s-1.58-4.12-4.56-4.12ZM39.92,39H35.69V25.66h4.23c4.54,0,7.27,2.44,7.27,6.63S44.5,39,39.92,39Z"/></clipPath></defs><title>icon-7</title><g id="Layer_2" data-name="Layer 2"><g id="Layer_1-2" data-name="Layer 1"><g class="cls-3"><g class="cls-4"><rect class="cls-5" width="64.63" height="64.63"/></g><g class="cls-6"><rect class="cls-7" x="11.2" y="17.24" width="42.22" height="38.13"/></g><g class="cls-8"><rect class="cls-9" x="15.8" y="23.65" width="6.79" height="17.31"/></g><g class="cls-10"><rect class="cls-9" x="21.36" y="23.65" width="14.45" height="17.31"/></g><g class="cls-11"><rect class="cls-9" x="33.68" y="23.65" width="15.52" height="17.31"/></g></g></g></g></svg>