<svg xmlns="http://www.w3.org/2000/svg" xmlns:xlink="http://www.w3.org/1999/xlink" viewBox="0 0 66.28 66.28"><defs><style>.cls-1,.cls-2{fill:none;}.cls-2{clip-rule:evenodd;}.cls-3{clip-path:url(#clip-path);}.cls-4{clip-path:url(#clip-path-2);}.cls-5{fill:#002e3b;}.cls-6{clip-path:url(#clip-path-3);}.cls-7,.cls-9{fill:#fff;}.cls-7{opacity:0.85;}.cls-8{clip-path:url(#clip-path-4);}.cls-9{opacity:0.4;}</style><clipPath id="clip-path"><circle class="cls-1" cx="32.97" cy="32.78" r="25.93"/></clipPath><clipPath id="clip-path-2"><rect class="cls-1" x="2.55" y="2.55" width="61.18" height="61.18"/></clipPath><clipPath id="clip-path-3"><path class="cls-2" d="M32.34,30.11l-1.93,4.56h3.85Zm7.4,9.4H36.25l-1-2.37H29.41l-1,2.37H24.94L32.29,24h.09Z"/></clipPath><clipPath id="clip-path-4"><path class="cls-2" d="M23.15,18.2a4.85,4.85,0,0,0-4.7,4.64q-.06,9,0,18.11a4.82,4.82,0,0,0,4.7,4.63h4.66v7.64l8.1-7.64c3.28,0,7.06.65,9.05-1.49A4.75,4.75,0,0,0,46.22,41q.06-9.06,0-18.11a4.81,4.81,0,0,0-4.63-4.64C35.44,18.16,29.29,18.2,23.15,18.2Zm18.45-1a5.81,5.81,0,0,1,5.59,5.59q.06,9.06,0,18.13a5.84,5.84,0,0,1-5.66,5.59H36.3l-9.45,8.91V46.55c-1.84,0-3.62.43-5.71-.37A5.78,5.78,0,0,1,17.49,41q-.06-9.06,0-18.13a5.8,5.8,0,0,1,5.58-5.59Q32.34,17.18,41.6,17.24Z"/></clipPath></defs><title>icon-8</title><g id="Layer_2" data-name="Layer 2"><g id="Layer_1-2" data-name="Layer 1"><g class="cls-3"><g class="cls-4"><rect class="cls-5" width="66.28" height="66.28"/></g><g class="cls-6"><rect class="cls-7" x="22.93" y="22" width="18.82" height="19.52"/></g><g class="cls-8"><rect class="cls-9" x="15.45" y="15.2" width="33.78" height="42.27"/></g></g></g></g></svg>