<svg xmlns="http://www.w3.org/2000/svg" xmlns:xlink="http://www.w3.org/1999/xlink" viewBox="0 0 57.09 57.09"><defs><style>.cls-1,.cls-2{fill:none;}.cls-2{clip-rule:evenodd;}.cls-3{clip-path:url(#clip-path);}.cls-4{clip-path:url(#clip-path-2);}.cls-5{fill:#002e3b;}.cls-6{clip-path:url(#clip-path-3);}.cls-7,.cls-9{fill:#fff;}.cls-7{opacity:0.4;}.cls-8{clip-path:url(#clip-path-4);}.cls-9{opacity:0.8;}.cls-10{clip-path:url(#clip-path-5);}</style><clipPath id="clip-path"><circle class="cls-1" cx="28.38" cy="29.15" r="25.93"/></clipPath><clipPath id="clip-path-2"><rect class="cls-1" x="1.61" y="1.61" width="53.88" height="53.88"/></clipPath><clipPath id="clip-path-3"><path class="cls-2" d="M23.67,50.51V42.19H16.1a5.75,5.75,0,0,1-4-1.68,5.58,5.58,0,0,1-1.72-3.93V20.44a5.12,5.12,0,0,1,1.74-3.81,6,6,0,0,1,4-1.53H41.64a5,5,0,0,1,3.69,1.56,5.47,5.47,0,0,1,1.43,3.78V36.58a6,6,0,0,1-1.41,3.91,4.9,4.9,0,0,1-3.71,1.7H32.47ZM16.1,16.05a5,5,0,0,0-3.32,1.28,4.18,4.18,0,0,0-1.43,3.11V36.58a4.67,4.67,0,0,0,1.44,3.26,4.79,4.79,0,0,0,3.31,1.41h8.51v7.08l7.48-7.08h9.55a3.94,3.94,0,0,0,3-1.38,5,5,0,0,0,1.18-3.29V20.44a4.15,4.15,0,0,0-4.18-4.39Z"/></clipPath><clipPath id="clip-path-4"><path class="cls-2" d="M27.44,25.76a4.24,4.24,0,0,1-2.55,4l3.23,5.38H24.76l-2.9-4.89H20v4.89H17.09V21.26h5.43C25.17,21.26,27.44,22.89,27.44,25.76Zm-7.49-2v4h2.3c1.36,0,2.26-.69,2.26-2s-.9-2-2.26-2Z"/></clipPath><clipPath id="clip-path-5"><path class="cls-2" d="M41.79,35.14H38.62L37.71,33H32.4l-.91,2.17H28.32L35,21h.07ZM33.3,30.76h3.51l-1.76-4.14Z"/></clipPath></defs><title>icon-3</title><g id="Layer_2" data-name="Layer 2"><g id="Layer_1-2" data-name="Layer 1"><g class="cls-3"><g class="cls-4"><rect class="cls-5" width="57.09" height="57.09"/></g><g class="cls-6"><rect class="cls-7" x="8.4" y="13.09" width="40.37" height="39.43"/></g><g class="cls-8"><rect class="cls-9" x="15.08" y="19.25" width="15.05" height="17.89"/></g><g class="cls-10"><rect class="cls-9" x="26.31" y="19.02" width="17.48" height="18.13"/></g></g></g></g></svg>