<svg xmlns="http://www.w3.org/2000/svg" xmlns:xlink="http://www.w3.org/1999/xlink" viewBox="0 0 93.73 91.52"><defs><style>.cls-1{fill:none;}.cls-11,.cls-2,.cls-6,.cls-8{fill:#fff;}.cls-2{clip-rule:evenodd;}.cls-3{clip-path:url(#clip-path);}.cls-4{fill:#002e3b;}.cls-11,.cls-5{opacity:0.4;}.cls-6{fill-rule:evenodd;}.cls-7{clip-path:url(#clip-path-2);}.cls-8{opacity:0.2;}.cls-9{opacity:0.8;}.cls-10{clip-path:url(#clip-path-3);}</style><clipPath id="clip-path"><circle class="cls-1" cx="48.58" cy="39.18" r="25.93"/></clipPath><clipPath id="clip-path-2"><path class="cls-2" d="M32.77,26.68a4.21,4.21,0,0,0-1.43,3.12V46a4.63,4.63,0,0,0,1.44,3.27,4.82,4.82,0,0,0,3.32,1.41h8v7.09l7.49-7.09h9.08a4,4,0,0,0,3-1.38A5,5,0,0,0,64.9,46V29.8a4.16,4.16,0,0,0-4.19-4.4H36.1A5,5,0,0,0,32.77,26.68ZM43.19,51.6H36.1a5.8,5.8,0,0,1-4-1.68,5.61,5.61,0,0,1-1.73-4V29.8A5.08,5.08,0,0,1,32.14,26a5.91,5.91,0,0,1,4-1.53H60.71A5,5,0,0,1,64.42,26a5.54,5.54,0,0,1,1.42,3.79V46a6,6,0,0,1-1.41,3.92,4.88,4.88,0,0,1-3.72,1.71H52l-8.82,8.33Z"/></clipPath><clipPath id="clip-path-3"><path class="cls-2" d="M55.58,30a7.13,7.13,0,0,0-7.34,7.4,7.13,7.13,0,0,0,7.34,7.41,6.55,6.55,0,0,0,5.19-2.18l-1.85-2.16a4.24,4.24,0,0,1-3.34,1.64c-2.63,0-4.34-2-4.34-4.71s1.71-4.69,4.34-4.69a4.23,4.23,0,0,1,3.3,1.59l1.87-2.16A6.65,6.65,0,0,0,55.58,30Zm-14.2,3c1.23,0,2.66.24,2.49,1.56,0,1.32-1.28,1.57-2.41,1.57H39.2V32.94Zm.9,5.49c1.38,0,2.18.6,2.18,1.71s-.82,1.69-2.11,1.69H39.2v-3.4Zm-6-8.2V44.54h6.48c2.65,0,4.75-1.5,4.75-4.17a3.46,3.46,0,0,0-2.38-3.5,2.69,2.69,0,0,0,1.76-2.76c.17-2.47-2.24-3.88-5.08-3.88Z"/></clipPath></defs><title>icon-18</title><g id="Layer_2" data-name="Layer 2"><g id="Layer_1-2" data-name="Layer 1"><g class="cls-3"><rect class="cls-4" width="93.73" height="91.52"/><g class="cls-5"><path class="cls-6" d="M32.77,26.68a4.21,4.21,0,0,0-1.43,3.12V46a4.63,4.63,0,0,0,1.44,3.27,4.82,4.82,0,0,0,3.32,1.41h8v7.09l7.49-7.09h9.08a4,4,0,0,0,3-1.38A5,5,0,0,0,64.9,46V29.8a4.16,4.16,0,0,0-4.19-4.4H36.1A5,5,0,0,0,32.77,26.68ZM43.19,51.6H36.1a5.8,5.8,0,0,1-4-1.68,5.61,5.61,0,0,1-1.73-4V29.8A5.08,5.08,0,0,1,32.14,26a5.91,5.91,0,0,1,4-1.53H60.71A5,5,0,0,1,64.42,26a5.54,5.54,0,0,1,1.42,3.79V46a6,6,0,0,1-1.41,3.92,4.88,4.88,0,0,1-3.72,1.71H52l-8.82,8.33Z"/><g class="cls-7"><rect class="cls-8" x="28.38" y="22.45" width="39.47" height="39.5"/></g></g><g class="cls-9"><path class="cls-6" d="M55.58,30a7.13,7.13,0,0,0-7.34,7.4,7.13,7.13,0,0,0,7.34,7.41,6.55,6.55,0,0,0,5.19-2.18l-1.85-2.16a4.24,4.24,0,0,1-3.34,1.64c-2.63,0-4.34-2-4.34-4.71s1.71-4.69,4.34-4.69a4.23,4.23,0,0,1,3.3,1.59l1.87-2.16A6.65,6.65,0,0,0,55.58,30Zm-14.2,3c1.23,0,2.66.24,2.49,1.56,0,1.32-1.28,1.57-2.41,1.57H39.2V32.94Zm.9,5.49c1.38,0,2.18.6,2.18,1.71s-.82,1.69-2.11,1.69H39.2v-3.4Zm-6-8.2V44.54h6.48c2.65,0,4.75-1.5,4.75-4.17a3.46,3.46,0,0,0-2.38-3.5,2.69,2.69,0,0,0,1.76-2.76c.17-2.47-2.24-3.88-5.08-3.88Z"/><g class="cls-10"><rect class="cls-11" x="34.23" y="27.97" width="28.55" height="18.83"/></g></g></g></g></g></svg>