<svg xmlns="http://www.w3.org/2000/svg" xmlns:xlink="http://www.w3.org/1999/xlink" viewBox="0 0 73.17 73.17"><defs><style>.cls-1,.cls-2{fill:none;}.cls-2{clip-rule:evenodd;}.cls-3{clip-path:url(#clip-path);}.cls-4{clip-path:url(#clip-path-2);}.cls-5{fill:#002e3b;}.cls-6{clip-path:url(#clip-path-3);}.cls-7,.cls-9{fill:#fff;}.cls-7{opacity:0.4;}.cls-8{clip-path:url(#clip-path-4);}.cls-9{opacity:0.85;}</style><clipPath id="clip-path"><circle class="cls-1" cx="36.1" cy="37.19" r="25.93"/></clipPath><clipPath id="clip-path-2"><rect class="cls-1" x="2.81" y="2.81" width="67.55" height="67.55"/></clipPath><clipPath id="clip-path-3"><path class="cls-2" d="M32.06,57.88l8.1-7.64h5.62a4.69,4.69,0,0,0,4.69-4.69v-18a4.69,4.69,0,0,0-4.69-4.7H27.4a4.7,4.7,0,0,0-4.7,4.7v18a4.7,4.7,0,0,0,4.7,4.69h4.66ZM27.4,51.21a5.66,5.66,0,0,1-5.66-5.66v-18A5.65,5.65,0,0,1,27.4,21.9H45.78a5.66,5.66,0,0,1,5.66,5.66v18a5.67,5.67,0,0,1-5.66,5.66H40.55L31.1,60.12V51.21Z"/></clipPath><clipPath id="clip-path-4"><polygon class="cls-2" points="32.11 44.17 28.91 44.17 28.91 28.81 28.99 28.81 36.56 39.5 44.11 28.81 44.27 28.81 44.27 44.17 41.07 44.17 41.07 37.74 36.65 44.33 36.48 44.33 32.11 37.74 32.11 44.17"/></clipPath></defs><title>icon-1</title><g id="Layer_2" data-name="Layer 2"><g id="Layer_1-2" data-name="Layer 1"><g class="cls-3"><g class="cls-4"><rect class="cls-5" width="73.17" height="73.17"/></g><g class="cls-6"><rect class="cls-7" x="19.73" y="19.88" width="33.72" height="42.24"/></g><g class="cls-8"><rect class="cls-9" x="26.9" y="26.8" width="19.38" height="19.54"/></g></g></g></g></svg>