<svg xmlns="http://www.w3.org/2000/svg" xmlns:xlink="http://www.w3.org/1999/xlink" viewBox="0 0 79.45 79.45"><defs><style>.cls-1,.cls-2{fill:none;}.cls-2{clip-rule:evenodd;}.cls-3{clip-path:url(#clip-path);}.cls-4{clip-path:url(#clip-path-2);}.cls-5{fill:#002e3b;}.cls-6{clip-path:url(#clip-path-3);}.cls-7,.cls-9{fill:#fff;}.cls-7{opacity:0.4;}.cls-8{clip-path:url(#clip-path-4);}.cls-9{opacity:0.8;}.cls-10{clip-path:url(#clip-path-5);}</style><clipPath id="clip-path"><circle class="cls-1" cx="38.8" cy="41.13" r="25.93"/></clipPath><clipPath id="clip-path-2"><rect class="cls-1" x="7.16" y="7.16" width="65.13" height="65.13"/></clipPath><clipPath id="clip-path-3"><path class="cls-2" d="M27.05,27.21a5,5,0,0,0-3.34,1.29,4.18,4.18,0,0,0-1.43,3.12V47.79a4.64,4.64,0,0,0,1.45,3.27,4.82,4.82,0,0,0,3.32,1.41h8.52v7.09l7.5-7.09h9.56a3.94,3.94,0,0,0,3-1.39,5,5,0,0,0,1.18-3.29V31.62a4.16,4.16,0,0,0-4.19-4.41Zm7.58,34.54V53.41H27.05a5.75,5.75,0,0,1-4-1.68,5.59,5.59,0,0,1-1.73-3.94V31.62a5.13,5.13,0,0,1,1.74-3.82,6,6,0,0,1,4-1.53H52.63a5,5,0,0,1,3.7,1.56,5.48,5.48,0,0,1,1.43,3.79V47.79a6,6,0,0,1-1.41,3.91,4.88,4.88,0,0,1-3.72,1.71H43.44Z"/></clipPath><clipPath id="clip-path-4"><polygon class="cls-2" points="41.08 46.34 38.21 46.34 38.21 40.5 34.15 46.53 34 46.53 29.96 40.5 29.96 46.34 27.09 46.34 27.09 32.21 27.14 32.21 34.08 41.99 40.99 32.21 41.08 32.21 41.08 46.34 41.08 46.34"/></clipPath><clipPath id="clip-path-5"><path class="cls-2" d="M52.93,33.66,51.44,36a5.19,5.19,0,0,0-3.38-1.21c-1.23,0-2,.49-2,1.52,0,.79.53,1.19,2.61,1.58,3.59.76,4.72,2.06,4.72,4.2,0,2.66-2,4.46-5.25,4.46a8.15,8.15,0,0,1-5.38-1.86l1.56-2.4A5.65,5.65,0,0,0,48.24,44c1.46,0,2.29-.55,2.29-1.57,0-.81-.62-1.26-2.68-1.66-3.59-.78-4.67-2.21-4.67-4.25,0-2.5,1.91-4.27,4.89-4.27A8,8,0,0,1,52.93,33.66Z"/></clipPath></defs><title>icon-2</title><g id="Layer_2" data-name="Layer 2"><g id="Layer_1-2" data-name="Layer 1"><g class="cls-3"><g class="cls-4"><rect class="cls-5" width="79.45" height="79.45"/><g class="cls-6"><rect class="cls-7" x="19.33" y="24.26" width="40.44" height="39.5"/></g><g class="cls-8"><rect class="cls-9" x="25.08" y="30.2" width="18.01" height="18.34"/></g><g class="cls-10"><rect class="cls-9" x="40.76" y="30.2" width="14.66" height="18.4"/></g></g></g></g></g></svg>