<svg xmlns="http://www.w3.org/2000/svg" xmlns:xlink="http://www.w3.org/1999/xlink" viewBox="0 0 63.01 63.01"><defs><style>.cls-1,.cls-2{fill:none;}.cls-2{clip-rule:evenodd;}.cls-3{clip-path:url(#clip-path);}.cls-4{clip-path:url(#clip-path-2);}.cls-5{fill:#002e3b;}.cls-6{clip-path:url(#clip-path-3);}.cls-7,.cls-9{fill:#fff;}.cls-7{opacity:0.4;}.cls-8{clip-path:url(#clip-path-4);}.cls-9{opacity:0.8;}.cls-10{clip-path:url(#clip-path-5);}.cls-11{clip-path:url(#clip-path-6);}.cls-12{clip-path:url(#clip-path-7);}</style><clipPath id="clip-path"><circle class="cls-1" cx="31.43" cy="31.21" r="25.93"/></clipPath><clipPath id="clip-path-2"><rect class="cls-1" x="2.43" y="2.43" width="58.15" height="58.15"/></clipPath><clipPath id="clip-path-3"><path class="cls-2" d="M12.86,22.8a3.63,3.63,0,0,0-2.33.85,2.71,2.71,0,0,0-1,2.08V37.29a3.49,3.49,0,0,0,3.34,3.29H28.8V45.4L34,40.58H50.64a2.57,2.57,0,0,0,2-1,3.77,3.77,0,0,0,.78-2.32V25.73a2.71,2.71,0,0,0-2.79-2.93Zm15,24.77v-6h-15a4.43,4.43,0,0,1-4.28-4.23V25.73a3.63,3.63,0,0,1,1.34-2.79,4.55,4.55,0,0,1,2.94-1.08H50.64A3.65,3.65,0,0,1,53.35,23a4,4,0,0,1,1,2.76V37.29a4.54,4.54,0,0,1-1,2.91,3.47,3.47,0,0,1-2.73,1.32H34.33l-6.47,6Z"/></clipPath><clipPath id="clip-path-4"><path class="cls-2" d="M17.59,36.62a5,5,0,0,1-5.09-5.14,5,5,0,0,1,5.09-5.14,4.62,4.62,0,0,1,3.6,1.49l-1.3,1.5a3,3,0,0,0-2.3-1.11,3,3,0,0,0-3,3.26,3,3,0,0,0,5.34,2.13l1.28,1.5A4.57,4.57,0,0,1,17.59,36.62Z"/></clipPath><clipPath id="clip-path-5"><path class="cls-2" d="M26.6,28.22a3,3,0,0,0-3,3.28,3,3,0,1,0,6,0A3,3,0,0,0,26.6,28.22Zm0,8.4a5,5,0,0,1-5.09-5.12,5.1,5.1,0,1,1,10.2,0A5,5,0,0,1,26.6,36.62Z"/></clipPath><clipPath id="clip-path-6"><path class="cls-2" d="M35.13,28.29v3h1.72a1.42,1.42,0,0,0,1.61-1.5,1.44,1.44,0,0,0-1.61-1.5Zm0,8.16H33.06v-10h4a3.29,3.29,0,1,1,0,6.57H35.13Z"/></clipPath><clipPath id="clip-path-7"><path class="cls-2" d="M44,28.43v6.14h1c2.25,0,3.41-1.13,3.41-3.07S47.18,28.43,45,28.43Zm1.07,8H41.88v-10H45c3.39,0,5.43,1.84,5.43,5S48.44,36.45,45,36.45Z"/></clipPath></defs><title>icon-6</title><g id="Layer_2" data-name="Layer 2"><g id="Layer_1-2" data-name="Layer 1"><g class="cls-3"><g class="cls-4"><rect class="cls-5" width="63.01" height="63.01"/></g><g class="cls-6"><rect class="cls-7" x="6.57" y="19.85" width="49.81" height="29.73"/></g><g class="cls-8"><rect class="cls-9" x="10.49" y="24.33" width="12.72" height="14.3"/></g><g class="cls-10"><rect class="cls-9" x="19.5" y="24.33" width="14.22" height="14.3"/></g><g class="cls-11"><rect class="cls-9" x="31.05" y="24.49" width="11.49" height="13.97"/></g><g class="cls-12"><rect class="cls-9" x="39.87" y="24.49" width="12.59" height="13.97"/></g></g></g></g></svg>