<svg xmlns="http://www.w3.org/2000/svg" xmlns:xlink="http://www.w3.org/1999/xlink" viewBox="0 0 66.04 66.04"><defs><style>.cls-1,.cls-2{fill:none;}.cls-2{clip-rule:evenodd;}.cls-3{clip-path:url(#clip-path);}.cls-4{clip-path:url(#clip-path-2);}.cls-5{fill:#002e3b;}.cls-6{clip-path:url(#clip-path-3);}.cls-7,.cls-9{fill:#fff;}.cls-7{opacity:0.4;}.cls-8{clip-path:url(#clip-path-4);}.cls-9{opacity:0.8;}</style><clipPath id="clip-path"><circle class="cls-1" cx="32.13" cy="33.7" r="25.93"/></clipPath><clipPath id="clip-path-2"><rect class="cls-1" x="2.54" y="2.54" width="60.96" height="60.96"/></clipPath><clipPath id="clip-path-3"><path class="cls-2" d="M28.14,55V46.66H18.47a5.75,5.75,0,0,1-4-1.67,5.59,5.59,0,0,1-1.73-3.94V24.91a5.12,5.12,0,0,1,1.74-3.81,6,6,0,0,1,4-1.52H48.22a5,5,0,0,1,3.7,1.55,5.47,5.47,0,0,1,1.42,3.78V41.05A6,6,0,0,1,51.93,45a4.84,4.84,0,0,1-3.71,1.7H36.94ZM18.47,20.52a5,5,0,0,0-3.33,1.28,4.19,4.19,0,0,0-1.43,3.11V41.05a4.63,4.63,0,0,0,1.44,3.26,4.8,4.8,0,0,0,3.32,1.41H29.08V52.8l7.49-7.08H48.22a3.92,3.92,0,0,0,3-1.38,5,5,0,0,0,1.18-3.29V24.91a4.15,4.15,0,0,0-4.18-4.39Z"/></clipPath><clipPath id="clip-path-4"><path class="cls-2" d="M42.52,30.87,44.28,35H40.77Zm0-5.57h-.08L35.79,39.41H39l.9-2.15h5.32l.91,2.15h3.16Zm-10.3,4.18c-2.2,0-3.59,1.35-3.59,3.12,0,1.4.72,2.55,3.33,3.1,1.31.24,1.58.48,1.58.82s-.38.73-1.24.73a3.77,3.77,0,0,1-2.65-1.14L28.34,38.2a5.94,5.94,0,0,0,3.92,1.33c2.41,0,3.83-1.29,3.83-3.25,0-1.48-.72-2.48-3.35-3-1.31-.23-1.54-.46-1.54-.79s.34-.7,1.05-.7a3.46,3.46,0,0,1,2.29.8l1.29-2.07A6,6,0,0,0,32.26,29.48ZM23.09,28a2.1,2.1,0,1,1,0,4.18H20.72V28Zm.28-2.49H17.83V39.41h2.89v-4.7h2.65c2.66,0,4.87-1.64,4.87-4.58S26,25.55,23.37,25.55Z"/></clipPath></defs><title>icon-11</title><g id="Layer_2" data-name="Layer 2"><g id="Layer_1-2" data-name="Layer 1"><g class="cls-3"><g class="cls-4"><rect class="cls-5" width="66.04" height="66.04"/></g><g class="cls-6"><rect class="cls-7" x="10.76" y="17.57" width="44.59" height="39.43"/></g><g class="cls-8"><rect class="cls-9" x="15.82" y="23.29" width="35.44" height="18.25"/></g></g></g></g></svg>