<svg xmlns="http://www.w3.org/2000/svg" xmlns:xlink="http://www.w3.org/1999/xlink" viewBox="0 0 61.04 61.04"><defs><style>.cls-1,.cls-2{fill:none;}.cls-2{clip-rule:evenodd;}.cls-3{clip-path:url(#clip-path);}.cls-4{clip-path:url(#clip-path-2);}.cls-5{clip-path:url(#clip-path-3);}.cls-6{fill:#002e3b;}.cls-7{clip-path:url(#clip-path-4);}.cls-8{clip-path:url(#clip-path-5);}.cls-11,.cls-9{fill:#fff;}.cls-9{opacity:0.4;}.cls-10{clip-path:url(#clip-path-6);}.cls-11{opacity:0.8;}.cls-12{clip-path:url(#clip-path-8);}.cls-13{clip-path:url(#clip-path-10);}.cls-14{clip-path:url(#clip-path-12);}.cls-15{isolation:isolate;}.cls-16{clip-path:url(#clip-path-14);}.cls-17{clip-path:url(#clip-path-15);}</style><clipPath id="clip-path"><circle class="cls-1" cx="30.76" cy="31.21" r="25.93"/></clipPath><clipPath id="clip-path-2"><rect class="cls-1" x="0.85" y="0.85" width="59.34" height="59.34"/></clipPath><clipPath id="clip-path-3"><rect class="cls-1" x="2.81" y="2.89" width="55.89" height="55.42"/></clipPath><clipPath id="clip-path-4"><path class="cls-2" d="M11.9,21.23a3.63,3.63,0,0,0-2.34.85,2.71,2.71,0,0,0-1,2.08V35.72A3.49,3.49,0,0,0,11.9,39H27.84v4.83L33,39H49.68a2.52,2.52,0,0,0,2-1,3.67,3.67,0,0,0,.79-2.31V24.16a2.71,2.71,0,0,0-2.79-2.93ZM26.9,46V39.94h-15a4.42,4.42,0,0,1-4.28-4.22V24.16A3.66,3.66,0,0,1,9,21.36a4.61,4.61,0,0,1,3-1.07H49.68a3.62,3.62,0,0,1,2.7,1.11,4,4,0,0,1,1,2.76V35.72a4.61,4.61,0,0,1-1,2.91,3.49,3.49,0,0,1-2.73,1.31H33.37Z"/></clipPath><clipPath id="clip-path-5"><rect class="cls-1" x="6.43" y="6.48" width="48.65" height="48.25"/></clipPath><clipPath id="clip-path-6"><polygon class="cls-2" points="19.77 34.9 17.71 34.9 17.71 30.74 13.67 30.74 13.67 34.9 11.6 34.9 11.6 24.94 13.67 24.94 13.67 28.86 17.71 28.86 17.71 24.94 19.77 24.94 19.77 34.9"/></clipPath><clipPath id="clip-path-8"><polygon class="cls-2" points="28.31 34.9 21.76 34.9 21.76 24.94 28.2 24.94 28.2 26.83 23.84 26.83 23.84 28.98 27.61 28.98 27.61 30.73 23.84 30.73 23.84 33.02 28.31 33.02 28.31 34.9"/></clipPath><clipPath id="clip-path-10"><path class="cls-2" d="M45.93,35.08a5,5,0,0,1-5.11-5.16,5,5,0,0,1,5.11-5.15,4.62,4.62,0,0,1,3.6,1.49l-1.3,1.5a2.94,2.94,0,0,0-2.3-1.11,3,3,0,0,0-3,3.27,3,3,0,0,0,5.35,2.14l1.29,1.5A4.56,4.56,0,0,1,45.93,35.08Z"/></clipPath><clipPath id="clip-path-12"><path class="cls-2" d="M31.86,26.73v3h1.7a1.43,1.43,0,0,0,1.62-1.5,1.44,1.44,0,0,0-1.62-1.51Zm0,8.17H29.78v-10h4a3.3,3.3,0,1,1,0,6.59H31.86Z"/></clipPath><clipPath id="clip-path-14"><rect class="cls-1" x="27.74" y="22.56" width="11.66" height="14.47"/></clipPath><clipPath id="clip-path-15"><rect class="cls-1" x="29.75" y="24.57" width="7.64" height="10.45"/></clipPath></defs><title>icon-5</title><g id="Layer_2" data-name="Layer 2"><g id="Layer_1-2" data-name="Layer 1"><g class="cls-3"><g class="cls-4"><g class="cls-5"><rect class="cls-6" width="61.04" height="61.04"/></g></g><g class="cls-7"><g class="cls-8"><rect class="cls-9" x="5.61" y="18.28" width="49.81" height="29.73"/></g></g><g class="cls-10"><g class="cls-8"><rect class="cls-11" x="9.59" y="22.93" width="12.19" height="13.98"/></g></g><g class="cls-12"><g class="cls-8"><rect class="cls-11" x="19.75" y="22.93" width="10.56" height="13.98"/></g></g><g class="cls-13"><g class="cls-8"><rect class="cls-11" x="38.81" y="22.76" width="12.75" height="14.33"/></g></g><g class="cls-14"><g class="cls-8"><g class="cls-15"><g class="cls-16"><g class="cls-17"><rect class="cls-11" x="27.77" y="22.93" width="11.5" height="13.98"/></g></g></g></g></g></g></g></g></svg>