<svg xmlns="http://www.w3.org/2000/svg" xmlns:xlink="http://www.w3.org/1999/xlink" viewBox="0 0 64.56 64.56"><defs><style>.cls-1,.cls-2{fill:none;}.cls-2{clip-rule:evenodd;}.cls-3{clip-path:url(#clip-path);}.cls-4{clip-path:url(#clip-path-2);}.cls-5{fill:#002e3b;}.cls-6{clip-path:url(#clip-path-3);}.cls-7,.cls-9{fill:#fff;}.cls-7{opacity:0.4;}.cls-8{clip-path:url(#clip-path-4);}.cls-9{opacity:0.8;}</style><clipPath id="clip-path"><circle class="cls-1" cx="32.44" cy="32.96" r="25.93"/></clipPath><clipPath id="clip-path-2"><rect class="cls-1" x="2.48" y="2.48" width="59.6" height="59.6"/></clipPath><clipPath id="clip-path-3"><path class="cls-2" d="M19.71,19a5,5,0,0,0-3.33,1.28A4.21,4.21,0,0,0,15,23.42V39.59a4.65,4.65,0,0,0,1.44,3.26,4.82,4.82,0,0,0,3.32,1.41h8.52v7.09l7.5-7.09h9.56a3.92,3.92,0,0,0,3-1.38,5,5,0,0,0,1.18-3.29V23.42A4.15,4.15,0,0,0,45.29,19Zm7.58,34.52V45.21H19.71a5.82,5.82,0,0,1-4-1.68A5.62,5.62,0,0,1,14,39.59V23.42a5.14,5.14,0,0,1,1.74-3.82,6,6,0,0,1,4-1.52H45.29A5,5,0,0,1,49,19.63a5.5,5.5,0,0,1,1.43,3.79V39.59A6,6,0,0,1,49,43.5a4.85,4.85,0,0,1-3.71,1.71H36.1Z"/></clipPath><clipPath id="clip-path-4"><path class="cls-2" d="M37.87,27.33c3.14,0,4.8,1.58,4.8,4.35S41,36,37.87,36H36.42v-8.7ZM38,24.66H33.5v14H38c4.83,0,7.67-2.6,7.67-7S42.75,24.66,38,24.66ZM25.2,30,27,34.23H23.43Zm0-5.63h-.08L18.39,38.68H21.6l.91-2.18h5.38l.92,2.18H32Z"/></clipPath></defs><title>icon-15</title><g id="Layer_2" data-name="Layer 2"><g id="Layer_1-2" data-name="Layer 1"><g class="cls-3"><g class="cls-4"><rect class="cls-5" width="64.56" height="64.56"/></g><g class="cls-6"><rect class="cls-7" x="12" y="16.07" width="40.43" height="39.49"/></g><g class="cls-8"><rect class="cls-9" x="16.38" y="22.4" width="31.26" height="18.29"/></g></g></g></g></svg>