<svg xmlns="http://www.w3.org/2000/svg" xmlns:xlink="http://www.w3.org/1999/xlink" viewBox="0 0 61.88 61.88"><defs><style>.cls-1,.cls-2{fill:none;}.cls-2{clip-rule:evenodd;}.cls-3{clip-path:url(#clip-path);}.cls-4{clip-path:url(#clip-path-2);}.cls-5{fill:#002e3b;}.cls-6{clip-path:url(#clip-path-3);}.cls-7,.cls-9{fill:#fff;}.cls-7{opacity:0.4;}.cls-8{clip-path:url(#clip-path-4);}.cls-9{opacity:0.8;}</style><clipPath id="clip-path"><circle class="cls-1" cx="31.93" cy="30.65" r="25.93"/></clipPath><clipPath id="clip-path-2"><rect class="cls-1" x="2.38" y="2.38" width="57.12" height="57.12"/></clipPath><clipPath id="clip-path-3"><path class="cls-2" d="M23,15.23a5.58,5.58,0,0,0-3.69,1.39,4.57,4.57,0,0,0-1.58,3.43V37.82A5.49,5.49,0,0,0,23,43.11h4.38v7.76l8.25-7.76H41.3a4.3,4.3,0,0,0,3.32-1.58,5.84,5.84,0,0,0,1.31-3.71V20.05a5,5,0,0,0-1.29-3.46,4.48,4.48,0,0,0-3.34-1.36ZM26.44,53V44H23a6.41,6.41,0,0,1-6.2-6.22V20.05a5.5,5.5,0,0,1,1.89-4.13A6.56,6.56,0,0,1,23,14.3H41.3a5.47,5.47,0,0,1,5.56,5.75V37.82a6.66,6.66,0,0,1-1.53,4.31,5.22,5.22,0,0,1-4,1.91H36Z"/></clipPath><clipPath id="clip-path-4"><polygon class="cls-2" points="36.68 21.49 36.68 24.43 29.88 24.43 29.88 27.78 35.77 27.78 35.77 30.51 29.88 30.51 29.88 34.08 36.85 34.08 36.85 37.02 26.64 37.02 26.64 21.49 36.68 21.49"/></clipPath></defs><title>icon-19</title><g id="Layer_2" data-name="Layer 2"><g id="Layer_1-2" data-name="Layer 1"><g class="cls-3"><g class="cls-4"><rect class="cls-5" width="61.88" height="61.88"/></g><g class="cls-6"><rect class="cls-7" x="14.78" y="12.28" width="34.09" height="42.76"/></g><g class="cls-8"><rect class="cls-9" x="24.63" y="19.48" width="14.22" height="19.55"/></g></g></g></g></svg>