<svg xmlns="http://www.w3.org/2000/svg" viewBox="0 0 105 75.19"><defs><style>.cls-1{opacity:0.48;}.cls-2{fill:#fff;}.cls-3{opacity:0.38;}.cls-4{opacity:0.27;}</style></defs><title>insta-r_1</title><g id="Layer_2" data-name="Layer 2"><g id="Layer_1-2" data-name="Layer 1"><g class="cls-1"><path class="cls-2" d="M24.39,11.85c6.51,0,7.28,0,9.85.14a13.38,13.38,0,0,1,4.53.84,8.08,8.08,0,0,1,4.63,4.63A13.62,13.62,0,0,1,44.24,22c.12,2.58.14,3.35.14,9.86s0,7.28-.14,9.85a13.64,13.64,0,0,1-.84,4.53,8.08,8.08,0,0,1-4.63,4.63,13.64,13.64,0,0,1-4.53.84c-2.57.12-3.34.14-9.85.14s-7.29,0-9.86-.14A13.64,13.64,0,0,1,10,50.85a8,8,0,0,1-4.62-4.63,13.13,13.13,0,0,1-.84-4.53c-.12-2.57-.15-3.34-.15-9.85s0-7.28.15-9.86a13.11,13.11,0,0,1,.84-4.52A8,8,0,0,1,10,12.83,13.38,13.38,0,0,1,14.53,12c2.57-.12,3.35-.14,9.86-.14m0-4.4c-6.63,0-7.46,0-10.06.15A18.05,18.05,0,0,0,8.41,8.73a12.18,12.18,0,0,0-4.32,2.81,12,12,0,0,0-2.81,4.32A18.11,18.11,0,0,0,.15,21.78C0,24.39,0,25.22,0,31.84s0,7.45.15,10.05a18,18,0,0,0,1.13,5.92,11.88,11.88,0,0,0,2.81,4.32A12.08,12.08,0,0,0,8.41,55a18.05,18.05,0,0,0,5.92,1.13c2.6.12,3.43.15,10.06.15s7.45,0,10-.15A18,18,0,0,0,40.36,55a11.91,11.91,0,0,0,4.32-2.82,11.75,11.75,0,0,0,2.81-4.32,17.71,17.71,0,0,0,1.14-5.92c.12-2.6.14-3.43.14-10s0-7.45-.14-10.06a17.82,17.82,0,0,0-1.14-5.92,12.44,12.44,0,0,0-7.13-7.13A18,18,0,0,0,34.44,7.6c-2.6-.12-3.43-.15-10-.15Z"/><path class="cls-2" d="M24.39,19.32A12.52,12.52,0,1,0,36.91,31.84,12.52,12.52,0,0,0,24.39,19.32Zm0,20.65a8.13,8.13,0,1,1,8.13-8.13A8.13,8.13,0,0,1,24.39,40Z"/><circle class="cls-2" cx="37.4" cy="18.82" r="2.93"/></g><g class="cls-3"><path class="cls-2" d="M90.1,2.69c4,0,4.45,0,6,.08a8.21,8.21,0,0,1,2.77.52A4.64,4.64,0,0,1,100.6,4.4a4.64,4.64,0,0,1,1.11,1.71,8.21,8.21,0,0,1,.52,2.77c.07,1.57.08,2,.08,6s0,4.45-.08,6a8.08,8.08,0,0,1-.52,2.76,4.88,4.88,0,0,1-2.82,2.83,8,8,0,0,1-2.77.51c-1.57.08-2,.09-6,.09s-4.45,0-6-.09a7.9,7.9,0,0,1-2.76-.51,4.86,4.86,0,0,1-2.83-2.83A7.9,7.9,0,0,1,78,20.93c-.08-1.58-.09-2.05-.09-6s0-4.45.09-6a8,8,0,0,1,.51-2.77,4.88,4.88,0,0,1,2.83-2.82,8.08,8.08,0,0,1,2.76-.52c1.58-.07,2.05-.08,6-.08M90.1,0c-4,0-4.56,0-6.15.09a10.91,10.91,0,0,0-3.62.69A7.29,7.29,0,0,0,77.69,2.5,7.39,7.39,0,0,0,76,5.14a11.08,11.08,0,0,0-.7,3.62c-.07,1.59-.09,2.1-.09,6.14s0,4.56.09,6.15a11.14,11.14,0,0,0,.7,3.62A7.52,7.52,0,0,0,80.33,29a11.14,11.14,0,0,0,3.62.7c1.59.07,2.1.09,6.15.09s4.55,0,6.14-.09a11.08,11.08,0,0,0,3.62-.7,7.39,7.39,0,0,0,2.64-1.71,7.29,7.29,0,0,0,1.72-2.64,10.91,10.91,0,0,0,.69-3.62c.07-1.59.09-2.1.09-6.15s0-4.55-.09-6.14a10.85,10.85,0,0,0-.69-3.62A7.29,7.29,0,0,0,102.5,2.5,7.29,7.29,0,0,0,99.86.78,10.85,10.85,0,0,0,96.24.09C94.65,0,94.14,0,90.1,0Z"/><path class="cls-2" d="M90.1,7.25a7.66,7.66,0,1,0,7.65,7.65A7.66,7.66,0,0,0,90.1,7.25Zm0,12.62a5,5,0,1,1,5-5A5,5,0,0,1,90.1,19.87Z"/><circle class="cls-2" cx="98.05" cy="6.95" r="1.79"/></g><g class="cls-4"><path class="cls-2" d="M94.84,60.4c2.17,0,2.43,0,3.28.05a4.3,4.3,0,0,1,1.51.28,2.43,2.43,0,0,1,.94.61,2.55,2.55,0,0,1,.61.93,4.68,4.68,0,0,1,.28,1.51c0,.86,0,1.11,0,3.28s0,2.43,0,3.29a4.68,4.68,0,0,1-.28,1.51,2.71,2.71,0,0,1-1.55,1.54,4.3,4.3,0,0,1-1.51.28c-.85,0-1.11,0-3.28,0s-2.43,0-3.29,0A4.41,4.41,0,0,1,90,73.4a2.51,2.51,0,0,1-.93-.61,2.55,2.55,0,0,1-.61-.93,4.68,4.68,0,0,1-.28-1.51c0-.86,0-1.11,0-3.29s0-2.42,0-3.28a4.68,4.68,0,0,1,.28-1.51,2.55,2.55,0,0,1,.61-.93,2.39,2.39,0,0,1,.93-.61,4.41,4.41,0,0,1,1.51-.28c.86,0,1.12-.05,3.29-.05m0-1.46c-2.21,0-2.49,0-3.35,0a6,6,0,0,0-2,.38,4.16,4.16,0,0,0-1.44.94,3.91,3.91,0,0,0-.93,1.44,6,6,0,0,0-.38,2c0,.87-.05,1.15-.05,3.35s0,2.49.05,3.36a6,6,0,0,0,.38,2,3.91,3.91,0,0,0,.93,1.44,4.16,4.16,0,0,0,1.44.94,5.81,5.81,0,0,0,2,.37c.86,0,1.14,0,3.35,0s2.48,0,3.35,0a5.7,5.7,0,0,0,2-.37,4,4,0,0,0,1.44-.94,3.94,3.94,0,0,0,.94-1.44,6,6,0,0,0,.38-2c0-.87,0-1.15,0-3.36s0-2.48,0-3.35a6,6,0,0,0-.38-2,3.94,3.94,0,0,0-.94-1.44,4,4,0,0,0-1.44-.94,5.91,5.91,0,0,0-2-.38c-.87,0-1.14,0-3.35,0Z"/><path class="cls-2" d="M94.84,62.89A4.18,4.18,0,1,0,99,67.06,4.18,4.18,0,0,0,94.84,62.89Zm0,6.88a2.71,2.71,0,1,1,2.71-2.71A2.71,2.71,0,0,1,94.84,69.77Z"/><circle class="cls-2" cx="99.18" cy="62.73" r="0.98"/></g></g></g></svg>