<svg xmlns="http://www.w3.org/2000/svg" viewBox="0 0 140 75.6"><defs><style>.cls-1{opacity:0.48;}.cls-2{fill:#fff;}.cls-3{opacity:0.38;}.cls-4{opacity:0.27;}</style></defs><title>insta-l</title><g id="Layer_2" data-name="Layer 2"><g id="Layer_1-2" data-name="Layer 1"><g class="cls-1"><path class="cls-2" d="M115.27,4.46c6.6,0,7.38,0,10,.14a13.64,13.64,0,0,1,4.59.85,8.16,8.16,0,0,1,4.7,4.7,13.64,13.64,0,0,1,.85,4.59c.12,2.61.14,3.39.14,10s0,7.39-.14,10a13.64,13.64,0,0,1-.85,4.59,7.72,7.72,0,0,1-1.85,2.84A7.52,7.52,0,0,1,129.85,44a13.57,13.57,0,0,1-4.59.86c-2.61.12-3.39.14-10,.14s-7.39,0-10-.14a13.57,13.57,0,0,1-4.59-.86A8.21,8.21,0,0,1,96,39.32a13.57,13.57,0,0,1-.86-4.59c-.12-2.61-.14-3.39-.14-10s0-7.38.14-10A13.57,13.57,0,0,1,96,10.15,7.52,7.52,0,0,1,97.84,7.3a7.72,7.72,0,0,1,2.84-1.85,13.64,13.64,0,0,1,4.59-.85c2.61-.12,3.39-.14,10-.14m0-4.46c-6.72,0-7.56,0-10.2.15a18.16,18.16,0,0,0-6,1.15,12.2,12.2,0,0,0-4.39,2.85,12.25,12.25,0,0,0-2.85,4.38,18.22,18.22,0,0,0-1.15,6c-.12,2.63-.15,3.48-.15,10.19s0,7.56.15,10.2a18.16,18.16,0,0,0,1.15,6,12.58,12.58,0,0,0,7.24,7.24,18.16,18.16,0,0,0,6,1.15c2.64.12,3.48.15,10.2.15s7.56,0,10.19-.15a18.22,18.22,0,0,0,6-1.15,12.6,12.6,0,0,0,7.23-7.24,18.16,18.16,0,0,0,1.15-6c.12-2.64.15-3.48.15-10.2s0-7.56-.15-10.19a18.22,18.22,0,0,0-1.15-6,12.62,12.62,0,0,0-7.23-7.23,18.22,18.22,0,0,0-6-1.15C122.83,0,122,0,115.27,0Z"/><path class="cls-2" d="M115.27,12A12.7,12.7,0,1,0,128,24.73,12.7,12.7,0,0,0,115.27,12Zm0,20.95a8.25,8.25,0,1,1,8.24-8.25A8.25,8.25,0,0,1,115.27,33Z"/><circle class="cls-2" cx="128.47" cy="11.53" r="2.97"/></g><g class="cls-3"><path class="cls-2" d="M56,46.73c4.24,0,4.74,0,6.41.09a9,9,0,0,1,3,.54,5.29,5.29,0,0,1,3,3,8.81,8.81,0,0,1,.55,2.94C69,55,69,55.5,69,59.73s0,4.74-.09,6.41a9,9,0,0,1-.55,3,5.23,5.23,0,0,1-3,3,8.69,8.69,0,0,1-3,.55c-1.67.07-2.17.09-6.41.09s-4.74,0-6.41-.09a8.69,8.69,0,0,1-3-.55,5.23,5.23,0,0,1-3-3,9,9,0,0,1-.55-3C43,64.47,43,64,43,59.73s0-4.74.09-6.41a8.81,8.81,0,0,1,.55-2.94,5.29,5.29,0,0,1,3-3,9,9,0,0,1,3-.54c1.67-.08,2.17-.09,6.41-.09m0-2.86c-4.31,0-4.85,0-6.54.09a11.76,11.76,0,0,0-3.85.74,7.79,7.79,0,0,0-2.81,1.83A7.61,7.61,0,0,0,41,49.34a11.5,11.5,0,0,0-.74,3.85c-.08,1.69-.1,2.23-.1,6.54s0,4.85.1,6.55A11.56,11.56,0,0,0,41,70.13a7.7,7.7,0,0,0,1.83,2.81,7.79,7.79,0,0,0,2.81,1.83,11.53,11.53,0,0,0,3.85.73c1.69.08,2.23.1,6.54.1s4.85,0,6.54-.1a11.53,11.53,0,0,0,3.85-.73,7.79,7.79,0,0,0,2.81-1.83A7.7,7.7,0,0,0,71,70.13a11.56,11.56,0,0,0,.74-3.85c.08-1.7.1-2.24.1-6.55s0-4.85-.1-6.54A11.5,11.5,0,0,0,71,49.34a7.61,7.61,0,0,0-1.83-2.81,7.79,7.79,0,0,0-2.81-1.83A11.76,11.76,0,0,0,62.54,44c-1.69-.08-2.23-.09-6.54-.09Z"/><path class="cls-2" d="M56,51.59a8.15,8.15,0,1,0,8.15,8.14A8.14,8.14,0,0,0,56,51.59ZM56,65a5.29,5.29,0,1,1,5.29-5.29A5.29,5.29,0,0,1,56,65Z"/><circle class="cls-2" cx="64.47" cy="51.26" r="1.9"/></g><g class="cls-4"><path class="cls-2" d="M11.2,4.82c3,0,3.34,0,4.53.06a6.31,6.31,0,0,1,2.08.39,3.32,3.32,0,0,1,1.28.84,3.32,3.32,0,0,1,.84,1.28,6.31,6.31,0,0,1,.39,2.08c.05,1.19.06,1.54.06,4.53s0,3.34-.06,4.53a6.31,6.31,0,0,1-.39,2.08,3.77,3.77,0,0,1-2.12,2.12,6.31,6.31,0,0,1-2.08.39c-1.19.05-1.54.06-4.53.06s-3.34,0-4.53-.06a6.31,6.31,0,0,1-2.08-.39,3.32,3.32,0,0,1-1.28-.84,3.32,3.32,0,0,1-.84-1.28,6.31,6.31,0,0,1-.39-2.08C2,17.34,2,17,2,14s0-3.34.06-4.53a6.31,6.31,0,0,1,.39-2.08,3.32,3.32,0,0,1,.84-1.28,3.32,3.32,0,0,1,1.28-.84,6.31,6.31,0,0,1,2.08-.39c1.19,0,1.54-.06,4.53-.06m0-2c-3,0-3.42,0-4.62.07a8.09,8.09,0,0,0-2.72.52,5.46,5.46,0,0,0-2,1.29,5.46,5.46,0,0,0-1.29,2A8.09,8.09,0,0,0,.07,9.38C0,10.58,0,11,0,14s0,3.42.07,4.62a8.09,8.09,0,0,0,.52,2.72,5.46,5.46,0,0,0,1.29,2,5.46,5.46,0,0,0,2,1.29,8.09,8.09,0,0,0,2.72.52c1.2.06,1.58.07,4.62.07s3.42,0,4.62-.07a8.09,8.09,0,0,0,2.72-.52,5.72,5.72,0,0,0,3.27-3.27,8.09,8.09,0,0,0,.52-2.72c.06-1.2.07-1.58.07-4.62s0-3.42-.07-4.62a8.09,8.09,0,0,0-.52-2.72,5.72,5.72,0,0,0-3.27-3.27,8.09,8.09,0,0,0-2.72-.52c-1.2-.06-1.58-.07-4.62-.07Z"/><path class="cls-2" d="M11.2,8.25A5.75,5.75,0,1,0,17,14,5.74,5.74,0,0,0,11.2,8.25Zm0,9.48A3.73,3.73,0,1,1,14.93,14,3.73,3.73,0,0,1,11.2,17.73Z"/><circle class="cls-2" cx="17.18" cy="8.02" r="1.34"/></g></g></g></svg>