<svg xmlns="http://www.w3.org/2000/svg" xmlns:xlink="http://www.w3.org/1999/xlink" viewBox="0 0 51.87 51.87"><defs><style>.cls-1{fill:#002e3b;}.cls-2,.cls-3{fill:#fff;fill-rule:evenodd;}.cls-2{opacity:0.4;}.cls-3{opacity:0.8;}</style><clipPath id="clip-path"><circle class="cls-1" cx="25.93" cy="25.93" r="25.93"/></clipPath></defs><title>LC</title><g id="Layer_2" data-name="Layer 2"><g id="Layer_1-2" data-name="Layer 1"><circle class="cls-1" cx="25.93" cy="25.93" r="25.93"/><path class="cls-2" d="M12,14.08a4.18,4.18,0,0,0-1.43,3.12V33.37A4.68,4.68,0,0,0,12,36.64a4.86,4.86,0,0,0,3.32,1.41h6.9v7.09l7.5-7.09h7.94a3.9,3.9,0,0,0,3-1.39,4.94,4.94,0,0,0,1.19-3.29V17.2a4.16,4.16,0,0,0-4.19-4.41H15.35A5,5,0,0,0,12,14.08ZM21.31,39h-6a5.75,5.75,0,0,1-4-1.68,5.57,5.57,0,0,1-1.73-3.94V17.2a5.13,5.13,0,0,1,1.74-3.82,6,6,0,0,1,4-1.53H37.69a5,5,0,0,1,3.7,1.56,5.48,5.48,0,0,1,1.43,3.79V33.37a5.91,5.91,0,0,1-1.42,3.91A4.85,4.85,0,0,1,37.69,39H30.12l-8.81,8.34Z"/><path class="cls-3" d="M32.38,17.37a7.12,7.12,0,0,0-7.33,7.39,7.13,7.13,0,0,0,7.33,7.4A6.58,6.58,0,0,0,37.56,30l-1.84-2.16a4.26,4.26,0,0,1-3.34,1.64c-2.63,0-4.34-2-4.34-4.7s1.71-4.69,4.34-4.69a4.24,4.24,0,0,1,3.3,1.6l1.86-2.16A6.62,6.62,0,0,0,32.38,17.37Zm-13.91.26h-3V31.9h9.05V29.3H18.47Z"/></g></g></svg>