<svg xmlns="http://www.w3.org/2000/svg" xmlns:xlink="http://www.w3.org/1999/xlink" viewBox="0 0 51.87 51.87"><defs><style>.cls-1{fill:#002e3b;}.cls-2,.cls-3{fill:#fff;fill-rule:evenodd;}.cls-2{opacity:0.4;}.cls-3{opacity:0.8;}</style><clipPath id="clip-path"><circle class="cls-1" cx="25.93" cy="25.93" r="25.93"/></clipPath></defs><title>M</title><g id="Layer_2" data-name="Layer 2"><g id="Layer_1-2" data-name="Layer 1"><circle class="cls-1" cx="25.93" cy="25.93" r="25.93"/><path class="cls-2" d="M21.9,46.62,30,39h5.61a4.7,4.7,0,0,0,4.7-4.69v-18a4.71,4.71,0,0,0-4.7-4.7H17.23a4.71,4.71,0,0,0-4.7,4.7v18A4.7,4.7,0,0,0,17.23,39H21.9ZM17.23,40a5.67,5.67,0,0,1-5.66-5.66v-18a5.66,5.66,0,0,1,5.66-5.66H35.61a5.66,5.66,0,0,1,5.66,5.66v18A5.67,5.67,0,0,1,35.61,40H30.38l-9.45,8.91V40Z"/><polygon class="cls-3" points="21.94 32.91 18.74 32.91 18.74 17.55 18.82 17.55 26.39 28.24 33.95 17.55 34.1 17.55 34.1 32.91 30.9 32.91 30.9 26.48 26.48 33.07 26.31 33.07 21.94 26.48 21.94 32.91"/></g></g></svg>