<svg xmlns="http://www.w3.org/2000/svg" viewBox="0 0 323.81 214.36"><defs><style>.cls-1{fill:#fff;}.cls-1,.cls-2,.cls-7{fill-rule:evenodd;}.cls-2{fill:#21aeab;}.cls-3{opacity:0.9;}.cls-4,.cls-5{fill:none;stroke:#fff;stroke-linecap:round;stroke-linejoin:round;}.cls-5{stroke-dasharray:5.99 5.99;}.cls-6{fill:#2180ae;}.cls-7{opacity:0.1;}</style></defs><title>map_1</title><g id="Layer_2" data-name="Layer 2"><g id="Layer_1-2" data-name="Layer 1"><polygon class="cls-1" points="80.99 214.36 0 198.44 0 0 80.99 15.92 80.99 214.36"/><polygon class="cls-1" points="80.99 214.36 161.97 198.44 161.97 0 80.99 15.92 80.99 214.36"/><polygon class="cls-1" points="242.82 214.36 323.81 198.44 323.81 0 242.82 15.92 242.82 214.36"/><polygon class="cls-1" points="242.96 214.36 161.97 198.44 161.97 0 242.96 15.92 242.96 214.36"/><polygon class="cls-2" points="16.18 23.08 16.18 183.45 80.99 198.18 162.7 179.87 242.96 198.18 309.54 182.26 306.76 20.3 242.82 37.8 162.86 18.7 81.12 35.42 16.18 23.08"/><g class="cls-3"><path class="cls-4" d="M19,90.33s.7-.88,1.94-2.28"/><path class="cls-5" d="M25.12,83.72c6-5.85,15.64-13.38,25-12.89,15.12.8,21.49,25.47,35.42,25.08s30.24-14.73,48.94-6.77,27.46,37.8,36.22,26.66-8.83-26.26-7.8-37,19.34-39,43.61-29.44,31.84,40.19,52.93,40.19,49.74,28.65,35,52.13-35,2-42.58,0-6.37,27.46-12.34,28.65-23.48,2.79-46.16-25.87-72.82,26.67-83.57,21.49-16.31-40.59-35.42-39.39c-15.88,1-31.72,22.91-42.36,26.59"/><path class="cls-4" d="M29,153.66a5.39,5.39,0,0,1-2.84-.85"/></g><path class="cls-1" d="M126.26,67.39c0,5.24-9.5,16.18-9.5,16.18s-9.51-10.94-9.51-16.18a9.51,9.51,0,1,1,19,0Z"/><circle class="cls-6" cx="116.76" cy="67.79" r="5.79"/><path class="cls-1" d="M266.69,64.33c0,5.24-9.5,16.18-9.5,16.18s-9.5-10.94-9.5-16.18a9.5,9.5,0,1,1,19,0Z"/><circle class="cls-6" cx="257.19" cy="64.73" r="5.79"/><path class="cls-1" d="M192.94,102.53c0,5.25-9.5,16.18-9.5,16.18s-9.5-10.93-9.5-16.18a9.5,9.5,0,0,1,19,0Z"/><circle class="cls-6" cx="183.44" cy="102.94" r="5.79"/><path class="cls-1" d="M54.45,144.45c0,5.24-9.5,16.18-9.5,16.18s-9.5-10.94-9.5-16.18a9.5,9.5,0,1,1,19,0Z"/><circle class="cls-6" cx="44.95" cy="144.85" r="5.79"/><path class="cls-1" d="M287,132.24c0,5.25-9.5,16.18-9.5,16.18s-9.5-10.93-9.5-16.18a9.5,9.5,0,0,1,19,0Z"/><circle class="cls-6" cx="277.52" cy="132.65" r="5.79"/><polygon class="cls-7" points="80.99 214.36 161.97 198.44 161.97 0 80.99 15.92 80.99 214.36"/><polygon class="cls-7" points="242.82 214.36 323.81 198.44 323.81 0 242.82 15.92 242.82 214.36"/></g></g></svg>