<svg xmlns="http://www.w3.org/2000/svg" viewBox="0 0 80.27 80.27"><defs><style>.cls-1{fill:#2180ae;}.cls-2,.cls-3{fill:#fff;fill-rule:evenodd;}.cls-2{opacity:0.4;}.cls-3{fill-opacity:0.85;}</style></defs><title>MD</title><g id="Layer_2" data-name="Layer 2"><g id="Layer_1-2" data-name="Layer 1"><circle class="cls-1" cx="40.14" cy="40.14" r="40.14"/><path class="cls-2" d="M17.31,23.4a6.27,6.27,0,0,0-2.13,4.65V52.13A6.9,6.9,0,0,0,17.33,57a7.17,7.17,0,0,0,4.94,2.1h12V69.67L45.41,59.1H58.93A5.84,5.84,0,0,0,63.4,57a7.43,7.43,0,0,0,1.77-4.91V28.05a6.2,6.2,0,0,0-6.24-6.56H22.27A7.5,7.5,0,0,0,17.31,23.4ZM32.84,60.51H22.27A8.57,8.57,0,0,1,16.35,58a8.35,8.35,0,0,1-2.58-5.88V28.05a7.66,7.66,0,0,1,2.6-5.69,8.91,8.91,0,0,1,5.9-2.27H58.93a7.48,7.48,0,0,1,5.52,2.31,8.19,8.19,0,0,1,2.12,5.65V52.13A8.84,8.84,0,0,1,64.46,58a7.24,7.24,0,0,1-5.53,2.55H46L32.84,72.93Z"/><path id="MD" class="cls-3" d="M30,42.57,40.29,28h.12V49H36.14V40.35l-6,8.95h-.23l-6-8.95V49H19.62V28h.11ZM50.34,28.4c7,0,11.28,3.79,11.28,10.3S57.44,49,50.34,49H43.77V28.4ZM50.2,45.12c4.65,0,7.07-2.36,7.07-6.4s-2.44-6.39-7.07-6.39H48.07V45.12Z"/></g></g></svg>