<svg xmlns="http://www.w3.org/2000/svg" xmlns:xlink="http://www.w3.org/1999/xlink" viewBox="0 0 51.87 51.87"><defs><style>.cls-1{fill:#002e3b;}.cls-2,.cls-3,.cls-4{fill:#fff;}.cls-2,.cls-3{opacity:0.4;}.cls-2{clip-path:url(#clip-path);clip-rule:evenodd;}.cls-3,.cls-4{fill-rule:evenodd;}.cls-4{opacity:0.8;}</style><clipPath id="clip-path"><circle class="cls-1" cx="25.93" cy="25.93" r="25.93"/></clipPath><clipPath id="clip-path-2"><path class="cls-2" d="M14.18,12a5,5,0,0,0-3.33,1.29,4.18,4.18,0,0,0-1.43,3.12V32.59a4.68,4.68,0,0,0,1.44,3.27,4.86,4.86,0,0,0,3.32,1.41h8.53v7.09l7.49-7.09h9.57a3.9,3.9,0,0,0,3-1.39A4.94,4.94,0,0,0,44,32.59V16.42A4.16,4.16,0,0,0,39.77,12Zm7.58,34.54V38.21H14.18a5.75,5.75,0,0,1-4-1.68,5.59,5.59,0,0,1-1.73-3.94V16.42a5.13,5.13,0,0,1,1.74-3.82,6,6,0,0,1,4-1.53H39.77a5,5,0,0,1,3.7,1.56,5.48,5.48,0,0,1,1.43,3.79V32.59a5.91,5.91,0,0,1-1.42,3.91,4.85,4.85,0,0,1-3.71,1.71H30.58Z"/></clipPath></defs><title>MS</title><g id="Layer_2" data-name="Layer 2"><g id="Layer_1-2" data-name="Layer 1"><circle class="cls-1" cx="25.93" cy="25.93" r="25.93"/><path class="cls-3" d="M14.18,12a5,5,0,0,0-3.33,1.29,4.18,4.18,0,0,0-1.43,3.12V32.59a4.68,4.68,0,0,0,1.44,3.27,4.86,4.86,0,0,0,3.32,1.41h8.53v7.09l7.49-7.09h9.57a3.9,3.9,0,0,0,3-1.39A4.94,4.94,0,0,0,44,32.59V16.42A4.16,4.16,0,0,0,39.77,12Zm7.58,34.54V38.21H14.18a5.75,5.75,0,0,1-4-1.68,5.59,5.59,0,0,1-1.73-3.94V16.42a5.13,5.13,0,0,1,1.74-3.82,6,6,0,0,1,4-1.53H39.77a5,5,0,0,1,3.7,1.56,5.48,5.48,0,0,1,1.43,3.79V32.59a5.91,5.91,0,0,1-1.42,3.91,4.85,4.85,0,0,1-3.71,1.71H30.58Z"/><polygon class="cls-4" points="28.22 31.14 25.34 31.14 25.34 25.3 21.29 31.33 21.14 31.33 17.1 25.3 17.1 31.14 14.23 31.14 14.23 17.01 14.28 17.01 21.21 26.79 28.13 17.01 28.22 17.01 28.22 31.14 28.22 31.14"/><path class="cls-4" d="M40.07,18.46l-1.49,2.38a5.2,5.2,0,0,0-3.39-1.21c-1.22,0-2,.5-2,1.52,0,.79.53,1.19,2.61,1.58,3.59.76,4.72,2.06,4.72,4.2,0,2.66-2,4.46-5.25,4.46a8.18,8.18,0,0,1-5.39-1.86l1.57-2.39a5.69,5.69,0,0,0,3.91,1.62c1.46,0,2.29-.55,2.29-1.57,0-.81-.63-1.26-2.68-1.66-3.59-.78-4.67-2.21-4.67-4.25,0-2.5,1.91-4.27,4.89-4.27A8.07,8.07,0,0,1,40.07,18.46Z"/></g></g></svg>