<svg xmlns="http://www.w3.org/2000/svg" xmlns:xlink="http://www.w3.org/1999/xlink" viewBox="0 0 596.24 104.39"><defs><style>.cls-1,.cls-9{fill:url(#linear-gradient);}.cls-2{fill:url(#linear-gradient-2);}.cls-21,.cls-23,.cls-29,.cls-3,.cls-30,.cls-32{fill:#fff;}.cls-3{clip-rule:evenodd;}.cls-4{fill:url(#linear-gradient-3);}.cls-5{fill:url(#linear-gradient-4);}.cls-6{fill:url(#linear-gradient-5);}.cls-7{fill:url(#linear-gradient-6);}.cls-8{clip-path:url(#clip-path);}.cls-13,.cls-15,.cls-17,.cls-21,.cls-29,.cls-30,.cls-32,.cls-9{fill-rule:evenodd;}.cls-10{clip-path:url(#clip-path-2);}.cls-11{fill:url(#linear-gradient-10);}.cls-12{clip-path:url(#clip-path-3);}.cls-13{fill:url(#linear-gradient-12);}.cls-14{clip-path:url(#clip-path-4);}.cls-15{fill:url(#linear-gradient-14);}.cls-16{clip-path:url(#clip-path-5);}.cls-17{fill:url(#linear-gradient-16);}.cls-18{clip-path:url(#clip-path-6);}.cls-19{fill:url(#linear-gradient-18);}.cls-20{opacity:0.4;}.cls-22{clip-path:url(#clip-path-7);}.cls-23{opacity:0.2;}.cls-24{clip-path:url(#clip-path-8);}.cls-25{clip-path:url(#clip-path-9);}.cls-26{clip-path:url(#clip-path-10);}.cls-27{clip-path:url(#clip-path-11);}.cls-28{clip-path:url(#clip-path-12);}.cls-29{fill-opacity:0.85;}.cls-30,.cls-31{opacity:0.8;}.cls-30,.cls-32{isolation:isolate;}.cls-32{opacity:0.8;}</style><linearGradient id="linear-gradient" x1="18.87" y1="53.49" x2="583.84" y2="56.48" gradientUnits="userSpaceOnUse"><stop offset="0" stop-color="#045775"/><stop offset="0.41" stop-color="#2180ae"/><stop offset="1" stop-color="#21aeab"/></linearGradient><linearGradient id="linear-gradient-2" x1="18.88" y1="52.96" x2="583.84" y2="55.95" xlink:href="#linear-gradient"/><linearGradient id="linear-gradient-3" x1="18.88" y1="52.44" x2="583.85" y2="55.43" xlink:href="#linear-gradient"/><linearGradient id="linear-gradient-4" x1="18.88" y1="51.91" x2="583.85" y2="54.9" xlink:href="#linear-gradient"/><linearGradient id="linear-gradient-5" x1="18.88" y1="51.39" x2="583.85" y2="54.38" xlink:href="#linear-gradient"/><linearGradient id="linear-gradient-6" x1="18.89" y1="50.86" x2="583.86" y2="53.85" xlink:href="#linear-gradient"/><clipPath id="clip-path"><circle class="cls-1" cx="50.34" cy="53.66" r="40.14"/></clipPath><clipPath id="clip-path-2"><circle class="cls-2" cx="149.72" cy="53.66" r="40.14"/></clipPath><linearGradient id="linear-gradient-10" x1="18.88" y1="52.86" x2="583.85" y2="55.85" xlink:href="#linear-gradient"/><clipPath id="clip-path-3"><circle class="cls-4" cx="249.11" cy="53.66" r="40.14"/></clipPath><linearGradient id="linear-gradient-12" x1="18.89" y1="50.61" x2="583.86" y2="53.6" xlink:href="#linear-gradient"/><clipPath id="clip-path-4"><circle class="cls-5" cx="348.49" cy="53.66" r="40.14"/></clipPath><linearGradient id="linear-gradient-14" x1="18.89" y1="50.22" x2="583.86" y2="53.21" xlink:href="#linear-gradient"/><clipPath id="clip-path-5"><circle class="cls-6" cx="447.88" cy="53.66" r="40.14"/></clipPath><linearGradient id="linear-gradient-16" x1="18.88" y1="51.25" x2="583.85" y2="54.24" xlink:href="#linear-gradient"/><clipPath id="clip-path-6"><circle class="cls-7" cx="547.26" cy="53.66" r="40.14"/></clipPath><linearGradient id="linear-gradient-18" x1="18.89" y1="50.85" x2="583.86" y2="53.84" xlink:href="#linear-gradient"/><clipPath id="clip-path-7"><path class="cls-3" d="M19,35.92a6.24,6.24,0,0,0-2.14,4.65V64.65a6.91,6.91,0,0,0,2.16,4.87A7.13,7.13,0,0,0,24,71.62H43V82.19L54.13,71.62H76.66a5.85,5.85,0,0,0,4.47-2.06,7.47,7.47,0,0,0,1.76-4.91V40.57c0-3.8-2.62-6.56-6.23-6.56H24A7.5,7.5,0,0,0,19,35.92ZM41.56,73H24a8.61,8.61,0,0,1-5.93-2.5,8.38,8.38,0,0,1-2.57-5.88V40.57a7.65,7.65,0,0,1,2.59-5.69A8.94,8.94,0,0,1,24,32.61H76.66a7.46,7.46,0,0,1,5.51,2.31,8.19,8.19,0,0,1,2.12,5.65V64.65a8.88,8.88,0,0,1-2.1,5.84A7.28,7.28,0,0,1,76.66,73h-22L41.56,85.45Z"/></clipPath><clipPath id="clip-path-8"><path class="cls-3" d="M126.9,36.92a6.23,6.23,0,0,0-2.13,4.65V65.65a6.9,6.9,0,0,0,2.15,4.87,7.15,7.15,0,0,0,4.94,2.1h12V83.19L155,72.62h13.52A5.84,5.84,0,0,0,173,70.56a7.42,7.42,0,0,0,1.76-4.91V41.57c0-3.8-2.62-6.56-6.23-6.56H131.86A7.5,7.5,0,0,0,126.9,36.92ZM142.43,74H131.86a8.57,8.57,0,0,1-5.92-2.5,8.35,8.35,0,0,1-2.58-5.88V41.57a7.62,7.62,0,0,1,2.6-5.69,8.89,8.89,0,0,1,5.9-2.27h36.66A7.46,7.46,0,0,1,174,35.92a8.2,8.2,0,0,1,2.13,5.65V65.65a8.89,8.89,0,0,1-2.11,5.84A7.26,7.26,0,0,1,168.52,74h-13L142.43,86.45Z"/></clipPath><clipPath id="clip-path-9"><path class="cls-3" d="M225.63,36.92a6.23,6.23,0,0,0-2.13,4.65V65.65a6.9,6.9,0,0,0,2.15,4.87,7.13,7.13,0,0,0,4.94,2.1h12V83.19l11.17-10.57h13.52a5.84,5.84,0,0,0,4.47-2.06,7.42,7.42,0,0,0,1.76-4.91V41.57c0-3.8-2.62-6.56-6.23-6.56H230.59A7.5,7.5,0,0,0,225.63,36.92ZM241.16,74H230.59a8.57,8.57,0,0,1-5.92-2.5,8.35,8.35,0,0,1-2.58-5.88V41.57a7.62,7.62,0,0,1,2.6-5.69,8.89,8.89,0,0,1,5.9-2.27h36.66a7.46,7.46,0,0,1,5.51,2.31,8.2,8.2,0,0,1,2.13,5.65V65.65a8.89,8.89,0,0,1-2.11,5.84A7.26,7.26,0,0,1,267.25,74h-13L241.16,86.45Z"/></clipPath><clipPath id="clip-path-10"><path class="cls-3" d="M325.49,36.92a6.27,6.27,0,0,0-2.13,4.65V65.65a6.9,6.9,0,0,0,2.15,4.87,7.17,7.17,0,0,0,4.94,2.1h12V83.19l11.17-10.57h13.52a5.84,5.84,0,0,0,4.47-2.06,7.43,7.43,0,0,0,1.77-4.91V41.57A6.2,6.2,0,0,0,367.11,35H330.45A7.5,7.5,0,0,0,325.49,36.92ZM341,74H330.45a8.57,8.57,0,0,1-5.92-2.5A8.34,8.34,0,0,1,322,65.65V41.57a7.65,7.65,0,0,1,2.59-5.69,8.91,8.91,0,0,1,5.9-2.27h36.66a7.48,7.48,0,0,1,5.52,2.31,8.19,8.19,0,0,1,2.12,5.65V65.65a8.89,8.89,0,0,1-2.11,5.84A7.26,7.26,0,0,1,367.11,74h-13L341,86.45Z"/></clipPath><clipPath id="clip-path-11"><path class="cls-3" d="M424.22,36.92a6.23,6.23,0,0,0-2.13,4.65V65.65a6.9,6.9,0,0,0,2.15,4.87,7.15,7.15,0,0,0,4.94,2.1h12V83.19l11.17-10.57h13.52a5.84,5.84,0,0,0,4.47-2.06,7.42,7.42,0,0,0,1.76-4.91V41.57c0-3.8-2.62-6.56-6.23-6.56H429.18A7.5,7.5,0,0,0,424.22,36.92ZM439.75,74H429.18a8.57,8.57,0,0,1-5.92-2.5,8.35,8.35,0,0,1-2.58-5.88V41.57a7.66,7.66,0,0,1,2.6-5.69,8.91,8.91,0,0,1,5.9-2.27h36.66a7.5,7.5,0,0,1,5.52,2.31,8.24,8.24,0,0,1,2.12,5.65V65.65a8.89,8.89,0,0,1-2.11,5.84A7.26,7.26,0,0,1,465.84,74h-13L439.75,86.45Z"/></clipPath><clipPath id="clip-path-12"><path class="cls-3" d="M524.08,36.92A6.27,6.27,0,0,0,522,41.57V65.65a6.94,6.94,0,0,0,2.15,4.87,7.17,7.17,0,0,0,4.95,2.1h12V83.19l11.17-10.57H565.7a5.87,5.87,0,0,0,4.48-2.06,7.47,7.47,0,0,0,1.76-4.91V41.57c0-3.8-2.62-6.56-6.24-6.56H529.05A7.52,7.52,0,0,0,524.08,36.92ZM539.61,74H529.05a8.61,8.61,0,0,1-5.93-2.5,8.38,8.38,0,0,1-2.57-5.88V41.57a7.65,7.65,0,0,1,2.59-5.69,8.94,8.94,0,0,1,5.91-2.27H565.7a7.47,7.47,0,0,1,5.52,2.31,8.19,8.19,0,0,1,2.12,5.65V65.65a8.93,8.93,0,0,1-2.1,5.84A7.28,7.28,0,0,1,565.7,74h-13L539.61,86.45Z"/></clipPath></defs><title>new-site-icons</title><g id="Layer_2" data-name="Layer 2"><g id="Layer_1-2" data-name="Layer 1"><circle class="cls-1" cx="50.34" cy="53.66" r="40.14"/><g class="cls-8"><g id="Page-1"><g id="advancedbreastcancer.net"><g id="avatar"><g id="abc"><polygon id="Fill-1" class="cls-9" points="0 104 100.68 104 100.68 3.32 0 3.32 0 104"/></g></g></g></g></g><circle class="cls-2" cx="149.72" cy="53.66" r="40.14"/><g class="cls-10"><g id="Page-1-2" data-name="Page-1"><g id="maculardegeneration.net"><g id="avatar-2" data-name="avatar"><rect id="Rectangle-path" class="cls-11" x="105.07" y="9.44" width="88.22" height="88.22"/></g></g></g></g><circle class="cls-4" cx="249.11" cy="53.66" r="40.14"/><g class="cls-12"><g id="Page-1-3" data-name="Page-1"><g id="alzheimersdisease.net"><g id="avatar-3" data-name="avatar"><polygon id="Fill-1-2" data-name="Fill-1" class="cls-13" points="199.04 102.17 299.72 102.17 299.72 1.49 199.04 1.49 199.04 102.17"/></g></g></g></g><circle class="cls-5" cx="348.49" cy="53.66" r="40.14"/><g class="cls-14"><g id="Page-1-4" data-name="Page-1"><g id="ankylosingspondylitis.net"><g id="avatar-4" data-name="avatar"><polygon id="Fill-1-3" data-name="Fill-1" class="cls-15" points="297.61 103.73 401.34 103.93 401.55 0.2 297.82 0 297.61 103.73"/></g></g></g></g><circle class="cls-6" cx="447.88" cy="53.66" r="40.14"/><g class="cls-16"><g id="Page-1-5" data-name="Page-1"><g id="cystic-fibrosis.com"><g id="avatar-5" data-name="avatar"><polygon id="Fill-1-4" data-name="Fill-1" class="cls-17" points="396.18 104.19 497.73 104.39 497.94 2.84 396.38 2.64 396.18 104.19"/></g></g></g></g><circle class="cls-7" cx="547.26" cy="53.66" r="40.14"/><g class="cls-18"><g id="Page-1-6" data-name="Page-1"><g id="sle-lupus.com"><g id="avatar-6" data-name="avatar"><rect id="Rectangle-1" class="cls-19" x="501" y="6.04" width="95.24" height="95.24"/></g></g></g></g><g class="cls-20"><path class="cls-21" d="M19,35.92a6.24,6.24,0,0,0-2.14,4.65V64.65a6.91,6.91,0,0,0,2.16,4.87A7.13,7.13,0,0,0,24,71.62H43V82.19L54.13,71.62H76.66a5.85,5.85,0,0,0,4.47-2.06,7.47,7.47,0,0,0,1.76-4.91V40.57c0-3.8-2.62-6.56-6.23-6.56H24A7.5,7.5,0,0,0,19,35.92ZM41.56,73H24a8.61,8.61,0,0,1-5.93-2.5,8.38,8.38,0,0,1-2.57-5.88V40.57a7.65,7.65,0,0,1,2.59-5.69A8.94,8.94,0,0,1,24,32.61H76.66a7.46,7.46,0,0,1,5.51,2.31,8.19,8.19,0,0,1,2.12,5.65V64.65a8.88,8.88,0,0,1-2.1,5.84A7.28,7.28,0,0,1,76.66,73h-22L41.56,85.45Z"/><g class="cls-22"><polygon class="cls-23" points="19.5 88.44 87.29 88.44 87.29 29.61 12.51 29.61 19.5 88.44"/></g></g><g class="cls-20"><path class="cls-21" d="M126.9,36.92a6.23,6.23,0,0,0-2.13,4.65V65.65a6.9,6.9,0,0,0,2.15,4.87,7.15,7.15,0,0,0,4.94,2.1h12V83.19L155,72.62h13.52A5.84,5.84,0,0,0,173,70.56a7.42,7.42,0,0,0,1.76-4.91V41.57c0-3.8-2.62-6.56-6.23-6.56H131.86A7.5,7.5,0,0,0,126.9,36.92ZM142.43,74H131.86a8.57,8.57,0,0,1-5.92-2.5,8.35,8.35,0,0,1-2.58-5.88V41.57a7.62,7.62,0,0,1,2.6-5.69,8.89,8.89,0,0,1,5.9-2.27h36.66A7.46,7.46,0,0,1,174,35.92a8.2,8.2,0,0,1,2.13,5.65V65.65a8.89,8.89,0,0,1-2.11,5.84A7.26,7.26,0,0,1,168.52,74h-13L142.43,86.45Z"/><g class="cls-24"><rect class="cls-23" x="120.37" y="30.61" width="58.78" height="58.83"/></g></g><g class="cls-20"><path class="cls-21" d="M225.63,36.92a6.23,6.23,0,0,0-2.13,4.65V65.65a6.9,6.9,0,0,0,2.15,4.87,7.13,7.13,0,0,0,4.94,2.1h12V83.19l11.17-10.57h13.52a5.84,5.84,0,0,0,4.47-2.06,7.42,7.42,0,0,0,1.76-4.91V41.57c0-3.8-2.62-6.56-6.23-6.56H230.59A7.5,7.5,0,0,0,225.63,36.92ZM241.16,74H230.59a8.57,8.57,0,0,1-5.92-2.5,8.35,8.35,0,0,1-2.58-5.88V41.57a7.62,7.62,0,0,1,2.6-5.69,8.89,8.89,0,0,1,5.9-2.27h36.66a7.46,7.46,0,0,1,5.51,2.31,8.2,8.2,0,0,1,2.13,5.65V65.65a8.89,8.89,0,0,1-2.11,5.84A7.26,7.26,0,0,1,267.25,74h-13L241.16,86.45Z"/><g class="cls-25"><rect class="cls-23" x="219.1" y="30.61" width="58.78" height="58.83"/></g></g><g class="cls-20"><path class="cls-21" d="M325.49,36.92a6.27,6.27,0,0,0-2.13,4.65V65.65a6.9,6.9,0,0,0,2.15,4.87,7.17,7.17,0,0,0,4.94,2.1h12V83.19l11.17-10.57h13.52a5.84,5.84,0,0,0,4.47-2.06,7.43,7.43,0,0,0,1.77-4.91V41.57A6.2,6.2,0,0,0,367.11,35H330.45A7.5,7.5,0,0,0,325.49,36.92ZM341,74H330.45a8.57,8.57,0,0,1-5.92-2.5A8.34,8.34,0,0,1,322,65.65V41.57a7.65,7.65,0,0,1,2.59-5.69,8.91,8.91,0,0,1,5.9-2.27h36.66a7.48,7.48,0,0,1,5.52,2.31,8.19,8.19,0,0,1,2.12,5.65V65.65a8.89,8.89,0,0,1-2.11,5.84A7.26,7.26,0,0,1,367.11,74h-13L341,86.45Z"/><g class="cls-26"><rect class="cls-23" x="318.96" y="30.61" width="58.78" height="58.83"/></g></g><g class="cls-20"><path class="cls-21" d="M424.22,36.92a6.23,6.23,0,0,0-2.13,4.65V65.65a6.9,6.9,0,0,0,2.15,4.87,7.15,7.15,0,0,0,4.94,2.1h12V83.19l11.17-10.57h13.52a5.84,5.84,0,0,0,4.47-2.06,7.42,7.42,0,0,0,1.76-4.91V41.57c0-3.8-2.62-6.56-6.23-6.56H429.18A7.5,7.5,0,0,0,424.22,36.92ZM439.75,74H429.18a8.57,8.57,0,0,1-5.92-2.5,8.35,8.35,0,0,1-2.58-5.88V41.57a7.66,7.66,0,0,1,2.6-5.69,8.91,8.91,0,0,1,5.9-2.27h36.66a7.5,7.5,0,0,1,5.52,2.31,8.24,8.24,0,0,1,2.12,5.65V65.65a8.89,8.89,0,0,1-2.11,5.84A7.26,7.26,0,0,1,465.84,74h-13L439.75,86.45Z"/><g class="cls-27"><rect class="cls-23" x="417.69" y="30.61" width="58.78" height="58.83"/></g></g><g class="cls-20"><path class="cls-21" d="M524.08,36.92A6.27,6.27,0,0,0,522,41.57V65.65a6.94,6.94,0,0,0,2.15,4.87,7.17,7.17,0,0,0,4.95,2.1h12V83.19l11.17-10.57H565.7a5.87,5.87,0,0,0,4.48-2.06,7.47,7.47,0,0,0,1.76-4.91V41.57c0-3.8-2.62-6.56-6.24-6.56H529.05A7.52,7.52,0,0,0,524.08,36.92ZM539.61,74H529.05a8.61,8.61,0,0,1-5.93-2.5,8.38,8.38,0,0,1-2.57-5.88V41.57a7.65,7.65,0,0,1,2.59-5.69,8.94,8.94,0,0,1,5.91-2.27H565.7a7.47,7.47,0,0,1,5.52,2.31,8.19,8.19,0,0,1,2.12,5.65V65.65a8.93,8.93,0,0,1-2.1,5.84A7.28,7.28,0,0,1,565.7,74h-13L539.61,86.45Z"/><g class="cls-28"><rect class="cls-23" x="517.55" y="30.61" width="58.78" height="58.83"/></g></g><path id="Fill-2" class="cls-29" d="M139.61,56.09l10.27-14.53H150v21h-4.26V53.87l-6,9h-.23l-6-9v8.67h-4.3v-21h.12Zm20.32-14.17c7,0,11.27,3.79,11.27,10.3S167,62.54,159.93,62.54h-6.57V41.92Zm-.14,16.72c4.65,0,7.07-2.36,7.07-6.4s-2.45-6.39-7.07-6.39h-2.14V58.64Z"/><path id="AS" class="cls-30" d="M240.1,41.66,250,62.46h-4.68L244,59.29h-7.84l-1.34,3.17h-4.67L240,41.66Zm-.06,8.2L237.45,56h5.18Zm18.32-8.2c-4.39,0-7.2,2.62-7.2,6.29,0,3,1.59,5.11,6.87,6.25,3,.59,4,1.25,4,2.45,0,1.5-1.23,2.31-3.37,2.31a8.35,8.35,0,0,1-5.75-2.39l-2.31,3.53a12,12,0,0,0,7.92,2.72c4.81,0,7.73-2.64,7.73-6.56,0-3.14-1.66-5.06-6.95-6.17-3.06-.59-3.83-1.17-3.83-2.34,0-1.5,1.11-2.22,2.92-2.22a7.64,7.64,0,0,1,5,1.78l2.2-3.51A11.87,11.87,0,0,0,258.36,41.66Z"/><g id="Group" class="cls-31"><path id="A" class="cls-21" d="M335.88,41.67h-.11l-10,21.15h4.75l1.36-3.22h8l1.36,3.22h4.75ZM335.82,50l2.63,6.22H333.2Z"/><path id="LZ" class="cls-21" d="M351,48.08h-3.81V62.82h9.55V59.47H351Zm18,0H358.09v3.27h5.2l-5.48,11.39v.08H369.2V59.55h-5.65L369,48.16Z"/></g><path id="ABC-2" data-name="ABC" class="cls-32" d="M31,40.7,41.33,62.44H36.45l-1.4-3.31H26.86l-1.4,3.31H20.58L30.9,40.7ZM31,49.28l-2.71,6.39h5.41Zm19.93-8.2c4.25,0,6.78,2.18,6.78,5.78A4.8,4.8,0,0,1,55.6,51a5.13,5.13,0,0,1,3.81,5.23c0,4-3.14,6.22-7.09,6.22H42.64V41.08Zm.76,12.24H47.06V58.4h4.71c1.91,0,3.13-.87,3.13-2.53S53.71,53.32,51.65,53.32Zm-1.34-8.2H47.06V49.8h3.37c1.68,0,2.79-.93,2.79-2.35S52.14,45.12,50.31,45.12ZM71.44,40.7a10.65,10.65,0,0,0-10.95,11A10.65,10.65,0,0,0,71.44,62.82a9.83,9.83,0,0,0,7.76-3.25l-2.76-3.23a6.36,6.36,0,0,1-5,2.44c-3.92,0-6.48-3-6.48-7s2.56-7,6.48-7a6.33,6.33,0,0,1,4.94,2.39l2.8-3.23A10,10,0,0,0,71.44,40.7Z"/><path id="Fill-3" class="cls-30" d="M541.19,64.71A10.9,10.9,0,0,1,530,53.38a10.89,10.89,0,0,1,11.2-11.29,10.16,10.16,0,0,1,7.91,3.27l-2.85,3.3a6.5,6.5,0,0,0-5.06-2.44c-4,0-6.62,3-6.62,7.16s2.61,7.2,6.62,7.2a6.53,6.53,0,0,0,5.12-2.5l2.82,3.3a10.08,10.08,0,0,1-7.94,3.33Z"/><polygon id="F" class="cls-30" points="565.2 42.48 551.53 42.48 551.53 64.32 556.08 64.32 556.08 55.5 563.66 55.5 563.66 51.63 556.08 51.63 556.08 46.61 565.2 46.61 565.2 42.48"/><path id="SLE" class="cls-30" d="M432.38,44c-3.92,0-6.42,2.33-6.42,5.6,0,2.68,1.41,4.57,6.12,5.59,2.71.52,3.53,1.11,3.53,2.18,0,1.34-1.09,2.06-3,2.06a7.43,7.43,0,0,1-5.14-2.13l-2.06,3.15a10.72,10.72,0,0,0,7.07,2.43c4.29,0,6.9-2.36,6.9-5.86,0-2.8-1.49-4.51-6.2-5.51-2.73-.52-3.43-1-3.43-2.08,0-1.34,1-2,2.61-2a6.85,6.85,0,0,1,4.44,1.59l2-3.12A10.5,10.5,0,0,0,432.38,44Zm13.18.32h-3.8V62.59h11.57V59.26h-7.77Zm21.54,0H455.31V62.59h12V59.14h-8.18v-4.2H466v-3.2h-6.92V47.8h8Z"/></g></g></svg>