<svg xmlns="http://www.w3.org/2000/svg" xmlns:xlink="http://www.w3.org/1999/xlink" viewBox="0 0 51.87 51.87"><defs><style>.cls-1{fill:#002e3b;}.cls-2,.cls-3,.cls-4{fill:#fff;}.cls-2,.cls-3{opacity:0.8;}.cls-2{clip-path:url(#clip-path);clip-rule:evenodd;}.cls-3,.cls-4{fill-rule:evenodd;}.cls-4{opacity:0.4;}</style><clipPath id="clip-path"><circle class="cls-1" cx="25.93" cy="25.93" r="25.93"/></clipPath><clipPath id="clip-path-2"><path class="cls-2" d="M16.78,20.11v4.32h2.5a2.05,2.05,0,0,0,2.32-2.16,2.07,2.07,0,0,0-2.32-2.16Zm0,11.74h-3V17.54h5.77c2.73,0,5,1.7,5,4.73S22.33,27,19.57,27H16.78Z"/></clipPath></defs><title>PC</title><g id="Layer_2" data-name="Layer 2"><g id="Layer_1-2" data-name="Layer 1"><circle class="cls-1" cx="25.93" cy="25.93" r="25.93"/><path class="cls-3" d="M16.78,20.11v4.32h2.5a2.05,2.05,0,0,0,2.32-2.16,2.07,2.07,0,0,0-2.32-2.16Zm0,11.74h-3V17.54h5.77c2.73,0,5,1.7,5,4.73S22.33,27,19.57,27H16.78Z"/><path class="cls-3" d="M33.13,17.22a7.13,7.13,0,0,0-7.34,7.4A7.14,7.14,0,0,0,33.13,32a6.59,6.59,0,0,0,5.2-2.18l-1.85-2.16a4.26,4.26,0,0,1-3.35,1.64c-2.63,0-4.34-2-4.34-4.71s1.71-4.7,4.34-4.7a4.27,4.27,0,0,1,3.31,1.6l1.87-2.16A6.67,6.67,0,0,0,33.13,17.22Z"/><path class="cls-4" d="M10.65,13.44a4.14,4.14,0,0,0-1.43,3.11V32.73A4.61,4.61,0,0,0,10.66,36,4.83,4.83,0,0,0,14,37.41h8V44.5l7.5-7.09h9.08a3.93,3.93,0,0,0,3-1.39,5,5,0,0,0,1.19-3.29V16.55a4.16,4.16,0,0,0-4.19-4.4H14A5,5,0,0,0,10.65,13.44ZM21.07,38.35H14a5.75,5.75,0,0,1-4-1.68,5.59,5.59,0,0,1-1.73-3.94V16.55A5.12,5.12,0,0,1,10,12.74a6,6,0,0,1,4-1.53H38.59a5,5,0,0,1,3.7,1.55,5.52,5.52,0,0,1,1.43,3.79V32.73a6,6,0,0,1-1.41,3.91,4.88,4.88,0,0,1-3.72,1.71h-8.7l-8.82,8.34Z"/></g></g></svg>