<svg xmlns="http://www.w3.org/2000/svg" xmlns:xlink="http://www.w3.org/1999/xlink" viewBox="0 0 51.87 51.87"><defs><style>.cls-1{fill:#002e3b;}.cls-2,.cls-3,.cls-4{fill:#fff;}.cls-2,.cls-3{opacity:0.4;}.cls-2{clip-path:url(#clip-path);clip-rule:evenodd;}.cls-3,.cls-4{fill-rule:evenodd;}.cls-4{opacity:0.8;}</style><clipPath id="clip-path"><circle class="cls-1" cx="25.93" cy="25.93" r="25.93"/></clipPath><clipPath id="clip-path-2"><path class="cls-2" d="M13.53,12.79a5,5,0,0,0-3.33,1.29,4.14,4.14,0,0,0-1.43,3.11V33.36a4.63,4.63,0,0,0,1.44,3.27A4.86,4.86,0,0,0,13.53,38h8.52v7.09L29.54,38h9.57a3.94,3.94,0,0,0,3-1.38,5,5,0,0,0,1.18-3.3V17.19a4.15,4.15,0,0,0-4.18-4.4Zm7.58,34.53V39H13.53a5.75,5.75,0,0,1-4-1.68,5.57,5.57,0,0,1-1.73-3.94V17.19a5.12,5.12,0,0,1,1.74-3.81,6,6,0,0,1,4-1.53H39.11a5,5,0,0,1,3.7,1.56,5.47,5.47,0,0,1,1.42,3.78V33.36a5.91,5.91,0,0,1-1.41,3.91A4.86,4.86,0,0,1,39.11,39H29.92Z"/></clipPath></defs><title>PD</title><g id="Layer_2" data-name="Layer 2"><g id="Layer_1-2" data-name="Layer 1"><circle class="cls-1" cx="25.93" cy="25.93" r="25.93"/><path class="cls-3" d="M13.53,12.79a5,5,0,0,0-3.33,1.29,4.14,4.14,0,0,0-1.43,3.11V33.36a4.63,4.63,0,0,0,1.44,3.27A4.86,4.86,0,0,0,13.53,38h8.52v7.09L29.54,38h9.57a3.94,3.94,0,0,0,3-1.38,5,5,0,0,0,1.18-3.3V17.19a4.15,4.15,0,0,0-4.18-4.4Zm7.58,34.53V39H13.53a5.75,5.75,0,0,1-4-1.68,5.57,5.57,0,0,1-1.73-3.94V17.19a5.12,5.12,0,0,1,1.74-3.81,6,6,0,0,1,4-1.53H39.11a5,5,0,0,1,3.7,1.56,5.47,5.47,0,0,1,1.42,3.78V33.36a5.91,5.91,0,0,1-1.41,3.91A4.86,4.86,0,0,1,39.11,39H29.92Z"/><path class="cls-4" d="M29.4,21.16v8.63h1.44c3.14,0,4.76-1.59,4.76-4.32S34,21.16,30.84,21.16Zm1.53,11.25H26.5V18.51h4.43c4.75,0,7.61,2.55,7.61,6.94S35.72,32.41,30.93,32.41Z"/><path class="cls-4" d="M16.57,21v4.2H19A2.11,2.11,0,1,0,19,21Zm0,11.41h-2.9V18.51h5.61c2.66,0,4.9,1.65,4.9,4.59s-2.22,4.59-4.9,4.59H16.57Z"/></g></g></svg>