<svg xmlns="http://www.w3.org/2000/svg" viewBox="0 0 297.86 211.83"><defs><style>.cls-1{fill:#2180ae;}.cls-2{fill:#21aeab;}</style></defs><title>poll</title><g id="Layer_2" data-name="Layer 2"><g id="Layer_1-2" data-name="Layer 1"><path class="cls-1" d="M10.6.66A14.33,14.33,0,0,0,1,13c-.27,3.58.41,10.4,3.89,12.47,2.34,1.39,6.55,1,9.14,1.18,15.81,1,31.7,1.06,47.54,1.26,43.73.58,87.46.58,131.18.43q10.61,0,21.19-.1c3.43,0,7.08.3,10.49-.1,9.19-1.1,11.28-10.64,9.26-18.32-1.43-5.41-3.46-6-8.21-6.51-14.19-1.52-28.64-1.48-42.89-1.8-22.47-.5-44.95-.74-67.43-.92C81.15.37,46.94-.59,12.92.53A20,20,0,0,0,10.6.66c-1.9.29-1.09,3.19.8,2.89-.63.1,1.44,0,1.85,0,1.67,0,3.35,0,5-.07Q27,3.39,35.79,3.38q27.71-.06,55.4.1c39.3.19,78.67.24,117.94,1.86,5.29.22,10.6.42,15.87,1a12.3,12.3,0,0,1,3.78.54c2.77,1.33,3.16,9.53,2.17,12.77-1.64,5.43-5.93,5.57-10.32,5.62-5,.05-10,.07-15,.1q-58.31.29-116.61-.1c-18.76-.14-37.52-.32-56.27-.81-6.15-.17-12.31-.35-18.45-.72-2-.12-6.73-.05-7.9-.82C4.68,21.79,3.76,16,4,13.42c.39-4.31,3.15-8.49,7.4-9.87C13.23,3,12.45.06,10.6.66Z"/><path class="cls-1" d="M97.74,211.33a14.38,14.38,0,0,0,9.54-11.7c.49-3.79-.25-10.54-3.63-13-3.6-2.63-11.07-2-15.21-2.17-20.39-1.11-40.87-1-61.28-.86-5.35,0-11.21-.54-16.53.23-9.77,1.41-11.7,13-8.15,20.71,2.35,5.11,8.12,4.74,13.08,5.2,9.59.88,19.25,1.16,28.87,1.42q17.53.47,35.06.47c5.93,0,12.36.63,18.25-.29,1.9-.29,1.09-3.18-.8-2.89-2.85.45-8.35.16-12,.18q-12.34,0-24.69-.15c-16.35-.23-33.19.08-49.42-2.26C9.55,206,7.4,206,6.29,205.16c-2-1.48-2.27-6.25-2.3-8.48,0-3.67.55-6.61,3.94-8.65s7.73-1.33,11.54-1.38c17.18-.19,34.38-.18,51.57.19,8.38.18,16.81.33,25.16,1.17,1.64.17,4.19.11,5.66,1,2,1.24,2.67,7.07,2.48,9.56a11.35,11.35,0,0,1-7.4,9.87C95.11,209,95.89,211.93,97.74,211.33Z"/><path class="cls-2" d="M13.13,48.31c-.74,0-5.24.74-7.57,2.93a14.82,14.82,0,0,0-4.08,9.21,15.46,15.46,0,0,0,4.41,9.08,11.39,11.39,0,0,0,6.6,2.56c3.24,0,276.3-1,278.91-2.94,1.37-1,4.93-5,5-9.1a12.19,12.19,0,0,0-4-8.81C289.51,48.85,14.72,48.31,13.13,48.31Z"/><path class="cls-2" d="M13.13,46.81c-7,.57-12.74,5.75-13.11,13-.36,7,5.67,13.33,12.47,13.77,3.2.21,6.49,0,9.7,0q29.2-.1,58.42-.26C135.75,73,190.89,72.74,246,72c14.42-.2,29.41.57,43.78-1.08,8.67-1,11.16-16.81,3.39-20.93-2.48-1.32-6.82-.78-9.51-.88-47.26-1.84-94.67-1.48-142-1.76q-63.1-.36-126.2-.5h-2.4a1.5,1.5,0,0,0,0,3c33,0,66,.19,98.93.35,50.25.24,100.51.41,150.75,1.37,7.21.13,14.42.27,21.63.57,5.87.24,9.39-.72,10.35,6.39.39,2.91-2.05,8.51-4,9.28a8.41,8.41,0,0,1-1.07.12c-1.73.2-3.5.2-5.24.27-6.94.27-13.9.39-20.85.52-50.11.92-100.25,1.15-150.37,1.44q-35.06.21-70.11.36c-10.07,0-20.62,1-30.66.11C-.39,69.45.79,50.83,13.13,49.81,15.05,49.65,15.06,46.65,13.13,46.81Z"/><path class="cls-1" d="M5.05,161.53c6.84,5.7,17.58,3.65,25.82,3.54q24-.33,48-.74c34.05-.56,68.1-1,102.14-2.09,3.53-.11,7.18,0,10.7-.45,5.56-.69,6.85-9.91,5.38-14.25s-3.19-5.11-7.13-5.45c-4.48-.39-9-.52-13.48-.69-35.2-1.29-70.44-1.6-105.66-2.11q-22.3-.31-44.62-.64C17.05,138.5,4,136.1.62,147.49c-1.53,5.23.89,10.22,4.43,14,1.32,1.42,3.44-.71,2.13-2.12-6.36-6.84-4.31-17.6,6-18.06,1,0,2,.06,3.08.1,3.16.12,6.34.14,9.5.19q19.77.33,39.53.57c33.63.48,67.28.89,100.91,1.86,5.63.16,11.26.34,16.88.6,2.87.14,6.32,0,9,.63a3.91,3.91,0,0,1,.77.17c-1.14-.57.68,1.32,1,2,1.3,2.72.91,5.63-.15,8.33s-.59,2.58-2.35,3c-3.05.76-6.92.31-10,.41-30.82,1-61.66,1.41-92.5,1.94q-23.94.41-47.87.75c-8.68.13-17.69.94-26.36.33a12.7,12.7,0,0,1-7.39-2.84C5.7,158.18,3.57,160.29,5.05,161.53Z"/><path class="cls-1" d="M.41,102.29c-.57,4.3-.53,13.62,4.72,15,2.5.64,5.46.42,8,.55,12.06.59,24.13.89,36.2,1.21,28.87.75,57.76,1.45,86.64,1.34,8.39,0,16.67,1.34,21.34-7.39,3.08-5.78,1.92-13.57-3.57-17.67-1.93-1.45-4.13-1.34-6.48-1.49-26-1.69-52.24-1.68-78.31-2-15.33-.18-30.66-.33-46-.1C13.81,91.86,3.06,90.2.46,101.89c-.41,1.89,2.48,2.69,2.9.8,2.17-9.78,11.58-7.84,19.61-8,11.83-.18,23.67-.11,35.51,0,26.24.23,52.51.6,78.74,1.61,3.6.14,7.21.28,10.81.53,4.28.3,5.73,1.35,7.42,6.22,2.06,5.92-2,13.37-8,14.06a88.13,88.13,0,0,1-9,.21c-25.25.18-50.52-.43-75.77-1-13.88-.32-27.76-.67-41.63-1.2-4.23-.16-8.46-.31-12.69-.6a11.9,11.9,0,0,1-2.9-.25c-2.61-1.63-2.36-9.06-2-12C3.66,100.38.66,100.4.41,102.29Z"/></g></g></svg>