<svg xmlns="http://www.w3.org/2000/svg" xmlns:xlink="http://www.w3.org/1999/xlink" viewBox="0 0 51.87 51.87"><defs><style>.cls-1{fill:#002e3b;}.cls-2,.cls-3{fill:#fff;fill-rule:evenodd;}.cls-2{opacity:0.4;}.cls-3{opacity:0.8;}</style><clipPath id="clip-path"><circle class="cls-1" cx="25.93" cy="25.93" r="25.93"/></clipPath></defs><title>PsA</title><g id="Layer_2" data-name="Layer 2"><g id="Layer_1-2" data-name="Layer 1"><circle class="cls-1" cx="25.93" cy="25.93" r="25.93"/><path class="cls-2" d="M21.94,47.22V38.9H12.27a5.77,5.77,0,0,1-4-1.68,5.57,5.57,0,0,1-1.73-3.93V17.15a5.11,5.11,0,0,1,1.74-3.81,6,6,0,0,1,4-1.53H42a5,5,0,0,1,3.69,1.55,5.49,5.49,0,0,1,1.42,3.79V33.29a5.91,5.91,0,0,1-1.41,3.9A4.84,4.84,0,0,1,42,38.9H30.74ZM12.27,12.75A5,5,0,0,0,8.94,14a4.2,4.2,0,0,0-1.43,3.12V33.29A4.64,4.64,0,0,0,9,36.55,4.82,4.82,0,0,0,12.27,38H22.89V45L30.37,38H42a3.9,3.9,0,0,0,3-1.38,5,5,0,0,0,1.18-3.29V17.15A4.15,4.15,0,0,0,42,12.75Z"/><path class="cls-3" d="M36.32,23.1l1.76,4.15H34.57Zm0-5.56h-.07l-6.7,14.1h3.17l.9-2.15H39l.91,2.15h3.17ZM26.07,21.72c-2.21,0-3.59,1.34-3.59,3.11,0,1.4.71,2.55,3.32,3.1,1.31.24,1.59.48,1.59.82s-.39.73-1.24.73a3.8,3.8,0,0,1-2.66-1.14l-1.34,2.09a5.92,5.92,0,0,0,3.92,1.33c2.4,0,3.83-1.29,3.83-3.25,0-1.47-.73-2.48-3.36-3C25.24,25.27,25,25,25,24.7s.34-.7,1.05-.7a3.47,3.47,0,0,1,2.29.81l1.29-2.08A6,6,0,0,0,26.07,21.72Zm-9.18-1.45a2.1,2.1,0,1,1,0,4.19H14.52V20.27Zm.29-2.49H11.63V31.64h2.89V27h2.66C19.84,27,22,25.31,22,22.36S19.82,17.78,17.18,17.78Z"/></g></g></svg>