<svg xmlns="http://www.w3.org/2000/svg" xmlns:xlink="http://www.w3.org/1999/xlink" viewBox="0 0 51.87 51.87"><defs><style>.cls-1{fill:#002e3b;}.cls-2,.cls-3,.cls-4,.cls-5{fill:#fff;}.cls-2,.cls-4{opacity:0.4;}.cls-2{clip-path:url(#clip-path);}.cls-2,.cls-3{clip-rule:evenodd;}.cls-3,.cls-5{opacity:0.8;}.cls-3{clip-path:url(#clip-path-2);}.cls-4,.cls-5{fill-rule:evenodd;}</style><clipPath id="clip-path"><circle class="cls-1" cx="25.93" cy="25.93" r="25.93"/></clipPath><clipPath id="clip-path-2"><path class="cls-2" d="M20.52,47.33V39h-9a5.75,5.75,0,0,1-4-1.67A5.59,5.59,0,0,1,5.8,33.4V17.26a5.12,5.12,0,0,1,1.74-3.81,6,6,0,0,1,4-1.52H40a5,5,0,0,1,3.7,1.55,5.47,5.47,0,0,1,1.42,3.78V33.4a6,6,0,0,1-1.41,3.91A4.84,4.84,0,0,1,40,39H29.32Zm-9-34.46a5,5,0,0,0-3.33,1.28,4.19,4.19,0,0,0-1.43,3.11V33.4a4.63,4.63,0,0,0,1.44,3.26,4.82,4.82,0,0,0,3.32,1.41h10v7.08L29,38.07H40a3.92,3.92,0,0,0,3-1.38,5,5,0,0,0,1.18-3.29V17.26A4.15,4.15,0,0,0,40,12.87Z"/></clipPath><clipPath id="clip-path-3"><path class="cls-3" d="M25.27,22.44c-2.2,0-3.59,1.35-3.59,3.12,0,1.4.71,2.55,3.33,3.1,1.3.24,1.58.48,1.58.82s-.38.73-1.24.73a3.77,3.77,0,0,1-2.65-1.14l-1.35,2.09a5.92,5.92,0,0,0,3.92,1.33c2.4,0,3.83-1.29,3.83-3.25,0-1.48-.73-2.48-3.35-3-1.31-.23-1.55-.46-1.55-.79s.35-.7,1.06-.7a3.42,3.42,0,0,1,2.28.8l1.3-2.07A6,6,0,0,0,25.27,22.44Z"/></clipPath></defs><title>Pso</title><g id="Layer_2" data-name="Layer 2"><g id="Layer_1-2" data-name="Layer 1"><circle class="cls-1" cx="25.93" cy="25.93" r="25.93"/><path class="cls-4" d="M20.52,47.33V39h-9a5.75,5.75,0,0,1-4-1.67A5.59,5.59,0,0,1,5.8,33.4V17.26a5.12,5.12,0,0,1,1.74-3.81,6,6,0,0,1,4-1.52H40a5,5,0,0,1,3.7,1.55,5.47,5.47,0,0,1,1.42,3.78V33.4a6,6,0,0,1-1.41,3.91A4.84,4.84,0,0,1,40,39H29.32Zm-9-34.46a5,5,0,0,0-3.33,1.28,4.19,4.19,0,0,0-1.43,3.11V33.4a4.63,4.63,0,0,0,1.44,3.26,4.82,4.82,0,0,0,3.32,1.41h10v7.08L29,38.07H40a3.92,3.92,0,0,0,3-1.38,5,5,0,0,0,1.18-3.29V17.26A4.15,4.15,0,0,0,40,12.87Z"/><path class="cls-5" d="M25.27,22.44c-2.2,0-3.59,1.35-3.59,3.12,0,1.4.71,2.55,3.33,3.1,1.3.24,1.58.48,1.58.82s-.38.73-1.24.73a3.77,3.77,0,0,1-2.65-1.14l-1.35,2.09a5.92,5.92,0,0,0,3.92,1.33c2.4,0,3.83-1.29,3.83-3.25,0-1.48-.73-2.48-3.35-3-1.31-.23-1.55-.46-1.55-.79s.35-.7,1.06-.7a3.42,3.42,0,0,1,2.28.8l1.3-2.07A6,6,0,0,0,25.27,22.44Z"/><path class="cls-5" d="M16.1,21a2,2,0,0,1,2.24,2.09,2,2,0,0,1-2.24,2.09H13.72V21Zm.28-2.49H10.84V32.37h2.88v-4.7h2.66c2.66,0,4.87-1.64,4.87-4.58S19,18.51,16.38,18.51Z"/><path class="cls-5" d="M34.9,24.77a2.53,2.53,0,0,0-2.51,2.76,2.52,2.52,0,1,0,5,0A2.53,2.53,0,0,0,34.9,24.77Zm0-2.28a5,5,0,1,1-5.06,5A4.91,4.91,0,0,1,34.9,22.49Z"/></g></g></svg>