<svg xmlns="http://www.w3.org/2000/svg" xmlns:xlink="http://www.w3.org/1999/xlink" viewBox="0 0 51.87 51.87"><defs><style>.cls-1{fill:#002e3b;}.cls-2,.cls-3,.cls-4{fill:#fff;}.cls-2,.cls-3{opacity:0.4;}.cls-2{clip-path:url(#clip-path);clip-rule:evenodd;}.cls-3,.cls-4{fill-rule:evenodd;}.cls-4{opacity:0.8;}</style><clipPath id="clip-path"><circle class="cls-1" cx="25.93" cy="25.93" r="25.93"/></clipPath><clipPath id="clip-path-2"><path class="cls-2" d="M21.22,47.29V39H13.66a5.76,5.76,0,0,1-4-1.67A5.59,5.59,0,0,1,8,33.36V17.22A5.12,5.12,0,0,1,9.7,13.41a6,6,0,0,1,4-1.52H39.19a5,5,0,0,1,3.7,1.55,5.51,5.51,0,0,1,1.42,3.78V33.36a6,6,0,0,1-1.41,3.91A4.85,4.85,0,0,1,39.19,39H30ZM13.66,12.83a5,5,0,0,0-3.33,1.28A4.19,4.19,0,0,0,8.9,17.22V33.36a4.63,4.63,0,0,0,1.44,3.26A4.82,4.82,0,0,0,13.66,38h8.5v7.08L29.64,38h9.55a3.92,3.92,0,0,0,3-1.38,5,5,0,0,0,1.18-3.29V17.22a4.15,4.15,0,0,0-4.18-4.39Z"/></clipPath></defs><title>RA</title><g id="Layer_2" data-name="Layer 2"><g id="Layer_1-2" data-name="Layer 1"><circle class="cls-1" cx="25.93" cy="25.93" r="25.93"/><path class="cls-3" d="M21.22,47.29V39H13.66a5.76,5.76,0,0,1-4-1.67A5.59,5.59,0,0,1,8,33.36V17.22A5.12,5.12,0,0,1,9.7,13.41a6,6,0,0,1,4-1.52H39.19a5,5,0,0,1,3.7,1.55,5.51,5.51,0,0,1,1.42,3.78V33.36a6,6,0,0,1-1.41,3.91A4.85,4.85,0,0,1,39.19,39H30ZM13.66,12.83a5,5,0,0,0-3.33,1.28A4.19,4.19,0,0,0,8.9,17.22V33.36a4.63,4.63,0,0,0,1.44,3.26A4.82,4.82,0,0,0,13.66,38h8.5v7.08L29.64,38h9.55a3.92,3.92,0,0,0,3-1.38,5,5,0,0,0,1.18-3.29V17.22a4.15,4.15,0,0,0-4.18-4.39Z"/><path class="cls-4" d="M39.34,31.92H36.17l-.9-2.16H30L29,31.92H25.88l6.69-14.11h.08Zm-8.49-4.37h3.51L32.61,23.4Z"/><path class="cls-4" d="M25,22.54a4.24,4.24,0,0,1-2.55,4l3.23,5.38H22.31L19.41,27h-1.9v4.89H14.64V18.05h5.43C22.73,18.05,25,19.68,25,22.54Zm-7.48-2v4H19.8c1.36,0,2.27-.7,2.27-2s-.91-2-2.27-2Z"/></g></g></svg>