<svg xmlns="http://www.w3.org/2000/svg" xmlns:xlink="http://www.w3.org/1999/xlink" viewBox="0 0 51.87 51.87"><defs><style>.cls-1{fill:#002e3b;}.cls-2,.cls-3{fill:#fff;fill-rule:evenodd;}.cls-2{opacity:0.8;}.cls-3{opacity:0.4;}</style><clipPath id="clip-path"><circle class="cls-1" cx="25.93" cy="25.93" r="25.93"/></clipPath></defs><title>SC</title><g id="Layer_2" data-name="Layer 2"><g id="Layer_1-2" data-name="Layer 1"><circle class="cls-1" cx="25.93" cy="25.93" r="25.93"/><path class="cls-2" d="M33,17.37a7.1,7.1,0,0,0-7.31,7.37A7.11,7.11,0,0,0,33,32.12,6.54,6.54,0,0,0,38.13,30L36.29,27.8A4.24,4.24,0,0,1,33,29.43c-2.62,0-4.32-2-4.32-4.69s1.7-4.67,4.32-4.67a4.22,4.22,0,0,1,3.29,1.59l1.86-2.15A6.59,6.59,0,0,0,33,17.37Zm-13.8,0c-3.06,0-5,1.83-5,4.38,0,2.1,1.1,3.57,4.79,4.36,2.11.41,2.75.88,2.75,1.71,0,1.05-.85,1.61-2.35,1.61a5.8,5.8,0,0,1-4-1.67l-1.61,2.46a8.4,8.4,0,0,0,5.53,1.9c3.35,0,5.38-1.84,5.38-4.57,0-2.19-1.16-3.53-4.84-4.3-2.13-.41-2.68-.82-2.68-1.63,0-1.05.78-1.55,2-1.55a5.31,5.31,0,0,1,3.47,1.24l1.53-2.44A8.24,8.24,0,0,0,19.16,17.37Z"/><path class="cls-3" d="M10.56,14.08A4.18,4.18,0,0,0,9.13,17.2V33.37a4.64,4.64,0,0,0,1.45,3.27,4.82,4.82,0,0,0,3.32,1.41h8v7.09l7.5-7.09h9.08a3.9,3.9,0,0,0,3-1.39,5,5,0,0,0,1.18-3.29V17.2a4.16,4.16,0,0,0-4.18-4.41H13.9A5,5,0,0,0,10.56,14.08ZM21,39H13.9a5.75,5.75,0,0,1-4-1.68,5.57,5.57,0,0,1-1.73-3.94V17.2a5.13,5.13,0,0,1,1.74-3.82,6,6,0,0,1,4-1.53H38.51a5,5,0,0,1,3.7,1.56,5.48,5.48,0,0,1,1.43,3.79V33.37a6,6,0,0,1-1.42,3.91A4.86,4.86,0,0,1,38.51,39H29.8L21,47.33Z"/></g></g></svg>