<svg xmlns="http://www.w3.org/2000/svg" xmlns:xlink="http://www.w3.org/1999/xlink" viewBox="0 0 693.86 79.45"><defs><style>.cls-1,.cls-2{fill:none;}.cls-2{clip-rule:evenodd;}.cls-3{clip-path:url(#clip-path);}.cls-4{clip-path:url(#clip-path-2);}.cls-5{fill:#002e3b;}.cls-6{clip-path:url(#clip-path-3);}.cls-27,.cls-7,.cls-9{fill:#fff;}.cls-7{opacity:0.4;}.cls-8{clip-path:url(#clip-path-4);}.cls-9{opacity:0.8;}.cls-10{clip-path:url(#clip-path-5);}.cls-11{clip-path:url(#clip-path-6);}.cls-12{clip-path:url(#clip-path-7);}.cls-13{clip-path:url(#clip-path-8);}.cls-14{clip-path:url(#clip-path-9);}.cls-15{clip-path:url(#clip-path-10);}.cls-16{clip-path:url(#clip-path-11);}.cls-17{clip-path:url(#clip-path-12);}.cls-18{clip-path:url(#clip-path-13);}.cls-19{clip-path:url(#clip-path-14);}.cls-20{clip-path:url(#clip-path-15);}.cls-21{clip-path:url(#clip-path-16);}.cls-22{clip-path:url(#clip-path-17);}.cls-23{clip-path:url(#clip-path-18);}.cls-24{clip-path:url(#clip-path-19);}.cls-25{clip-path:url(#clip-path-20);}.cls-26{clip-path:url(#clip-path-21);}.cls-27{opacity:0.85;}.cls-28{clip-path:url(#clip-path-22);}.cls-29{clip-path:url(#clip-path-23);}.cls-30{clip-path:url(#clip-path-24);}.cls-31{clip-path:url(#clip-path-25);}.cls-32{clip-path:url(#clip-path-26);}.cls-33{clip-path:url(#clip-path-27);}.cls-34{clip-path:url(#clip-path-28);}.cls-35{clip-path:url(#clip-path-29);}.cls-36{clip-path:url(#clip-path-30);}.cls-37{clip-path:url(#clip-path-31);}.cls-38{clip-path:url(#clip-path-32);}.cls-39{clip-path:url(#clip-path-33);}.cls-40{clip-path:url(#clip-path-34);}.cls-41{clip-path:url(#clip-path-35);}.cls-42{clip-path:url(#clip-path-36);}.cls-43{clip-path:url(#clip-path-37);}.cls-44{clip-path:url(#clip-path-38);}.cls-45{clip-path:url(#clip-path-40);}.cls-46{clip-path:url(#clip-path-42);}.cls-47{clip-path:url(#clip-path-44);}.cls-48{isolation:isolate;}.cls-49{clip-path:url(#clip-path-46);}.cls-50{clip-path:url(#clip-path-47);}.cls-51{clip-path:url(#clip-path-48);}.cls-52{clip-path:url(#clip-path-49);}.cls-53{clip-path:url(#clip-path-50);}.cls-54{clip-path:url(#clip-path-51);}.cls-55{clip-path:url(#clip-path-52);}.cls-56{clip-path:url(#clip-path-53);}.cls-57{clip-path:url(#clip-path-54);}.cls-58{clip-path:url(#clip-path-55);}.cls-59{clip-path:url(#clip-path-56);}.cls-60{clip-path:url(#clip-path-57);}.cls-61{clip-path:url(#clip-path-58);}.cls-62{clip-path:url(#clip-path-59);}.cls-63{clip-path:url(#clip-path-60);}.cls-64{clip-path:url(#clip-path-61);}.cls-65{clip-path:url(#clip-path-62);}.cls-66{clip-path:url(#clip-path-63);}.cls-67{clip-path:url(#clip-path-64);}</style><clipPath id="clip-path"><circle class="cls-1" cx="591.33" cy="41.13" r="25.93"/></clipPath><clipPath id="clip-path-2"><rect class="cls-1" x="561.38" y="11.34" width="60.32" height="60.32"/></clipPath><clipPath id="clip-path-3"><path class="cls-2" d="M578.89,29.34a4.79,4.79,0,0,0-3.2,1.24,4,4,0,0,0-1.38,3V49.12a4.45,4.45,0,0,0,1.39,3.15,4.64,4.64,0,0,0,3.19,1.36h8.82v6.81l7.21-6.81h9.82a3.77,3.77,0,0,0,2.89-1.34,4.81,4.81,0,0,0,1.14-3.17V33.58a4,4,0,0,0-4-4.24Zm7.91,33.21v-8h-7.91a5.59,5.59,0,0,1-3.83-1.61,5.42,5.42,0,0,1-1.66-3.8V33.58a4.91,4.91,0,0,1,1.68-3.67,5.72,5.72,0,0,1,3.81-1.48h25.85a4.83,4.83,0,0,1,3.56,1.5,5.26,5.26,0,0,1,1.37,3.65V49.12a5.72,5.72,0,0,1-1.36,3.77,4.65,4.65,0,0,1-3.57,1.64h-9.46Z"/></clipPath><clipPath id="clip-path-4"><path class="cls-2" d="M588.33,37.36c1.14,0,1.81.54,1.81,1.44s-.69,1.47-1.74,1.47h-2.1V37.36Zm.83,5.09c1.28,0,2,.56,2,1.59s-.76,1.58-2,1.58H586.3V42.45Zm-.47-7.61h-5.13V48.13h6c2.46,0,4.41-1.39,4.41-3.87A3.19,3.19,0,0,0,591.62,41a3,3,0,0,0,1.28-2.57C592.9,36.2,591.33,34.84,588.69,34.84Z"/></clipPath><clipPath id="clip-path-5"><path class="cls-2" d="M600,34.61c-2.85,0-4.68,1.7-4.68,4.08,0,2,1,3.33,4.46,4.07,2,.38,2.57.81,2.57,1.59,0,1-.79,1.5-2.19,1.5a5.43,5.43,0,0,1-3.74-1.55l-1.5,2.29a7.8,7.8,0,0,0,5.15,1.77c3.13,0,5-1.71,5-4.26,0-2-1.09-3.29-4.52-4-2-.37-2.49-.75-2.49-1.51,0-1,.72-1.45,1.89-1.45a5,5,0,0,1,3.24,1.16L604.63,36A7.69,7.69,0,0,0,600,34.61Z"/></clipPath><clipPath id="clip-path-6"><rect class="cls-1" x="578" y="34.84" width="2.77" height="13.29"/></clipPath><clipPath id="clip-path-7"><circle class="cls-1" cx="660.74" cy="41.13" r="25.93"/></clipPath><clipPath id="clip-path-8"><rect class="cls-1" x="629.86" y="10.78" width="61.44" height="61.44"/></clipPath><clipPath id="clip-path-9"><path class="cls-2" d="M655.33,62.53V54.21h-9a5.76,5.76,0,0,1-4-1.67,5.59,5.59,0,0,1-1.73-3.94V32.46a5.12,5.12,0,0,1,1.74-3.81,6,6,0,0,1,4-1.52h28.46a5,5,0,0,1,3.69,1.55,5.47,5.47,0,0,1,1.43,3.78V48.6a6,6,0,0,1-1.42,3.91,4.83,4.83,0,0,1-3.7,1.7H664.12Zm-9-34.46A5,5,0,0,0,643,29.35a4.19,4.19,0,0,0-1.43,3.11V48.6A4.6,4.6,0,0,0,643,51.86a4.78,4.78,0,0,0,3.31,1.41h10v7.08l7.48-7.08h11a3.9,3.9,0,0,0,3-1.38,4.93,4.93,0,0,0,1.18-3.29V32.46a4.14,4.14,0,0,0-4.17-4.39Z"/></clipPath><clipPath id="clip-path-10"><path class="cls-2" d="M660.07,37.64c-2.2,0-3.59,1.35-3.59,3.12,0,1.4.72,2.55,3.33,3.1,1.31.24,1.58.48,1.58.82s-.38.72-1.24.72a3.76,3.76,0,0,1-2.65-1.13l-1.35,2.09a5.94,5.94,0,0,0,3.92,1.33c2.41,0,3.83-1.3,3.83-3.25,0-1.48-.72-2.48-3.35-3-1.31-.23-1.55-.46-1.55-.79s.35-.7,1.06-.7a3.42,3.42,0,0,1,2.28.8l1.3-2.07A6,6,0,0,0,660.07,37.64Z"/></clipPath><clipPath id="clip-path-11"><path class="cls-2" d="M650.9,36.2a2.1,2.1,0,1,1,0,4.18h-2.38V36.2Zm.28-2.49h-5.54V47.57h2.88v-4.7h2.66c2.66,0,4.87-1.64,4.87-4.58S653.82,33.71,651.18,33.71Z"/></clipPath><clipPath id="clip-path-12"><path class="cls-2" d="M669.7,40a2.53,2.53,0,0,0-2.51,2.76,2.52,2.52,0,1,0,5,0A2.53,2.53,0,0,0,669.7,40Zm0-2.28a5,5,0,1,1-5.05,5A4.91,4.91,0,0,1,669.7,37.69Z"/></clipPath><clipPath id="clip-path-13"><circle class="cls-1" cx="105.5" cy="41.13" r="25.93"/></clipPath><clipPath id="clip-path-14"><rect class="cls-1" x="73.87" y="7.16" width="65.13" height="65.13"/></clipPath><clipPath id="clip-path-15"><path class="cls-2" d="M93.75,27.21a5,5,0,0,0-3.33,1.29A4.18,4.18,0,0,0,89,31.62V47.79a4.64,4.64,0,0,0,1.45,3.27,4.82,4.82,0,0,0,3.31,1.41h8.53v7.09l7.49-7.09h9.57a3.9,3.9,0,0,0,3-1.39,4.94,4.94,0,0,0,1.19-3.29V31.62a4.16,4.16,0,0,0-4.19-4.41Zm7.59,34.54V53.41H93.75a5.75,5.75,0,0,1-4-1.68,5.59,5.59,0,0,1-1.73-3.94V31.62a5.13,5.13,0,0,1,1.74-3.82,6,6,0,0,1,4-1.53h25.59a5,5,0,0,1,3.7,1.56,5.48,5.48,0,0,1,1.43,3.79V47.79a6,6,0,0,1-1.41,3.91,4.88,4.88,0,0,1-3.72,1.71h-9.19Z"/></clipPath><clipPath id="clip-path-16"><polygon class="cls-2" points="107.79 46.34 104.92 46.34 104.92 40.5 100.86 46.53 100.71 46.53 96.67 40.5 96.67 46.34 93.8 46.34 93.8 32.21 93.85 32.21 100.78 41.99 107.7 32.21 107.79 32.21 107.79 46.34 107.79 46.34"/></clipPath><clipPath id="clip-path-17"><path class="cls-2" d="M119.64,33.66,118.15,36a5.19,5.19,0,0,0-3.38-1.21c-1.23,0-2,.49-2,1.52,0,.79.53,1.19,2.61,1.58,3.59.76,4.72,2.06,4.72,4.2,0,2.66-2,4.46-5.25,4.46a8.18,8.18,0,0,1-5.39-1.86l1.57-2.4A5.65,5.65,0,0,0,115,44c1.46,0,2.29-.55,2.29-1.57,0-.81-.62-1.26-2.68-1.66-3.59-.78-4.67-2.21-4.67-4.25,0-2.5,1.91-4.27,4.89-4.27A8,8,0,0,1,119.64,33.66Z"/></clipPath><clipPath id="clip-path-18"><circle class="cls-1" cx="36.1" cy="41.13" r="25.93"/></clipPath><clipPath id="clip-path-19"><rect class="cls-1" x="2.81" y="6.76" width="67.55" height="67.55"/></clipPath><clipPath id="clip-path-20"><path class="cls-2" d="M32.06,61.82l8.1-7.64h5.62a4.69,4.69,0,0,0,4.69-4.69v-18a4.7,4.7,0,0,0-4.69-4.7H27.4a4.71,4.71,0,0,0-4.7,4.7v18a4.7,4.7,0,0,0,4.7,4.69h4.66ZM27.4,55.15a5.66,5.66,0,0,1-5.66-5.66v-18a5.65,5.65,0,0,1,5.66-5.66H45.78a5.66,5.66,0,0,1,5.66,5.66v18a5.67,5.67,0,0,1-5.66,5.66H40.55L31.1,64.06V55.15Z"/></clipPath><clipPath id="clip-path-21"><polygon class="cls-2" points="32.11 48.11 28.91 48.11 28.91 32.75 28.99 32.75 36.56 43.44 44.11 32.75 44.27 32.75 44.27 48.11 41.07 48.11 41.07 41.68 36.65 48.27 36.48 48.27 32.11 41.68 32.11 48.11"/></clipPath><clipPath id="clip-path-22"><circle class="cls-1" cx="174.91" cy="41.13" r="25.93"/></clipPath><clipPath id="clip-path-23"><rect class="cls-1" x="148.14" y="13.59" width="53.88" height="53.88"/></clipPath><clipPath id="clip-path-24"><path class="cls-2" d="M170.2,62.49V54.17h-7.57a5.78,5.78,0,0,1-4-1.67,5.62,5.62,0,0,1-1.72-3.94V32.42a5.09,5.09,0,0,1,1.74-3.81,5.93,5.93,0,0,1,3.95-1.52h25.54a5,5,0,0,1,3.69,1.55,5.47,5.47,0,0,1,1.43,3.78V48.56a6,6,0,0,1-1.42,3.91,4.83,4.83,0,0,1-3.7,1.7H179ZM162.63,28a5,5,0,0,0-3.32,1.28,4.19,4.19,0,0,0-1.43,3.11V48.56a4.59,4.59,0,0,0,1.44,3.26,4.78,4.78,0,0,0,3.31,1.41h8.51v7.08l7.48-7.08h9.55a3.9,3.9,0,0,0,3-1.38,4.93,4.93,0,0,0,1.18-3.29V32.42A4.14,4.14,0,0,0,188.17,28Z"/></clipPath><clipPath id="clip-path-25"><path class="cls-2" d="M174,37.74a4.24,4.24,0,0,1-2.55,4l3.22,5.38h-3.35l-2.91-4.89h-1.9v4.89h-2.87V33.25H169C171.7,33.25,174,34.87,174,37.74Zm-7.49-2v4h2.3c1.36,0,2.26-.7,2.26-2s-.9-2-2.26-2Z"/></clipPath><clipPath id="clip-path-26"><path class="cls-2" d="M188.31,47.12h-3.16L184.24,45h-5.32l-.9,2.16h-3.17L181.54,33h.08Zm-8.48-4.37h3.51l-1.76-4.15Z"/></clipPath><clipPath id="clip-path-27"><circle class="cls-1" cx="244.31" cy="41.13" r="25.93"/></clipPath><clipPath id="clip-path-28"><rect class="cls-1" x="213.16" y="9.17" width="62.72" height="62.72"/></clipPath><clipPath id="clip-path-29"><path class="cls-2" d="M240,61V53.36H228.67A5.57,5.57,0,0,1,223.29,48V33A4.63,4.63,0,0,1,225,29.51a5.72,5.72,0,0,1,3.72-1.38h32.38a4.59,4.59,0,0,1,3.41,1.41A5.07,5.07,0,0,1,265.74,33V48a5.81,5.81,0,0,1-1.26,3.68,4.38,4.38,0,0,1-3.43,1.66H248.14ZM228.67,29.07a4.79,4.79,0,0,0-3.1,1.15A3.72,3.72,0,0,0,224.23,33V48a4.39,4.39,0,0,0,1.36,3,4.45,4.45,0,0,0,3.08,1.35h12.22v6.43l6.88-6.43h13.28a3.42,3.42,0,0,0,2.7-1.31A4.93,4.93,0,0,0,264.8,48V33a4.09,4.09,0,0,0-1-2.84,3.61,3.61,0,0,0-2.72-1.12Z"/></clipPath><clipPath id="clip-path-30"><polygon class="cls-2" points="239.05 36.62 234.91 36.62 234.91 47.12 232.22 47.12 232.22 36.62 228.08 36.62 228.08 34.27 239.05 34.27 239.05 36.62"/></clipPath><clipPath id="clip-path-31"><path class="cls-2" d="M248.1,38.09a5.86,5.86,0,0,1-1.42,3.68l-2.24,3h3.78v2.3h-8.28V47l4.58-6.56a3.81,3.81,0,0,0,1-2.44,1.55,1.55,0,0,0-1.63-1.68c-1,0-1.58.63-1.79,1.91l-2.34-.54c.47-2.47,1.89-3.68,4.13-3.68a4,4,0,0,1,4.25,4.06"/></clipPath><clipPath id="clip-path-32"><path class="cls-2" d="M261.1,40.68c0,4.06-2.61,6.43-7,6.43H250V34.27h4.11C258.46,34.27,261.1,36.62,261.1,40.68Zm-8.45-4v8H254c2.9,0,4.41-1.48,4.41-4s-1.52-4-4.41-4Z"/></clipPath><clipPath id="clip-path-33"><circle class="cls-1" cx="313.72" cy="41.13" r="25.93"/></clipPath><clipPath id="clip-path-34"><rect class="cls-1" x="283.81" y="10.78" width="59.34" height="59.34"/></clipPath><clipPath id="clip-path-35"><rect class="cls-1" x="285.77" y="12.82" width="55.89" height="55.42"/></clipPath><clipPath id="clip-path-36"><path class="cls-2" d="M294.85,31.15a3.63,3.63,0,0,0-2.33.85,2.74,2.74,0,0,0-1,2.08V45.64a3.5,3.5,0,0,0,3.34,3.29h15.94v4.83L316,48.93h16.69a2.55,2.55,0,0,0,2-1,3.69,3.69,0,0,0,.78-2.32V34.08a2.71,2.71,0,0,0-2.78-2.93Zm15,24.77V49.87h-15a4.43,4.43,0,0,1-4.28-4.23V34.08a3.66,3.66,0,0,1,1.34-2.79,4.61,4.61,0,0,1,2.94-1.08h37.79a3.66,3.66,0,0,1,2.7,1.11,4,4,0,0,1,1,2.76V45.64a4.57,4.57,0,0,1-1,2.92,3.48,3.48,0,0,1-2.72,1.31H316.32Z"/></clipPath><clipPath id="clip-path-37"><rect class="cls-1" x="289.39" y="16.41" width="48.65" height="48.25"/></clipPath><clipPath id="clip-path-38"><polygon class="cls-2" points="302.73 44.83 300.67 44.83 300.67 40.67 296.63 40.67 296.63 44.83 294.56 44.83 294.56 34.87 296.63 34.87 296.63 38.79 300.67 38.79 300.67 34.87 302.73 34.87 302.73 44.83"/></clipPath><clipPath id="clip-path-40"><polygon class="cls-2" points="311.26 44.83 304.72 44.83 304.72 34.87 311.16 34.87 311.16 36.75 306.79 36.75 306.79 38.91 310.57 38.91 310.57 40.66 306.79 40.66 306.79 42.95 311.26 42.95 311.26 44.83"/></clipPath><clipPath id="clip-path-42"><path class="cls-2" d="M328.89,45a5.16,5.16,0,0,1,0-10.32,4.65,4.65,0,0,1,3.6,1.49l-1.3,1.51a3,3,0,0,0-5.32,2.15,3,3,0,0,0,3,3.28A3,3,0,0,0,331.22,42l1.29,1.51A4.6,4.6,0,0,1,328.89,45Z"/></clipPath><clipPath id="clip-path-44"><path class="cls-2" d="M314.82,36.66v3h1.7a1.51,1.51,0,1,0,0-3Zm0,8.17h-2.08v-10h4a3.3,3.3,0,1,1,0,6.58h-1.91Z"/></clipPath><clipPath id="clip-path-46"><rect class="cls-1" x="310.7" y="32.49" width="11.66" height="14.47"/></clipPath><clipPath id="clip-path-47"><rect class="cls-1" x="312.71" y="34.5" width="7.64" height="10.45"/></clipPath><clipPath id="clip-path-48"><circle class="cls-1" cx="521.93" cy="41.13" r="25.93"/></clipPath><clipPath id="clip-path-49"><rect class="cls-1" x="491.5" y="10.9" width="61.18" height="61.18"/></clipPath><clipPath id="clip-path-50"><path class="cls-2" d="M521.29,38.46,519.36,43h3.86Zm7.4,9.4h-3.48l-1-2.37h-5.84l-1,2.37h-3.48l7.36-15.49h.08Z"/></clipPath><clipPath id="clip-path-51"><path class="cls-2" d="M512.1,26.56a4.83,4.83,0,0,0-4.7,4.63q0,9.06,0,18.11a4.83,4.83,0,0,0,4.7,4.64h4.67v7.64l8.1-7.64c3.27,0,7,.64,9-1.5a4.77,4.77,0,0,0,1.25-3.14q.06-9,0-18.11a4.8,4.8,0,0,0-4.63-4.63C524.39,26.52,518.25,26.56,512.1,26.56Zm18.45-1a5.81,5.81,0,0,1,5.59,5.59q.06,9.07,0,18.14a5.83,5.83,0,0,1-5.66,5.58h-5.23l-9.45,8.91V54.9c-1.84,0-3.62.43-5.71-.36a5.8,5.8,0,0,1-3.65-5.22q-.06-9.07,0-18.14A5.8,5.8,0,0,1,512,25.59Q521.29,25.53,530.55,25.59Z"/></clipPath><clipPath id="clip-path-52"><circle class="cls-1" cx="452.52" cy="41.13" r="25.93"/></clipPath><clipPath id="clip-path-53"><rect class="cls-1" x="423.22" y="11.67" width="59.66" height="59.66"/></clipPath><clipPath id="clip-path-54"><path class="cls-2" d="M439.44,29.34a4.83,4.83,0,0,0-3.21,1.24,4,4,0,0,0-1.37,3V49.12a4.45,4.45,0,0,0,1.39,3.15,4.64,4.64,0,0,0,3.19,1.36h8.82v6.81l7.21-6.81h11.75a3.79,3.79,0,0,0,2.89-1.34,4.81,4.81,0,0,0,1.14-3.17V33.58a4,4,0,0,0-4-4.24Zm7.91,33.21v-8h-7.91a5.59,5.59,0,0,1-3.83-1.61,5.42,5.42,0,0,1-1.66-3.8V33.58a4.94,4.94,0,0,1,1.67-3.67,5.75,5.75,0,0,1,3.82-1.48h27.78a4.83,4.83,0,0,1,3.56,1.5,5.31,5.31,0,0,1,1.37,3.65V49.12a5.72,5.72,0,0,1-1.36,3.77,4.67,4.67,0,0,1-3.57,1.64H455.83Z"/></clipPath><clipPath id="clip-path-55"><rect class="cls-1" x="438.54" y="34.84" width="2.77" height="13.29"/></clipPath><clipPath id="clip-path-56"><path class="cls-2" d="M448.88,37.36c1.14,0,1.81.54,1.81,1.44S450,40.27,449,40.27h-2.1V37.36Zm.83,5.09c1.28,0,2,.56,2,1.59s-.76,1.58-2,1.58h-2.93V42.45Zm-.47-7.61h-5.13V48.13h6c2.46,0,4.42-1.39,4.42-3.87A3.19,3.19,0,0,0,452.17,41a3,3,0,0,0,1.28-2.57C453.45,36.2,451.88,34.84,449.24,34.84Z"/></clipPath><clipPath id="clip-path-57"><path class="cls-2" d="M459.2,37.37v8.25h1.37c3,0,4.55-1.52,4.55-4.13s-1.57-4.12-4.55-4.12Zm1.46,10.76h-4.23V34.84h4.23c4.54,0,7.27,2.44,7.27,6.64S465.23,48.13,460.66,48.13Z"/></clipPath><clipPath id="clip-path-58"><circle class="cls-1" cx="383.12" cy="41.13" r="25.93"/></clipPath><clipPath id="clip-path-59"><rect class="cls-1" x="354.12" y="12.35" width="58.15" height="58.15"/></clipPath><clipPath id="clip-path-60"><path class="cls-2" d="M364.55,32.72a3.68,3.68,0,0,0-2.34.85,2.77,2.77,0,0,0-1,2.08V47.21a3.49,3.49,0,0,0,3.34,3.29h15.94v4.83l5.16-4.83h16.68a2.53,2.53,0,0,0,2-1,3.7,3.7,0,0,0,.79-2.32V35.65a2.71,2.71,0,0,0-2.79-2.93Zm15,24.77V51.44h-15a4.43,4.43,0,0,1-4.28-4.23V35.65a3.67,3.67,0,0,1,1.33-2.79,4.58,4.58,0,0,1,2.95-1.08h37.78A3.7,3.7,0,0,1,405,32.89a4,4,0,0,1,1,2.76V47.21a4.6,4.6,0,0,1-1,2.91,3.47,3.47,0,0,1-2.73,1.32H386l-6.47,6.05Z"/></clipPath><clipPath id="clip-path-61"><path class="cls-2" d="M369.28,46.54a5.14,5.14,0,0,1,0-10.27,4.61,4.61,0,0,1,3.59,1.48l-1.29,1.5a3,3,0,0,0-2.3-1.11,3,3,0,0,0-3,3.26,3,3,0,0,0,3,3.27,3,3,0,0,0,2.33-1.14l1.28,1.5A4.57,4.57,0,0,1,369.28,46.54Z"/></clipPath><clipPath id="clip-path-62"><path class="cls-2" d="M378.29,38.14a3,3,0,0,0-3,3.28,3,3,0,1,0,6,0A3,3,0,0,0,378.29,38.14Zm0,8.4a5.14,5.14,0,1,1,5.11-5.12A5,5,0,0,1,378.29,46.54Z"/></clipPath><clipPath id="clip-path-63"><path class="cls-2" d="M386.82,38.21v3h1.72a1.42,1.42,0,0,0,1.61-1.5,1.44,1.44,0,0,0-1.61-1.5Zm0,8.16h-2.07V36.43h4a3.29,3.29,0,1,1,0,6.56h-1.92Z"/></clipPath><clipPath id="clip-path-64"><path class="cls-2" d="M395.64,38.35V44.5h1c2.24,0,3.41-1.13,3.41-3.08s-1.18-3.07-3.41-3.07Zm1.07,8h-3.14V36.43h3.14c3.39,0,5.43,1.83,5.43,5S400.13,46.37,396.71,46.37Z"/></clipPath></defs><title>site-icons-1</title><g id="Layer_2" data-name="Layer 2"><g id="Layer_1-2" data-name="Layer 1"><g class="cls-3"><g class="cls-4"><rect class="cls-5" x="558.86" y="8.82" width="65.35" height="65.35"/></g><g class="cls-6"><rect class="cls-7" x="571.39" y="26.42" width="40.29" height="38.13"/></g><g class="cls-8"><rect class="cls-9" x="581.55" y="32.83" width="14.45" height="17.31"/></g><g class="cls-10"><rect class="cls-9" x="592.89" y="32.6" width="14.2" height="17.78"/></g><g class="cls-11"><rect class="cls-9" x="575.99" y="32.83" width="6.79" height="17.31"/></g></g><g class="cls-12"><g class="cls-13"><rect class="cls-5" x="627.3" y="8.22" width="66.56" height="66.56"/></g><g class="cls-14"><rect class="cls-7" x="638.59" y="25.12" width="43.29" height="39.43"/></g><g class="cls-15"><rect class="cls-9" x="654.14" y="35.63" width="11.77" height="14.07"/></g><g class="cls-16"><rect class="cls-9" x="643.63" y="31.7" width="14.43" height="17.88"/></g><g class="cls-17"><rect class="cls-9" x="662.64" y="35.68" width="14.13" height="14.07"/></g></g><g class="cls-18"><g class="cls-19"><rect class="cls-5" x="66.71" width="79.45" height="79.45"/><g class="cls-20"><rect class="cls-7" x="86.04" y="24.26" width="40.44" height="39.5"/></g><g class="cls-21"><rect class="cls-9" x="91.79" y="30.2" width="18.01" height="18.34"/></g><g class="cls-22"><rect class="cls-9" x="107.46" y="30.2" width="14.66" height="18.4"/></g></g></g><g class="cls-23"><g class="cls-24"><rect class="cls-5" y="3.94" width="73.17" height="73.17"/></g><g class="cls-25"><rect class="cls-7" x="19.73" y="23.83" width="33.72" height="42.24"/></g><g class="cls-26"><rect class="cls-27" x="26.9" y="30.74" width="19.38" height="19.54"/></g></g><g class="cls-28"><g class="cls-29"><rect class="cls-5" x="146.53" y="11.98" width="57.09" height="57.09"/></g><g class="cls-30"><rect class="cls-7" x="154.93" y="25.08" width="40.37" height="39.43"/></g><g class="cls-31"><rect class="cls-9" x="161.6" y="31.24" width="15.05" height="17.89"/></g><g class="cls-32"><rect class="cls-9" x="172.84" y="31" width="17.48" height="18.13"/></g></g><g class="cls-33"><g class="cls-34"><rect class="cls-5" x="212.76" y="8.77" width="63.53" height="63.53"/></g><g class="cls-35"><rect class="cls-7" x="221.28" y="26.12" width="46.47" height="36.91"/></g><g class="cls-36"><rect class="cls-9" x="226.07" y="32.26" width="14.99" height="16.87"/></g><g class="cls-37"><rect class="cls-9" x="237.71" y="32.02" width="12.53" height="17.1"/></g><g class="cls-38"><rect class="cls-9" x="247.95" y="32.26" width="15.16" height="16.87"/></g></g><g class="cls-39"><g class="cls-40"><g class="cls-41"><rect class="cls-5" x="282.96" y="9.93" width="61.04" height="61.04"/></g></g><g class="cls-42"><g class="cls-43"><rect class="cls-7" x="288.56" y="28.2" width="49.81" height="29.73"/></g></g><g class="cls-44"><g class="cls-43"><rect class="cls-9" x="292.55" y="32.86" width="12.19" height="13.98"/></g></g><g class="cls-45"><g class="cls-43"><rect class="cls-9" x="302.71" y="32.86" width="10.56" height="13.98"/></g></g><g class="cls-46"><g class="cls-43"><rect class="cls-9" x="321.77" y="32.68" width="12.75" height="14.33"/></g></g><g class="cls-47"><g class="cls-43"><g class="cls-48"><g class="cls-49"><g class="cls-50"><rect class="cls-9" x="310.73" y="32.86" width="11.5" height="13.98"/></g></g></g></g></g></g><g class="cls-51"><g class="cls-52"><rect class="cls-5" x="488.95" y="8.35" width="66.28" height="66.28"/></g><g class="cls-53"><rect class="cls-27" x="511.88" y="30.36" width="18.82" height="19.52"/></g><g class="cls-54"><rect class="cls-7" x="504.4" y="23.55" width="33.78" height="42.27"/></g></g><g class="cls-55"><g class="cls-56"><rect class="cls-5" x="420.74" y="9.18" width="64.63" height="64.63"/></g><g class="cls-57"><rect class="cls-7" x="431.94" y="26.42" width="42.22" height="38.13"/></g><g class="cls-58"><rect class="cls-9" x="436.53" y="32.83" width="6.79" height="17.31"/></g><g class="cls-59"><rect class="cls-9" x="442.1" y="32.83" width="14.45" height="17.31"/></g><g class="cls-60"><rect class="cls-9" x="454.42" y="32.83" width="15.52" height="17.31"/></g></g><g class="cls-61"><g class="cls-62"><rect class="cls-5" x="351.69" y="9.92" width="63.01" height="63.01"/></g><g class="cls-63"><rect class="cls-7" x="358.26" y="29.77" width="49.81" height="29.73"/></g><g class="cls-64"><rect class="cls-9" x="362.18" y="34.26" width="12.72" height="14.3"/></g><g class="cls-65"><rect class="cls-9" x="371.19" y="34.26" width="14.22" height="14.3"/></g><g class="cls-66"><rect class="cls-9" x="382.74" y="34.42" width="11.49" height="13.97"/></g><g class="cls-67"><rect class="cls-9" x="391.56" y="34.42" width="12.59" height="13.97"/></g></g></g></g></svg>