<svg xmlns="http://www.w3.org/2000/svg" viewBox="0 0 80.27 80.27"><defs><style>.cls-1{fill:#2180ae;}.cls-2,.cls-3{fill:#fff;fill-rule:evenodd;}.cls-2{opacity:0.4;}.cls-3{opacity:0.8;isolation:isolate;}</style></defs><title>SLE</title><g id="Layer_2" data-name="Layer 2"><g id="Layer_1-2" data-name="Layer 1"><circle class="cls-1" cx="40.14" cy="40.14" r="40.14"/><path class="cls-2" d="M16.48,23.4a6.27,6.27,0,0,0-2.13,4.65V52.13A6.9,6.9,0,0,0,16.5,57a7.17,7.17,0,0,0,4.94,2.1h12V69.67L44.58,59.1H58.1A5.84,5.84,0,0,0,62.57,57a7.43,7.43,0,0,0,1.77-4.91V28.05a6.2,6.2,0,0,0-6.24-6.56H21.44A7.5,7.5,0,0,0,16.48,23.4ZM32,60.51H21.44A8.57,8.57,0,0,1,15.52,58a8.35,8.35,0,0,1-2.58-5.88V28.05a7.66,7.66,0,0,1,2.6-5.69,8.91,8.91,0,0,1,5.9-2.27H58.1a7.48,7.48,0,0,1,5.52,2.31,8.19,8.19,0,0,1,2.12,5.65V52.13A8.84,8.84,0,0,1,63.63,58a7.24,7.24,0,0,1-5.53,2.55h-13L32,72.93Z"/><path id="SLE" class="cls-3" d="M24.64,30.51c-3.92,0-6.42,2.33-6.42,5.6,0,2.68,1.41,4.57,6.13,5.59,2.7.52,3.52,1.11,3.52,2.18,0,1.34-1.09,2.06-3,2.06a7.45,7.45,0,0,1-5.14-2.13L17.67,47a10.72,10.72,0,0,0,7.07,2.43c4.3,0,6.9-2.36,6.9-5.86,0-2.8-1.49-4.51-6.2-5.51C22.71,37.5,22,37,22,35.94c0-1.34,1-2,2.61-2a6.85,6.85,0,0,1,4.44,1.59l2-3.12A10.5,10.5,0,0,0,24.64,30.51Zm13.18.32H34V49.07H45.59V45.74H37.82Zm21.54,0H47.57V49.07h12V45.62H51.37v-4.2h6.92v-3.2H51.37V34.28h8Z"/></g></g></svg>