<svg xmlns="http://www.w3.org/2000/svg" viewBox="0 0 552.41 132"><defs><style>.cls-1{fill:#045775;}.cls-2{fill:#002e3b;opacity:0.56;}.cls-3{fill:#fff;}.cls-4{fill:none;stroke:#045775;stroke-miterlimit:10;}</style></defs><title>survey</title><g id="Layer_2" data-name="Layer 2"><g id="Layer_1-2" data-name="Layer 1"><rect class="cls-1" width="552.41" height="25.32"/><rect class="cls-2" x="11.75" y="4.52" width="154.6" height="10.85"/><rect class="cls-1" x="11.75" y="31.64" width="154.6" height="10.85"/><rect class="cls-1" y="52.44" width="552.41" height="25.32"/><rect class="cls-1" y="106.68" width="552.41" height="25.32"/><rect class="cls-2" x="11.75" y="58.77" width="154.6" height="10.85"/><rect class="cls-1" x="11.75" y="85.89" width="154.6" height="10.85"/><rect class="cls-2" x="11.75" y="113.01" width="154.6" height="10.85"/><circle class="cls-3" cx="212.47" cy="12.66" r="6.33"/><circle class="cls-3" cx="291.35" cy="12.66" r="6.33"/><circle class="cls-3" cx="370.23" cy="12.66" r="6.33"/><circle class="cls-3" cx="449.12" cy="12.66" r="6.33"/><circle class="cls-3" cx="528" cy="12.66" r="6.33"/><circle class="cls-3" cx="212.47" cy="66" r="6.33"/><circle class="cls-3" cx="291.35" cy="66" r="6.33"/><circle class="cls-3" cx="370.23" cy="66" r="6.33"/><circle class="cls-3" cx="449.12" cy="66" r="6.33"/><circle class="cls-3" cx="528" cy="66" r="6.33"/><circle class="cls-3" cx="212.47" cy="118.44" r="6.33"/><circle class="cls-3" cx="291.35" cy="118.44" r="6.33"/><circle class="cls-3" cx="370.23" cy="118.44" r="6.33"/><circle class="cls-3" cx="449.12" cy="118.44" r="6.33"/><circle class="cls-3" cx="528" cy="118.44" r="6.33"/><circle class="cls-4" cx="212.47" cy="93.12" r="6.33"/><circle class="cls-4" cx="291.35" cy="93.12" r="6.33"/><circle class="cls-4" cx="370.23" cy="93.12" r="6.33"/><circle class="cls-4" cx="449.12" cy="93.12" r="6.33"/><circle class="cls-4" cx="528" cy="93.12" r="6.33"/><circle class="cls-4" cx="212.47" cy="39.78" r="6.33"/><circle class="cls-4" cx="291.35" cy="39.78" r="6.33"/><circle class="cls-4" cx="370.23" cy="39.78" r="6.33"/><circle class="cls-4" cx="449.12" cy="39.78" r="6.33"/><circle class="cls-4" cx="528" cy="39.78" r="6.33"/></g></g></svg>