<svg xmlns="http://www.w3.org/2000/svg" viewBox="0 0 137.32 78.74"><defs><style>.cls-1,.cls-2,.cls-3{fill:#fff;}.cls-1{opacity:0.48;}.cls-2{opacity:0.38;}.cls-3{opacity:0.27;}</style></defs><title>t-l</title><g id="Layer_2" data-name="Layer 2"><g id="Layer_1-2" data-name="Layer 1"><path class="cls-1" d="M17.44,78.74c20.93,0,32.38-17.34,32.38-32.37,0-.5,0-1,0-1.48A23.22,23.22,0,0,0,55.47,39a22.47,22.47,0,0,1-6.54,1.79,11.36,11.36,0,0,0,5-6.29,22.87,22.87,0,0,1-7.22,2.76A11.39,11.39,0,0,0,27,45.05a11.06,11.06,0,0,0,.3,2.59A32.31,32.31,0,0,1,3.86,35.75,11.39,11.39,0,0,0,7.38,50.94a11.36,11.36,0,0,1-5.15-1.42v.14a11.38,11.38,0,0,0,9.13,11.16,11.49,11.49,0,0,1-3,.4A10.71,10.71,0,0,1,6.22,61a11.38,11.38,0,0,0,10.63,7.91A22.86,22.86,0,0,1,2.71,73.79,22.15,22.15,0,0,1,0,73.63a32.21,32.21,0,0,0,17.44,5.11"/><path class="cls-2" d="M83.48,31.58c14.66,0,22.68-12.15,22.68-22.68,0-.35,0-.69,0-1a16.45,16.45,0,0,0,4-4.13A16,16,0,0,1,105.54,5,7.94,7.94,0,0,0,109,.58,15.83,15.83,0,0,1,104,2.52,8,8,0,0,0,90.19,8a8.32,8.32,0,0,0,.2,1.82A22.64,22.64,0,0,1,74,1.46,8,8,0,0,0,76.43,12.1a8,8,0,0,1-3.61-1v.1A8,8,0,0,0,79.21,19a7.66,7.66,0,0,1-2.1.28,8.29,8.29,0,0,1-1.5-.14,8,8,0,0,0,7.45,5.54,16,16,0,0,1-9.9,3.41,16.87,16.87,0,0,1-1.9-.11,22.54,22.54,0,0,0,12.22,3.58"/><path class="cls-3" d="M119.2,66.94a15.32,15.32,0,0,0,15.43-15.42c0-.24,0-.47,0-.7A11.14,11.14,0,0,0,137.32,48a10.83,10.83,0,0,1-3.12.85,5.45,5.45,0,0,0,2.39-3,10.64,10.64,0,0,1-3.44,1.32,5.43,5.43,0,0,0-9.38,3.71,5,5,0,0,0,.14,1.23,15.38,15.38,0,0,1-11.18-5.66,5.44,5.44,0,0,0,1.68,7.24A5.42,5.42,0,0,1,112,53v.07a5.42,5.42,0,0,0,4.35,5.31,5.15,5.15,0,0,1-1.43.19,5.69,5.69,0,0,1-1-.09,5.43,5.43,0,0,0,5.07,3.76,10.84,10.84,0,0,1-6.73,2.32,11.2,11.2,0,0,1-1.3-.07,15.33,15.33,0,0,0,8.31,2.43"/></g></g></svg>