<svg xmlns="http://www.w3.org/2000/svg" viewBox="0 0 125.68 78.92"><defs><style>.cls-1,.cls-2,.cls-3{fill:#fff;}.cls-1{opacity:0.48;}.cls-2{opacity:0.38;}.cls-3{opacity:0.27;}</style></defs><title>t-r</title><g id="Layer_2" data-name="Layer 2"><g id="Layer_1-2" data-name="Layer 1"><path class="cls-1" d="M16.06,41.49c19.26,0,29.8-16,29.8-29.8,0-.45,0-.91,0-1.35a21.6,21.6,0,0,0,5.23-5.43,20.65,20.65,0,0,1-6,1.65A10.58,10.58,0,0,0,49.65.77,21,21,0,0,1,43,3.31a10.48,10.48,0,0,0-17.85,9.55A29.75,29.75,0,0,1,3.55,1.92a10.47,10.47,0,0,0,3.25,14,10.32,10.32,0,0,1-4.75-1.31v.14A10.47,10.47,0,0,0,10.45,25a10.45,10.45,0,0,1-2.76.37,9.89,9.89,0,0,1-2-.19,10.49,10.49,0,0,0,9.79,7.28,21,21,0,0,1-13,4.48A22.85,22.85,0,0,1,0,36.79a29.67,29.67,0,0,0,16.06,4.7"/><path class="cls-2" d="M64.68,78.92c13.5,0,20.88-11.18,20.88-20.88,0-.32,0-.63,0-.95a14.86,14.86,0,0,0,3.66-3.8A14.58,14.58,0,0,1,85,54.45a7.37,7.37,0,0,0,3.23-4.06,14.77,14.77,0,0,1-4.66,1.78,7.34,7.34,0,0,0-12.7,5A7.7,7.7,0,0,0,71,58.86a20.82,20.82,0,0,1-15.12-7.67A7.33,7.33,0,0,0,58.19,61a7.29,7.29,0,0,1-3.32-.92.31.31,0,0,0,0,.1,7.34,7.34,0,0,0,5.89,7.19,7.19,7.19,0,0,1-1.93.26,7.69,7.69,0,0,1-1.38-.13,7.33,7.33,0,0,0,6.85,5.09,14.7,14.7,0,0,1-9.11,3.15,14.42,14.42,0,0,1-1.75-.11,20.7,20.7,0,0,0,11.25,3.3"/><path class="cls-3" d="M109,24.19A14.1,14.1,0,0,0,123.21,10c0-.21,0-.43,0-.64a10.22,10.22,0,0,0,2.49-2.59,9.78,9.78,0,0,1-2.86.79A5,5,0,0,0,125,4.79,9.88,9.88,0,0,1,121.84,6a5,5,0,0,0-8.63,3.41,4.69,4.69,0,0,0,.13,1.14,14.17,14.17,0,0,1-10.29-5.21A5,5,0,0,0,104.6,12a5,5,0,0,1-2.26-.62v.06a5,5,0,0,0,4,4.89,4.78,4.78,0,0,1-1.32.18,4.73,4.73,0,0,1-.93-.09,5,5,0,0,0,4.66,3.46,10,10,0,0,1-6.2,2.14,9.39,9.39,0,0,1-1.19-.07A14.09,14.09,0,0,0,109,24.19"/></g></g></svg>