<svg xmlns="http://www.w3.org/2000/svg" xmlns:xlink="http://www.w3.org/1999/xlink" viewBox="0 0 51.87 51.87"><defs><style>.cls-1{fill:#002e3b;}.cls-2,.cls-3,.cls-4,.cls-5{fill:#fff;}.cls-2,.cls-4{opacity:0.4;}.cls-2{clip-path:url(#clip-path);}.cls-2,.cls-3{clip-rule:evenodd;}.cls-3,.cls-5{opacity:0.8;}.cls-3{clip-path:url(#clip-path-2);}.cls-4,.cls-5{fill-rule:evenodd;}</style><clipPath id="clip-path"><circle class="cls-1" cx="25.93" cy="25.93" r="25.93"/></clipPath><clipPath id="clip-path-2"><path class="cls-2" d="M21.57,45.82V38.16H10.29a5.58,5.58,0,0,1-5.38-5.34v-15a4.63,4.63,0,0,1,1.66-3.52,5.77,5.77,0,0,1,3.72-1.38H42.67a4.59,4.59,0,0,1,3.41,1.41,5.07,5.07,0,0,1,1.28,3.49v15a5.81,5.81,0,0,1-1.26,3.69,4.38,4.38,0,0,1-3.43,1.65H29.76ZM10.29,13.87A4.79,4.79,0,0,0,7.19,15a3.71,3.71,0,0,0-1.33,2.81v15a4.38,4.38,0,0,0,1.35,3,4.46,4.46,0,0,0,3.08,1.35H22.52v6.43l6.87-6.43H42.67a3.4,3.4,0,0,0,2.7-1.31,4.93,4.93,0,0,0,1.05-3.09v-15a4.09,4.09,0,0,0-1-2.84,3.61,3.61,0,0,0-2.72-1.12Z"/></clipPath><clipPath id="clip-path-3"><polygon class="cls-3" points="20.67 21.42 16.52 21.42 16.52 31.91 13.84 31.91 13.84 21.42 9.7 21.42 9.7 19.07 20.67 19.07 20.67 21.42"/></clipPath></defs><title>T2D</title><g id="Layer_2" data-name="Layer 2"><g id="Layer_1-2" data-name="Layer 1"><circle class="cls-1" cx="25.93" cy="25.93" r="25.93"/><path class="cls-4" d="M21.57,45.82V38.16H10.29a5.58,5.58,0,0,1-5.38-5.34v-15a4.63,4.63,0,0,1,1.66-3.52,5.77,5.77,0,0,1,3.72-1.38H42.67a4.59,4.59,0,0,1,3.41,1.41,5.07,5.07,0,0,1,1.28,3.49v15a5.81,5.81,0,0,1-1.26,3.69,4.38,4.38,0,0,1-3.43,1.65H29.76ZM10.29,13.87A4.79,4.79,0,0,0,7.19,15a3.71,3.71,0,0,0-1.33,2.81v15a4.38,4.38,0,0,0,1.35,3,4.46,4.46,0,0,0,3.08,1.35H22.52v6.43l6.87-6.43H42.67a3.4,3.4,0,0,0,2.7-1.31,4.93,4.93,0,0,0,1.05-3.09v-15a4.09,4.09,0,0,0-1-2.84,3.61,3.61,0,0,0-2.72-1.12Z"/><polygon class="cls-5" points="20.67 21.42 16.52 21.42 16.52 31.91 13.84 31.91 13.84 21.42 9.7 21.42 9.7 19.07 20.67 19.07 20.67 21.42"/><path class="cls-5" d="M29.72,22.89a5.86,5.86,0,0,1-1.42,3.68l-2.24,3h3.78v2.31H21.56v-.1l4.58-6.56a3.81,3.81,0,0,0,1-2.44,1.55,1.55,0,0,0-1.63-1.68c-1,0-1.58.63-1.79,1.91l-2.34-.54c.47-2.47,1.89-3.68,4.13-3.68a4,4,0,0,1,4.25,4.06"/><path class="cls-5" d="M42.72,25.48c0,4.06-2.6,6.44-7,6.44h-4.1V19.07h4.1C40.08,19.07,42.72,21.42,42.72,25.48Zm-8.45-4v8H35.6c2.91,0,4.41-1.48,4.41-4s-1.52-4-4.41-4Z"/></g></g></svg>