<svg xmlns="http://www.w3.org/2000/svg" viewBox="0 0 814.02 500"><defs><style>.cls-1,.cls-3,.cls-7,.cls-9{fill:none;stroke-miterlimit:10;}.cls-1{stroke:#21aeab;stroke-width:16px;}.cls-2{fill:#fadf74;}.cls-3{stroke:#fff;stroke-dasharray:3 6;}.cls-3,.cls-9{stroke-width:3px;}.cls-4{fill:#e2c9e9;}.cls-5{fill:#045775;}.cls-6{fill:#92499c;}.cls-7{stroke:#34495e;stroke-width:4px;}.cls-8{fill:#fff;}.cls-9{stroke:#5cd2cc;}.cls-10{fill:#a663b9;}.cls-11{fill:#002e3b;}.cls-12{fill:#219694;}.cls-13{fill:#21aeab;}.cls-14{fill:#2180ae;}</style></defs><title>town</title><g id="Layer_2" data-name="Layer 2"><g id="Layer_1-2" data-name="Layer 1"><path class="cls-1" d="M0,227.44H103c28.45,0,51.51,23.69,51.51,52.91v52.92c0,29.22,23.06,52.91,51.51,52.91h51.52c28.45,0,51.51,23.69,51.51,52.91h0c0,29.22-23.06,52.91-51.51,52.91H0"/><ellipse class="cls-2" cx="63.32" cy="368.54" rx="17.17" ry="17.64"/><ellipse class="cls-2" cx="377.76" cy="456.73" rx="17.17" ry="17.64"/><ellipse class="cls-2" cx="618.16" cy="103.98" rx="17.17" ry="17.64"/><path class="cls-3" d="M814,462.79H650.89c-31.95,0-57.95-26.7-57.95-59.53V332.71c0-32.82,26-59.52,57.95-59.52h58c24.86,0,45.08-20.77,45.08-46.3V156.34c0-25.52-20.22-46.29-45.08-46.29H382.59c-24.85,0-45.07,20.77-45.07,46.29v70.55c0,25.53,20.22,46.3,45.07,46.3h58c31.95,0,57.95,26.7,57.95,59.52v70.55c0,32.83-26,59.53-57.95,59.53H114.3c-32,0-58-26.7-58-59.53V332.71c0-32.82,26-59.52,58-59.52h58c24.85,0,45.07-20.77,45.07-46.3V156.34c0-25.52-20.22-46.29-45.07-46.29H9.12"/><path class="cls-3" d="M9.12,96.82H172.25c31.95,0,57.95,26.7,57.95,59.52v70.55c0,32.82-26,59.53-57.95,59.53H114.3c-24.86,0-45.08,20.77-45.08,46.29v70.55c0,25.53,20.22,46.3,45.08,46.3H440.55c24.85,0,45.07-20.77,45.07-46.3V332.71c0-25.52-20.22-46.29-45.07-46.29h-58c-31.95,0-57.95-26.71-57.95-59.53V156.34c0-32.82,26-59.52,57.95-59.52H708.84c32,0,58,26.7,58,59.52v70.55c0,32.82-26,59.53-58,59.53h-58c-24.85,0-45.07,20.77-45.07,46.29v70.55c0,25.53,20.22,46.3,45.07,46.3H814"/><ellipse class="cls-4" cx="103.03" cy="103.98" rx="25.76" ry="26.46"/><ellipse class="cls-5" cx="103.03" cy="103.98" rx="8.59" ry="8.82"/><polygon class="cls-6" points="109.47 52.39 103.03 51.07 103.03 68.71 109.47 67.39 109.47 52.39"/><line class="cls-7" x1="103.03" y1="103.98" x2="103.03" y2="46.66"/><ellipse class="cls-8" cx="103.03" cy="103.98" rx="4.29" ry="4.41"/><path class="cls-9" d="M90.88,91.51a18,18,0,0,0,0,24.94"/><path class="cls-9" d="M115.17,116.45a18,18,0,0,0,0-24.94"/><path class="cls-4" d="M48.29,381.77V298H78.34v7.24l19.91,4.09a15.52,15.52,0,0,1,0,30.26l-19.91,4.09v38.1Z"/><polygon class="cls-10" points="94.44 315.63 63.32 315.63 63.32 333.27 94.44 333.27 85.86 324.45 94.44 315.63"/><ellipse class="cls-4" cx="63.32" cy="368.54" rx="25.76" ry="26.46"/><ellipse class="cls-5" cx="63.32" cy="368.54" rx="8.59" ry="8.82"/><rect class="cls-6" x="63.32" y="315.63" width="6.44" height="17.64"/><line class="cls-7" x1="63.32" y1="368.54" x2="63.32" y2="311.22"/><ellipse class="cls-8" cx="63.32" cy="368.54" rx="4.29" ry="4.41"/><path class="cls-9" d="M51.18,356.07a18,18,0,0,0,0,24.94"/><path class="cls-9" d="M75.46,381a18,18,0,0,0,0-24.94"/><path class="cls-11" d="M268.67,286.61l8.58-8.82a8.43,8.43,0,0,1,12.14,0l8.59,8.82a9,9,0,0,1,2.51,6.24v58.07H266.15V292.85A9,9,0,0,1,268.67,286.61Z"/><rect class="cls-11" x="266.15" y="275.21" width="17.17" height="8.82"/><path class="cls-5" d="M251.5,286.61l8.58-8.82a8.43,8.43,0,0,1,12.14,0l8.59,8.82a9,9,0,0,1,2.51,6.24v58.07H249V292.85A9,9,0,0,1,251.5,286.61Z"/><path class="cls-12" d="M279.77,315.65H252.54a8.48,8.48,0,0,0-6.07,2.58l-31.83,32.69h103l-31.83-32.69A8.49,8.49,0,0,0,279.77,315.65Z"/><path class="cls-13" d="M262.6,315.65H235.37a8.48,8.48,0,0,0-6.07,2.58l-31.83,32.69h103l-31.82-32.69A8.49,8.49,0,0,0,262.6,315.65Z"/><path class="cls-12" d="M563.09,421.45H544.45a8.48,8.48,0,0,0-6.07,2.58l-14.66,15.06h60.1L569.16,424A8.48,8.48,0,0,0,563.09,421.45Z"/><path class="cls-13" d="M545.92,421.45h-1.47a8.48,8.48,0,0,0-6.07,2.58l-14.66,15.06h42.93L552,424A8.48,8.48,0,0,0,545.92,421.45Z"/><line class="cls-3" x1="17.17" y1="156.89" x2="42.93" y2="156.89"/><line class="cls-3" x1="17.17" y1="279.8" x2="42.93" y2="279.8"/><line class="cls-3" x1="34.34" y1="456.73" x2="60.1" y2="456.73"/><line class="cls-3" x1="223.22" y1="421.45" x2="248.98" y2="421.45"/><line class="cls-3" x1="523.72" y1="386.18" x2="549.48" y2="386.18"/><line class="cls-3" x1="704.02" y1="421.45" x2="729.77" y2="421.45"/><line class="cls-3" x1="781.28" y1="350.9" x2="807.04" y2="350.9"/><line class="cls-3" x1="755.53" y1="315.29" x2="781.29" y2="315.29"/><line class="cls-3" x1="785.58" y1="209.81" x2="798.46" y2="209.81"/><line class="cls-3" x1="480.79" y1="492" x2="506.55" y2="492"/><line class="cls-3" x1="549.48" y1="492" x2="575.23" y2="492"/><line class="cls-3" x1="669.67" y1="492" x2="695.43" y2="492"/><line class="cls-3" x1="17.17" y1="421.45" x2="42.93" y2="421.45"/><line class="cls-3" x1="51.51" y1="192.17" x2="77.27" y2="192.17"/><line class="cls-3" x1="85.86" y1="156.89" x2="111.61" y2="156.89"/><line class="cls-3" x1="126.64" y1="15.32" x2="152.39" y2="15.32"/><line class="cls-3" x1="383.49" y1="51.07" x2="409.24" y2="51.07"/><line class="cls-3" x1="691.14" y1="51.07" x2="716.89" y2="51.07"/><line class="cls-3" x1="429.38" y1="15.46" x2="455.14" y2="15.46"/><line class="cls-3" x1="652.29" y1="15.46" x2="678.05" y2="15.46"/><line class="cls-3" x1="257.57" y1="156.89" x2="283.32" y2="156.89"/><line class="cls-3" x1="772.7" y1="121.62" x2="798.46" y2="121.62"/><line class="cls-3" x1="291.91" y1="121.62" x2="317.67" y2="121.62"/><rect class="cls-5" x="169.56" y="430.27" width="4.29" height="8.82"/><path class="cls-10" d="M189.78,425.86,179.4,415.2l-7.69,7.9L164,415.2l-10.38,10.66h0a5.44,5.44,0,0,0,5.29,4.41H184.5a5.43,5.43,0,0,0,5.28-4.41Z"/><path class="cls-10" d="M171.71,418.88l7.69-6.8,5.84,2.18a2.87,2.87,0,0,0,3.64-1.63h0l-12-12.58-5.19,5.32-5.19-5.32-12,12.31.05.14a2.87,2.87,0,0,0,3.68,1.72l5.75-2.14Z"/><path class="cls-10" d="M166.52,396.93l5.19,4.22,5.19-4.22,3.48,2.79a1.72,1.72,0,0,0,2.46-.31h0l-10.16-28.17a1.06,1.06,0,0,0-2,0l-10.86,28.19h0a1.49,1.49,0,0,0,2.23.67Z"/><rect class="cls-5" x="152.39" y="200.99" width="4.29" height="8.82"/><path class="cls-14" d="M172.61,196.58l-10.38-10.66-7.69,7.9-7.69-7.9-10.38,10.66h0a5.43,5.43,0,0,0,5.28,4.41h25.58a5.43,5.43,0,0,0,5.28-4.41Z"/><path class="cls-14" d="M154.54,189.6l7.69-6.8,5.84,2.17a2.85,2.85,0,0,0,3.64-1.62h0l-12-12.59-5.19,5.33-5.19-5.33-12,12.31,0,.15a2.87,2.87,0,0,0,3.68,1.72l5.75-2.14Z"/><path class="cls-14" d="M149.35,167.65l5.19,4.22,5.19-4.22,3.48,2.79a1.72,1.72,0,0,0,2.46-.32h0L155.51,142a1.06,1.06,0,0,0-2,0l-10.86,28.19h0a1.49,1.49,0,0,0,2.23.68Z"/><rect class="cls-5" x="203.91" y="59.89" width="4.29" height="8.82"/><path class="cls-14" d="M224.12,55.48,213.74,44.82l-7.69,7.9-7.69-7.9L188,55.48h0a5.42,5.42,0,0,0,5.28,4.41h25.57a5.43,5.43,0,0,0,5.28-4.41Z"/><path class="cls-14" d="M206.05,48.5l7.69-6.79,5.85,2.17a2.86,2.86,0,0,0,3.63-1.63h0l-12-12.58L206.05,35l-5.18-5.32L188.88,42l.06.14a2.85,2.85,0,0,0,3.67,1.72l5.75-2.13Z"/><path class="cls-14" d="M200.87,26.55l5.18,4.22,5.19-4.22,3.49,2.79a1.71,1.71,0,0,0,2.45-.31h0L207,.86a1.07,1.07,0,0,0-2,0L194.16,29h0a1.49,1.49,0,0,0,2.23.67Z"/><rect class="cls-5" x="255.42" y="95.16" width="4.29" height="8.82"/><path class="cls-14" d="M275.63,90.76,265.26,80.1,257.57,88l-7.69-7.9L239.5,90.76h0a5.43,5.43,0,0,0,5.28,4.4h25.57a5.42,5.42,0,0,0,5.28-4.4Z"/><path class="cls-14" d="M257.57,83.78l7.69-6.8,5.84,2.17a2.87,2.87,0,0,0,3.64-1.62h0l-12-12.59-5.18,5.33-5.19-5.33-12,12.31,0,.14a2.86,2.86,0,0,0,3.68,1.72L249.88,77Z"/><path class="cls-14" d="M252.38,61.82l5.19,4.23,5.18-4.23,3.49,2.79a1.71,1.71,0,0,0,2.45-.31h0L258.54,36.13a1.06,1.06,0,0,0-2,0L245.68,64.3h0a1.47,1.47,0,0,0,2.23.67Z"/><rect class="cls-5" x="701.87" y="359.72" width="4.29" height="8.82"/><path class="cls-5" d="M722.08,355.31l-10.37-10.65-7.69,7.9-7.7-7.9L686,355.31h0a5.42,5.42,0,0,0,5.28,4.41H716.8a5.42,5.42,0,0,0,5.28-4.41Z"/><path class="cls-5" d="M704,348.34l7.69-6.8,5.84,2.17a2.88,2.88,0,0,0,3.64-1.62h0l-12-12.59L704,334.83l-5.19-5.33-12,12.31.06.14a2.86,2.86,0,0,0,3.68,1.72l5.74-2.13Z"/><path class="cls-5" d="M698.83,326.38l5.19,4.23,5.18-4.23,3.49,2.79a1.71,1.71,0,0,0,2.45-.31h0L705,300.69a1.07,1.07,0,0,0-2,0l-10.86,28.19h0a1.49,1.49,0,0,0,2.24.67Z"/><rect class="cls-5" x="650.36" y="395" width="4.29" height="8.82"/><path class="cls-10" d="M670.57,390.59l-10.38-10.66-7.69,7.9-7.69-7.9-10.38,10.66h0a5.44,5.44,0,0,0,5.29,4.41h25.57a5.43,5.43,0,0,0,5.28-4.41Z"/><path class="cls-10" d="M652.5,383.61l7.69-6.8L666,379a2.84,2.84,0,0,0,3.63-1.62h0l-12-12.59-5.19,5.33-5.18-5.33-12,12.31.06.15a2.86,2.86,0,0,0,3.67,1.72l5.75-2.14Z"/><path class="cls-10" d="M647.32,361.66l5.18,4.22,5.19-4.22,3.49,2.79a1.71,1.71,0,0,0,2.45-.32h0L653.48,336a1.07,1.07,0,0,0-2,0l-10.86,28.19h0a1.49,1.49,0,0,0,2.23.68Z"/><rect class="cls-5" x="564.5" y="342.78" width="4.29" height="8.82"/><path class="cls-14" d="M584.71,338.37l-10.37-10.66-7.69,7.9-7.69-7.9-10.38,10.66h0a5.43,5.43,0,0,0,5.28,4.41h25.57a5.42,5.42,0,0,0,5.28-4.41Z"/><path class="cls-14" d="M566.65,331.39l7.69-6.79,5.84,2.17a2.87,2.87,0,0,0,3.64-1.63h0l-12-12.58-5.18,5.32-5.19-5.32-12,12.31,0,.14a2.86,2.86,0,0,0,3.68,1.72L559,324.6Z"/><path class="cls-14" d="M561.46,309.44l5.19,4.23,5.18-4.23,3.49,2.79a1.71,1.71,0,0,0,2.45-.31h0l-10.15-28.17a1.06,1.06,0,0,0-2,0l-10.86,28.19h0a1.48,1.48,0,0,0,2.23.67Z"/><path class="cls-4" d="M435.64,313.07a12.48,12.48,0,0,0,1.64-2.79l2.25-5.42-7.72-8.11,1.24-1.63-11.81-32.77a9.72,9.72,0,0,0-9.06-6.47,9.61,9.61,0,0,0-9,6.27l-12.15,31.53,1.29,3.16L385,304.35l2.07,5.51a11.73,11.73,0,0,0,1.77,3.13l-4.07,4.18.95,4.67a14.14,14.14,0,0,0,13.69,11.43H425a14.13,14.13,0,0,0,13.68-11.43l.95-4.67Z"/><rect class="cls-5" x="410.07" y="324.45" width="4.29" height="8.82"/><path class="cls-14" d="M430.28,320,419.9,309.38l-7.69,7.9-7.69-7.9L394.14,320h0a5.44,5.44,0,0,0,5.29,4.41H425a5.43,5.43,0,0,0,5.28-4.41Z"/><path class="cls-14" d="M412.21,313.06l7.69-6.8,5.85,2.17a2.84,2.84,0,0,0,3.63-1.62h0l-12-12.59-5.19,5.33L407,294.22l-12,12.31.06.15a2.86,2.86,0,0,0,3.67,1.72l5.75-2.14Z"/><path class="cls-14" d="M407,291.11l5.18,4.22,5.19-4.22,3.49,2.79a1.71,1.71,0,0,0,2.45-.32h0l-10.15-28.16a1.07,1.07,0,0,0-2,0l-10.86,28.19h0a1.49,1.49,0,0,0,2.23.68Z"/><rect class="cls-5" x="358.45" y="359.72" width="4.29" height="8.82"/><path class="cls-14" d="M378.66,355.31l-10.38-10.66-7.69,7.9-7.69-7.9-10.37,10.66h0a5.42,5.42,0,0,0,5.28,4.41h25.57a5.43,5.43,0,0,0,5.28-4.41Z"/><path class="cls-14" d="M360.59,348.33l7.69-6.79,5.85,2.17a2.86,2.86,0,0,0,3.63-1.63h0l-12-12.58-5.19,5.32-5.18-5.32-12,12.31.06.14a2.85,2.85,0,0,0,3.67,1.72l5.75-2.13Z"/><path class="cls-14" d="M355.41,326.38l5.18,4.22,5.19-4.22,3.49,2.79a1.71,1.71,0,0,0,2.45-.31h0l-10.15-28.17a1.07,1.07,0,0,0-2,0L348.7,328.86h0a1.48,1.48,0,0,0,2.23.67Z"/><rect class="cls-5" x="444.3" y="377.36" width="4.29" height="8.82"/><path class="cls-14" d="M464.52,373l-10.38-10.66-7.69,7.9-7.69-7.9L428.38,373h0a5.43,5.43,0,0,0,5.28,4.41h25.57a5.44,5.44,0,0,0,5.29-4.41Z"/><path class="cls-14" d="M446.45,366l7.69-6.8,5.84,2.17a2.85,2.85,0,0,0,3.64-1.62h0l-12-12.59-5.19,5.33-5.19-5.33-12,12.31.05.15a2.87,2.87,0,0,0,3.68,1.72l5.75-2.14Z"/><path class="cls-14" d="M441.26,344l5.19,4.22,5.19-4.22,3.48,2.79a1.72,1.72,0,0,0,2.46-.32h0l-10.16-28.16a1.06,1.06,0,0,0-2,0l-10.86,28.18h0a1.49,1.49,0,0,0,2.23.68Z"/><rect class="cls-5" x="49.37" y="59.75" width="4.29" height="8.82"/><path class="cls-14" d="M69.58,55.34,59.2,44.68l-7.69,7.9-7.69-7.9L33.45,55.34h0a5.42,5.42,0,0,0,5.28,4.41H64.3a5.43,5.43,0,0,0,5.28-4.41Z"/><path class="cls-14" d="M51.51,48.36l7.69-6.79,5.85,2.17a2.86,2.86,0,0,0,3.63-1.63h0l-12-12.58-5.19,5.32-5.18-5.32-12,12.31.06.14a2.85,2.85,0,0,0,3.67,1.72l5.75-2.13Z"/><path class="cls-14" d="M46.33,26.41l5.18,4.22,5.19-4.22,3.49,2.79a1.71,1.71,0,0,0,2.45-.31h0L52.49.72a1.07,1.07,0,0,0-2,0L39.62,28.89h0a1.49,1.49,0,0,0,2.23.67Z"/><rect class="cls-5" x="512.99" y="59.89" width="4.29" height="8.82"/><path class="cls-14" d="M533.2,55.48,522.82,44.82l-7.69,7.9-7.69-7.9L497.07,55.48h0a5.42,5.42,0,0,0,5.28,4.41h25.57a5.43,5.43,0,0,0,5.28-4.41Z"/><path class="cls-14" d="M515.13,48.5l7.69-6.79,5.85,2.17a2.86,2.86,0,0,0,3.63-1.63h0l-12-12.58L515.13,35,510,29.67,498,42l.06.14a2.85,2.85,0,0,0,3.67,1.72l5.75-2.13Z"/><path class="cls-14" d="M510,26.55l5.18,4.22,5.19-4.22,3.49,2.79a1.71,1.71,0,0,0,2.45-.31h0L516.11.86a1.07,1.07,0,0,0-2,0L503.24,29h0a1.49,1.49,0,0,0,2.23.67Z"/><rect class="cls-5" x="564.5" y="59.89" width="4.29" height="8.82"/><path class="cls-14" d="M584.71,55.48,574.34,44.82l-7.69,7.9L559,44.82,548.58,55.48h0a5.43,5.43,0,0,0,5.28,4.41h25.57a5.42,5.42,0,0,0,5.28-4.41Z"/><path class="cls-14" d="M566.65,48.5l7.69-6.79,5.84,2.17a2.87,2.87,0,0,0,3.64-1.63h0l-12-12.58L566.65,35l-5.19-5.32L549.48,42l0,.14a2.86,2.86,0,0,0,3.68,1.72L559,41.71Z"/><path class="cls-14" d="M561.46,26.55l5.19,4.22,5.18-4.22,3.49,2.79a1.71,1.71,0,0,0,2.45-.31h0L567.62.86a1.06,1.06,0,0,0-2,0L554.76,29h0a1.48,1.48,0,0,0,2.23.67Z"/><rect class="cls-5" x="753.38" y="77.53" width="4.29" height="8.82"/><path class="cls-14" d="M773.6,73.12,763.22,62.46l-7.69,7.9-7.69-7.9L737.46,73.12h0a5.43,5.43,0,0,0,5.28,4.41h25.57a5.44,5.44,0,0,0,5.29-4.41Z"/><path class="cls-14" d="M755.53,66.14l7.69-6.8,5.84,2.17a2.85,2.85,0,0,0,3.64-1.62h0l-12-12.59-5.19,5.33-5.19-5.33-12,12.31,0,.15a2.87,2.87,0,0,0,3.68,1.72l5.75-2.14Z"/><path class="cls-14" d="M750.34,44.19l5.19,4.22,5.19-4.22L764.2,47a1.72,1.72,0,0,0,2.46-.32h0L756.5,18.5a1.06,1.06,0,0,0-2,0L743.64,46.66h0a1.49,1.49,0,0,0,2.23.68Z"/><rect class="cls-5" x="324.1" y="59.89" width="4.29" height="8.82"/><path class="cls-5" d="M344.32,55.48,333.94,44.82l-7.69,7.9-7.69-7.9L308.18,55.48h0a5.44,5.44,0,0,0,5.29,4.41H339a5.43,5.43,0,0,0,5.28-4.41Z"/><path class="cls-5" d="M326.25,48.5l7.69-6.79,5.84,2.17a2.87,2.87,0,0,0,3.64-1.63h0l-12-12.58L326.25,35l-5.19-5.32L309.08,42l.05.14a2.86,2.86,0,0,0,3.68,1.72l5.75-2.13Z"/><path class="cls-5" d="M321.06,26.55l5.19,4.22,5.19-4.22,3.48,2.79a1.72,1.72,0,0,0,2.46-.31h0L327.22.86a1.06,1.06,0,0,0-2,0L314.36,29h0a1.49,1.49,0,0,0,2.23.67Z"/><rect class="cls-5" x="118.05" y="412.63" width="4.29" height="8.82"/><path class="cls-5" d="M138.27,408.22l-10.38-10.65-7.69,7.89-7.69-7.89-10.38,10.65h0a5.43,5.43,0,0,0,5.28,4.41H133a5.44,5.44,0,0,0,5.29-4.41Z"/><path class="cls-5" d="M120.2,401.24l7.69-6.79,5.84,2.17a2.87,2.87,0,0,0,3.64-1.62h0l-12-12.59-5.18,5.33L115,382.41l-12,12.31,0,.14a2.86,2.86,0,0,0,3.68,1.72l5.75-2.13Z"/><path class="cls-5" d="M115,379.29l5.19,4.23,5.18-4.23,3.49,2.79a1.71,1.71,0,0,0,2.45-.31h0L121.17,353.6a1.06,1.06,0,0,0-2,0l-10.86,28.19h0a1.48,1.48,0,0,0,2.23.67Z"/><path class="cls-4" d="M452.81,119.06a11.91,11.91,0,0,0,1.64-2.79l2.25-5.42L449,102.74l1.23-1.63L438.41,68.35a9.73,9.73,0,0,0-9.06-6.48,9.61,9.61,0,0,0-9,6.27L408.22,99.68l1.29,3.15-7.31,7.52,2.06,5.5A12,12,0,0,0,406,119L402,123.17l1,4.67a14.13,14.13,0,0,0,13.69,11.42h25.57a14.15,14.15,0,0,0,13.69-11.43l.94-4.66Z"/><rect class="cls-5" x="427.24" y="130.44" width="4.29" height="8.82"/><path class="cls-10" d="M447.45,126l-10.37-10.66-7.7,7.9-7.69-7.9L411.32,126h0a5.42,5.42,0,0,0,5.28,4.41h25.57a5.42,5.42,0,0,0,5.28-4.41Z"/><path class="cls-10" d="M429.38,119.05l7.7-6.79,5.84,2.17a2.87,2.87,0,0,0,3.64-1.63h0l-12-12.58-5.19,5.32-5.18-5.32-12,12.31.06.14a2.85,2.85,0,0,0,3.67,1.72l5.75-2.13Z"/><path class="cls-10" d="M424.2,97.1l5.18,4.22,5.19-4.22,3.49,2.79a1.71,1.71,0,0,0,2.45-.31h0L430.36,71.41a1.07,1.07,0,0,0-2,0L417.49,99.58h0a1.48,1.48,0,0,0,2.23.67Z"/><path class="cls-4" d="M316.59,205.4V121.62h30.05v7.23l19.91,4.09a15.52,15.52,0,0,1,0,30.27l-19.91,4.09v38.1Z"/><polygon class="cls-10" points="362.74 139.26 331.62 139.26 331.62 156.89 362.74 156.89 354.15 148.08 362.74 139.26"/><ellipse class="cls-4" cx="331.62" cy="192.17" rx="25.76" ry="26.46"/><ellipse class="cls-5" cx="331.62" cy="192.17" rx="8.59" ry="8.82"/><rect class="cls-6" x="331.62" y="139.26" width="6.44" height="17.64"/><line class="cls-7" x1="331.62" y1="192.17" x2="331.62" y2="134.85"/><ellipse class="cls-8" cx="331.62" cy="192.17" rx="4.29" ry="4.41"/><path class="cls-9" d="M319.48,179.7a18,18,0,0,0,0,24.94"/><path class="cls-9" d="M343.76,204.64a18,18,0,0,0,0-24.94"/><polygon class="cls-10" points="134.15 51.07 103.03 51.07 103.03 68.71 134.15 68.71 125.56 59.89 134.15 51.07"/><ellipse class="cls-5" cx="103.03" cy="103.98" rx="8.59" ry="8.82"/><rect class="cls-6" x="103.03" y="51.07" width="6.44" height="17.64"/><line class="cls-7" x1="103.03" y1="103.98" x2="103.03" y2="46.66"/><ellipse class="cls-4" cx="103.03" cy="103.98" rx="4.29" ry="4.41"/><path class="cls-9" d="M90.88,91.51a18,18,0,0,0,0,24.94"/><path class="cls-9" d="M115.17,116.45a18,18,0,0,0,0-24.94"/><polygon class="cls-10" points="649.28 51.07 618.16 51.07 618.16 68.71 649.28 68.71 640.7 59.89 649.28 51.07"/><ellipse class="cls-4" cx="618.16" cy="103.98" rx="25.76" ry="26.46"/><ellipse class="cls-5" cx="618.16" cy="103.98" rx="8.59" ry="8.82"/><rect class="cls-6" x="618.16" y="51.07" width="6.44" height="17.64"/><line class="cls-7" x1="618.16" y1="103.98" x2="618.16" y2="46.66"/><ellipse class="cls-8" cx="618.16" cy="103.98" rx="4.29" ry="4.41"/><path class="cls-9" d="M606,91.51a18,18,0,0,0,0,24.94"/><path class="cls-9" d="M630.3,116.45a18,18,0,0,0,0-24.94"/><polygon class="cls-10" points="408.89 403.81 377.76 403.81 377.76 421.45 408.89 421.45 400.3 412.63 408.89 403.81"/><ellipse class="cls-4" cx="377.76" cy="456.73" rx="25.76" ry="26.46"/><ellipse class="cls-5" cx="377.76" cy="456.73" rx="8.59" ry="8.82"/><rect class="cls-6" x="377.76" y="403.81" width="6.44" height="17.64"/><line class="cls-7" x1="377.76" y1="456.73" x2="377.76" y2="399.41"/><ellipse class="cls-8" cx="377.76" cy="456.73" rx="4.29" ry="4.41"/><path class="cls-9" d="M365.62,444.25a18,18,0,0,0,0,24.95"/><path class="cls-9" d="M389.91,469.2a18,18,0,0,0,0-24.95"/></g></g></svg>