<?xml version="1.0" encoding="UTF-8"?>
<svg width="500px" height="51px" viewBox="0 0 500 51" version="1.1" xmlns="http://www.w3.org/2000/svg" xmlns:xlink="http://www.w3.org/1999/xlink">
    <!-- Generator: Sketch 49.2 (51160) - http://www.bohemiancoding.com/sketch -->
    <title>masthead</title>
    <desc>Created with Sketch.</desc>
    <defs>
        <linearGradient x1="50%" y1="-38.3860728%" x2="50%" y2="100%" id="linearGradient-1">
            <stop stop-color="#62DECE" offset="0%"></stop>
            <stop stop-color="#69CDF6" offset="100%"></stop>
        </linearGradient>
    </defs>
    <g id="Page-1" stroke="none" stroke-width="1" fill="none" fill-rule="evenodd">
        <g id="skincancer.net" transform="translate(-56.000000, -128.000000)" fill="url(#linearGradient-1)">
            <g id="masthead" transform="translate(56.000000, 128.000000)">
                <path d="M0,50.4959987 L6.09313716,50.4959987 L7.77400258,45.0331861 C10.3653368,48.2548448 15.407933,50.6360708 21.1508899,50.6360708 C31.1660464,50.6360708 38.0996162,44.4028616 38.0996162,35.6483542 C38.0996162,25.6331977 29.8353612,23.1819356 22.3415029,21.3609981 C15.407933,19.6801327 10.2953007,18.6295918 10.2953007,14.0072119 C10.2953007,10.8555892 12.8165988,8.12418287 17.5090148,8.12418287 C23.4620799,8.12418287 26.8938468,11.2057695 29.8353612,18.8396999 L35.9985345,18.8396999 L35.9985345,2.45126207 L29.8353612,2.45126207 L28.364604,7.42382228 C25.983378,4.20216356 21.6411423,2.31118996 16.598546,2.31118996 C7.63393046,2.31118996 0.420216356,8.40432711 0.420216356,16.9487263 C0.420216356,27.2440271 8.96461559,29.8353612 16.52851,31.6562988 C23.5321159,33.4072003 28.2245319,34.4577412 28.2245319,38.7299408 C28.2245319,42.3718159 25.4230895,44.8230779 20.4505293,44.8230779 C13.026707,44.8230779 9.17472376,41.2512389 6.16317322,33.4072003 L0,33.4072003 L0,50.4959987 Z M74.7284752,22.5516111 L79.6309994,22.5516111 L79.6309994,16.7386182 L62.5422009,16.7386182 L62.5422009,22.481575 L67.7248693,22.481575 L56.729208,32.6368036 L56.729208,1.19061301 L41.6714553,1.19061301 L41.6714553,7.14367805 L46.4339073,7.14367805 L46.4339073,43.702501 L41.6714553,43.702501 L41.6714553,49.5154939 L60.231011,49.5154939 L60.231011,43.772537 L56.729208,43.772537 L56.729208,38.3797605 L60.9313716,34.5978133 L67.374689,43.772537 L63.7328139,43.772537 L63.7328139,49.5154939 L81.7320812,49.5154939 L81.7320812,43.702501 L78.2302782,43.702501 L67.4447251,29.1350007 L74.7284752,22.5516111 Z M93.9883915,11.9061301 C97.7003027,11.9061301 100.291637,9.31479588 100.291637,5.88302898 C100.291637,2.52129813 97.7703387,0 93.9883915,0 C90.2764804,0 87.7551823,2.66137025 87.7551823,6.09313716 C87.7551823,9.52490406 90.2064443,11.9061301 93.9883915,11.9061301 Z M84.0432711,49.5154939 L104.914017,49.5154939 L104.914017,43.702501 L99.5912763,43.702501 L99.5912763,16.7386182 L84.0432711,16.7386182 L84.0432711,22.5516111 L89.3660116,22.5516111 L89.3660116,43.702501 L84.0432711,43.702501 L84.0432711,49.5154939 Z M107.149049,49.5154939 L125.848677,49.5154939 L125.848677,43.702501 L122.206802,43.702501 L122.206802,30.8859021 C122.206802,26.1934862 125.218352,22.9017914 128.510047,22.9017914 C129.910768,22.9017914 130.961309,23.3220077 131.731706,24.0223683 C132.782247,25.0729092 133.202463,26.8238107 133.202463,28.9949285 L133.202463,43.702501 L129.490552,43.702501 L129.490552,49.5154939 L148.19018,49.5154939 L148.19018,43.702501 L143.497764,43.702501 L143.497764,27.5942074 C143.497764,20.8007096 140.556249,16.0382576 133.482607,16.0382576 C127.459506,16.0382576 123.887667,19.8202048 121.576477,25.3530535 L121.576477,16.7386182 L107.149049,16.7386182 L107.149049,22.5516111 L111.981537,22.5516111 L111.981537,43.702501 L107.149049,43.702501 L107.149049,49.5154939 Z M173.53099,50.6360708 C185.997409,50.6360708 192.790907,43.0021404 193.98152,31.0960103 L187.258058,31.0960103 C186.067445,38.7999768 182.07539,44.0526813 175.14182,44.0526813 C167.227745,44.0526813 162.395257,38.6599047 162.395257,26.053414 C162.395257,12.8866349 167.017637,8.05414682 173.601026,8.05414682 C179.414019,8.05414682 183.336039,12.3263464 186.137481,20.8007096 L193.071051,20.8007096 L193.071051,2.45126207 L186.767806,2.45126207 L185.297048,7.77400258 C182.495606,4.34223567 178.083334,2.31118996 172.200305,2.31118996 C160.154103,2.31118996 149.928838,12.3963825 149.928838,26.7537746 C149.928838,40.9710947 159.173598,50.6360708 173.53099,50.6360708 Z M206.295623,50.1458184 C211.128111,50.1458184 215.05013,48.1848088 217.151212,43.2122486 L217.501393,43.2122486 C218.061681,48.0447367 221.213304,50.1458184 225.205359,50.1458184 C229.897775,50.1458184 232.489109,47.6945564 233.819794,42.3017798 L230.388027,41.1812028 C229.757703,43.5624289 228.987306,44.3328255 228.21691,44.3328255 C227.096333,44.3328255 226.466008,43.9826452 226.466008,42.3718159 L226.466008,27.4541352 C226.466008,20.6606375 222.964205,16.0382576 213.089121,16.0382576 C205.034974,16.0382576 197.541116,18.909736 197.541116,24.9328371 C197.541116,27.5241713 199.292017,29.8353612 202.863856,29.8353612 C205.735335,29.8353612 207.836416,27.9443876 207.836416,25.4931256 C207.836416,23.8822962 207.206092,22.6916832 206.155551,21.9212866 C207.486236,21.3609981 208.956993,21.0808538 210.357714,21.0808538 C214.419806,21.0808538 216.380816,22.6216471 216.380816,26.8238107 L216.380816,29.6952891 C216.380816,30.5357218 216.030635,30.6057579 212.178652,31.1660464 C204.124505,32.2165873 200.762774,33.6173084 198.591657,35.7884263 C197.120899,37.2591835 196.280467,39.2902292 196.280467,41.4613471 C196.280467,46.7840876 200.48263,50.1458184 206.295623,50.1458184 Z M211.058075,44.1927534 C207.976488,44.1927534 206.715839,42.2317437 206.715839,39.9905898 C206.715839,36.8389672 208.256633,35.2281378 213.229193,34.3877051 C214.980094,34.0375248 215.750491,33.9674887 216.380816,33.8274166 L216.380816,37.0490754 C216.380816,41.2512389 214.209698,44.1927534 211.058075,44.1927534 Z M234.660227,49.5154939 L253.359855,49.5154939 L253.359855,43.702501 L249.71798,43.702501 L249.71798,30.8859021 C249.71798,26.1934862 252.72953,22.9017914 256.021225,22.9017914 C257.421946,22.9017914 258.472487,23.3220077 259.242884,24.0223683 C260.293425,25.0729092 260.713641,26.8238107 260.713641,28.9949285 L260.713641,43.702501 L257.00173,43.702501 L257.00173,49.5154939 L275.701358,49.5154939 L275.701358,43.702501 L271.008942,43.702501 L271.008942,27.5942074 C271.008942,20.8007096 268.067427,16.0382576 260.993785,16.0382576 C254.970684,16.0382576 251.398845,19.8202048 249.087655,25.3530535 L249.087655,16.7386182 L234.660227,16.7386182 L234.660227,22.5516111 L239.492715,22.5516111 L239.492715,43.702501 L234.660227,43.702501 L234.660227,49.5154939 Z M295.057146,50.2158545 C303.321401,50.2158545 308.223925,45.3133303 309.764718,38.2396884 L304.301906,38.2396884 C302.971221,42.0216356 300.379886,44.2627895 296.597939,44.2627895 C291.135127,44.2627895 288.333684,39.7804817 288.333684,32.9169479 C288.333684,25.3530535 291.765451,21.0108178 296.387831,21.0108178 C299.119237,21.0108178 300.800103,21.9913226 301.780608,23.2519717 C300.30985,23.8122602 298.839093,25.4230895 298.839093,27.6642434 C298.839093,30.3256137 300.660031,32.6368036 304.091798,32.6368036 C307.733673,32.6368036 309.694682,30.1155055 309.694682,26.6137025 C309.694682,21.6411423 304.862194,15.9682215 295.407326,15.9682215 C284.761845,15.9682215 277.338023,23.1118996 277.338023,33.6873445 C277.338023,43.5624289 283.921412,50.2158545 295.057146,50.2158545 Z M346.253505,34.4577412 C346.743758,23.8122602 341.561089,15.9682215 330.495392,15.9682215 C320.620308,15.9682215 313.266521,23.4620799 313.266521,33.4072003 C313.266521,43.4923928 319.919947,50.2158545 330.845572,50.2158545 C340.020296,50.2158545 344.642676,45.7335467 345.903325,38.8700129 L340.440512,38.8700129 C338.969755,43.0021404 336.518493,44.6129698 332.596474,44.6129698 C327.413805,44.6129698 324.332219,42.0916716 323.912002,34.4577412 L346.253505,34.4577412 Z M330.285284,20.7306735 C334.067231,20.7306735 335.888168,23.3920438 336.238349,30.0454694 L323.982038,30.0454694 C324.402255,23.0418635 326.643409,20.7306735 330.285284,20.7306735 Z M348.940711,49.5154939 L370.091601,49.5154939 L370.091601,43.702501 L363.998464,43.702501 L363.998464,29.2750728 C365.189077,25.2129813 367.500267,23.1118996 369.391241,22.9718274 C369.391241,23.1819356 369.321204,23.3920438 369.321204,23.5321159 C369.321204,26.7537746 371.70243,28.5046761 374.784017,28.5046761 C377.795568,28.5046761 380.24683,25.983378 380.24683,22.481575 C380.24683,19.0498081 377.655496,16.0382576 373.593404,16.0382576 C369.111096,16.0382576 365.329149,19.0498081 363.368139,25.1429453 L363.368139,16.7386182 L348.940711,16.7386182 L348.940711,22.5516111 L353.773199,22.5516111 L353.773199,43.702501 L348.940711,43.702501 L348.940711,49.5154939 Z M383.252259,50.7061069 C386.824098,50.7061069 389.555504,47.9046645 389.555504,44.4728976 C389.555504,41.0411307 386.824098,38.3097244 383.322295,38.3097244 C379.750456,38.3097244 377.019049,41.0411307 377.019049,44.5429337 C377.019049,47.9747006 379.750456,50.7061069 383.252259,50.7061069 Z M395.622805,49.5154939 L414.322433,49.5154939 L414.322433,43.702501 L410.680558,43.702501 L410.680558,30.8859021 C410.680558,26.1934862 413.692109,22.9017914 416.983804,22.9017914 C418.384525,22.9017914 419.435066,23.3220077 420.205462,24.0223683 C421.256003,25.0729092 421.67622,26.8238107 421.67622,28.9949285 L421.67622,43.702501 L417.964308,43.702501 L417.964308,49.5154939 L436.663936,49.5154939 L436.663936,43.702501 L431.97152,43.702501 L431.97152,27.5942074 C431.97152,20.8007096 429.030006,16.0382576 421.956364,16.0382576 C415.933263,16.0382576 412.361424,19.8202048 410.050234,25.3530535 L410.050234,16.7386182 L395.622805,16.7386182 L395.622805,22.5516111 L400.455294,22.5516111 L400.455294,43.702501 L395.622805,43.702501 L395.622805,49.5154939 Z M470.82929,34.4577412 C471.319543,23.8122602 466.136874,15.9682215 455.071177,15.9682215 C445.196092,15.9682215 437.842306,23.4620799 437.842306,33.4072003 C437.842306,43.4923928 444.495732,50.2158545 455.421357,50.2158545 C464.596081,50.2158545 469.218461,45.7335467 470.47911,38.8700129 L465.016297,38.8700129 C463.54554,43.0021404 461.094278,44.6129698 457.172259,44.6129698 C451.98959,44.6129698 448.908004,42.0916716 448.487787,34.4577412 L470.82929,34.4577412 Z M454.861069,20.7306735 C458.643016,20.7306735 460.463953,23.3920438 460.814134,30.0454694 L448.557823,30.0454694 C448.97804,23.0418635 451.219194,20.7306735 454.861069,20.7306735 Z M477.788696,9.38483194 L477.788696,17.0887985 L471.765595,17.0887985 L471.765595,22.5516111 L477.578588,22.5516111 L477.578588,39.010085 C477.578588,46.5039434 481.080391,50.2158545 488.224069,50.2158545 C494.807458,50.2158545 498.239225,46.7840876 499.780018,38.7999768 L495.577855,37.6093638 C494.317206,42.1617077 493.336701,43.772537 491.235619,43.772537 C488.854393,43.772537 487.803852,42.0916716 487.803852,39.0801211 L487.803852,22.5516111 L498.309261,22.5516111 L498.309261,17.0887985 L487.803852,17.0887985 L487.803852,8.19421893 L477.788696,9.38483194 Z" id="SkinCancer.net"></path>
            </g>
        </g>
    </g>
</svg>