<?xml version="1.0" encoding="UTF-8"?>
<svg width="393px" height="41px" viewBox="0 0 393 41" version="1.1" xmlns="http://www.w3.org/2000/svg" xmlns:xlink="http://www.w3.org/1999/xlink">
    <!-- Generator: Sketch 49.3 (51167) - http://www.bohemiancoding.com/sketch -->
    <title>1</title>
    <desc>Created with Sketch.</desc>
    <defs>
        <linearGradient x1="50%" y1="-38.3860728%" x2="50%" y2="100%" id="linearGradient-1">
            <stop stop-color="#62DECE" offset="0%"></stop>
            <stop stop-color="#69CDF6" offset="100%"></stop>
        </linearGradient>
    </defs>
    <g id="Page-1" stroke="none" stroke-width="1" fill="none" fill-rule="evenodd">
        <g id="1" transform="translate(0.000000, 0.453809)" fill="url(#linearGradient-1)">
            <path d="M0,39.7053222 L4.79107217,39.7053222 L6.11274725,35.4098782 C8.15032967,37.9430888 12.1153549,39.8154618 16.6310781,39.8154618 C24.5060588,39.8154618 29.9579685,34.9142501 29.9579685,28.0305257 C29.9579685,20.155545 23.4597327,18.2281022 17.5672646,16.7962875 C12.1153549,15.4746124 8.09525988,14.6485655 8.09525988,11.013959 C8.09525988,8.53581824 10.0777725,6.38809623 13.7674488,6.38809623 C18.4483813,6.38809623 21.1468013,8.81116721 23.4597327,14.8137749 L28.3058747,14.8137749 L28.3058747,1.92744283 L23.4597327,1.92744283 L22.303267,5.83739828 C20.430894,3.3041877 17.0165667,1.81730324 13.0515414,1.81730324 C6.00260766,1.81730324 0.33041877,6.60837541 0.33041877,13.3268904 C0.33041877,21.4221503 7.04893377,23.4597327 12.9964716,24.8915474 C18.5034511,26.2682922 22.1931274,27.0943392 22.1931274,30.4535967 C22.1931274,33.317226 19.9903356,35.2446688 16.0803802,35.2446688 C10.2429819,35.2446688 7.21414315,32.4361093 4.84614197,26.2682922 L0,26.2682922 L0,39.7053222 Z M58.7594713,17.732474 L62.614357,17.732474 L62.614357,13.161681 L49.177327,13.161681 L49.177327,17.6774042 L53.2524918,17.6774042 L44.606534,25.6625245 L44.606534,0.936186516 L32.7665281,0.936186516 L32.7665281,5.6171191 L36.5112741,5.6171191 L36.5112741,34.3635521 L32.7665281,34.3635521 L32.7665281,38.9343451 L47.3600238,38.9343451 L47.3600238,34.4186219 L44.606534,34.4186219 L44.606534,30.1782477 L47.9107217,27.2044788 L52.9771429,34.4186219 L50.1135135,34.4186219 L50.1135135,38.9343451 L64.2664508,38.9343451 L64.2664508,34.3635521 L61.5129611,34.3635521 L53.0322127,22.9090347 L58.7594713,17.732474 Z M73.903665,9.36186516 C76.8223641,9.36186516 78.8599465,7.32428274 78.8599465,4.62586279 C78.8599465,1.98251262 76.8774339,0 73.903665,0 C70.9849658,0 69.0024532,2.09265221 69.0024532,4.79107217 C69.0024532,7.48949213 70.929896,9.36186516 73.903665,9.36186516 Z M66.0837541,38.9343451 L82.494553,38.9343451 L82.494553,34.3635521 L78.3092486,34.3635521 L78.3092486,13.161681 L66.0837541,13.161681 L66.0837541,17.732474 L70.2690585,17.732474 L70.2690585,34.3635521 L66.0837541,34.3635521 L66.0837541,38.9343451 Z M84.2519731,38.9343451 L98.9556084,38.9343451 L98.9556084,34.3635521 L96.091979,34.3635521 L96.091979,24.2857796 C96.091979,20.5961034 98.4599802,18.007823 101.048261,18.007823 C102.149656,18.007823 102.975703,18.3382418 103.581471,18.8889397 C104.407518,19.7149866 104.737937,21.0917315 104.737937,22.7988952 L104.737937,34.3635521 L101.819238,34.3635521 L101.819238,38.9343451 L116.522873,38.9343451 L116.522873,34.3635521 L112.833197,34.3635521 L112.833197,21.6974993 C112.833197,16.3557291 110.520265,12.6109831 104.958216,12.6109831 C100.222214,12.6109831 97.4136541,15.584752 95.5963509,19.9352658 L95.5963509,13.161681 L84.2519731,13.161681 L84.2519731,17.732474 L88.0517889,17.732474 L88.0517889,34.3635521 L84.2519731,34.3635521 L84.2519731,38.9343451 Z M136.448512,39.8154618 C146.250936,39.8154618 151.592706,33.8128542 152.528892,24.450989 L147.242192,24.450989 C146.306005,30.5086665 143.167027,34.6389011 137.715117,34.6389011 C131.49223,34.6389011 127.692415,30.3985269 127.692415,20.4859638 C127.692415,10.1328423 131.327021,6.33302643 136.503582,6.33302643 C141.074375,6.33302643 144.158283,9.69228393 146.361075,16.3557291 L151.812985,16.3557291 L151.812985,1.92744283 L146.856703,1.92744283 L145.700238,6.11274725 C143.497446,3.41432729 140.028049,1.81730324 135.402186,1.81730324 C125.930181,1.81730324 117.889991,9.74735373 117.889991,21.0366617 C117.889991,32.2158301 125.159204,39.8154618 136.448512,39.8154618 Z M162.211549,39.4299733 C166.011365,39.4299733 169.095274,37.888019 170.747368,33.9780636 L171.022717,33.9780636 C171.463275,37.7778794 173.941416,39.4299733 177.080394,39.4299733 C180.77007,39.4299733 182.807653,37.5025304 183.853979,33.2621562 L181.155559,32.3810395 C180.659931,34.2534125 180.054163,34.8591803 179.448395,34.8591803 C178.567278,34.8591803 178.07165,34.5838313 178.07165,33.317226 L178.07165,21.5873597 C178.07165,16.2455895 175.318161,12.6109831 167.553319,12.6109831 C161.220293,12.6109831 155.327825,14.8688447 155.327825,19.604847 C155.327825,21.6424295 156.70457,23.4597327 159.513129,23.4597327 C161.770991,23.4597327 163.423085,21.9728482 163.423085,20.0454054 C163.423085,18.7788001 162.927457,17.8426136 162.10141,17.2368459 C163.147736,16.7962875 164.304202,16.5760083 165.405597,16.5760083 C168.599646,16.5760083 170.1416,17.7875438 170.1416,21.0917315 L170.1416,23.3495931 C170.1416,24.0104307 169.866251,24.0655004 166.837412,24.5060588 C160.504386,25.3321057 157.861036,26.4335016 156.153872,28.1406653 C154.997406,29.297131 154.336569,30.894155 154.336569,32.6013187 C154.336569,36.7866231 157.640756,39.4299733 162.211549,39.4299733 Z M165.956295,34.7490407 C163.533224,34.7490407 162.541968,33.2070864 162.541968,31.444853 C162.541968,28.9667122 163.753504,27.7001069 167.663459,27.0392694 C169.040204,26.7639204 169.645972,26.7088506 170.1416,26.598711 L170.1416,29.1319216 C170.1416,32.4361093 168.434436,34.7490407 165.956295,34.7490407 Z M184.514816,38.9343451 L199.218452,38.9343451 L199.218452,34.3635521 L196.354822,34.3635521 L196.354822,24.2857796 C196.354822,20.5961034 198.722823,18.007823 201.311104,18.007823 C202.4125,18.007823 203.238547,18.3382418 203.844314,18.8889397 C204.670361,19.7149866 205.00078,21.0917315 205.00078,22.7988952 L205.00078,34.3635521 L202.082081,34.3635521 L202.082081,38.9343451 L216.785716,38.9343451 L216.785716,34.3635521 L213.09604,34.3635521 L213.09604,21.6974993 C213.09604,16.3557291 210.783109,12.6109831 205.221059,12.6109831 C200.485057,12.6109831 197.676497,15.584752 195.859194,19.9352658 L195.859194,13.161681 L184.514816,13.161681 L184.514816,17.732474 L188.314632,17.732474 L188.314632,34.3635521 L184.514816,34.3635521 L184.514816,38.9343451 Z M232.005295,39.4850431 C238.50353,39.4850431 242.358416,35.6301574 243.569951,30.0681081 L239.274507,30.0681081 C238.228181,33.041877 236.190599,34.8041105 233.21683,34.8041105 C228.921386,34.8041105 226.718594,31.2796436 226.718594,25.8828037 C226.718594,19.9352658 229.417014,16.5209385 233.051621,16.5209385 C235.199343,16.5209385 236.521018,17.2919157 237.291995,18.283172 C236.135529,18.7237303 234.979063,19.9903356 234.979063,21.7525691 C234.979063,23.8452213 236.410878,25.6625245 239.109298,25.6625245 C241.972927,25.6625245 243.514882,23.6800119 243.514882,20.9265221 C243.514882,17.0165667 239.715066,12.5559133 232.280644,12.5559133 C223.910035,12.5559133 218.072636,18.1730324 218.072636,26.4885714 C218.072636,34.2534125 223.249197,39.4850431 232.005295,39.4850431 Z M272.261315,27.0943392 C272.646803,18.7237303 268.571638,12.5559133 259.870611,12.5559133 C252.10577,12.5559133 246.323441,18.4483813 246.323441,26.2682922 C246.323441,34.1983427 251.555072,39.4850431 260.14596,39.4850431 C267.360103,39.4850431 270.994709,35.9605762 271.985966,30.5637363 L267.690522,30.5637363 C266.534056,33.8128542 264.606613,35.0794595 261.522705,35.0794595 C257.44754,35.0794595 255.024469,33.0969468 254.69405,27.0943392 L272.261315,27.0943392 Z M259.705401,16.3006593 C262.67917,16.3006593 264.110985,18.3933116 264.386334,23.6249421 L254.74912,23.6249421 C255.079539,18.1179626 256.841772,16.3006593 259.705401,16.3006593 Z M274.374282,38.9343451 L291.00536,38.9343451 L291.00536,34.3635521 L286.214288,34.3635521 L286.214288,23.0191743 C287.150474,19.8251262 288.967777,18.1730324 290.454662,18.0628928 C290.454662,18.2281022 290.399592,18.3933116 290.399592,18.5034511 C290.399592,21.0366617 292.271965,22.4134066 294.695036,22.4134066 C297.063037,22.4134066 298.99048,20.430894 298.99048,17.6774042 C298.99048,14.9789843 296.952898,12.6109831 293.75885,12.6109831 C290.234383,12.6109831 287.260614,14.9789843 285.71866,19.7700564 L285.71866,13.161681 L274.374282,13.161681 L274.374282,17.732474 L278.174098,17.732474 L278.174098,34.3635521 L274.374282,34.3635521 L274.374282,38.9343451 Z M301.353668,39.8705316 C304.162228,39.8705316 306.30995,37.6677398 306.30995,34.9693199 C306.30995,32.2708999 304.162228,30.1231779 301.408738,30.1231779 C298.600178,30.1231779 296.452456,32.2708999 296.452456,35.0243897 C296.452456,37.7228096 298.600178,39.8705316 301.353668,39.8705316 Z M311.080707,38.9343451 L325.784342,38.9343451 L325.784342,34.3635521 L322.920713,34.3635521 L322.920713,24.2857796 C322.920713,20.5961034 325.288714,18.007823 327.876994,18.007823 C328.97839,18.007823 329.804437,18.3382418 330.410205,18.8889397 C331.236252,19.7149866 331.566671,21.0917315 331.566671,22.7988952 L331.566671,34.3635521 L328.647971,34.3635521 L328.647971,38.9343451 L343.351607,38.9343451 L343.351607,34.3635521 L339.661931,34.3635521 L339.661931,21.6974993 C339.661931,16.3557291 337.348999,12.6109831 331.78695,12.6109831 C327.050947,12.6109831 324.242388,15.584752 322.425085,19.9352658 L322.425085,13.161681 L311.080707,13.161681 L311.080707,17.732474 L314.880523,17.732474 L314.880523,34.3635521 L311.080707,34.3635521 L311.080707,38.9343451 Z M370.21604,27.0943392 C370.601529,18.7237303 366.526364,12.5559133 357.825336,12.5559133 C350.060495,12.5559133 344.278167,18.4483813 344.278167,26.2682922 C344.278167,34.1983427 349.509797,39.4850431 358.100685,39.4850431 C365.314828,39.4850431 368.949435,35.9605762 369.940691,30.5637363 L365.645247,30.5637363 C364.488781,33.8128542 362.561338,35.0794595 359.47743,35.0794595 C355.402265,35.0794595 352.979194,33.0969468 352.648775,27.0943392 L370.21604,27.0943392 Z M357.660127,16.3006593 C360.633896,16.3006593 362.06571,18.3933116 362.341059,23.6249421 L352.703845,23.6249421 C353.034264,18.1179626 354.796497,16.3006593 357.660127,16.3006593 Z M375.688265,7.37935254 L375.688265,13.43703 L370.952262,13.43703 L370.952262,17.732474 L375.523055,17.732474 L375.523055,30.6738759 C375.523055,36.5663439 378.276545,39.4850431 383.893664,39.4850431 C389.070225,39.4850431 391.768645,36.7866231 392.98018,30.5086665 L389.675992,29.57248 C388.684736,33.1520166 387.913759,34.4186219 386.261665,34.4186219 C384.389292,34.4186219 383.563245,33.0969468 383.563245,30.7289456 L383.563245,17.732474 L391.823714,17.732474 L391.823714,13.43703 L383.563245,13.43703 L383.563245,6.44316602 L375.688265,7.37935254 Z" id="SkinCancer.net"></path>
        </g>
    </g>
</svg>