<?xml version="1.0" encoding="UTF-8"?>
<svg width="500px" height="67px" viewBox="0 0 500 67" version="1.1" xmlns="http://www.w3.org/2000/svg" xmlns:xlink="http://www.w3.org/1999/xlink">
    <!-- Generator: Sketch 49.2 (51160) - http://www.bohemiancoding.com/sketch -->
    <title>masthead</title>
    <desc>Created with Sketch.</desc>
    <defs>
        <linearGradient x1="50%" y1="0%" x2="50%" y2="100%" id="linearGradient-1">
            <stop stop-color="#4CB8DD" offset="0%"></stop>
            <stop stop-color="#379EC1" offset="100%"></stop>
        </linearGradient>
    </defs>
    <g id="Page-1" stroke="none" stroke-width="1" fill="none" fill-rule="evenodd">
        <g id="hepatitisc.net" transform="translate(-56.000000, -125.000000)" fill="url(#linearGradient-1)">
            <g id="masthead" transform="translate(56.000000, 125.000000)">
                <polygon id="Shape-15" points="32.222961 4.11110492 32.222961 10.7583556 39.0857208 10.7583556 39.0857208 25.1219303 19.4875093 25.1219303 19.4875093 10.7583556 26.2747131 10.7583556 26.2747131 4.11110492 0.195085444 4.11110492 0.195085444 10.7583556 7.05855802 10.7583556 7.05855802 47.7374368 0.195085444 47.7374368 0.195085444 54.3839734 26.2747131 54.3839734 26.2747131 47.7374368 19.4875093 47.7374368 19.4875093 31.5399408 39.0857208 31.5399408 39.0857208 47.7374368 32.222961 47.7374368 32.222961 54.3839734 58.3795702 54.3839734 58.3795702 47.7374368 51.5160976 47.7374368 51.5160976 10.7583556 58.3795702 10.7583556 58.3795702 4.11110492 32.222961 4.11110492"></polygon>
                <path d="M58.6582718,36.8124646 C58.6582718,47.8138502 65.9023752,55.1481072 77.7988709,55.1481072 C87.7879357,55.1481072 92.8216716,50.2590786 94.1930831,42.7712807 L88.2448352,42.7712807 C86.6446176,47.2796706 83.9759249,49.0364644 79.7041635,49.0364644 C74.0617033,49.0364644 70.7065921,46.2855824 70.2489798,37.9579513 L94.5751395,37.9579513 C95.1097334,26.3445445 89.4651349,17.7876732 77.4161017,17.7876732 C66.6643496,17.7876732 58.6582718,25.9631917 58.6582718,36.8124646 L58.6582718,36.8124646 Z M77.1872955,22.9823554 C81.3065195,22.9823554 83.2880808,25.8867783 83.6701373,33.1439078 L70.3252485,33.1439078 C70.7835737,25.5039972 73.2234601,22.9823554 77.1872955,22.9823554 L77.1872955,22.9823554 Z" id="Shape-16"></path>
                <path d="M110.654298,27.032265 L110.654298,18.6289347 L94.9450785,18.6289347 L94.9450785,24.9691035 L100.130639,24.9691035 L100.130639,60.3435035 L94.9450785,60.3435035 L94.9450785,66.6851007 L117.899114,66.6851007 L117.899114,60.3435035 L111.340716,60.3435035 L111.340716,48.4251573 C113.170453,51.8630457 116.830639,54.3839734 122.093181,54.3839734 C125.753367,54.3839734 128.727135,52.932119 131.320271,50.335492 C134.522132,47.1261297 136.352582,42.1599736 136.352582,35.8947898 C136.352582,29.8588462 134.751651,24.8169909 131.472096,21.5319293 C129.184747,19.2388135 126.286535,17.7876732 122.550793,17.7876732 C116.678814,17.7876732 112.789109,21.3783884 110.654298,27.032265 L110.654298,27.032265 Z M110.654298,36.7353371 C110.654298,30.1652139 113.551797,24.8926901 117.97467,24.8926901 C122.245006,24.8926901 124.303549,28.636232 124.303549,36.0483307 C124.303549,43.9167674 122.397543,48.195203 118.127207,48.195203 C113.017915,48.195203 110.654298,43.1526335 110.654298,36.7353371 L110.654298,36.7353371 Z" id="Shape-12"></path>
                <path d="M140.325683,27.5671587 C140.325683,30.39374 142.231689,32.9146677 146.120681,32.9146677 C149.247699,32.9146677 151.535048,30.8529344 151.535048,28.1784658 C151.535048,26.4209579 150.848629,25.1219303 149.705311,24.281383 C151.154417,23.6700759 152.755347,23.3658506 154.280009,23.3658506 C158.703595,23.3658506 160.838407,25.046231 160.838407,29.6303202 L160.838407,32.762555 C160.838407,33.6795157 160.457776,33.7559291 156.262996,34.366522 C147.493518,35.5127229 143.833332,37.0409907 141.469002,39.4098057 C139.868071,41.0137727 138.952846,43.229761 138.952846,45.5978619 C138.952846,51.4045653 143.52897,55.072408 149.857849,55.072408 C155.119678,55.072408 159.390014,52.932119 161.67665,47.5081966 L162.058707,47.5081966 C162.668856,52.7792922 166.100236,55.072408 170.446841,55.072408 C175.556846,55.072408 178.378076,52.3979394 179.826469,46.5148226 L176.090014,45.2922084 C175.403595,47.8902636 174.564639,48.7293826 173.725683,48.7293826 C172.506096,48.7293826 171.819678,48.3487439 171.819678,46.5919501 L171.819678,30.3166124 C171.819678,22.9066561 168.006954,17.8640866 157.25449,17.8640866 C148.485724,17.8640866 140.325683,20.9970356 140.325683,27.5671587 L140.325683,27.5671587 Z M150.315461,43.9938949 C150.315461,40.5552924 151.99266,38.7977845 157.407027,37.8808238 C159.313745,37.5001851 160.151988,37.4230576 160.838407,37.2702308 L160.838407,40.7845326 C160.838407,45.3693359 158.474789,48.5772699 155.043409,48.5772699 C151.687585,48.5772699 150.315461,46.4384092 150.315461,43.9938949 L150.315461,43.9938949 Z" id="Shape-13"></path>
                <path d="M183.038309,10.606243 L183.038309,19.0095733 L176.479911,19.0095733 L176.479911,24.9691035 L182.80879,24.9691035 L182.80879,42.9241075 C182.80879,51.0981976 186.622226,55.1481072 194.40021,55.1481072 C201.568045,55.1481072 205.305213,51.4045653 206.982412,42.6941531 L202.407001,41.3958397 C201.034164,46.3619958 199.967827,48.1187896 197.679766,48.1187896 C195.087342,48.1187896 193.943311,46.2855824 193.943311,43.001235 L193.943311,24.9691035 L205.381481,24.9691035 L205.381481,19.0095733 L193.943311,19.0095733 L193.943311,9.30721536 L183.038309,10.606243 L183.038309,10.606243 Z" id="Shape-14"></path>
                <path d="M212.329776,7.01481369 C212.329776,10.7583556 214.998469,13.3564108 219.116267,13.3564108 C223.157797,13.3564108 225.979027,10.5298296 225.979027,6.78557353 C225.979027,3.11915915 223.234066,0.367563006 219.116267,0.367563006 C215.074738,0.367563006 212.329776,3.27127178 212.329776,7.01481369 L212.329776,7.01481369 Z M208.287534,18.6289347 L208.287534,24.9691035 L214.082531,24.9691035 L214.082531,48.0423762 L208.287534,48.0423762 L208.287534,54.3839734 L231.01205,54.3839734 L231.01205,48.0423762 L225.217053,48.0423762 L225.217053,18.6289347 L208.287534,18.6289347 L208.287534,18.6289347 Z" id="Shape-10"></path>
                <path d="M234.546072,10.606243 L234.546072,19.0095733 L227.987675,19.0095733 L227.987675,24.9691035 L234.317266,24.9691035 L234.317266,42.9241075 C234.317266,51.0981976 238.12999,55.1481072 245.907974,55.1481072 C253.076522,55.1481072 256.812976,51.4045653 258.491601,42.6941531 L253.914765,41.3958397 C252.541928,46.3619958 251.474878,48.1187896 249.186816,48.1187896 C246.59368,48.1187896 245.450362,46.2855824 245.450362,43.001235 L245.450362,24.9691035 L256.889958,24.9691035 L256.889958,19.0095733 L245.450362,19.0095733 L245.450362,9.30721536 L234.546072,10.606243 L234.546072,10.606243 Z" id="Shape-4"></path>
                <path d="M263.83754,7.01481369 C263.83754,10.7583556 266.506945,13.3564108 270.624031,13.3564108 C274.666273,13.3564108 277.488216,10.5298296 277.488216,6.78557353 C277.488216,3.11915915 274.741829,0.367563006 270.624031,0.367563006 C266.583214,0.367563006 263.83754,3.27127178 263.83754,7.01481369 L263.83754,7.01481369 Z M259.795297,18.6289347 L259.795297,24.9691035 L265.592433,24.9691035 L265.592433,48.0423762 L259.795297,48.0423762 L259.795297,54.3839734 L282.521239,54.3839734 L282.521239,48.0423762 L276.724103,48.0423762 L276.724103,18.6289347 L259.795297,18.6289347 L259.795297,18.6289347 Z" id="Shape-8"></path>
                <path d="M285.121504,29.3246667 C285.121504,35.7426772 289.316284,38.492845 297.856956,40.707405 C304.948522,42.5420405 306.930083,43.611828 306.930083,46.3619958 C306.930083,48.5772699 305.480977,50.0291243 302.278404,50.0291243 C297.933225,50.0291243 293.585194,46.7440628 290.460315,41.9300193 L284.588336,41.9300193 L284.588336,55.072408 L290.460315,55.072408 L291.679902,50.2590786 C293.967964,52.8564197 297.703706,55.1481072 303.27061,55.1481072 C311.963819,55.1481072 316.768036,49.570644 316.768036,43.3818736 C316.768036,36.2768568 311.507632,33.7559291 303.728222,31.6927676 C296.940305,29.9359738 294.881763,28.9425997 294.881763,26.3445445 C294.881763,24.281383 296.40785,22.9066561 299.380192,22.9066561 C303.193628,22.9066561 306.854527,25.8867783 309.599488,30.1652139 L315.471468,30.1652139 L315.471468,17.9412142 L309.523933,17.9412142 L308.303633,22.2196498 C306.09184,19.5451812 302.736729,17.7876732 298.085762,17.7876732 C290.154527,17.7876732 285.121504,23.0587688 285.121504,29.3246667 L285.121504,29.3246667 Z" id="Shape-9"></path>
                <path d="M321.493846,29.5539068 C321.493846,45.0629682 331.558467,55.6058734 347.190704,55.6058734 C360.764399,55.6058734 368.161753,47.2796706 369.457608,34.2908228 L362.137236,34.2908228 C360.841381,42.6941531 356.495489,48.4251573 348.945598,48.4251573 C340.327944,48.4251573 335.065402,42.5420405 335.065402,28.7897729 C335.065402,14.4254841 340.099138,9.15438858 347.26626,9.15438858 C353.597277,9.15438858 357.868326,13.814177 360.917649,23.0587688 L368.467541,23.0587688 L368.467541,3.04274576 L361.604781,3.04274576 L360.003138,8.84873503 C356.951676,5.10519312 352.148171,2.88920484 345.743024,2.88920484 C332.625516,2.88920484 321.493846,13.8913045 321.493846,29.5539068 L321.493846,29.5539068 Z" id="Shape-6"></path>
                <path d="M370.540339,48.9593369 C370.540339,52.7035929 373.512681,55.683001 377.326117,55.683001 C381.21511,55.683001 384.190303,52.6271796 384.190303,48.8829235 C384.190303,45.1400957 381.21511,42.1599736 377.402386,42.1599736 C373.512681,42.1599736 370.540339,45.1400957 370.540339,48.9593369 L370.540339,48.9593369 Z" id="Shape-2"></path>
                <path d="M404.097866,28.0256391 L404.097866,18.6289347 L388.387221,18.6289347 L388.387221,24.9691035 L393.64905,24.9691035 L393.64905,48.0423762 L388.387221,48.0423762 L388.387221,54.3839734 L408.748833,54.3839734 L408.748833,48.0423762 L404.783572,48.0423762 L404.783572,34.0608685 C404.783572,28.9425997 408.061701,25.3511704 411.645619,25.3511704 C413.170993,25.3511704 414.315737,25.8096508 415.154693,26.5737847 C416.299437,27.7199855 416.754911,29.6303202 416.754911,31.9991353 L416.754911,48.0423762 L412.714806,48.0423762 L412.714806,54.3839734 L433.074992,54.3839734 L433.074992,48.0423762 L427.965701,48.0423762 L427.965701,30.4701534 C427.965701,23.0587688 424.763127,17.8640866 417.060698,17.8640866 C410.501588,17.8640866 406.614021,21.9904096 404.097866,28.0256391 L404.097866,28.0256391 Z" id="Shape-3"></path>
                <path d="M433.621704,36.8124646 C433.621704,47.8138502 440.865807,55.1481072 452.762303,55.1481072 C462.751368,55.1481072 467.785104,50.2590786 469.156515,42.7712807 L463.208267,42.7712807 C461.60805,47.2796706 458.939357,49.0364644 454.667596,49.0364644 C449.025135,49.0364644 445.670024,46.2855824 445.212412,37.9579513 L469.538572,37.9579513 C470.073165,26.3445445 464.428567,17.7876732 452.379534,17.7876732 C441.627782,17.7876732 433.621704,25.9631917 433.621704,36.8124646 L433.621704,36.8124646 Z M452.150728,22.9823554 C456.269952,22.9823554 458.251513,25.8867783 458.633569,33.1439078 L445.288681,33.1439078 C445.747006,25.5039972 448.186892,22.9823554 452.150728,22.9823554 L452.150728,22.9823554 Z" id="Shape-7"></path>
                <path d="M475.882419,10.606243 L475.882419,19.0095733 L469.324734,19.0095733 L469.324734,24.9691035 L475.6529,24.9691035 L475.6529,42.9241075 C475.6529,51.0981976 479.466336,55.1481072 487.244321,55.1481072 C494.412868,55.1481072 498.150036,51.4045653 499.827948,42.6941531 L495.251111,41.3958397 C493.878274,46.3619958 492.811225,48.1187896 490.523163,48.1187896 C487.930739,48.1187896 486.786708,46.2855824 486.786708,43.001235 L486.786708,24.9691035 L498.226305,24.9691035 L498.226305,19.0095733 L486.786708,19.0095733 L486.786708,9.30721536 L475.882419,10.606243 L475.882419,10.606243 Z" id="Shape-5"></path>
            </g>
        </g>
    </g>
</svg>