<?xml version="1.0" encoding="UTF-8"?>
<svg width="282px" height="41px" viewBox="0 0 282 41" version="1.1" xmlns="http://www.w3.org/2000/svg" xmlns:xlink="http://www.w3.org/1999/xlink">
    <!-- Generator: Sketch 49.3 (51167) - http://www.bohemiancoding.com/sketch -->
    <title>10</title>
    <desc>Created with Sketch.</desc>
    <defs>
        <linearGradient x1="49.9999223%" y1="-97.647234%" x2="49.9999223%" y2="83.9567021%" id="linearGradient-1">
            <stop stop-color="#98B9E3" offset="0%"></stop>
            <stop stop-color="#1E7EBE" offset="100%"></stop>
        </linearGradient>
    </defs>
    <g id="Page-1" stroke="none" stroke-width="1" fill="none" fill-rule="evenodd">
        <g id="10" transform="translate(0.000000, 0.862382)" fill="url(#linearGradient-1)">
            <polygon id="Shape" points="21.0986851 21.1613869 20.9654828 21.1613869 14.6634848 3.22586683 0.142560791 3.22586683 0.142560791 7.21164194 4.12802396 7.21164194 4.12802396 28.5633179 0.142560791 28.5633179 0.142560791 32.2642834 11.5299549 32.2642834 11.5299549 28.5633179 7.82898944 28.5633179 7.82898944 8.06544695 8.76140564 8.06544695 17.6815934 32.549093 20.6547814 32.549093 29.2642678 8.06544695 29.1806654 8.06544695 29.1806654 28.5633179 25.4796999 28.5633179 25.4796999 32.2642834 40.2838738 32.2642834 40.2838738 28.5633179 36.5829083 28.5633179 36.5829083 7.21164194 40.2838738 7.21164194 40.2838738 3.22586683 27.0010762 3.22586683"></polygon>
            <path d="M48.6041832,7.60376211 C50.9562803,7.60376211 52.598381,5.96134949 52.598381,3.78706347 C52.598381,1.65676228 51.0008891,0.0592703508 48.6041832,0.0592703508 C46.2520862,0.0592703508 44.6545942,1.74566781 44.6545942,3.91995383 C44.6545942,6.09423986 46.2077894,7.60376211 48.6041832,7.60376211 L48.6041832,7.60376211 Z" id="Shape"></path>
            <polygon id="Shape" points="51.6712679 11.4816028 41.9921077 11.4816028 41.9921077 15.1828802 45.1234539 15.1828802 45.1234539 28.8478156 41.9921077 28.8478156 41.9921077 32.2642834 55.0877357 32.2642834 55.0877357 28.8478156 51.6712679 28.8478156"></polygon>
            <path d="M76.2204233,6.48074493 C73.4244225,6.48074493 71.2944333,8.30003275 70.2734235,11.1849391 C69.1641321,10.8742377 67.8773416,10.7413473 66.5016455,10.7413473 C60.7324568,10.7413473 57.4485674,13.581333 57.4485674,17.3537348 C57.4485674,20.3269228 59.2678552,22.1019138 62.2413551,22.856207 C59.1349648,23.2112052 56.8867468,25.1200225 56.8867468,27.205403 C56.8867468,28.8911765 57.9345842,30.4892923 60.4969351,31.0217897 L60.4969351,31.2438975 C57.3652769,31.6431925 55.7331586,33.1074821 55.7331586,35.1934865 C55.7331586,37.9448786 58.8320621,39.7201816 65.57734,39.7201816 C74.5864333,39.7201816 78.3990766,36.9001607 78.3990766,32.7290877 C78.3990766,29.4448864 76.2210472,27.4243913 70.7622479,27.4243913 L65.0376679,27.4243913 C62.6855708,27.4243913 61.8423721,26.6491975 61.8423721,25.7170933 C61.8423721,24.9185033 62.6855708,24.1314554 63.9723613,24.1314554 C64.7712632,24.1314554 65.9251634,24.1595308 66.8126589,24.1595308 C72.5815357,24.1595308 75.7765196,21.7325659 75.7765196,17.4279787 C75.7765196,14.9426793 74.5340259,13.0638092 72.3151311,11.9545178 C72.9365339,10.3567139 73.8240294,9.55032521 74.7118369,9.46110773 C74.7118369,9.63891878 74.6672282,9.85697129 74.6672282,10.0344704 C74.6672282,11.3661816 75.6436292,12.3846958 77.1965124,12.3846958 C78.9275186,12.3846958 79.9925132,11.1858749 79.9925132,9.63236785 C79.9925132,8.03518787 78.8386131,6.48074493 76.2204233,6.48074493 L76.2204233,6.48074493 Z M63.838847,32.549093 L69.1641321,32.549093 C71.738337,32.549093 72.6701293,33.0500834 72.6701293,34.1596868 C72.6701293,35.8017875 70.8059208,36.8511846 66.3681313,36.8511846 C61.6642491,36.8511846 60.2442562,35.8978678 60.2442562,34.5670925 C60.2445682,33.3239749 61.3981564,32.549093 63.838847,32.549093 L63.838847,32.549093 Z M66.7231295,21.8801179 C64.6823577,21.8801179 63.6616599,20.503798 63.6616599,17.530922 C63.6616599,14.558046 64.5048586,13.1377412 66.5016455,13.1377412 C68.5427292,13.1377412 69.5194422,14.7352331 69.5194422,17.530922 C69.5194422,20.5041099 68.6762435,21.8801179 66.7231295,21.8801179 L66.7231295,21.8801179 Z" id="Shape"></path>
            <path d="M95.6629701,10.7850202 C92.8229844,10.7850202 90.3897805,12.6935255 88.9660443,16.5545209 L88.9660443,11.4816028 L79.8558795,11.4816028 L79.8558795,15.1825683 L82.9875376,15.1825683 L82.9875376,28.8478156 L79.8558795,28.8478156 L79.8558795,32.2639714 L93.2366291,32.2639714 L93.2366291,28.8478156 L89.2511659,28.8478156 L89.2511659,19.1727107 C90.1049709,16.5988177 91.7451999,15.2674185 92.9433968,15.1785129 C92.9433968,15.3117153 93.0366696,15.4449176 93.0366696,15.5335111 C93.0366696,17.5749068 94.6145088,18.6845102 96.5669989,18.6845102 C98.4751922,18.6845102 99.9535196,17.0870182 99.9535196,14.8684354 C99.9535196,12.6935255 98.237175,10.7850202 95.6629701,10.7850202 L95.6629701,10.7850202 Z" id="Shape"></path>
            <path d="M120.671939,28.7146133 C119.961942,28.7146133 119.428197,28.4925054 119.428197,27.4718076 L119.428197,18.0194344 C119.428197,13.7145353 117.343752,10.7853321 111.086363,10.7853321 C105.983186,10.7853321 101.302388,12.6052439 101.302388,16.4216306 C101.302388,18.0640432 102.44537,19.5283328 104.708561,19.5283328 C106.528161,19.5283328 107.876094,18.3301359 107.876094,16.7766288 C107.876094,15.7559309 107.485221,15.0019497 106.819522,14.5137492 C107.662721,14.158751 108.385507,13.9809399 109.27269,13.9809399 C111.846895,13.9809399 112.880071,14.9573409 112.880071,17.6201394 L112.880071,19.4394273 C112.880071,19.9719246 112.87196,20.0162214 110.430646,20.3712196 C105.327157,21.0369192 103.303542,21.9244147 101.927846,23.3004227 C100.996054,24.232215 100.516588,25.5193175 100.516588,26.8947015 C100.516588,30.2674965 103.206214,32.5344314 106.88971,32.5344314 C109.951492,32.5344314 112.463307,31.6949761 113.79533,28.2785083 L114.016814,28.2785083 C114.372124,31.4101664 116.368911,32.5344314 118.898507,32.5344314 C121.871695,32.5344314 123.513796,30.9132313 124.356683,27.4958277 L122.115016,26.7515169 C121.715721,28.2607272 121.160139,28.7146133 120.671939,28.7146133 L120.671939,28.7146133 Z M112.880071,24.0993246 C112.880071,26.7614992 111.717436,28.6253958 109.720649,28.6253958 C107.767847,28.6253958 107.075944,27.3829021 107.075944,25.9625973 C107.075944,23.9658104 107.892003,22.9451125 111.043314,22.4123033 C112.152606,22.1908193 112.595573,22.1458986 112.880071,22.057617 L112.880071,24.0993246 L112.880071,24.0993246 Z" id="Shape"></path>
            <polygon id="Shape" points="134.516557 11.4816028 124.837085 11.4816028 124.837085 15.1828802 127.968743 15.1828802 127.968743 28.8478156 124.837085 28.8478156 124.837085 32.2642834 137.933025 32.2642834 137.933025 28.8478156 134.516557 28.8478156"></polygon>
            <path d="M131.458207,7.60376211 C133.810616,7.60376211 135.452716,5.96134949 135.452716,3.78706347 C135.452716,1.65676228 133.855224,0.0592703508 131.458207,0.0592703508 C129.106421,0.0592703508 127.508618,1.74566781 127.508618,3.91995383 C127.508618,6.09423986 129.061813,7.60376211 131.458207,7.60376211 L131.458207,7.60376211 Z" id="Shape"></path>
            <path d="M162.131861,18.108028 C162.131861,13.8031289 160.238017,10.7850202 155.755931,10.7850202 C151.939856,10.7850202 149.890038,13.182038 148.182116,16.6880352 L148.182116,11.4816028 L139.356761,11.4816028 L139.356761,15.1825683 L142.488419,15.1825683 L142.488419,28.8478156 L139.356761,28.8478156 L139.356761,32.2639714 L151.028964,32.2639714 L151.028964,28.8478156 L148.751423,28.8478156 L148.751423,20.1937205 C148.751423,17.2202205 150.869558,15.1342161 152.955251,15.1342161 C153.842746,15.1342161 154.478499,15.4006208 154.966699,15.8442126 C155.632399,16.5102241 155.868857,17.6195155 155.868857,18.9952116 L155.868857,28.8475036 L153.306818,28.8475036 L153.306818,32.2636595 L165.263831,32.2636595 L165.263831,28.8478156 L162.132173,28.8478156 L162.132173,18.108028 L162.131861,18.108028 Z" id="Shape"></path>
            <path d="M177.154711,10.9472338 C170.897634,10.9472338 166.238048,15.5927815 166.238048,21.8941556 C166.238048,28.2847472 170.454042,32.7250324 177.377131,32.7250324 C183.190617,32.7250324 186.11982,29.9867422 186.918722,25.7164694 L183.456709,25.7164694 C182.524917,28.2785083 180.971722,29.3297771 178.486422,29.3297771 C175.202533,29.3297771 173.249731,27.7095129 172.983638,22.8696208 L187.140518,22.8696208 C187.450907,16.0369972 184.167018,10.9472338 177.154711,10.9472338 L177.154711,10.9472338 Z M173.027935,20.0224603 C173.29434,15.7521875 174.714333,14.1200693 177.022757,14.1200693 C179.418839,14.1200693 180.572427,15.7518756 180.794223,20.0224603 L173.027935,20.0224603 L173.027935,20.0224603 Z" id="Shape"></path>
            <path d="M192.782743,24.8979146 C190.519863,24.8979146 188.789481,26.6286089 188.789481,28.8475036 C188.789481,31.0221016 190.519863,32.7527958 192.738134,32.7527958 C195.00195,32.7527958 196.732332,30.9781168 196.732332,28.8032068 C196.732332,26.6286089 195.00195,24.8979146 192.782743,24.8979146 L192.782743,24.8979146 Z" id="Shape"></path>
            <path d="M210.318032,28.8166207 C206.85602,28.8166207 205.080717,25.902703 205.080717,21.553819 C205.080717,16.7613433 207.255627,13.9731412 210.184518,13.9731412 C211.915524,13.9731412 212.980519,14.5758271 213.601298,15.374417 C212.669505,15.7297272 211.737401,16.7410666 211.737401,18.1616833 C211.737401,19.8483927 212.890989,21.3080031 215.065899,21.3080031 C217.374012,21.3080031 218.616193,19.7083275 218.616193,17.4891208 C218.616193,14.3381218 215.554412,10.7422832 209.563115,10.7422832 C202.817837,10.7422832 198.113331,15.2686663 198.113331,21.9702712 C198.113331,28.2273486 202.284716,32.5890225 209.340695,32.5890225 C214.577387,32.5890225 217.684089,29.7025564 218.66049,25.147474 L215.198478,25.147474 C214.355903,27.7092009 212.713802,28.8166207 210.318032,28.8166207 L210.318032,28.8166207 Z" id="Shape"></path>
            <path d="M231.773899,10.7410354 C225.339323,10.7410354 220.501926,15.3120272 220.501926,21.7026188 C220.501926,28.1371953 225.117527,32.4417825 231.72929,32.4417825 C238.11957,32.4417825 242.957279,27.9153994 242.957279,21.4808229 C242.957279,15.0905433 238.342302,10.7410354 231.773899,10.7410354 L231.773899,10.7410354 Z M231.862805,29.4246097 C229.022819,29.4246097 227.602514,27.2493878 227.602514,21.6137133 C227.602514,16.0223356 228.800711,13.7585201 231.596712,13.7585201 C234.481306,13.7585201 235.857002,15.9777268 235.857002,21.5691045 C235.857002,27.1604823 234.70279,29.4246097 231.862805,29.4246097 L231.862805,29.4246097 Z" id="Shape"></path>
            <path d="M278.855146,28.8478156 L278.855146,18.108028 C278.855146,13.8031289 277.305383,10.7850202 272.956811,10.7850202 C269.494798,10.7850202 267.388829,12.9602421 265.879307,16.2887402 C265.435403,12.8710246 263.412412,10.7850202 259.862118,10.7850202 C256.267528,10.7850202 253.802193,13.182038 252.379081,16.6880352 L252.379081,11.4816028 L243.268916,11.4816028 L243.268916,15.1825683 L246.400574,15.1825683 L246.400574,28.8478156 L243.268916,28.8478156 L243.268916,32.2639714 L254.941432,32.2639714 L254.941432,28.8478156 L252.948388,28.8478156 L252.948388,20.1937205 C252.948388,17.2202205 254.988536,15.1342161 256.852432,15.1342161 C257.651022,15.1342161 258.196622,15.356012 258.595917,15.8005397 C259.26224,16.4656154 259.496514,17.5752188 259.496514,18.9955235 L259.496514,28.8478156 L257.218973,28.8478156 L257.218973,32.2639714 L268.037372,32.2639714 L268.037372,28.8478156 L265.759518,28.8478156 L265.759518,20.1937205 C265.759518,17.2202205 267.916959,15.1342161 269.78148,15.1342161 C270.624366,15.1342161 271.06671,15.356012 271.510614,15.8005397 C272.176938,16.4656154 272.307644,17.5752188 272.307644,18.9955235 L272.307644,28.8478156 L270.030103,28.8478156 L270.030103,32.2639714 L281.702619,32.2639714 L281.702619,28.8478156 L278.855146,28.8478156 L278.855146,28.8478156 Z" id="Shape"></path>
        </g>
    </g>
</svg>