<?xml version="1.0" encoding="UTF-8"?>
<svg width="500px" height="35px" viewBox="0 0 500 35" version="1.1" xmlns="http://www.w3.org/2000/svg" xmlns:xlink="http://www.w3.org/1999/xlink">
    <!-- Generator: Sketch 49.2 (51160) - http://www.bohemiancoding.com/sketch -->
    <title>masthead</title>
    <desc>Created with Sketch.</desc>
    <defs>
        <linearGradient x1="50%" y1="0%" x2="50%" y2="100%" id="linearGradient-1">
            <stop stop-color="#7674D0" offset="0%"></stop>
            <stop stop-color="#5D71C5" offset="100%"></stop>
        </linearGradient>
    </defs>
    <g id="Page-1" stroke="none" stroke-width="1" fill="none" fill-rule="evenodd">
        <g id="irritablebowelsyndrome.net" transform="translate(-56.000000, -141.000000)" fill="url(#linearGradient-1)">
            <g id="masthead" transform="translate(56.000000, 141.687219)">
                <polygon id="Fill-1" points="0 27.0286026 13.1422775 27.0286026 13.1422775 23.7306987 9.6578534 23.7306987 9.6578534 5.38366812 13.1422775 5.38366812 13.1422775 2.08576419 0 2.08576419 0 5.38366812 3.48442408 5.38366812 3.48442408 23.7306987 0 23.7306987"></polygon>
                <path d="M14.8212478,27.0286026 L26.2592059,27.0286026 L26.2592059,23.8823581 L22.9641361,23.8823581 L22.9641361,16.0734934 C23.6080279,13.8748908 24.8578534,12.7376419 25.8804538,12.6618341 C25.8804538,12.7755459 25.8425829,12.8893013 25.8425829,12.9651092 C25.8425829,14.708821 27.1302792,15.6565066 28.7967277,15.6565066 C30.425349,15.6565066 31.7509162,14.2918341 31.7509162,12.3965066 C31.7509162,10.5390393 30.3495637,8.9090393 28.1528796,8.9090393 C25.7289703,8.9090393 23.6837696,10.5390393 22.6232984,13.8369432 L22.6232984,9.28812227 L14.8212478,9.28812227 L14.8212478,12.4344105 L17.434555,12.4344105 L17.434555,23.8823581 L14.8212478,23.8823581 L14.8212478,27.0286026 Z" id="Fill-2"></path>
                <path d="M32.5841623,27.0286026 L44.0222513,27.0286026 L44.0222513,23.8823581 L40.7270506,23.8823581 L40.7270506,16.0734934 C41.3708988,13.8748908 42.6207679,12.7376419 43.6435428,12.6618341 C43.6435428,12.7755459 43.6054974,12.8893013 43.6054974,12.9651092 C43.6054974,14.708821 44.8931065,15.6565066 46.5597731,15.6565066 C48.1880454,15.6565066 49.5139616,14.2918341 49.5139616,12.3965066 C49.5139616,10.5390393 48.1125654,8.9090393 45.9157941,8.9090393 C43.4918412,8.9090393 41.4466405,10.5390393 40.3861693,13.8369432 L40.3861693,9.28812227 L32.5841623,9.28812227 L32.5841623,12.4344105 L35.1974695,12.4344105 L35.1974695,23.8823581 L32.5841623,23.8823581 L32.5841623,27.0286026 Z" id="Fill-3"></path>
                <path d="M55.8010471,6.67253275 C57.8080279,6.67253275 59.2094241,5.26995633 59.2094241,3.41253275 C59.2094241,1.59296943 57.845986,0.228340611 55.8010471,0.228340611 C53.79363,0.228340611 52.430192,1.66877729 52.430192,3.52624454 C52.430192,5.38366812 53.7556719,6.67253275 55.8010471,6.67253275 L55.8010471,6.67253275 Z M50.4227749,27.0286026 L61.7094241,27.0286026 L61.7094241,23.8823581 L58.8307155,23.8823581 L58.8307155,9.28812227 L50.4227749,9.28812227 L50.4227749,12.4344105 L53.3010471,12.4344105 L53.3010471,23.8823581 L50.4227749,23.8823581 L50.4227749,27.0286026 Z" id="Fill-4"></path>
                <path d="M64.3852531,5.30786026 L64.3852531,9.47764192 L61.1282723,9.47764192 L61.1282723,12.4344105 L64.271815,12.4344105 L64.271815,21.3425764 C64.271815,25.3986026 66.1653578,27.4076856 70.0287958,27.4076856 C73.5890052,27.4076856 75.4445899,25.550262 76.2779232,21.228821 L74.0052356,20.5844105 C73.3237347,23.0483843 72.79363,23.920262 71.6570681,23.920262 C70.3695462,23.920262 69.8014834,23.0104803 69.8014834,21.3804803 L69.8014834,12.4344105 L75.482548,12.4344105 L75.482548,9.47764192 L69.8014834,9.47764192 L69.8014834,4.66344978 L64.3852531,5.30786026 Z" id="Fill-5"></path>
                <path d="M82.7923211,27.3697817 C85.4053229,27.3697817 87.5266143,26.3083843 88.66274,23.6169869 L88.8520942,23.6169869 C89.1548866,26.2325764 90.8595113,27.3697817 93.0183246,27.3697817 C95.5558464,27.3697817 96.9572426,26.0430568 97.6767016,23.1241921 L95.8206806,22.5176856 C95.4799302,23.8065066 95.0632635,24.2234934 94.6465969,24.2234934 C94.0405759,24.2234934 93.6998255,24.0339738 93.6998255,23.1620961 L93.6998255,15.0879039 C93.6998255,11.410917 91.8062827,8.9090393 86.4659686,8.9090393 C82.1103839,8.9090393 78.0580279,10.4632314 78.0580279,13.7232314 C78.0580279,15.1258079 79.0047993,16.3767249 80.9363002,16.3767249 C82.4890925,16.3767249 83.6256545,15.3532314 83.6256545,14.0265066 C83.6256545,13.1546288 83.2844677,12.5102183 82.7164049,12.0932314 C83.4358639,11.79 84.2312391,11.6383406 84.9890925,11.6383406 C87.1854276,11.6383406 88.2460733,12.4723144 88.2460733,14.7467249 L88.2460733,16.300917 C88.2460733,16.7558079 88.056719,16.7937118 85.973822,17.0969869 C81.6182373,17.6655895 79.8001745,18.4237118 78.6260908,19.598821 C77.8307155,20.3948908 77.3760908,21.4941921 77.3760908,22.6693013 C77.3760908,25.550262 79.6487784,27.3697817 82.7923211,27.3697817 L82.7923211,27.3697817 Z M85.367801,24.1476856 C83.7011344,24.1476856 83.0196335,23.0862882 83.0196335,21.8732751 C83.0196335,20.1674236 83.8525305,19.2955895 86.5418848,18.8406987 C87.4886562,18.651179 87.9053229,18.6132751 88.2460733,18.5374236 L88.2460733,20.281179 C88.2460733,22.5555895 87.0719895,24.1476856 85.367801,24.1476856 L85.367801,24.1476856 Z" id="Fill-6"></path>
                <path d="M108.092059,24.3372052 C105.705934,24.3372052 104.304538,21.949083 104.304538,18.4616157 C104.304538,15.05 105.667976,12.3965066 108.092059,12.3965066 C110.288831,12.3965066 111.27356,14.4055895 111.27356,18.1962882 C111.27356,22.2144105 110.288831,24.3372052 108.092059,24.3372052 L108.092059,24.3372052 Z M99.0780977,27.2939738 L101.994328,27.2939738 L103.736475,23.6927948 C104.910558,25.9293013 106.804538,27.4076856 109.94808,27.4076856 C111.841623,27.4076856 113.470332,26.7253712 114.681937,25.5123581 C116.272688,23.920262 117.219459,21.3046725 117.219459,18.1204803 C117.219459,14.9741921 116.42452,12.3206987 114.795812,10.6906987 C113.697208,9.59135371 112.296248,8.87113537 110.288831,8.87113537 C107.599476,8.87113537 105.743892,10.4632314 104.645724,12.8134934 L104.645724,0.872751092 L96.5026178,0.872751092 L96.5026178,4.09484716 L99.0780977,4.09484716 L99.0780977,27.2939738 Z" id="Fill-7"></path>
                <polygon id="Fill-8" points="118.254799 27.0286026 129.57897 27.0286026 129.57897 23.8823581 126.700698 23.8823581 126.700698 0.872751092 118.254799 0.872751092 118.254799 4.09484716 121.133072 4.09484716 121.133072 23.8823581 118.254799 23.8823581"></polygon>
                <path d="M148.376963,18.8786026 C148.642234,13.1167249 145.839442,8.87113537 139.855585,8.87113537 C134.515271,8.87113537 130.538394,12.9272052 130.538394,18.31 C130.538394,23.7686026 134.136562,27.4076856 140.044939,27.4076856 C145.006545,27.4076856 147.506108,24.9816594 148.187609,21.2667686 L145.233421,21.2667686 C144.438045,23.5032751 143.112565,24.3751092 140.99171,24.3751092 C138.188918,24.3751092 136.522688,23.0104803 136.295375,18.8786026 L148.376963,18.8786026 Z M139.74171,11.448821 C141.787086,11.448821 142.771815,12.8893013 142.961169,16.4904803 L136.333333,16.4904803 C136.560646,12.699738 137.772251,11.448821 139.74171,11.448821 L139.74171,11.448821 Z" id="Fill-9"></path>
                <path d="M149.159686,27.0286026 L162.188482,27.0286026 C170.217714,27.0286026 172.830716,23.920262 172.830716,20.1295197 C172.830716,16.8316157 170.445026,14.670917 165.21815,14.1023144 L165.21815,13.8369432 C170.217714,13.078821 171.921902,10.6148472 171.921902,8.1130131 C171.921902,5.15624454 170.065881,2.08576419 161.961169,2.08576419 L149.159686,2.08576419 L149.159686,5.38366812 L152.568499,5.38366812 L152.568499,23.7306987 L149.159686,23.7306987 L149.159686,27.0286026 Z M158.74171,12.4723144 L158.74171,5.38366812 L161.355148,5.38366812 C164.801483,5.38366812 165.710733,6.4450655 165.710733,8.68161572 C165.710733,11.0318341 164.650087,12.4723144 161.279232,12.4723144 L158.74171,12.4723144 Z M158.74171,23.7306987 L158.74171,15.6565066 L161.279232,15.6565066 C165.180192,15.6565066 166.506108,17.1727948 166.506108,19.560917 C166.506108,22.6313974 165.256108,23.7306987 161.355148,23.7306987 L158.74171,23.7306987 Z" id="Fill-10"></path>
                <path d="M184.155323,27.4076856 C189.609075,27.4076856 193.737347,23.541179 193.737347,18.0446288 C193.737347,12.5860262 189.798429,8.87113537 184.193281,8.87113537 C178.701134,8.87113537 174.572862,12.7755459 174.572862,18.2341921 C174.572862,23.7306987 178.51178,27.4076856 184.155323,27.4076856 L184.155323,27.4076856 Z M184.268761,24.83 C181.844677,24.83 180.633072,22.9725764 180.633072,18.1583843 C180.633072,13.3820961 181.655323,11.448821 184.041449,11.448821 C186.50349,11.448821 187.677574,13.3441921 187.677574,18.1204803 C187.677574,22.8967686 186.692845,24.83 184.268761,24.83 L184.268761,24.83 Z" id="Fill-11"></path>
                <polygon id="Fill-12" points="215.830279 12.3965066 215.830279 9.28812227 205.831588 9.28812227 205.831588 12.3965066 207.839005 12.3965066 208.29363 13.7990393 205.036213 22.8967686 204.884817 22.8967686 201.89267 12.3965066 204.089442 12.3965066 204.089442 9.28812227 193.82548 9.28812227 193.82548 12.4344105 196.135689 12.4344105 200.718586 27.180262 206.513525 27.180262 209.770506 18.0825764 212.762653 27.180262 218.481675 27.180262 223.026614 12.4344105 225.336824 12.4344105 225.336824 9.28812227 217.648342 9.28812227 217.648342 12.3965066 219.693717 12.3965066 216.815009 22.8967686 216.663613 22.8967686 213.52007 12.3965066"></polygon>
                <path d="M243.478185,18.8786026 C243.743455,13.1167249 240.940663,8.87113537 234.956806,8.87113537 C229.616492,8.87113537 225.639616,12.9272052 225.639616,18.31 C225.639616,23.7686026 229.237784,27.4076856 235.146161,27.4076856 C240.107766,27.4076856 242.60733,24.9816594 243.288831,21.2667686 L240.334642,21.2667686 C239.539703,23.5032751 238.213787,24.3751092 236.092932,24.3751092 C233.29014,24.3751092 231.623909,23.0104803 231.396597,18.8786026 L243.478185,18.8786026 Z M234.842932,11.448821 C236.888307,11.448821 237.873037,12.8893013 238.062391,16.4904803 L231.434555,16.4904803 C231.661867,12.699738 232.873473,11.448821 234.842932,11.448821 L234.842932,11.448821 Z" id="Fill-13"></path>
                <polygon id="Fill-14" points="244.475567 27.0286026 255.799738 27.0286026 255.799738 23.8823581 252.921466 23.8823581 252.921466 0.872751092 244.475567 0.872751092 244.475567 4.09484716 247.353839 4.09484716 247.353839 23.8823581 244.475567 23.8823581"></polygon>
                <path d="M257.883072,27.5593013 L261.17801,27.5593013 L262.086824,24.6025764 C263.48822,26.3462882 266.215096,27.6351528 269.321117,27.6351528 C274.736911,27.6351528 278.486475,24.2613974 278.486475,19.5230131 C278.486475,14.1023144 274.017452,12.7755459 269.96466,11.79 C266.215096,10.8802183 263.450698,10.3116157 263.450698,7.80973799 C263.450698,6.10393013 264.814136,4.62554585 267.351658,4.62554585 C270.570681,4.62554585 272.426702,6.29344978 274.017452,10.4253275 L277.350349,10.4253275 L277.350349,1.5550655 L274.017452,1.5550655 L273.222077,4.24646288 C271.934119,2.50275109 269.585951,1.47925764 266.859075,1.47925764 C262.011344,1.47925764 258.110384,4.77716157 258.110384,9.40183406 C258.110384,14.9741921 262.730803,16.3767249 266.821117,17.3623144 C270.608639,18.31 273.146161,18.8786026 273.146161,21.190917 C273.146161,23.1620961 271.631326,24.4888646 268.942408,24.4888646 C264.927574,24.4888646 262.844677,22.5555895 261.215969,18.31 L257.883072,18.31 L257.883072,27.5593013 Z" id="Fill-15"></path>
                <path d="M282.311955,26.4979039 C280.569372,26.4979039 279.395288,27.9004803 279.395288,29.6821397 C279.395288,31.9565502 281.061955,33.6244541 284.280977,33.6244541 C288.371728,33.6244541 290.416667,30.819345 292.234729,26.5358515 L298.294503,12.4344105 L300.453316,12.4344105 L300.453316,9.28812227 L292.689354,9.28812227 L292.689354,12.4344105 L294.923647,12.4344105 L291.363438,21.7216157 L287.386998,12.4344105 L290.075916,12.4344105 L290.075916,9.28812227 L278.978621,9.28812227 L278.978621,12.4344105 L281.327225,12.4344105 L288.447208,27.3318777 C287.34904,29.9853712 286.402269,30.7055895 284.849476,30.8951528 C285.038831,30.5160699 285.152269,29.9853712 285.152269,29.4925764 C285.152269,28.0141921 284.243455,26.4979039 282.311955,26.4979039 L282.311955,26.4979039 Z" id="Fill-16"></path>
                <path d="M301.463351,27.0286026 L311.575916,27.0286026 L311.575916,23.8823581 L309.606457,23.8823581 L309.606457,16.9453275 C309.606457,14.4055895 311.235166,12.6239301 313.014834,12.6239301 C313.772688,12.6239301 314.34075,12.8513974 314.757417,13.2304367 C315.32548,13.7990393 315.552792,14.7467249 315.552792,15.9218341 L315.552792,23.8823581 L313.545375,23.8823581 L313.545375,27.0286026 L323.657504,27.0286026 L323.657504,23.8823581 L321.119983,23.8823581 L321.119983,15.1637118 C321.119983,11.4867249 319.529232,8.9090393 315.704188,8.9090393 C312.446771,8.9090393 310.515271,10.9560262 309.265707,13.9506987 L309.265707,9.28812227 L301.463351,9.28812227 L301.463351,12.4344105 L304.076789,12.4344105 L304.076789,23.8823581 L301.463351,23.8823581 L301.463351,27.0286026 Z" id="Fill-17"></path>
                <path d="M331.472077,27.4076856 C334.350785,27.4076856 336.320244,25.7776856 337.380454,23.3137118 L337.380454,27.0286026 L345.106894,27.0286026 L345.106894,23.8823581 L342.569372,23.8823581 L342.569372,0.872751092 L334.312827,0.872751092 L334.312827,4.09484716 L337.039703,4.09484716 L337.039703,11.9037118 C335.941099,10.1220524 334.236911,8.87113537 331.699389,8.87113537 C329.805846,8.87113537 328.215096,9.55344978 327.041012,10.7665066 C325.412304,12.3586026 324.465532,15.05 324.465532,18.2341921 C324.465532,21.2667686 325.260908,23.920262 326.889616,25.550262 C328.025742,26.6874672 329.540576,27.4076856 331.472077,27.4076856 L331.472077,27.4076856 Z M333.782286,24.1476856 C331.547993,24.1476856 330.411867,22.1006987 330.411867,18.2720961 C330.411867,14.329738 331.472077,12.2069432 333.782286,12.2069432 C336.320244,12.2069432 337.380454,14.8225328 337.380454,18.1583843 C337.380454,21.6458079 335.979058,24.1476856 333.782286,24.1476856 L333.782286,24.1476856 Z" id="Fill-18"></path>
                <path d="M346.58377,27.0286026 L358.021815,27.0286026 L358.021815,23.8823581 L354.726876,23.8823581 L354.726876,16.0734934 C355.370855,13.8748908 356.620419,12.7376419 357.643106,12.6618341 C357.643106,12.7755459 357.605148,12.8893013 357.605148,12.9651092 C357.605148,14.708821 358.893106,15.6565066 360.559337,15.6565066 C362.188045,15.6565066 363.513525,14.2918341 363.513525,12.3965066 C363.513525,10.5390393 362.112129,8.9090393 359.915358,8.9090393 C357.49171,8.9090393 355.446335,10.5390393 354.386126,13.8369432 L354.386126,9.28812227 L346.58377,9.28812227 L346.58377,12.4344105 L349.197208,12.4344105 L349.197208,23.8823581 L346.58377,23.8823581 L346.58377,27.0286026 Z" id="Fill-19"></path>
                <path d="M373.398778,27.4076856 C378.852531,27.4076856 382.980803,23.541179 382.980803,18.0446288 C382.980803,12.5860262 379.041885,8.87113537 373.436736,8.87113537 C367.945026,8.87113537 363.816754,12.7755459 363.816754,18.2341921 C363.816754,23.7306987 367.755672,27.4076856 373.398778,27.4076856 L373.398778,27.4076856 Z M373.512216,24.83 C371.088569,24.83 369.876527,22.9725764 369.876527,18.1583843 C369.876527,13.3820961 370.899215,11.448821 373.284904,11.448821 C375.746946,11.448821 376.92103,13.3441921 376.92103,18.1204803 C376.92103,22.8967686 375.9363,24.83 373.512216,24.83 L373.512216,24.83 Z" id="Fill-20"></path>
                <path d="M402.889616,13.6095197 C402.510908,10.6906987 400.920157,8.9090393 397.890489,8.9090393 C394.822426,8.9090393 392.890925,10.9560262 391.640925,13.9506987 L391.640925,9.28812227 L383.839005,9.28812227 L383.839005,12.4344105 L386.452443,12.4344105 L386.452443,23.8823581 L383.839005,23.8823581 L383.839005,27.0286026 L393.799738,27.0286026 L393.799738,23.8823581 L391.982112,23.8823581 L391.982112,16.9453275 C391.982112,14.4055895 393.610384,12.6239301 395.201134,12.6239301 C395.883072,12.6239301 396.413176,12.8134934 396.753927,13.1925328 C397.32199,13.7611354 397.58726,14.708821 397.58726,15.9218341 L397.58726,23.8823581 L395.693717,23.8823581 L395.693717,27.0286026 L404.934991,27.0286026 L404.934991,23.8823581 L403.116928,23.8823581 L403.116928,16.9453275 C403.116928,14.4055895 404.745637,12.6239301 406.336387,12.6239301 C407.055846,12.6239301 407.547993,12.8134934 407.927138,13.1925328 C408.495201,13.7611354 408.722077,14.708821 408.722077,15.9218341 L408.722077,23.8823581 L406.828534,23.8823581 L406.828534,27.0286026 L416.827225,27.0286026 L416.827225,23.8823581 L414.251745,23.8823581 L414.251745,15.1637118 C414.251745,11.4867249 412.736911,8.9090393 409.025305,8.9090393 C406.071117,8.9090393 404.177574,10.7665066 402.889616,13.6095197 L402.889616,13.6095197 Z" id="Fill-21"></path>
                <path d="M434.955934,18.8786026 C435.221204,13.1167249 432.418412,8.87113537 426.434555,8.87113537 C421.094241,8.87113537 417.117365,12.9272052 417.117365,18.31 C417.117365,23.7686026 420.715532,27.4076856 426.623909,27.4076856 C431.585515,27.4076856 434.085079,24.9816594 434.766579,21.2667686 L431.812391,21.2667686 C431.017016,23.5032751 429.691536,24.3751092 427.570681,24.3751092 C424.767888,24.3751092 423.101658,23.0104803 422.874346,18.8786026 L434.955934,18.8786026 Z M426.320681,11.448821 C428.366056,11.448821 429.350785,12.8893013 429.54014,16.4904803 L422.912304,16.4904803 C423.139616,12.699738 424.351222,11.448821 426.320681,11.448821 L426.320681,11.448821 Z" id="Fill-22"></path>
                <path d="M439.511344,27.6730568 C441.444154,27.6730568 442.923211,26.1567686 442.923211,24.2993013 C442.923211,22.4418777 441.444154,20.9634934 439.550611,20.9634934 C437.617801,20.9634934 436.14267,22.4418777 436.14267,24.3372052 C436.14267,26.1946725 437.617801,27.6730568 439.511344,27.6730568 L439.511344,27.6730568 Z" id="Fill-23"></path>
                <path d="M444.602967,27.0286026 L454.712042,27.0286026 L454.712042,23.8823581 L452.744328,23.8823581 L452.744328,16.9453275 C452.744328,14.4055895 454.371728,12.6239301 456.151832,12.6239301 C456.910995,12.6239301 457.478185,12.8513974 457.897033,13.2304367 C458.464223,13.7990393 458.691099,14.7467249 458.691099,15.9218341 L458.691099,23.8823581 L456.684119,23.8823581 L456.684119,27.0286026 L466.793194,27.0286026 L466.793194,23.8823581 L464.25829,23.8823581 L464.25829,15.1637118 C464.25829,11.4867249 462.665794,8.9090393 458.843805,8.9090393 C455.584642,8.9090393 453.651832,10.9560262 452.404014,13.9506987 L452.404014,9.28812227 L444.602967,9.28812227 L444.602967,12.4344105 L447.216405,12.4344105 L447.216405,23.8823581 L444.602967,23.8823581 L444.602967,27.0286026 Z" id="Fill-24"></path>
                <path d="M484.681501,18.8786026 C484.947644,13.1167249 482.146597,8.87113537 476.160558,8.87113537 C470.820244,8.87113537 466.84555,12.9272052 466.84555,18.31 C466.84555,23.7686026 470.440663,27.4076856 476.352531,27.4076856 C481.313264,27.4076856 483.813264,24.9816594 484.493892,21.2667686 L481.54014,21.2667686 C480.746073,23.5032751 479.419721,24.3751092 477.299302,24.3751092 C474.493892,24.3751092 472.827225,23.0104803 472.600349,18.8786026 L484.681501,18.8786026 Z M476.04712,11.448821 C478.093368,11.448821 479.079407,12.8893013 479.267016,16.4904803 L472.639616,16.4904803 C472.866492,12.699738 474.079407,11.448821 476.04712,11.448821 L476.04712,11.448821 Z" id="Fill-25"></path>
                <path d="M488.093368,5.30786026 L488.093368,9.47764192 L484.834206,9.47764192 L484.834206,12.4344105 L487.97993,12.4344105 L487.97993,21.3425764 C487.97993,25.3986026 489.873473,27.4076856 493.734729,27.4076856 C497.294939,27.4076856 499.153578,25.550262 499.986911,21.228821 L497.713787,20.5844105 C497.028796,23.0483843 496.500873,23.920262 495.366492,23.920262 C494.075044,23.920262 493.507853,23.0104803 493.507853,21.3804803 L493.507853,12.4344105 L499.188482,12.4344105 L499.188482,9.47764192 L493.507853,9.47764192 L493.507853,4.66344978 L488.093368,5.30786026 Z" id="Fill-26"></path>
            </g>
        </g>
    </g>
</svg>