<?xml version="1.0" encoding="UTF-8"?>
<svg width="451px" height="41px" viewBox="0 0 451 41" version="1.1" xmlns="http://www.w3.org/2000/svg" xmlns:xlink="http://www.w3.org/1999/xlink">
    <!-- Generator: Sketch 49.3 (51167) - http://www.bohemiancoding.com/sketch -->
    <title>11</title>
    <desc>Created with Sketch.</desc>
    <defs>
        <linearGradient x1="50%" y1="0%" x2="50%" y2="100%" id="linearGradient-1">
            <stop stop-color="#ED3970" offset="0%"></stop>
            <stop stop-color="#C91879" offset="100%"></stop>
        </linearGradient>
    </defs>
    <g id="Page-1" stroke="none" stroke-width="1" fill="none" fill-rule="evenodd">
        <g id="11" transform="translate(0.000000, 0.862382)" fill="url(#linearGradient-1)">
            <path d="M21.8550452,28.3661786 L19.9387364,22.7386948 L9.67279661,22.7386948 L7.75648784,28.3661786 L11.543479,28.3661786 L11.543479,32.346594 L0,32.346594 L0,28.3661786 L3.28510073,28.3661786 L12.9578973,2.05883554 L20.4406268,2.05883554 L29.9765442,28.3661786 L33.5354033,28.3661786 L33.5354033,32.346594 L17.7942956,32.346594 L17.7942956,28.3661786 L21.8550452,28.3661786 Z M14.7829533,7.86932697 L10.9047094,19.1242946 L18.75245,19.1242946 L14.9654589,7.86932697 L14.7829533,7.86932697 Z M35.9454046,6.13075473 L42.4699797,5.35297242 L42.4699797,11.1634638 L49.3139396,11.1634638 L49.3139396,14.7321121 L42.4699797,14.7321121 L42.4699797,25.5295608 C42.4699797,27.4968925 43.1543757,28.5949381 44.7056733,28.5949381 C46.0744652,28.5949381 46.7132348,27.5426444 47.53451,24.5687708 L50.2720939,25.3465531 C49.2683132,30.5622699 47.0326196,32.804113 42.7437381,32.804113 C38.0898454,32.804113 35.8085254,30.3792623 35.8085254,25.4838089 L35.8085254,14.7321121 L32.0215343,14.7321121 L32.0215343,11.1634638 L35.9454046,11.1634638 L35.9454046,6.13075473 Z M63.1118264,32.804113 C56.3134929,32.804113 51.5683474,28.3661786 51.5683474,21.732153 C51.5683474,15.1438792 56.5416249,10.4314334 63.1574528,10.4314334 C69.9101598,10.4314334 74.6553053,14.9151197 74.6553053,21.5033935 C74.6553053,28.1374191 69.6820278,32.804113 63.1118264,32.804113 Z M63.2487056,29.6929837 C66.1687951,29.6929837 67.3550815,27.3596368 67.3550815,21.5948973 C67.3550815,15.8301577 65.9406631,13.5425627 62.9749472,13.5425627 C60.100484,13.5425627 58.8685713,15.8759096 58.8685713,21.6406492 C58.8685713,27.4511406 60.328616,29.6929837 63.2487056,29.6929837 Z M89.4944015,28.64069 C92.0494798,28.64069 93.1901398,26.0785836 93.1901398,21.3661378 C93.1901398,16.9282034 91.958227,14.6863602 89.4031487,14.6863602 C86.7568175,14.6863602 85.0230144,17.8432414 85.0230144,21.7779049 C85.0230144,25.6210646 86.4374327,28.64069 89.4944015,28.64069 Z M75.6239761,39.7126501 L75.6239761,35.9152423 L78.7265713,35.9152423 L78.7265713,14.7321121 L75.6239761,14.7321121 L75.6239761,10.9347043 L85.0230144,10.9347043 L85.0230144,15.9674134 C86.3005535,12.5817728 88.6274999,10.4314334 92.1407326,10.4314334 C94.3764262,10.4314334 96.1102293,11.3007195 97.4790213,12.6732766 C99.4409565,14.6406083 100.399111,17.6602338 100.399111,21.274634 C100.399111,25.0262898 99.3040773,28.0001634 97.3877685,29.9217432 C95.8364709,31.4773079 94.0570414,32.346594 91.8669742,32.346594 C88.7187527,32.346594 86.5286855,30.8367813 85.433652,28.7779457 L85.433652,35.9152423 L89.3575223,35.9152423 L89.3575223,39.7126501 L75.6239761,39.7126501 Z M108.740544,7.77782317 C111.158743,7.77782317 112.84692,6.08500283 112.84692,3.84315968 C112.84692,1.64706844 111.20437,0 108.740544,0 C106.322345,0 104.679795,1.73857224 104.679795,3.98041539 C104.679795,6.22225853 106.276718,7.77782317 108.740544,7.77782317 Z M102.261595,32.346594 L115.858262,32.346594 L115.858262,28.5491862 L112.390656,28.5491862 L112.390656,10.9347043 L102.261595,10.9347043 L102.261595,14.7321121 L105.729202,14.7321121 L105.729202,28.5491862 L102.261595,28.5491862 L102.261595,32.346594 Z M128.096654,32.804113 C133.480569,32.804113 136.674417,29.6014799 137.678197,24.9805379 L134.119338,24.9805379 C133.252437,27.4511406 131.56426,28.9152014 129.100434,28.9152014 C125.541575,28.9152014 123.716519,25.9870798 123.716519,21.5033935 C123.716519,16.5621882 125.952213,13.7255703 128.963555,13.7255703 C130.742985,13.7255703 131.838018,14.3660969 132.476788,15.1896311 C131.518634,15.5556463 130.560479,16.6079401 130.560479,18.0720009 C130.560479,19.8105731 131.746766,21.3203859 133.982459,21.3203859 C136.355032,21.3203859 137.632571,19.6733174 137.632571,17.3857224 C137.632571,14.1373374 134.48435,10.4314334 128.324786,10.4314334 C121.389573,10.4314334 116.553175,15.0981273 116.553175,22.0066644 C116.553175,28.4576824 120.842056,32.804113 128.096654,32.804113 Z M139.434749,32.346594 L139.434749,28.3661786 L143.541125,28.3661786 L143.541125,6.22225853 L139.434749,6.22225853 L139.434749,2.24184315 L152.894537,2.24184315 C165.076786,2.24184315 170.825712,8.18959028 170.825712,17.111211 C170.825712,25.9870798 165.259291,32.346594 153.168296,32.346594 L139.434749,32.346594 Z M150.978228,28.4576824 L153.578933,28.4576824 C160.194761,28.4576824 162.704213,25.5753127 162.704213,17.1569629 C162.704213,9.1961321 160.057882,6.13075473 153.259548,6.13075473 L150.978228,6.13075473 L150.978228,28.4576824 Z M194.360736,22.5099353 L179.805915,22.5099353 C180.079673,27.4968925 182.087235,29.1439609 185.463588,29.1439609 C188.018667,29.1439609 189.615591,28.0916672 190.573745,25.392305 L194.132604,25.392305 C193.311329,29.8759913 190.299987,32.804113 184.322928,32.804113 C177.20521,32.804113 172.870702,28.4119305 172.870702,21.8236568 C172.870702,15.3268868 177.661474,10.4314334 184.094796,10.4314334 C191.303767,10.4314334 194.680121,15.5556463 194.360736,22.5099353 Z M183.957917,13.5425627 C181.585344,13.5425627 180.1253,15.0523754 179.851541,19.6275655 L187.836161,19.6275655 C187.608029,15.2811349 186.421743,13.5425627 183.957917,13.5425627 Z M196.131968,32.346594 L209.91114,32.346594 L209.91114,28.5491862 L205.941644,28.5491862 L205.941644,19.1242946 C206.717292,16.4706844 208.222964,15.0981273 209.454876,15.0066235 C209.454876,15.1438792 209.40925,15.2811349 209.40925,15.3726387 C209.40925,17.4772262 210.960548,18.6210237 212.968109,18.6210237 C214.930044,18.6210237 216.526968,16.9739553 216.526968,14.6863602 C216.526968,12.4445171 214.838791,10.4771853 212.19246,10.4771853 C209.272371,10.4771853 206.808545,12.4445171 205.531006,16.4249325 L205.531006,10.9347043 L196.131968,10.9347043 L196.131968,14.7321121 L199.280189,14.7321121 L199.280189,28.5491862 L196.131968,28.5491862 L196.131968,32.346594 Z M240.937092,16.150421 C240.480828,12.6275247 238.564519,10.4771853 234.914407,10.4771853 C231.218669,10.4771853 228.891722,12.947788 227.386051,16.5621882 L227.386051,10.9347043 L217.987013,10.9347043 L217.987013,14.7321121 L221.135235,14.7321121 L221.135235,28.5491862 L217.987013,28.5491862 L217.987013,32.346594 L229.986756,32.346594 L229.986756,28.5491862 L227.796689,28.5491862 L227.796689,20.1765883 C227.796689,17.111211 229.758624,14.9608716 231.674933,14.9608716 C232.496208,14.9608716 233.134978,15.1896311 233.545615,15.6471501 C234.230011,16.3334287 234.549396,17.4772262 234.549396,18.941287 L234.549396,28.5491862 L232.268076,28.5491862 L232.268076,32.346594 L243.400917,32.346594 L243.400917,28.5491862 L241.21085,28.5491862 L241.21085,20.1765883 C241.21085,17.111211 243.172785,14.9608716 245.089094,14.9608716 C245.955996,14.9608716 246.549139,15.1896311 247.005403,15.6471501 C247.689799,16.3334287 247.963557,17.4772262 247.963557,18.941287 L247.963557,28.5491862 L245.682237,28.5491862 L245.682237,32.346594 L257.727607,32.346594 L257.727607,28.5491862 L254.625011,28.5491862 L254.625011,18.026249 C254.625011,13.5883146 252.799956,10.4771853 248.328568,10.4771853 C244.769709,10.4771853 242.488389,12.7190285 240.937092,16.150421 Z M265.822194,32.7583611 C262.035202,32.7583611 259.297618,30.5622699 259.297618,27.0851254 C259.297618,25.6668165 259.845135,24.3400113 260.80329,23.3792214 C262.217708,21.9609125 264.407775,21.0458745 269.654811,20.3595959 C272.164263,19.9935807 272.392395,19.9478288 272.392395,19.398806 L272.392395,17.5229781 C272.392395,14.777864 271.114856,13.7713222 268.468525,13.7713222 C267.555997,13.7713222 266.597842,13.9543298 265.730941,14.320345 C266.415337,14.8236159 266.825974,15.6013982 266.825974,16.653692 C266.825974,18.2550085 265.457182,19.4903098 263.5865,19.4903098 C261.259554,19.4903098 260.118894,17.9804971 260.118894,16.2876768 C260.118894,12.3530133 265.000918,10.4771853 270.247954,10.4771853 C276.681277,10.4771853 278.962596,13.4968108 278.962596,17.9347452 L278.962596,27.6799001 C278.962596,28.7321938 279.373234,28.9609533 280.103256,28.9609533 C280.605147,28.9609533 281.107037,28.4576824 281.517675,26.9021178 L283.753368,27.6341482 C282.886467,31.1570446 281.19829,32.7583611 278.141321,32.7583611 C275.540617,32.7583611 273.487429,31.3858041 273.122417,28.2289229 L272.894285,28.2289229 C271.525493,31.4773079 268.970415,32.7583611 265.822194,32.7583611 Z M268.924789,28.8694495 C270.977977,28.8694495 272.392395,26.9478697 272.392395,24.2027556 L272.392395,22.0981682 C271.981757,22.189672 271.479867,22.2354239 270.339207,22.4641834 C267.099733,23.0132062 266.095952,24.0654999 266.095952,26.1243355 C266.095952,27.5883963 266.917227,28.8694495 268.924789,28.8694495 Z M285.889611,6.13075473 L292.414186,5.35297242 L292.414186,11.1634638 L299.258146,11.1634638 L299.258146,14.7321121 L292.414186,14.7321121 L292.414186,25.5295608 C292.414186,27.4968925 293.098582,28.5949381 294.64988,28.5949381 C296.018672,28.5949381 296.657441,27.5426444 297.478717,24.5687708 L300.216301,25.3465531 C299.21252,30.5622699 296.976826,32.804113 292.687945,32.804113 C288.034052,32.804113 285.752732,30.3792623 285.752732,25.4838089 L285.752732,14.7321121 L281.965741,14.7321121 L281.965741,11.1634638 L285.889611,11.1634638 L285.889611,6.13075473 Z M308.128382,7.77782317 C310.546581,7.77782317 312.234758,6.08500283 312.234758,3.84315968 C312.234758,1.64706844 310.592207,0 308.128382,0 C305.710183,0 304.067632,1.73857224 304.067632,3.98041539 C304.067632,6.22225853 305.664556,7.77782317 308.128382,7.77782317 Z M301.649433,32.346594 L315.2461,32.346594 L315.2461,28.5491862 L311.778494,28.5491862 L311.778494,10.9347043 L301.649433,10.9347043 L301.649433,14.7321121 L305.11704,14.7321121 L305.11704,28.5491862 L301.649433,28.5491862 L301.649433,32.346594 Z M319.207399,6.13075473 L319.207399,11.1634638 L315.283529,11.1634638 L315.283529,14.7321121 L319.07052,14.7321121 L319.07052,25.4838089 C319.07052,30.3792623 321.35184,32.804113 326.005733,32.804113 C330.294614,32.804113 332.530308,30.5622699 333.534088,25.3465531 L330.796504,24.5687708 C329.975229,27.5426444 329.33646,28.5949381 327.967668,28.5949381 C326.41637,28.5949381 325.731974,27.4968925 325.731974,25.5295608 L325.731974,14.7321121 L332.575934,14.7321121 L332.575934,11.1634638 L325.731974,11.1634638 L325.731974,5.35297242 L319.207399,6.13075473 Z M341.44617,7.77782317 C343.864369,7.77782317 345.552546,6.08500283 345.552546,3.84315968 C345.552546,1.64706844 343.909995,0 341.44617,0 C339.027971,0 337.38542,1.73857224 337.38542,3.98041539 C337.38542,6.22225853 338.982344,7.77782317 341.44617,7.77782317 Z M334.967221,32.346594 L348.563888,32.346594 L348.563888,28.5491862 L345.096282,28.5491862 L345.096282,10.9347043 L334.967221,10.9347043 L334.967221,14.7321121 L338.434827,14.7321121 L338.434827,28.5491862 L334.967221,28.5491862 L334.967221,32.346594 Z M350.453285,32.7583611 L353.966517,32.7583611 L354.69654,29.8759913 C356.065332,31.431556 358.301025,32.804113 361.631752,32.804113 C366.833162,32.804113 369.707625,29.4642242 369.707625,25.7583203 C369.707625,21.5033935 366.559403,19.9935807 361.905511,18.7582794 C357.844761,17.7059857 356.612848,17.111211 356.612848,15.5556463 C356.612848,14.320345 357.525376,13.4968108 359.304806,13.4968108 C361.586126,13.4968108 363.776193,15.2811349 365.418743,17.8432414 L368.931976,17.8432414 L368.931976,10.5229372 L365.373117,10.5229372 L364.643095,13.0850437 C363.319929,11.4837271 361.312368,10.4314334 358.529157,10.4314334 C353.784012,10.4314334 350.772669,13.5883146 350.772669,17.3399705 C350.772669,21.1831302 353.282121,22.8301986 358.392278,24.1570037 C362.635533,25.2550493 363.82182,25.895576 363.82182,27.5426444 C363.82182,28.8694495 362.954918,29.7387356 361.038609,29.7387356 C358.437904,29.7387356 355.8372,27.7714039 353.966517,24.8890341 L350.453285,24.8890341 L350.453285,32.7583611 Z M376.02277,33.1243763 C378.349717,33.1243763 380.129146,31.2943003 380.129146,29.0524571 C380.129146,26.810614 378.349717,25.0262898 376.068397,25.0262898 C373.74145,25.0262898 371.962021,26.810614 371.962021,29.098209 C371.962021,31.3400522 373.74145,33.1243763 376.02277,33.1243763 Z M435.741463,6.13075473 L435.741463,11.1634638 L431.817592,11.1634638 L431.817592,14.7321121 L435.604583,14.7321121 L435.604583,25.4838089 C435.604583,30.3792623 437.885903,32.804113 442.539796,32.804113 C446.828677,32.804113 449.064371,30.5622699 450.068152,25.3465531 L447.330568,24.5687708 C446.509293,27.5426444 445.870523,28.5949381 444.501731,28.5949381 C442.950434,28.5949381 442.266038,27.4968925 442.266038,25.5295608 L442.266038,14.7321121 L449.109997,14.7321121 L449.109997,11.1634638 L442.266038,11.1634638 L442.266038,5.35297242 L435.741463,6.13075473 Z M421.221787,13.5425627 C418.849215,13.5425627 417.38917,15.0523754 417.115411,19.6275655 L425.100031,19.6275655 C424.871899,15.2811349 423.685613,13.5425627 421.221787,13.5425627 Z M431.624606,22.5099353 L417.069785,22.5099353 C417.343543,27.4968925 419.351105,29.1439609 422.727458,29.1439609 C425.282537,29.1439609 426.879461,28.0916672 427.837615,25.392305 L431.396474,25.392305 C430.575199,29.8759913 427.563857,32.804113 421.586798,32.804113 C414.46908,32.804113 410.134572,28.4119305 410.134572,21.8236568 C410.134572,15.3268868 414.925344,10.4314334 421.358666,10.4314334 C428.567638,10.4314334 431.943991,15.5556463 431.624606,22.5099353 Z M383.185814,32.346594 L395.368063,32.346594 L395.368063,28.5491862 L392.99549,28.5491862 L392.99549,20.1765883 C392.99549,17.111211 394.957425,14.9608716 397.101866,14.9608716 C398.014394,14.9608716 398.69879,15.235383 399.20068,15.692902 C399.885076,16.3791806 400.158835,17.5229781 400.158835,18.941287 L400.158835,28.5491862 L397.740636,28.5491862 L397.740636,32.346594 L409.922884,32.346594 L409.922884,28.5491862 L406.865915,28.5491862 L406.865915,18.026249 C406.865915,13.5883146 404.949607,10.4771853 400.34134,10.4771853 C396.41747,10.4771853 394.090524,12.947788 392.584852,16.5621882 L392.584852,10.9347043 L383.185814,10.9347043 L383.185814,14.7321121 L386.334036,14.7321121 L386.334036,28.5491862 L383.185814,28.5491862 L383.185814,32.346594 Z" id="AtopicDermatitis.com"></path>
        </g>
    </g>
</svg>