<?xml version="1.0" encoding="UTF-8"?>
<svg width="304px" height="41px" viewBox="0 0 304 41" version="1.1" xmlns="http://www.w3.org/2000/svg" xmlns:xlink="http://www.w3.org/1999/xlink">
    <!-- Generator: Sketch 49.3 (51167) - http://www.bohemiancoding.com/sketch -->
    <title>12</title>
    <desc>Created with Sketch.</desc>
    <defs>
        <linearGradient x1="50%" y1="0%" x2="50%" y2="100%" id="linearGradient-1">
            <stop stop-color="#6B96C6" offset="0%"></stop>
            <stop stop-color="#678EB4" offset="100%"></stop>
        </linearGradient>
    </defs>
    <g id="Page-1" stroke="none" stroke-width="1" fill="none" fill-rule="evenodd">
        <g id="12" transform="translate(0.000000, 0.862382)" fill="url(#linearGradient-1)">
            <path d="M16.0761561,1.62222222 L4.17489905,33.9454545 L0.0739538039,33.9454545 L0.0739538039,38.7939394 L14.1998355,38.7939394 L14.1998355,33.9454545 L9.67672815,33.9454545 L12.0345396,27.0767677 L24.6650958,27.0767677 L27.0225036,33.9454545 L21.8681712,33.9454545 L21.8681712,38.7939394 L41.2404053,38.7939394 L41.2404053,33.9454545 L37.0151523,33.9454545 L25.282195,1.62222222 L16.0761561,1.62222222 L16.0761561,1.62222222 Z M18.3217677,8.89494949 L18.5457639,8.89494949 L23.2052868,22.6323232 L13.5496413,22.6323232 L18.3217677,8.89494949 L18.3217677,8.89494949 Z" id="Shape"></path>
            <path d="M43.2830078,20.5090909 C43.2830078,25.229899 46.3705219,27.2610101 52.6577501,28.8905051 C57.8790795,30.239596 59.3384849,31.0428283 59.3384849,33.0662626 C59.3384849,34.6957576 58.2721826,35.7967677 55.913564,35.7967677 C52.71385,35.7967677 49.514136,33.1373737 47.2124245,29.9050505 L42.8547918,29.9050505 L42.8547918,39.6016162 L47.2124245,39.6016162 L48.1108306,35.9785859 C49.7950393,37.8892929 52.5459538,39.4925253 56.6440739,39.4925253 C63.0430983,39.4925253 66.5798154,35.3866667 66.5798154,30.8347475 C66.5798154,25.6084848 62.7064987,23.7466667 56.9806735,22.229899 C51.9845509,20.9369697 50.468642,20.1943434 50.468642,18.2832323 C50.468642,16.7660606 51.5918514,15.7288889 53.7813631,15.7288889 C56.5875703,15.7288889 59.282385,17.7834343 61.3027896,21.0161616 L65.456606,21.0161616 L65.456606,12.1272727 L61.2470933,12.1272727 L60.3486872,15.2763636 C58.7209821,13.3094949 56.2505672,12.0185859 52.8264535,12.0185859 C46.9884284,12.0185859 43.2830078,15.9006061 43.2830078,20.5090909 L43.2830078,20.5090909 Z" id="Shape"></path>
            <path d="M72.3177486,6.73252525 L72.3177486,12.9353535 L67.4741855,12.9353535 L67.4741855,17.379798 L72.3177486,17.379798 L72.3177486,30.5038384 C72.3177486,36.5171717 75.05373,39.4953535 80.7799589,39.4953535 C86.0569847,39.4953535 88.7368662,36.7422222 89.9714683,30.3353535 L86.6058761,29.379798 C85.5956737,33.0331313 84.8143107,34.3256566 83.130102,34.3256566 C81.2214936,34.3256566 80.3892773,32.9769697 80.3892773,30.560404 L80.3892773,17.379798 L88.8648063,17.379798 L88.8648063,12.9353535 L80.3892773,12.9353535 L80.3892773,5.77656566 L72.3177486,6.73252525 L72.3177486,6.73252525 Z" id="Shape"></path>
            <path d="M91.286386,0.00565656566 L91.286386,4.85454545 L94.9187556,4.85454545 L94.9187556,34.3494949 L91.286386,34.3494949 L91.286386,38.7939394 L106.219461,38.7939394 L106.219461,34.3494949 L103.394285,34.3494949 L103.394285,23.9850505 C103.394285,20.219798 105.688731,17.5781818 108.271346,17.5781818 C109.449848,17.5781818 110.171883,17.9151515 110.788578,18.4775758 C111.631288,19.3208081 111.869814,20.7256566 111.869814,22.4674747 L111.869814,34.3494949 L109.045041,34.3494949 L109.045041,38.7939394 L123.977712,38.7939394 L123.977712,34.3494949 L120.345343,34.3494949 L120.345343,21.3438384 C120.345343,15.8925253 118.045245,12.0707071 112.37552,12.0707071 C108.1091,12.0707071 105.412671,14.5438384 103.394285,18.5337374 L103.394285,0.00565656566 L91.286386,0.00565656566 L91.286386,0.00565656566 Z" id="Shape"></path>
            <path d="M154.285397,19.039596 C153.723994,14.7119192 151.369411,12.0707071 146.878995,12.0707071 C142.331268,12.0707071 139.314384,15.1058586 137.700401,19.5454545 L137.700401,12.5313131 L125.995695,12.5313131 L125.995695,17.379798 L130.031661,17.379798 L130.031661,34.3494949 L125.995695,34.3494949 L125.995695,38.7939394 L140.92877,38.7939394 L140.92877,34.3494949 L138.103997,34.3494949 L138.103997,23.9850505 C138.103997,20.219798 140.441629,17.5781818 142.800248,17.5781818 C143.81045,17.5781818 144.521184,17.8593939 145.026487,18.4214141 C145.868389,19.2638384 146.175526,20.6690909 146.175526,22.4674747 L146.175526,34.3494949 L143.35035,34.3494949 L143.35035,38.7939394 L157.072635,38.7939394 L157.072635,34.3494949 L154.651055,34.3494949 L154.651055,23.9850505 C154.651055,20.219798 156.979,17.5781818 159.335601,17.5781818 C160.403518,17.5781818 161.046447,17.8593939 161.608657,18.4214141 C162.449753,19.2638384 162.722988,20.6690909 162.722988,22.4674747 L162.722988,34.3494949 L159.898215,34.3494949 L159.898215,38.7939394 L174.830886,38.7939394 L174.830886,34.3494949 L171.198517,34.3494949 L171.198517,21.3438384 C171.198517,15.8925253 168.877029,12.0707071 163.3752,12.0707071 C158.996984,12.0707071 156.193601,14.8246465 154.285397,19.039596 L154.285397,19.039596 Z" id="Shape"></path>
            <path d="M177.364666,19.2080808 C177.364666,21.2880808 178.772007,23.1422222 181.635122,23.1422222 C183.937237,23.1422222 185.629114,21.6242424 185.629114,19.6573737 C185.629114,18.3648485 185.139551,17.409697 184.298052,16.7915152 C185.364354,16.3426263 186.575548,16.1171717 187.697143,16.1171717 C190.953764,16.1171717 192.589541,17.3539394 192.589541,20.7256566 L192.589541,23.0294949 C192.589541,23.7038384 192.244466,23.76 189.156952,24.209697 C182.702231,25.0525253 179.943244,26.1765657 178.202936,27.9187879 C177.023627,29.0989899 176.350427,30.7288889 176.350427,32.4707071 C176.350427,36.7422222 179.718441,39.4739394 184.377964,39.4739394 C188.250877,39.4739394 191.394895,37.9858586 193.079104,33.9454545 L193.360007,33.9454545 C193.80921,37.5818182 196.341779,39.4739394 199.5423,39.4739394 C203.303417,39.4739394 205.387993,37.4727273 206.454296,33.1450505 L203.718314,32.2456566 C203.213011,34.1571717 202.62376,34.7757576 202.006661,34.7757576 C201.107851,34.7757576 200.66107,34.4941414 200.66107,33.2012121 L200.66107,21.2311111 C200.66107,15.779798 197.798763,12.0707071 189.883426,12.0707071 C183.427898,12.0707071 177.364666,14.3749495 177.364666,19.2080808 L177.364666,19.2080808 Z M184.747255,31.2905051 C184.747255,28.7616162 186.013338,27.4690909 189.999258,26.7947475 C191.40216,26.5139394 191.781944,26.4573737 192.589541,26.3454545 L192.589541,28.9309091 C192.589541,32.3018182 190.801204,34.6626263 188.274286,34.6626263 C185.804678,34.6626263 184.747255,33.0888889 184.747255,31.2905051 L184.747255,31.2905051 Z" id="Shape"></path>
            <path d="M208.303575,34.9434343 C208.303575,37.6973737 210.493491,39.8888889 213.300101,39.8888889 C216.163619,39.8888889 218.352728,37.6416162 218.352728,34.8876768 C218.352728,32.1337374 216.163619,29.9422222 213.356201,29.9422222 C210.493491,29.9422222 208.303575,32.1337374 208.303575,34.9434343 L208.303575,34.9434343 Z" id="Shape"></path>
            <path d="M232.545606,19.5454545 L232.545606,12.5313131 L221.244901,12.5313131 L221.244901,17.379798 L224.87727,17.379798 L224.87727,34.3494949 L221.244901,34.3494949 L221.244901,38.7939394 L236.177976,38.7939394 L236.177976,34.3494949 L233.352396,34.3494949 L233.352396,23.9850505 C233.352396,20.219798 235.643614,17.5781818 238.282329,17.5781818 C239.404327,17.5781818 240.123536,17.9151515 240.740232,18.4775758 C241.582942,19.3208081 241.827925,20.7256566 241.827925,22.4674747 L241.827925,34.3494949 L239.002749,34.3494949 L239.002749,38.7939394 L253.936227,38.7939394 L253.936227,34.3494949 L250.303857,34.3494949 L250.303857,21.3438384 C250.303857,15.8925253 247.852412,12.0707071 242.182283,12.0707071 C237.355267,12.0707071 234.563186,15.1058586 232.545606,19.5454545 L232.545606,19.5454545 Z" id="Shape"></path>
            <path d="M254.646557,25.9870707 C254.646557,34.08 259.979683,39.4541414 268.736519,39.4541414 C276.090856,39.4541414 279.79547,35.9652525 280.806075,30.3090909 L276.427052,30.3090909 C275.248954,33.5414141 273.283035,34.8694949 270.139824,34.8694949 C265.985604,34.8694949 263.5164,33.1373737 263.179397,26.6727273 L281.087382,26.6727273 C281.480485,18.1874747 277.325458,11.9151515 268.456423,11.9151515 C260.540682,11.9151515 254.646557,18.0076768 254.646557,25.9870707 L254.646557,25.9870707 Z M268.287316,15.9656566 C271.31873,15.9656566 272.778135,17.7834343 273.059442,23.440404 L263.235497,23.440404 C263.5725,17.7834343 265.368505,15.9656566 268.287316,15.9656566 L268.287316,15.9656566 Z" id="Shape"></path>
            <path d="M286.223553,6.73252525 L286.223553,12.9353535 L281.380393,12.9353535 L281.380393,17.379798 L286.223553,17.379798 L286.223553,30.5038384 C286.223553,36.5171717 289.016845,39.4953535 294.743074,39.4953535 C300.019293,39.4953535 302.758099,36.7422222 303.992298,30.3353535 L300.610562,29.379798 C299.599552,33.0331313 298.786305,34.3256566 297.101693,34.3256566 C295.193084,34.3256566 294.295889,32.9769697 294.295889,30.560404 L294.295889,17.379798 L302.771014,17.379798 L302.771014,12.9353535 L294.295889,12.9353535 L294.295889,5.77656566 L286.223553,6.73252525 L286.223553,6.73252525 Z" id="Shape"></path>
        </g>
    </g>
</svg>