<?xml version="1.0" encoding="UTF-8"?>
<svg width="500px" height="59px" viewBox="0 0 500 59" version="1.1" xmlns="http://www.w3.org/2000/svg" xmlns:xlink="http://www.w3.org/1999/xlink">
    <!-- Generator: Sketch 49.2 (51160) - http://www.bohemiancoding.com/sketch -->
    <title>masthead</title>
    <desc>Created with Sketch.</desc>
    <defs>
        <linearGradient x1="50%" y1="0%" x2="50%" y2="123.768185%" id="linearGradient-1">
            <stop stop-color="#80D2E5" offset="0%"></stop>
            <stop stop-color="#7DB6FF" offset="100%"></stop>
        </linearGradient>
    </defs>
    <g id="Page-1" stroke="none" stroke-width="1" fill="none" fill-rule="evenodd">
        <g id="lungcancer.net" transform="translate(-56.000000, -140.000000)" fill="url(#linearGradient-1)">
            <g id="masthead" transform="translate(56.000000, 140.000000)">
                <path d="M0,1.09895699 L0,7.07453561 L6.18163305,7.07453561 L6.18163305,40.3179845 L0,40.3179845 L0,46.2935631 L40.0432452,46.2935631 L40.0432452,27.6112943 L34.6171451,27.6112943 C31.6636982,39.0816579 30.4960564,40.4553541 25.0699563,40.4553541 L17.3772574,40.4553541 L17.3772574,6.93716598 L24.1770537,6.93716598 L24.1770537,1.09895699 L0,1.09895699 Z M55.6596052,46.9117264 C61.4978142,46.9117264 65.0007396,43.2027466 67.2673383,37.8453313 L67.2673383,46.2935631 L81.3477247,46.2935631 L81.3477247,40.5927237 L76.6771576,40.5927237 L76.6771576,14.1490712 L61.909923,14.1490712 L61.909923,19.8499106 L66.649175,19.8499106 L66.649175,32.3505463 C66.649175,37.0211135 63.6957281,40.2492997 60.6049116,40.2492997 C59.1625306,40.2492997 58.1322584,39.768506 57.5140951,39.1503427 C56.4838229,38.0513857 56.071714,36.4029502 56.071714,34.273721 L56.071714,14.1490712 L41.3731643,14.1490712 L41.3731643,19.8499106 L46.0437315,19.8499106 L46.0437315,35.6474173 C46.0437315,42.2411592 48.8598088,46.9117264 55.6596052,46.9117264 L55.6596052,46.9117264 Z M83.5018616,46.2935631 L101.840706,46.2935631 L101.840706,40.5927237 L98.2690961,40.5927237 L98.2690961,28.0234032 C98.2690961,23.4215208 101.222543,20.1933346 104.450729,20.1933346 C105.824425,20.1933346 106.854698,20.6054435 107.610231,21.2922916 C108.640503,22.3225638 109.052612,24.0396841 109.052612,26.1689133 L109.052612,40.5927237 L105.412317,40.5927237 L105.412317,46.2935631 L123.751161,46.2935631 L123.751161,40.5927237 L119.149279,40.5927237 L119.149279,24.795217 C119.149279,18.1327903 116.264517,13.4622231 109.327351,13.4622231 C103.420457,13.4622231 99.9175316,17.1712029 97.6509328,22.5973031 L97.6509328,14.1490712 L83.5018616,14.1490712 L83.5018616,19.8499106 L88.2411136,19.8499106 L88.2411136,40.5927237 L83.5018616,40.5927237 L83.5018616,46.2935631 Z M155.255601,23.69626 C155.255601,19.8499106 153.332427,16.9651485 149.898186,15.2480282 C150.859773,12.775375 152.23347,11.5390484 153.607166,11.4016787 C153.607166,11.676418 153.538481,12.0198421 153.538481,12.2945813 C153.538481,14.3551256 155.049547,15.9348763 157.453515,15.9348763 C160.132223,15.9348763 161.780658,14.0803864 161.780658,11.676418 C161.780658,9.20376477 159.994853,6.79979636 155.942449,6.79979636 C151.615306,6.79979636 148.318435,9.61587364 146.738685,14.0803864 C145.021564,13.5995927 143.029705,13.3935383 140.900476,13.3935383 C131.97145,13.3935383 126.888774,17.7893662 126.888774,23.6275752 C126.888774,28.2294576 129.704851,30.9768501 134.306734,32.1444919 C129.498797,32.6939704 126.270611,35.6474173 126.270611,38.8756034 C126.270611,41.4856263 128.193785,43.9582795 132.10882,44.7824972 L132.10882,45.1259213 C127.232198,45.7440846 124.484806,48.0106834 124.484806,51.2388695 C124.484806,55.4973279 129.155373,58.2447203 139.595464,58.2447203 C153.538481,58.2447203 159.37669,53.5054683 159.37669,47.049096 C159.37669,41.96642 155.942449,38.4634946 147.494218,38.4634946 L138.633877,38.4634946 C134.993582,38.4634946 133.68857,37.6392768 133.68857,36.1968958 C133.68857,34.9605692 134.993582,33.930297 136.985441,33.930297 C138.221768,33.930297 140.007573,34.0676666 141.381269,34.0676666 C150.310295,34.0676666 155.255601,30.3586868 155.255601,23.69626 L155.255601,23.69626 Z M140.694421,53.6428379 C133.413831,53.6428379 131.215917,51.9257177 131.215917,49.8651733 C131.215917,47.9419986 133.001722,46.4996175 136.779387,46.4996175 L145.021564,46.4996175 C149.005283,46.4996175 150.447664,47.5985745 150.447664,49.3156948 C150.447664,51.8570328 147.562902,53.6428379 140.694421,53.6428379 L140.694421,53.6428379 Z M141.2439,30.633426 C138.084398,30.633426 136.504648,28.5041969 136.504648,23.9023145 C136.504648,19.3004321 137.809659,17.1025181 140.900476,17.1025181 C144.059977,17.1025181 145.571043,19.5751713 145.571043,23.9023145 C145.571043,28.5041969 144.266031,30.633426 141.2439,30.633426 L141.2439,30.633426 Z M184.905551,47.3925201 C197.131448,47.3925201 203.793875,39.9058756 204.961516,28.2294576 L198.367774,28.2294576 C197.200133,35.7847869 193.285098,40.9361478 186.485302,40.9361478 C178.723918,40.9361478 173.984666,35.6474173 173.984666,23.2841512 C173.984666,10.3714066 178.517864,5.63215456 184.974236,5.63215456 C190.675076,5.63215456 194.521425,9.82192808 197.268817,18.1327903 L204.068614,18.1327903 L204.068614,0.137369623 L197.886981,0.137369623 L196.4446,5.35741531 C193.697207,1.99185954 189.370064,1.42108547e-14 183.60054,1.42108547e-14 C171.786752,1.42108547e-14 161.75877,9.89061289 161.75877,23.9709993 C161.75877,37.9140161 170.825165,47.3925201 184.905551,47.3925201 L184.905551,47.3925201 Z M216.915693,46.9117264 C221.654945,46.9117264 225.501294,44.9885517 227.561839,40.11193 L227.905263,40.11193 C228.454741,44.8511821 231.545558,46.9117264 235.460592,46.9117264 C240.062474,46.9117264 242.603812,44.507758 243.908824,39.2190275 L240.543268,38.1200705 C239.925105,40.4553541 239.169572,41.210887 238.414039,41.210887 C237.315082,41.210887 236.696919,40.867463 236.696919,39.2877123 L236.696919,24.6578474 C236.696919,17.9954207 233.262678,13.4622231 223.578119,13.4622231 C215.679366,13.4622231 208.330091,16.2783004 208.330091,22.1851942 C208.330091,24.7265322 210.047212,26.993131 213.550137,26.993131 C216.366214,26.993131 218.426759,25.1386411 218.426759,22.7346727 C218.426759,21.154922 217.808595,19.9872802 216.778323,19.2317473 C218.083335,18.6822688 219.525716,18.4075295 220.899412,18.4075295 C224.883131,18.4075295 226.806306,19.9185954 226.806306,24.0396841 L226.806306,26.8557614 C226.806306,27.6799791 226.462882,27.7486639 222.685217,28.2981424 C214.786464,29.3284146 211.489593,30.7021108 209.360363,32.83134 C207.917982,34.273721 207.093765,36.2655806 207.093765,38.3948097 C207.093765,43.6148554 211.214853,46.9117264 216.915693,46.9117264 L216.915693,46.9117264 Z M221.58626,41.0735174 C218.564128,41.0735174 217.327802,39.1503427 217.327802,36.9524287 C217.327802,33.8616122 218.838867,32.2818615 223.715489,31.4576438 C225.432609,31.1142197 226.188142,31.0455349 226.806306,30.9081653 L226.806306,34.0676666 C226.806306,38.1887553 224.677076,41.0735174 221.58626,41.0735174 L221.58626,41.0735174 Z M244.733041,46.2935631 L263.071886,46.2935631 L263.071886,40.5927237 L259.500276,40.5927237 L259.500276,28.0234032 C259.500276,23.4215208 262.453723,20.1933346 265.681909,20.1933346 C267.055605,20.1933346 268.085877,20.6054435 268.84141,21.2922916 C269.871683,22.3225638 270.283791,24.0396841 270.283791,26.1689133 L270.283791,40.5927237 L266.643496,40.5927237 L266.643496,46.2935631 L284.982341,46.2935631 L284.982341,40.5927237 L280.380459,40.5927237 L280.380459,24.795217 C280.380459,18.1327903 277.495697,13.4622231 270.558531,13.4622231 C264.651637,13.4622231 261.148711,17.1712029 258.882113,22.5973031 L258.882113,14.1490712 L244.733041,14.1490712 L244.733041,19.8499106 L249.472293,19.8499106 L249.472293,40.5927237 L244.733041,40.5927237 L244.733041,46.2935631 Z M303.39289,46.9804112 C311.497698,46.9804112 316.305634,42.1724744 317.8167,35.2353084 L312.459285,35.2353084 C311.154274,38.9442882 308.612935,41.1422022 304.903956,41.1422022 C299.54654,41.1422022 296.799148,36.7463743 296.799148,30.0152627 C296.799148,22.5973031 300.164704,18.3388447 304.697901,18.3388447 C307.376609,18.3388447 309.025044,19.3004321 309.986632,20.5367587 C308.544251,21.0862372 307.10187,22.6659879 307.10187,24.8639018 C307.10187,27.4739247 308.887675,29.7405235 312.253231,29.7405235 C315.824841,29.7405235 317.748015,27.2678703 317.748015,23.8336297 C317.748015,18.957008 313.008763,13.3935383 303.736314,13.3935383 C293.296222,13.3935383 286.015632,20.3993891 286.015632,30.7707956 C286.015632,40.4553541 292.472005,46.9804112 303.39289,46.9804112 L303.39289,46.9804112 Z M352.961435,31.5263286 C353.442229,21.0862372 348.359553,13.3935383 337.507353,13.3935383 C327.822794,13.3935383 320.610889,20.7428131 320.610889,30.4960564 C320.610889,40.3866693 327.135946,46.9804112 337.850777,46.9804112 C346.848487,46.9804112 351.381685,42.5845833 352.618011,35.8534717 L347.260596,35.8534717 C345.818215,39.9058756 343.414246,41.4856263 339.567897,41.4856263 C334.485221,41.4856263 331.463089,39.0129731 331.05098,31.5263286 L352.961435,31.5263286 Z M337.301298,18.0641055 C341.010278,18.0641055 342.796083,20.6741283 343.139507,27.1991854 L331.119665,27.1991854 C331.531774,20.3307043 333.729688,18.0641055 337.301298,18.0641055 L337.301298,18.0641055 Z M354.384947,46.2935631 L375.12776,46.2935631 L375.12776,40.5927237 L369.152181,40.5927237 L369.152181,26.4436525 C370.319823,22.4599334 372.586422,20.3993891 374.440912,20.2620195 C374.440912,20.4680739 374.372227,20.6741283 374.372227,20.8114979 C374.372227,23.9709993 376.707511,25.6881196 379.729642,25.6881196 C382.683089,25.6881196 385.087058,23.2154664 385.087058,19.7812258 C385.087058,16.41567 382.54572,13.4622231 378.562001,13.4622231 C374.166173,13.4622231 370.457193,16.41567 368.534018,22.3912486 L368.534018,14.1490712 L354.384947,14.1490712 L354.384947,19.8499106 L359.124199,19.8499106 L359.124199,40.5927237 L354.384947,40.5927237 L354.384947,46.2935631 Z M387.013252,47.4612049 C390.516177,47.4612049 393.194885,44.7138124 393.194885,41.3482567 C393.194885,37.9827009 390.516177,35.3039932 387.081936,35.3039932 C383.579011,35.3039932 380.900303,37.9827009 380.900303,41.4169415 C380.900303,44.7824972 383.579011,47.4612049 387.013252,47.4612049 L387.013252,47.4612049 Z M399.297015,46.2935631 L417.63586,46.2935631 L417.63586,40.5927237 L414.06425,40.5927237 L414.06425,28.0234032 C414.06425,23.4215208 417.017697,20.1933346 420.245883,20.1933346 C421.619579,20.1933346 422.649851,20.6054435 423.405384,21.2922916 C424.435657,22.3225638 424.847765,24.0396841 424.847765,26.1689133 L424.847765,40.5927237 L421.20747,40.5927237 L421.20747,46.2935631 L439.546315,46.2935631 L439.546315,40.5927237 L434.944433,40.5927237 L434.944433,24.795217 C434.944433,18.1327903 432.059671,13.4622231 425.122505,13.4622231 C419.215611,13.4622231 415.712685,17.1712029 413.446087,22.5973031 L413.446087,14.1490712 L399.297015,14.1490712 L399.297015,19.8499106 L404.036267,19.8499106 L404.036267,40.5927237 L399.297015,40.5927237 L399.297015,46.2935631 Z M471.813466,31.5263286 C472.29426,21.0862372 467.211584,13.3935383 456.359384,13.3935383 C446.674825,13.3935383 439.46292,20.7428131 439.46292,30.4960564 C439.46292,40.3866693 445.987977,46.9804112 456.702808,46.9804112 C465.700518,46.9804112 470.233716,42.5845833 471.470042,35.8534717 L466.112627,35.8534717 C464.670246,39.9058756 462.266278,41.4856263 458.419928,41.4856263 C453.337252,41.4856263 450.31512,39.0129731 449.903012,31.5263286 L471.813466,31.5263286 Z M456.153329,18.0641055 C459.862309,18.0641055 461.648114,20.6741283 461.991538,27.1991854 L449.971696,27.1991854 C450.383805,20.3307043 452.581719,18.0641055 456.153329,18.0641055 L456.153329,18.0641055 Z M478.168939,6.93716598 L478.168939,14.4924953 L472.262046,14.4924953 L472.262046,19.8499106 L477.962885,19.8499106 L477.962885,35.9908413 C477.962885,43.3401162 481.397126,46.9804112 488.402976,46.9804112 C494.859349,46.9804112 498.224904,43.6148554 499.73597,35.7847869 L495.614882,34.6171451 C494.378555,39.0816579 493.416968,40.6614085 491.356423,40.6614085 C489.02114,40.6614085 487.990867,39.0129731 487.990867,36.0595262 L487.990867,19.8499106 L498.293589,19.8499106 L498.293589,14.4924953 L487.990867,14.4924953 L487.990867,5.76952418 L478.168939,6.93716598 Z"></path>
            </g>
        </g>
    </g>
</svg>