<?xml version="1.0" encoding="UTF-8"?>
<svg width="501px" height="71px" viewBox="0 0 501 71" version="1.1" xmlns="http://www.w3.org/2000/svg" xmlns:xlink="http://www.w3.org/1999/xlink">
    <!-- Generator: Sketch 49.2 (51160) - http://www.bohemiancoding.com/sketch -->
    <title>masthead</title>
    <desc>Created with Sketch.</desc>
    <defs>
        <linearGradient x1="49.9999223%" y1="-97.647234%" x2="49.9999223%" y2="83.9567021%" id="linearGradient-1">
            <stop stop-color="#98B9E3" offset="0%"></stop>
            <stop stop-color="#1E7EBE" offset="100%"></stop>
        </linearGradient>
    </defs>
    <g id="Page-1" stroke="none" stroke-width="1" fill="none" fill-rule="evenodd">
        <g id="migraine.com" transform="translate(-56.000000, -117.000000)" fill="url(#linearGradient-1)">
            <g id="masthead" transform="translate(56.000000, 117.000000)">
                <polygon id="Shape" points="37.4501661 37.5614618 37.213732 37.5614618 26.0276855 5.72591362 0.253045404 5.72591362 0.253045404 12.8006645 7.32724252 12.8006645 7.32724252 50.6998893 0.253045404 50.6998893 0.253045404 57.269103 20.46567 57.269103 20.46567 50.6998893 13.8964563 50.6998893 13.8964563 14.3161683 15.551495 14.3161683 31.3848283 57.7746401 36.662237 57.7746401 51.9440753 14.3161683 51.7956811 14.3161683 51.7956811 50.6998893 45.2264673 50.6998893 45.2264673 57.269103 71.503876 57.269103 71.503876 50.6998893 64.9346622 50.6998893 64.9346622 12.8006645 71.503876 12.8006645 71.503876 5.72591362 47.9269103 5.72591362"></polygon>
                <path d="M86.2724252,13.4966777 C90.4473976,13.4966777 93.3621262,10.5813953 93.3621262,6.72203765 C93.3621262,2.94075305 90.5265781,0.105204873 86.2724252,0.105204873 C82.0974529,0.105204873 79.2619048,3.09856035 79.2619048,6.95791805 C79.2619048,10.8172757 82.0188261,13.4966777 86.2724252,13.4966777 L86.2724252,13.4966777 Z" id="Shape"></path>
                <polygon id="Shape" points="91.7165006 20.379845 74.5359911 20.379845 74.5359911 26.9496124 80.0941307 26.9496124 80.0941307 51.2048726 74.5359911 51.2048726 74.5359911 57.269103 97.7807309 57.269103 97.7807309 51.2048726 91.7165006 51.2048726"></polygon>
                <path d="M135.291251,11.5033223 C130.32835,11.5033223 126.547619,14.7325581 124.735327,19.8532669 C122.766334,19.3017719 120.482281,19.0658915 118.040421,19.0658915 C107.800111,19.0658915 101.971207,24.106866 101.971207,30.8028793 C101.971207,36.0802879 105.200443,39.230897 110.478405,40.5697674 C104.964563,41.1998893 100.973976,44.5880399 100.973976,48.2895903 C100.973976,51.2818383 102.833887,54.1184939 107.38206,55.0636766 L107.38206,55.4579181 C101.823367,56.1666667 98.9263566,58.7657807 98.9263566,62.4684385 C98.9263566,67.3521595 104.42691,70.5033223 116.399779,70.5033223 C132.390919,70.5033223 139.158361,65.4977852 139.158361,58.0941307 C139.158361,52.2646733 135.292359,48.6782946 125.60299,48.6782946 L115.44186,48.6782946 C111.266888,48.6782946 109.77021,47.3023256 109.77021,45.6478405 C109.77021,44.2303433 111.266888,42.8333333 113.550941,42.8333333 C114.968992,42.8333333 117.017165,42.8831672 118.59247,42.8831672 C128.832226,42.8831672 134.503322,38.5753045 134.503322,30.9346622 C134.503322,26.5232558 132.297896,23.1882614 128.359358,21.2192691 C129.462348,18.3831672 131.037652,16.9518272 132.613511,16.7934662 C132.613511,17.1090808 132.53433,17.496124 132.53433,17.8111849 C132.53433,20.1749723 134.267442,21.982835 137.02381,21.982835 C140.096346,21.982835 141.986711,19.854928 141.986711,17.0974529 C141.986711,14.2624585 139.938538,11.5033223 135.291251,11.5033223 L135.291251,11.5033223 Z M113.313953,57.7746401 L122.766334,57.7746401 C127.335548,57.7746401 128.98948,58.6638981 128.98948,60.6334441 C128.98948,63.5481728 125.680509,65.4108527 117.803433,65.4108527 C109.454042,65.4108527 106.933555,63.7187154 106.933555,61.3565891 C106.934109,59.1500554 108.981728,57.7746401 113.313953,57.7746401 L113.313953,57.7746401 Z M118.433555,38.8372093 C114.811185,38.8372093 112.999446,36.3942414 112.999446,31.1173865 C112.999446,25.8405316 114.496124,23.3194906 118.040421,23.3194906 C121.663344,23.3194906 123.39701,26.1550388 123.39701,31.1173865 C123.39701,36.3947951 121.900332,38.8372093 118.433555,38.8372093 L118.433555,38.8372093 Z" id="Shape"></path>
                <path d="M169.801772,19.1434109 C164.760797,19.1434109 160.44186,22.5310078 157.914729,29.3842746 L157.914729,20.379845 L141.744186,20.379845 L141.744186,26.9490587 L147.302879,26.9490587 L147.302879,51.2048726 L141.744186,51.2048726 L141.744186,57.2685493 L165.495017,57.2685493 L165.495017,51.2048726 L158.420819,51.2048726 L158.420819,34.0315615 C159.936323,29.4629014 162.84773,27.0996678 164.974529,26.9418605 C164.974529,27.1782946 165.140089,27.4147287 165.140089,27.5719823 C165.140089,31.1954596 167.940753,33.1650055 171.406423,33.1650055 C174.793466,33.1650055 177.417497,30.3294574 177.417497,26.3914729 C177.417497,22.5310078 174.370986,19.1434109 169.801772,19.1434109 L169.801772,19.1434109 Z" id="Shape"></path>
                <path d="M214.192691,50.9684385 C212.932447,50.9684385 211.98505,50.5741971 211.98505,48.7624585 L211.98505,31.9844961 C211.98505,24.3433001 208.285161,19.1439646 197.178295,19.1439646 C188.120155,19.1439646 179.811739,22.3743079 179.811739,29.1483942 C179.811739,32.0636766 181.840532,34.6627907 185.857697,34.6627907 C189.087486,34.6627907 191.480066,32.5359911 191.480066,29.7785161 C191.480066,27.9667774 190.786268,26.6284607 189.604651,25.7619048 C191.101329,25.1317829 192.384275,24.8161683 193.959025,24.8161683 C198.528239,24.8161683 200.362126,26.5492802 200.362126,31.2757475 L200.362126,34.5049834 C200.362126,35.4501661 200.34773,35.5287929 196.014396,36.1589147 C186.955703,37.3405316 183.363787,38.9158361 180.921927,41.3582503 C179.267996,43.0121816 178.416944,45.2967885 178.416944,47.7380952 C178.416944,53.7248062 183.19103,57.7486157 189.729236,57.7486157 C195.163898,57.7486157 199.62237,56.2585825 201.986711,50.1943522 L202.379845,50.1943522 C203.01052,55.7530454 206.554817,57.7486157 211.04485,57.7486157 C216.322259,57.7486157 219.236988,54.8709856 220.733112,48.8050941 L216.754153,47.4839424 C216.045404,50.1627907 215.059247,50.9684385 214.192691,50.9684385 L214.192691,50.9684385 Z M200.362126,42.7763012 C200.362126,47.5016611 198.29845,50.8100775 194.754153,50.8100775 C191.287929,50.8100775 190.059801,48.6046512 190.059801,46.0836102 C190.059801,42.5393134 191.508306,40.7275748 197.101883,39.7818383 C199.070875,39.3887043 199.857143,39.3089701 200.362126,39.1522702 L200.362126,42.7763012 L200.362126,42.7763012 Z" id="Shape"></path>
                <polygon id="Shape" points="238.766888 20.379845 221.585825 20.379845 221.585825 26.9496124 227.144518 26.9496124 227.144518 51.2048726 221.585825 51.2048726 221.585825 57.269103 244.831118 57.269103 244.831118 51.2048726 238.766888 51.2048726"></polygon>
                <path d="M233.338317,13.4966777 C237.513843,13.4966777 240.428571,10.5813953 240.428571,6.72203765 C240.428571,2.94075305 237.593023,0.105204873 233.338317,0.105204873 C229.163898,0.105204873 226.327796,3.09856035 226.327796,6.95791805 C226.327796,10.8172757 229.084718,13.4966777 233.338317,13.4966777 L233.338317,13.4966777 Z" id="Shape"></path>
                <path d="M287.784053,32.1417497 C287.784053,24.5005537 284.422481,19.1434109 276.466777,19.1434109 C269.693245,19.1434109 266.054817,23.3981174 263.023256,29.6212625 L263.023256,20.379845 L247.35825,20.379845 L247.35825,26.9490587 L252.916944,26.9490587 L252.916944,51.2048726 L247.35825,51.2048726 L247.35825,57.2685493 L268.076412,57.2685493 L268.076412,51.2048726 L264.033776,51.2048726 L264.033776,35.8438538 C264.033776,30.5658915 267.793466,26.8632337 271.49557,26.8632337 C273.070875,26.8632337 274.199336,27.3361019 275.065891,28.1234773 C276.247508,29.3056478 276.66722,31.2746401 276.66722,33.7165006 L276.66722,51.2043189 L272.119601,51.2043189 L272.119601,57.2679956 L293.3433,57.2679956 L293.3433,51.2048726 L287.784607,51.2048726 L287.784607,32.1417497 L287.784053,32.1417497 Z" id="Shape"></path>
                <path d="M314.449612,19.43134 C303.3433,19.43134 295.072536,27.6771872 295.072536,38.8621262 C295.072536,50.2054264 302.555925,58.0869324 314.844408,58.0869324 C325.163344,58.0869324 330.36268,53.2264673 331.780731,45.6467331 L325.635659,45.6467331 C323.981728,50.1943522 321.224806,52.0603544 316.8134,52.0603544 C310.984496,52.0603544 307.518272,49.1843854 307.045958,40.593577 L332.174419,40.593577 C332.72536,28.46567 326.896456,19.43134 314.449612,19.43134 L314.449612,19.43134 Z M307.124585,35.5398671 C307.597453,27.9601329 310.11794,25.0631229 314.215393,25.0631229 C318.468439,25.0631229 320.516058,27.9595792 320.909745,35.5398671 L307.124585,35.5398671 L307.124585,35.5398671 Z" id="Shape"></path>
                <path d="M342.189369,44.1937984 C338.172757,44.1937984 335.101329,47.2657807 335.101329,51.2043189 C335.101329,55.0642303 338.172757,58.1362126 342.110188,58.1362126 C346.128461,58.1362126 349.199889,54.9861573 349.199889,51.1256921 C349.199889,47.2657807 346.128461,44.1937984 342.189369,44.1937984 L342.189369,44.1937984 Z" id="Shape"></path>
                <path d="M373.314507,51.1495017 C367.169435,51.1495017 364.018272,45.9772979 364.018272,38.2580288 C364.018272,29.7513843 367.878738,24.8023256 373.077519,24.8023256 C376.150055,24.8023256 378.040421,25.872093 379.142303,27.2895903 C377.488372,27.9202658 375.833887,29.7153931 375.833887,32.2369878 C375.833887,35.230897 377.881506,37.8217054 381.741971,37.8217054 C385.83887,37.8217054 388.043743,34.9822813 388.043743,31.0431894 C388.043743,25.4501661 382.609081,19.0675526 371.974529,19.0675526 C360.001661,19.0675526 351.651163,27.1018826 351.651163,38.9972315 C351.651163,50.1035437 359.055371,57.845515 371.579734,57.845515 C380.874862,57.845515 386.389258,52.7220377 388.12237,44.6367663 L381.977298,44.6367663 C380.481728,49.1838317 377.566999,51.1495017 373.314507,51.1495017 L373.314507,51.1495017 Z" id="Shape"></path>
                <path d="M411.398671,19.0653378 C399.977298,19.0653378 391.390919,27.1788483 391.390919,38.5221484 C391.390919,49.9435216 399.58361,57.5841639 411.319491,57.5841639 C422.662237,57.5841639 431.249169,49.5498339 431.249169,38.1284607 C431.249169,26.7857143 423.057586,19.0653378 411.398671,19.0653378 L411.398671,19.0653378 Z M411.556478,52.2286822 C406.515504,52.2286822 403.994463,48.3676633 403.994463,38.3643411 C403.994463,28.4396456 406.121262,24.4213732 411.084164,24.4213732 C416.204319,24.4213732 418.646179,28.3604651 418.646179,38.2851606 C418.646179,48.209856 416.597453,52.2286822 411.556478,52.2286822 L411.556478,52.2286822 Z" id="Shape"></path>
                <path d="M494.967885,51.2048726 L494.967885,32.1417497 C494.967885,24.5005537 492.217054,19.1434109 484.498339,19.1434109 C478.353267,19.1434109 474.615172,23.0044297 471.93577,28.9125138 C471.147841,22.8460687 467.557032,19.1434109 461.25526,19.1434109 C454.874862,19.1434109 450.498893,23.3981174 447.972868,29.6212625 L447.972868,20.379845 L431.802326,20.379845 L431.802326,26.9490587 L437.361019,26.9490587 L437.361019,51.2048726 L431.802326,51.2048726 L431.802326,57.2685493 L452.521041,57.2685493 L452.521041,51.2048726 L448.983389,51.2048726 L448.983389,35.8438538 C448.983389,30.5658915 452.604651,26.8632337 455.913068,26.8632337 C457.330565,26.8632337 458.299003,27.2569214 459.007752,28.0459579 C460.190476,29.2264673 460.606312,31.1960133 460.606312,33.7170543 L460.606312,51.2048726 L456.563677,51.2048726 L456.563677,57.2685493 L475.766334,57.2685493 L475.766334,51.2048726 L471.723145,51.2048726 L471.723145,35.8438538 C471.723145,30.5658915 475.552602,26.8632337 478.862126,26.8632337 C480.35825,26.8632337 481.143411,27.2569214 481.93134,28.0459579 C483.114064,29.2264673 483.346069,31.1960133 483.346069,33.7170543 L483.346069,51.2048726 L479.303433,51.2048726 L479.303433,57.2685493 L500.022148,57.2685493 L500.022148,51.2048726 L494.967885,51.2048726 L494.967885,51.2048726 Z" id="Shape"></path>
            </g>
        </g>
    </g>
</svg>