<?xml version="1.0" encoding="UTF-8"?>
<svg width="435px" height="41px" viewBox="0 0 435 41" version="1.1" xmlns="http://www.w3.org/2000/svg" xmlns:xlink="http://www.w3.org/1999/xlink">
    <!-- Generator: Sketch 49.3 (51167) - http://www.bohemiancoding.com/sketch -->
    <title>13</title>
    <desc>Created with Sketch.</desc>
    <defs>
        <linearGradient x1="50%" y1="0%" x2="50%" y2="100%" id="linearGradient-1">
            <stop stop-color="#FF9234" offset="0%"></stop>
            <stop stop-color="#FF6044" offset="100%"></stop>
        </linearGradient>
    </defs>
    <g id="Page-1" stroke="none" stroke-width="1" fill="none" fill-rule="evenodd">
        <g id="13" transform="translate(0.000000, 0.772207)" fill="url(#linearGradient-1)">
            <path d="M0,32.4639198 L16.0712474,32.4639198 L16.0712474,28.4690668 L11.617216,28.4690668 L11.617216,20.7548681 L15.1069726,20.7548681 C24.6119674,20.7548681 28.1935597,16.6222616 28.1935597,11.4335446 C28.1935597,6.06115616 24.5201317,2.24997464 15.0151369,2.24997464 L0,2.24997464 L0,6.24482756 L4.13260647,6.24482756 L4.13260647,28.4690668 L0,28.4690668 L0,32.4639198 Z M11.617216,16.9436865 L11.617216,6.06115616 L14.5100405,6.06115616 C18.9640719,6.06115616 20.2038539,7.89787015 20.2038539,11.3876267 C20.2038539,15.0610547 19.0099898,16.9436865 14.5559584,16.9436865 L11.617216,16.9436865 Z M28.0655969,32.4639198 L41.7950339,32.4639198 L41.7950339,28.6527382 L38.3052773,28.6527382 L38.3052773,0.780603445 L28.0655969,0.780603445 L28.0655969,4.68362067 L31.5553534,4.68362067 L31.5553534,28.6527382 L28.0655969,28.6527382 L28.0655969,32.4639198 Z M49.7702889,32.8771804 C52.9386205,32.8771804 55.5100201,31.5914806 56.8875556,28.3313133 L57.1171449,28.3313133 C57.4844877,31.4996449 59.5507909,32.8771804 62.1681083,32.8771804 C65.2446043,32.8771804 66.9435647,31.2700557 67.8160038,27.7343812 L65.5660292,26.9996956 C65.1527686,28.5609025 64.6476722,29.0659989 64.1425759,29.0659989 C63.4078903,29.0659989 62.9946296,28.8364096 62.9946296,27.7802991 L62.9946296,17.9997971 C62.9946296,13.5457657 60.6987371,10.5151876 54.2243203,10.5151876 C48.9437676,10.5151876 44.0305577,12.3978194 44.0305577,16.3467545 C44.0305577,18.0457149 45.1785039,19.561004 47.5203143,19.561004 C49.4029461,19.561004 50.7804816,18.321222 50.7804816,16.7140973 C50.7804816,15.6579868 50.3672209,14.8773833 49.6784532,14.372287 C50.5508923,14.0049442 51.5151672,13.8212728 52.4335242,13.8212728 C55.0967595,13.8212728 56.3824593,14.8314655 56.3824593,17.5865364 L56.3824593,19.4691683 C56.3824593,20.0201825 56.15287,20.0661003 53.6273883,20.4334431 C48.3468356,21.1222109 46.1427788,22.0405679 44.7193254,23.4640212 C43.7550506,24.428296 43.2040364,25.7599137 43.2040364,27.183367 C43.2040364,30.6731236 45.9591074,32.8771804 49.7702889,32.8771804 L49.7702889,32.8771804 Z M52.8927027,28.9741632 C50.8723173,28.9741632 50.045796,27.6884634 50.045796,26.2190922 C50.045796,24.152789 51.0559887,23.0966784 54.316156,22.5456642 C55.4641023,22.316075 55.9691986,22.2701571 56.3824593,22.1783214 L56.3824593,24.2905425 C56.3824593,27.0456135 54.9590059,28.9741632 52.8927027,28.9741632 L52.8927027,28.9741632 Z M78.7300012,14.4182048 C81.5769079,14.4182048 83.0921969,17.4487829 83.0921969,21.4436358 C83.0921969,25.3925709 81.3932365,28.4690668 78.8218369,28.4690668 C76.0667659,28.4690668 74.7810661,26.2190922 74.7810661,21.6273072 C74.7810661,16.9896044 75.9749302,14.4182048 78.7300012,14.4182048 L78.7300012,14.4182048 Z M82.6789363,28.1935597 L82.6789363,36.045512 L78.6840834,36.045512 L78.6840834,39.8566936 L92.5053561,39.8566936 L92.5053561,36.045512 L89.3829423,36.045512 L89.3829423,10.698859 L85.8472679,10.698859 L83.689129,15.2447261 C82.2656756,12.5814908 80.1993724,10.4692697 76.7096158,10.4692697 C74.1382162,10.4692697 72.1637487,11.3876267 70.6943775,12.8569979 C68.8117457,14.7855476 67.5719637,17.9079614 67.5719637,21.6273072 C67.5719637,25.1629816 68.5362386,28.2394776 70.4647883,30.1680273 C71.9800773,31.6833163 73.8167913,32.4639198 76.2504373,32.4639198 C79.0514262,32.4639198 81.3473186,30.856795 82.6789363,28.1935597 L82.6789363,28.1935597 Z M101.154928,32.8771804 C105.057945,32.8771804 107.399756,30.3976165 108.915045,26.8160242 L108.915045,32.4639198 L118.328204,32.4639198 L118.328204,28.6527382 L115.20579,28.6527382 L115.20579,10.9743661 L105.333452,10.9743661 L105.333452,14.7855476 L108.501784,14.7855476 L108.501784,23.1425963 C108.501784,26.26501 106.527316,28.423149 104.461013,28.423149 C103.496738,28.423149 102.807971,28.101724 102.39471,27.6884634 C101.705942,26.9537778 101.430435,25.8517494 101.430435,24.428296 L101.430435,10.9743661 L91.6040152,10.9743661 L91.6040152,14.7855476 L94.726429,14.7855476 L94.726429,25.346653 C94.726429,29.7547666 96.6090609,32.8771804 101.154928,32.8771804 L101.154928,32.8771804 Z M140.385788,22.5915821 C140.707213,15.6120689 137.309292,10.4692697 130.054272,10.4692697 C123.579855,10.4692697 118.758481,15.3824797 118.758481,21.9028143 C118.758481,28.5149847 123.120676,32.9230982 130.283861,32.9230982 C136.299099,32.9230982 139.329677,29.9843559 140.156199,25.4844066 L136.574606,25.4844066 C135.610331,28.1935597 134.003207,29.2496703 131.431807,29.2496703 C128.033886,29.2496703 126.013501,27.5966277 125.737994,22.5915821 L140.385788,22.5915821 Z M129.916518,13.5916835 C132.396082,13.5916835 133.589946,15.3365618 133.819535,19.6987575 L125.783912,19.6987575 C126.059419,15.1069726 127.52879,13.5916835 129.916518,13.5916835 L129.916518,13.5916835 Z M142.536701,32.4639198 L158.607949,32.4639198 L158.607949,28.4690668 L154.153917,28.4690668 L154.153917,20.7548681 L157.643674,20.7548681 C167.148669,20.7548681 170.730261,16.6222616 170.730261,11.4335446 C170.730261,6.06115616 167.056833,2.24997464 157.551838,2.24997464 L142.536701,2.24997464 L142.536701,6.24482756 L146.669308,6.24482756 L146.669308,28.4690668 L142.536701,28.4690668 L142.536701,32.4639198 Z M154.153917,16.9436865 L154.153917,6.06115616 L157.046742,6.06115616 C161.500773,6.06115616 162.740555,7.89787015 162.740555,11.3876267 C162.740555,15.0610547 161.546691,16.9436865 157.09266,16.9436865 L154.153917,16.9436865 Z M171.496414,32.8771804 L175.032088,32.8771804 L175.766774,29.9843559 C177.144309,31.5455628 179.394284,32.9230982 182.746287,32.9230982 C187.980922,32.9230982 190.873746,29.5710952 190.873746,25.8517494 C190.873746,21.5813894 187.705415,20.0661003 183.021794,18.8263184 C178.935105,17.7702078 177.695323,17.1732758 177.695323,15.6120689 C177.695323,14.372287 178.61368,13.5457657 180.404476,13.5457657 C182.700369,13.5457657 184.904426,15.3365618 186.557468,17.9079614 L190.093143,17.9079614 L190.093143,10.5611054 L186.51155,10.5611054 L185.776865,13.132505 C184.445247,11.5253803 182.424862,10.4692697 179.623873,10.4692697 C174.848417,10.4692697 171.817839,13.6376014 171.817839,17.402865 C171.817839,21.2599644 174.34332,22.913007 179.486119,24.2446247 C183.756479,25.346653 184.950344,25.9895029 184.950344,27.6425455 C184.950344,28.9741632 184.077904,29.8466023 182.149355,29.8466023 C179.532037,29.8466023 176.91472,27.8721348 175.032088,24.9793102 L171.496414,24.9793102 L171.496414,32.8771804 Z M204.55004,32.9230982 C211.16221,32.9230982 216.167256,28.2394776 216.167256,21.5813894 C216.167256,14.969219 211.3918,10.4692697 204.595958,10.4692697 C197.93787,10.4692697 192.932824,15.1988083 192.932824,21.8109786 C192.932824,28.4690668 197.70828,32.9230982 204.55004,32.9230982 L204.55004,32.9230982 Z M204.687793,29.8006845 C201.749051,29.8006845 200.27968,27.5507098 200.27968,21.7191429 C200.27968,15.9334939 201.519462,13.5916835 204.412286,13.5916835 C207.396947,13.5916835 208.8204,15.887576 208.8204,21.6732251 C208.8204,27.4588741 207.626536,29.8006845 204.687793,29.8006845 L204.687793,29.8006845 Z M217.569033,32.4639198 L231.436224,32.4639198 L231.436224,28.6527382 L227.441371,28.6527382 L227.441371,19.1936612 C228.221974,16.5304259 229.737263,15.1528904 230.977045,15.0610547 C230.977045,15.1988083 230.931127,15.3365618 230.931127,15.4283975 C230.931127,17.5406186 232.492334,18.6885648 234.512719,18.6885648 C236.487187,18.6885648 238.094312,17.0355222 238.094312,14.7396298 C238.094312,12.4896551 236.395351,10.5151876 233.732116,10.5151876 C230.793374,10.5151876 228.31381,12.4896551 227.02811,16.484508 L227.02811,10.9743661 L217.569033,10.9743661 L217.569033,14.7855476 L220.737365,14.7855476 L220.737365,28.6527382 L217.569033,28.6527382 L217.569033,32.4639198 Z M246.175853,7.80603445 C248.609499,7.80603445 250.30846,6.10707401 250.30846,3.85709938 C250.30846,1.65304259 248.655417,0 246.175853,0 C243.742207,0 242.089165,1.74487829 242.089165,3.99485293 C242.089165,6.24482756 243.696289,7.80603445 246.175853,7.80603445 L246.175853,7.80603445 Z M239.655519,32.4639198 L253.339038,32.4639198 L253.339038,28.6527382 L249.849281,28.6527382 L249.849281,10.9743661 L239.655519,10.9743661 L239.655519,14.7855476 L243.145275,14.7855476 L243.145275,28.6527382 L239.655519,28.6527382 L239.655519,32.4639198 Z M261.130621,32.8771804 C264.298953,32.8771804 266.870353,31.5914806 268.247888,28.3313133 L268.477477,28.3313133 C268.84482,31.4996449 270.911123,32.8771804 273.528441,32.8771804 C276.604937,32.8771804 278.303897,31.2700557 279.176336,27.7343812 L276.926362,26.9996956 C276.513101,28.5609025 276.008005,29.0659989 275.502908,29.0659989 C274.768223,29.0659989 274.354962,28.8364096 274.354962,27.7802991 L274.354962,17.9997971 C274.354962,13.5457657 272.05907,10.5151876 265.584653,10.5151876 C260.3041,10.5151876 255.39089,12.3978194 255.39089,16.3467545 C255.39089,18.0457149 256.538836,19.561004 258.880647,19.561004 C260.763279,19.561004 262.140814,18.321222 262.140814,16.7140973 C262.140814,15.6579868 261.727553,14.8773833 261.038786,14.372287 C261.911225,14.0049442 262.8755,13.8212728 263.793857,13.8212728 C266.457092,13.8212728 267.742792,14.8314655 267.742792,17.5865364 L267.742792,19.4691683 C267.742792,20.0201825 267.513203,20.0661003 264.987721,20.4334431 C259.707168,21.1222109 257.503111,22.0405679 256.079658,23.4640212 C255.115383,24.428296 254.564369,25.7599137 254.564369,27.183367 C254.564369,30.6731236 257.31944,32.8771804 261.130621,32.8771804 L261.130621,32.8771804 Z M264.253035,28.9741632 C262.23265,28.9741632 261.406129,27.6884634 261.406129,26.2190922 C261.406129,24.152789 262.416321,23.0966784 265.676489,22.5456642 C266.824435,22.316075 267.329531,22.2701571 267.742792,22.1783214 L267.742792,24.2905425 C267.742792,27.0456135 266.319338,28.9741632 264.253035,28.9741632 L264.253035,28.9741632 Z M280.002858,32.8771804 L283.538532,32.8771804 L284.273218,29.9843559 C285.650753,31.5455628 287.900728,32.9230982 291.252731,32.9230982 C296.487366,32.9230982 299.38019,29.5710952 299.38019,25.8517494 C299.38019,21.5813894 296.211859,20.0661003 291.528238,18.8263184 C287.441549,17.7702078 286.201767,17.1732758 286.201767,15.6120689 C286.201767,14.372287 287.120124,13.5457657 288.910921,13.5457657 C291.206813,13.5457657 293.41087,15.3365618 295.063912,17.9079614 L298.599587,17.9079614 L298.599587,10.5611054 L295.017995,10.5611054 L294.283309,13.132505 C292.951691,11.5253803 290.931306,10.4692697 288.130317,10.4692697 C283.354861,10.4692697 280.324283,13.6376014 280.324283,17.402865 C280.324283,21.2599644 282.849764,22.913007 287.992564,24.2446247 C292.262924,25.346653 293.456788,25.9895029 293.456788,27.6425455 C293.456788,28.9741632 292.584349,29.8466023 290.655799,29.8466023 C288.038481,29.8466023 285.421164,27.8721348 283.538532,24.9793102 L280.002858,24.9793102 L280.002858,32.8771804 Z M308.097356,7.80603445 C310.531002,7.80603445 312.229963,6.10707401 312.229963,3.85709938 C312.229963,1.65304259 310.57692,0 308.097356,0 C305.66371,0 304.010668,1.74487829 304.010668,3.99485293 C304.010668,6.24482756 305.617792,7.80603445 308.097356,7.80603445 L308.097356,7.80603445 Z M301.577022,32.4639198 L315.260541,32.4639198 L315.260541,28.6527382 L311.770784,28.6527382 L311.770784,10.9743661 L301.577022,10.9743661 L301.577022,14.7855476 L305.066778,14.7855476 L305.066778,28.6527382 L301.577022,28.6527382 L301.577022,32.4639198 Z M316.761379,32.8771804 L320.297053,32.8771804 L321.031739,29.9843559 C322.409275,31.5455628 324.659249,32.9230982 328.011252,32.9230982 C333.245887,32.9230982 336.138712,29.5710952 336.138712,25.8517494 C336.138712,21.5813894 332.97038,20.0661003 328.286759,18.8263184 C324.200071,17.7702078 322.960289,17.1732758 322.960289,15.6120689 C322.960289,14.372287 323.878646,13.5457657 325.669442,13.5457657 C327.965334,13.5457657 330.169391,15.3365618 331.822434,17.9079614 L335.358108,17.9079614 L335.358108,10.5611054 L331.776516,10.5611054 L331.04183,13.132505 C329.710213,11.5253803 327.689827,10.4692697 324.888838,10.4692697 C320.113382,10.4692697 317.082804,13.6376014 317.082804,17.402865 C317.082804,21.2599644 319.608286,22.913007 324.751085,24.2446247 C329.021445,25.346653 330.215309,25.9895029 330.215309,27.6425455 C330.215309,28.9741632 329.34287,29.8466023 327.41432,29.8466023 C324.797003,29.8466023 322.179685,27.8721348 320.297053,24.9793102 L316.761379,24.9793102 L316.761379,32.8771804 Z M342.093581,33.2445232 C344.435392,33.2445232 346.226188,31.4078092 346.226188,29.1578346 C346.226188,26.9078599 344.435392,25.1170638 342.139499,25.1170638 C339.797689,25.1170638 338.006893,26.9078599 338.006893,29.2037524 C338.006893,31.4537271 339.797689,33.2445232 342.093581,33.2445232 L342.093581,33.2445232 Z M359.206488,32.9230982 C364.624795,32.9230982 367.839044,29.7088488 368.849237,25.0711459 L365.267644,25.0711459 C364.395205,27.5507098 362.696245,29.020081 360.216681,29.020081 C356.635089,29.020081 354.798375,26.0813386 354.798375,21.5813894 C354.798375,16.6222616 357.048349,13.7753549 360.078927,13.7753549 C361.869724,13.7753549 362.971752,14.4182048 363.614602,15.2447261 C362.650327,15.6120689 361.686052,16.6681794 361.686052,18.1375506 C361.686052,19.8824289 362.879916,21.397718 365.129891,21.397718 C367.517619,21.397718 368.803319,19.7446754 368.803319,17.4487829 C368.803319,14.1886156 365.634987,10.4692697 359.436078,10.4692697 C352.456564,10.4692697 347.589272,15.1528904 347.589272,22.0864857 C347.589272,28.5609025 351.90555,32.9230982 359.206488,32.9230982 L359.206488,32.9230982 Z M381.921373,32.9230982 C388.533543,32.9230982 393.538589,28.2394776 393.538589,21.5813894 C393.538589,14.969219 388.763133,10.4692697 381.967291,10.4692697 C375.309203,10.4692697 370.304157,15.1988083 370.304157,21.8109786 C370.304157,28.4690668 375.079613,32.9230982 381.921373,32.9230982 L381.921373,32.9230982 Z M382.059127,29.8006845 C379.120384,29.8006845 377.651013,27.5507098 377.651013,21.7191429 C377.651013,15.9334939 378.890795,13.5916835 381.783619,13.5916835 C384.76828,13.5916835 386.191733,15.887576 386.191733,21.6732251 C386.191733,27.4588741 384.997869,29.8006845 382.059127,29.8006845 L382.059127,29.8006845 Z M417.616558,16.209001 C417.15738,12.6733265 415.22883,10.5151876 411.555402,10.5151876 C407.836056,10.5151876 405.494246,12.9947515 403.978957,16.6222616 L403.978957,10.9743661 L394.51988,10.9743661 L394.51988,14.7855476 L397.688212,14.7855476 L397.688212,28.6527382 L394.51988,28.6527382 L394.51988,32.4639198 L406.596274,32.4639198 L406.596274,28.6527382 L404.392218,28.6527382 L404.392218,20.2497717 C404.392218,17.1732758 406.366685,15.0151369 408.295235,15.0151369 C409.121756,15.0151369 409.764606,15.2447261 410.177867,15.7039046 C410.866634,16.3926723 411.188059,17.5406186 411.188059,19.0099898 L411.188059,28.6527382 L408.892167,28.6527382 L408.892167,32.4639198 L420.096122,32.4639198 L420.096122,28.6527382 L417.892065,28.6527382 L417.892065,20.2497717 C417.892065,17.1732758 419.866533,15.0151369 421.795083,15.0151369 C422.667522,15.0151369 423.264454,15.2447261 423.723632,15.7039046 C424.4124,16.3926723 424.687907,17.5406186 424.687907,19.0099898 L424.687907,28.6527382 L422.392015,28.6527382 L422.392015,32.4639198 L434.514327,32.4639198 L434.514327,28.6527382 L431.391913,28.6527382 L431.391913,18.0916328 C431.391913,13.6376014 429.555199,10.5151876 425.05525,10.5151876 C421.473658,10.5151876 419.177765,12.7651622 417.616558,16.209001 L417.616558,16.209001 Z" id="masthead"></path>
        </g>
    </g>
</svg>