<?xml version="1.0" encoding="UTF-8"?>
<svg width="500px" height="45px" viewBox="0 0 500 45" version="1.1" xmlns="http://www.w3.org/2000/svg" xmlns:xlink="http://www.w3.org/1999/xlink">
    <!-- Generator: Sketch 49.2 (51160) - http://www.bohemiancoding.com/sketch -->
    <title>masthead</title>
    <desc>Created with Sketch.</desc>
    <defs>
        <linearGradient x1="49.9987925%" y1="-0.00050159675%" x2="49.9987925%" y2="100.002006%" id="linearGradient-1">
            <stop stop-color="#FF7663" offset="0%"></stop>
            <stop stop-color="#FF705F" offset="16.79%"></stop>
            <stop stop-color="#FF574C" offset="100%"></stop>
        </linearGradient>
        <linearGradient x1="50.0005621%" y1="0.00271948508%" x2="50.0005621%" y2="100.004758%" id="linearGradient-2">
            <stop stop-color="#FF7663" offset="0%"></stop>
            <stop stop-color="#FF705F" offset="16.79%"></stop>
            <stop stop-color="#FF574C" offset="100%"></stop>
        </linearGradient>
        <linearGradient x1="49.9992755%" y1="0%" x2="49.9992755%" y2="100.00189%" id="linearGradient-3">
            <stop stop-color="#FF7663" offset="0%"></stop>
            <stop stop-color="#FF705F" offset="16.79%"></stop>
            <stop stop-color="#FF574C" offset="100%"></stop>
        </linearGradient>
        <linearGradient x1="50.0008137%" y1="-0.000363656199%" x2="50.0008137%" y2="99.9998182%" id="linearGradient-4">
            <stop stop-color="#FF7663" offset="0%"></stop>
            <stop stop-color="#FF705F" offset="16.79%"></stop>
            <stop stop-color="#FF574C" offset="100%"></stop>
        </linearGradient>
        <linearGradient x1="49.9977515%" y1="0.000308880309%" x2="49.9977515%" y2="100.001853%" id="linearGradient-5">
            <stop stop-color="#FF7663" offset="0%"></stop>
            <stop stop-color="#FF705F" offset="16.79%"></stop>
            <stop stop-color="#FF574C" offset="100%"></stop>
        </linearGradient>
        <linearGradient x1="50%" y1="-0.000682908507%" x2="50%" y2="100.001537%" id="linearGradient-6">
            <stop stop-color="#FF7663" offset="0%"></stop>
            <stop stop-color="#FF705F" offset="16.79%"></stop>
            <stop stop-color="#FF574C" offset="100%"></stop>
        </linearGradient>
        <linearGradient x1="50.0020766%" y1="-0.00223788743%" x2="50.0020766%" y2="100%" id="linearGradient-7">
            <stop stop-color="#FF7663" offset="0%"></stop>
            <stop stop-color="#FF705F" offset="16.79%"></stop>
            <stop stop-color="#FF574C" offset="100%"></stop>
        </linearGradient>
        <linearGradient x1="49.9991959%" y1="0.000316270538%" x2="49.9991959%" y2="100%" id="linearGradient-8">
            <stop stop-color="#FF7663" offset="0%"></stop>
            <stop stop-color="#FF705F" offset="16.79%"></stop>
            <stop stop-color="#FF574C" offset="100%"></stop>
        </linearGradient>
        <linearGradient x1="49.9995287%" y1="-0.000892618049%" x2="49.9995287%" y2="99.9982148%" id="linearGradient-9">
            <stop stop-color="#FF7663" offset="0%"></stop>
            <stop stop-color="#FF705F" offset="16.79%"></stop>
            <stop stop-color="#FF574C" offset="100%"></stop>
        </linearGradient>
        <linearGradient x1="50.0036227%" y1="0%" x2="50.0036227%" y2="100.00189%" id="linearGradient-10">
            <stop stop-color="#FF7663" offset="0%"></stop>
            <stop stop-color="#FF705F" offset="16.79%"></stop>
            <stop stop-color="#FF574C" offset="100%"></stop>
        </linearGradient>
        <linearGradient x1="50.0006001%" y1="-0.00223788743%" x2="50.0006001%" y2="100%" id="linearGradient-11">
            <stop stop-color="#FF7663" offset="0%"></stop>
            <stop stop-color="#FF705F" offset="16.79%"></stop>
            <stop stop-color="#FF574C" offset="100%"></stop>
        </linearGradient>
        <linearGradient x1="50.002175%" y1="0.00228519196%" x2="50.002175%" y2="100.002742%" id="linearGradient-12">
            <stop stop-color="#FF7663" offset="0%"></stop>
            <stop stop-color="#FF705F" offset="16.79%"></stop>
            <stop stop-color="#FF574C" offset="100%"></stop>
        </linearGradient>
        <linearGradient x1="50%" y1="-0.000892418901%" x2="50%" y2="99.9997769%" id="linearGradient-13">
            <stop stop-color="#FF7663" offset="0%"></stop>
            <stop stop-color="#FF705F" offset="16.79%"></stop>
            <stop stop-color="#FF574C" offset="100%"></stop>
        </linearGradient>
        <linearGradient x1="49.9984305%" y1="-0.00223194358%" x2="49.9984305%" y2="99.9982144%" id="linearGradient-14">
            <stop stop-color="#FF7663" offset="0%"></stop>
            <stop stop-color="#FF705F" offset="16.79%"></stop>
            <stop stop-color="#FF574C" offset="100%"></stop>
        </linearGradient>
        <linearGradient x1="50.0037473%" y1="0.000308880309%" x2="50.0037473%" y2="100.001853%" id="linearGradient-15">
            <stop stop-color="#FF7663" offset="0%"></stop>
            <stop stop-color="#FF705F" offset="16.79%"></stop>
            <stop stop-color="#FF574C" offset="100%"></stop>
        </linearGradient>
        <linearGradient x1="49.9994818%" y1="-0.00223194358%" x2="49.9994818%" y2="99.9982144%" id="linearGradient-16">
            <stop stop-color="#FF7663" offset="0%"></stop>
            <stop stop-color="#FF705F" offset="16.79%"></stop>
            <stop stop-color="#FF574C" offset="100%"></stop>
        </linearGradient>
        <linearGradient x1="50.0024381%" y1="-0.00369822485%" x2="50.0024381%" y2="100%" id="linearGradient-17">
            <stop stop-color="#FF7663" offset="0%"></stop>
            <stop stop-color="#FF705F" offset="16.79%"></stop>
            <stop stop-color="#FF574C" offset="100%"></stop>
        </linearGradient>
        <linearGradient x1="50.0003684%" y1="-6.49490618e-14%" x2="50.0003684%" y2="100.000457%" id="linearGradient-18">
            <stop stop-color="#FF7663" offset="0%"></stop>
            <stop stop-color="#FF705F" offset="16.79%"></stop>
            <stop stop-color="#FF574C" offset="100%"></stop>
        </linearGradient>
        <linearGradient x1="50.0007196%" y1="-0.00223788743%" x2="50.0007196%" y2="100%" id="linearGradient-19">
            <stop stop-color="#FF7663" offset="0%"></stop>
            <stop stop-color="#FF705F" offset="16.79%"></stop>
            <stop stop-color="#FF574C" offset="100%"></stop>
        </linearGradient>
        <linearGradient x1="49.9972922%" y1="-0.000363656199%" x2="49.9972922%" y2="99.9998182%" id="linearGradient-20">
            <stop stop-color="#FF7663" offset="0%"></stop>
            <stop stop-color="#FF705F" offset="16.79%"></stop>
            <stop stop-color="#FF574C" offset="100%"></stop>
        </linearGradient>
    </defs>
    <g id="Page-1" stroke="none" stroke-width="1" fill="none" fill-rule="evenodd">
        <g id="multiplesclerosis.net" transform="translate(-56.000000, -139.000000)">
            <g id="masthead" transform="translate(56.000000, 139.639454)">
                <polygon id="Shape" fill="url(#linearGradient-1)" points="0.318283166 31.5578221 4.42140468 31.5578221 4.42140468 7.08733756 0.318283166 7.08733756 0.318283166 3.00901582 16.416388 3.00901582 23.6722408 23.4011786 23.8249721 23.4011786 30.6209588 3.00901582 46.4804905 3.00901582 46.4804905 7.08733756 41.8639911 7.08733756 41.8639911 31.5578221 46.4804905 31.5578221 46.4804905 36.1458648 29.5540691 36.1458648 29.5540691 31.5578221 33.6571906 31.5578221 33.6571906 8.10677949 33.2257525 8.10677949 23.3138239 36.1458648 19.8901895 36.1458648 9.62095875 8.10677949 9.03790412 8.10677949 9.03790412 31.5578221 13.6538462 31.5578221 13.6538462 36.1458648 0.318283166 36.1458648"></polygon>
                <path d="M50.5830546,28.3039186 L50.5830546,16.773144 L46.9927536,16.773144 L46.9927536,12.1845472 L57.7636566,12.1845472 L57.7636566,27.2878009 C57.7636566,28.8635036 58.1566332,30.0818475 58.9230769,30.8946308 C59.3829431,31.3511635 60.2753623,31.7068601 61.3478261,31.7068601 C63.6471572,31.7068601 65.9698997,29.3189282 65.9698997,25.8661227 L65.9698997,16.773144 L62.3795987,16.773144 L62.3795987,12.1845472 L73.1505017,12.1845472 L73.1505017,32.066989 L76.7408027,32.066989 L76.7408027,36.1453108 L66.4827202,36.1453108 L66.4827202,29.9278231 C64.4308807,33.8897955 62.1348941,36.6323159 57.7915273,36.6323159 C52.7341137,36.633424 50.5830546,33.1800645 50.5830546,28.3039186 L50.5830546,28.3039186 Z" id="Shape" fill="url(#linearGradient-2)"></path>
                <polygon id="Shape" fill="url(#linearGradient-3)" points="78.2798216 32.0675431 82.3829431 32.0675431 82.3829431 5.55762063 78.2798216 5.55762063 78.2798216 0.969577919 90.0769231 0.969577919 90.0769231 32.0675431 93.6672241 32.0675431 93.6672241 36.1458648 78.280379 36.1458648 78.280379 32.0675431"></polygon>
                <path d="M104.438127,6.21360935 L104.438127,12.6953762 L112.13155,12.6953762 L112.13155,16.773698 L104.438127,16.773698 L104.438127,28.6097512 C104.438127,30.7932407 105.214047,32.0121386 106.950948,32.0121386 C108.483835,32.0121386 109.204013,30.8447668 110.123746,27.5437695 L113.191193,28.4069709 C112.067447,34.1961821 109.438685,36.6843961 104.636009,36.6843961 C99.4241918,36.6843961 96.7441472,33.9934018 96.7441472,28.558225 L96.7441472,16.773698 L92.6410256,16.773698 L92.6410256,12.6953762 L97.2569677,12.6953762 L97.2569677,7.07736476 L104.438127,6.21360935 L104.438127,6.21360935 Z" id="Shape" fill="url(#linearGradient-4)"></path>
                <path d="M114.69621,32.0675431 L118.286511,32.0675431 L118.286511,16.773698 L114.69621,16.773698 L114.69621,12.1851012 L125.980491,12.1851012 L125.980491,32.0675431 L129.570792,32.0675431 L129.570792,36.1458648 L114.69621,36.1458648 L114.69621,32.0675431 L114.69621,32.0675431 Z M117.205686,4.6899869 C117.205686,2.20177294 119.045151,0.271481817 121.752508,0.271481817 C124.511706,0.271481817 126.351728,2.09927471 126.351728,4.53762466 C126.351728,7.02583862 124.460981,8.9057117 121.752508,8.9057117 C118.993868,8.9057117 117.205686,7.17875491 117.205686,4.6899869 L117.205686,4.6899869 Z" id="Shape" fill="url(#linearGradient-5)"></path>
                <path d="M129.570234,40.2247406 L133.160535,40.2247406 L133.160535,16.773698 L129.570234,16.773698 L129.570234,12.1851012 L140.341137,12.1851012 L140.341137,17.9953662 C141.879599,14.2372822 144.382386,11.8510124 148.316611,11.8510124 C150.819955,11.8510124 152.764214,12.8156039 154.295987,14.3392264 C156.493868,16.5227158 157.567447,19.8746852 157.567447,23.8870757 C157.567447,28.0507203 156.342252,31.3522716 154.19621,33.484789 C152.459309,35.2111917 150.488852,36.1757832 148.036232,36.1757832 C144.510591,36.1757832 141.879599,34.5003526 140.853958,32.2143649 L140.853958,40.2247406 L144.957079,40.2247406 L144.957079,44.3030624 L129.570234,44.3030624 L129.570234,40.2247406 L129.570234,40.2247406 Z M149.496098,23.9879118 C149.496098,19.0619019 148.117057,16.5736879 145.255295,16.5736879 C142.292642,16.5736879 140.350613,20.0774655 140.350613,24.4449985 C140.350613,28.7111413 141.934783,32.0636648 145.357302,32.0636648 C148.219064,32.0636648 149.496098,29.2197542 149.496098,23.9879118 L149.496098,23.9879118 Z" id="Shape" fill="url(#linearGradient-6)"></path>
                <polygon id="Shape" fill="url(#linearGradient-3)" points="158.292642 32.0675431 162.395764 32.0675431 162.395764 5.55762063 158.292642 5.55762063 158.292642 0.969577919 169.576923 0.969577919 169.576923 32.0675431 173.680045 32.0675431 173.680045 36.1458648 158.292642 36.1458648"></polygon>
                <path d="M181.510033,25.4406165 C181.817168,31.0486552 184.06466,32.7346127 187.845039,32.7346127 C190.706243,32.7346127 192.494983,31.5583761 193.567447,28.4994963 L197.552954,28.4994963 C196.633779,33.59726 193.261427,36.7054498 186.567447,36.7054498 C178.597547,36.7054498 173.744147,31.8193311 173.744147,24.5064974 C173.744147,17.2956079 179.108696,11.9479702 186.312709,11.9479702 C194.384615,11.9479702 198.166109,17.793694 197.80825,25.4411705 L181.510033,25.4411705 L181.510033,25.4406165 Z M181.561315,21.8714617 L190.502787,21.8714617 C190.246934,17.283419 188.918618,15.1176589 186.15942,15.1176589 C183.503344,15.1176589 181.86845,16.773698 181.561315,21.8714617 L181.561315,21.8714617 Z" id="Shape" fill="url(#linearGradient-7)"></path>
                <path d="M200.863991,24.4206205 L205.295429,24.4206205 C207.492196,30.0286592 210.302118,32.7357208 215.717949,32.7357208 C219.345039,32.7357208 221.389075,30.9777375 221.389075,28.3371613 C221.389075,25.2383902 217.965998,24.4865518 212.856187,23.2166818 C207.339465,21.8963937 201.105909,20.021507 201.105909,12.5563111 C201.105909,6.36098519 206.367893,1.94580437 212.908027,1.94580437 C216.586957,1.94580437 219.754181,3.28770021 221.492196,5.62410597 L222.564103,1.98901984 L227.022297,1.98901984 L227.022297,13.7148182 L222.564103,13.7148182 C220.418618,8.61650045 217.915273,6.05404453 213.572464,6.05404453 C210.149387,6.05404453 208.309922,8.08905007 208.309922,10.3744837 C208.309922,13.7258991 212.039576,14.5159666 217.098105,15.7343105 C222.56466,17.0545986 228.594203,18.8452705 228.594203,26.1071321 C228.594203,32.4553742 223.536232,36.981918 216.229654,36.981918 C212.039576,36.981918 208.360647,35.1441523 206.471014,32.8071925 L205.244705,36.6561398 L200.864548,36.6561398 L200.864548,24.4206205 L200.863991,24.4206205 Z" id="Shape" fill="url(#linearGradient-8)"></path>
                <path d="M230.745819,24.6993049 C230.745819,17.0307747 236.161093,11.8510124 243.927536,11.8510124 C250.824972,11.8510124 254.350613,15.9642389 254.350613,19.5699607 C254.350613,22.1097008 252.92029,23.9374937 250.263099,23.9374937 C247.75864,23.9374937 246.430881,22.261509 246.430881,20.3317719 C246.430881,18.7067593 247.503902,17.5382794 248.576366,17.1327188 C247.862319,16.2185454 246.636009,15.5077063 244.643255,15.5077063 C241.27146,15.5077063 238.767001,18.6563413 238.767001,24.140828 C238.767001,29.117256 240.810479,32.3622948 244.795987,32.3622948 C247.555184,32.3622948 249.445931,30.5394883 250.416388,27.9897754 L254.401338,27.9897754 C253.277035,33.0880931 249.700669,36.6788556 243.671126,36.6788556 C235.548495,36.6783016 230.745819,31.8592223 230.745819,24.6993049 L230.745819,24.6993049 Z" id="Shape" fill="url(#linearGradient-9)"></path>
                <polygon id="Shape" fill="url(#linearGradient-10)" points="255.231884 32.0675431 259.335006 32.0675431 259.335006 5.55762063 255.231884 5.55762063 255.231884 0.969577919 266.516165 0.969577919 266.516165 32.0675431 270.618172 32.0675431 270.618172 36.1458648 255.231327 36.1458648 255.231327 32.0675431"></polygon>
                <path d="M279.039576,25.4406165 C279.346711,31.0486552 281.59476,32.7346127 285.374582,32.7346127 C288.235786,32.7346127 290.025641,31.5583761 291.09699,28.4994963 L295.082497,28.4994963 C294.162765,33.59726 290.79097,36.7054498 284.097547,36.7054498 C276.12709,36.7054498 271.27369,31.8193311 271.27369,24.5064974 C271.27369,17.2956079 276.638796,11.9479702 283.842809,11.9479702 C291.914158,11.9479702 295.695652,17.793694 295.33835,25.4411705 L279.039576,25.4411705 L279.039576,25.4406165 Z M279.090858,21.8714617 L288.03233,21.8714617 C287.776477,17.283419 286.448161,15.1176589 283.689521,15.1176589 C281.031773,15.1176589 279.396878,16.773698 279.090858,21.8714617 L279.090858,21.8714617 Z" id="Shape" fill="url(#linearGradient-11)"></path>
                <path d="M296.776477,32.0675431 L300.366778,32.0675431 L300.366778,16.773698 L296.776477,16.773698 L296.776477,12.1851012 L307.546823,12.1851012 L307.546823,18.502871 C309.086399,14.0849199 311.725195,11.9008764 314.994426,11.9008764 C317.957637,11.9008764 319.842252,14.0843659 319.842252,16.5731339 C319.842252,19.1123199 318.050167,20.9401128 315.852285,20.9401128 C313.606466,20.9401128 311.866778,19.6702428 311.866778,17.3349451 C311.866778,17.2330009 311.957079,17.0811927 311.957079,16.9288305 C310.576366,17.0307747 309.086399,18.5538431 308.060758,21.4996978 L308.060758,32.0675431 L312.6767,32.0675431 L312.6767,36.1458648 L296.776477,36.1458648 L296.776477,32.0675431 L296.776477,32.0675431 Z" id="Shape" fill="url(#linearGradient-12)"></path>
                <path d="M319.965998,24.3945804 C319.965998,17.0811927 325.53456,11.8510124 332.943144,11.8510124 C340.505017,11.8510124 345.819398,16.8274403 345.819398,24.140274 C345.819398,31.5046338 340.249721,36.6843961 332.893534,36.6843961 C325.278707,36.683842 319.965998,31.7583862 319.965998,24.3945804 L319.965998,24.3945804 Z M337.64437,24.2411101 C337.64437,17.8430039 336.060201,15.3038179 332.739688,15.3038179 C329.520624,15.3038179 328.139911,17.893422 328.139911,24.2931903 C328.139911,30.7417145 329.775362,33.2310366 333.044593,33.2310366 C336.314939,33.2310366 337.64437,30.6414325 337.64437,24.2411101 L337.64437,24.2411101 Z" id="Shape" fill="url(#linearGradient-13)"></path>
                <path d="M348.067447,27.9892213 L351.748606,27.9892213 C353.844482,31.0481011 356.755295,33.3279944 359.667781,33.3279944 C361.813824,33.3279944 362.784838,32.340133 362.784838,30.8674826 C362.784838,29.0391357 361.456522,28.3166616 356.704571,27.0977637 C350.983278,25.6245593 348.172241,23.7901179 348.172241,19.5250831 C348.172241,15.3608845 351.544036,11.8537826 356.856745,11.8537826 C359.974916,11.8537826 362.222965,13.1369497 363.704571,14.9148786 L364.521182,12.1856553 L368.584169,12.1856553 L368.584169,19.8325778 L364.572464,19.8325778 C362.733556,17.283419 360.282051,15.130956 357.725753,15.130956 C355.734671,15.130956 354.712375,16.1066284 354.712375,17.4773345 C354.712375,19.2042913 356.091973,19.8951848 360.639353,21.0636648 C365.851171,22.4338169 369.376254,24.1253148 369.376254,28.8485444 C369.376254,32.9617709 366.157191,36.6771935 360.333333,36.6771935 C356.603679,36.6771935 354.09922,35.1690843 352.567447,33.4415735 L351.748606,36.6566939 L348.067447,36.6566939 L348.067447,27.9892213 L348.067447,27.9892213 Z" id="Shape" fill="url(#linearGradient-14)"></path>
                <path d="M372.173356,32.0675431 L375.763657,32.0675431 L375.763657,16.773698 L372.173356,16.773698 L372.173356,12.1851012 L383.457637,12.1851012 L383.457637,32.0675431 L387.047938,32.0675431 L387.047938,36.1458648 L372.172798,36.1458648 L372.172798,32.0675431 L372.173356,32.0675431 Z M374.717949,4.6899869 C374.717949,2.20177294 376.556856,0.271481817 379.264214,0.271481817 C382.023969,0.271481817 383.863991,2.09927471 383.863991,4.53762466 C383.863991,7.02583862 381.972687,8.9057117 379.264214,8.9057117 C376.506689,8.9057117 374.717949,7.17875491 374.717949,4.6899869 L374.717949,4.6899869 Z" id="Shape" fill="url(#linearGradient-15)"></path>
                <path d="M389.61204,27.9892213 L393.496656,27.9892213 C395.591416,31.0481011 398.503344,33.3279944 401.415831,33.3279944 C403.561873,33.3279944 404.532887,32.340133 404.532887,30.8674826 C404.532887,29.0391357 403.204571,28.3166616 398.45262,27.0977637 C392.730212,25.6245593 389.92029,23.7901179 389.92029,19.5250831 C389.92029,15.3608845 393.292085,11.8537826 398.605909,11.8537826 C401.722965,11.8537826 403.9699,13.1369497 405.451505,14.9148786 L406.269231,12.1856553 L410.128763,12.1856553 L410.128763,19.8325778 L406.320513,19.8325778 C404.481605,17.283419 402.0301,15.130956 399.473802,15.130956 C397.48272,15.130956 396.460424,16.1066284 396.460424,17.4773345 C396.460424,19.2042913 397.840022,19.8951848 402.387402,21.0636648 C407.598105,22.4338169 411.124303,24.1253148 411.124303,28.8485444 C411.124303,32.9617709 407.90524,36.6771935 402.080268,36.6771935 C398.350613,36.6771935 395.847269,35.1690843 394.314381,33.4415735 L393.496656,36.6566939 L389.61204,36.6566939 L389.61204,27.9892213 L389.61204,27.9892213 Z" id="Shape" fill="url(#linearGradient-16)"></path>
                <path d="M412.863434,32.5711695 C412.863434,30.0319835 414.856745,28.0507203 417.462096,28.0507203 C420.016165,28.0507203 422.008361,30.0319835 422.008361,32.5201974 C422.008361,35.0078574 420.016165,37.0395386 417.410814,37.0395386 C414.856745,37.0395386 412.863434,35.0588295 412.863434,32.5711695 L412.863434,32.5711695 Z" id="Shape" fill="url(#linearGradient-17)"></path>
                <path d="M424.489967,32.0675431 L428.080268,32.0675431 L428.080268,16.773698 L424.489967,16.773698 L424.489967,12.1851012 L435.261427,12.1851012 L435.261427,18.6557872 C436.799889,14.6439508 439.507246,11.9014304 443.900223,11.9014304 C449.061873,11.9014304 451.16165,15.35479 451.16165,20.2807998 L451.16165,32.0680971 L454.750836,32.0680971 L454.750836,36.1464189 L440.90301,36.1464189 L440.90301,32.0680971 L443.468227,32.0680971 L443.468227,21.2969175 C443.468227,19.722323 443.267001,18.4524529 442.500557,17.6906417 C441.93757,17.1831369 441.283166,16.8784124 440.261984,16.8784124 C437.860089,16.8784124 435.774247,19.2652362 435.774247,22.6681777 L435.774247,32.0680971 L438.339465,32.0680971 L438.339465,36.1464189 L424.489967,36.1464189 L424.489967,32.0675431 L424.489967,32.0675431 Z" id="Shape" fill="url(#linearGradient-18)"></path>
                <path d="M462.816054,25.4406165 C463.123188,31.0486552 465.371237,32.7346127 469.152174,32.7346127 C472.013378,32.7346127 473.801003,31.5583761 474.875697,28.4994963 L478.860089,28.4994963 C477.939242,33.59726 474.567447,36.7054498 467.875139,36.7054498 C459.904682,36.7054498 455.050167,31.8193311 455.050167,24.5064974 C455.050167,17.2956079 460.414158,11.9479702 467.619287,11.9479702 C475.69175,11.9479702 479.473244,17.793694 479.113712,25.4411705 L462.816054,25.4411705 L462.816054,25.4406165 Z M462.867336,21.8714617 L471.808807,21.8714617 C471.554069,17.283419 470.224638,15.1176589 467.465998,15.1176589 C464.809922,15.1176589 463.17447,16.773698 462.867336,21.8714617 L462.867336,21.8714617 Z" id="Shape" fill="url(#linearGradient-19)"></path>
                <path d="M491.168339,6.21360935 L491.168339,12.6953762 L498.862319,12.6953762 L498.862319,16.773698 L491.168339,16.773698 L491.168339,28.6097512 C491.168339,30.7932407 491.964326,32.0121386 493.702899,32.0121386 C495.234671,32.0121386 495.964326,30.8447668 496.884058,27.5437695 L499.957637,28.4069709 C498.833891,34.1961821 496.443144,36.6843961 491.641026,36.6843961 C486.429208,36.6843961 483.987737,33.9934018 483.987737,28.558225 L483.987737,16.773698 L479.371795,16.773698 L479.371795,12.6953762 L483.987737,12.6953762 L483.987737,7.07736476 L491.168339,6.21360935 L491.168339,6.21360935 Z" id="Shape" fill="url(#linearGradient-20)"></path>
            </g>
        </g>
    </g>
</svg>