<?xml version="1.0" encoding="UTF-8"?>
<svg width="407px" height="41px" viewBox="0 0 407 41" version="1.1" xmlns="http://www.w3.org/2000/svg" xmlns:xlink="http://www.w3.org/1999/xlink">
    <!-- Generator: Sketch 49.3 (51167) - http://www.bohemiancoding.com/sketch -->
    <title>14</title>
    <desc>Created with Sketch.</desc>
    <defs>
        <linearGradient x1="50%" y1="0%" x2="50%" y2="100%" id="linearGradient-1">
            <stop stop-color="#F3606A" offset="0%"></stop>
            <stop stop-color="#EE3A4F" offset="100%"></stop>
        </linearGradient>
    </defs>
    <g id="Page-1" stroke="none" stroke-width="1" fill="none" fill-rule="evenodd">
        <g id="14" transform="translate(0.000000, 0.772207)">
            <path d="M0.319139785,2.27956989 L0.319139785,14.3156989 L3.76989247,14.3156989 C5.42580645,7.09419355 6.18580645,5.89032258 9.80903226,5.89032258 L9.80903226,5.89032258 L10.7501075,5.89032258 L10.7501075,27.9556989 L6.33677419,27.9556989 L6.33677419,31.9677419 L22.7858065,31.9677419 L22.7858065,27.9556989 L18.3724731,27.9556989 L18.3724731,5.89032258 L19.3823656,5.89032258 C23.0055914,5.89032258 23.7660215,7.09419355 25.4210753,14.3156989 L25.4210753,14.3156989 L28.8034409,14.3156989 L28.8034409,2.27956989 L0.319139785,2.27956989 Z" id="Fill-40" fill="url(#linearGradient-1)"></path>
            <path d="M46.0550538,10.7045161 L46.0550538,14.7169892 L48.8632258,14.7169892 L44.6576344,25.6756989 L39.9612903,14.7169892 L43.2464516,14.7169892 L43.2464516,10.7045161 L30.0073118,10.7045161 L30.0073118,14.7169892 L32.803871,14.7169892 L41.2141935,32.2283871 C39.9165591,35.3591398 38.7982796,36.1410753 36.9643011,36.3647312 L36.9643011,36.3647312 C37.1875269,35.9178495 37.3221505,35.2916129 37.3221505,34.7101075 L37.3221505,34.7101075 C37.3221505,32.9643011 36.2490323,31.184086 33.9668817,31.184086 L33.9668817,31.184086 C31.9096774,31.184086 30.5225806,32.848172 30.5225806,34.9505376 L30.5225806,34.9505376 C30.5225806,37.6339785 32.4907527,39.6206452 36.2933333,39.6206452 L36.2933333,39.6206452 C41.123871,39.6206452 43.5397849,36.3427957 45.6873118,31.2890323 L45.6873118,31.2890323 L52.8443011,14.7169892 L55.2825806,14.7169892 L55.2825806,10.7045161 L46.0550538,10.7045161 Z" id="Clip-44"></path>
            <path d="M46.0550538,10.7045161 L46.0550538,14.7169892 L48.8632258,14.7169892 L44.6576344,25.6756989 L39.9612903,14.7169892 L43.2464516,14.7169892 L43.2464516,10.7045161 L30.0073118,10.7045161 L30.0073118,14.7169892 L32.803871,14.7169892 L41.2141935,32.2283871 C39.9165591,35.3591398 38.7982796,36.1410753 36.9643011,36.3647312 L36.9643011,36.3647312 C37.1875269,35.9178495 37.3221505,35.2916129 37.3221505,34.7101075 L37.3221505,34.7101075 C37.3221505,32.9643011 36.2490323,31.184086 33.9668817,31.184086 L33.9668817,31.184086 C31.9096774,31.184086 30.5225806,32.848172 30.5225806,34.9505376 L30.5225806,34.9505376 C30.5225806,37.6339785 32.4907527,39.6206452 36.2933333,39.6206452 L36.2933333,39.6206452 C41.123871,39.6206452 43.5397849,36.3427957 45.6873118,31.2890323 L45.6873118,31.2890323 L52.8443011,14.7169892 L55.2825806,14.7169892 L55.2825806,10.7045161 L46.0550538,10.7045161 Z" id="Fill-43" fill="url(#linearGradient-1)"></path>
            <path d="M65.3122581,15.787957 L65.3122581,10.7045161 L56.4864516,10.7045161 L56.4864516,14.7169892 L59.2946237,14.7169892 L59.2946237,35.1776344 L56.4864516,35.1776344 L56.4864516,39.1896774 L69.7255914,39.1896774 L69.7255914,35.1776344 L65.7135484,35.1776344 L65.7135484,28.3131183 C66.9169892,30.3260215 69.0253763,31.8025806 72.111828,31.8025806 L72.111828,31.8025806 C74.2589247,31.8025806 76.0941935,30.951828 77.6154839,29.4309677 L77.6154839,29.4309677 C79.4946237,27.5526882 80.5556989,24.6455914 80.5556989,20.9767742 L80.5556989,20.9767742 C80.5556989,17.4425806 79.591828,14.4907527 77.6688172,12.5668817 L77.6688172,12.5668817 C76.3264516,11.2253763 74.5784946,10.3750538 72.3862366,10.3750538 L72.3862366,10.3750538 C68.9427957,10.3750538 66.9169892,12.4774194 65.3122581,15.787957 M65.5049462,21.4683871 C65.5049462,17.6219355 67.2051613,14.5350538 69.7991398,14.5350538 L69.7991398,14.5350538 C72.304086,14.5350538 73.511828,16.7273118 73.511828,21.0666667 L73.511828,21.0666667 C73.511828,25.6735484 72.3931183,28.1789247 69.8886022,28.1789247 L69.8886022,28.1789247 C66.8916129,28.1789247 65.5049462,25.2258065 65.5049462,21.4683871" id="Fill-46" fill="url(#linearGradient-1)"></path>
            <path d="M82.4632258,21.5496774 C82.4632258,27.9909677 86.7131183,32.3217204 93.6911828,32.3217204 L93.6911828,32.3217204 C99.5509677,32.3217204 102.503656,29.5608602 103.308387,25.1475269 L103.308387,25.1475269 L99.8189247,25.1475269 C98.8804301,27.5552688 97.3144086,28.8202151 94.8090323,28.8202151 L94.8090323,28.8202151 C91.4989247,28.8202151 89.5307527,27.1539785 89.2627957,22.3393548 L89.2627957,22.3393548 L103.532043,22.3393548 C103.844731,15.5187097 100.535054,10.4709677 93.4670968,10.4709677 L93.4670968,10.4709677 C87.16,10.4709677 82.4632258,15.1974194 82.4632258,21.5496774 M93.3324731,13.5819355 C95.7488172,13.5819355 96.9113978,15.1182796 97.1350538,19.5311828 L97.1350538,19.5311828 L89.3070968,19.5311828 C89.5763441,14.7169892 91.0073118,13.5819355 93.3324731,13.5819355" id="Fill-49" fill="url(#linearGradient-1)"></path>
            <path d="M106.086452,10.643871 C106.086452,13.1036559 107.697204,14.8937634 109.978925,14.8937634 L109.978925,14.8937634 C112.349247,14.8937634 113.646882,13.2825806 113.646882,11.403871 L113.646882,11.403871 C113.646882,9.83870968 112.751828,8.63010753 111.186237,8.09376344 L111.186237,8.09376344 C111.991398,6.70752688 113.602151,5.90236559 115.570323,5.90236559 L115.570323,5.90236559 C118.343656,5.90236559 119.954409,7.64645161 119.954409,10.643871 L119.954409,10.643871 C119.954409,14.4907527 117.627957,16.1006452 113.378065,18.7845161 L113.378065,18.7845161 C109.844731,21.0219355 105.729462,23.7952688 105.729462,28.0443011 L105.729462,28.0443011 C105.729462,30.7733333 107.205161,32.5625806 109.396989,32.5625806 L109.396989,32.5625806 C111.230538,32.5625806 112.349247,31.2206452 112.349247,29.6997849 L112.349247,29.6997849 C112.349247,28.8051613 111.946667,28.1337634 111.633548,27.8658065 L111.633548,27.8658065 C111.812473,27.8206452 112.170753,27.7763441 112.43914,27.7763441 L112.43914,27.7763441 C115.391398,27.7763441 117.00172,32.5182796 122.056774,32.5182796 L122.056774,32.5182796 C125.68043,32.5182796 127.916559,29.8787097 128.31914,22.3630108 L128.31914,22.3630108 L125.68043,22.1402151 C124.964731,25.1819355 124.337634,26.2550538 122.63828,26.2550538 L122.63828,26.2550538 C120.535484,26.2550538 118.299355,24.5995699 115.123011,24.5995699 L115.123011,24.5995699 C112.975914,24.5995699 111.275269,25.2709677 109.889462,26.3002151 L109.889462,26.3002151 L109.710108,26.1212903 C110.873118,23.3027957 113.915269,22.0946237 118.432688,20.2167742 L118.432688,20.2167742 C123.219355,18.2929032 127.692473,16.2348387 127.692473,11.0460215 L127.692473,11.0460215 C127.692473,6.34924731 123.80086,2.7255914 116.823226,2.7255914 L116.823226,2.7255914 C110.292043,2.7255914 106.086452,6.6172043 106.086452,10.643871" id="Fill-52" fill="url(#linearGradient-1)"></path>
            <path d="M130.707097,2.27956989 L130.707097,6.2916129 L134.71957,6.2916129 L134.71957,27.9556989 L130.707097,27.9556989 L130.707097,31.9677419 L143.980645,31.9677419 C155.834839,31.9677419 161.291613,25.6232258 161.291613,16.9453763 L161.291613,16.9453763 C161.291613,8.22193548 155.656344,2.27956989 143.711828,2.27956989 L143.711828,2.27956989 L130.707097,2.27956989 Z M141.940215,6.2916129 L144.069677,6.2916129 C150.735054,6.2916129 153.329892,9.20688172 153.329892,16.9896774 L153.329892,16.9896774 C153.329892,25.2202151 150.869247,27.9556989 144.383226,27.9556989 L144.383226,27.9556989 L141.940215,27.9556989 L141.940215,6.2916129 Z" id="Fill-55" fill="url(#linearGradient-1)"></path>
            <path d="M165.994409,4.06795699 C165.994409,6.25935484 167.56,7.78064516 169.975484,7.78064516 L169.975484,7.78064516 C172.346667,7.78064516 174.00129,6.12516129 174.00129,3.93333333 L174.00129,3.93333333 C174.00129,1.78623656 172.391398,0.175913978 169.975484,0.175913978 L169.975484,0.175913978 C167.604301,0.175913978 165.994409,1.87612903 165.994409,4.06795699 L165.994409,4.06795699 Z M163.605161,10.7045161 L163.605161,14.7169892 L167.215914,14.7169892 L167.215914,27.9556989 L163.605161,27.9556989 L163.605161,31.9677419 L176.844301,31.9677419 L176.844301,27.9556989 L173.634839,27.9556989 L173.634839,10.7045161 L163.605161,10.7045161 Z" id="Fill-58" fill="url(#linearGradient-1)"></path>
            <path d="M179.109677,16.1006452 C179.109677,17.7556989 180.232258,19.2326882 182.514409,19.2326882 L182.514409,19.2326882 C184.348387,19.2326882 185.699785,18.024086 185.699785,16.4589247 L185.699785,16.4589247 C185.699785,15.4296774 185.315269,14.6696774 184.644731,14.1780645 L184.644731,14.1780645 C185.494624,13.8197849 186.470968,13.6408602 187.365591,13.6408602 L187.365591,13.6408602 C189.96,13.6408602 191.286882,14.624086 191.286882,17.3088172 L191.286882,17.3088172 L191.286882,19.1423656 C191.286882,19.6795699 190.988817,19.7243011 188.528602,20.0817204 L188.528602,20.0817204 C183.384946,20.7531183 181.163011,21.6477419 179.775914,23.0352688 L179.775914,23.0352688 C178.836559,23.9741935 178.299785,25.2709677 178.299785,26.6580645 L178.299785,26.6580645 C178.299785,30.0572043 180.983656,32.2946237 184.696774,32.2946237 L184.696774,32.2946237 C187.782796,32.2946237 190.287312,30.7647312 191.630108,27.9556989 L191.630108,27.9556989 L191.853763,27.9556989 C192.212043,30.7647312 194.232258,32.2946237 196.782366,32.2946237 L196.782366,32.2946237 C199.779355,32.2946237 201.443011,30.6395699 202.292043,27.1948387 L202.292043,27.1948387 L200.116559,26.4787097 C199.713978,28 199.253333,28.4924731 198.76129,28.4924731 L198.76129,28.4924731 C198.045591,28.4924731 197.706667,28.2675269 197.706667,27.2391398 L197.706667,27.2391398 L197.706667,17.7113978 C197.706667,13.3729032 195.409032,10.4197849 189.101505,10.4197849 L189.101505,10.4197849 C183.957849,10.4197849 179.109677,12.2537634 179.109677,16.1006452 M185.003011,25.7182796 C185.003011,23.7053763 186.023226,22.6765591 189.19957,22.1402151 L189.19957,22.1402151 C190.317849,21.9165591 190.886452,21.8713978 191.286882,21.7819355 L191.286882,21.7819355 L191.286882,23.84 C191.286882,26.5234409 189.844731,28.4021505 187.831828,28.4021505 L187.831828,28.4021505 C185.863226,28.4021505 185.003011,27.1496774 185.003011,25.7182796" id="Fill-61" fill="url(#linearGradient-1)"></path>
            <path d="M200.514839,1.07612903 L200.514839,4.68688172 L203.724301,4.68688172 L203.724301,31.9677419 L207.157849,31.9677419 L209.213333,27.7922581 C210.59914,30.431828 212.833978,32.2490323 216.546667,32.2490323 L216.546667,32.2490323 C218.782366,32.2490323 220.702796,31.443871 222.133763,30.0129032 L222.133763,30.0129032 C224.013333,28.1337634 225.12172,25.0477419 225.12172,21.2898925 L225.12172,21.2898925 C225.12172,17.5772043 224.163441,14.4455914 222.24086,12.5221505 L222.24086,12.5221505 C220.943226,11.2253763 219.251613,10.3750538 216.88086,10.3750538 L216.88086,10.3750538 C213.704516,10.3750538 211.747957,12.2537634 210.143226,15.0275269 L210.143226,15.0275269 L210.143226,1.07612903 L200.514839,1.07612903 Z M209.886022,21.6924731 C209.886022,17.6666667 211.496774,14.5350538 214.35957,14.5350538 L214.35957,14.5350538 C216.953548,14.5350538 218.116129,16.9062366 218.116129,21.3797849 L218.116129,21.3797849 C218.116129,26.1212903 216.953548,28.6258065 214.35957,28.6258065 L214.35957,28.6258065 C211.541505,28.6258065 209.886022,25.8077419 209.886022,21.6924731 L209.886022,21.6924731 Z" id="Fill-64" fill="url(#linearGradient-1)"></path>
            <path d="M227.068387,21.5496774 C227.068387,27.9909677 231.317849,32.3217204 238.296774,32.3217204 L238.296774,32.3217204 C244.155699,32.3217204 247.108387,29.5608602 247.913978,25.1475269 L247.913978,25.1475269 L244.424946,25.1475269 C243.485161,27.5552688 241.91914,28.8202151 239.414194,28.8202151 L239.414194,28.8202151 C236.104516,28.8202151 234.135914,27.1539785 233.867097,22.3393548 L233.867097,22.3393548 L248.137204,22.3393548 C248.450323,15.5187097 245.140215,10.4709677 238.072258,10.4709677 L238.072258,10.4709677 C231.765161,10.4709677 227.068387,15.1974194 227.068387,21.5496774 M237.938925,13.5819355 C240.353978,13.5819355 241.517419,15.1182796 241.740215,19.5311828 L241.740215,19.5311828 L233.912258,19.5311828 C234.181075,14.7169892 235.612473,13.5819355 237.938925,13.5819355" id="Fill-67" fill="url(#linearGradient-1)"></path>
            <path d="M252.669247,6.17032258 L252.669247,11.1062366 L249.059785,11.1062366 L249.059785,14.7169892 L252.669247,14.7169892 L252.669247,25.0916129 C252.669247,29.8787097 254.895054,32.2490323 259.458065,32.2490323 L259.458065,32.2490323 C263.662796,32.2490323 265.844301,30.0572043 266.827527,24.9582796 L266.827527,24.9582796 L264.130753,24.1978495 C263.326452,27.1053763 262.673978,28.1337634 261.332043,28.1337634 L261.332043,28.1337634 C259.811613,28.1337634 259.089892,27.0606452 259.089892,25.1367742 L259.089892,25.1367742 L259.089892,14.7169892 L265.909247,14.7169892 L265.909247,11.1062366 L259.089892,11.1062366 L259.089892,5.40989247 L252.669247,6.17032258 Z" id="Fill-70" fill="url(#linearGradient-1)"></path>
            <path d="M267.873548,21.5496774 C267.873548,27.9909677 272.123011,32.3217204 279.102366,32.3217204 L279.102366,32.3217204 C284.96129,32.3217204 287.913978,29.5608602 288.72,25.1475269 L288.72,25.1475269 L285.230108,25.1475269 C284.290323,27.5552688 282.726022,28.8202151 280.220215,28.8202151 L280.220215,28.8202151 C276.909677,28.8202151 274.941505,27.1539785 274.672688,22.3393548 L274.672688,22.3393548 L288.942796,22.3393548 C289.255484,15.5187097 285.946237,10.4709677 278.877419,10.4709677 L278.877419,10.4709677 C272.570323,10.4709677 267.873548,15.1974194 267.873548,21.5496774 M278.743656,13.5819355 C281.15871,13.5819355 282.322581,15.1182796 282.545806,19.5311828 L282.545806,19.5311828 L274.717419,19.5311828 C274.986237,14.7169892 276.417204,13.5819355 278.743656,13.5819355" id="Fill-73" fill="url(#linearGradient-1)"></path>
            <path d="M305.767312,10.3036559 L305.051183,12.8868817 C303.753548,11.3212903 301.785806,10.3698925 299.057204,10.3698925 L299.057204,10.3698925 C294.404731,10.3698925 291.452903,13.4516129 291.452903,17.1195699 L291.452903,17.1195699 C291.452903,20.8765591 293.913548,22.4774194 298.922581,23.7741935 L298.922581,23.7741935 C303.083441,24.8477419 304.246022,25.4537634 304.246022,27.064086 L304.246022,27.064086 C304.246022,28.3612903 303.396559,29.1698925 301.517419,29.1698925 L301.517419,29.1698925 C298.967742,29.1698925 296.418065,27.1539785 294.583656,24.3453763 L294.583656,24.3453763 L291.184946,24.3453763 L291.184946,32.3694624 L294.583656,32.3694624 L295.299785,29.4670968 C296.642151,30.9883871 298.833118,32.2460215 302.099785,32.2460215 L302.099785,32.2460215 C307.19871,32.2460215 310.016774,28.9780645 310.016774,25.3539785 L310.016774,25.3539785 C310.016774,21.1944086 306.929892,19.7113978 302.367742,18.5045161 L302.367742,18.5045161 C298.385806,17.4756989 297.178495,16.8821505 297.178495,15.3608602 L297.178495,15.3608602 C297.178495,14.1531183 298.073978,13.3243011 299.817204,13.3243011 L299.817204,13.3243011 C302.054194,13.3243011 304.20172,15.1182796 305.811613,17.5251613 L305.811613,17.5251613 L309.23828,17.5251613 L309.23828,10.3036559 L305.767312,10.3036559 Z" id="Fill-76" fill="url(#linearGradient-1)"></path>
            <path d="M311.989677,28.6258065 C311.989677,30.8180645 313.734624,32.5625806 315.970753,32.5625806 L315.970753,32.5625806 C318.252473,32.5625806 319.996559,30.7733333 319.996559,28.5810753 L319.996559,28.5810753 C319.996559,26.3892473 318.252473,24.6455914 316.015484,24.6455914 L316.015484,24.6455914 C313.734624,24.6455914 311.989677,26.3892473 311.989677,28.6258065" id="Fill-79" fill="url(#linearGradient-1)"></path>
            <path d="M332.401225,32.3732026 C337.741095,32.3732026 340.908814,29.2054831 341.904383,24.6349165 L338.374639,24.6349165 C337.514829,27.0785857 335.840463,28.5266861 333.396794,28.5266861 C329.867049,28.5266861 328.056924,25.6304854 328.056924,21.1956782 C328.056924,16.3083396 330.274328,13.5026452 333.261035,13.5026452 C335.025907,13.5026452 336.111982,14.1361891 336.745526,14.9507455 C335.79521,15.3127706 334.844894,16.3535927 334.844894,17.8016931 C334.844894,19.5213122 336.021476,21.0146656 338.238879,21.0146656 C340.592042,21.0146656 341.85913,19.3855528 341.85913,17.122896 C341.85913,13.9099234 338.736664,10.2444195 332.627491,10.2444195 C325.749014,10.2444195 320.952182,14.8602393 320.952182,21.6934627 C320.952182,28.0741547 325.205977,32.3732026 332.401225,32.3732026 L332.401225,32.3732026 Z" id=".net.com" fill="url(#linearGradient-1)"></path>
            <path d="M355.185976,32.3732026 C348.443259,32.3732026 343.736933,27.9836484 343.736933,21.4219439 C343.736933,14.9054924 348.669524,10.2444195 355.231229,10.2444195 C361.928693,10.2444195 366.635019,14.6792267 366.635019,21.1956782 C366.635019,27.7573828 361.702427,32.3732026 355.185976,32.3732026 Z M355.321735,29.2959894 C358.217936,29.2959894 359.394517,26.9880795 359.394517,21.2861845 C359.394517,15.5842894 357.99167,13.3216327 355.050216,13.3216327 C352.199269,13.3216327 350.977434,15.6295426 350.977434,21.3314376 C350.977434,27.0785857 352.425535,29.2959894 355.321735,29.2959894 Z" id="Path" fill="url(#linearGradient-1)"></path>
            <path d="M390.203182,15.9010614 C389.750651,12.41657 387.850019,10.2896726 384.229768,10.2896726 C380.564264,10.2896726 378.256354,12.7333419 376.763001,16.3083396 L376.763001,10.742204 L367.440855,10.742204 L367.440855,14.4982142 L370.563321,14.4982142 L370.563321,28.164661 L367.440855,28.164661 L367.440855,31.9206712 L379.342429,31.9206712 L379.342429,28.164661 L377.170279,28.164661 L377.170279,19.8833373 C377.170279,16.8513772 379.116164,14.7244799 381.016795,14.7244799 C381.831352,14.7244799 382.464896,14.9507455 382.872174,15.4032769 C383.550971,16.0820739 383.867743,17.2134023 383.867743,18.6615026 L383.867743,28.164661 L381.605086,28.164661 L381.605086,31.9206712 L392.646851,31.9206712 L392.646851,28.164661 L390.474701,28.164661 L390.474701,19.8833373 C390.474701,16.8513772 392.420586,14.7244799 394.321217,14.7244799 C395.181027,14.7244799 395.769318,14.9507455 396.221849,15.4032769 C396.900646,16.0820739 397.172165,17.2134023 397.172165,18.6615026 L397.172165,28.164661 L394.909508,28.164661 L394.909508,31.9206712 L406.856336,31.9206712 L406.856336,28.164661 L403.779122,28.164661 L403.779122,17.7564399 C403.779122,13.3668858 401.968997,10.2896726 397.53419,10.2896726 C394.004445,10.2896726 391.741789,12.5070762 390.203182,15.9010614 L390.203182,15.9010614 Z" id="Path" fill="url(#linearGradient-1)"></path>
        </g>
    </g>
</svg>