<?xml version="1.0" encoding="UTF-8"?>
<svg width="587px" height="40px" viewBox="0 0 587 40" version="1.1" xmlns="http://www.w3.org/2000/svg" xmlns:xlink="http://www.w3.org/1999/xlink">
    <!-- Generator: Sketch 49.3 (51167) - http://www.bohemiancoding.com/sketch -->
    <title>15</title>
    <desc>Created with Sketch.</desc>
    <defs>
        <linearGradient x1="50%" y1="0%" x2="50%" y2="100%" id="linearGradient-1">
            <stop stop-color="#B84E8B" offset="0%"></stop>
            <stop stop-color="#9E3E7E" offset="100%"></stop>
        </linearGradient>
    </defs>
    <g id="Page-1" stroke="none" stroke-width="1" fill="none" fill-rule="evenodd">
        <g id="15" fill="url(#linearGradient-1)">
            <path d="M0,38.7295148 L19.1730271,38.7295148 L19.1730271,33.9636481 L13.8593596,33.9636481 L13.8593596,24.7605951 L18.0226455,24.7605951 C29.3621216,24.7605951 33.6349676,19.8303881 33.6349676,13.6402393 C33.6349676,7.23097024 29.2525614,2.6842238 17.9130854,2.6842238 L0,2.6842238 L0,7.45009055 L4.93020698,7.45009055 L4.93020698,33.9636481 L0,33.9636481 L0,38.7295148 Z M13.8593596,20.2138486 L13.8593596,7.23097024 L17.3105045,7.23097024 C22.624172,7.23097024 24.1032341,9.42217334 24.1032341,13.5854592 C24.1032341,17.9678654 22.6789521,20.2138486 17.3652846,20.2138486 L13.8593596,20.2138486 Z M34.4026826,39.2225355 L38.6207486,39.2225355 L39.4972298,35.7713906 C41.1406322,37.6339133 43.824856,39.2773156 47.8238016,39.2773156 C54.0687305,39.2773156 57.5198754,35.2783699 57.5198754,30.8411837 C57.5198754,25.7466365 53.74005,23.9388939 48.1524821,22.4598318 C43.2770552,21.19989 41.7979931,20.487749 41.7979931,18.6252264 C41.7979931,17.1461643 42.8935946,16.1601229 45.0300177,16.1601229 C47.7690215,16.1601229 50.3984653,18.2965459 52.3705481,21.3642302 L56.588614,21.3642302 L56.588614,12.5994178 L52.315768,12.5994178 L51.4392867,15.6671022 C49.8506645,13.7497995 47.4403411,12.4898577 44.0987563,12.4898577 C38.4016283,12.4898577 34.7861432,16.269683 34.7861432,20.7616494 C34.7861432,25.3631759 37.7990474,27.3352587 43.9344161,28.923881 C49.0289633,30.2386028 50.4532453,31.0055239 50.4532453,32.9776067 C50.4532453,34.5662289 49.4124239,35.6070504 47.1116606,35.6070504 C43.9891962,35.6070504 40.8667318,33.2515071 38.6207486,29.8003622 L34.4026826,29.8003622 L34.4026826,39.2225355 Z M73.1877714,39.2773156 C81.0761026,39.2773156 87.0471311,33.6897477 87.0471311,25.7466365 C87.0471311,17.8583053 81.350003,12.4898577 73.2425515,12.4898577 C65.2994403,12.4898577 59.3284118,18.1322057 59.3284118,26.0205368 C59.3284118,33.9636481 65.0255399,39.2773156 73.1877714,39.2773156 L73.1877714,39.2773156 Z M73.3521117,35.5522703 C69.8461867,35.5522703 68.0932242,32.8680465 68.0932242,25.9109767 C68.0932242,19.0086869 69.5722863,16.214903 73.0234312,16.214903 C76.5841363,16.214903 78.2823187,18.9539068 78.2823187,25.8561966 C78.2823187,32.7584864 76.8580366,35.5522703 73.3521117,35.5522703 L73.3521117,35.5522703 Z M87.3504063,38.7295148 L103.89399,38.7295148 L103.89399,34.1827684 L99.128123,34.1827684 L99.128123,22.8980724 C100.059384,19.7208279 101.867127,18.0774256 103.346189,17.9678654 C103.346189,18.1322057 103.291409,18.2965459 103.291409,18.4061061 C103.291409,20.9259896 105.153931,22.2954916 107.564255,22.2954916 C109.919798,22.2954916 111.837101,20.3234088 111.837101,17.5844049 C111.837101,14.9001811 109.810238,12.5446378 106.632994,12.5446378 C103.127069,12.5446378 100.168944,14.9001811 98.6351023,19.6660478 L98.6351023,13.0924385 L87.3504063,13.0924385 L87.3504063,17.639185 L91.1302316,17.639185 L91.1302316,34.1827684 L87.3504063,34.1827684 L87.3504063,38.7295148 Z M121.478395,9.31261318 C124.381739,9.31261318 126.408602,7.28575032 126.408602,4.60152651 C126.408602,1.97208279 124.436519,-1.33226763e-14 121.478395,-1.33226763e-14 C118.57505,-1.33226763e-14 116.602968,2.08164295 116.602968,4.76586675 C116.602968,7.45009055 118.52027,9.31261318 121.478395,9.31261318 L121.478395,9.31261318 Z M113.699624,38.7295148 L130.024087,38.7295148 L130.024087,34.1827684 L125.860801,34.1827684 L125.860801,13.0924385 L113.699624,13.0924385 L113.699624,17.639185 L117.862909,17.639185 L117.862909,34.1827684 L113.699624,34.1827684 L113.699624,38.7295148 Z M139.747947,39.2225355 C143.527773,39.2225355 146.595457,37.6886934 148.238859,33.7993079 L148.51276,33.7993079 C148.951,37.5791332 151.416104,39.2225355 154.538568,39.2225355 C158.208834,39.2225355 160.235696,37.3052328 161.276518,33.0871668 L158.592294,32.2106856 C158.099273,34.0732082 157.496693,34.6757891 156.894112,34.6757891 C156.01763,34.6757891 155.52461,34.4018887 155.52461,33.1419469 L155.52461,21.4737904 C155.52461,16.1601229 152.785606,12.5446378 145.061615,12.5446378 C138.761906,12.5446378 132.900438,14.7906209 132.900438,19.5017076 C132.900438,21.5285705 134.26994,23.336313 137.063724,23.336313 C139.309707,23.336313 140.953109,21.8572509 140.953109,19.9399482 C140.953109,18.6800064 140.460088,17.7487451 139.638387,17.1461643 C140.679209,16.7079237 141.82959,16.4888033 142.925192,16.4888033 C146.102436,16.4888033 147.636279,17.6939651 147.636279,20.9807697 L147.636279,23.2267529 C147.636279,23.8841138 147.362378,23.9388939 144.349474,24.3771345 C138.049765,25.1988357 135.420321,26.2944372 133.722139,27.9926196 C132.571757,29.1430013 131.914396,30.7316235 131.914396,32.4298059 C131.914396,36.5930918 135.201201,39.2225355 139.747947,39.2225355 L139.747947,39.2225355 Z M143.472993,34.5662289 C141.062669,34.5662289 140.076628,33.0323868 140.076628,31.2794243 C140.076628,28.8143208 141.28179,27.554379 145.171175,26.8970181 C146.540677,26.6231177 147.143258,26.5683376 147.636279,26.4587775 L147.636279,28.978661 C147.636279,32.2654657 145.938096,34.5662289 143.472993,34.5662289 L143.472993,34.5662289 Z M163.742415,7.34053039 L163.742415,13.3663389 L159.031329,13.3663389 L159.031329,17.639185 L163.578075,17.639185 L163.578075,30.5125032 C163.578075,36.3739715 166.317079,39.2773156 171.904647,39.2773156 C177.053974,39.2773156 179.738198,36.5930918 180.94336,30.348163 L177.656555,29.4169016 C176.670514,32.9776067 175.903593,34.2375485 174.26019,34.2375485 C172.397668,34.2375485 171.575966,32.9228266 171.575966,30.5672833 L171.575966,17.639185 L179.792978,17.639185 L179.792978,13.3663389 L171.575966,13.3663389 L171.575966,6.40926907 L163.742415,7.34053039 Z M189.818526,9.31261318 C192.72187,9.31261318 194.748733,7.28575032 194.748733,4.60152651 C194.748733,1.97208279 192.77665,-1.33226763e-14 189.818526,-1.33226763e-14 C186.915182,-1.33226763e-14 184.943099,2.08164295 184.943099,4.76586675 C184.943099,7.45009055 186.860402,9.31261318 189.818526,9.31261318 L189.818526,9.31261318 Z M182.039755,38.7295148 L198.364218,38.7295148 L198.364218,34.1827684 L194.200932,34.1827684 L194.200932,13.0924385 L182.039755,13.0924385 L182.039755,17.639185 L186.203041,17.639185 L186.203041,34.1827684 L182.039755,34.1827684 L182.039755,38.7295148 Z M213.484314,39.2773156 C219.948363,39.2773156 223.782968,35.4427102 224.98813,29.9099223 L220.715284,29.9099223 C219.674462,32.8680465 217.647599,34.621009 214.689475,34.621009 C210.416629,34.621009 208.225426,31.1150841 208.225426,25.7466365 C208.225426,19.8303881 210.90965,16.4340233 214.525135,16.4340233 C216.661558,16.4340233 217.97628,17.2009444 218.743201,18.1869857 C217.592819,18.6252264 216.442438,19.8851682 216.442438,21.6381306 C216.442438,23.7197736 217.86672,25.5275161 220.550944,25.5275161 C223.399508,25.5275161 224.93335,23.5554334 224.93335,20.8164295 C224.93335,16.927044 221.153524,12.4898577 213.758214,12.4898577 C205.431642,12.4898577 199.624954,18.0774256 199.624954,26.3492173 C199.624954,34.0732082 204.774281,39.2773156 213.484314,39.2773156 L213.484314,39.2773156 Z M228.822735,27.6091591 L243.065555,27.6091591 L243.065555,22.1311513 L228.822735,22.1311513 L228.822735,27.6091591 Z M267.171965,33.9636481 L262.296538,33.9636481 L262.296538,38.7295148 L281.195665,38.7295148 L281.195665,33.9636481 L276.922819,33.9636481 L265.473783,2.46510349 L256.48985,2.46510349 L244.876474,33.9636481 L240.932308,33.9636481 L240.932308,38.7295148 L254.791668,38.7295148 L254.791668,33.9636481 L250.244921,33.9636481 L252.545685,27.2256985 L264.871202,27.2256985 L267.171965,33.9636481 Z M258.681053,9.42217334 L258.900174,9.42217334 L263.44692,22.8980724 L254.024747,22.8980724 L258.681053,9.42217334 Z M282.893847,38.7295148 L299.437431,38.7295148 L299.437431,34.1827684 L294.671564,34.1827684 L294.671564,22.8980724 C295.602825,19.7208279 297.410568,18.0774256 298.88963,17.9678654 C298.88963,18.1322057 298.83485,18.2965459 298.83485,18.4061061 C298.83485,20.9259896 300.697373,22.2954916 303.107696,22.2954916 C305.463239,22.2954916 307.380542,20.3234088 307.380542,17.5844049 C307.380542,14.9001811 305.353679,12.5446378 302.176435,12.5446378 C298.67051,12.5446378 295.712386,14.9001811 294.178543,19.6660478 L294.178543,13.0924385 L282.893847,13.0924385 L282.893847,17.639185 L286.673673,17.639185 L286.673673,34.1827684 L282.893847,34.1827684 L282.893847,38.7295148 Z M312.475089,7.34053039 L312.475089,13.3663389 L307.764003,13.3663389 L307.764003,17.639185 L312.310749,17.639185 L312.310749,30.5125032 C312.310749,36.3739715 315.049753,39.2773156 320.637321,39.2773156 C325.786648,39.2773156 328.470872,36.5930918 329.676034,30.348163 L326.389229,29.4169016 C325.403188,32.9776067 324.636267,34.2375485 322.992864,34.2375485 C321.130342,34.2375485 320.30864,32.9228266 320.30864,30.5672833 L320.30864,17.639185 L328.525652,17.639185 L328.525652,13.3663389 L320.30864,13.3663389 L320.30864,6.40926907 L312.475089,7.34053039 Z M330.279408,38.7295148 L344.905689,38.7295148 L344.905689,34.1827684 L342.057125,34.1827684 L342.057125,24.1580142 C342.057125,20.487749 344.412668,17.9130854 346.932552,17.9130854 C348.082934,17.9130854 348.904635,18.2417658 349.507216,18.7895666 C350.328917,19.6112678 350.657597,20.9807697 350.657597,22.6789521 L350.657597,34.1827684 L347.754253,34.1827684 L347.754253,38.7295148 L362.380534,38.7295148 L362.380534,34.1827684 L358.710269,34.1827684 L358.710269,21.5833506 C358.710269,16.269683 356.409505,12.5446378 350.876718,12.5446378 C346.713432,12.5446378 344.029208,14.9549612 342.057125,18.8443467 L342.057125,0.931261318 L330.279408,0.931261318 L330.279408,5.58756791 L334.004454,5.58756791 L334.004454,34.1827684 L330.279408,34.1827684 L330.279408,38.7295148 Z M363.64127,38.7295148 L380.184853,38.7295148 L380.184853,34.1827684 L375.418986,34.1827684 L375.418986,22.8980724 C376.350248,19.7208279 378.15799,18.0774256 379.637052,17.9678654 C379.637052,18.1322057 379.582272,18.2965459 379.582272,18.4061061 C379.582272,20.9259896 381.444795,22.2954916 383.855118,22.2954916 C386.210662,22.2954916 388.127964,20.3234088 388.127964,17.5844049 C388.127964,14.9001811 386.101101,12.5446378 382.923857,12.5446378 C379.417932,12.5446378 376.459808,14.9001811 374.925966,19.6660478 L374.925966,13.0924385 L363.64127,13.0924385 L363.64127,17.639185 L367.421095,17.639185 L367.421095,34.1827684 L363.64127,34.1827684 L363.64127,38.7295148 Z M397.194464,9.31261318 C400.097808,9.31261318 402.124671,7.28575032 402.124671,4.60152651 C402.124671,1.97208279 400.152588,-1.33226763e-14 397.194464,-1.33226763e-14 C394.29112,-1.33226763e-14 392.319037,2.08164295 392.319037,4.76586675 C392.319037,7.45009055 394.23634,9.31261318 397.194464,9.31261318 L397.194464,9.31261318 Z M389.415693,38.7295148 L405.740156,38.7295148 L405.740156,34.1827684 L401.57687,34.1827684 L401.57687,13.0924385 L389.415693,13.0924385 L389.415693,17.639185 L393.578979,17.639185 L393.578979,34.1827684 L389.415693,34.1827684 L389.415693,38.7295148 Z M409.822463,7.34053039 L409.822463,13.3663389 L405.111376,13.3663389 L405.111376,17.639185 L409.658123,17.639185 L409.658123,30.5125032 C409.658123,36.3739715 412.397126,39.2773156 417.984694,39.2773156 C423.134022,39.2773156 425.818245,36.5930918 427.023407,30.348163 L423.736603,29.4169016 C422.750561,32.9776067 421.98364,34.2375485 420.340238,34.2375485 C418.477715,34.2375485 417.656014,32.9228266 417.656014,30.5672833 L417.656014,17.639185 L425.873026,17.639185 L425.873026,13.3663389 L417.656014,13.3663389 L417.656014,6.40926907 L409.822463,7.34053039 Z M435.898574,9.31261318 C438.801918,9.31261318 440.828781,7.28575032 440.828781,4.60152651 C440.828781,1.97208279 438.856698,-1.33226763e-14 435.898574,-1.33226763e-14 C432.99523,-1.33226763e-14 431.023147,2.08164295 431.023147,4.76586675 C431.023147,7.45009055 432.940449,9.31261318 435.898574,9.31261318 L435.898574,9.31261318 Z M428.119803,38.7295148 L444.444266,38.7295148 L444.444266,34.1827684 L440.28098,34.1827684 L440.28098,13.0924385 L428.119803,13.0924385 L428.119803,17.639185 L432.283089,17.639185 L432.283089,34.1827684 L428.119803,34.1827684 L428.119803,38.7295148 Z M446.115455,39.2225355 L450.333521,39.2225355 L451.210002,35.7713906 C452.853405,37.6339133 455.537628,39.2773156 459.536574,39.2773156 C465.781503,39.2773156 469.232648,35.2783699 469.232648,30.8411837 C469.232648,25.7466365 465.452822,23.9388939 459.865255,22.4598318 C454.989828,21.19989 453.510766,20.487749 453.510766,18.6252264 C453.510766,17.1461643 454.606367,16.1601229 456.74279,16.1601229 C459.481794,16.1601229 462.111238,18.2965459 464.083321,21.3642302 L468.301387,21.3642302 L468.301387,12.5994178 L464.02854,12.5994178 L463.152059,15.6671022 C461.563437,13.7497995 459.153114,12.4898577 455.811529,12.4898577 C450.114401,12.4898577 446.498916,16.269683 446.498916,20.7616494 C446.498916,25.3631759 449.51182,27.3352587 455.647189,28.923881 C460.741736,30.2386028 462.166018,31.0055239 462.166018,32.9776067 C462.166018,34.5662289 461.125196,35.6070504 458.824433,35.6070504 C455.701969,35.6070504 452.579504,33.2515071 450.333521,29.8003622 L446.115455,29.8003622 L446.115455,39.2225355 Z M476.244498,39.6607762 C479.038282,39.6607762 481.174705,37.469573 481.174705,34.7853492 C481.174705,32.1011254 479.038282,29.9647024 476.299278,29.9647024 C473.505494,29.9647024 471.369071,32.1011254 471.369071,34.8401293 C471.369071,37.5243531 473.505494,39.6607762 476.244498,39.6607762 L476.244498,39.6607762 Z M496.567907,39.2773156 C503.031956,39.2773156 506.866561,35.4427102 508.071723,29.9099223 L503.798877,29.9099223 C502.758055,32.8680465 500.731192,34.621009 497.773068,34.621009 C493.500222,34.621009 491.309019,31.1150841 491.309019,25.7466365 C491.309019,19.8303881 493.993243,16.4340233 497.608728,16.4340233 C499.745151,16.4340233 501.059873,17.2009444 501.826794,18.1869857 C500.676412,18.6252264 499.526031,19.8851682 499.526031,21.6381306 C499.526031,23.7197736 500.950313,25.5275161 503.634537,25.5275161 C506.483101,25.5275161 508.016943,23.5554334 508.016943,20.8164295 C508.016943,16.927044 504.237117,12.4898577 496.841807,12.4898577 C488.515235,12.4898577 482.708547,18.0774256 482.708547,26.3492173 C482.708547,34.0732082 487.857874,39.2773156 496.567907,39.2773156 L496.567907,39.2773156 Z M524.122286,39.2773156 C532.010617,39.2773156 537.981645,33.6897477 537.981645,25.7466365 C537.981645,17.8583053 532.284517,12.4898577 524.177066,12.4898577 C516.233954,12.4898577 510.262926,18.1322057 510.262926,26.0205368 C510.262926,33.9636481 515.960054,39.2773156 524.122286,39.2773156 L524.122286,39.2773156 Z M524.286626,35.5522703 C520.780701,35.5522703 519.027738,32.8680465 519.027738,25.9109767 C519.027738,19.0086869 520.5068,16.214903 523.957945,16.214903 C527.51865,16.214903 529.216833,18.9539068 529.216833,25.8561966 C529.216833,32.7584864 527.792551,35.5522703 524.286626,35.5522703 L524.286626,35.5522703 Z M565.974265,19.3373674 C565.426464,15.1193014 563.125701,12.5446378 558.743295,12.5446378 C554.306108,12.5446378 551.512324,15.5027619 549.704582,19.8303881 L549.704582,13.0924385 L538.419886,13.0924385 L538.419886,17.639185 L542.199711,17.639185 L542.199711,34.1827684 L538.419886,34.1827684 L538.419886,38.7295148 L552.827046,38.7295148 L552.827046,34.1827684 L550.197602,34.1827684 L550.197602,24.1580142 C550.197602,20.487749 552.553146,17.9130854 554.853909,17.9130854 C555.83995,17.9130854 556.606872,18.1869857 557.099892,18.7347865 C557.921593,19.5564877 558.305054,20.9259896 558.305054,22.6789521 L558.305054,34.1827684 L555.56605,34.1827684 L555.56605,38.7295148 L568.932389,38.7295148 L568.932389,34.1827684 L566.302945,34.1827684 L566.302945,24.1580142 C566.302945,20.487749 568.658489,17.9130854 570.959252,17.9130854 C572.000073,17.9130854 572.712214,18.1869857 573.260015,18.7347865 C574.081716,19.5564877 574.410397,20.9259896 574.410397,22.6789521 L574.410397,34.1827684 L571.671393,34.1827684 L571.671393,38.7295148 L586.133333,38.7295148 L586.133333,34.1827684 L582.408288,34.1827684 L582.408288,21.5833506 C582.408288,16.269683 580.217085,12.5446378 574.848637,12.5446378 C570.575791,12.5446378 567.836787,15.2288616 565.974265,19.3373674 L565.974265,19.3373674 Z" id="masthead"></path>
        </g>
    </g>
</svg>