<?xml version="1.0" encoding="UTF-8"?>
<svg width="500px" height="47px" viewBox="0 0 500 47" version="1.1" xmlns="http://www.w3.org/2000/svg" xmlns:xlink="http://www.w3.org/1999/xlink">
    <!-- Generator: Sketch 49.2 (51160) - http://www.bohemiancoding.com/sketch -->
    <title>masthead</title>
    <desc>Created with Sketch.</desc>
    <defs>
        <linearGradient x1="50%" y1="0%" x2="50%" y2="100%" id="linearGradient-1">
            <stop stop-color="#FF9234" offset="0%"></stop>
            <stop stop-color="#FF6044" offset="100%"></stop>
        </linearGradient>
    </defs>
    <g id="Page-1" stroke="none" stroke-width="1" fill="none" fill-rule="evenodd">
        <g id="plaquepsoriasis.com" transform="translate(-56.000000, -138.000000)" fill="url(#linearGradient-1)">
            <g id="masthead" transform="translate(56.000000, 138.412442)">
                <path d="M0,37.3335077 L18.4819345,37.3335077 L18.4819345,32.7394268 L13.3597984,32.7394268 L13.3597984,23.8680983 L17.3730184,23.8680983 C28.3037626,23.8680983 32.4225937,19.1156008 32.4225937,13.1485763 C32.4225937,6.97032959 28.1981515,2.58747083 17.2674074,2.58747083 L0,2.58747083 L0,7.1815517 L4.75249745,7.1815517 L4.75249745,32.7394268 L0,32.7394268 L0,37.3335077 Z M13.3597984,19.4852395 L13.3597984,6.97032959 L16.6865466,6.97032959 C21.8086827,6.97032959 23.234432,9.08255067 23.234432,13.0957707 C23.234432,17.3202129 21.8614883,19.4852395 16.7393521,19.4852395 L13.3597984,19.4852395 Z M32.2754364,37.3335077 L48.064289,37.3335077 L48.064289,32.950649 L44.0510689,32.950649 L44.0510689,0.897693962 L32.2754364,0.897693962 L32.2754364,5.38616377 L36.2886564,5.38616377 L36.2886564,32.950649 L32.2754364,32.950649 L32.2754364,37.3335077 Z M57.2358322,37.8087575 C60.8794136,37.8087575 63.8365231,36.3302027 65.4206889,32.5810103 L65.6847166,32.5810103 C66.1071608,36.2245916 68.4834095,37.8087575 71.4933246,37.8087575 C75.0312949,37.8087575 76.9850994,35.960564 77.9884044,31.8945384 L75.4009336,31.04965 C74.9256838,32.8450379 74.344823,33.4258987 73.7639622,33.4258987 C72.9190738,33.4258987 72.4438241,33.1618711 72.4438241,31.9473439 L72.4438241,20.6997667 C72.4438241,15.5776305 69.8035477,12.0924657 62.3579684,12.0924657 C56.2853327,12.0924657 50.6351413,14.2574923 50.6351413,18.7987677 C50.6351413,20.7525722 51.9552795,22.4951546 54.6483614,22.4951546 C56.813388,22.4951546 58.3975538,21.0694053 58.3975538,19.2212119 C58.3975538,18.0066848 57.9223041,17.1089908 57.1302212,16.52813 C58.1335262,16.1056858 59.2424423,15.8944637 60.2985528,15.8944637 C63.3612734,15.8944637 64.8398282,17.0561853 64.8398282,20.2245169 L64.8398282,22.3895435 C64.8398282,23.0232098 64.5758005,23.0760154 61.6714965,23.4984596 C55.5988609,24.2905425 53.0641956,25.346653 51.4272242,26.9836244 C50.3183082,28.0925405 49.6846419,29.6239007 49.6846419,31.2608721 C49.6846419,35.2740922 52.8529735,37.8087575 57.2358322,37.8087575 L57.2358322,37.8087575 Z M60.8266081,33.3202876 C58.5031649,33.3202876 57.5526654,31.8417329 57.5526654,30.151956 C57.5526654,27.7757073 58.714387,26.5611802 62.4635794,25.9275138 C63.7837176,25.6634862 64.3645784,25.6106807 64.8398282,25.5050696 L64.8398282,27.9341239 C64.8398282,31.1024555 63.2028568,33.3202876 60.8266081,33.3202876 L60.8266081,33.3202876 Z M90.5395014,16.5809355 C93.8134441,16.5809355 95.5560265,20.0661003 95.5560265,24.6601812 C95.5560265,29.2014565 93.602222,32.7394268 90.6451124,32.7394268 C87.4767808,32.7394268 85.998226,30.151956 85.998226,24.8714033 C85.998226,19.5380451 87.3711698,16.5809355 90.5395014,16.5809355 L90.5395014,16.5809355 Z M95.0807767,32.4225937 L95.0807767,41.4523388 L90.4866959,41.4523388 L90.4866959,45.8351976 L106.38116,45.8351976 L106.38116,41.4523388 L102.790384,41.4523388 L102.790384,12.3036878 L98.7243581,12.3036878 L96.2424983,17.531435 C94.605527,14.4687144 92.2292783,12.0396602 88.2160582,12.0396602 C85.2589487,12.0396602 82.988311,13.0957707 81.2985341,14.7855476 C79.1335075,17.0033798 77.7077583,20.5941556 77.7077583,24.8714033 C77.7077583,28.9374289 78.8166744,32.4753992 81.0345065,34.6932314 C82.7770889,36.4358138 84.88931,37.3335077 87.6880029,37.3335077 C90.9091401,37.3335077 93.5494164,35.4853143 95.0807767,32.4225937 L95.0807767,32.4225937 Z M116.328167,37.8087575 C120.816637,37.8087575 123.509719,34.957259 125.252301,30.8384279 L125.252301,37.3335077 L136.077434,37.3335077 L136.077434,32.950649 L132.486658,32.950649 L132.486658,12.620521 L121.13347,12.620521 L121.13347,17.0033798 L124.777052,17.0033798 L124.777052,26.6139857 C124.777052,30.2047615 122.506414,32.6866213 120.130165,32.6866213 C119.021249,32.6866213 118.229166,32.3169826 117.753916,31.8417329 C116.961834,30.9968445 116.645,29.7295118 116.645,28.0925405 L116.645,12.620521 L105.344618,12.620521 L105.344618,17.0033798 L108.935393,17.0033798 L108.935393,29.148651 C108.935393,34.2179816 111.10042,37.8087575 116.328167,37.8087575 L116.328167,37.8087575 Z M161.443656,25.9803194 C161.813295,17.9538792 157.905686,12.0396602 149.562412,12.0396602 C142.116833,12.0396602 136.572253,17.6898516 136.572253,25.1882365 C136.572253,32.7922324 141.588778,37.861563 149.82644,37.861563 C156.743964,37.861563 160.229129,34.4820092 161.179628,29.3070676 L157.060797,29.3070676 C155.951881,32.4225937 154.103688,33.6371208 151.146578,33.6371208 C147.238969,33.6371208 144.915526,31.7361218 144.598693,25.9803194 L161.443656,25.9803194 Z M149.403996,15.630436 C152.255494,15.630436 153.628438,17.6370461 153.892466,22.6535712 L144.651498,22.6535712 C144.968331,17.3730184 146.658108,15.630436 149.403996,15.630436 L149.403996,15.630436 Z M163.917206,37.3335077 L182.399141,37.3335077 L182.399141,32.7394268 L177.277005,32.7394268 L177.277005,23.8680983 L181.290225,23.8680983 C192.220969,23.8680983 196.3398,19.1156008 196.3398,13.1485763 C196.3398,6.97032959 192.115358,2.58747083 181.184614,2.58747083 L163.917206,2.58747083 L163.917206,7.1815517 L168.669704,7.1815517 L168.669704,32.7394268 L163.917206,32.7394268 L163.917206,37.3335077 Z M177.277005,19.4852395 L177.277005,6.97032959 L180.603753,6.97032959 C185.725889,6.97032959 187.151638,9.08255067 187.151638,13.0957707 C187.151638,17.3202129 185.778695,19.4852395 180.656559,19.4852395 L177.277005,19.4852395 Z M197.220876,37.8087575 L201.286901,37.8087575 L202.13179,34.4820092 C203.715955,36.2773972 206.303426,37.861563 210.15823,37.861563 C216.17806,37.861563 219.504808,34.0067595 219.504808,29.7295118 C219.504808,24.8185978 215.861227,23.0760154 210.475063,21.6502661 C205.775371,20.435739 204.349622,19.7492672 204.349622,17.9538792 C204.349622,16.52813 205.405732,15.5776305 207.465148,15.5776305 C210.105424,15.5776305 212.64009,17.6370461 214.541089,20.5941556 L218.607114,20.5941556 L218.607114,12.1452713 L214.488283,12.1452713 L213.643395,15.1023808 C212.112034,13.2541873 209.788591,12.0396602 206.567454,12.0396602 C201.075679,12.0396602 197.590514,15.6832416 197.590514,20.0132948 C197.590514,24.4489591 200.494818,26.3499581 206.409037,27.8813183 C211.319951,29.148651 212.692895,29.8879284 212.692895,31.7889274 C212.692895,33.3202876 211.68959,34.3235927 209.471758,34.3235927 C206.461843,34.3235927 203.451928,32.052955 201.286901,28.7262068 L197.220876,28.7262068 L197.220876,37.8087575 Z M235.232546,37.861563 C242.836542,37.861563 248.592344,32.4753992 248.592344,24.8185978 C248.592344,17.2146019 243.100569,12.0396602 235.285351,12.0396602 C227.62855,12.0396602 221.872748,17.4786295 221.872748,25.0826254 C221.872748,32.7394268 227.364522,37.861563 235.232546,37.861563 L235.232546,37.861563 Z M235.390962,34.2707871 C232.011409,34.2707871 230.321632,31.6833163 230.321632,24.9770144 C230.321632,18.3235179 231.747381,15.630436 235.074129,15.630436 C238.506489,15.630436 240.14346,18.2707124 240.14346,24.9242088 C240.14346,31.5777053 238.770516,34.2707871 235.390962,34.2707871 L235.390962,34.2707871 Z M250.204388,37.3335077 L266.151657,37.3335077 L266.151657,32.950649 L261.557576,32.950649 L261.557576,22.0727104 C262.45527,19.0099898 264.197853,17.425824 265.623602,17.3202129 C265.623602,17.4786295 265.570796,17.6370461 265.570796,17.7426571 C265.570796,20.1717114 267.366184,21.4918496 269.689627,21.4918496 C271.960265,21.4918496 273.808459,19.5908506 273.808459,16.9505742 C273.808459,14.3631034 271.854654,12.0924657 268.791933,12.0924657 C265.41238,12.0924657 262.560881,14.3631034 261.082326,18.9571843 L261.082326,12.620521 L250.204388,12.620521 L250.204388,17.0033798 L253.847969,17.0033798 L253.847969,32.950649 L250.204388,32.950649 L250.204388,37.3335077 Z M283.102231,8.97693962 C285.900924,8.97693962 287.854729,7.02313511 287.854729,4.43566428 C287.854729,1.90099898 285.95373,0 283.102231,0 C280.303538,0 278.402539,2.00661003 278.402539,4.59408086 C278.402539,7.1815517 280.250733,8.97693962 283.102231,8.97693962 L283.102231,8.97693962 Z M275.603846,37.3335077 L291.339894,37.3335077 L291.339894,32.950649 L287.326673,32.950649 L287.326673,12.620521 L275.603846,12.620521 L275.603846,17.0033798 L279.617067,17.0033798 L279.617067,32.950649 L275.603846,32.950649 L275.603846,37.3335077 Z M300.300215,37.8087575 C303.943796,37.8087575 306.900906,36.3302027 308.485071,32.5810103 L308.749099,32.5810103 C309.171543,36.2245916 311.547792,37.8087575 314.557707,37.8087575 C318.095677,37.8087575 320.049482,35.960564 321.052787,31.8945384 L318.465316,31.04965 C317.990066,32.8450379 317.409205,33.4258987 316.828345,33.4258987 C315.983456,33.4258987 315.508206,33.1618711 315.508206,31.9473439 L315.508206,20.6997667 C315.508206,15.5776305 312.86793,12.0924657 305.422351,12.0924657 C299.349715,12.0924657 293.699524,14.2574923 293.699524,18.7987677 C293.699524,20.7525722 295.019662,22.4951546 297.712744,22.4951546 C299.87777,22.4951546 301.461936,21.0694053 301.461936,19.2212119 C301.461936,18.0066848 300.986687,17.1089908 300.194604,16.52813 C301.197909,16.1056858 302.306825,15.8944637 303.362935,15.8944637 C306.425656,15.8944637 307.904211,17.0561853 307.904211,20.2245169 L307.904211,22.3895435 C307.904211,23.0232098 307.640183,23.0760154 304.735879,23.4984596 C298.663243,24.2905425 296.128578,25.346653 294.491607,26.9836244 C293.382691,28.0925405 292.749024,29.6239007 292.749024,31.2608721 C292.749024,35.2740922 295.917356,37.8087575 300.300215,37.8087575 L300.300215,37.8087575 Z M303.890991,33.3202876 C301.567547,33.3202876 300.617048,31.8417329 300.617048,30.151956 C300.617048,27.7757073 301.778769,26.5611802 305.527962,25.9275138 C306.8481,25.6634862 307.428961,25.6106807 307.904211,25.5050696 L307.904211,27.9341239 C307.904211,31.1024555 306.267239,33.3202876 303.890991,33.3202876 L303.890991,33.3202876 Z M322.003286,37.8087575 L326.069312,37.8087575 L326.9142,34.4820092 C328.498366,36.2773972 331.085837,37.861563 334.94064,37.861563 C340.960471,37.861563 344.287219,34.0067595 344.287219,29.7295118 C344.287219,24.8185978 340.643637,23.0760154 335.257474,21.6502661 C330.557782,20.435739 329.132033,19.7492672 329.132033,17.9538792 C329.132033,16.52813 330.188143,15.5776305 332.247559,15.5776305 C334.887835,15.5776305 337.4225,17.6370461 339.323499,20.5941556 L343.389525,20.5941556 L343.389525,12.1452713 L339.270694,12.1452713 L338.425805,15.1023808 C336.894445,13.2541873 334.571002,12.0396602 331.349865,12.0396602 C325.85809,12.0396602 322.372925,15.6832416 322.372925,20.0132948 C322.372925,24.4489591 325.277229,26.3499581 331.191448,27.8813183 C336.102362,29.148651 337.475306,29.8879284 337.475306,31.7889274 C337.475306,33.3202876 336.472001,34.3235927 334.254169,34.3235927 C331.244254,34.3235927 328.234339,32.052955 326.069312,28.7262068 L322.003286,28.7262068 L322.003286,37.8087575 Z M354.31196,8.97693962 C357.110653,8.97693962 359.064457,7.02313511 359.064457,4.43566428 C359.064457,1.90099898 357.163458,0 354.31196,0 C351.513267,0 349.612268,2.00661003 349.612268,4.59408086 C349.612268,7.1815517 351.460461,8.97693962 354.31196,8.97693962 L354.31196,8.97693962 Z M346.813575,37.3335077 L362.549622,37.3335077 L362.549622,32.950649 L358.536402,32.950649 L358.536402,12.620521 L346.813575,12.620521 L346.813575,17.0033798 L350.826795,17.0033798 L350.826795,32.950649 L346.813575,32.950649 L346.813575,37.3335077 Z M364.275586,37.8087575 L368.341611,37.8087575 L369.1865,34.4820092 C370.770666,36.2773972 373.358137,37.861563 377.21294,37.861563 C383.23277,37.861563 386.559518,34.0067595 386.559518,29.7295118 C386.559518,24.8185978 382.915937,23.0760154 377.529773,21.6502661 C372.830081,20.435739 371.404332,19.7492672 371.404332,17.9538792 C371.404332,16.52813 372.460443,15.5776305 374.519858,15.5776305 C377.160134,15.5776305 379.6948,17.6370461 381.595799,20.5941556 L385.661824,20.5941556 L385.661824,12.1452713 L381.542993,12.1452713 L380.698105,15.1023808 C379.166745,13.2541873 376.843301,12.0396602 373.622164,12.0396602 C368.130389,12.0396602 364.645225,15.6832416 364.645225,20.0132948 C364.645225,24.4489591 367.549529,26.3499581 373.463748,27.8813183 C378.374662,29.148651 379.747605,29.8879284 379.747605,31.7889274 C379.747605,33.3202876 378.7443,34.3235927 376.526468,34.3235927 C373.516553,34.3235927 370.506638,32.052955 368.341611,28.7262068 L364.275586,28.7262068 L364.275586,37.8087575 Z M393.407618,38.2312017 C396.1007,38.2312017 398.160116,36.1189806 398.160116,33.5315098 C398.160116,30.9440389 396.1007,28.8846234 393.460424,28.8846234 C390.767342,28.8846234 388.707926,30.9440389 388.707926,33.5843153 C388.707926,36.1717861 390.767342,38.2312017 393.407618,38.2312017 L393.407618,38.2312017 Z M413.087461,37.861563 C419.318514,37.861563 423.014901,34.1651761 424.176622,28.8318178 L420.057791,28.8318178 C419.054486,31.6833163 417.100682,33.3730932 414.249183,33.3730932 C410.130352,33.3730932 408.018131,29.9935394 408.018131,24.8185978 C408.018131,19.1156008 410.605602,15.8416582 414.090767,15.8416582 C416.150182,15.8416582 417.417515,16.5809355 418.156792,17.531435 C417.047876,17.9538792 415.93896,19.1684064 415.93896,20.8581832 C415.93896,22.8647933 417.311904,24.6073757 419.899374,24.6073757 C422.645262,24.6073757 424.123817,22.7063767 424.123817,20.0661003 C424.123817,16.3169079 420.480235,12.0396602 413.351489,12.0396602 C405.325049,12.0396602 399.727663,17.425824 399.727663,25.3994586 C399.727663,32.8450379 404.691383,37.861563 413.087461,37.861563 L413.087461,37.861563 Z M439.209579,37.861563 C446.813575,37.861563 452.569377,32.4753992 452.569377,24.8185978 C452.569377,17.2146019 447.077602,12.0396602 439.262384,12.0396602 C431.605583,12.0396602 425.849781,17.4786295 425.849781,25.0826254 C425.849781,32.7394268 431.341555,37.861563 439.209579,37.861563 L439.209579,37.861563 Z M439.367996,34.2707871 C435.988442,34.2707871 434.298665,31.6833163 434.298665,24.9770144 C434.298665,18.3235179 435.724414,15.630436 439.051162,15.630436 C442.483522,15.630436 444.120493,18.2707124 444.120493,24.9242088 C444.120493,31.5777053 442.747549,34.2707871 439.367996,34.2707871 L439.367996,34.2707871 Z M480.259042,18.6403511 C479.730987,14.5743255 477.513155,12.0924657 473.288712,12.0924657 C469.011465,12.0924657 466.318383,14.9439642 464.575801,19.1156008 L464.575801,12.620521 L453.697862,12.620521 L453.697862,17.0033798 L457.341443,17.0033798 L457.341443,32.950649 L453.697862,32.950649 L453.697862,37.3335077 L467.585716,37.3335077 L467.585716,32.950649 L465.05105,32.950649 L465.05105,23.2872375 C465.05105,19.7492672 467.321688,17.2674074 469.53952,17.2674074 C470.49002,17.2674074 471.229297,17.531435 471.704547,18.0594903 C472.49663,18.8515732 472.866268,20.1717114 472.866268,21.8614883 L472.866268,32.950649 L470.225992,32.950649 L470.225992,37.3335077 L483.110541,37.3335077 L483.110541,32.950649 L480.575875,32.950649 L480.575875,23.2872375 C480.575875,19.7492672 482.846513,17.2674074 485.064345,17.2674074 C486.06765,17.2674074 486.754122,17.531435 487.282177,18.0594903 C488.07426,18.8515732 488.391093,20.1717114 488.391093,21.8614883 L488.391093,32.950649 L485.750817,32.950649 L485.750817,37.3335077 L499.691476,37.3335077 L499.691476,32.950649 L496.1007,32.950649 L496.1007,20.8053777 C496.1007,15.6832416 493.988479,12.0924657 488.813537,12.0924657 C484.694706,12.0924657 482.05443,14.6799366 480.259042,18.6403511 L480.259042,18.6403511 Z"></path>
            </g>
        </g>
    </g>
</svg>