<?xml version="1.0" encoding="UTF-8"?>
<svg width="572px" height="39px" viewBox="0 0 572 39" version="1.1" xmlns="http://www.w3.org/2000/svg" xmlns:xlink="http://www.w3.org/1999/xlink">
    <!-- Generator: Sketch 49.3 (51167) - http://www.bohemiancoding.com/sketch -->
    <title>16</title>
    <desc>Created with Sketch.</desc>
    <defs>
        <linearGradient x1="50%" y1="0%" x2="50%" y2="145.902877%" id="linearGradient-1">
            <stop stop-color="#4D80C2" offset="0%"></stop>
            <stop stop-color="#3662B1" offset="100%"></stop>
        </linearGradient>
    </defs>
    <g id="Page-1" stroke="none" stroke-width="1" fill="none" fill-rule="evenodd">
        <g id="16" fill="url(#linearGradient-1)">
            <path d="M25.7751208,33.3623693 L20.9860065,33.3623693 L20.9860065,38.043863 L39.5505507,38.043863 L39.5505507,33.3623693 L35.3533494,33.3623693 L24.1070023,2.42146229 L15.2821175,2.42146229 L3.87433966,33.3623693 L0,33.3623693 L0,38.043863 L13.6139991,38.043863 L13.6139991,33.3623693 L9.14774641,33.3623693 L11.4077779,26.7437057 L23.5150893,26.7437057 L25.7751208,33.3623693 Z M17.4345285,9.25536696 L17.6497696,9.25536696 L22.1160222,22.4926941 L12.8606553,22.4926941 L17.4345285,9.25536696 Z M41.809502,38.043863 L57.8987736,38.043863 L57.8987736,33.5776104 L53.8091929,33.5776104 L53.8091929,0.914774641 L41.809502,0.914774641 L41.809502,5.48864785 L45.8990828,5.48864785 L45.8990828,33.5776104 L41.809502,33.5776104 L41.809502,38.043863 Z M59.9979144,38.043863 L83.7282448,38.043863 L83.7282448,27.4970495 L80.1229565,27.4970495 C78.5624586,33.7928515 77.4862531,34.3309542 74.2576367,34.3309542 L68.7151786,34.3309542 L83.5130037,16.5735641 L83.5130037,12.8606553 L60.5360171,12.8606553 L60.5360171,22.9231763 L64.1413054,22.9231763 C65.7556136,17.0578566 66.7241985,16.5197538 70.0604354,16.5197538 L74.7419292,16.5197538 L59.9979144,34.3309542 L59.9979144,38.043863 Z M85.8273855,38.043863 L100.194728,38.043863 L100.194728,33.5776104 L97.3965942,33.5776104 L97.3965942,23.7303304 C97.3965942,20.1250421 99.7104359,17.5959593 102.185708,17.5959593 C103.315724,17.5959593 104.122878,17.9188209 104.714791,18.4569236 C105.521945,19.2640777 105.844807,20.6093346 105.844807,22.277453 L105.844807,33.5776104 L102.992863,33.5776104 L102.992863,38.043863 L117.360205,38.043863 L117.360205,33.5776104 L113.754917,33.5776104 L113.754917,21.2012476 C113.754917,15.9816511 111.494886,12.3225525 106.060048,12.3225525 C101.970467,12.3225525 99.333764,14.6902045 97.3965942,18.5107339 L97.3965942,0.914774641 L85.8273855,0.914774641 L85.8273855,5.48864785 L89.486484,5.48864785 L89.486484,33.5776104 L85.8273855,33.5776104 L85.8273855,38.043863 Z M143.405998,26.4746543 C143.78267,18.2954928 139.80071,12.2687423 131.298686,12.2687423 C123.711438,12.2687423 118.061359,18.0264415 118.061359,25.6675002 C118.061359,33.4161796 123.173335,38.5819658 131.567738,38.5819658 C138.616884,38.5819658 142.168362,35.1381083 143.136946,29.8647015 L138.939745,29.8647015 C137.809729,33.0395076 135.92637,34.2771439 132.912995,34.2771439 C128.931034,34.2771439 126.563382,32.3399741 126.240521,26.4746543 L143.405998,26.4746543 Z M131.137256,15.9278408 C134.04301,15.9278408 135.442077,17.9726312 135.711129,23.0846071 L126.294331,23.0846071 C126.617193,17.7035798 128.339121,15.9278408 131.137256,15.9278408 L131.137256,15.9278408 Z M152.662985,9.14774641 C155.514929,9.14774641 157.50591,7.15676631 157.50591,4.52006293 C157.50591,1.93716983 155.56874,0 152.662985,0 C149.811041,0 147.873871,2.04479038 147.873871,4.68149375 C147.873871,7.31819713 149.75723,9.14774641 152.662985,9.14774641 L152.662985,9.14774641 Z M145.021926,38.043863 L161.057388,38.043863 L161.057388,33.5776104 L156.967807,33.5776104 L156.967807,12.8606553 L145.021926,12.8606553 L145.021926,17.3269079 L149.111507,17.3269079 L149.111507,33.5776104 L145.021926,33.5776104 L145.021926,38.043863 Z M190.007855,18.9950264 C189.469752,14.8516354 187.20972,12.3225525 182.904898,12.3225525 C178.546266,12.3225525 175.801942,15.2283073 174.026203,19.4793188 L174.026203,12.8606553 L162.941287,12.8606553 L162.941287,17.3269079 L166.654196,17.3269079 L166.654196,33.5776104 L162.941287,33.5776104 L162.941287,38.043863 L177.093389,38.043863 L177.093389,33.5776104 L174.510496,33.5776104 L174.510496,23.7303304 C174.510496,20.1250421 176.824338,17.5959593 179.084369,17.5959593 C180.052954,17.5959593 180.806298,17.8650106 181.29059,18.4031134 C182.097744,19.2102675 182.474416,20.5555243 182.474416,22.277453 L182.474416,33.5776104 L179.783903,33.5776104 L179.783903,38.043863 L192.913609,38.043863 L192.913609,33.5776104 L190.330716,33.5776104 L190.330716,23.7303304 C190.330716,20.1250421 192.644558,17.5959593 194.904589,17.5959593 C195.926985,17.5959593 196.626518,17.8650106 197.164621,18.4031134 C197.971775,19.2102675 198.294637,20.5555243 198.294637,22.277453 L198.294637,33.5776104 L195.604123,33.5776104 L195.604123,38.043863 L209.810035,38.043863 L209.810035,33.5776104 L206.150936,33.5776104 L206.150936,21.2012476 C206.150936,15.9816511 203.998526,12.3225525 198.725119,12.3225525 C194.527917,12.3225525 191.837404,14.9592559 190.007855,18.9950264 L190.007855,18.9950264 Z M235.855827,26.4746543 C236.232499,18.2954928 232.250539,12.2687423 223.748516,12.2687423 C216.161267,12.2687423 210.511189,18.0264415 210.511189,25.6675002 C210.511189,33.4161796 215.623165,38.5819658 224.017567,38.5819658 C231.066713,38.5819658 234.618191,35.1381083 235.586776,29.8647015 L231.389575,29.8647015 C230.259559,33.0395076 228.376199,34.2771439 225.362824,34.2771439 C221.380864,34.2771439 219.013212,32.3399741 218.69035,26.4746543 L235.855827,26.4746543 Z M223.587085,15.9278408 C226.49284,15.9278408 227.891907,17.9726312 228.160958,23.0846071 L218.744161,23.0846071 C219.067022,17.7035798 220.788951,15.9278408 223.587085,15.9278408 L223.587085,15.9278408 Z M237.901698,38.043863 L254.1524,38.043863 L254.1524,33.5776104 L249.470907,33.5776104 L249.470907,22.4926941 C250.385681,19.3716983 252.16142,17.7573901 253.614298,17.6497696 C253.614298,17.8112004 253.560487,17.9726312 253.560487,18.0802517 C253.560487,20.5555243 255.390037,21.9007811 257.757689,21.9007811 C260.07153,21.9007811 261.95489,19.9636113 261.95489,17.2730976 C261.95489,14.6363943 259.96391,12.3225525 256.842914,12.3225525 C253.399056,12.3225525 250.493302,14.6363943 248.986614,19.317888 L248.986614,12.8606553 L237.901698,12.8606553 L237.901698,17.3269079 L241.614607,17.3269079 L241.614607,33.5776104 L237.901698,33.5776104 L237.901698,38.043863 Z M263.193066,38.5281555 L267.336457,38.5281555 L268.197422,35.1381083 C269.81173,36.9676576 272.448433,38.5819658 276.376583,38.5819658 C282.510954,38.5819658 285.901001,34.6538158 285.901001,30.2951837 C285.901001,25.2908283 282.188093,23.5150893 276.699445,22.0622119 C271.91033,20.8245757 270.457453,20.1250421 270.457453,18.2954928 C270.457453,16.8426155 271.533659,15.8740305 273.632259,15.8740305 C276.322773,15.8740305 278.905666,17.9726312 280.842836,20.9860065 L284.986227,20.9860065 L284.986227,12.3763628 L280.789026,12.3763628 L279.928061,15.3897381 C278.367563,13.5063785 275.999911,12.2687423 272.717485,12.2687423 C267.121216,12.2687423 263.569738,15.9816511 263.569738,20.3940935 C263.569738,24.9141564 266.529303,26.8513262 272.556054,28.4118242 C277.560409,29.7032707 278.959476,30.4566145 278.959476,32.3937844 C278.959476,33.9542823 277.937081,34.9766775 275.67705,34.9766775 C272.609864,34.9766775 269.542678,32.6628357 267.336457,29.2727885 L263.193066,29.2727885 L263.193066,38.5281555 Z M288.215383,38.043863 L304.412275,38.043863 C318.671998,38.043863 325.236851,30.5642351 325.236851,20.1250421 C325.236851,9.63203887 318.456757,2.63670338 304.089414,2.63670338 L288.215383,2.63670338 L288.215383,7.31819713 L293.058308,7.31819713 L293.058308,33.3623693 L288.215383,33.3623693 L288.215383,38.043863 Z M301.829382,33.4699898 L301.829382,7.21057659 L304.519896,7.21057659 C312.537627,7.21057659 315.658623,10.8158649 315.658623,20.1788524 C315.658623,30.0799426 312.699058,33.4699898 304.896568,33.4699898 L301.829382,33.4699898 Z M334.87051,9.14774641 C337.722455,9.14774641 339.713435,7.15676631 339.713435,4.52006293 C339.713435,1.93716983 337.776265,0 334.87051,0 C332.018566,0 330.081396,2.04479038 330.081396,4.68149375 C330.081396,7.31819713 331.964755,9.14774641 334.87051,9.14774641 L334.87051,9.14774641 Z M327.229451,38.043863 L343.264913,38.043863 L343.264913,33.5776104 L339.175332,33.5776104 L339.175332,12.8606553 L327.229451,12.8606553 L327.229451,17.3269079 L331.319032,17.3269079 L331.319032,33.5776104 L327.229451,33.5776104 L327.229451,38.043863 Z M344.934111,38.5281555 L349.077502,38.5281555 L349.938467,35.1381083 C351.552775,36.9676576 354.189478,38.5819658 358.117628,38.5819658 C364.251999,38.5819658 367.642047,34.6538158 367.642047,30.2951837 C367.642047,25.2908283 363.929138,23.5150893 358.44049,22.0622119 C353.651376,20.8245757 352.198498,20.1250421 352.198498,18.2954928 C352.198498,16.8426155 353.274704,15.8740305 355.373304,15.8740305 C358.063818,15.8740305 360.646711,17.9726312 362.583881,20.9860065 L366.727272,20.9860065 L366.727272,12.3763628 L362.530071,12.3763628 L361.669106,15.3897381 C360.108608,13.5063785 357.740956,12.2687423 354.45853,12.2687423 C348.862261,12.2687423 345.310783,15.9816511 345.310783,20.3940935 C345.310783,24.9141564 348.270348,26.8513262 354.297099,28.4118242 C359.301454,29.7032707 360.700521,30.4566145 360.700521,32.3937844 C360.700521,33.9542823 359.678126,34.9766775 357.418095,34.9766775 C354.350909,34.9766775 351.283724,32.6628357 349.077502,29.2727885 L344.934111,29.2727885 L344.934111,38.5281555 Z M395.354877,26.4746543 C395.731549,18.2954928 391.749589,12.2687423 383.247566,12.2687423 C375.660317,12.2687423 370.010239,18.0264415 370.010239,25.6675002 C370.010239,33.4161796 375.122215,38.5819658 383.516617,38.5819658 C390.565763,38.5819658 394.117241,35.1381083 395.085826,29.8647015 L390.888625,29.8647015 C389.758609,33.0395076 387.875249,34.2771439 384.861874,34.2771439 C380.879914,34.2771439 378.512262,32.3399741 378.1894,26.4746543 L395.354877,26.4746543 Z M383.086135,15.9278408 C385.99189,15.9278408 387.390957,17.9726312 387.660008,23.0846071 L378.24321,23.0846071 C378.566072,17.7035798 380.288001,15.9278408 383.086135,15.9278408 L383.086135,15.9278408 Z M405.095617,38.5281555 C408.808526,38.5281555 411.821901,37.0214678 413.436209,33.2009385 L413.705261,33.2009385 C414.135743,36.9138473 416.557205,38.5281555 419.624391,38.5281555 C423.229679,38.5281555 425.220659,36.6447959 426.243054,32.5014049 L423.606351,31.6404405 C423.122058,33.4699898 422.530145,34.0619028 421.938232,34.0619028 C421.077268,34.0619028 420.592975,33.7928515 420.592975,32.5552152 L420.592975,21.093627 C420.592975,15.8740305 417.902462,12.3225525 410.315213,12.3225525 C404.127032,12.3225525 398.369333,14.5287737 398.369333,19.1564572 C398.369333,21.1474373 399.71459,22.9231763 402.458913,22.9231763 C404.665135,22.9231763 406.279443,21.4702989 406.279443,19.5869394 C406.279443,18.3493031 405.79515,17.4345285 404.987996,16.8426155 C406.010391,16.4121333 407.140407,16.1968922 408.216613,16.1968922 C411.337609,16.1968922 412.844296,17.3807182 412.844296,20.6093346 L412.844296,22.8155558 C412.844296,23.461279 412.575245,23.5150893 409.61568,23.9455715 C403.427498,24.7527256 400.844605,25.8289311 399.176487,27.4970495 C398.046471,28.6270653 397.400748,30.1875632 397.400748,31.8556816 C397.400748,35.9452624 400.629364,38.5281555 405.095617,38.5281555 L405.095617,38.5281555 Z M408.754715,33.9542823 C406.387063,33.9542823 405.418478,32.4475946 405.418478,30.7256659 C405.418478,28.3042036 406.602304,27.0665673 410.422834,26.4208441 C411.768091,26.1517927 412.360004,26.0979824 412.844296,25.9903619 L412.844296,28.4656344 C412.844296,31.6942508 411.176178,33.9542823 408.754715,33.9542823 L408.754715,33.9542823 Z M427.211639,38.5281555 L431.35503,38.5281555 L432.215994,35.1381083 C433.830303,36.9676576 436.467006,38.5819658 440.395156,38.5819658 C446.529527,38.5819658 449.919574,34.6538158 449.919574,30.2951837 C449.919574,25.2908283 446.206665,23.5150893 440.718018,22.0622119 C435.928903,20.8245757 434.476026,20.1250421 434.476026,18.2954928 C434.476026,16.8426155 435.552231,15.8740305 437.650832,15.8740305 C440.341346,15.8740305 442.924239,17.9726312 444.861409,20.9860065 L449.0048,20.9860065 L449.0048,12.3763628 L444.807598,12.3763628 L443.946634,15.3897381 C442.386136,13.5063785 440.018484,12.2687423 436.736057,12.2687423 C431.139789,12.2687423 427.588311,15.9816511 427.588311,20.3940935 C427.588311,24.9141564 430.547876,26.8513262 436.574627,28.4118242 C441.578982,29.7032707 442.978049,30.4566145 442.978049,32.3937844 C442.978049,33.9542823 441.955654,34.9766775 439.695622,34.9766775 C436.628437,34.9766775 433.561251,32.6628357 431.35503,29.2727885 L427.211639,29.2727885 L427.211639,38.5281555 Z M477.632405,26.4746543 C478.009077,18.2954928 474.027117,12.2687423 465.525094,12.2687423 C457.937845,12.2687423 452.287766,18.0264415 452.287766,25.6675002 C452.287766,33.4161796 457.399742,38.5819658 465.794145,38.5819658 C472.843291,38.5819658 476.394769,35.1381083 477.363354,29.8647015 L473.166152,29.8647015 C472.036137,33.0395076 470.152777,34.2771439 467.139402,34.2771439 C463.157441,34.2771439 460.789789,32.3399741 460.466928,26.4746543 L477.632405,26.4746543 Z M465.363663,15.9278408 C468.269417,15.9278408 469.668485,17.9726312 469.937536,23.0846071 L460.520738,23.0846071 C460.8436,17.7035798 462.565528,15.9278408 465.363663,15.9278408 L465.363663,15.9278408 Z M484.252149,38.9586377 C486.996473,38.9586377 489.095073,36.8062268 489.095073,34.1695234 C489.095073,31.53282 486.996473,29.4342193 484.305959,29.4342193 C481.561635,29.4342193 479.463034,31.53282 479.463034,34.2233336 C479.463034,36.860037 481.561635,38.9586377 484.252149,38.9586377 L484.252149,38.9586377 Z M492.162799,38.043863 L506.530142,38.043863 L506.530142,33.5776104 L503.732008,33.5776104 L503.732008,23.7303304 C503.732008,20.1250421 506.045849,17.5959593 508.574932,17.5959593 C509.651138,17.5959593 510.458292,17.9188209 511.050205,18.4569236 C511.857359,19.2640777 512.18022,20.6093346 512.18022,22.277453 L512.18022,33.5776104 L509.328276,33.5776104 L509.328276,38.043863 L523.695619,38.043863 L523.695619,33.5776104 L520.090331,33.5776104 L520.090331,21.2012476 C520.090331,15.9816511 517.830299,12.3225525 512.395462,12.3225525 C507.767778,12.3225525 505.023454,15.2283073 503.247715,19.4793188 L503.247715,12.8606553 L492.162799,12.8606553 L492.162799,17.3269079 L495.875708,17.3269079 L495.875708,33.5776104 L492.162799,33.5776104 L492.162799,38.043863 Z M549.741411,26.4746543 C550.118083,18.2954928 546.136123,12.2687423 537.6341,12.2687423 C530.046851,12.2687423 524.396773,18.0264415 524.396773,25.6675002 C524.396773,33.4161796 529.508749,38.5819658 537.903151,38.5819658 C544.952297,38.5819658 548.503775,35.1381083 549.47236,29.8647015 L545.275159,29.8647015 C544.145143,33.0395076 542.261783,34.2771439 539.248408,34.2771439 C535.266448,34.2771439 532.898796,32.3399741 532.575934,26.4746543 L549.741411,26.4746543 Z M537.472669,15.9278408 C540.378424,15.9278408 541.777491,17.9726312 542.046542,23.0846071 L532.629744,23.0846071 C532.952606,17.7035798 534.674535,15.9278408 537.472669,15.9278408 L537.472669,15.9278408 Z M554.532146,7.21057659 L554.532146,13.1297066 L549.904462,13.1297066 L549.904462,17.3269079 L554.370715,17.3269079 L554.370715,29.9723221 C554.370715,35.7300213 557.061229,38.5819658 562.549876,38.5819658 C567.608042,38.5819658 570.244745,35.9452624 571.428571,29.8108913 L568.199955,28.8961166 C567.23137,32.3937844 566.478026,33.6314206 564.863718,33.6314206 C563.034169,33.6314206 562.227015,32.3399741 562.227015,30.0261324 L562.227015,17.3269079 L570.298556,17.3269079 L570.298556,13.1297066 L562.227015,13.1297066 L562.227015,6.29580194 L554.532146,7.21057659 Z" id="AlzheimersDisease.ne"></path>
        </g>
    </g>
</svg>