<?xml version="1.0" encoding="UTF-8"?>
<svg width="251px" height="40px" viewBox="0 0 251 40" version="1.1" xmlns="http://www.w3.org/2000/svg" xmlns:xlink="http://www.w3.org/1999/xlink">
    <!-- Generator: Sketch 49.3 (51167) - http://www.bohemiancoding.com/sketch -->
    <title>17</title>
    <desc>Created with Sketch.</desc>
    <defs>
        <linearGradient x1="50.0000024%" y1="-108.102991%" x2="49.9999921%" y2="107.700549%" id="linearGradient-1">
            <stop stop-color="#2ABCCD" offset="0%"></stop>
            <stop stop-color="#00B4B3" offset="100%"></stop>
        </linearGradient>
    </defs>
    <g id="Page-1" stroke="none" stroke-width="1" fill="none" fill-rule="evenodd">
        <g id="17" fill="url(#linearGradient-1)">
            <path d="M0.0287179487,20.1890598 C0.0287179487,31.754188 7.54871795,39.5524786 19.2287179,39.5524786 C29.3692308,39.5524786 34.8953846,33.5083761 35.8639316,23.5938462 L30.3948718,23.5938462 C29.4259829,30.0895726 26.1788034,34.2020513 20.5388034,34.2020513 C14.1011966,34.2020513 10.1695726,29.8844444 10.1695726,19.6294017 C10.1695726,8.91863248 13.9295726,4.99794872 19.2854701,4.99794872 C24.0136752,4.99794872 27.2041026,8.55111111 29.4830769,15.3887179 L35.2136752,15.3887179 L35.2136752,0.345982906 L29.9962393,0.345982906 L28.7996581,4.71247863 C26.5210256,1.92102564 22.9316239,0.305641026 18.145641,0.305641026 C8.34632479,0.305641026 0.0287179487,8.50974359 0.0287179487,20.1890598 L0.0287179487,20.1890598 Z" id="Shape"></path>
            <path d="M38.2379487,20.0174359 C38.2379487,31.9247863 46.3278632,39.6160684 57.4940171,39.6160684 C68.3760684,39.6160684 76.7511111,31.6967521 76.7511111,19.9039316 C76.7511111,7.99589744 68.6611966,0.305641026 57.4940171,0.305641026 C46.6119658,0.305641026 38.2379487,8.28102564 38.2379487,20.0174359 L38.2379487,20.0174359 Z M48.3784615,19.9606838 C48.3784615,9.64820513 51.2844444,4.97675214 57.3237607,4.97675214 C63.3623932,4.97675214 66.6099145,9.64820513 66.6099145,19.9606838 C66.6099145,30.3299145 63.7042735,34.9449573 57.665641,34.9449573 C51.625641,34.9449573 48.3784615,30.3299145 48.3784615,19.9606838 L48.3784615,19.9606838 Z" id="Shape"></path>
            <path d="M78.6324786,1.37128205 L78.6324786,6.15794872 L83.7606838,6.15794872 L83.7606838,33.8502564 L78.6324786,33.8502564 L78.6324786,38.6362393 L98.4615385,38.6362393 L98.4615385,33.8502564 L92.991453,33.8502564 L92.991453,24.2776068 L97.3165812,24.2776068 C109.110427,24.2776068 113.553162,19.1767521 113.553162,12.7398291 C113.553162,6.07282051 108.995556,1.37128205 97.2023932,1.37128205 L78.6324786,1.37128205 L78.6324786,1.37128205 Z M92.991453,5.81606838 L96.5760684,5.81606838 C102.102222,5.81606838 103.641026,8.1808547 103.641026,12.5107692 C103.641026,17.0687179 102.158974,19.4912821 96.6324786,19.4912821 L92.991453,19.4912821 L92.991453,5.81606838 L92.991453,5.81606838 Z" id="Shape"></path>
            <path d="M114.871795,1.37128205 L114.871795,6.15794872 L120,6.15794872 L120,33.8502564 L114.871795,33.8502564 L114.871795,38.6362393 L132.182222,38.6362393 C147.280342,38.6362393 154.231453,30.8287179 154.231453,19.7760684 C154.231453,8.66632479 147.05265,1.37128205 131.840684,1.37128205 L114.871795,1.37128205 L114.871795,1.37128205 Z M129.57265,6.15794872 L132.29641,6.15794872 C140.785641,6.15794872 144.089915,9.91965812 144.089915,19.8328205 C144.089915,30.3155556 140.956239,33.8502564 132.695043,33.8502564 L129.57265,33.8502564 L129.57265,6.15794872 L129.57265,6.15794872 Z" id="Shape"></path>
            <path d="M153.315897,34.6598291 C153.315897,37.4509402 155.536752,39.6731624 158.386325,39.6731624 C161.291624,39.6731624 163.513846,37.394188 163.513846,34.602735 C163.513846,31.8112821 161.291624,29.5894017 158.443419,29.5894017 C155.536752,29.5894017 153.315897,31.8112821 153.315897,34.6598291 L153.315897,34.6598291 Z" id="Shape"></path>
            <path d="M178.119658,19.0492308 L178.119658,11.9699145 L166.495726,11.9699145 L166.495726,16.7558974 L170.25641,16.7558974 L170.25641,33.8502564 L166.495726,33.8502564 L166.495726,38.6362393 L181.538462,38.6362393 L181.538462,33.8502564 L178.461538,33.8502564 L178.461538,23.5497436 C178.461538,19.7329915 181.020171,17.0553846 183.697094,17.0553846 C184.837607,17.0553846 185.800684,17.3965812 186.427009,17.9664957 C187.281368,18.8215385 187.692308,20.2451282 187.692308,22.0119658 L187.692308,33.8502564 L184.615385,33.8502564 L184.615385,38.6362393 L199.65812,38.6362393 L199.65812,33.8502564 L195.897436,33.8502564 L195.897436,20.8724786 C195.897436,15.3463248 193.532308,11.4717949 187.777436,11.4717949 C182.878974,11.4717949 179.82906,14.5483761 178.119658,19.0492308 L178.119658,19.0492308 Z" id="Shape"></path>
            <path d="M200.428718,25.6116239 C200.428718,33.8157265 205.841026,39.2964103 214.729231,39.2964103 C222.192137,39.2964103 225.952479,35.5593162 226.977778,30.0895726 L222.534701,30.0895726 C221.337778,33.5083761 219.343932,34.6748718 216.153504,34.6748718 C211.936752,34.6748718 209.430427,32.8246154 209.088547,26.328547 L227.262564,26.328547 C227.661197,17.7818803 223.446154,11.3569231 214.443761,11.3569231 C206.410598,11.3569231 200.428718,17.5217094 200.428718,25.6116239 L200.428718,25.6116239 Z M214.273504,15.3326496 C217.349744,15.3326496 218.831453,17.44 219.115556,22.9097436 L209.145299,22.9097436 C209.487179,17.0977778 211.310769,15.3326496 214.273504,15.3326496 L214.273504,15.3326496 Z" id="Shape"></path>
            <path d="M233.162393,6.05948718 L233.162393,12.3117949 L228.034188,12.3117949 L228.034188,16.7558974 L232.820513,16.7558974 L232.820513,30.1586325 C232.820513,36.2547009 235.718974,39.274188 241.53094,39.274188 C246.885812,39.274188 249.727521,36.482735 250.981197,29.9880342 L247.58188,29.0198291 C246.554872,32.722735 245.795214,34.0331624 244.086154,34.0331624 C242.148718,34.0331624 241.367521,32.6659829 241.367521,30.2157265 L241.367521,16.7558974 L249.91453,16.7558974 L249.91453,12.3117949 L241.367521,12.3117949 L241.367521,5.09094017 L233.162393,6.05948718 L233.162393,6.05948718 Z" id="Shape"></path>
        </g>
    </g>
</svg>