<?xml version="1.0" encoding="UTF-8"?>
<svg width="627px" height="39px" viewBox="0 0 627 39" version="1.1" xmlns="http://www.w3.org/2000/svg" xmlns:xlink="http://www.w3.org/1999/xlink">
    <!-- Generator: Sketch 49.3 (51167) - http://www.bohemiancoding.com/sketch -->
    <title>18</title>
    <desc>Created with Sketch.</desc>
    <defs>
        <linearGradient x1="50.2747118%" y1="0%" x2="50.2747118%" y2="85.9962046%" id="linearGradient-1">
            <stop stop-color="#6064B7" offset="0%"></stop>
            <stop stop-color="#6B59AF" offset="100%"></stop>
        </linearGradient>
    </defs>
    <g id="Page-1" stroke="none" stroke-width="1" fill="none" fill-rule="evenodd">
        <g id="18" transform="translate(0.000000, -1.000000)" fill="url(#linearGradient-1)">
            <path d="M-1.8189894e-12,31.6074645 L14.9787652,31.6074645 L14.9787652,27.8519816 L11.0074499,27.8519816 L11.0074499,6.95940997 L14.9787652,6.95940997 L14.9787652,3.20392705 L-1.8189894e-12,3.20392705 L-1.8189894e-12,6.95940997 L3.97131527,6.95940997 L3.97131527,27.8519816 L-1.8189894e-12,27.8519816 L-1.8189894e-12,31.6074645 Z M16.3655316,31.6074645 L27.8909792,31.6074645 L27.8909792,28.0246475 L25.6463227,28.0246475 L25.6463227,20.1251834 C25.6463227,17.2330299 27.502481,15.2042058 29.5313051,15.2042058 C30.3946345,15.2042058 31.0421315,15.4632046 31.5169627,15.8948693 C32.1644598,16.5423664 32.4234586,17.6215281 32.4234586,18.9596887 L32.4234586,28.0246475 L30.1356356,28.0246475 L30.1356356,31.6074645 L41.6610832,31.6074645 L41.6610832,28.0246475 L38.7689297,28.0246475 L38.7689297,18.0963593 C38.7689297,13.9092117 36.955938,10.9738917 32.5961245,10.9738917 C28.883808,10.9738917 26.682318,13.3048811 25.2578245,16.7150323 L25.2578245,11.4055564 L16.3655316,11.4055564 L16.3655316,14.9883734 L19.3440181,14.9883734 L19.3440181,28.0246475 L16.3655316,28.0246475 L16.3655316,31.6074645 Z M42.9162279,31.6074645 L42.9162279,28.0246475 L45.8515479,28.0246475 L45.8515479,14.9883734 L42.1823979,14.9883734 L42.1823979,11.6213888 L45.8515479,11.6213888 L45.8515479,11.1897241 C45.8515479,4.54208763 50.6861926,1.5204347 55.9956684,1.5204347 C57.8518266,1.5204347 59.2763202,1.77943353 60.3554819,2.2542647 L65.8376236,1.60676764 L65.8376236,28.0246475 L69.1182754,28.0246475 L69.1182754,31.6074645 L56.9021643,31.6074645 L56.9021643,28.0246475 L59.535319,28.0246475 L59.535319,14.9883734 L52.197019,14.9883734 L52.197019,28.0246475 L54.7870072,28.0246475 L54.7870072,31.6074645 L42.9162279,31.6074645 Z M51.8948537,9.93789642 L51.8948537,11.6213888 L59.535319,11.6213888 L59.535319,8.90190113 C57.6791607,8.85873466 56.513666,7.86590584 56.513666,5.96658115 C56.513666,5.36225056 56.7294984,4.5852541 57.0748302,4.19675586 C56.7726649,4.06725645 56.3410002,3.93775704 55.6935031,3.93775704 C53.5351796,3.93775704 51.8948537,5.0169188 51.8948537,9.93789642 Z M76.1552749,31.9959628 C72.5724579,31.9959628 69.9824697,29.9239722 69.9824697,26.6433204 C69.9824697,25.3051599 70.5004673,24.0533322 71.4069632,23.1468363 C72.7451238,21.8086758 74.8171143,20.9453464 79.7812584,20.2978493 C82.1554143,19.9525175 82.3712466,19.9093511 82.3712466,19.3913534 L82.3712466,17.6215281 C82.3712466,15.0315399 81.1625855,14.0818776 78.6589302,14.0818776 C77.7956008,14.0818776 76.8891049,14.2545435 76.068942,14.5998752 C76.716439,15.0747064 77.1049373,15.8085364 77.1049373,16.8013652 C77.1049373,18.3121917 75.8099431,19.4776864 74.0401179,19.4776864 C71.8386279,19.4776864 70.7594661,18.0531928 70.7594661,16.4560334 C70.7594661,12.743717 75.3782784,10.9738917 80.3424225,10.9738917 C86.4288948,10.9738917 88.5872184,13.8228787 88.5872184,18.0100264 L88.5872184,27.2044846 C88.5872184,28.1973134 88.9757166,28.4131457 89.6663801,28.4131457 C90.1412113,28.4131457 90.6160425,27.9383145 91.0045407,26.4706546 L93.1196977,27.1613181 C92.2995348,30.4851363 90.7023754,31.9959628 87.8102219,31.9959628 C85.3497331,31.9959628 83.4072419,30.7009686 83.0619102,27.7224822 L82.8460778,27.7224822 C81.5510837,30.7873016 79.1337614,31.9959628 76.1552749,31.9959628 Z M79.0905949,28.3268128 C81.0330861,28.3268128 82.3712466,26.513821 82.3712466,23.9238328 L82.3712466,21.9381752 C81.9827484,22.0245081 81.5079172,22.0676746 80.4287555,22.2835069 C77.3639361,22.8015046 76.4142737,23.7943334 76.4142737,25.7368246 C76.4142737,27.1181516 77.1912702,28.3268128 79.0905949,28.3268128 Z M115.35043,16.326534 C114.918765,13.0027158 113.105774,10.9738917 109.652456,10.9738917 C106.155972,10.9738917 103.954482,13.3048811 102.529988,16.7150323 L102.529988,11.4055564 L93.6376954,11.4055564 L93.6376954,14.9883734 L96.6161818,14.9883734 L96.6161818,28.0246475 L93.6376954,28.0246475 L93.6376954,31.6074645 L104.990477,31.6074645 L104.990477,28.0246475 L102.918487,28.0246475 L102.918487,20.1251834 C102.918487,17.2330299 104.774645,15.2042058 106.587636,15.2042058 C107.364633,15.2042058 107.968964,15.4200381 108.357462,15.8517029 C109.004959,16.4991999 109.307124,17.5783617 109.307124,18.9596887 L109.307124,28.0246475 L107.148801,28.0246475 L107.148801,31.6074645 L117.681419,31.6074645 L117.681419,28.0246475 L115.609429,28.0246475 L115.609429,20.1251834 C115.609429,17.2330299 117.465587,15.2042058 119.278579,15.2042058 C120.098742,15.2042058 120.659906,15.4200381 121.091571,15.8517029 C121.739068,16.4991999 121.998066,17.5783617 121.998066,18.9596887 L121.998066,28.0246475 L119.839743,28.0246475 L119.839743,31.6074645 L131.235691,31.6074645 L131.235691,28.0246475 L128.300371,28.0246475 L128.300371,18.0963593 C128.300371,13.9092117 126.573712,10.9738917 122.343398,10.9738917 C118.976413,10.9738917 116.81809,13.0890488 115.35043,16.326534 Z M154.074071,16.326534 C153.642406,13.0027158 151.829414,10.9738917 148.376097,10.9738917 C144.879613,10.9738917 142.678123,13.3048811 141.253629,16.7150323 L141.253629,11.4055564 L132.361336,11.4055564 L132.361336,14.9883734 L135.339823,14.9883734 L135.339823,28.0246475 L132.361336,28.0246475 L132.361336,31.6074645 L143.714118,31.6074645 L143.714118,28.0246475 L141.642127,28.0246475 L141.642127,20.1251834 C141.642127,17.2330299 143.498286,15.2042058 145.311277,15.2042058 C146.088274,15.2042058 146.692604,15.4200381 147.081103,15.8517029 C147.7286,16.4991999 148.030765,17.5783617 148.030765,18.9596887 L148.030765,28.0246475 L145.872442,28.0246475 L145.872442,31.6074645 L156.40506,31.6074645 L156.40506,28.0246475 L154.33307,28.0246475 L154.33307,20.1251834 C154.33307,17.2330299 156.189228,15.2042058 158.00222,15.2042058 C158.822383,15.2042058 159.383547,15.4200381 159.815211,15.8517029 C160.462708,16.4991999 160.721707,17.5783617 160.721707,18.9596887 L160.721707,28.0246475 L158.563384,28.0246475 L158.563384,31.6074645 L169.959332,31.6074645 L169.959332,28.0246475 L167.024012,28.0246475 L167.024012,18.0963593 C167.024012,13.9092117 165.297353,10.9738917 161.067039,10.9738917 C157.700054,10.9738917 155.541731,13.0890488 154.074071,16.326534 Z M177.312346,31.9959628 C173.729529,31.9959628 171.139541,29.9239722 171.139541,26.6433204 C171.139541,25.3051599 171.657538,24.0533322 172.564034,23.1468363 C173.902195,21.8086758 175.974185,20.9453464 180.938329,20.2978493 C183.312485,19.9525175 183.528318,19.9093511 183.528318,19.3913534 L183.528318,17.6215281 C183.528318,15.0315399 182.319656,14.0818776 179.816001,14.0818776 C178.952672,14.0818776 178.046176,14.2545435 177.226013,14.5998752 C177.87351,15.0747064 178.262008,15.8085364 178.262008,16.8013652 C178.262008,18.3121917 176.967014,19.4776864 175.197189,19.4776864 C172.995699,19.4776864 171.916537,18.0531928 171.916537,16.4560334 C171.916537,12.743717 176.535349,10.9738917 181.499493,10.9738917 C187.585966,10.9738917 189.744289,13.8228787 189.744289,18.0100264 L189.744289,27.2044846 C189.744289,28.1973134 190.132787,28.4131457 190.823451,28.4131457 C191.298282,28.4131457 191.773113,27.9383145 192.161612,26.4706546 L194.276769,27.1613181 C193.456606,30.4851363 191.859446,31.9959628 188.967293,31.9959628 C186.506804,31.9959628 184.564313,30.7009686 184.218981,27.7224822 L184.003149,27.7224822 C182.708155,30.7873016 180.290832,31.9959628 177.312346,31.9959628 Z M180.247666,28.3268128 C182.190157,28.3268128 183.528318,26.513821 183.528318,23.9238328 L183.528318,21.9381752 C183.139819,22.0245081 182.664988,22.0676746 181.585826,22.2835069 C178.521007,22.8015046 177.571345,23.7943334 177.571345,25.7368246 C177.571345,27.1181516 178.348341,28.3268128 180.247666,28.3268128 Z M196.058973,6.87307702 L202.231779,6.13924703 L202.231779,11.6213888 L208.706749,11.6213888 L208.706749,14.9883734 L202.231779,14.9883734 L202.231779,25.1756604 C202.231779,27.0318187 202.879276,28.067814 204.346936,28.067814 C205.64193,28.067814 206.24626,27.0749851 207.023257,24.2691646 L209.613245,25.0029946 C208.663583,29.9239722 206.548426,32.0391292 202.490778,32.0391292 C198.087798,32.0391292 195.929474,29.7513063 195.929474,25.132494 L195.929474,14.9883734 L192.346657,14.9883734 L192.346657,11.6213888 L196.058973,11.6213888 L196.058973,6.87307702 Z M221.05754,32.0391292 C214.625736,32.0391292 210.136423,27.8519816 210.136423,21.5928434 C210.136423,15.3768717 214.841568,10.9307252 221.100706,10.9307252 C227.489344,10.9307252 231.978657,15.1610393 231.978657,21.3770111 C231.978657,27.6361493 227.273511,32.0391292 221.05754,32.0391292 Z M221.187039,29.1038092 C223.949693,29.1038092 225.072021,26.9023193 225.072021,21.463344 C225.072021,16.0243687 223.733861,13.8660452 220.92804,13.8660452 C218.208553,13.8660452 217.043058,16.0675352 217.043058,21.5065105 C217.043058,26.9886522 218.424385,29.1038092 221.187039,29.1038092 Z M233.02869,31.6074645 L246.064964,31.6074645 L246.064964,28.0246475 L242.309481,28.0246475 L242.309481,19.1323546 C243.043311,16.6286993 244.467805,15.3337052 245.633299,15.2473723 C245.633299,15.3768717 245.590133,15.5063711 245.590133,15.592704 C245.590133,17.5783617 247.057793,18.6575234 248.957118,18.6575234 C250.813276,18.6575234 252.324102,17.1035305 252.324102,14.945207 C252.324102,12.8300499 250.726943,10.9738917 248.223288,10.9738917 C245.460633,10.9738917 243.129644,12.8300499 241.920983,16.5855328 L241.920983,11.4055564 L233.02869,11.4055564 L233.02869,14.9883734 L236.007176,14.9883734 L236.007176,28.0246475 L233.02869,28.0246475 L233.02869,31.6074645 Z M257.340514,31.0031339 C255.354857,31.0031339 254.016696,32.6002933 254.016696,34.6291174 C254.016696,37.2191057 255.916021,39.1184304 259.585171,39.1184304 C264.24715,39.1184304 266.578139,35.9241116 268.65013,31.0463004 L275.556765,14.9883734 L278.017254,14.9883734 L278.017254,11.4055564 L269.168127,11.4055564 L269.168127,14.9883734 L271.714949,14.9883734 L267.657301,25.5641587 L263.124821,14.9883734 L266.189641,14.9883734 L266.189641,11.4055564 L253.541865,11.4055564 L253.541865,14.9883734 L256.218186,14.9883734 L264.333483,31.9527963 C263.081655,34.9744492 262.002493,35.7946121 260.232668,36.0104445 C260.4485,35.5787798 260.578,34.9744492 260.578,34.4132851 C260.578,32.7297928 259.542004,31.0031339 257.340514,31.0031339 Z M278.054776,31.6074645 L278.054776,27.8519816 L281.939759,27.8519816 L281.939759,6.95940997 L278.054776,6.95940997 L278.054776,3.20392705 L292.645043,3.20392705 C301.882668,3.20392705 303.997825,6.70041114 303.997825,10.0673958 C303.997825,12.9163829 302.055334,15.7222034 296.35736,16.5855328 L296.35736,16.8876981 C302.314333,17.5351952 305.03382,19.995684 305.03382,23.7511669 C305.03382,28.067814 302.055334,31.6074645 292.904042,31.6074645 L278.054776,31.6074645 Z M288.975893,15.0315399 L291.868047,15.0315399 C295.709863,15.0315399 296.918524,13.391214 296.918524,10.7148929 C296.918524,8.16807113 295.882529,6.95940997 291.95438,6.95940997 L288.975893,6.95940997 L288.975893,15.0315399 Z M288.975893,27.8519816 L291.95438,27.8519816 C296.400526,27.8519816 297.82502,26.600154 297.82502,23.1036699 C297.82502,20.3841822 296.314193,18.6575234 291.868047,18.6575234 L288.975893,18.6575234 L288.975893,27.8519816 Z M318.01585,32.0391292 C311.584046,32.0391292 307.094733,27.8519816 307.094733,21.5928434 C307.094733,15.3768717 311.799878,10.9307252 318.059016,10.9307252 C324.447654,10.9307252 328.936967,15.1610393 328.936967,21.3770111 C328.936967,27.6361493 324.231821,32.0391292 318.01585,32.0391292 Z M318.145349,29.1038092 C320.908003,29.1038092 322.030331,26.9023193 322.030331,21.463344 C322.030331,16.0243687 320.692171,13.8660452 317.88635,13.8660452 C315.166863,13.8660452 314.001368,16.0675352 314.001368,21.5065105 C314.001368,26.9886522 315.382695,29.1038092 318.145349,29.1038092 Z M353.837254,14.945207 L353.837254,11.4055564 L342.441306,11.4055564 L342.441306,14.945207 L344.729129,14.945207 L345.247127,16.5423664 L341.53481,26.9023193 L341.362144,26.9023193 L337.951993,14.945207 L340.455648,14.945207 L340.455648,11.4055564 L328.757535,11.4055564 L328.757535,14.9883734 L331.39069,14.9883734 L336.613833,31.7801304 L343.218303,31.7801304 L346.930619,21.4201775 L350.34077,31.7801304 L356.858907,31.7801304 L362.038884,14.9883734 L364.672038,14.9883734 L364.672038,11.4055564 L355.909245,11.4055564 L355.909245,14.945207 L358.240234,14.945207 L354.959583,26.9023193 L354.786917,26.9023193 L351.2041,14.945207 L353.837254,14.945207 Z M385.003446,22.3266734 L371.233342,22.3266734 C371.492341,27.0318187 373.391665,28.5858116 376.585984,28.5858116 C379.003306,28.5858116 380.514133,27.5929828 381.420629,25.046161 L384.787614,25.046161 C384.010617,29.2764751 381.16163,32.0391292 375.506822,32.0391292 C368.772853,32.0391292 364.672038,27.8951481 364.672038,21.6791763 C364.672038,15.5495376 369.204518,10.9307252 375.29099,10.9307252 C382.111292,10.9307252 385.305611,15.7653699 385.003446,22.3266734 Z M375.161491,13.8660452 C372.916834,13.8660452 371.535507,15.2905387 371.276508,19.6071858 L378.830641,19.6071858 C378.614808,15.5063711 377.49248,13.8660452 375.161491,13.8660452 Z M385.53737,31.6074645 L398.444145,31.6074645 L398.444145,28.0246475 L395.163493,28.0246475 L395.163493,1.8226 L385.53737,1.8226 L385.53737,5.49174997 L388.818022,5.49174997 L388.818022,28.0246475 L385.53737,28.0246475 L385.53737,31.6074645 Z M400.472969,31.6074645 L400.472969,27.8519816 L404.357951,27.8519816 L404.357951,6.95940997 L400.472969,6.95940997 L400.472969,3.20392705 L413.207078,3.20392705 C424.732525,3.20392705 430.171501,8.81556819 430.171501,17.2330299 C430.171501,25.6073251 424.905191,31.6074645 413.466077,31.6074645 L400.472969,31.6074645 Z M411.394086,27.9383145 L413.854575,27.9383145 C420.113713,27.9383145 422.487869,25.2188269 422.487869,17.2761964 C422.487869,9.76523054 419.984214,6.87307702 413.55241,6.87307702 L411.394086,6.87307702 L411.394086,27.9383145 Z M437.922733,8.42706996 C440.210556,8.42706996 441.807716,6.82991055 441.807716,4.71475351 C441.807716,2.64276293 440.253723,1.08877 437.922733,1.08877 C435.63491,1.08877 434.080918,2.72909587 434.080918,4.84425292 C434.080918,6.95940997 435.591744,8.42706996 437.922733,8.42706996 Z M431.793095,31.6074645 L444.656703,31.6074645 L444.656703,28.0246475 L441.376051,28.0246475 L441.376051,11.4055564 L431.793095,11.4055564 L431.793095,14.9883734 L435.073746,14.9883734 L435.073746,28.0246475 L431.793095,28.0246475 L431.793095,31.6074645 Z M445.934648,31.9959628 L449.258466,31.9959628 L449.94913,29.2764751 C451.244124,30.7441351 453.359281,32.0391292 456.510433,32.0391292 C461.431411,32.0391292 464.150898,28.8879769 464.150898,25.3914928 C464.150898,21.3770111 461.172412,19.9525175 456.769432,18.7870228 C452.927616,17.794194 451.762121,17.2330299 451.762121,15.7653699 C451.762121,14.5998752 452.625451,13.8228787 454.308943,13.8228787 C456.467267,13.8228787 458.539257,15.5063711 460.09325,17.9236934 L463.417068,17.9236934 L463.417068,11.0170582 L460.050084,11.0170582 L459.35942,13.4343805 C458.107593,11.9235541 456.208268,10.9307252 453.575113,10.9307252 C449.0858,10.9307252 446.236813,13.9092117 446.236813,17.4488623 C446.236813,21.0748458 448.610969,22.6288387 453.445614,23.8806663 C457.460095,24.9166616 458.582424,25.5209922 458.582424,27.0749851 C458.582424,28.3268128 457.762261,29.1469757 455.949269,29.1469757 C453.48878,29.1469757 451.028291,27.2908175 449.258466,24.5713299 L445.934648,24.5713299 L445.934648,31.9959628 Z M486.0613,22.3266734 L472.291195,22.3266734 C472.550194,27.0318187 474.449519,28.5858116 477.643838,28.5858116 C480.06116,28.5858116 481.571987,27.5929828 482.478482,25.046161 L485.845467,25.046161 C485.068471,29.2764751 482.219484,32.0391292 476.564676,32.0391292 C469.830707,32.0391292 465.729892,27.8951481 465.729892,21.6791763 C465.729892,15.5495376 470.262371,10.9307252 476.348844,10.9307252 C483.169146,10.9307252 486.363465,15.7653699 486.0613,22.3266734 Z M476.219344,13.8660452 C473.974688,13.8660452 472.593361,15.2905387 472.334362,19.6071858 L479.888494,19.6071858 C479.672662,15.5063711 478.550334,13.8660452 476.219344,13.8660452 Z M494.148027,31.9959628 C490.56521,31.9959628 487.975222,29.9239722 487.975222,26.6433204 C487.975222,25.3051599 488.49322,24.0533322 489.399716,23.1468363 C490.737876,21.8086758 492.809867,20.9453464 497.774011,20.2978493 C500.148167,19.9525175 500.363999,19.9093511 500.363999,19.3913534 L500.363999,17.6215281 C500.363999,15.0315399 499.155338,14.0818776 496.651683,14.0818776 C495.788353,14.0818776 494.881857,14.2545435 494.061694,14.5998752 C494.709191,15.0747064 495.09769,15.8085364 495.09769,16.8013652 C495.09769,18.3121917 493.802696,19.4776864 492.03287,19.4776864 C489.83138,19.4776864 488.752219,18.0531928 488.752219,16.4560334 C488.752219,12.743717 493.371031,10.9738917 498.335175,10.9738917 C504.421647,10.9738917 506.579971,13.8228787 506.579971,18.0100264 L506.579971,27.2044846 C506.579971,28.1973134 506.968469,28.4131457 507.659133,28.4131457 C508.133964,28.4131457 508.608795,27.9383145 508.997293,26.4706546 L511.11245,27.1613181 C510.292287,30.4851363 508.695128,31.9959628 505.802974,31.9959628 C503.342485,31.9959628 501.399994,30.7009686 501.054663,27.7224822 L500.83883,27.7224822 C499.543836,30.7873016 497.126514,31.9959628 494.148027,31.9959628 Z M497.083347,28.3268128 C499.025838,28.3268128 500.363999,26.513821 500.363999,23.9238328 L500.363999,21.9381752 C499.975501,22.0245081 499.50067,22.0676746 498.421508,22.2835069 C495.356688,22.8015046 494.407026,23.7943334 494.407026,25.7368246 C494.407026,27.1181516 495.184023,28.3268128 497.083347,28.3268128 Z M511.889447,31.9959628 L515.213265,31.9959628 L515.903928,29.2764751 C517.198922,30.7441351 519.31408,32.0391292 522.465232,32.0391292 C527.386209,32.0391292 530.105697,28.8879769 530.105697,25.3914928 C530.105697,21.3770111 527.127211,19.9525175 522.724231,18.7870228 C518.882415,17.794194 517.71692,17.2330299 517.71692,15.7653699 C517.71692,14.5998752 518.58025,13.8228787 520.263742,13.8228787 C522.422065,13.8228787 524.494056,15.5063711 526.048049,17.9236934 L529.371867,17.9236934 L529.371867,11.0170582 L526.004882,11.0170582 L525.314219,13.4343805 C524.062391,11.9235541 522.163067,10.9307252 519.529912,10.9307252 C515.040599,10.9307252 512.191612,13.9092117 512.191612,17.4488623 C512.191612,21.0748458 514.565768,22.6288387 519.400412,23.8806663 C523.414894,24.9166616 524.537222,25.5209922 524.537222,27.0749851 C524.537222,28.3268128 523.717059,29.1469757 521.904068,29.1469757 C519.443579,29.1469757 516.98309,27.2908175 515.213265,24.5713299 L511.889447,24.5713299 L511.889447,31.9959628 Z M552.558269,22.3266734 L538.788165,22.3266734 C539.047164,27.0318187 540.946489,28.5858116 544.140808,28.5858116 C546.55813,28.5858116 548.068956,27.5929828 548.975452,25.046161 L552.342437,25.046161 C551.565441,29.2764751 548.716453,32.0391292 543.061646,32.0391292 C536.327677,32.0391292 532.226862,27.8951481 532.226862,21.6791763 C532.226862,15.5495376 536.759341,10.9307252 542.845814,10.9307252 C549.666116,10.9307252 552.860435,15.7653699 552.558269,22.3266734 Z M542.716314,13.8660452 C540.471658,13.8660452 539.090331,15.2905387 538.831332,19.6071858 L546.385464,19.6071858 C546.169632,15.5063711 545.047304,13.8660452 542.716314,13.8660452 Z M558.077386,32.3412945 C560.278876,32.3412945 561.962369,30.6146357 561.962369,28.4994787 C561.962369,26.3843216 560.278876,24.7008293 558.120553,24.7008293 C555.919063,24.7008293 554.23557,26.3843216 554.23557,28.5426451 C554.23557,30.6578022 555.919063,32.3412945 558.077386,32.3412945 Z M563.908127,31.6074645 L575.433575,31.6074645 L575.433575,28.0246475 L573.188919,28.0246475 L573.188919,20.1251834 C573.188919,17.2330299 575.045077,15.2042058 577.073901,15.2042058 C577.93723,15.2042058 578.584727,15.4632046 579.059559,15.8948693 C579.707056,16.5423664 579.966054,17.6215281 579.966054,18.9596887 L579.966054,28.0246475 L577.678231,28.0246475 L577.678231,31.6074645 L589.203679,31.6074645 L589.203679,28.0246475 L586.311526,28.0246475 L586.311526,18.0963593 C586.311526,13.9092117 584.498534,10.9738917 580.13872,10.9738917 C576.426404,10.9738917 574.224914,13.3048811 572.80042,16.7150323 L572.80042,11.4055564 L563.908127,11.4055564 L563.908127,14.9883734 L566.886614,14.9883734 L566.886614,28.0246475 L563.908127,28.0246475 L563.908127,31.6074645 Z M609.535087,22.3266734 L595.764983,22.3266734 C596.023981,27.0318187 597.923306,28.5858116 601.117625,28.5858116 C603.534947,28.5858116 605.045774,27.5929828 605.95227,25.046161 L609.319254,25.046161 C608.542258,29.2764751 605.693271,32.0391292 600.038463,32.0391292 C593.304494,32.0391292 589.203679,27.8951481 589.203679,21.6791763 C589.203679,15.5495376 593.736158,10.9307252 599.822631,10.9307252 C606.642933,10.9307252 609.837252,15.7653699 609.535087,22.3266734 Z M599.693131,13.8660452 C597.448475,13.8660452 596.067148,15.2905387 595.808149,19.6071858 L603.362281,19.6071858 C603.146449,15.5063711 602.024121,13.8660452 599.693131,13.8660452 Z M613.266977,6.87307702 L613.266977,11.6213888 L609.554661,11.6213888 L609.554661,14.9883734 L613.137478,14.9883734 L613.137478,25.132494 C613.137478,29.7513063 615.295801,32.0391292 619.698781,32.0391292 C623.75643,32.0391292 625.871587,29.9239722 626.821249,25.0029946 L624.231261,24.2691646 C623.454264,27.0749851 622.849934,28.067814 621.55494,28.067814 C620.08728,28.067814 619.439783,27.0318187 619.439783,25.1756604 L619.439783,14.9883734 L625.914753,14.9883734 L625.914753,11.6213888 L619.439783,11.6213888 L619.439783,6.13924703 L613.266977,6.87307702 Z" id="InflammatoryBowelDis"></path>
        </g>
    </g>
</svg>