<?xml version="1.0" encoding="UTF-8"?>
<svg width="631px" height="40px" viewBox="0 0 631 40" version="1.1" xmlns="http://www.w3.org/2000/svg" xmlns:xlink="http://www.w3.org/1999/xlink">
    <!-- Generator: Sketch 49.3 (51167) - http://www.bohemiancoding.com/sketch -->
    <title>19</title>
    <desc>Created with Sketch.</desc>
    <defs>
        <path d="M-0.219943519,0.0644067797 L-0.219943519,4.72677966 L4.42045992,4.72677966 L4.42045992,31.6684746 L-0.219943519,31.6684746 L-0.219943519,36.3308475 L18.3403209,36.3308475 L18.3403209,31.6684746 L13.184467,31.6684746 L13.184467,20.2705085 L17.8343159,20.2705085 C21.8675133,20.2705085 22.7931651,22.0257627 22.8484883,26.0237288 L22.8484883,26.0237288 L22.9024622,27.9986441 C22.9024622,34.0237288 25.4075244,36.9810169 31.0221562,36.9810169 L31.0221562,36.9810169 C35.9277063,36.9810169 38.1042026,33.6942373 39.1405009,29.3688136 L39.1405009,29.3688136 L35.9196102,28.3274576 C35.1572293,30.7918644 34.4913267,31.559322 33.7289458,31.559322 L33.7289458,31.559322 C32.6386736,31.559322 32.1279459,31.0115254 32.0186488,28.6562712 L32.0186488,28.6562712 L31.8128734,26.520678 C31.6502771,22.2481356 29.6829296,19.1810169 22.4652739,18.5783051 L22.4652739,18.5783051 L22.4652739,18.1952542 C31.2299556,17.2094915 33.6668758,13.5932203 33.6668758,9.26644068 L33.6668758,9.26644068 C33.6668758,4.72067797 30.0978537,0.0644067797 19.2518046,0.0644067797 L19.2518046,0.0644067797 L-0.219943519,0.0644067797 Z M13.184467,4.72677966 L18.2708295,4.72677966 C22.9584601,4.72677966 24.2113286,6.56474576 24.2113286,10.2901695 L24.2113286,10.2901695 C24.2113286,14.4522034 22.3580008,16.1254237 18.1075586,16.1254237 L18.1075586,16.1254237 L13.184467,16.1254237 L13.184467,4.72677966 Z" id="path-1"></path>
        <linearGradient x1="49.9995715%" y1="-53.2368962%" x2="49.9995655%" y2="94.938508%" id="linearGradient-3">
            <stop stop-color="#8377B8" offset="0%"></stop>
            <stop stop-color="#8C54A3" offset="100%"></stop>
        </linearGradient>
        <path d="M-0.167318996,-0.133559322 L-0.167318996,4.52881356 L3.95763399,4.52881356 L3.95763399,33.0244068 L-0.167318996,33.0244068 L-0.167318996,37.6867797 L14.7841176,37.6867797 L14.7841176,33.0244068 L11.6914148,33.0244068 L11.6914148,23.0013559 C11.6914148,19.3322034 14.1114682,16.7579661 16.6178798,16.7579661 L16.6178798,16.7579661 C17.7634752,16.7579661 18.6574174,17.0861017 19.2565273,17.6338983 L19.2565273,17.6338983 C20.0735568,18.4562712 20.4554219,19.8250847 20.4554219,21.5227119 L20.4554219,21.5227119 L20.4554219,33.0244068 L17.3627192,33.0244068 L17.3627192,37.6867797 L31.7980306,37.6867797 L31.7980306,33.0244068 L28.1898774,33.0244068 L28.1898774,20.4277966 C28.1898774,15.1145763 25.9364684,11.3905085 20.4311337,11.3905085 L20.4311337,11.3905085 C16.2893138,11.3905085 13.7532166,13.800678 11.6914148,17.6888136 L11.6914148,17.6888136 L11.6914148,-0.133559322 L-0.167318996,-0.133559322 Z" id="path-4"></path>
        <linearGradient x1="50.0008326%" y1="-47.2119382%" x2="50.0008253%" y2="97.1007298%" id="linearGradient-6">
            <stop stop-color="#8377B8" offset="0%"></stop>
            <stop stop-color="#8C54A3" offset="100%"></stop>
        </linearGradient>
        <path d="M0.126838594,13.4847458 C0.126838594,21.3728814 5.30428203,26.6684746 13.8065158,26.6684746 L13.8065158,26.6684746 C20.9465841,26.6684746 24.5446172,23.0528814 25.5249176,17.8718644 L25.5249176,17.8718644 L21.273126,17.8718644 C20.1295547,20.980339 18.2209037,22.2752542 15.1693561,22.2752542 L15.1693561,22.2752542 C11.1361586,22.2752542 8.73769481,20.4630508 8.41182758,14.2454237 L8.41182758,14.2454237 L25.7974856,14.2454237 C26.1786761,5.9559322 22.1454787,-0.183050847 13.5346225,-0.183050847 L13.5346225,-0.183050847 C5.84941812,-0.183050847 0.126838594,5.70847458 0.126838594,13.4847458 M13.3706768,3.33491525 C16.3142768,3.33491525 17.7310908,5.4379661 18.0036589,10.6189831 L18.0036589,10.6189831 L8.46580145,10.6189831 C8.79301803,5.4379661 10.5370487,3.33491525 13.3706768,3.33491525" id="path-7"></path>
        <linearGradient x1="50.0004488%" y1="-109.764087%" x2="50.0004396%" y2="93.8636752%" id="linearGradient-9">
            <stop stop-color="#8377B8" offset="0%"></stop>
            <stop stop-color="#8C54A3" offset="100%"></stop>
        </linearGradient>
        <path d="M16.569978,0.256949153 L16.569978,4.92 L20.1781311,4.92 L20.1781311,14.9267797 C20.1781311,18.6508475 17.9044819,21.2250847 15.4520442,21.2250847 L15.4520442,21.2250847 C14.3071235,21.2250847 13.5595854,20.8420339 13.0684232,20.3484746 L13.0684232,20.3484746 C12.2507191,19.4725424 11.9295745,18.1579661 11.9295745,16.460339 L11.9295745,16.460339 L11.9295745,0.256949153 L0.0715153772,0.256949153 L0.0715153772,4.92 L4.19579369,4.92 L4.19579369,17.5552542 C4.19579369,22.8135593 6.25827018,26.5369492 11.6543078,26.5369492 L11.6543078,26.5369492 C16.2866152,26.5369492 19.1472302,23.5810169 20.6942563,19.3084746 L20.6942563,19.3084746 L20.6942563,26.1613559 L32.0375396,26.1613559 L32.0375396,21.4989831 L28.4280371,21.4989831 L28.4280371,0.256949153 L16.569978,0.256949153 Z" id="path-10"></path>
        <linearGradient x1="49.9987552%" y1="-114.836968%" x2="49.9987478%" y2="93.9202758%" id="linearGradient-12">
            <stop stop-color="#8377B8" offset="0%"></stop>
            <stop stop-color="#8C54A3" offset="100%"></stop>
        </linearGradient>
        <path d="M26.7858821,6.65627119 C26.2407461,2.43932203 23.9664221,-0.134915254 19.6060081,-0.134915254 L19.6060081,-0.134915254 C15.1916203,-0.134915254 12.5799597,2.82237288 10.5181578,7.14983051 L10.5181578,7.14983051 L10.5181578,0.256949153 L-0.309000403,0.256949153 L-0.309000403,4.92 L3.29982745,4.92 L3.29982745,21.4989831 L-0.309000403,21.4989831 L-0.309000403,26.1613559 L13.6108606,26.1613559 L13.6108606,21.4989831 L11.0336083,21.4989831 L11.0336083,11.4759322 C11.0336083,7.80677966 13.4644564,5.23254237 15.7536232,5.23254237 L15.7536232,5.23254237 C16.7339236,5.23254237 17.584012,5.50644068 18.0744996,6.05423729 L18.0744996,6.05423729 C18.8928784,6.8759322 19.2828396,8.24474576 19.2828396,9.99728814 L19.2828396,9.99728814 L19.2828396,21.4989831 L16.7049126,21.4989831 L16.7049126,26.1613559 L29.5945474,26.1613559 L29.5945474,21.4989831 L27.0166204,21.4989831 L27.0166204,11.4759322 C27.0166204,7.80677966 29.456914,5.23254237 31.7474301,5.23254237 L31.7474301,5.23254237 C32.7817044,5.23254237 33.5872644,5.50644068 34.1330751,6.05423729 L34.1330751,6.05423729 C34.9501046,6.8759322 35.2658517,8.24474576 35.2658517,9.99728814 L35.2658517,9.99728814 L35.2658517,21.4989831 L32.6879248,21.4989831 L32.6879248,26.1613559 L47.1239109,26.1613559 L47.1239109,21.4989831 L42.9989579,21.4989831 L42.9989579,8.90237288 C42.9989579,3.58915254 40.9425535,-0.134915254 35.6018391,-0.134915254 L35.6018391,-0.134915254 C31.3500475,-0.134915254 28.6392099,2.54915254 26.7858821,6.65627119" id="path-13"></path>
        <linearGradient x1="49.9997666%" y1="-112.500252%" x2="49.9997616%" y2="95.8139464%" id="linearGradient-15">
            <stop stop-color="#8377B8" offset="0%"></stop>
            <stop stop-color="#8C54A3" offset="100%"></stop>
        </linearGradient>
        <path d="M0.943193371,6.82033898 C0.943193371,8.84677966 2.30400956,10.6549153 5.08501319,10.6549153 L5.08501319,10.6549153 C7.31953139,10.6549153 8.95156627,9.17559322 8.95156627,7.25898305 L8.95156627,7.25898305 C8.95156627,5.99932203 8.45500667,5.06779661 7.63797722,4.46576271 L7.63797722,4.46576271 C8.67360084,4.02779661 9.80705211,3.80813559 10.8959749,3.80813559 L10.8959749,3.80813559 C14.0574943,3.80813559 15.5613413,5.01355932 15.5613413,8.29966102 L15.5613413,8.29966102 L15.5613413,10.5450847 C15.5613413,11.2020339 15.3110375,11.2569492 12.3134637,11.6949153 L12.3134637,11.6949153 C6.04574807,12.5166102 3.45162896,13.6122034 1.76292152,15.3098305 L1.76292152,15.3098305 C0.617326134,16.460339 -0.036432362,18.0488136 -0.036432362,19.7464407 L-0.036432362,19.7464407 C-0.036432362,23.9084746 3.23370946,26.4705085 7.75806908,26.4705085 L7.75806908,26.4705085 C11.5180238,26.4705085 14.5702461,25.1254237 16.2056543,20.980339 L16.2056543,20.980339 L16.4782224,20.980339 C16.9140614,25.1254237 19.356379,26.4705085 22.4639245,26.4705085 L22.4639245,26.4705085 C26.1152568,26.4705085 28.1230848,24.620339 29.157359,20.4027119 L29.157359,20.4027119 L26.4674363,19.5274576 C25.9769488,21.3898305 25.3366837,21.9918644 24.7375738,21.9918644 L24.7375738,21.9918644 C23.8658958,21.9918644 23.2957968,21.7179661 23.2957968,20.4583051 L23.2957968,20.4583051 L23.2957968,8.79186441 C23.2957968,3.48 20.6490532,-0.134915254 12.9638488,-0.134915254 L12.9638488,-0.134915254 C6.69680787,-0.134915254 0.943193371,2.11050847 0.943193371,6.82033898 M8.07381622,18.5966102 C8.07381622,16.1315254 9.26124135,14.8718644 13.1304931,14.2149153 L13.1304931,14.2149153 C14.4933333,13.9410169 15.0458908,13.8861017 15.5613413,13.7762712 L15.5613413,13.7762712 L15.5613413,16.2969492 C15.5613413,19.5816949 13.888826,21.8820339 11.4363883,21.8820339 L11.4363883,21.8820339 C9.03792446,21.8820339 8.07381622,20.3484746 8.07381622,18.5966102" id="path-16"></path>
        <linearGradient x1="50.0012276%" y1="-110.422818%" x2="50.0012195%" y2="94.0425831%" id="linearGradient-18">
            <stop stop-color="#8377B8" offset="0%"></stop>
            <stop stop-color="#8C54A3" offset="100%"></stop>
        </linearGradient>
        <path d="M4.55741861,0.763389831 L4.55741861,6.87661017 L-0.0829848245,6.87661017 L-0.0829848245,11.0216949 L4.04196816,11.0216949 L4.04196816,23.9308475 C4.04196816,29.7918644 6.89718586,32.6942373 12.4564944,32.6942373 L12.4564944,32.6942373 C17.579964,32.6942373 20.3805332,30.0101695 21.5801024,23.7661017 L21.5801024,23.7661017 L18.3140086,22.8359322 C17.3323589,26.3952542 16.5787487,27.6555932 14.9440151,27.6555932 L14.9440151,27.6555932 C13.0906874,27.6555932 12.2911995,26.3410169 12.2911995,23.9857627 L12.2911995,23.9857627 L12.2911995,11.0216949 L20.5411054,11.0216949 L20.5411054,6.87661017 L12.2911995,6.87661017 L12.2911995,-0.167457627 L4.55741861,0.763389831 Z" id="path-19"></path>
        <linearGradient x1="50.0004379%" y1="-70.9601407%" x2="50.000427%" y2="94.9981808%" id="linearGradient-21">
            <stop stop-color="#8377B8" offset="0%"></stop>
            <stop stop-color="#8C54A3" offset="100%"></stop>
        </linearGradient>
        <path d="M0.0539738696,13.3376271 C0.0539738696,21.28 5.72257952,26.5925424 13.8422735,26.5925424 L13.8422735,26.5925424 C21.6914235,26.5925424 27.6325972,21.0061017 27.6325972,13.0644068 L27.6325972,13.0644068 C27.6325972,5.17762712 21.9646662,-0.190508475 13.8982714,-0.190508475 L13.8982714,-0.190508475 C5.99447289,-0.190508475 0.0539738696,5.45152542 0.0539738696,13.3376271 M8.77480185,13.2284746 C8.77480185,6.32745763 10.2455898,3.53423729 13.6796772,3.53423729 L13.6796772,3.53423729 C17.2223871,3.53423729 18.9117692,6.27322034 18.9117692,13.1735593 L18.9117692,13.1735593 C18.9117692,20.0745763 17.4949552,22.8684746 14.0068938,22.8684746 L14.0068938,22.8684746 C10.5188325,22.8684746 8.77480185,20.1837288 8.77480185,13.2284746" id="path-22"></path>
        <linearGradient x1="50.0001338%" y1="-109.761017%" x2="50.0001253%" y2="93.8638633%" id="linearGradient-24">
            <stop stop-color="#8377B8" offset="0%"></stop>
            <stop stop-color="#8C54A3" offset="100%"></stop>
        </linearGradient>
        <path d="M2.4220774,4.96949153 C2.4220774,7.65220339 4.32937901,9.51525424 7.27230425,9.51525424 L7.27230425,9.51525424 C10.1619303,9.51525424 12.1778543,7.48813559 12.1778543,4.80474576 L12.1778543,4.80474576 C12.1778543,2.17627119 10.2165788,0.204067797 7.27230425,0.204067797 L7.27230425,0.204067797 C4.38335288,0.204067797 2.4220774,2.28542373 2.4220774,4.96949153 L2.4220774,4.96949153 Z M-0.315747137,13.1383051 L-0.315747137,17.8013559 L3.80920585,17.8013559 L3.80920585,34.380339 L-0.315747137,34.380339 L-0.315747137,39.0427119 L15.667265,39.0427119 L15.667265,34.380339 L11.542312,34.380339 L11.542312,13.1383051 L-0.315747137,13.1383051 Z" id="path-25"></path>
        <linearGradient x1="49.999802%" y1="-43.6701321%" x2="49.9997873%" y2="97.1691276%" id="linearGradient-27">
            <stop stop-color="#8377B8" offset="0%"></stop>
            <stop stop-color="#8C54A3" offset="100%"></stop>
        </linearGradient>
        <path d="M14.4265407,-0.133559322 L14.4265407,4.52881356 L18.0353685,4.52881356 L18.0353685,15.7166102 C16.4890172,13.1430508 14.128335,11.3349153 10.4770028,11.3349153 L10.4770028,11.3349153 C7.75199702,11.3349153 5.58697018,12.3213559 3.89758806,14.0745763 L3.89758806,14.0745763 C1.55377277,16.3749153 0.191607237,20.2623729 0.191607237,24.8630508 L0.191607237,24.8630508 C0.191607237,29.2447458 1.33652795,33.079322 3.67966856,35.4338983 L3.67966856,35.4338983 C5.31507681,37.0779661 7.38227601,38.1179661 10.1619303,38.1179661 L10.1619303,38.1179661 C14.3044248,38.1179661 17.0044676,35.7627119 18.550819,32.2027119 L18.550819,32.2027119 L18.550819,37.6867797 L29.8934277,37.6867797 L29.8934277,33.0244068 L26.2852745,33.0244068 L26.2852745,-0.133559322 L14.4265407,-0.133559322 Z M8.74983893,24.9186441 C8.74983893,19.2223729 10.2746008,16.1559322 13.6000658,16.1559322 L13.6000658,16.1559322 C17.2507234,16.1559322 18.7781839,19.9342373 18.7781839,24.7538983 L18.7781839,24.7538983 C18.7781839,29.7932203 16.7609105,33.4074576 13.6000658,33.4074576 L13.6000658,33.4074576 C10.3832232,33.4074576 8.74983893,30.4501695 8.74983893,24.9186441 L8.74983893,24.9186441 Z" id="path-28"></path>
        <linearGradient x1="50.0008784%" y1="-46.5378168%" x2="50.0008704%" y2="95.7131577%" id="linearGradient-30">
            <stop stop-color="#8377B8" offset="0%"></stop>
            <stop stop-color="#8C54A3" offset="100%"></stop>
        </linearGradient>
        <path d="M15.4864525,0.0644067797 L3.93132173,31.6684746 L-0.109971759,31.6684746 L-0.109971759,36.3308475 L13.8105639,36.3308475 L13.8105639,31.6684746 L9.2727108,31.6684746 L11.5618775,24.9335593 L23.8254154,24.9335593 L26.1145821,31.6684746 L21.0288943,31.6684746 L21.0288943,36.3308475 L40.1046091,36.3308475 L40.1046091,31.6684746 L35.8170599,31.6684746 L24.4245253,0.0644067797 L15.4864525,0.0644067797 Z M17.6663222,6.8 L17.883567,6.8 L22.4086013,20.2705085 L13.0333402,20.2705085 L17.6663222,6.8 Z" id="path-31"></path>
        <linearGradient x1="50.0018678%" y1="-53.4355108%" x2="50.0018619%" y2="96.9769476%" id="linearGradient-33">
            <stop stop-color="#8377B8" offset="0%"></stop>
            <stop stop-color="#8C54A3" offset="100%"></stop>
        </linearGradient>
        <path d="M10.4904962,6.98508475 L10.4904962,0.256949153 L-0.336662012,0.256949153 L-0.336662012,4.92 L3.27216584,4.92 L3.27216584,21.4989831 L-0.336662012,21.4989831 L-0.336662012,26.1613559 L16.1618006,26.1613559 L16.1618006,21.4989831 L11.0059467,21.4989831 L11.0059467,10.2162712 C12.0368476,7.04 13.8159613,5.39728814 15.2874239,5.28745763 L15.2874239,5.28745763 C15.2874239,5.45152542 15.3191335,5.61627119 15.3191335,5.72542373 L15.3191335,5.72542373 C15.3191335,8.24474576 17.1603172,9.61423729 19.5574316,9.61423729 L19.5574316,9.61423729 C21.9012469,9.61423729 23.782911,7.64271186 23.782911,4.90440678 L23.782911,4.90440678 C23.782911,2.22033898 21.7130131,-0.134915254 18.5514937,-0.134915254 L18.5514937,-0.134915254 C15.0634323,-0.134915254 12.0368476,2.22033898 10.4904962,6.98508475" id="path-34"></path>
        <linearGradient x1="50.0013001%" y1="-112.500252%" x2="50.0012903%" y2="95.8139464%" id="linearGradient-36">
            <stop stop-color="#8377B8" offset="0%"></stop>
            <stop stop-color="#8C54A3" offset="100%"></stop>
        </linearGradient>
        <path d="M4.76251932,0.763389831 L4.76251932,6.87661017 L0.122790553,6.87661017 L0.122790553,11.0216949 L4.76251932,11.0216949 L4.76251932,23.9308475 C4.76251932,29.7918644 7.43355119,32.6942373 12.9928598,32.6942373 L12.9928598,32.6942373 C18.1163293,32.6942373 20.7327127,30.0101695 21.9316072,23.7661017 L21.9316072,23.7661017 L18.6459479,22.8359322 C17.6642982,26.3952542 16.8675089,27.6555932 15.23345,27.6555932 L15.23345,27.6555932 C13.3801223,27.6555932 12.4963002,26.3410169 12.4963002,23.9857627 L12.4963002,23.9857627 L12.4963002,11.0216949 L20.7462061,11.0216949 L20.7462061,6.87661017 L12.4963002,6.87661017 L12.4963002,-0.167457627 L4.76251932,0.763389831 Z" id="path-37"></path>
        <linearGradient x1="50.0022113%" y1="-70.9601407%" x2="50.0022005%" y2="94.9981808%" id="linearGradient-39">
            <stop stop-color="#8377B8" offset="0%"></stop>
            <stop stop-color="#8C54A3" offset="100%"></stop>
        </linearGradient>
        <path d="M-0.130886634,-0.133559322 L-0.130886634,4.52881356 L3.4786159,4.52881356 L3.4786159,33.0244068 L-0.130886634,33.0244068 L-0.130886634,37.6867797 L14.3057741,37.6867797 L14.3057741,33.0244068 L11.7271725,33.0244068 L11.7271725,23.0013559 C11.7271725,19.3322034 13.9772082,16.7579661 16.4842944,16.7579661 L16.4842944,16.7579661 C17.6292152,16.7579661 18.3517903,17.0861017 18.951575,17.6338983 L18.951575,17.6338983 C19.7692791,18.4562712 19.9764038,19.8250847 19.9764038,21.5227119 L19.9764038,21.5227119 L19.9764038,33.0244068 L17.3984769,33.0244068 L17.3984769,37.6867797 L31.8351376,37.6867797 L31.8351376,33.0244068 L28.2256351,33.0244068 L28.2256351,20.4277966 C28.2256351,15.1145763 25.9715514,11.3905085 20.467566,11.3905085 L20.467566,11.3905085 C16.3257462,11.3905085 13.789649,13.800678 11.7271725,17.6888136 L11.7271725,17.6888136 L11.7271725,-0.133559322 L-0.130886634,-0.133559322 Z" id="path-40"></path>
        <linearGradient x1="49.9991674%" y1="-47.2119382%" x2="49.99916%" y2="97.1007298%" id="linearGradient-42">
            <stop stop-color="#8377B8" offset="0%"></stop>
            <stop stop-color="#8C54A3" offset="100%"></stop>
        </linearGradient>
        <path d="M11.6657772,6.98508475 L11.6657772,0.256949153 L0.322493871,0.256949153 L0.322493871,4.92 L3.9319964,4.92 L3.9319964,21.4989831 L0.322493871,21.4989831 L0.322493871,26.1613559 L16.8209565,26.1613559 L16.8209565,21.4989831 L12.180553,21.4989831 L12.180553,10.2162712 C13.2114539,7.04 14.8799212,5.39728814 16.3500344,5.28745763 L16.3500344,5.28745763 C16.3500344,5.45152542 16.270423,5.61627119 16.270423,5.72542373 L16.270423,5.72542373 C16.270423,8.24474576 18.1251001,9.61423729 20.5222146,9.61423729 L20.5222146,9.61423729 C22.8660299,9.61423729 24.7780542,7.64271186 24.7780542,4.90440678 L24.7780542,4.90440678 C24.7780542,2.22033898 22.7682022,-0.134915254 19.6073575,-0.134915254 L19.6073575,-0.134915254 C16.1192962,-0.134915254 13.2114539,2.22033898 11.6657772,6.98508475" id="path-43"></path>
        <linearGradient x1="50.0001401%" y1="-112.500252%" x2="50.0001305%" y2="95.8139464%" id="linearGradient-45">
            <stop stop-color="#8377B8" offset="0%"></stop>
            <stop stop-color="#8C54A3" offset="100%"></stop>
        </linearGradient>
        <path d="M2.90446886,4.96949153 C2.90446886,7.65220339 4.8110958,9.51525424 7.75469571,9.51525424 L7.75469571,9.51525424 C10.6436471,9.51525424 12.6595711,7.48813559 12.6595711,4.80474576 L12.6595711,4.80474576 C12.6595711,2.17627119 10.6982956,0.204067797 7.75469571,0.204067797 L7.75469571,0.204067797 C4.86506967,0.204067797 2.90446886,2.28542373 2.90446886,4.96949153 L2.90446886,4.96949153 Z M-0.210498091,13.1383051 L-0.210498091,17.8013559 L3.91378022,17.8013559 L3.91378022,34.380339 L-0.210498091,34.380339 L-0.210498091,39.0427119 L16.2879645,39.0427119 L16.2879645,34.380339 L12.1630115,34.380339 L12.1630115,13.1383051 L-0.210498091,13.1383051 Z" id="path-46"></path>
        <linearGradient x1="50.0021563%" y1="-43.6701321%" x2="50.002142%" y2="97.1691276%" id="linearGradient-48">
            <stop stop-color="#8377B8" offset="0%"></stop>
            <stop stop-color="#8C54A3" offset="100%"></stop>
        </linearGradient>
        <path d="M5.41020575,0.763389831 L5.41020575,6.87661017 L0.25435186,6.87661017 L0.25435186,11.0216949 L4.8947553,11.0216949 L4.8947553,23.9308475 C4.8947553,29.7918644 7.69532446,32.6942373 13.254633,32.6942373 L13.254633,32.6942373 C18.3781026,32.6942373 21.1233485,30.0101695 22.3222431,23.7661017 L22.3222431,23.7661017 L19.0723415,22.8359322 C18.0913664,26.3952542 17.3687912,27.6555932 15.7340577,27.6555932 L15.7340577,27.6555932 C13.8800552,27.6555932 13.1439866,26.3410169 13.1439866,23.9857627 L13.1439866,23.9857627 L13.1439866,11.0216949 L21.3938926,11.0216949 L21.3938926,6.87661017 L13.1439866,6.87661017 L13.1439866,-0.167457627 L5.41020575,0.763389831 Z" id="path-49"></path>
        <linearGradient x1="50.0013256%" y1="-70.9601407%" x2="50.0013149%" y2="94.9981808%" id="linearGradient-51">
            <stop stop-color="#8377B8" offset="0%"></stop>
            <stop stop-color="#8C54A3" offset="100%"></stop>
        </linearGradient>
        <path d="M2.32559911,4.96949153 C2.32559911,7.65220339 4.23290072,9.51525424 7.17582596,9.51525424 L7.17582596,9.51525424 C10.065452,9.51525424 12.081376,7.48813559 12.081376,4.80474576 L12.081376,4.80474576 C12.081376,2.17627119 10.1194259,0.204067797 7.17582596,0.204067797 L7.17582596,0.204067797 C4.28687459,0.204067797 2.32559911,2.28542373 2.32559911,4.96949153 L2.32559911,4.96949153 Z M-0.317771157,13.1383051 L-0.317771157,17.8013559 L3.8078565,17.8013559 L3.8078565,34.380339 L-0.317771157,34.380339 L-0.317771157,39.0427119 L15.6659157,39.0427119 L15.6659157,34.380339 L11.5416373,34.380339 L11.5416373,13.1383051 L-0.317771157,13.1383051 Z" id="path-52"></path>
        <linearGradient x1="50.0000494%" y1="-43.6701321%" x2="50.0000346%" y2="97.1691276%" id="linearGradient-54">
            <stop stop-color="#8377B8" offset="0%"></stop>
            <stop stop-color="#8C54A3" offset="100%"></stop>
        </linearGradient>
        <path d="M17.9267461,-0.261016949 L17.0550681,2.90033898 C15.4736337,0.983050847 13.0751699,-0.182372881 9.75105422,-0.182372881 L9.75105422,-0.182372881 C4.08244856,-0.182372881 0.485764826,3.60474576 0.485764826,8.09559322 L0.485764826,8.09559322 C0.485764826,12.6962712 3.48266394,14.6827119 9.58643391,16.2705085 L9.58643391,16.2705085 C14.6559296,17.5844068 16.0727437,18.3810169 16.0727437,20.3538983 L16.0727437,20.3538983 C16.0727437,21.9410169 15.0377947,23.0413559 12.748628,23.0413559 L12.748628,23.0413559 C9.64175713,23.0413559 6.53488626,20.4630508 4.29969339,17.3532203 L4.29969339,17.3532203 L0.186884523,17.3532203 L0.186884523,26.68 L4.29969339,26.68 L5.17272073,23.1559322 C6.8074543,25.0176271 9.4778115,26.5877966 13.457035,26.5877966 L13.457035,26.5877966 C19.6707768,26.5877966 23.1035149,22.5857627 23.1035149,18.1498305 L23.1035149,18.1498305 C23.1035149,13.0562712 19.3442349,11.239322 13.7842516,9.76135593 L13.7842516,9.76135593 C8.93335009,8.50101695 7.46188747,7.77288136 7.46188747,5.91050847 L7.46188747,5.91050847 C7.46188747,4.43186441 8.55148496,3.41152542 10.6773808,3.41152542 L10.6773808,3.41152542 C13.4023865,3.41152542 16.0180951,5.4379661 17.9813947,8.54644068 L17.9813947,8.54644068 L22.3566515,8.54644068 L22.3566515,-0.261016949 L17.9267461,-0.261016949 Z" id="path-55"></path>
        <linearGradient x1="50.0021506%" y1="-109.766235%" x2="50.0021403%" y2="93.863204%" id="linearGradient-57">
            <stop stop-color="#8377B8" offset="0%"></stop>
            <stop stop-color="#8C54A3" offset="100%"></stop>
        </linearGradient>
        <path d="M-0.129537287,5.20610169 C-0.129537287,7.89016949 1.9963585,10.0264407 4.72136424,10.0264407 L4.72136424,10.0264407 C7.50101853,10.0264407 9.62623964,7.83525424 9.62623964,5.15186441 L9.62623964,5.15186441 C9.62623964,2.46915254 7.50101853,0.33220339 4.77601279,0.33220339 L4.77601279,0.33220339 C1.9963585,0.33220339 -0.129537287,2.46915254 -0.129537287,5.20610169" id="path-58"></path>
        <linearGradient x1="50.003971%" y1="-483.471583%" x2="50.0039467%" y2="79.0916596%" id="linearGradient-60">
            <stop stop-color="#8377B8" offset="0%"></stop>
            <stop stop-color="#8C54A3" offset="100%"></stop>
        </linearGradient>
        <path d="M10.7097651,7.14983051 L10.7097651,0.256949153 L-0.117393166,0.256949153 L-0.117393166,4.92 L3.49210936,4.92 L3.49210936,21.4989831 L-0.117393166,21.4989831 L-0.117393166,26.1613559 L14.3192676,26.1613559 L14.3192676,21.4989831 L11.2258902,21.4989831 L11.2258902,11.4759322 C11.2258902,7.80677966 13.6567384,5.23254237 16.2184731,5.23254237 L16.2184731,5.23254237 C17.3080706,5.23254237 18.2121329,5.56067797 18.8112429,6.10847458 L18.8112429,6.10847458 C19.628947,6.93084746 19.9912466,8.29966102 19.9912466,9.99728814 L19.9912466,9.99728814 L19.9912466,21.4989831 L16.8965199,21.4989831 L16.8965199,26.1613559 L31.3331806,26.1613559 L31.3331806,21.4989831 L27.7243528,21.4989831 L27.7243528,8.90237288 C27.7243528,3.58915254 25.4587996,-0.134915254 19.9534649,-0.134915254 L19.9534649,-0.134915254 C15.2671837,-0.134915254 12.7729162,2.82237288 10.7097651,7.14983051" id="path-61"></path>
        <linearGradient x1="50.0005949%" y1="-112.500252%" x2="50.0005874%" y2="95.8139464%" id="linearGradient-63">
            <stop stop-color="#8377B8" offset="0%"></stop>
            <stop stop-color="#8C54A3" offset="100%"></stop>
        </linearGradient>
        <path d="M-0.138308041,13.4847458 C-0.138308041,21.3728814 5.0391354,26.6684746 13.5420439,26.6684746 L13.5420439,26.6684746 C20.6821122,26.6684746 24.2781212,23.0528814 25.2604456,17.8718644 L25.2604456,17.8718644 L21.0086541,17.8718644 C19.8637334,20.980339 17.9564317,22.2752542 14.9042094,22.2752542 L14.9042094,22.2752542 C10.871012,22.2752542 8.47322285,20.4630508 8.1453316,14.2454237 L8.1453316,14.2454237 L25.532339,14.2454237 C25.9142041,5.9559322 21.8810067,-0.183050847 13.2688012,-0.183050847 L13.2688012,-0.183050847 C5.58427148,-0.183050847 -0.138308041,5.70847458 -0.138308041,13.4847458 M13.1062049,3.33491525 C16.0491301,3.33491525 17.4666189,5.4379661 17.7385122,10.6189831 L17.7385122,10.6189831 L8.19930547,10.6189831 C8.52719672,5.4379661 10.2712274,3.33491525 13.1062049,3.33491525" id="path-64"></path>
        <linearGradient x1="49.9988298%" y1="-109.764087%" x2="49.9988206%" y2="93.8636752%" id="linearGradient-66">
            <stop stop-color="#8377B8" offset="0%"></stop>
            <stop stop-color="#8C54A3" offset="100%"></stop>
        </linearGradient>
        <path d="M4.92039289,0.763389831 L4.92039289,6.87661017 L0.279989449,6.87661017 L0.279989449,11.0216949 L4.92039289,11.0216949 L4.92039289,23.9308475 C4.92039289,29.7918644 7.61908637,32.6942373 13.1777203,32.6942373 L13.1777203,32.6942373 C18.3011898,32.6942373 20.9445601,30.0101695 22.1434547,23.7661017 L22.1434547,23.7661017 L18.8496993,22.8359322 C17.8687242,26.3952542 17.0564175,27.6555932 15.4216839,27.6555932 L15.4216839,27.6555932 C13.5690308,27.6555932 12.6541737,26.3410169 12.6541737,23.9857627 L12.6541737,23.9857627 L12.6541737,11.0216949 L20.903405,11.0216949 L20.903405,6.87661017 L12.6541737,6.87661017 L12.6541737,-0.167457627 L4.92039289,0.763389831 Z" id="path-67"></path>
        <linearGradient x1="50.0020129%" y1="-70.9601407%" x2="50.0020021%" y2="94.9981808%" id="linearGradient-69">
            <stop stop-color="#8377B8" offset="0%"></stop>
            <stop stop-color="#8C54A3" offset="100%"></stop>
        </linearGradient>
    </defs>
    <g id="Page-1" stroke="none" stroke-width="1" fill="none" fill-rule="evenodd">
        <g id="19" transform="translate(1.000000, 0.000000)">
            <g id="Group-4" transform="translate(0.000000, 2.711864)">
                <mask id="mask-2" fill="white">
                    <use xlink:href="#path-1"></use>
                </mask>
                <g id="Clip-3"></g>
                <path d="M-0.219943519,0.0644067797 L-0.219943519,4.72677966 L4.42045992,4.72677966 L4.42045992,31.6684746 L-0.219943519,31.6684746 L-0.219943519,36.3308475 L18.3403209,36.3308475 L18.3403209,31.6684746 L13.184467,31.6684746 L13.184467,20.2705085 L17.8343159,20.2705085 C21.8675133,20.2705085 22.7931651,22.0257627 22.8484883,26.0237288 L22.8484883,26.0237288 L22.9024622,27.9986441 C22.9024622,34.0237288 25.4075244,36.9810169 31.0221562,36.9810169 L31.0221562,36.9810169 C35.9277063,36.9810169 38.1042026,33.6942373 39.1405009,29.3688136 L39.1405009,29.3688136 L35.9196102,28.3274576 C35.1572293,30.7918644 34.4913267,31.559322 33.7289458,31.559322 L33.7289458,31.559322 C32.6386736,31.559322 32.1279459,31.0115254 32.0186488,28.6562712 L32.0186488,28.6562712 L31.8128734,26.520678 C31.6502771,22.2481356 29.6829296,19.1810169 22.4652739,18.5783051 L22.4652739,18.5783051 L22.4652739,18.1952542 C31.2299556,17.2094915 33.6668758,13.5932203 33.6668758,9.26644068 L33.6668758,9.26644068 C33.6668758,4.72067797 30.0978537,0.0644067797 19.2518046,0.0644067797 L19.2518046,0.0644067797 L-0.219943519,0.0644067797 Z M13.184467,4.72677966 L18.2708295,4.72677966 C22.9584601,4.72677966 24.2113286,6.56474576 24.2113286,10.2901695 L24.2113286,10.2901695 C24.2113286,14.4522034 22.3580008,16.1254237 18.1075586,16.1254237 L18.1075586,16.1254237 L13.184467,16.1254237 L13.184467,4.72677966 Z" id="Fill-2" fill="url(#linearGradient-3)" mask="url(#mask-2)"></path>
            </g>
            <g id="Group-7" transform="translate(39.131055, 1.355932)">
                <mask id="mask-5" fill="white">
                    <use xlink:href="#path-4"></use>
                </mask>
                <g id="Clip-6"></g>
                <path d="M-0.167318996,-0.133559322 L-0.167318996,4.52881356 L3.95763399,4.52881356 L3.95763399,33.0244068 L-0.167318996,33.0244068 L-0.167318996,37.6867797 L14.7841176,37.6867797 L14.7841176,33.0244068 L11.6914148,33.0244068 L11.6914148,23.0013559 C11.6914148,19.3322034 14.1114682,16.7579661 16.6178798,16.7579661 L16.6178798,16.7579661 C17.7634752,16.7579661 18.6574174,17.0861017 19.2565273,17.6338983 L19.2565273,17.6338983 C20.0735568,18.4562712 20.4554219,19.8250847 20.4554219,21.5227119 L20.4554219,21.5227119 L20.4554219,33.0244068 L17.3627192,33.0244068 L17.3627192,37.6867797 L31.7980306,37.6867797 L31.7980306,33.0244068 L28.1898774,33.0244068 L28.1898774,20.4277966 C28.1898774,15.1145763 25.9364684,11.3905085 20.4311337,11.3905085 L20.4311337,11.3905085 C16.2893138,11.3905085 13.7532166,13.800678 11.6914148,17.6888136 L11.6914148,17.6888136 L11.6914148,-0.133559322 L-0.167318996,-0.133559322 Z" id="Fill-5" fill="url(#linearGradient-6)" mask="url(#mask-5)"></path>
            </g>
            <g id="Group-10" transform="translate(71.515377, 12.881356)">
                <mask id="mask-8" fill="white">
                    <use xlink:href="#path-7"></use>
                </mask>
                <g id="Clip-9"></g>
                <path d="M0.126838594,13.4847458 C0.126838594,21.3728814 5.30428203,26.6684746 13.8065158,26.6684746 L13.8065158,26.6684746 C20.9465841,26.6684746 24.5446172,23.0528814 25.5249176,17.8718644 L25.5249176,17.8718644 L21.273126,17.8718644 C20.1295547,20.980339 18.2209037,22.2752542 15.1693561,22.2752542 L15.1693561,22.2752542 C11.1361586,22.2752542 8.73769481,20.4630508 8.41182758,14.2454237 L8.41182758,14.2454237 L25.7974856,14.2454237 C26.1786761,5.9559322 22.1454787,-0.183050847 13.5346225,-0.183050847 L13.5346225,-0.183050847 C5.84941812,-0.183050847 0.126838594,5.70847458 0.126838594,13.4847458 M13.3706768,3.33491525 C16.3142768,3.33491525 17.7310908,5.4379661 18.0036589,10.6189831 L18.0036589,10.6189831 L8.46580145,10.6189831 C8.79301803,5.4379661 10.5370487,3.33491525 13.3706768,3.33491525" id="Fill-8" fill="url(#linearGradient-9)" mask="url(#mask-8)"></path>
            </g>
            <g id="Group-13" transform="translate(97.152965, 12.881356)">
                <mask id="mask-11" fill="white">
                    <use xlink:href="#path-10"></use>
                </mask>
                <g id="Clip-12"></g>
                <path d="M16.569978,0.256949153 L16.569978,4.92 L20.1781311,4.92 L20.1781311,14.9267797 C20.1781311,18.6508475 17.9044819,21.2250847 15.4520442,21.2250847 L15.4520442,21.2250847 C14.3071235,21.2250847 13.5595854,20.8420339 13.0684232,20.3484746 L13.0684232,20.3484746 C12.2507191,19.4725424 11.9295745,18.1579661 11.9295745,16.460339 L11.9295745,16.460339 L11.9295745,0.256949153 L0.0715153772,0.256949153 L0.0715153772,4.92 L4.19579369,4.92 L4.19579369,17.5552542 C4.19579369,22.8135593 6.25827018,26.5369492 11.6543078,26.5369492 L11.6543078,26.5369492 C16.2866152,26.5369492 19.1472302,23.5810169 20.6942563,19.3084746 L20.6942563,19.3084746 L20.6942563,26.1613559 L32.0375396,26.1613559 L32.0375396,21.4989831 L28.4280371,21.4989831 L28.4280371,0.256949153 L16.569978,0.256949153 Z" id="Fill-11" fill="url(#linearGradient-12)" mask="url(#mask-11)"></path>
            </g>
            <g id="Group-16" transform="translate(131.561307, 12.881356)">
                <mask id="mask-14" fill="white">
                    <use xlink:href="#path-13"></use>
                </mask>
                <g id="Clip-15"></g>
                <path d="M26.7858821,6.65627119 C26.2407461,2.43932203 23.9664221,-0.134915254 19.6060081,-0.134915254 L19.6060081,-0.134915254 C15.1916203,-0.134915254 12.5799597,2.82237288 10.5181578,7.14983051 L10.5181578,7.14983051 L10.5181578,0.256949153 L-0.309000403,0.256949153 L-0.309000403,4.92 L3.29982745,4.92 L3.29982745,21.4989831 L-0.309000403,21.4989831 L-0.309000403,26.1613559 L13.6108606,26.1613559 L13.6108606,21.4989831 L11.0336083,21.4989831 L11.0336083,11.4759322 C11.0336083,7.80677966 13.4644564,5.23254237 15.7536232,5.23254237 L15.7536232,5.23254237 C16.7339236,5.23254237 17.584012,5.50644068 18.0744996,6.05423729 L18.0744996,6.05423729 C18.8928784,6.8759322 19.2828396,8.24474576 19.2828396,9.99728814 L19.2828396,9.99728814 L19.2828396,21.4989831 L16.7049126,21.4989831 L16.7049126,26.1613559 L29.5945474,26.1613559 L29.5945474,21.4989831 L27.0166204,21.4989831 L27.0166204,11.4759322 C27.0166204,7.80677966 29.456914,5.23254237 31.7474301,5.23254237 L31.7474301,5.23254237 C32.7817044,5.23254237 33.5872644,5.50644068 34.1330751,6.05423729 L34.1330751,6.05423729 C34.9501046,6.8759322 35.2658517,8.24474576 35.2658517,9.99728814 L35.2658517,9.99728814 L35.2658517,21.4989831 L32.6879248,21.4989831 L32.6879248,26.1613559 L47.1239109,26.1613559 L47.1239109,21.4989831 L42.9989579,21.4989831 L42.9989579,8.90237288 C42.9989579,3.58915254 40.9425535,-0.134915254 35.6018391,-0.134915254 L35.6018391,-0.134915254 C31.3500475,-0.134915254 28.6392099,2.54915254 26.7858821,6.65627119" id="Fill-14" fill="url(#linearGradient-15)" mask="url(#mask-14)"></path>
            </g>
            <g id="Group-19" transform="translate(180.137790, 12.881356)">
                <mask id="mask-17" fill="white">
                    <use xlink:href="#path-16"></use>
                </mask>
                <g id="Clip-18"></g>
                <path d="M0.943193371,6.82033898 C0.943193371,8.84677966 2.30400956,10.6549153 5.08501319,10.6549153 L5.08501319,10.6549153 C7.31953139,10.6549153 8.95156627,9.17559322 8.95156627,7.25898305 L8.95156627,7.25898305 C8.95156627,5.99932203 8.45500667,5.06779661 7.63797722,4.46576271 L7.63797722,4.46576271 C8.67360084,4.02779661 9.80705211,3.80813559 10.8959749,3.80813559 L10.8959749,3.80813559 C14.0574943,3.80813559 15.5613413,5.01355932 15.5613413,8.29966102 L15.5613413,8.29966102 L15.5613413,10.5450847 C15.5613413,11.2020339 15.3110375,11.2569492 12.3134637,11.6949153 L12.3134637,11.6949153 C6.04574807,12.5166102 3.45162896,13.6122034 1.76292152,15.3098305 L1.76292152,15.3098305 C0.617326134,16.460339 -0.036432362,18.0488136 -0.036432362,19.7464407 L-0.036432362,19.7464407 C-0.036432362,23.9084746 3.23370946,26.4705085 7.75806908,26.4705085 L7.75806908,26.4705085 C11.5180238,26.4705085 14.5702461,25.1254237 16.2056543,20.980339 L16.2056543,20.980339 L16.4782224,20.980339 C16.9140614,25.1254237 19.356379,26.4705085 22.4639245,26.4705085 L22.4639245,26.4705085 C26.1152568,26.4705085 28.1230848,24.620339 29.157359,20.4027119 L29.157359,20.4027119 L26.4674363,19.5274576 C25.9769488,21.3898305 25.3366837,21.9918644 24.7375738,21.9918644 L24.7375738,21.9918644 C23.8658958,21.9918644 23.2957968,21.7179661 23.2957968,20.4583051 L23.2957968,20.4583051 L23.2957968,8.79186441 C23.2957968,3.48 20.6490532,-0.134915254 12.9638488,-0.134915254 L12.9638488,-0.134915254 C6.69680787,-0.134915254 0.943193371,2.11050847 0.943193371,6.82033898 M8.07381622,18.5966102 C8.07381622,16.1315254 9.26124135,14.8718644 13.1304931,14.2149153 L13.1304931,14.2149153 C14.4933333,13.9410169 15.0458908,13.8861017 15.5613413,13.7762712 L15.5613413,13.7762712 L15.5613413,16.2969492 C15.5613413,19.5816949 13.888826,21.8820339 11.4363883,21.8820339 L11.4363883,21.8820339 C9.03792446,21.8820339 8.07381622,20.3484746 8.07381622,18.5966102" id="Fill-17" fill="url(#linearGradient-18)" mask="url(#mask-17)"></path>
            </g>
            <g id="Group-22" transform="translate(207.124725, 6.779661)">
                <mask id="mask-20" fill="white">
                    <use xlink:href="#path-19"></use>
                </mask>
                <g id="Clip-21"></g>
                <path d="M4.55741861,0.763389831 L4.55741861,6.87661017 L-0.0829848245,6.87661017 L-0.0829848245,11.0216949 L4.04196816,11.0216949 L4.04196816,23.9308475 C4.04196816,29.7918644 6.89718586,32.6942373 12.4564944,32.6942373 L12.4564944,32.6942373 C17.579964,32.6942373 20.3805332,30.0101695 21.5801024,23.7661017 L21.5801024,23.7661017 L18.3140086,22.8359322 C17.3323589,26.3952542 16.5787487,27.6555932 14.9440151,27.6555932 L14.9440151,27.6555932 C13.0906874,27.6555932 12.2911995,26.3410169 12.2911995,23.9857627 L12.2911995,23.9857627 L12.2911995,11.0216949 L20.5411054,11.0216949 L20.5411054,6.87661017 L12.2911995,6.87661017 L12.2911995,-0.167457627 L4.55741861,0.763389831 Z" id="Fill-20" fill="url(#linearGradient-21)" mask="url(#mask-20)"></path>
            </g>
            <g id="Group-25" transform="translate(229.388946, 12.881356)">
                <mask id="mask-23" fill="white">
                    <use xlink:href="#path-22"></use>
                </mask>
                <g id="Clip-24"></g>
                <path d="M0.0539738696,13.3376271 C0.0539738696,21.28 5.72257952,26.5925424 13.8422735,26.5925424 L13.8422735,26.5925424 C21.6914235,26.5925424 27.6325972,21.0061017 27.6325972,13.0644068 L27.6325972,13.0644068 C27.6325972,5.17762712 21.9646662,-0.190508475 13.8982714,-0.190508475 L13.8982714,-0.190508475 C5.99447289,-0.190508475 0.0539738696,5.45152542 0.0539738696,13.3376271 M8.77480185,13.2284746 C8.77480185,6.32745763 10.2455898,3.53423729 13.6796772,3.53423729 L13.6796772,3.53423729 C17.2223871,3.53423729 18.9117692,6.27322034 18.9117692,13.1735593 L18.9117692,13.1735593 C18.9117692,20.0745763 17.4949552,22.8684746 14.0068938,22.8684746 L14.0068938,22.8684746 C10.5188325,22.8684746 8.77480185,20.1837288 8.77480185,13.2284746" id="Fill-23" fill="url(#linearGradient-24)" mask="url(#mask-23)"></path>
            </g>
            <g id="Group-28" transform="translate(258.399901, 0.000000)">
                <mask id="mask-26" fill="white">
                    <use xlink:href="#path-25"></use>
                </mask>
                <g id="Clip-27"></g>
                <path d="M2.4220774,4.96949153 C2.4220774,7.65220339 4.32937901,9.51525424 7.27230425,9.51525424 L7.27230425,9.51525424 C10.1619303,9.51525424 12.1778543,7.48813559 12.1778543,4.80474576 L12.1778543,4.80474576 C12.1778543,2.17627119 10.2165788,0.204067797 7.27230425,0.204067797 L7.27230425,0.204067797 C4.38335288,0.204067797 2.4220774,2.28542373 2.4220774,4.96949153 L2.4220774,4.96949153 Z M-0.315747137,13.1383051 L-0.315747137,17.8013559 L3.80920585,17.8013559 L3.80920585,34.380339 L-0.315747137,34.380339 L-0.315747137,39.0427119 L15.667265,39.0427119 L15.667265,34.380339 L11.542312,34.380339 L11.542312,13.1383051 L-0.315747137,13.1383051 Z" id="Fill-26" fill="url(#linearGradient-27)" mask="url(#mask-26)"></path>
            </g>
            <g id="Group-31" transform="translate(274.592062, 1.355932)">
                <mask id="mask-29" fill="white">
                    <use xlink:href="#path-28"></use>
                </mask>
                <g id="Clip-30"></g>
                <path d="M14.4265407,-0.133559322 L14.4265407,4.52881356 L18.0353685,4.52881356 L18.0353685,15.7166102 C16.4890172,13.1430508 14.128335,11.3349153 10.4770028,11.3349153 L10.4770028,11.3349153 C7.75199702,11.3349153 5.58697018,12.3213559 3.89758806,14.0745763 L3.89758806,14.0745763 C1.55377277,16.3749153 0.191607237,20.2623729 0.191607237,24.8630508 L0.191607237,24.8630508 C0.191607237,29.2447458 1.33652795,33.079322 3.67966856,35.4338983 L3.67966856,35.4338983 C5.31507681,37.0779661 7.38227601,38.1179661 10.1619303,38.1179661 L10.1619303,38.1179661 C14.3044248,38.1179661 17.0044676,35.7627119 18.550819,32.2027119 L18.550819,32.2027119 L18.550819,37.6867797 L29.8934277,37.6867797 L29.8934277,33.0244068 L26.2852745,33.0244068 L26.2852745,-0.133559322 L14.4265407,-0.133559322 Z M8.74983893,24.9186441 C8.74983893,19.2223729 10.2746008,16.1559322 13.6000658,16.1559322 L13.6000658,16.1559322 C17.2507234,16.1559322 18.7781839,19.9342373 18.7781839,24.7538983 L18.7781839,24.7538983 C18.7781839,29.7932203 16.7609105,33.4074576 13.6000658,33.4074576 L13.6000658,33.4074576 C10.3832232,33.4074576 8.74983893,30.4501695 8.74983893,24.9186441 L8.74983893,24.9186441 Z" id="Fill-29" fill="url(#linearGradient-30)" mask="url(#mask-29)"></path>
            </g>
            <g id="Group-34" transform="translate(305.627037, 2.711864)">
                <mask id="mask-32" fill="white">
                    <use xlink:href="#path-31"></use>
                </mask>
                <g id="Clip-33"></g>
                <path d="M15.4864525,0.0644067797 L3.93132173,31.6684746 L-0.109971759,31.6684746 L-0.109971759,36.3308475 L13.8105639,36.3308475 L13.8105639,31.6684746 L9.2727108,31.6684746 L11.5618775,24.9335593 L23.8254154,24.9335593 L26.1145821,31.6684746 L21.0288943,31.6684746 L21.0288943,36.3308475 L40.1046091,36.3308475 L40.1046091,31.6684746 L35.8170599,31.6684746 L24.4245253,0.0644067797 L15.4864525,0.0644067797 Z M17.6663222,6.8 L17.883567,6.8 L22.4086013,20.2705085 L13.0333402,20.2705085 L17.6663222,6.8 Z" id="Fill-32" fill="url(#linearGradient-33)" mask="url(#mask-32)"></path>
            </g>
            <g id="Group-37" transform="translate(348.131459, 12.881356)">
                <mask id="mask-35" fill="white">
                    <use xlink:href="#path-34"></use>
                </mask>
                <g id="Clip-36"></g>
                <path d="M10.4904962,6.98508475 L10.4904962,0.256949153 L-0.336662012,0.256949153 L-0.336662012,4.92 L3.27216584,4.92 L3.27216584,21.4989831 L-0.336662012,21.4989831 L-0.336662012,26.1613559 L16.1618006,26.1613559 L16.1618006,21.4989831 L11.0059467,21.4989831 L11.0059467,10.2162712 C12.0368476,7.04 13.8159613,5.39728814 15.2874239,5.28745763 L15.2874239,5.28745763 C15.2874239,5.45152542 15.3191335,5.61627119 15.3191335,5.72542373 L15.3191335,5.72542373 C15.3191335,8.24474576 17.1603172,9.61423729 19.5574316,9.61423729 L19.5574316,9.61423729 C21.9012469,9.61423729 23.782911,7.64271186 23.782911,4.90440678 L23.782911,4.90440678 C23.782911,2.22033898 21.7130131,-0.134915254 18.5514937,-0.134915254 L18.5514937,-0.134915254 C15.0634323,-0.134915254 12.0368476,2.22033898 10.4904962,6.98508475" id="Fill-35" fill="url(#linearGradient-36)" mask="url(#mask-35)"></path>
            </g>
            <g id="Group-40" transform="translate(372.419700, 6.779661)">
                <mask id="mask-38" fill="white">
                    <use xlink:href="#path-37"></use>
                </mask>
                <g id="Clip-39"></g>
                <path d="M4.76251932,0.763389831 L4.76251932,6.87661017 L0.122790553,6.87661017 L0.122790553,11.0216949 L4.76251932,11.0216949 L4.76251932,23.9308475 C4.76251932,29.7918644 7.43355119,32.6942373 12.9928598,32.6942373 L12.9928598,32.6942373 C18.1163293,32.6942373 20.7327127,30.0101695 21.9316072,23.7661017 L21.9316072,23.7661017 L18.6459479,22.8359322 C17.6642982,26.3952542 16.8675089,27.6555932 15.23345,27.6555932 L15.23345,27.6555932 C13.3801223,27.6555932 12.4963002,26.3410169 12.4963002,23.9857627 L12.4963002,23.9857627 L12.4963002,11.0216949 L20.7462061,11.0216949 L20.7462061,6.87661017 L12.4963002,6.87661017 L12.4963002,-0.167457627 L4.76251932,0.763389831 Z" id="Fill-38" fill="url(#linearGradient-39)" mask="url(#mask-38)"></path>
            </g>
            <g id="Group-43" transform="translate(395.358595, 1.355932)">
                <mask id="mask-41" fill="white">
                    <use xlink:href="#path-40"></use>
                </mask>
                <g id="Clip-42"></g>
                <path d="M-0.130886634,-0.133559322 L-0.130886634,4.52881356 L3.4786159,4.52881356 L3.4786159,33.0244068 L-0.130886634,33.0244068 L-0.130886634,37.6867797 L14.3057741,37.6867797 L14.3057741,33.0244068 L11.7271725,33.0244068 L11.7271725,23.0013559 C11.7271725,19.3322034 13.9772082,16.7579661 16.4842944,16.7579661 L16.4842944,16.7579661 C17.6292152,16.7579661 18.3517903,17.0861017 18.951575,17.6338983 L18.951575,17.6338983 C19.7692791,18.4562712 19.9764038,19.8250847 19.9764038,21.5227119 L19.9764038,21.5227119 L19.9764038,33.0244068 L17.3984769,33.0244068 L17.3984769,37.6867797 L31.8351376,37.6867797 L31.8351376,33.0244068 L28.2256351,33.0244068 L28.2256351,20.4277966 C28.2256351,15.1145763 25.9715514,11.3905085 20.467566,11.3905085 L20.467566,11.3905085 C16.3257462,11.3905085 13.789649,13.800678 11.7271725,17.6888136 L11.7271725,17.6888136 L11.7271725,-0.133559322 L-0.130886634,-0.133559322 Z" id="Fill-41" fill="url(#linearGradient-42)" mask="url(#mask-41)"></path>
            </g>
            <g id="Group-46" transform="translate(428.417590, 12.881356)">
                <mask id="mask-44" fill="white">
                    <use xlink:href="#path-43"></use>
                </mask>
                <g id="Clip-45"></g>
                <path d="M11.6657772,6.98508475 L11.6657772,0.256949153 L0.322493871,0.256949153 L0.322493871,4.92 L3.9319964,4.92 L3.9319964,21.4989831 L0.322493871,21.4989831 L0.322493871,26.1613559 L16.8209565,26.1613559 L16.8209565,21.4989831 L12.180553,21.4989831 L12.180553,10.2162712 C13.2114539,7.04 14.8799212,5.39728814 16.3500344,5.28745763 L16.3500344,5.28745763 C16.3500344,5.45152542 16.270423,5.61627119 16.270423,5.72542373 L16.270423,5.72542373 C16.270423,8.24474576 18.1251001,9.61423729 20.5222146,9.61423729 L20.5222146,9.61423729 C22.8660299,9.61423729 24.7780542,7.64271186 24.7780542,4.90440678 L24.7780542,4.90440678 C24.7780542,2.22033898 22.7682022,-0.134915254 19.6073575,-0.134915254 L19.6073575,-0.134915254 C16.1192962,-0.134915254 13.2114539,2.22033898 11.6657772,6.98508475" id="Fill-44" fill="url(#linearGradient-45)" mask="url(#mask-44)"></path>
            </g>
            <g id="Group-49" transform="translate(454.729851, 0.000000)">
                <mask id="mask-47" fill="white">
                    <use xlink:href="#path-46"></use>
                </mask>
                <g id="Clip-48"></g>
                <path d="M2.90446886,4.96949153 C2.90446886,7.65220339 4.8110958,9.51525424 7.75469571,9.51525424 L7.75469571,9.51525424 C10.6436471,9.51525424 12.6595711,7.48813559 12.6595711,4.80474576 L12.6595711,4.80474576 C12.6595711,2.17627119 10.6982956,0.204067797 7.75469571,0.204067797 L7.75469571,0.204067797 C4.86506967,0.204067797 2.90446886,2.28542373 2.90446886,4.96949153 L2.90446886,4.96949153 Z M-0.210498091,13.1383051 L-0.210498091,17.8013559 L3.91378022,17.8013559 L3.91378022,34.380339 L-0.210498091,34.380339 L-0.210498091,39.0427119 L16.2879645,39.0427119 L16.2879645,34.380339 L12.1630115,34.380339 L12.1630115,13.1383051 L-0.210498091,13.1383051 Z" id="Fill-47" fill="url(#linearGradient-48)" mask="url(#mask-47)"></path>
            </g>
            <g id="Group-52" transform="translate(470.247339, 6.779661)">
                <mask id="mask-50" fill="white">
                    <use xlink:href="#path-49"></use>
                </mask>
                <g id="Clip-51"></g>
                <path d="M5.41020575,0.763389831 L5.41020575,6.87661017 L0.25435186,6.87661017 L0.25435186,11.0216949 L4.8947553,11.0216949 L4.8947553,23.9308475 C4.8947553,29.7918644 7.69532446,32.6942373 13.254633,32.6942373 L13.254633,32.6942373 C18.3781026,32.6942373 21.1233485,30.0101695 22.3222431,23.7661017 L22.3222431,23.7661017 L19.0723415,22.8359322 C18.0913664,26.3952542 17.3687912,27.6555932 15.7340577,27.6555932 L15.7340577,27.6555932 C13.8800552,27.6555932 13.1439866,26.3410169 13.1439866,23.9857627 L13.1439866,23.9857627 L13.1439866,11.0216949 L21.3938926,11.0216949 L21.3938926,6.87661017 L13.1439866,6.87661017 L13.1439866,-0.167457627 L5.41020575,0.763389831 Z" id="Fill-50" fill="url(#linearGradient-51)" mask="url(#mask-50)"></path>
            </g>
            <g id="Group-55" transform="translate(494.535580, 0.000000)">
                <mask id="mask-53" fill="white">
                    <use xlink:href="#path-52"></use>
                </mask>
                <g id="Clip-54"></g>
                <path d="M2.32559911,4.96949153 C2.32559911,7.65220339 4.23290072,9.51525424 7.17582596,9.51525424 L7.17582596,9.51525424 C10.065452,9.51525424 12.081376,7.48813559 12.081376,4.80474576 L12.081376,4.80474576 C12.081376,2.17627119 10.1194259,0.204067797 7.17582596,0.204067797 L7.17582596,0.204067797 C4.28687459,0.204067797 2.32559911,2.28542373 2.32559911,4.96949153 L2.32559911,4.96949153 Z M-0.317771157,13.1383051 L-0.317771157,17.8013559 L3.8078565,17.8013559 L3.8078565,34.380339 L-0.317771157,34.380339 L-0.317771157,39.0427119 L15.6659157,39.0427119 L15.6659157,34.380339 L11.5416373,34.380339 L11.5416373,13.1383051 L-0.317771157,13.1383051 Z" id="Fill-53" fill="url(#linearGradient-54)" mask="url(#mask-53)"></path>
            </g>
            <g id="Group-58" transform="translate(512.077088, 12.881356)">
                <mask id="mask-56" fill="white">
                    <use xlink:href="#path-55"></use>
                </mask>
                <g id="Clip-57"></g>
                <path d="M17.9267461,-0.261016949 L17.0550681,2.90033898 C15.4736337,0.983050847 13.0751699,-0.182372881 9.75105422,-0.182372881 L9.75105422,-0.182372881 C4.08244856,-0.182372881 0.485764826,3.60474576 0.485764826,8.09559322 L0.485764826,8.09559322 C0.485764826,12.6962712 3.48266394,14.6827119 9.58643391,16.2705085 L9.58643391,16.2705085 C14.6559296,17.5844068 16.0727437,18.3810169 16.0727437,20.3538983 L16.0727437,20.3538983 C16.0727437,21.9410169 15.0377947,23.0413559 12.748628,23.0413559 L12.748628,23.0413559 C9.64175713,23.0413559 6.53488626,20.4630508 4.29969339,17.3532203 L4.29969339,17.3532203 L0.186884523,17.3532203 L0.186884523,26.68 L4.29969339,26.68 L5.17272073,23.1559322 C6.8074543,25.0176271 9.4778115,26.5877966 13.457035,26.5877966 L13.457035,26.5877966 C19.6707768,26.5877966 23.1035149,22.5857627 23.1035149,18.1498305 L23.1035149,18.1498305 C23.1035149,13.0562712 19.3442349,11.239322 13.7842516,9.76135593 L13.7842516,9.76135593 C8.93335009,8.50101695 7.46188747,7.77288136 7.46188747,5.91050847 L7.46188747,5.91050847 C7.46188747,4.43186441 8.55148496,3.41152542 10.6773808,3.41152542 L10.6773808,3.41152542 C13.4023865,3.41152542 16.0180951,5.4379661 17.9813947,8.54644068 L17.9813947,8.54644068 L22.3566515,8.54644068 L22.3566515,-0.261016949 L17.9267461,-0.261016949 Z" id="Fill-56" fill="url(#linearGradient-57)" mask="url(#mask-56)"></path>
            </g>
            <g id="Group-61" transform="translate(537.714676, 29.830508)">
                <mask id="mask-59" fill="white">
                    <use xlink:href="#path-58"></use>
                </mask>
                <g id="Clip-60"></g>
                <path d="M-0.129537287,5.20610169 C-0.129537287,7.89016949 1.9963585,10.0264407 4.72136424,10.0264407 L4.72136424,10.0264407 C7.50101853,10.0264407 9.62623964,7.83525424 9.62623964,5.15186441 L9.62623964,5.15186441 C9.62623964,2.46915254 7.50101853,0.33220339 4.77601279,0.33220339 L4.77601279,0.33220339 C1.9963585,0.33220339 -0.129537287,2.46915254 -0.129537287,5.20610169" id="Fill-59" fill="url(#linearGradient-60)" mask="url(#mask-59)"></path>
            </g>
            <g id="Group-64" transform="translate(550.533470, 12.881356)">
                <mask id="mask-62" fill="white">
                    <use xlink:href="#path-61"></use>
                </mask>
                <g id="Clip-63"></g>
                <path d="M10.7097651,7.14983051 L10.7097651,0.256949153 L-0.117393166,0.256949153 L-0.117393166,4.92 L3.49210936,4.92 L3.49210936,21.4989831 L-0.117393166,21.4989831 L-0.117393166,26.1613559 L14.3192676,26.1613559 L14.3192676,21.4989831 L11.2258902,21.4989831 L11.2258902,11.4759322 C11.2258902,7.80677966 13.6567384,5.23254237 16.2184731,5.23254237 L16.2184731,5.23254237 C17.3080706,5.23254237 18.2121329,5.56067797 18.8112429,6.10847458 L18.8112429,6.10847458 C19.628947,6.93084746 19.9912466,8.29966102 19.9912466,9.99728814 L19.9912466,9.99728814 L19.9912466,21.4989831 L16.8965199,21.4989831 L16.8965199,26.1613559 L31.3331806,26.1613559 L31.3331806,21.4989831 L27.7243528,21.4989831 L27.7243528,8.90237288 C27.7243528,3.58915254 25.4587996,-0.134915254 19.9534649,-0.134915254 L19.9534649,-0.134915254 C15.2671837,-0.134915254 12.7729162,2.82237288 10.7097651,7.14983051" id="Fill-62" fill="url(#linearGradient-63)" mask="url(#mask-62)"></path>
            </g>
            <g id="Group-67" transform="translate(582.243118, 12.881356)">
                <mask id="mask-65" fill="white">
                    <use xlink:href="#path-64"></use>
                </mask>
                <g id="Clip-66"></g>
                <path d="M-0.138308041,13.4847458 C-0.138308041,21.3728814 5.0391354,26.6684746 13.5420439,26.6684746 L13.5420439,26.6684746 C20.6821122,26.6684746 24.2781212,23.0528814 25.2604456,17.8718644 L25.2604456,17.8718644 L21.0086541,17.8718644 C19.8637334,20.980339 17.9564317,22.2752542 14.9042094,22.2752542 L14.9042094,22.2752542 C10.871012,22.2752542 8.47322285,20.4630508 8.1453316,14.2454237 L8.1453316,14.2454237 L25.532339,14.2454237 C25.9142041,5.9559322 21.8810067,-0.183050847 13.2688012,-0.183050847 L13.2688012,-0.183050847 C5.58427148,-0.183050847 -0.138308041,5.70847458 -0.138308041,13.4847458 M13.1062049,3.33491525 C16.0491301,3.33491525 17.4666189,5.4379661 17.7385122,10.6189831 L17.7385122,10.6189831 L8.19930547,10.6189831 C8.52719672,5.4379661 10.2712274,3.33491525 13.1062049,3.33491525" id="Fill-65" fill="url(#linearGradient-66)" mask="url(#mask-65)"></path>
            </g>
            <g id="Group-70" transform="translate(607.880706, 6.779661)">
                <mask id="mask-68" fill="white">
                    <use xlink:href="#path-67"></use>
                </mask>
                <g id="Clip-69"></g>
                <path d="M4.92039289,0.763389831 L4.92039289,6.87661017 L0.279989449,6.87661017 L0.279989449,11.0216949 L4.92039289,11.0216949 L4.92039289,23.9308475 C4.92039289,29.7918644 7.61908637,32.6942373 13.1777203,32.6942373 L13.1777203,32.6942373 C18.3011898,32.6942373 20.9445601,30.0101695 22.1434547,23.7661017 L22.1434547,23.7661017 L18.8496993,22.8359322 C17.8687242,26.3952542 17.0564175,27.6555932 15.4216839,27.6555932 L15.4216839,27.6555932 C13.5690308,27.6555932 12.6541737,26.3410169 12.6541737,23.9857627 L12.6541737,23.9857627 L12.6541737,11.0216949 L20.903405,11.0216949 L20.903405,6.87661017 L12.6541737,6.87661017 L12.6541737,-0.167457627 L4.92039289,0.763389831 Z" id="Fill-68" fill="url(#linearGradient-69)" mask="url(#mask-68)"></path>
            </g>
        </g>
    </g>
</svg>