<?xml version="1.0" encoding="UTF-8"?>
<svg width="446px" height="41px" viewBox="0 0 446 41" version="1.1" xmlns="http://www.w3.org/2000/svg" xmlns:xlink="http://www.w3.org/1999/xlink">
    <!-- Generator: Sketch 49.3 (51167) - http://www.bohemiancoding.com/sketch -->
    <title>2</title>
    <desc>Created with Sketch.</desc>
    <defs>
        <linearGradient x1="49.9987925%" y1="-0.00050159675%" x2="49.9987925%" y2="100.002006%" id="linearGradient-1">
            <stop stop-color="#FF7663" offset="0%"></stop>
            <stop stop-color="#FF705F" offset="16.79%"></stop>
            <stop stop-color="#FF574C" offset="100%"></stop>
        </linearGradient>
        <linearGradient x1="50.0005621%" y1="0.00271948508%" x2="50.0005621%" y2="100.004758%" id="linearGradient-2">
            <stop stop-color="#FF7663" offset="0%"></stop>
            <stop stop-color="#FF705F" offset="16.79%"></stop>
            <stop stop-color="#FF574C" offset="100%"></stop>
        </linearGradient>
        <linearGradient x1="49.9992755%" y1="0%" x2="49.9992755%" y2="100.00189%" id="linearGradient-3">
            <stop stop-color="#FF7663" offset="0%"></stop>
            <stop stop-color="#FF705F" offset="16.79%"></stop>
            <stop stop-color="#FF574C" offset="100%"></stop>
        </linearGradient>
        <linearGradient x1="50.0008137%" y1="-0.000363656199%" x2="50.0008137%" y2="99.9998182%" id="linearGradient-4">
            <stop stop-color="#FF7663" offset="0%"></stop>
            <stop stop-color="#FF705F" offset="16.79%"></stop>
            <stop stop-color="#FF574C" offset="100%"></stop>
        </linearGradient>
        <linearGradient x1="49.9977515%" y1="0.000308880309%" x2="49.9977515%" y2="100.001853%" id="linearGradient-5">
            <stop stop-color="#FF7663" offset="0%"></stop>
            <stop stop-color="#FF705F" offset="16.79%"></stop>
            <stop stop-color="#FF574C" offset="100%"></stop>
        </linearGradient>
        <linearGradient x1="50%" y1="-0.000682908507%" x2="50%" y2="100.001537%" id="linearGradient-6">
            <stop stop-color="#FF7663" offset="0%"></stop>
            <stop stop-color="#FF705F" offset="16.79%"></stop>
            <stop stop-color="#FF574C" offset="100%"></stop>
        </linearGradient>
        <linearGradient x1="50.0020766%" y1="-0.00223788743%" x2="50.0020766%" y2="100%" id="linearGradient-7">
            <stop stop-color="#FF7663" offset="0%"></stop>
            <stop stop-color="#FF705F" offset="16.79%"></stop>
            <stop stop-color="#FF574C" offset="100%"></stop>
        </linearGradient>
        <linearGradient x1="49.9991959%" y1="0.000316270538%" x2="49.9991959%" y2="100%" id="linearGradient-8">
            <stop stop-color="#FF7663" offset="0%"></stop>
            <stop stop-color="#FF705F" offset="16.79%"></stop>
            <stop stop-color="#FF574C" offset="100%"></stop>
        </linearGradient>
        <linearGradient x1="49.9995287%" y1="-0.000892618049%" x2="49.9995287%" y2="99.9982148%" id="linearGradient-9">
            <stop stop-color="#FF7663" offset="0%"></stop>
            <stop stop-color="#FF705F" offset="16.79%"></stop>
            <stop stop-color="#FF574C" offset="100%"></stop>
        </linearGradient>
        <linearGradient x1="50.0036227%" y1="0%" x2="50.0036227%" y2="100.00189%" id="linearGradient-10">
            <stop stop-color="#FF7663" offset="0%"></stop>
            <stop stop-color="#FF705F" offset="16.79%"></stop>
            <stop stop-color="#FF574C" offset="100%"></stop>
        </linearGradient>
        <linearGradient x1="50.0006001%" y1="-0.00223788743%" x2="50.0006001%" y2="100%" id="linearGradient-11">
            <stop stop-color="#FF7663" offset="0%"></stop>
            <stop stop-color="#FF705F" offset="16.79%"></stop>
            <stop stop-color="#FF574C" offset="100%"></stop>
        </linearGradient>
        <linearGradient x1="50.002175%" y1="0.00228519196%" x2="50.002175%" y2="100.002742%" id="linearGradient-12">
            <stop stop-color="#FF7663" offset="0%"></stop>
            <stop stop-color="#FF705F" offset="16.79%"></stop>
            <stop stop-color="#FF574C" offset="100%"></stop>
        </linearGradient>
        <linearGradient x1="50%" y1="-0.000892418901%" x2="50%" y2="99.9997769%" id="linearGradient-13">
            <stop stop-color="#FF7663" offset="0%"></stop>
            <stop stop-color="#FF705F" offset="16.79%"></stop>
            <stop stop-color="#FF574C" offset="100%"></stop>
        </linearGradient>
        <linearGradient x1="49.9984305%" y1="-0.00223194358%" x2="49.9984305%" y2="99.9982144%" id="linearGradient-14">
            <stop stop-color="#FF7663" offset="0%"></stop>
            <stop stop-color="#FF705F" offset="16.79%"></stop>
            <stop stop-color="#FF574C" offset="100%"></stop>
        </linearGradient>
        <linearGradient x1="50.0037473%" y1="0.000308880309%" x2="50.0037473%" y2="100.001853%" id="linearGradient-15">
            <stop stop-color="#FF7663" offset="0%"></stop>
            <stop stop-color="#FF705F" offset="16.79%"></stop>
            <stop stop-color="#FF574C" offset="100%"></stop>
        </linearGradient>
        <linearGradient x1="49.9994818%" y1="-0.00223194358%" x2="49.9994818%" y2="99.9982144%" id="linearGradient-16">
            <stop stop-color="#FF7663" offset="0%"></stop>
            <stop stop-color="#FF705F" offset="16.79%"></stop>
            <stop stop-color="#FF574C" offset="100%"></stop>
        </linearGradient>
        <linearGradient x1="50.0024381%" y1="-0.00369822485%" x2="50.0024381%" y2="100%" id="linearGradient-17">
            <stop stop-color="#FF7663" offset="0%"></stop>
            <stop stop-color="#FF705F" offset="16.79%"></stop>
            <stop stop-color="#FF574C" offset="100%"></stop>
        </linearGradient>
        <linearGradient x1="50.0003684%" y1="-6.49490618e-14%" x2="50.0003684%" y2="100.000457%" id="linearGradient-18">
            <stop stop-color="#FF7663" offset="0%"></stop>
            <stop stop-color="#FF705F" offset="16.79%"></stop>
            <stop stop-color="#FF574C" offset="100%"></stop>
        </linearGradient>
        <linearGradient x1="50.0007196%" y1="-0.00223788743%" x2="50.0007196%" y2="100%" id="linearGradient-19">
            <stop stop-color="#FF7663" offset="0%"></stop>
            <stop stop-color="#FF705F" offset="16.79%"></stop>
            <stop stop-color="#FF574C" offset="100%"></stop>
        </linearGradient>
        <linearGradient x1="49.9972922%" y1="-0.000363656199%" x2="49.9972922%" y2="99.9998182%" id="linearGradient-20">
            <stop stop-color="#FF7663" offset="0%"></stop>
            <stop stop-color="#FF705F" offset="16.79%"></stop>
            <stop stop-color="#FF574C" offset="100%"></stop>
        </linearGradient>
    </defs>
    <g id="Page-1" stroke="none" stroke-width="1" fill="none" fill-rule="evenodd">
        <g id="2" transform="translate(0.000000, 0.633039)">
            <polygon id="Shape" fill="url(#linearGradient-1)" points="0.283689965 28.1279012 3.94085605 28.1279012 3.94085605 6.31703704 0.283689965 6.31703704 0.283689965 2.68197531 14.6321422 2.68197531 21.0993791 20.8577778 21.2355105 20.8577778 27.2928626 2.68197531 41.4286716 2.68197531 41.4286716 6.31703704 37.313925 6.31703704 37.313925 28.1279012 41.4286716 28.1279012 41.4286716 32.217284 26.3419299 32.217284 26.3419299 28.1279012 29.999096 28.1279012 29.999096 7.22567901 29.6145495 7.22567901 20.7799173 32.217284 17.7283871 32.217284 8.57528687 7.22567901 8.05560263 7.22567901 8.05560263 28.1279012 12.1698524 28.1279012 12.1698524 32.217284 0.283689965 32.217284"></polygon>
            <path d="M45.0853408,25.2276543 L45.0853408,14.9501235 L41.8852584,14.9501235 L41.8852584,10.8602469 L51.4855057,10.8602469 L51.4855057,24.3219753 C51.4855057,25.7264198 51.8357709,26.8123457 52.5189122,27.5367901 C52.928797,27.9437037 53.7242219,28.2607407 54.680123,28.2607407 C56.729547,28.2607407 58.7998378,26.1323457 58.7998378,23.0548148 L58.7998378,14.9501235 L55.5997554,14.9501235 L55.5997554,10.8602469 L65.2000027,10.8602469 L65.2000027,28.5817284 L68.4000851,28.5817284 L68.4000851,32.2167901 L59.2569215,32.2167901 L59.2569215,26.6750617 C57.42809,30.2064198 55.381647,32.6508642 51.5103472,32.6508642 C47.002608,32.6518519 45.0853408,29.5738272 45.0853408,25.2276543 L45.0853408,25.2276543 Z" id="Shape" fill="url(#linearGradient-2)"></path>
            <polygon id="Shape" fill="url(#linearGradient-3)" points="69.7718329 28.5822222 73.428999 28.5822222 73.428999 4.95358025 69.7718329 4.95358025 69.7718329 0.864197531 80.2867444 0.864197531 80.2867444 28.5822222 83.4868268 28.5822222 83.4868268 32.217284 69.7723298 32.217284 69.7723298 28.5822222"></polygon>
            <path d="M93.0870741,5.5382716 L93.0870741,11.3155556 L99.9443226,11.3155556 L99.9443226,14.9506173 L93.0870741,14.9506173 L93.0870741,25.5002469 C93.0870741,27.4464198 93.7786615,28.5328395 95.326784,28.5328395 C96.6930667,28.5328395 97.3349711,27.4923457 98.1547407,24.5501235 L100.888797,25.3195062 C99.8871871,30.4795062 97.5441366,32.697284 93.2634488,32.697284 C88.6180877,32.697284 86.2293287,30.2987654 86.2293287,25.454321 L86.2293287,14.9506173 L82.5721627,14.9506173 L82.5721627,11.3155556 L86.6864124,11.3155556 L86.6864124,6.30814815 L93.0870741,5.5382716 L93.0870741,5.5382716 Z" id="Shape" fill="url(#linearGradient-4)"></path>
            <path d="M102.230238,28.5822222 L105.43032,28.5822222 L105.43032,14.9506173 L102.230238,14.9506173 L102.230238,10.8607407 L112.288065,10.8607407 L112.288065,28.5822222 L115.488148,28.5822222 L115.488148,32.217284 L102.230238,32.217284 L102.230238,28.5822222 L102.230238,28.5822222 Z M104.466967,4.18024691 C104.466967,1.96246914 106.106506,0.241975309 108.519609,0.241975309 C110.978918,0.241975309 112.618954,1.87111111 112.618954,4.04444444 C112.618954,6.26222222 110.933707,7.93777778 108.519609,7.93777778 C106.060797,7.93777778 104.466967,6.39851852 104.466967,4.18024691 L104.466967,4.18024691 Z" id="Shape" fill="url(#linearGradient-5)"></path>
            <path d="M115.487651,35.8528395 L118.687734,35.8528395 L118.687734,14.9506173 L115.487651,14.9506173 L115.487651,10.8607407 L125.087898,10.8607407 L125.087898,16.0395062 C126.459149,12.6898765 128.689916,10.562963 132.196543,10.562963 C134.427807,10.562963 136.16075,11.422716 137.526039,12.7807407 C139.48504,14.7269136 140.441935,17.7145679 140.441935,21.2908642 C140.441935,25.0019753 139.349902,27.9446914 137.437106,29.8454321 C135.888984,31.3841975 134.13269,32.2439506 131.946637,32.2439506 C128.804187,32.2439506 126.459149,30.7506173 125.544982,28.7130864 L125.544982,35.8528395 L129.202148,35.8528395 L129.202148,39.4879012 L115.487651,39.4879012 L115.487651,35.8528395 L115.487651,35.8528395 Z M133.247835,21.3807407 C133.247835,16.9901235 132.018678,14.7723457 129.467952,14.7723457 C126.8273,14.7723457 125.096344,17.8953086 125.096344,21.7881481 C125.096344,25.5906173 126.508336,28.5787654 129.558872,28.5787654 C132.109598,28.5787654 133.247835,26.0439506 133.247835,21.3807407 L133.247835,21.3807407 Z" id="Shape" fill="url(#linearGradient-6)"></path>
            <polygon id="Shape" fill="url(#linearGradient-3)" points="141.088311 28.5822222 144.745477 28.5822222 144.745477 4.95358025 141.088311 4.95358025 141.088311 0.864197531 151.146138 0.864197531 151.146138 28.5822222 154.803304 28.5822222 154.803304 32.217284 141.088311 32.217284"></polygon>
            <path d="M161.782276,22.6755556 C162.05603,27.6740741 164.059248,29.1767901 167.42875,29.1767901 C169.978979,29.1767901 171.573306,28.1283951 172.529207,25.4019753 L176.081542,25.4019753 C175.26227,29.945679 172.256448,32.7160494 166.290015,32.7160494 C159.186339,32.7160494 154.86044,28.3609877 154.86044,21.842963 C154.86044,15.4158025 159.641932,10.6493827 166.062964,10.6493827 C173.25756,10.6493827 176.628055,15.8597531 176.30909,22.6760494 L161.782276,22.6760494 L161.782276,22.6755556 Z M161.827985,19.494321 L169.797636,19.494321 C169.569591,15.4049383 168.385645,13.4745679 165.926336,13.4745679 C163.558941,13.4745679 162.101738,14.9506173 161.827985,19.494321 L161.827985,19.494321 Z" id="Shape" fill="url(#linearGradient-7)"></path>
            <path d="M179.032713,21.7664198 L182.982512,21.7664198 C184.940519,26.7649383 187.445039,29.1777778 192.27224,29.1777778 C195.505114,29.1777778 197.326989,27.6108642 197.326989,25.257284 C197.326989,22.4953086 194.275956,21.8251852 189.721515,20.6933333 C184.804388,19.5165432 179.248337,17.8454321 179.248337,11.1916049 C179.248337,5.66962963 183.938413,1.73432099 189.76772,1.73432099 C193.046798,1.73432099 195.869787,2.93037037 197.418903,5.01283951 L198.374307,1.77283951 L202.347954,1.77283951 L202.347954,12.2241975 L198.374307,12.2241975 C196.462008,7.68 194.230744,5.39604938 190.359941,5.39604938 C187.308908,5.39604938 185.669369,7.20987654 185.669369,9.24691358 C185.669369,12.2340741 188.993659,12.9382716 193.502392,14.0241975 C198.374804,15.2009877 203.749015,16.797037 203.749015,23.2696296 C203.749015,28.9279012 199.240779,32.9624691 192.72833,32.9624691 C188.993659,32.9624691 185.71458,31.3244444 184.030326,29.2414815 L182.9373,32.6720988 L179.03321,32.6720988 L179.03321,21.7664198 L179.032713,21.7664198 Z" id="Shape" fill="url(#linearGradient-8)"></path>
            <path d="M205.666779,22.0148148 C205.666779,15.1797531 210.493483,10.562963 217.415816,10.562963 C223.563591,10.562963 226.706041,14.2291358 226.706041,17.442963 C226.706041,19.7066667 225.431176,21.3358025 223.062787,21.3358025 C220.830529,21.3358025 219.64708,19.8419753 219.64708,18.1219753 C219.64708,16.6735802 220.603478,15.6320988 221.559379,15.2706173 C220.92294,14.4558025 219.829913,13.8222222 218.053746,13.8222222 C215.048421,13.8222222 212.816163,16.628642 212.816163,21.517037 C212.816163,25.9525926 214.637542,28.8449383 218.189877,28.8449383 C220.649186,28.8449383 222.334434,27.2202469 223.199415,24.9476543 L226.751253,24.9476543 C225.749147,29.4918519 222.561485,32.6923457 217.187274,32.6923457 C209.947467,32.6918519 205.666779,28.3965432 205.666779,22.0148148 L205.666779,22.0148148 Z" id="Shape" fill="url(#linearGradient-9)"></path>
            <polygon id="Shape" fill="url(#linearGradient-10)" points="227.49153 28.5822222 231.148696 28.5822222 231.148696 4.95358025 227.49153 4.95358025 227.49153 0.864197531 237.549358 0.864197531 237.549358 28.5822222 241.20553 28.5822222 241.20553 32.217284 227.491033 32.217284 227.491033 28.5822222"></polygon>
            <path d="M248.711639,22.6755556 C248.985392,27.6740741 250.989108,29.1767901 254.358112,29.1767901 C256.908341,29.1767901 258.503662,28.1283951 259.45857,25.4019753 L263.010905,25.4019753 C262.191135,29.945679 259.18581,32.7160494 253.219875,32.7160494 C246.115701,32.7160494 241.789802,28.3609877 241.789802,21.842963 C241.789802,15.4158025 246.571791,10.6493827 252.992823,10.6493827 C260.186923,10.6493827 263.557418,15.8597531 263.23895,22.6760494 L248.711639,22.6760494 L248.711639,22.6755556 Z M248.757347,19.494321 L256.726998,19.494321 C256.498953,15.4049383 255.315007,13.4745679 252.856195,13.4745679 C250.487309,13.4745679 249.030107,14.9506173 248.757347,19.494321 L248.757347,19.494321 Z" id="Shape" fill="url(#linearGradient-11)"></path>
            <path d="M264.520771,28.5822222 L267.720854,28.5822222 L267.720854,14.9506173 L264.520771,14.9506173 L264.520771,10.8607407 L274.120522,10.8607407 L274.120522,16.4918519 C275.492766,12.5540741 277.84476,10.6074074 280.758668,10.6074074 C283.399817,10.6074074 285.079599,12.5535802 285.079599,14.7718519 C285.079599,17.0350617 283.48229,18.6641975 281.52329,18.6641975 C279.521561,18.6641975 277.970955,17.5323457 277.970955,15.4508642 C277.970955,15.36 278.051441,15.2246914 278.051441,15.0888889 C276.820793,15.1797531 275.492766,16.537284 274.578599,19.162963 L274.578599,28.5822222 L278.692849,28.5822222 L278.692849,32.217284 L264.520771,32.217284 L264.520771,28.5822222 L264.520771,28.5822222 Z" id="Shape" fill="url(#linearGradient-12)"></path>
            <path d="M285.189895,21.7432099 C285.189895,15.2246914 290.153228,10.562963 296.756596,10.562963 C303.496593,10.562963 308.23337,14.9985185 308.23337,21.5165432 C308.23337,28.0804938 303.269045,32.697284 296.712378,32.697284 C289.925183,32.6967901 285.189895,28.3066667 285.189895,21.7432099 L285.189895,21.7432099 Z M300.946861,21.6064198 C300.946861,15.9037037 299.53487,13.6404938 296.575253,13.6404938 C293.706059,13.6404938 292.475411,15.948642 292.475411,21.6528395 C292.475411,27.4004938 293.933111,29.6192593 296.847019,29.6192593 C299.761921,29.6192593 300.946861,27.3111111 300.946861,21.6064198 L300.946861,21.6064198 Z" id="Shape" fill="url(#linearGradient-13)"></path>
            <path d="M310.237086,24.9471605 L313.518152,24.9471605 C315.386233,27.6735802 317.980679,29.705679 320.576617,29.705679 C322.489412,29.705679 323.35489,28.8251852 323.35489,27.5125926 C323.35489,25.882963 322.170944,25.2390123 317.935468,24.1525926 C312.836004,22.8395062 310.33049,21.2044444 310.33049,17.402963 C310.33049,13.691358 313.335815,10.5654321 318.071103,10.5654321 C320.85037,10.5654321 322.854086,11.7091358 324.17466,13.2938272 L324.902516,10.8612346 L328.52391,10.8612346 L328.52391,17.677037 L324.948224,17.677037 C323.309182,15.4049383 321.124123,13.4864198 318.845661,13.4864198 C317.070984,13.4864198 316.159797,14.3560494 316.159797,15.5777778 C316.159797,17.117037 317.389452,17.7328395 321.442591,18.774321 C326.087952,19.9955556 329.229906,21.5032099 329.229906,25.7130864 C329.229906,29.3792593 326.360712,32.6908642 321.169832,32.6908642 C317.845542,32.6908642 315.613284,31.3466667 314.247995,29.8069136 L313.518152,32.6725926 L310.237086,32.6725926 L310.237086,24.9471605 L310.237086,24.9471605 Z" id="Shape" fill="url(#linearGradient-14)"></path>
            <path d="M331.722999,28.5822222 L334.923081,28.5822222 L334.923081,14.9506173 L331.722999,14.9506173 L331.722999,10.8607407 L341.780827,10.8607407 L341.780827,28.5822222 L344.980909,28.5822222 L344.980909,32.217284 L331.722502,32.217284 L331.722502,28.5822222 L331.722999,28.5822222 Z M333.991028,4.18024691 C333.991028,1.96246914 335.630071,0.241975309 338.043174,0.241975309 C340.50298,0.241975309 342.143016,1.87111111 342.143016,4.04444444 C342.143016,6.26222222 340.457271,7.93777778 338.043174,7.93777778 C335.585356,7.93777778 333.991028,6.39851852 333.991028,4.18024691 L333.991028,4.18024691 Z" id="Shape" fill="url(#linearGradient-15)"></path>
            <path d="M347.266327,24.9471605 L350.728736,24.9471605 C352.595824,27.6735802 355.191264,29.705679 357.787201,29.705679 C359.699997,29.705679 360.565475,28.8251852 360.565475,27.5125926 C360.565475,25.882963 359.381529,25.2390123 355.146052,24.1525926 C350.045595,22.8395062 347.541075,21.2044444 347.541075,17.402963 C347.541075,13.691358 350.5464,10.5654321 355.282681,10.5654321 C358.060954,10.5654321 360.063676,11.7091358 361.384251,13.2938272 L362.1131,10.8612346 L365.553152,10.8612346 L365.553152,17.677037 L362.158809,17.677037 C360.519766,15.4049383 358.334708,13.4864198 356.056245,13.4864198 C354.281568,13.4864198 353.370382,14.3560494 353.370382,15.5777778 C353.370382,17.117037 354.600036,17.7328395 358.653176,18.774321 C363.297543,19.9955556 366.44049,21.5032099 366.44049,25.7130864 C366.44049,29.3792593 363.571296,32.6908642 358.379422,32.6908642 C355.055132,32.6908642 352.823869,31.3466667 351.457586,29.8069136 L350.728736,32.6725926 L347.266327,32.6725926 L347.266327,24.9471605 L347.266327,24.9471605 Z" id="Shape" fill="url(#linearGradient-16)"></path>
            <path d="M367.9906,29.0311111 C367.9906,26.7679012 369.767264,25.0019753 372.089448,25.0019753 C374.365923,25.0019753 376.141594,26.7679012 376.141594,28.985679 C376.141594,31.202963 374.365923,33.0138272 372.04374,33.0138272 C369.767264,33.0138272 367.9906,31.2483951 367.9906,29.0311111 L367.9906,29.0311111 Z" id="Shape" fill="url(#linearGradient-17)"></path>
            <path d="M378.353481,28.5822222 L381.553564,28.5822222 L381.553564,14.9506173 L378.353481,14.9506173 L378.353481,10.8607407 L387.954225,10.8607407 L387.954225,16.6281481 C389.325476,13.0523457 391.73858,10.6079012 395.654098,10.6079012 C400.254744,10.6079012 402.126303,13.6859259 402.126303,18.0765432 L402.126303,28.582716 L405.325392,28.582716 L405.325392,32.2177778 L392.982642,32.2177778 L392.982642,28.582716 L395.269054,28.582716 L395.269054,18.9822222 C395.269054,17.5787654 395.089699,16.4469136 394.406557,15.7679012 C393.904759,15.3155556 393.321481,15.0439506 392.411288,15.0439506 C390.270447,15.0439506 388.411309,17.171358 388.411309,20.2044444 L388.411309,28.582716 L390.697721,28.582716 L390.697721,32.2177778 L378.353481,32.2177778 L378.353481,28.5822222 L378.353481,28.5822222 Z" id="Shape" fill="url(#linearGradient-18)"></path>
            <path d="M412.514026,22.6755556 C412.787779,27.6740741 414.791495,29.1767901 418.161493,29.1767901 C420.711722,29.1767901 422.305056,28.1283951 423.262944,25.4019753 L426.814286,25.4019753 C425.993522,29.945679 422.988197,32.7160494 417.023256,32.7160494 C409.919082,32.7160494 405.592189,28.3609877 405.592189,21.842963 C405.592189,15.4158025 410.373185,10.6493827 416.795211,10.6493827 C423.990303,10.6493827 427.360799,15.8597531 427.040343,22.6760494 L412.514026,22.6760494 L412.514026,22.6755556 Z M412.559734,19.494321 L420.529385,19.494321 C420.302334,15.4049383 419.117394,13.4745679 416.658582,13.4745679 C414.291187,13.4745679 412.833488,14.9506173 412.559734,19.494321 L412.559734,19.494321 Z" id="Shape" fill="url(#linearGradient-19)"></path>
            <path d="M437.78479,5.5382716 L437.78479,11.3155556 L444.642535,11.3155556 L444.642535,14.9506173 L437.78479,14.9506173 L437.78479,25.5002469 C437.78479,27.4464198 438.494263,28.5328395 440.043876,28.5328395 C441.409165,28.5328395 442.059516,27.4923457 442.879286,24.5501235 L445.618807,25.3195062 C444.617197,30.4795062 442.486293,32.697284 438.206102,32.697284 C433.560741,32.697284 431.384625,30.2987654 431.384625,25.454321 L431.384625,14.9506173 L427.270376,14.9506173 L427.270376,11.3155556 L431.384625,11.3155556 L431.384625,6.30814815 L437.78479,5.5382716 L437.78479,5.5382716 Z" id="Shape" fill="url(#linearGradient-20)"></path>
        </g>
    </g>
</svg>