<?xml version="1.0" encoding="UTF-8"?>
<svg width="500px" height="35px" viewBox="0 0 500 35" version="1.1" xmlns="http://www.w3.org/2000/svg" xmlns:xlink="http://www.w3.org/1999/xlink">
    <!-- Generator: Sketch 49.2 (51160) - http://www.bohemiancoding.com/sketch -->
    <title>masthead</title>
    <desc>Created with Sketch.</desc>
    <defs>
        <linearGradient x1="50%" y1="0%" x2="50%" y2="145.902877%" id="linearGradient-1">
            <stop stop-color="#4D80C2" offset="0%"></stop>
            <stop stop-color="#3662B1" offset="100%"></stop>
        </linearGradient>
    </defs>
    <g id="Page-1" stroke="none" stroke-width="1" fill="none" fill-rule="evenodd">
        <g id="alzheimersdisease.net" transform="translate(-56.000000, -143.000000)" fill="url(#linearGradient-1)">
            <g id="masthead" transform="translate(56.000000, 143.000000)">
                <path d="M22.5532307,29.1920731 L18.3627557,29.1920731 L18.3627557,33.2883802 L34.6067318,33.2883802 L34.6067318,29.1920731 L30.9341807,29.1920731 L21.093627,2.1187795 L13.3718528,2.1187795 L3.3900472,29.1920731 L0,29.1920731 L0,33.2883802 L11.9122492,33.2883802 L11.9122492,29.1920731 L8.00427811,29.1920731 L9.98180565,23.4007425 L20.5757031,23.4007425 L22.5532307,29.1920731 Z M15.2552124,8.09844609 L15.4435484,8.09844609 L19.3515194,19.6811074 L11.2530733,19.6811074 L15.2552124,8.09844609 Z M36.5833143,33.2883802 L50.6614269,33.2883802 L50.6614269,29.3804091 L47.0830438,29.3804091 L47.0830438,0.800427811 L36.5833143,0.800427811 L36.5833143,4.80256687 L40.1616974,4.80256687 L40.1616974,29.3804091 L36.5833143,29.3804091 L36.5833143,33.2883802 Z M52.4981751,33.2883802 L73.2622142,33.2883802 L73.2622142,24.0599183 L70.1075869,24.0599183 C68.7421512,29.568745 67.8004715,30.0395849 64.9754321,30.0395849 L60.1257813,30.0395849 L73.0738782,14.5018686 L73.0738782,11.2530733 L52.969015,11.2530733 L52.969015,20.0577793 L56.1236422,20.0577793 C57.5361619,14.9256245 58.3836737,14.4547846 61.302881,14.4547846 L65.399188,14.4547846 L52.4981751,30.0395849 L52.4981751,33.2883802 Z M75.0989623,33.2883802 L87.6703873,33.2883802 L87.6703873,29.3804091 L85.2220199,29.3804091 L85.2220199,20.7640391 C85.2220199,17.6094118 87.2466314,15.3964644 89.4124949,15.3964644 C90.4012587,15.3964644 91.1075185,15.6789683 91.6254424,16.1498082 C92.3317022,16.856068 92.6142062,18.0331677 92.6142062,19.4927714 L92.6142062,29.3804091 L90.1187548,29.3804091 L90.1187548,33.2883802 L102.69018,33.2883802 L102.69018,29.3804091 L99.5355525,29.3804091 L99.5355525,18.5510916 C99.5355525,13.9839447 97.558025,10.7822335 92.8025421,10.7822335 C89.224159,10.7822335 86.9170435,12.853929 85.2220199,16.1968922 L85.2220199,0.800427811 L75.0989623,0.800427811 L75.0989623,4.80256687 L78.3006735,4.80256687 L78.3006735,29.3804091 L75.0989623,29.3804091 L75.0989623,33.2883802 Z M125.480248,23.1653225 C125.809836,16.0085562 122.325621,10.7351495 114.886351,10.7351495 C108.247508,10.7351495 103.303689,15.7731363 103.303689,22.4590627 C103.303689,29.2391571 107.776668,33.75922 115.121771,33.75922 C121.289773,33.75922 124.397316,30.7458448 125.244828,26.1316138 L121.572277,26.1316138 C120.583513,28.9095692 118.935574,29.9925009 116.29887,29.9925009 C112.814655,29.9925009 110.74296,28.2974773 110.460456,23.1653225 L125.480248,23.1653225 Z M114.745099,13.9368607 C117.287634,13.9368607 118.511818,15.7260523 118.747238,20.1990312 L110.50754,20.1990312 C110.790044,15.4906323 112.296731,13.9368607 114.745099,13.9368607 L114.745099,13.9368607 Z M133.580112,8.00427811 C136.075563,8.00427811 137.817671,6.26217052 137.817671,3.95505507 C137.817671,1.6950236 136.122647,0 133.580112,0 C131.08466,0 129.389637,1.78919158 129.389637,4.09630703 C129.389637,6.40342249 131.037576,8.00427811 133.580112,8.00427811 L133.580112,8.00427811 Z M126.894185,33.2883802 L140.925214,33.2883802 L140.925214,29.3804091 L137.346831,29.3804091 L137.346831,11.2530733 L126.894185,11.2530733 L126.894185,15.1610444 L130.472569,15.1610444 L130.472569,29.3804091 L126.894185,29.3804091 L126.894185,33.2883802 Z M166.256873,16.6206481 C165.786033,12.9951809 163.808505,10.7822335 160.041786,10.7822335 C156.227983,10.7822335 153.8267,13.3247689 152.272928,17.044404 L152.272928,11.2530733 L142.573626,11.2530733 L142.573626,15.1610444 L145.822422,15.1610444 L145.822422,29.3804091 L142.573626,29.3804091 L142.573626,33.2883802 L154.956715,33.2883802 L154.956715,29.3804091 L152.696684,29.3804091 L152.696684,20.7640391 C152.696684,17.6094118 154.721295,15.3964644 156.698823,15.3964644 C157.546335,15.3964644 158.205511,15.6318843 158.629267,16.1027242 C159.335526,16.808984 159.665114,17.9860838 159.665114,19.4927714 L159.665114,29.3804091 L157.310915,29.3804091 L157.310915,33.2883802 L168.799408,33.2883802 L168.799408,29.3804091 L166.539377,29.3804091 L166.539377,20.7640391 C166.539377,17.6094118 168.563988,15.3964644 170.541516,15.3964644 C171.436111,15.3964644 172.048203,15.6318843 172.519043,16.1027242 C173.225303,16.808984 173.507807,17.9860838 173.507807,19.4927714 L173.507807,29.3804091 L171.153608,29.3804091 L171.153608,33.2883802 L183.583781,33.2883802 L183.583781,29.3804091 L180.382069,29.3804091 L180.382069,18.5510916 C180.382069,13.9839447 178.49871,10.7822335 173.884479,10.7822335 C170.211928,10.7822335 167.857728,13.0893489 166.256873,16.6206481 L166.256873,16.6206481 Z M206.373849,23.1653225 C206.703437,16.0085562 203.219222,10.7351495 195.779951,10.7351495 C189.141109,10.7351495 184.19729,15.7731363 184.19729,22.4590627 C184.19729,29.2391571 188.670269,33.75922 196.015371,33.75922 C202.183374,33.75922 205.290917,30.7458448 206.138429,26.1316138 L202.465878,26.1316138 C201.477114,28.9095692 199.829174,29.9925009 197.192471,29.9925009 C193.708256,29.9925009 191.63656,28.2974773 191.354056,23.1653225 L206.373849,23.1653225 Z M195.638699,13.9368607 C198.181235,13.9368607 199.405419,15.7260523 199.640839,20.1990312 L191.40114,20.1990312 C191.683644,15.4906323 193.190332,13.9368607 195.638699,13.9368607 L195.638699,13.9368607 Z M208.163986,33.2883802 L222.38335,33.2883802 L222.38335,29.3804091 L218.287043,29.3804091 L218.287043,19.6811074 C219.087471,16.950236 220.641243,15.5377163 221.91251,15.4435484 C221.91251,15.5848003 221.865426,15.7260523 221.865426,15.8202203 C221.865426,17.9860838 223.466282,19.1631835 225.537978,19.1631835 C227.562589,19.1631835 229.210529,17.4681599 229.210529,15.1139604 C229.210529,12.806845 227.468421,10.7822335 224.73755,10.7822335 C221.724174,10.7822335 219.181639,12.806845 217.863287,16.903152 L217.863287,11.2530733 L208.163986,11.2530733 L208.163986,15.1610444 L211.412781,15.1610444 L211.412781,29.3804091 L208.163986,29.3804091 L208.163986,33.2883802 Z M230.293933,33.7121361 L233.9194,33.7121361 L234.672744,30.7458448 C236.085264,32.3467004 238.392379,33.75922 241.82951,33.75922 C247.197085,33.75922 250.163376,30.3220889 250.163376,26.5082858 C250.163376,22.1294748 246.914581,20.5757031 242.112014,19.3044354 C237.921539,18.2215037 236.650271,17.6094118 236.650271,16.0085562 C236.650271,14.7372885 237.591951,13.8897767 239.428227,13.8897767 C241.782426,13.8897767 244.042458,15.7260523 245.737481,18.3627557 L249.362948,18.3627557 L249.362948,10.8293174 L245.690397,10.8293174 L244.937054,13.4660208 C243.571618,11.8180812 241.499922,10.7351495 238.627799,10.7351495 C233.731064,10.7351495 230.623521,13.9839447 230.623521,17.8448318 C230.623521,21.7998869 233.21314,23.4949105 238.486547,24.8603461 C242.865358,25.9903619 244.089542,26.6495377 244.089542,28.3445613 C244.089542,29.709997 243.194946,30.6045928 241.217418,30.6045928 C238.533631,30.6045928 235.849844,28.5799813 233.9194,25.61369 L230.293933,25.61369 L230.293933,33.7121361 Z M252.18846,33.2883802 L266.360741,33.2883802 C278.837998,33.2883802 284.582245,26.7437057 284.582245,17.6094118 C284.582245,8.42803401 278.649662,2.30711546 266.078237,2.30711546 L252.18846,2.30711546 L252.18846,6.40342249 L256.426019,6.40342249 L256.426019,29.1920731 L252.18846,29.1920731 L252.18846,33.2883802 Z M264.10071,29.2862411 L264.10071,6.30925451 L266.454909,6.30925451 C273.470423,6.30925451 276.201295,9.46388177 276.201295,17.6564958 C276.201295,26.3199498 273.611675,29.2862411 266.784497,29.2862411 L264.10071,29.2862411 Z M293.011696,8.00427811 C295.507148,8.00427811 297.249255,6.26217052 297.249255,3.95505507 C297.249255,1.6950236 295.554232,0 293.011696,0 C290.516245,0 288.821221,1.78919158 288.821221,4.09630703 C288.821221,6.40342249 290.469161,8.00427811 293.011696,8.00427811 L293.011696,8.00427811 Z M286.32577,33.2883802 L300.356799,33.2883802 L300.356799,29.3804091 L296.778416,29.3804091 L296.778416,11.2530733 L286.32577,11.2530733 L286.32577,15.1610444 L289.904153,15.1610444 L289.904153,29.3804091 L286.32577,29.3804091 L286.32577,33.2883802 Z M301.817347,33.7121361 L305.442815,33.7121361 L306.196158,30.7458448 C307.608678,32.3467004 309.915794,33.75922 313.352925,33.75922 C318.720499,33.75922 321.686791,30.3220889 321.686791,26.5082858 C321.686791,22.1294748 318.437996,20.5757031 313.635429,19.3044354 C309.444954,18.2215037 308.173686,17.6094118 308.173686,16.0085562 C308.173686,14.7372885 309.115366,13.8897767 310.951641,13.8897767 C313.305841,13.8897767 315.565872,15.7260523 317.260896,18.3627557 L320.886363,18.3627557 L320.886363,10.8293174 L317.213812,10.8293174 L316.460468,13.4660208 C315.095032,11.8180812 313.023337,10.7351495 310.151213,10.7351495 C305.254479,10.7351495 302.146935,13.9839447 302.146935,17.8448318 C302.146935,21.7998869 304.736555,23.4949105 310.009962,24.8603461 C314.388772,25.9903619 315.612956,26.6495377 315.612956,28.3445613 C315.612956,29.709997 314.71836,30.6045928 312.740833,30.6045928 C310.057046,30.6045928 307.373258,28.5799813 305.442815,25.61369 L301.817347,25.61369 L301.817347,33.7121361 Z M345.935518,23.1653225 C346.265106,16.0085562 342.78089,10.7351495 335.34162,10.7351495 C328.702778,10.7351495 323.758959,15.7731363 323.758959,22.4590627 C323.758959,29.2391571 328.231938,33.75922 335.57704,33.75922 C341.745043,33.75922 344.852586,30.7458448 345.700098,26.1316138 L342.027547,26.1316138 C341.038783,28.9095692 339.390843,29.9925009 336.75414,29.9925009 C333.269925,29.9925009 331.198229,28.2974773 330.915725,23.1653225 L345.935518,23.1653225 Z M335.200368,13.9368607 C337.742904,13.9368607 338.967087,15.7260523 339.202507,20.1990312 L330.962809,20.1990312 C331.245313,15.4906323 332.752001,13.9368607 335.200368,13.9368607 L335.200368,13.9368607 Z M354.458665,33.7121361 C357.70746,33.7121361 360.344163,32.3937844 361.756683,29.0508212 L361.992103,29.0508212 C362.368775,32.2996164 364.487554,33.7121361 367.171342,33.7121361 C370.325969,33.7121361 372.068077,32.0641964 372.962672,28.4387293 L370.655557,27.6853855 C370.231801,29.2862411 369.713877,29.804165 369.195953,29.804165 C368.442609,29.804165 368.018854,29.568745 368.018854,28.4858133 L368.018854,18.4569236 C368.018854,13.8897767 365.664654,10.7822335 359.025812,10.7822335 C353.611153,10.7822335 348.573166,12.712677 348.573166,16.7619 C348.573166,18.5040076 349.750266,20.0577793 352.151549,20.0577793 C354.081993,20.0577793 355.494512,18.7865116 355.494512,17.138572 C355.494512,16.0556402 355.070757,15.2552124 354.364497,14.7372885 C355.259093,14.3606166 356.247856,14.1722807 357.189536,14.1722807 C359.920407,14.1722807 361.238759,15.2081284 361.238759,18.0331677 L361.238759,19.9636113 C361.238759,20.5286192 361.003339,20.5757031 358.41372,20.9523751 C352.999061,21.6586349 350.73903,22.6003147 349.279426,24.0599183 C348.290662,25.0486821 347.725654,26.4141178 347.725654,27.8737214 C347.725654,31.4521046 350.550694,33.7121361 354.458665,33.7121361 L354.458665,33.7121361 Z M357.660376,29.709997 C355.58868,29.709997 354.741169,28.3916453 354.741169,26.8849577 C354.741169,24.7661782 355.777016,23.6832464 359.11998,23.1182386 C360.297079,22.8828186 360.815003,22.8357346 361.238759,22.7415666 L361.238759,24.9074301 C361.238759,27.7324695 359.779155,29.709997 357.660376,29.709997 L357.660376,29.709997 Z M373.810184,33.7121361 L377.435651,33.7121361 L378.188995,30.7458448 C379.601515,32.3467004 381.90863,33.75922 385.345761,33.75922 C390.713336,33.75922 393.679627,30.3220889 393.679627,26.5082858 C393.679627,22.1294748 390.430832,20.5757031 385.628265,19.3044354 C381.43779,18.2215037 380.166523,17.6094118 380.166523,16.0085562 C380.166523,14.7372885 381.108202,13.8897767 382.944478,13.8897767 C385.298677,13.8897767 387.558709,15.7260523 389.253733,18.3627557 L392.8792,18.3627557 L392.8792,10.8293174 L389.206649,10.8293174 L388.453305,13.4660208 C387.087869,11.8180812 385.016174,10.7351495 382.14405,10.7351495 C377.247315,10.7351495 374.139772,13.9839447 374.139772,17.8448318 C374.139772,21.7998869 376.729391,23.4949105 382.002798,24.8603461 C386.381609,25.9903619 387.605793,26.6495377 387.605793,28.3445613 C387.605793,29.709997 386.711197,30.6045928 384.73367,30.6045928 C382.049882,30.6045928 379.366095,28.5799813 377.435651,25.61369 L373.810184,25.61369 L373.810184,33.7121361 Z M417.928354,23.1653225 C418.257942,16.0085562 414.773727,10.7351495 407.334457,10.7351495 C400.695614,10.7351495 395.751796,15.7731363 395.751796,22.4590627 C395.751796,29.2391571 400.224774,33.75922 407.569877,33.75922 C413.737879,33.75922 416.845423,30.7458448 417.692934,26.1316138 L414.020383,26.1316138 C413.031619,28.9095692 411.38368,29.9925009 408.746976,29.9925009 C405.262761,29.9925009 403.191066,28.2974773 402.908562,23.1653225 L417.928354,23.1653225 Z M407.193205,13.9368607 C409.73574,13.9368607 410.959924,15.7260523 411.195344,20.1990312 L402.955646,20.1990312 C403.23815,15.4906323 404.744837,13.9368607 407.193205,13.9368607 L407.193205,13.9368607 Z M423.72063,34.088808 C426.121914,34.088808 427.958189,32.2054484 427.958189,29.898333 C427.958189,27.5912175 426.121914,25.7549419 423.767714,25.7549419 C421.366431,25.7549419 419.530155,27.5912175 419.530155,29.9454169 C419.530155,32.2525324 421.366431,34.088808 423.72063,34.088808 L423.72063,34.088808 Z M430.642449,33.2883802 L443.213874,33.2883802 L443.213874,29.3804091 L440.765507,29.3804091 L440.765507,20.7640391 C440.765507,17.6094118 442.790118,15.3964644 445.003066,15.3964644 C445.944745,15.3964644 446.651005,15.6789683 447.168929,16.1498082 C447.875189,16.856068 448.157693,18.0331677 448.157693,19.4927714 L448.157693,29.3804091 L445.662241,29.3804091 L445.662241,33.2883802 L458.233666,33.2883802 L458.233666,29.3804091 L455.079039,29.3804091 L455.079039,18.5510916 C455.079039,13.9839447 453.101512,10.7822335 448.346029,10.7822335 C444.296806,10.7822335 441.895522,13.3247689 440.341751,17.044404 L440.341751,11.2530733 L430.642449,11.2530733 L430.642449,15.1610444 L433.891244,15.1610444 L433.891244,29.3804091 L430.642449,29.3804091 L430.642449,33.2883802 Z M481.023735,23.1653225 C481.353323,16.0085562 477.869108,10.7351495 470.429837,10.7351495 C463.790995,10.7351495 458.847176,15.7731363 458.847176,22.4590627 C458.847176,29.2391571 463.320155,33.75922 470.665257,33.75922 C476.83326,33.75922 479.940803,30.7458448 480.788315,26.1316138 L477.115764,26.1316138 C476.127,28.9095692 474.47906,29.9925009 471.842357,29.9925009 C468.358142,29.9925009 466.286446,28.2974773 466.003942,23.1653225 L481.023735,23.1653225 Z M470.288585,13.9368607 C472.831121,13.9368607 474.055304,15.7260523 474.290724,20.1990312 L466.051026,20.1990312 C466.33353,15.4906323 467.840218,13.9368607 470.288585,13.9368607 L470.288585,13.9368607 Z M485.215627,6.30925451 L485.215627,11.4884933 L481.166404,11.4884933 L481.166404,15.1610444 L485.074376,15.1610444 L485.074376,26.2257818 C485.074376,31.2637686 487.428575,33.75922 492.231142,33.75922 C496.657037,33.75922 498.964152,31.4521046 500,26.0845299 L497.174961,25.284102 C496.327449,28.3445613 495.668273,29.4274931 494.255753,29.4274931 C492.654898,29.4274931 491.948638,28.2974773 491.948638,26.2728658 L491.948638,15.1610444 L499.011236,15.1610444 L499.011236,11.4884933 L491.948638,11.4884933 L491.948638,5.5088267 L485.215627,6.30925451 Z" id="AlzheimersDisease.ne"></path>
            </g>
        </g>
    </g>
</svg>