<?xml version="1.0" encoding="UTF-8"?>
<svg width="466px" height="41px" viewBox="0 0 466 41" version="1.1" xmlns="http://www.w3.org/2000/svg" xmlns:xlink="http://www.w3.org/1999/xlink">
    <!-- Generator: Sketch 49.3 (51167) - http://www.bohemiancoding.com/sketch -->
    <title>3</title>
    <desc>Created with Sketch.</desc>
    <defs>
        <linearGradient x1="50%" y1="122.879969%" x2="50%" y2="-48.3358965%" id="linearGradient-1">
            <stop stop-color="#979AED" offset="0%"></stop>
            <stop stop-color="#CA89D6" offset="100%"></stop>
        </linearGradient>
    </defs>
    <g id="Page-1" stroke="none" stroke-width="1" fill="none" fill-rule="evenodd">
        <g id="3" transform="translate(0.000000, 0.507862)" fill="url(#linearGradient-1)">
            <path d="M0,38.595208 L0,33.7384102 L5.02427368,33.7384102 L5.02427368,6.7189828 L0,6.7189828 L0,1.86218491 L18.8689389,1.86218491 C30.8155452,1.86218491 33.5509831,6.38403123 33.5509831,10.7384017 C33.5509831,14.4228691 31.0388463,18.0515112 23.6699116,19.1680165 L23.6699116,19.5587933 C31.3737979,20.3961723 34.8907894,23.5782123 34.8907894,28.4350102 C34.8907894,34.0175365 31.0388463,38.595208 19.2038905,38.595208 L0,38.595208 Z M14.1237916,17.158307 L17.8640842,17.158307 C22.8325326,17.158307 24.39564,15.036947 24.39564,11.5757807 C24.39564,8.28209017 23.0558337,6.7189828 17.9757347,6.7189828 L14.1237916,6.7189828 L14.1237916,17.158307 Z M14.1237916,33.7384102 L17.9757347,33.7384102 C23.7257368,33.7384102 25.5679705,32.1194775 25.5679705,27.5976312 C25.5679705,24.0806396 23.6140863,21.8476291 17.8640842,21.8476291 L14.1237916,21.8476291 L14.1237916,33.7384102 Z M36.962944,38.595208 L53.6546977,38.595208 L53.6546977,33.9617112 L49.4119777,33.9617112 L49.4119777,0.0757764941 L36.962944,0.0757764941 L36.962944,4.82092386 L41.205664,4.82092386 L41.205664,33.9617112 L36.962944,33.9617112 L36.962944,38.595208 Z M68.7927811,39.1534607 C60.4748169,39.1534607 54.6689896,33.7384102 54.6689896,25.643747 C54.6689896,17.6049091 60.7539433,11.854907 68.8486064,11.854907 C77.1107454,11.854907 82.9165727,17.3257828 82.9165727,25.3646207 C82.9165727,33.4592838 76.831619,39.1534607 68.7927811,39.1534607 Z M68.9602569,35.3573428 C72.5330738,35.3573428 73.9845306,32.5102544 73.9845306,25.4762712 C73.9845306,18.4422881 72.2539475,15.6510249 68.6253054,15.6510249 C65.1083138,15.6510249 63.6010317,18.4981133 63.6010317,25.5320965 C63.6010317,32.6219049 65.3874401,35.3573428 68.9602569,35.3573428 Z M99.780994,39.1534607 C91.4630298,39.1534607 85.6572024,33.7384102 85.6572024,25.643747 C85.6572024,17.6049091 91.7421561,11.854907 99.8368192,11.854907 C108.098958,11.854907 113.904786,17.3257828 113.904786,25.3646207 C113.904786,33.4592838 107.819832,39.1534607 99.780994,39.1534607 Z M99.9484698,35.3573428 C103.521287,35.3573428 104.972743,32.5102544 104.972743,25.4762712 C104.972743,18.4422881 103.24216,15.6510249 99.6135182,15.6510249 C96.0965266,15.6510249 94.5892445,18.4981133 94.5892445,25.5320965 C94.5892445,32.6219049 96.3756529,35.3573428 99.9484698,35.3573428 Z M127.094122,39.1534607 C124.247034,39.1534607 122.014024,38.0927807 120.339266,36.4180228 C117.938779,34.0175365 116.766449,30.109768 116.766449,25.643747 C116.766449,20.9544249 118.16208,16.9908312 120.562567,14.6461702 C122.29315,12.8597617 124.637811,11.854907 127.429074,11.854907 C131.169367,11.854907 133.681504,13.6971407 135.300436,16.3209281 L135.300436,4.82092386 L131.281017,4.82092386 L131.281017,0.0757764941 L143.450925,0.0757764941 L143.450925,33.9617112 L147.191217,33.9617112 L147.191217,38.595208 L135.802864,38.595208 L135.802864,33.1243323 C134.239756,36.7529744 131.336842,39.1534607 127.094122,39.1534607 Z M130.499464,34.352488 C133.737329,34.352488 135.802864,30.6680207 135.802864,25.5320965 C135.802864,20.6194733 134.239756,16.7675302 130.499464,16.7675302 C127.094122,16.7675302 125.531015,19.8937449 125.531015,25.6995723 C125.531015,31.3379238 127.205773,34.352488 130.499464,34.352488 Z M149.514299,27.2626796 L164.028868,27.2626796 L164.028868,21.6801533 L149.514299,21.6801533 L149.514299,27.2626796 Z M186.169403,39.4884123 C196.106299,39.4884123 201.52135,33.4034586 202.470379,23.9131638 L197.111154,23.9131638 C196.162125,30.0539428 192.980085,34.2408375 187.453384,34.2408375 C181.145129,34.2408375 177.293186,29.9422923 177.293186,19.8937449 C177.293186,9.39859543 180.977653,5.54665228 186.225228,5.54665228 C190.858725,5.54665228 193.984939,8.95199333 196.21795,15.7068502 L201.744651,15.7068502 L201.744651,1.08063123 L196.720377,1.08063123 L195.548047,5.32335123 C193.315036,2.58791333 189.798045,0.968980704 185.108723,0.968980704 C175.506777,0.968980704 167.356289,9.00781859 167.356289,20.4519975 C167.356289,31.7845259 174.725224,39.4884123 186.169403,39.4884123 Z M213.747083,39.0976354 C209.113586,39.0976354 205.76407,36.4180228 205.76407,32.1753028 C205.76407,30.4447196 206.433973,28.825787 207.606304,27.6534565 C209.336887,25.9228733 212.016499,24.8063681 218.436405,23.9689891 C221.506794,23.522387 221.78592,23.4665617 221.78592,22.7966586 L221.78592,20.5078228 C221.78592,17.158307 220.222813,15.9301512 216.984948,15.9301512 C215.868443,15.9301512 214.696112,16.1534523 213.635432,16.6000544 C214.472811,17.2141323 214.975238,18.1631617 214.975238,19.4471428 C214.975238,21.401027 213.30048,22.9083091 211.011645,22.9083091 C208.164556,22.9083091 206.768925,21.0660754 206.768925,19.0005407 C206.768925,14.1995681 212.742228,11.9107323 219.162133,11.9107323 C227.033495,11.9107323 229.824758,15.5951996 229.824758,21.0102502 L229.824758,32.9010312 C229.824758,34.1850123 230.327186,34.4641386 231.22039,34.4641386 C231.834468,34.4641386 232.448546,33.8500607 232.950973,31.9520017 L235.686411,32.8452059 C234.625731,37.1437512 232.560196,39.0976354 228.819904,39.0976354 C225.637864,39.0976354 223.125727,37.4228775 222.679125,33.5709344 L222.399998,33.5709344 C220.72524,37.534528 217.599026,39.0976354 213.747083,39.0976354 Z M217.5432,34.352488 C220.055337,34.352488 221.78592,32.007827 221.78592,28.6583112 L221.78592,26.0903491 C221.283493,26.2019996 220.669415,26.2578249 219.273784,26.5369512 C215.31019,27.2068544 214.082034,28.4908354 214.082034,31.0029723 C214.082034,32.7893807 215.086889,34.352488 217.5432,34.352488 Z M236.356314,38.595208 L251.261659,38.595208 L251.261659,33.9617112 L248.358746,33.9617112 L248.358746,23.7456881 C248.358746,20.0053954 250.759232,17.3816081 253.383019,17.3816081 C254.499525,17.3816081 255.336904,17.7165596 255.950981,18.2748123 C256.78836,19.1121912 257.123312,20.5078228 257.123312,22.2384059 L257.123312,33.9617112 L254.164573,33.9617112 L254.164573,38.595208 L269.069918,38.595208 L269.069918,33.9617112 L265.329626,33.9617112 L265.329626,21.1219007 C265.329626,15.7068502 262.984965,11.9107323 257.346613,11.9107323 C252.54564,11.9107323 249.698552,14.9252965 247.856318,19.3354923 L247.856318,12.4689849 L236.356314,12.4689849 L236.356314,17.1024817 L240.208257,17.1024817 L240.208257,33.9617112 L236.356314,33.9617112 L236.356314,38.595208 Z M284.257943,39.1534607 C290.845324,39.1534607 294.753092,35.2456923 295.981248,29.6073407 L291.626878,29.6073407 C290.566198,32.6219049 288.500663,34.4083133 285.486099,34.4083133 C281.131728,34.4083133 278.898718,30.8354965 278.898718,25.3646207 C278.898718,19.3354923 281.634155,15.874326 285.318623,15.874326 C287.495808,15.874326 288.835614,16.6558796 289.617168,17.6607344 C288.444838,18.1073365 287.272507,19.3913175 287.272507,21.177726 C287.272507,23.2990859 288.723964,25.1413196 291.459402,25.1413196 C294.362315,25.1413196 295.925423,23.1316102 295.925423,20.340347 C295.925423,16.3767533 292.07348,11.854907 284.537069,11.854907 C276.051629,11.854907 270.134151,17.5490838 270.134151,25.9786986 C270.134151,33.8500607 275.381726,39.1534607 284.257943,39.1534607 Z M324.704082,26.5927765 L306.895824,26.5927765 C307.230775,32.6777302 309.687087,34.6874396 313.818156,34.6874396 C316.944371,34.6874396 318.898255,33.4034586 320.070586,30.109768 L324.424956,30.109768 C323.420101,35.5806438 319.735634,39.1534607 312.422525,39.1534607 C303.713784,39.1534607 298.410384,33.7942354 298.410384,25.7553975 C298.410384,17.8282102 304.272036,11.854907 312.143398,11.854907 C320.96379,11.854907 325.094859,18.1073365 324.704082,26.5927765 Z M311.975922,15.6510249 C309.073009,15.6510249 307.2866,17.4932586 306.951649,23.0757849 L316.72107,23.0757849 C316.441944,17.7723849 314.990487,15.6510249 311.975922,15.6510249 Z M326.041297,38.595208 L326.041297,33.9617112 L329.89324,33.9617112 L329.89324,17.1024817 L326.041297,17.1024817 L326.041297,12.4689849 L337.541301,12.4689849 L337.541301,19.1680165 C339.104408,14.3112186 342.118973,11.9107323 345.691789,11.9107323 C348.929655,11.9107323 350.995189,14.3112186 350.995189,17.0466565 C350.995189,19.8379196 349.041305,21.8476291 346.640819,21.8476291 C344.184507,21.8476291 342.286448,20.4519975 342.286448,17.8840354 C342.286448,17.7723849 342.342274,17.6049091 342.342274,17.4374333 C340.834992,17.5490838 338.992758,19.2238417 338.043728,22.461707 L338.043728,33.9617112 L342.900526,33.9617112 L342.900526,38.595208 L326.041297,38.595208 Z M353.865696,39.5442375 C351.074433,39.5442375 348.897247,37.3670523 348.897247,34.6316144 C348.897247,31.8403512 351.074433,29.6631659 353.921521,29.6631659 C356.712784,29.6631659 358.889969,31.8403512 358.889969,34.5757891 C358.889969,37.311227 356.712784,39.5442375 353.865696,39.5442375 Z M374.356284,39.1534607 C380.943665,39.1534607 384.851434,35.2456923 386.079589,29.6073407 L381.725219,29.6073407 C380.664539,32.6219049 378.599004,34.4083133 375.58444,34.4083133 C371.230069,34.4083133 368.997059,30.8354965 368.997059,25.3646207 C368.997059,19.3354923 371.732497,15.874326 375.416964,15.874326 C377.594149,15.874326 378.933956,16.6558796 379.715509,17.6607344 C378.543179,18.1073365 377.370848,19.3913175 377.370848,21.177726 C377.370848,23.2990859 378.822305,25.1413196 381.557743,25.1413196 C384.460657,25.1413196 386.023764,23.1316102 386.023764,20.340347 C386.023764,16.3767533 382.171821,11.854907 374.63541,11.854907 C366.14997,11.854907 360.232493,17.5490838 360.232493,25.9786986 C360.232493,33.8500607 365.480067,39.1534607 374.356284,39.1534607 Z M401.882583,39.1534607 C393.564619,39.1534607 387.758792,33.7384102 387.758792,25.643747 C387.758792,17.6049091 393.843745,11.854907 401.938408,11.854907 C410.200547,11.854907 416.006375,17.3257828 416.006375,25.3646207 C416.006375,33.4592838 409.921421,39.1534607 401.882583,39.1534607 Z M402.050059,35.3573428 C405.622876,35.3573428 407.074333,32.5102544 407.074333,25.4762712 C407.074333,18.4422881 405.343749,15.6510249 401.715107,15.6510249 C398.198116,15.6510249 396.690834,18.4981133 396.690834,25.5320965 C396.690834,32.6219049 398.477242,35.3573428 402.050059,35.3573428 Z M444.572582,18.8330649 C444.01433,14.5345196 441.669669,11.9107323 437.203648,11.9107323 C432.681801,11.9107323 429.834713,14.9252965 427.992479,19.3354923 L427.992479,12.4689849 L416.492475,12.4689849 L416.492475,17.1024817 L420.344418,17.1024817 L420.344418,33.9617112 L416.492475,33.9617112 L416.492475,38.595208 L431.174519,38.595208 L431.174519,33.9617112 L428.494906,33.9617112 L428.494906,23.7456881 C428.494906,20.0053954 430.895393,17.3816081 433.240054,17.3816081 C434.244909,17.3816081 435.026462,17.6607344 435.52889,18.218987 C436.366269,19.056366 436.757045,20.4519975 436.757045,22.2384059 L436.757045,33.9617112 L433.965782,33.9617112 L433.965782,38.595208 L447.587146,38.595208 L447.587146,33.9617112 L444.907534,33.9617112 L444.907534,23.7456881 C444.907534,20.0053954 447.30802,17.3816081 449.652681,17.3816081 C450.713361,17.3816081 451.43909,17.6607344 451.997342,18.218987 C452.834721,19.056366 453.169673,20.4519975 453.169673,22.2384059 L453.169673,33.9617112 L450.37841,33.9617112 L450.37841,38.595208 L465.116279,38.595208 L465.116279,33.9617112 L461.320161,33.9617112 L461.320161,21.1219007 C461.320161,15.7068502 459.087151,11.9107323 453.616275,11.9107323 C449.261904,11.9107323 446.470641,14.6461702 444.572582,18.8330649 Z" id="Blood-Cancer.com"></path>
        </g>
    </g>
</svg>