<?xml version="1.0" encoding="UTF-8"?>
<svg width="500px" height="66px" viewBox="0 0 500 66" version="1.1" xmlns="http://www.w3.org/2000/svg" xmlns:xlink="http://www.w3.org/1999/xlink">
    <!-- Generator: Sketch 49.2 (51160) - http://www.bohemiancoding.com/sketch -->
    <title>masthead</title>
    <desc>Created with Sketch.</desc>
    <defs>
        <linearGradient x1="50%" y1="0%" x2="50%" y2="100%" id="linearGradient-1">
            <stop stop-color="#6B96C6" offset="0%"></stop>
            <stop stop-color="#678EB4" offset="100%"></stop>
        </linearGradient>
    </defs>
    <g id="Page-1" stroke="none" stroke-width="1" fill="none" fill-rule="evenodd">
        <g id="asthma.net" transform="translate(-56.000000, -126.000000)" fill="url(#linearGradient-1)">
            <g id="masthead" transform="translate(56.000000, 126.000000)">
                <path d="M26.4353904,2.66755793 L6.86514148,55.8193972 L0.121608528,55.8193972 L0.121608528,63.7921731 L23.3499968,63.7921731 L23.3499968,55.8193972 L15.9122669,55.8193972 L19.7894167,44.5246313 L40.5589142,44.5246313 L44.4354004,55.8193972 L35.9596933,55.8193972 L35.9596933,63.7921731 L67.815105,63.7921731 L67.815105,55.8193972 L60.8671622,55.8193972 L41.5736629,2.66755793 L26.4353904,2.66755793 L26.4353904,2.66755793 Z M30.1280405,14.6267218 L30.4963764,14.6267218 L38.1584262,37.2162534 L22.2808273,37.2162534 L30.1280405,14.6267218 L30.1280405,14.6267218 Z" id="Shape"></path>
                <path d="M71.17393,33.724842 C71.17393,41.4876681 76.250992,44.8275968 86.5896158,47.5071139 C95.1754917,49.7255388 97.5753161,51.046362 97.5753161,54.3736672 C97.5753161,57.0531842 95.8219046,58.8636688 91.9434274,58.8636688 C86.6818656,58.8636688 81.4203039,54.4906012 77.6354039,49.1754173 L70.469778,49.1754173 L70.469778,65.1203047 L77.6354039,65.1203047 L79.1127294,59.1626479 C81.8822169,62.304586 86.4057797,64.9409172 93.1446669,64.9409172 C103.667127,64.9409172 109.482852,58.1893048 109.482852,50.7041971 C109.482852,42.110209 103.113628,39.0486631 93.6981662,36.554513 C85.4826171,34.4284395 82.9898792,33.207276 82.9898792,30.0646735 C82.9898792,27.569859 84.8368679,25.8643494 88.4372681,25.8643494 C93.0517534,25.8643494 97.4830662,29.2428132 100.805389,34.5586615 L107.635863,34.5586615 L107.635863,19.9419057 L100.713803,19.9419057 L99.2364777,25.1202236 C96.5599037,21.8859342 92.4975904,19.7631826 86.8670291,19.7631826 C77.267068,19.7631826 71.17393,26.1467185 71.17393,33.724842 L71.17393,33.724842 Z" id="Shape"></path>
                <path d="M118.918223,11.0708637 L118.918223,21.2707017 L110.95354,21.2707017 L110.95354,28.5790796 L118.918223,28.5790796 L118.918223,50.1600551 C118.918223,60.0482904 123.41723,64.945568 132.833355,64.945568 C141.510817,64.945568 145.917574,60.4183601 147.947735,49.8830011 L142.413406,48.3116999 C140.752244,54.3191865 139.467383,56.4445957 136.697895,56.4445957 C133.559408,56.4445957 132.190924,54.2268352 132.190924,50.2530708 L132.190924,28.5790796 L146.127957,28.5790796 L146.127957,21.2707017 L132.190924,21.2707017 L132.190924,9.49889807 L118.918223,11.0708637 L118.918223,11.0708637 Z" id="Shape"></path>
                <path d="M150.109966,0.00930157187 L150.109966,7.98274186 L156.08298,7.98274186 L156.08298,56.4837952 L150.109966,56.4837952 L150.109966,63.7921731 L174.665691,63.7921731 L174.665691,56.4837952 L170.020013,56.4837952 L170.020013,39.4406579 C170.020013,33.249133 173.792967,28.905299 178.03978,28.905299 C179.977692,28.905299 181.164994,29.4594069 182.179079,30.3842489 C183.564819,31.7708475 183.957046,34.0809593 183.957046,36.9451791 L183.957046,56.4837952 L179.312032,56.4837952 L179.312032,63.7921731 L203.867094,63.7921731 L203.867094,56.4837952 L197.894079,56.4837952 L197.894079,35.0974883 C197.894079,26.1334306 194.111834,19.84889 184.788623,19.84889 C177.772986,19.84889 173.339018,23.9156701 170.020013,30.4766002 L170.020013,0.00930157187 L150.109966,0.00930157187 L150.109966,0.00930157187 Z" id="Shape"></path>
                <path d="M253.704596,31.3084265 C252.781434,24.1920596 248.909593,19.84889 241.52562,19.84889 C234.047407,19.84889 229.086487,24.8398477 226.432477,32.1402528 L226.432477,20.6063037 L207.185435,20.6063037 L207.185435,28.5790796 L213.822117,28.5790796 L213.822117,56.4837952 L207.185435,56.4837952 L207.185435,63.7921731 L231.741159,63.7921731 L231.741159,56.4837952 L227.096145,56.4837952 L227.096145,39.4406579 C227.096145,33.249133 230.940112,28.905299 234.818589,28.905299 C236.479751,28.905299 237.64847,29.36772 238.479383,30.2918976 C239.863795,31.6771674 240.368847,33.9879436 240.368847,36.9451791 L240.368847,56.4837952 L235.723169,56.4837952 L235.723169,63.7921731 L258.287889,63.7921731 L258.287889,56.4837952 L254.30588,56.4837952 L254.30588,39.4406579 C254.30588,33.249133 258.133918,28.905299 262.009077,28.905299 C263.765143,28.905299 264.822366,29.36772 265.746856,30.2918976 C267.129941,31.6771674 267.579244,33.9879436 267.579244,36.9451791 L267.579244,56.4837952 L262.93423,56.4837952 L262.93423,63.7921731 L287.489291,63.7921731 L287.489291,56.4837952 L281.516277,56.4837952 L281.516277,35.0974883 C281.516277,26.1334306 277.698858,19.84889 268.651732,19.84889 C261.452259,19.84889 256.84242,24.3774267 253.704596,31.3084265 L253.704596,31.3084265 Z" id="Shape"></path>
                <path d="M291.655801,31.5854805 C291.655801,35.0058013 293.970012,38.0547237 298.678074,38.0547237 C302.463638,38.0547237 305.245735,35.5585805 305.245735,32.324291 C305.245735,30.1988819 304.440705,28.628245 303.056957,27.6117161 C304.810369,26.8735699 306.802037,26.5028358 308.646371,26.5028358 C314.00151,26.5028358 316.691357,28.5365581 316.691357,34.0809593 L316.691357,37.8693567 C316.691357,38.9782369 316.123921,39.0705882 311.046859,39.8100632 C300.432813,41.1959974 295.895977,43.0443526 293.034239,45.9092368 C291.095001,47.8499433 289.988002,50.5301248 289.988002,53.3943445 C289.988002,60.4183601 295.526314,64.9103549 303.188363,64.9103549 C309.556924,64.9103549 314.726899,62.4633771 317.496387,55.8193972 L317.9583,55.8193972 C318.696963,61.7989791 322.861481,64.9103549 328.12437,64.9103549 C334.309094,64.9103549 337.736941,61.6195916 339.490352,54.5032248 L334.991345,53.0242748 C334.160433,56.1675417 333.191477,57.1847351 332.176728,57.1847351 C330.698739,57.1847351 329.964059,56.7216497 329.964059,54.5955761 L329.964059,34.9121212 C329.964059,25.9480635 325.257323,19.84889 312.241462,19.84889 C301.626088,19.84889 291.655801,23.6379517 291.655801,31.5854805 L291.655801,31.5854805 Z M303.79562,51.453638 C303.79562,47.295171 305.877547,45.1697618 312.431935,44.0608815 C314.738845,43.5991249 315.363357,43.5061092 316.691357,43.322071 L316.691357,47.5735537 C316.691357,53.1166262 313.750643,56.9987036 309.595417,56.9987036 C305.534431,56.9987036 303.79562,54.4108734 303.79562,51.453638 L303.79562,51.453638 Z" id="Shape"></path>
                <path d="M342.53128,57.4604602 C342.53128,61.9889969 346.132344,65.5926916 350.747493,65.5926916 C355.456219,65.5926916 359.055956,61.89731 359.055956,57.3687733 C359.055956,52.8402366 355.456219,49.2365419 350.839743,49.2365419 C346.132344,49.2365419 342.53128,52.8402366 342.53128,57.4604602 L342.53128,57.4604602 Z" id="Shape"></path>
                <path d="M382.394513,32.1402528 L382.394513,20.6063037 L363.811802,20.6063037 L363.811802,28.5790796 L369.784816,28.5790796 L369.784816,56.4837952 L363.811802,56.4837952 L363.811802,63.7921731 L388.367527,63.7921731 L388.367527,56.4837952 L383.721186,56.4837952 L383.721186,39.4406579 C383.721186,33.249133 387.48883,28.905299 391.827893,28.905299 C393.672891,28.905299 394.855548,29.4594069 395.869633,30.3842489 C397.255372,31.7708475 397.658219,34.0809593 397.658219,36.9451791 L397.658219,56.4837952 L393.012541,56.4837952 L393.012541,63.7921731 L417.568929,63.7921731 L417.568929,56.4837952 L411.595915,56.4837952 L411.595915,35.0974883 C411.595915,26.1334306 407.564794,19.84889 398.240919,19.84889 C390.303447,19.84889 385.71219,24.8398477 382.394513,32.1402528 L382.394513,32.1402528 Z" id="Shape"></path>
                <path d="M418.736986,42.73275 C418.736986,56.0406417 427.506698,64.8777994 441.906307,64.8777994 C453.99967,64.8777994 460.091481,59.1407227 461.753306,49.8398153 L454.552506,49.8398153 C452.615258,55.1549992 449.38253,57.3388754 444.213882,57.3388754 C437.382745,57.3388754 433.322422,54.4906012 432.768259,43.8602333 L462.215883,43.8602333 C462.862296,29.9072111 456.029831,19.5930967 441.445722,19.5930967 C428.429196,19.5930967 418.736986,29.611554 418.736986,42.73275 L418.736986,42.73275 Z M441.167645,26.2536866 C446.152457,26.2536866 448.552281,29.2428132 449.014858,38.5450494 L432.860509,38.5450494 C433.414672,29.2428132 436.367996,26.2536866 441.167645,26.2536866 L441.167645,26.2536866 Z" id="Shape"></path>
                <path d="M470.661725,11.0708637 L470.661725,21.2707017 L462.697706,21.2707017 L462.697706,28.5790796 L470.661725,28.5790796 L470.661725,50.1600551 C470.661725,60.0482904 475.254973,64.945568 484.671097,64.945568 C493.347232,64.945568 497.850885,60.4183601 499.880382,49.8830011 L494.319506,48.3116999 C492.657017,54.3191865 491.319726,56.4445957 488.549575,56.4445957 C485.411088,56.4445957 483.935753,54.2268352 483.935753,50.2530708 L483.935753,28.5790796 L497.872122,28.5790796 L497.872122,21.2707017 L483.935753,21.2707017 L483.935753,9.49889807 L470.661725,11.0708637 L470.661725,11.0708637 Z" id="Shape"></path>
            </g>
        </g>
    </g>
</svg>