<?xml version="1.0" encoding="UTF-8"?>
<svg width="564px" height="41px" viewBox="0 0 564 41" version="1.1" xmlns="http://www.w3.org/2000/svg" xmlns:xlink="http://www.w3.org/1999/xlink">
    <!-- Generator: Sketch 49.3 (51167) - http://www.bohemiancoding.com/sketch -->
    <title>4</title>
    <desc>Created with Sketch.</desc>
    <defs>
        <linearGradient x1="50%" y1="-24.4279127%" x2="50%" y2="120.000941%" id="linearGradient-1">
            <stop stop-color="#6F9BBF" offset="0%"></stop>
            <stop stop-color="#5B7288" offset="100%"></stop>
        </linearGradient>
    </defs>
    <g id="Page-1" stroke="none" stroke-width="1" fill="none" fill-rule="evenodd">
        <g id="4" transform="translate(0.000000, 0.862382)" fill="url(#linearGradient-1)">
            <path d="M0,2.69595547 L0,7.43675119 L4.87467604,7.43675119 L4.87467604,33.8122449 L0,33.8122449 L0,38.5536673 L18.9556203,38.5536673 L18.9556203,33.8122449 L13.7022803,33.8122449 L13.7022803,24.6577778 L17.8183827,24.6577778 C29.0294525,24.6577778 33.2532998,19.7527932 33.2532998,13.5950855 C33.2532998,7.21929499 28.9210849,2.69595547 17.7100151,2.69595547 L0,2.69595547 Z M13.7022803,7.21929499 L17.113993,7.21929499 C22.367333,7.21929499 23.8296735,9.39887034 23.8296735,13.5399382 C23.8296735,17.8997155 22.4215168,20.1344383 17.1687996,20.1344383 L13.7022803,20.1344383 L13.7022803,7.21929499 Z" id="Fill-1"></path>
            <path d="M34.3375992,19.4262956 C34.3375992,21.4423088 35.6915721,23.2408658 38.4537017,23.2408658 C40.673993,23.2408658 42.298885,21.7694331 42.298885,19.8618347 C42.298885,18.6084848 41.8112305,17.6822593 40.9990959,17.0831581 C42.0279658,16.6463657 43.1658262,16.4289095 44.2482572,16.4289095 C47.3896735,16.4289095 48.9061979,17.6277386 48.9061979,20.8971016 L48.9061979,23.1318244 C48.9061979,23.7854463 48.6352788,23.839967 45.6564139,24.2761328 C39.4283877,25.0926902 36.8288096,26.1831045 35.1497338,27.8732468 C34.0124962,29.0175551 33.3622903,30.5974026 33.3622903,32.2869182 C33.3622903,36.4286127 36.6120743,39.0443537 41.1074636,39.0443537 C44.8442793,39.0443537 47.877328,37.5184003 49.50222,33.6493094 L49.7725163,33.6493094 C50.2059869,37.4093589 52.6430136,39.0443537 55.7302461,39.0443537 C59.3586941,39.0443537 61.3628729,37.137382 62.3917428,32.9405401 L59.7379809,32.0688353 C59.2509493,33.921913 58.6549272,34.5216409 58.0589051,34.5216409 C57.1925866,34.5216409 56.7049322,34.2484106 56.7049322,32.9950608 L56.7049322,21.3871614 C56.7049322,16.1017852 53.9969864,12.5052979 46.3601808,12.5052979 C40.1327775,12.5052979 34.3375992,14.7393939 34.3375992,19.4262956 L34.3375992,19.4262956 Z M41.4325665,31.1426098 C41.4325665,28.6904308 42.6239879,27.4364543 46.4685485,26.7828324 C47.8231441,26.5102288 48.4185434,26.4563348 48.9061979,26.3466667 L48.9061979,28.853993 C48.9061979,32.123356 47.227122,34.4119728 44.7907182,34.4119728 C42.4072526,34.4119728 41.4325665,32.8866461 41.4325665,31.1426098 L41.4325665,31.1426098 Z" id="Fill-2"></path>
            <path d="M74.198212,19.5892311 L74.198212,13.0498784 L63.041326,13.0498784 L63.041326,17.5732179 L66.7787644,17.5732179 L66.7787644,34.0309544 L63.041326,34.0309544 L63.041326,38.5536673 L79.397991,38.5536673 L79.397991,34.0309544 L74.6852436,34.0309544 L74.6852436,22.8040734 C75.6063687,19.6443785 77.3938122,18.0093836 78.8555299,17.8997155 C78.8555299,18.0632777 78.8019689,18.2274665 78.8019689,18.3365079 C78.8019689,20.8432076 80.6429734,22.2055988 83.0258162,22.2055988 C85.3550979,22.2055988 87.2502863,20.242853 87.2502863,17.5186972 C87.2502863,14.8484354 85.2467303,12.5052979 82.1053139,12.5052979 C78.6394174,12.5052979 75.7147363,14.8484354 74.198212,19.5892311 L74.198212,19.5892311 Z" id="Fill-3"></path>
            <polygon id="Fill-4" points="86.1952587 0.952545867 86.1952587 5.58430014 89.8778905 5.58430014 89.8778905 34.0309544 86.1952587 34.0309544 86.1952587 38.5536673 100.547122 38.5536673 100.547122 34.0848485 97.8391763 34.0848485 97.8391763 29.8892599 101.08896 26.9463946 106.071381 34.0848485 103.255068 34.0848485 103.255068 38.5536673 117.174083 38.5536673 117.174083 34.0309544 114.466138 34.0309544 106.125565 22.6956586 111.757569 17.5732179 115.549191 17.5732179 115.549191 13.0498784 102.334566 13.0498784 102.334566 17.5186972 106.3423 17.5186972 97.8391763 25.4204411 97.8391763 0.952545867"></polygon>
            <path d="M121.832024,4.76648938 C121.832024,7.43675119 123.727212,9.2898289 126.651894,9.2898289 C129.522391,9.2898289 131.525947,7.27318903 131.525947,4.60292723 C131.525947,1.98781282 129.576575,0.0256936714 126.651894,0.0256936714 C123.781396,0.0256936714 121.832024,2.09685426 121.832024,4.76648938 L121.832024,4.76648938 Z M118.961527,13.0498784 L118.961527,17.5732179 L123.077629,17.5732179 L123.077629,34.0309544 L118.961527,34.0309544 L118.961527,38.5536673 L135.100834,38.5536673 L135.100834,34.0309544 L130.984731,34.0309544 L130.984731,13.0498784 L118.961527,13.0498784 Z" id="Fill-5"></path>
            <path d="M148.071321,19.7527932 L148.071321,13.0498784 L136.914435,13.0498784 L136.914435,17.5732179 L140.651251,17.5732179 L140.651251,34.0309544 L136.914435,34.0309544 L136.914435,38.5536673 L151.375289,38.5536673 L151.375289,34.0309544 L148.558975,34.0309544 L148.558975,24.0580499 C148.558975,20.4064152 150.887634,17.8458215 153.433029,17.8458215 C154.516082,17.8458215 155.32884,18.1723191 155.924862,18.7175263 C156.736996,19.535337 157.062099,20.8971016 157.062099,22.5866172 L157.062099,34.0309544 L154.191602,34.0309544 L154.191602,38.5536673 L168.651833,38.5536673 L168.651833,34.0309544 L165.022762,34.0309544 L165.022762,21.4962028 C165.022762,16.2108266 162.748287,12.5052979 157.278212,12.5052979 C152.620894,12.5052979 149.858764,15.4481633 148.071321,19.7527932 L148.071321,19.7527932 Z" id="Fill-6"></path>
            <path d="M171.116263,20.6796454 C171.116263,25.256879 174.095128,27.2189981 180.161226,28.7994723 C185.19783,30.1067161 186.605987,30.8693795 186.605987,32.8314987 C186.605987,34.4119728 185.577117,35.4478664 183.302019,35.4478664 C180.215409,35.4478664 177.128177,33.1041022 174.907885,29.6711771 L170.737599,29.6711771 L170.737599,39.0443537 L174.907885,39.0443537 L175.774204,35.6108019 C177.399096,37.4638796 180.052858,39.0982478 184.006409,39.0982478 C190.180251,39.0982478 193.592587,35.1207421 193.592587,30.706444 C193.592587,25.638524 189.855148,23.839967 184.331512,22.369161 C179.51102,21.1151845 178.049302,20.4064152 178.049302,18.5539641 C178.049302,17.0831581 179.131733,16.1017852 181.244279,16.1017852 C183.952225,16.1017852 186.552426,18.2274665 188.501798,21.2787467 L192.672084,21.2787467 L192.672084,12.5598186 L188.447614,12.5598186 L187.580673,15.6110987 C186.009965,13.704127 183.627122,12.4507772 180.323777,12.4507772 C174.69115,12.4507772 171.116263,16.2108266 171.116263,20.6796454 L171.116263,20.6796454 Z" id="Fill-7"></path>
            <path d="M195.271662,25.9111276 C195.271662,33.8122449 200.903666,39.0982478 208.97332,39.0982478 C216.772677,39.0982478 222.6756,33.5408947 222.6756,25.638524 C222.6756,17.7906741 217.042973,12.4507772 209.027504,12.4507772 C201.174586,12.4507772 195.271662,18.0632777 195.271662,25.9111276 L195.271662,25.9111276 Z M203.936715,25.8020862 C203.936715,18.9349825 205.399056,16.1563059 208.810768,16.1563059 C212.331472,16.1563059 214.010547,18.8810884 214.010547,25.7469388 C214.010547,32.6140425 212.602391,35.392719 209.135871,35.392719 C205.669975,35.392719 203.936715,32.7230839 203.936715,25.8020862 L203.936715,25.8020862 Z" id="Fill-8"></path>
            <path d="M235.104872,19.7527932 L235.104872,13.0498784 L223.948609,13.0498784 L223.948609,17.5732179 L227.685424,17.5732179 L227.685424,34.0309544 L223.948609,34.0309544 L223.948609,38.5536673 L238.40884,38.5536673 L238.40884,34.0309544 L235.593149,34.0309544 L235.593149,24.0580499 C235.593149,20.4064152 237.921808,17.8458215 240.467202,17.8458215 C241.550256,17.8458215 242.363014,18.1723191 242.958413,18.7175263 C243.770547,19.535337 244.09565,20.8971016 244.09565,22.5866172 L244.09565,34.0309544 L241.225776,34.0309544 L241.225776,38.5536673 L255.686007,38.5536673 L255.686007,34.0309544 L252.056936,34.0309544 L252.056936,21.4962028 C252.056936,16.2108266 249.782461,12.5052979 244.312386,12.5052979 C239.655068,12.5052979 236.892938,15.4481633 235.104872,19.7527932 L235.104872,19.7527932 Z" id="Fill-9"></path>
            <path d="M257.527012,20.6796454 C257.527012,25.256879 260.506499,27.2189981 266.572597,28.7994723 C271.608579,30.1067161 273.016735,30.8693795 273.016735,32.8314987 C273.016735,34.4119728 271.987865,35.4478664 269.712767,35.4478664 C266.626158,35.4478664 263.538925,33.1041022 261.318634,29.6711771 L257.148348,29.6711771 L257.148348,39.0443537 L261.318634,39.0443537 L262.184952,35.6108019 C263.809844,37.4638796 266.463606,39.0982478 270.417157,39.0982478 C276.590999,39.0982478 280.003335,35.1207421 280.003335,30.706444 C280.003335,25.638524 276.265897,23.839967 270.74226,22.369161 C265.922391,21.1151845 264.459427,20.4064152 264.459427,18.5539641 C264.459427,17.0831581 265.543104,16.1017852 267.655028,16.1017852 C270.362973,16.1017852 272.962551,18.2274665 274.912546,21.2787467 L279.082833,21.2787467 L279.082833,12.5598186 L274.858363,12.5598186 L273.991421,15.6110987 C272.421336,13.704127 270.03787,12.4507772 266.734525,12.4507772 C261.101899,12.4507772 257.527012,16.2108266 257.527012,20.6796454 L257.527012,20.6796454 Z" id="Fill-10"></path>
            <path d="M281.628227,2.69595547 L281.628227,7.43675119 L286.50228,7.43675119 L286.50228,33.8122449 L281.628227,33.8122449 L281.628227,38.5536673 L297.930085,38.5536673 C312.281949,38.5536673 318.889884,30.9784209 318.889884,20.4064152 C318.889884,9.77988868 312.065213,2.69595547 297.604982,2.69595547 L281.628227,2.69595547 Z M295.329884,7.32770975 L298.038453,7.32770975 C306.107484,7.32770975 309.2489,10.9787178 309.2489,20.4609359 C309.2489,30.4883612 306.270658,33.921913 298.417117,33.921913 L295.329884,33.921913 L295.329884,7.32770975 Z" id="Fill-11"></path>
            <path d="M323.520422,4.76648938 C323.520422,7.43675119 325.416233,9.2898289 328.340914,9.2898289 C331.211411,9.2898289 333.214345,7.27318903 333.214345,4.60292723 C333.214345,1.98781282 331.265595,0.0256936714 328.340914,0.0256936714 C325.470417,0.0256936714 323.520422,2.09685426 323.520422,4.76648938 L323.520422,4.76648938 Z M320.649925,13.0498784 L320.649925,17.5732179 L324.766027,17.5732179 L324.766027,34.0309544 L320.649925,34.0309544 L320.649925,38.5536673 L336.789232,38.5536673 L336.789232,34.0309544 L332.673752,34.0309544 L332.673752,13.0498784 L320.649925,13.0498784 Z" id="Fill-12"></path>
            <path d="M339.307845,20.6796454 C339.307845,25.256879 342.28671,27.2189981 348.352808,28.7994723 C353.38879,30.1067161 354.796946,30.8693795 354.796946,32.8314987 C354.796946,34.4119728 353.767454,35.4478664 351.493601,35.4478664 C348.406369,35.4478664 345.319136,33.1041022 343.098845,29.6711771 L338.929181,29.6711771 L338.929181,39.0443537 L343.098845,39.0443537 L343.965163,35.6108019 C345.589432,37.4638796 348.243817,39.0982478 352.197368,39.0982478 C358.37121,39.0982478 361.783546,35.1207421 361.783546,30.706444 C361.783546,25.638524 358.04673,23.839967 352.522471,22.369161 C347.702602,21.1151845 346.239638,20.4064152 346.239638,18.5539641 C346.239638,17.0831581 347.323315,16.1017852 349.435239,16.1017852 C352.143184,16.1017852 354.742762,18.2274665 356.692757,21.2787467 L360.863044,21.2787467 L360.863044,12.5598186 L356.638574,12.5598186 L355.771632,15.6110987 C354.201547,13.704127 351.818081,12.4507772 348.514736,12.4507772 C342.882109,12.4507772 339.307845,16.2108266 339.307845,20.6796454 L339.307845,20.6796454 Z" id="Fill-13"></path>
            <path d="M363.462622,26.0195424 C363.462622,33.8673923 368.608217,39.0982478 377.056534,39.0982478 C384.151502,39.0982478 387.725766,35.6108019 388.700452,30.270905 L384.475982,30.270905 C383.339367,33.4857473 381.443556,34.7390971 378.410507,34.7390971 C374.402772,34.7390971 372.01993,32.7769779 371.694204,26.8373531 L388.971371,26.8373531 C389.350658,18.5539641 385.3423,12.4507772 376.786238,12.4507772 C369.14881,12.4507772 363.462622,18.2819872 363.462622,26.0195424 L363.462622,26.0195424 Z M376.623687,16.1563059 C379.547745,16.1563059 380.955902,18.2274665 381.227443,23.404428 L371.749011,23.404428 C372.074114,17.9542362 373.80675,16.1563059 376.623687,16.1563059 L376.623687,16.1563059 Z" id="Fill-14"></path>
            <path d="M391.219689,19.4262956 C391.219689,21.4423088 392.573661,23.2408658 395.335791,23.2408658 C397.556705,23.2408658 399.180974,21.7694331 399.180974,19.8618347 C399.180974,18.6084848 398.693943,17.6822593 397.881185,17.0831581 C398.910678,16.6463657 400.047916,16.4289095 401.131592,16.4289095 C404.271763,16.4289095 405.78891,17.6277386 405.78891,20.8971016 L405.78891,23.1318244 C405.78891,23.7854463 405.517991,23.839967 402.539126,24.2761328 C396.311723,25.0926902 393.710899,26.1831045 392.032446,27.8732468 C390.895208,29.0175551 390.245003,30.5974026 390.245003,32.2869182 C390.245003,36.4286127 393.494787,39.0443537 397.989553,39.0443537 C401.726369,39.0443537 404.759417,37.5184003 406.384309,33.6493094 L406.655229,33.6493094 C407.088699,37.4093589 409.525726,39.0443537 412.612958,39.0443537 C416.241406,39.0443537 418.245585,37.137382 419.273832,32.9405401 L416.62007,32.0688353 C416.133039,33.921913 415.537639,34.5216409 414.941617,34.5216409 C414.074676,34.5216409 413.587644,34.2484106 413.587644,32.9950608 L413.587644,21.3871614 C413.587644,16.1017852 410.879699,12.5052979 403.243516,12.5052979 C397.014867,12.5052979 391.219689,14.7393939 391.219689,19.4262956 L391.219689,19.4262956 Z M398.314656,31.1426098 C398.314656,28.6904308 399.506077,27.4364543 403.351261,26.7828324 C404.705856,26.5102288 405.301256,26.4563348 405.78891,26.3466667 L405.78891,28.853993 C405.78891,32.123356 404.109211,34.4119728 401.672185,34.4119728 C399.289342,34.4119728 398.314656,32.8866461 398.314656,31.1426098 L398.314656,31.1426098 Z" id="Fill-15"></path>
            <path d="M420.628428,20.6796454 C420.628428,25.256879 423.607916,27.2189981 429.67339,28.7994723 C434.709372,30.1067161 436.117529,30.8693795 436.117529,32.8314987 C436.117529,34.4119728 435.088036,35.4478664 432.814184,35.4478664 C429.726951,35.4478664 426.640342,33.1041022 424.419427,29.6711771 L420.249764,29.6711771 L420.249764,39.0443537 L424.419427,39.0443537 L425.285746,35.6108019 C426.910638,37.4638796 429.565023,39.0982478 433.518574,39.0982478 C439.691793,39.0982478 443.103506,35.1207421 443.103506,30.706444 C443.103506,25.638524 439.367313,23.839967 433.843054,22.369161 C429.023184,21.1151845 427.560844,20.4064152 427.560844,18.5539641 C427.560844,17.0831581 428.643898,16.1017852 430.755821,16.1017852 C433.463767,16.1017852 436.063968,18.2274665 438.01334,21.2787467 L442.184249,21.2787467 L442.184249,12.5598186 L437.959156,12.5598186 L437.092838,15.6110987 C435.52213,13.704127 433.139287,12.4507772 429.835942,12.4507772 C424.203315,12.4507772 420.628428,16.2108266 420.628428,20.6796454 L420.628428,20.6796454 Z" id="Fill-16"></path>
            <path d="M444.782582,26.0195424 C444.782582,33.8673923 449.928177,39.0982478 458.377117,39.0982478 C465.471462,39.0982478 469.045726,35.6108019 470.020412,30.270905 L465.797187,30.270905 C464.659327,33.4857473 462.763516,34.7390971 459.730467,34.7390971 C455.723355,34.7390971 453.33989,32.7769779 453.014787,26.8373531 L470.291331,26.8373531 C470.670618,18.5539641 466.662883,12.4507772 458.106198,12.4507772 C450.469392,12.4507772 444.782582,18.2819872 444.782582,26.0195424 L444.782582,26.0195424 Z M457.943646,16.1563059 C460.867705,16.1563059 462.275861,18.2274665 462.547403,23.404428 L453.06897,23.404428 C453.394696,17.9542362 455.12671,16.1563059 457.943646,16.1563059 L457.943646,16.1563059 Z" id="Fill-17"></path>
            <path d="M471.971652,34.6852031 C471.971652,37.3548382 474.084199,39.4805195 476.791522,39.4805195 C479.554274,39.4805195 481.666198,37.3003175 481.666198,34.6306823 C481.666198,31.9597939 479.554274,29.8347392 476.846328,29.8347392 C474.084199,29.8347392 471.971652,31.9597939 471.971652,34.6852031 L471.971652,34.6852031 Z" id="Fill-18"></path>
            <path d="M495.828729,19.7527932 L495.828729,13.0498784 L484.671843,13.0498784 L484.671843,17.5732179 L488.409282,17.5732179 L488.409282,34.0309544 L484.671843,34.0309544 L484.671843,38.5536673 L499.132697,38.5536673 L499.132697,34.0309544 L496.315761,34.0309544 L496.315761,24.0580499 C496.315761,20.4064152 498.645043,17.8458215 501.19106,17.8458215 C502.274114,17.8458215 503.085625,18.1723191 503.681647,18.7175263 C504.494405,19.535337 504.819508,20.8971016 504.819508,22.5866172 L504.819508,34.0309544 L501.948388,34.0309544 L501.948388,38.5536673 L516.409242,38.5536673 L516.409242,34.0309544 L512.780794,34.0309544 L512.780794,21.4962028 C512.780794,16.2108266 510.506318,12.5052979 505.036243,12.5052979 C500.378302,12.5052979 497.616173,15.4481633 495.828729,19.7527932 L495.828729,19.7527932 Z" id="Fill-19"></path>
            <path d="M516.247313,26.0195424 C516.247313,33.8673923 521.392908,39.0982478 529.841226,39.0982478 C536.936193,39.0982478 540.51108,35.6108019 541.485766,30.270905 L537.260673,30.270905 C536.124058,33.4857473 534.228247,34.7390971 531.195821,34.7390971 C527.188086,34.7390971 524.805244,32.7769779 524.479518,26.8373531 L541.756062,26.8373531 C542.135972,18.5539641 538.127614,12.4507772 529.570929,12.4507772 C521.934124,12.4507772 516.247313,18.2819872 516.247313,26.0195424 L516.247313,26.0195424 Z M529.408378,16.1563059 C532.333059,16.1563059 533.740593,18.2274665 534.012135,23.404428 L524.533702,23.404428 C524.859427,17.9542362 526.592064,16.1563059 529.408378,16.1563059 L529.408378,16.1563059 Z" id="Fill-20"></path>
            <path d="M546.333661,7.32770975 L546.333661,13.322482 L541.676344,13.322482 L541.676344,17.5732179 L546.17111,17.5732179 L546.17111,30.3793197 C546.17111,36.2105298 548.879056,39.0982478 554.403315,39.0982478 C559.494726,39.0982478 562.147865,36.4286127 563.33991,30.2157576 L560.090126,29.2895321 C559.114817,32.8314987 558.357489,34.0848485 556.732597,34.0848485 C554.890969,34.0848485 554.078212,32.7769779 554.078212,30.4344671 L554.078212,17.5732179 L562.202672,17.5732179 L562.202672,13.322482 L554.078212,13.322482 L554.078212,6.40148423 L546.333661,7.32770975 Z" id="Fill-21"></path>
        </g>
    </g>
</svg>