<?xml version="1.0" encoding="UTF-8"?>
<svg width="500px" height="45px" viewBox="0 0 500 45" version="1.1" xmlns="http://www.w3.org/2000/svg" xmlns:xlink="http://www.w3.org/1999/xlink">
    <!-- Generator: Sketch 49.2 (51160) - http://www.bohemiancoding.com/sketch -->
    <title>masthead</title>
    <desc>Created with Sketch.</desc>
    <defs>
        <linearGradient x1="50%" y1="0%" x2="50%" y2="100%" id="linearGradient-1">
            <stop stop-color="#ED3970" offset="0%"></stop>
            <stop stop-color="#C91879" offset="100%"></stop>
        </linearGradient>
    </defs>
    <g id="Page-1" stroke="none" stroke-width="1" fill="none" fill-rule="evenodd">
        <g id="atopicdermatitis.net" transform="translate(-56.000000, -143.000000)" fill="url(#linearGradient-1)">
            <g id="masthead" transform="translate(56.000000, 143.583770)">
                <path d="M24.2723756,31.5036888 L22.1441089,25.2537635 L10.7426798,25.2537635 L8.61441306,31.5036888 L12.8202736,31.5036888 L12.8202736,35.9243678 L0,35.9243678 L0,31.5036888 L3.6484573,31.5036888 L14.3911371,2.28655806 L22.7015121,2.28655806 L33.2921728,31.5036888 L37.2446682,31.5036888 L37.2446682,35.9243678 L19.762477,35.9243678 L19.762477,31.5036888 L24.2723756,31.5036888 Z M16.4180578,8.73973304 L12.1108513,21.2395838 L20.8266104,21.2395838 L16.6207499,8.73973304 L16.4180578,8.73973304 Z M39.9212336,6.80886178 L47.1674752,5.94505096 L47.1674752,12.3982259 L54.7684279,12.3982259 L54.7684279,16.3615932 L47.1674752,16.3615932 L47.1674752,28.35332 C47.1674752,30.5382532 47.9275705,31.7577509 49.6504531,31.7577509 C51.1706436,31.7577509 51.8800659,30.5890656 52.7921802,27.2862595 L55.8325613,28.1500704 C54.7177549,33.9426841 52.234777,36.4324918 47.4715133,36.4324918 C42.3028655,36.4324918 39.7692146,33.7394345 39.7692146,28.3025076 L39.7692146,16.3615932 L35.5633541,16.3615932 L35.5633541,12.3982259 L39.9212336,12.3982259 L39.9212336,6.80886178 Z M70.0924636,36.4324918 C62.5421839,36.4324918 57.27219,31.5036888 57.27219,24.1358907 C57.27219,16.8189049 62.795549,11.5852275 70.1431366,11.5852275 C77.6427432,11.5852275 82.9127371,16.5648428 82.9127371,23.8818286 C82.9127371,31.2496268 77.3893782,36.4324918 70.0924636,36.4324918 Z M70.2444826,32.9772485 C73.4875558,32.9772485 74.8050542,30.385816 74.8050542,23.9834534 C74.8050542,17.5810909 73.2341907,15.0404708 69.9404445,15.0404708 C66.7480444,15.0404708 65.3798729,17.6319033 65.3798729,24.0342658 C65.3798729,30.4874408 67.0014095,32.9772485 70.2444826,32.9772485 Z M99.3931476,31.8085633 C102.230837,31.8085633 103.497662,28.9630688 103.497662,23.7293914 C103.497662,18.8005885 102.129491,16.3107808 99.2918016,16.3107808 C96.3527665,16.3107808 94.4271918,19.8168365 94.4271918,24.1867031 C94.4271918,28.4549448 95.9980554,31.8085633 99.3931476,31.8085633 Z M83.9885501,44.1051644 L83.9885501,39.8877351 L87.4343153,39.8877351 L87.4343153,16.3615932 L83.9885501,16.3615932 L83.9885501,12.1441639 L94.4271918,12.1441639 L94.4271918,17.7335281 C95.8460363,13.9734104 98.4303603,11.5852275 102.332183,11.5852275 C104.815161,11.5852275 106.740735,12.5506631 108.260926,14.0750352 C110.439866,16.2599684 111.503999,19.6135869 111.503999,23.6277666 C111.503999,27.7943835 110.287846,31.0971896 108.15958,33.2313105 C106.436697,34.9589321 104.460449,35.9243678 102.028145,35.9243678 C98.5317063,35.9243678 96.0994014,34.2475585 94.883249,31.9610005 L94.883249,39.8877351 L99.2411285,39.8877351 L99.2411285,44.1051644 L83.9885501,44.1051644 Z M120.768057,8.63810823 C123.453727,8.63810823 125.328628,6.75804938 125.328628,4.26824172 C125.328628,1.82924645 123.5044,0 120.768057,0 C118.082387,0 116.258158,1.93087125 116.258158,4.42067892 C116.258158,6.91048659 118.031714,8.63810823 120.768057,8.63810823 Z M113.572488,35.9243678 L128.673047,35.9243678 L128.673047,31.7069385 L124.821898,31.7069385 L124.821898,12.1441639 L113.572488,12.1441639 L113.572488,16.3615932 L117.423637,16.3615932 L117.423637,31.7069385 L113.572488,31.7069385 L113.572488,35.9243678 Z M142.265096,36.4324918 C148.244512,36.4324918 151.791623,32.8756237 152.90643,27.7435711 L148.953934,27.7435711 C147.991147,30.4874408 146.116245,32.1134377 143.379902,32.1134377 C139.427407,32.1134377 137.400486,28.861444 137.400486,23.8818286 C137.400486,18.3940893 139.883464,15.2437204 143.227883,15.2437204 C145.204131,15.2437204 146.420283,15.955094 147.129706,16.8697173 C146.065572,17.2762165 145.001439,18.4449017 145.001439,20.0708985 C145.001439,22.0017698 146.318937,23.678579 148.801915,23.678579 C151.436912,23.678579 152.855757,21.8493326 152.855757,19.3087125 C152.855757,15.701032 149.359318,11.5852275 142.518461,11.5852275 C134.816162,11.5852275 129.444822,16.7680925 129.444822,24.4407651 C129.444822,31.6053137 134.208086,36.4324918 142.265096,36.4324918 Z M154.857269,35.9243678 L154.857269,31.5036888 L159.417841,31.5036888 L159.417841,6.91048659 L154.857269,6.91048659 L154.857269,2.48980767 L169.80581,2.48980767 C183.335505,2.48980767 189.720306,9.09541985 189.720306,19.0038381 C189.720306,28.861444 183.538198,35.9243678 170.109848,35.9243678 L154.857269,35.9243678 Z M167.677543,31.6053137 L170.565905,31.6053137 C177.913493,31.6053137 180.700509,28.4041324 180.700509,19.0546505 C180.700509,10.2132927 177.761474,6.80886178 170.211194,6.80886178 L167.677543,6.80886178 L167.677543,31.6053137 Z M215.858478,24.9997015 L199.693786,24.9997015 C199.997824,30.5382532 202.227437,32.3674997 205.97724,32.3674997 C208.814929,32.3674997 210.588485,31.1988144 211.652618,28.2008828 L215.605113,28.2008828 C214.692999,33.1804981 211.34858,36.4324918 204.710415,36.4324918 C196.805424,36.4324918 191.991487,31.5545013 191.991487,24.2375155 C191.991487,17.0221545 197.312154,11.5852275 204.457049,11.5852275 C212.463386,11.5852275 216.21319,17.2762165 215.858478,24.9997015 Z M204.30503,15.0404708 C201.670033,15.0404708 200.048497,16.7172801 199.744459,21.7985202 L208.612237,21.7985202 C208.358872,16.9713421 207.041373,15.0404708 204.30503,15.0404708 Z M217.825622,35.9243678 L233.128873,35.9243678 L233.128873,31.7069385 L228.72032,31.7069385 L228.72032,21.2395838 C229.581762,18.2924645 231.253971,16.7680925 232.622143,16.6664676 C232.622143,16.8189049 232.57147,16.9713421 232.57147,17.0729669 C232.57147,19.4103373 234.294352,20.6806474 236.523965,20.6806474 C238.702905,20.6806474 240.476461,18.8514009 240.476461,16.3107808 C240.476461,13.8209732 238.601559,11.6360399 235.662524,11.6360399 C232.419451,11.6360399 229.683108,13.8209732 228.264263,18.2416521 L228.264263,12.1441639 L217.825622,12.1441639 L217.825622,16.3615932 L221.32206,16.3615932 L221.32206,31.7069385 L217.825622,31.7069385 L217.825622,35.9243678 Z M267.586525,17.9367777 C267.079795,14.0242228 264.951528,11.6360399 260.897687,11.6360399 C256.793172,11.6360399 254.208849,14.3799096 252.536639,18.3940893 L252.536639,12.1441639 L242.097997,12.1441639 L242.097997,16.3615932 L245.594435,16.3615932 L245.594435,31.7069385 L242.097997,31.7069385 L242.097997,35.9243678 L255.425001,35.9243678 L255.425001,31.7069385 L252.992696,31.7069385 L252.992696,22.408269 C252.992696,19.0038381 255.171636,16.6156552 257.299903,16.6156552 C258.212017,16.6156552 258.921439,16.8697173 259.377496,17.3778413 C260.137592,18.1400273 260.492303,19.4103373 260.492303,21.0363342 L260.492303,31.7069385 L257.958652,31.7069385 L257.958652,35.9243678 L270.322868,35.9243678 L270.322868,31.7069385 L267.890563,31.7069385 L267.890563,22.408269 C267.890563,19.0038381 270.069503,16.6156552 272.19777,16.6156552 C273.160557,16.6156552 273.819307,16.8697173 274.326037,17.3778413 C275.086132,18.1400273 275.39017,19.4103373 275.39017,21.0363342 L275.39017,31.7069385 L272.856519,31.7069385 L272.856519,35.9243678 L286.234196,35.9243678 L286.234196,31.7069385 L282.788431,31.7069385 L282.788431,20.0200861 C282.788431,15.0912832 280.76151,11.6360399 275.795554,11.6360399 C271.843059,11.6360399 269.309408,14.1258476 267.586525,17.9367777 Z M295.224104,36.3816794 C291.018244,36.3816794 287.977863,33.9426841 287.977863,30.0809416 C287.977863,28.5057572 288.585939,27.0321975 289.650072,25.9651371 C291.220936,24.3899527 293.653241,23.3737046 299.480638,22.6115186 C302.267654,22.2050194 302.521019,22.154207 302.521019,21.5444582 L302.521019,19.4611497 C302.521019,16.4124056 301.102174,15.2945328 298.163139,15.2945328 C297.149679,15.2945328 296.085546,15.4977824 295.122758,15.9042816 C295.882854,16.463218 296.338911,17.3270289 296.338911,18.4957141 C296.338911,20.2741481 294.81872,21.646083 292.741126,21.646083 C290.156803,21.646083 288.889977,19.9692737 288.889977,18.0892149 C288.889977,13.7193484 294.31199,11.6360399 300.139387,11.6360399 C307.284283,11.6360399 309.817934,14.9896584 309.817934,19.9184613 L309.817934,30.7415028 C309.817934,31.9101881 310.273991,32.1642501 311.084759,32.1642501 C311.642162,32.1642501 312.199565,31.6053137 312.655623,29.877692 L315.1386,30.6906904 C314.175813,34.6032453 312.300911,36.3816794 308.905819,36.3816794 C306.017457,36.3816794 303.737171,34.8573073 303.331787,31.3512516 L303.078422,31.3512516 C301.558232,34.9589321 298.720543,36.3816794 295.224104,36.3816794 Z M298.66987,32.0626253 C300.950155,32.0626253 302.521019,29.9285044 302.521019,26.8797603 L302.521019,24.5423899 C302.064962,24.6440147 301.507559,24.6948271 300.240733,24.9488891 C296.642949,25.5586379 295.528142,26.7273231 295.528142,29.0138812 C295.528142,30.639878 296.440257,32.0626253 298.66987,32.0626253 Z M317.511128,6.80886178 L324.757369,5.94505096 L324.757369,12.3982259 L332.358322,12.3982259 L332.358322,16.3615932 L324.757369,16.3615932 L324.757369,28.35332 C324.757369,30.5382532 325.517465,31.7577509 327.240347,31.7577509 C328.760538,31.7577509 329.46996,30.5890656 330.382074,27.2862595 L333.422455,28.1500704 C332.307649,33.9426841 329.824671,36.4324918 325.061407,36.4324918 C319.89276,36.4324918 317.359109,33.7394345 317.359109,28.3025076 L317.359109,16.3615932 L313.153248,16.3615932 L313.153248,12.3982259 L317.511128,12.3982259 L317.511128,6.80886178 Z M342.209672,8.63810823 C344.895342,8.63810823 346.770243,6.75804938 346.770243,4.26824172 C346.770243,1.82924645 344.946015,0 342.209672,0 C339.524002,0 337.699773,1.93087125 337.699773,4.42067892 C337.699773,6.91048659 339.473329,8.63810823 342.209672,8.63810823 Z M335.014103,35.9243678 L350.114662,35.9243678 L350.114662,31.7069385 L346.263513,31.7069385 L346.263513,12.1441639 L335.014103,12.1441639 L335.014103,16.3615932 L338.865252,16.3615932 L338.865252,31.7069385 L335.014103,31.7069385 L335.014103,35.9243678 Z M354.51411,6.80886178 L354.51411,12.3982259 L350.156231,12.3982259 L350.156231,16.3615932 L354.362091,16.3615932 L354.362091,28.3025076 C354.362091,33.7394345 356.895742,36.4324918 362.06439,36.4324918 C366.827654,36.4324918 369.310632,33.9426841 370.425438,28.1500704 L367.385057,27.2862595 C366.472943,30.5890656 365.76352,31.7577509 364.24333,31.7577509 C362.520447,31.7577509 361.760352,30.5382532 361.760352,28.35332 L361.760352,16.3615932 L369.361305,16.3615932 L369.361305,12.3982259 L361.760352,12.3982259 L361.760352,5.94505096 L354.51411,6.80886178 Z M379.212654,8.63810823 C381.898324,8.63810823 383.773226,6.75804938 383.773226,4.26824172 C383.773226,1.82924645 381.948997,0 379.212654,0 C376.526984,0 374.702756,1.93087125 374.702756,4.42067892 C374.702756,6.91048659 376.476311,8.63810823 379.212654,8.63810823 Z M372.017086,35.9243678 L387.117645,35.9243678 L387.117645,31.7069385 L383.266496,31.7069385 L383.266496,12.1441639 L372.017086,12.1441639 L372.017086,16.3615932 L375.868235,16.3615932 L375.868235,31.7069385 L372.017086,31.7069385 L372.017086,35.9243678 Z M389.216023,36.3816794 L393.117846,36.3816794 L393.928614,33.1804981 C395.448804,34.9081197 397.931782,36.4324918 401.630913,36.4324918 C407.407637,36.4324918 410.600037,32.7231865 410.600037,28.607382 C410.600037,23.8818286 407.103599,22.2050194 401.934951,20.8330846 C397.425052,19.6643993 396.056881,19.0038381 396.056881,17.2762165 C396.056881,15.9042816 397.070341,14.9896584 399.046589,14.9896584 C401.58024,14.9896584 404.012544,16.9713421 405.836773,19.8168365 L409.738596,19.8168365 L409.738596,11.6868523 L405.7861,11.6868523 L404.975332,14.5323468 C403.505814,12.7539127 401.276202,11.5852275 398.185147,11.5852275 C392.915154,11.5852275 389.570734,15.0912832 389.570734,19.2579001 C389.570734,23.5261418 392.35775,25.3553883 398.033128,26.8289479 C402.745719,28.0484456 404.063217,28.7598192 404.063217,30.5890656 C404.063217,32.0626253 403.10043,33.0280609 400.972163,33.0280609 C398.083801,33.0280609 395.195439,30.8431276 393.117846,27.6419463 L389.216023,27.6419463 L389.216023,36.3816794 Z M417.613684,36.7881786 C420.198008,36.7881786 422.174256,34.7556825 422.174256,32.2658749 C422.174256,29.7760672 420.198008,27.7943835 417.664357,27.7943835 C415.080033,27.7943835 413.103786,29.7760672 413.103786,32.3166873 C413.103786,34.8064949 415.080033,36.7881786 417.613684,36.7881786 Z M483.937708,6.80886178 L483.937708,12.3982259 L479.579828,12.3982259 L479.579828,16.3615932 L483.785689,16.3615932 L483.785689,28.3025076 C483.785689,33.7394345 486.31934,36.4324918 491.487987,36.4324918 C496.251251,36.4324918 498.734229,33.9426841 499.849035,28.1500704 L496.808654,27.2862595 C495.89654,30.5890656 495.187118,31.7577509 493.666927,31.7577509 C491.944045,31.7577509 491.183949,30.5382532 491.183949,28.35332 L491.183949,16.3615932 L498.784902,16.3615932 L498.784902,12.3982259 L491.183949,12.3982259 L491.183949,5.94505096 L483.937708,6.80886178 Z M467.812048,15.0404708 C465.177051,15.0404708 463.555515,16.7172801 463.251477,21.7985202 L472.119255,21.7985202 C471.86589,16.9713421 470.548391,15.0404708 467.812048,15.0404708 Z M479.365497,24.9997015 L463.200804,24.9997015 C463.504842,30.5382532 465.734455,32.3674997 469.484258,32.3674997 C472.321947,32.3674997 474.095503,31.1988144 475.159636,28.2008828 L479.112131,28.2008828 C478.200017,33.1804981 474.855598,36.4324918 468.217433,36.4324918 C460.312442,36.4324918 455.498505,31.5545013 455.498505,24.2375155 C455.498505,17.0221545 460.819172,11.5852275 467.964067,11.5852275 C475.970404,11.5852275 479.720208,17.2762165 479.365497,24.9997015 Z M425.569014,35.9243678 L439.09871,35.9243678 L439.09871,31.7069385 L436.463713,31.7069385 L436.463713,22.408269 C436.463713,19.0038381 438.642653,16.6156552 441.024284,16.6156552 C442.037745,16.6156552 442.79784,16.9205297 443.355243,17.4286537 C444.115339,18.1908397 444.419377,19.4611497 444.419377,21.0363342 L444.419377,31.7069385 L441.733707,31.7069385 L441.733707,35.9243678 L455.263403,35.9243678 L455.263403,31.7069385 L451.86831,31.7069385 L451.86831,20.0200861 C451.86831,15.0912832 449.740044,11.6360399 444.622069,11.6360399 C440.264189,11.6360399 437.679865,14.3799096 436.007656,18.3940893 L436.007656,12.1441639 L425.569014,12.1441639 L425.569014,16.3615932 L429.065452,16.3615932 L429.065452,31.7069385 L425.569014,31.7069385 L425.569014,35.9243678 Z" id="AtopicDermatitis.com"></path>
            </g>
        </g>
    </g>
</svg>