<?xml version="1.0" encoding="UTF-8"?>
<svg width="339px" height="41px" viewBox="0 0 339 41" version="1.1" xmlns="http://www.w3.org/2000/svg" xmlns:xlink="http://www.w3.org/1999/xlink">
    <!-- Generator: Sketch 49.3 (51167) - http://www.bohemiancoding.com/sketch -->
    <title>5</title>
    <desc>Created with Sketch.</desc>
    <defs>
        <linearGradient x1="50%" y1="0%" x2="50%" y2="123.768185%" id="linearGradient-1">
            <stop stop-color="#80D2E5" offset="0%"></stop>
            <stop stop-color="#7DB6FF" offset="100%"></stop>
        </linearGradient>
    </defs>
    <g id="Page-1" stroke="none" stroke-width="1" fill="none" fill-rule="evenodd">
        <g id="5" transform="translate(0.000000, 0.862382)" fill="url(#linearGradient-1)">
            <path d="M0,0.745055585 L0,4.79629533 L4.19093766,4.79629533 L4.19093766,27.3342268 L0,27.3342268 L0,31.3854665 L27.1479629,31.3854665 L27.1479629,18.7195216 L23.4692509,18.7195216 C21.466914,26.4960392 20.6752925,27.4273587 16.9965805,27.4273587 L11.7811914,27.4273587 L11.7811914,4.70316338 L16.3912229,4.70316338 L16.3912229,0.745055585 L0,0.745055585 Z M37.7353255,31.8045603 C41.6934333,31.8045603 44.068298,29.2899977 45.6049752,25.6578517 L45.6049752,31.3854665 L55.1509998,31.3854665 L55.1509998,27.5204907 L51.9845136,27.5204907 L51.9845136,9.59259065 L41.9728292,9.59259065 L41.9728292,13.4575665 L45.1858814,13.4575665 L45.1858814,21.9325738 C45.1858814,25.09906 43.1835445,27.2876608 41.0880757,27.2876608 C40.1101902,27.2876608 39.4117006,26.961699 38.9926068,26.5426052 C38.2941172,25.7975496 38.0147214,24.6799662 38.0147214,23.236421 L38.0147214,9.59259065 L28.0496029,9.59259065 L28.0496029,13.4575665 L31.2160892,13.4575665 L31.2160892,24.1677405 C31.2160892,28.638074 33.1252941,31.8045603 37.7353255,31.8045603 L37.7353255,31.8045603 Z M56.6114316,31.3854665 L69.0445467,31.3854665 L69.0445467,27.5204907 L66.623116,27.5204907 L66.623116,18.9989174 C66.623116,15.8789971 68.6254529,13.6903964 70.8140537,13.6903964 C71.7453732,13.6903964 72.4438628,13.9697922 72.9560885,14.435452 C73.6545781,15.1339416 73.9339739,16.2980909 73.9339739,17.7416361 L73.9339739,27.5204907 L71.4659773,27.5204907 L71.4659773,31.3854665 L83.8990924,31.3854665 L83.8990924,27.5204907 L80.7791721,27.5204907 L80.7791721,16.8103166 C80.7791721,12.2934171 78.8234012,9.12693091 74.1202378,9.12693091 C70.1155641,9.12693091 67.7406994,11.6414935 66.2040222,15.3202055 L66.2040222,9.59259065 L56.6114316,9.59259065 L56.6114316,13.4575665 L59.8244838,13.4575665 L59.8244838,27.5204907 L56.6114316,27.5204907 L56.6114316,31.3854665 Z M105.258035,16.065261 C105.258035,13.4575665 103.954187,11.5017956 101.625889,10.3376462 C102.277812,8.66127117 103.209132,7.82308364 104.140451,7.72995169 C104.140451,7.91621559 104.093885,8.14904546 104.093885,8.33530935 C104.093885,9.73228858 105.118337,10.803306 106.748146,10.803306 C108.564219,10.803306 109.681802,9.54602468 109.681802,7.91621559 C109.681802,6.23984052 108.471087,4.61003143 105.723694,4.61003143 C102.790038,4.61003143 100.554871,6.51923637 99.483854,9.54602468 C98.3197046,9.22006286 96.9692914,9.08036494 95.5257462,9.08036494 C89.4721696,9.08036494 86.0262875,12.0605873 86.0262875,16.0186951 C86.0262875,19.1386153 87.9354924,21.0012543 91.0554127,21.7928759 C87.7957945,22.1654036 85.6071937,24.1677405 85.6071937,26.3563413 C85.6071937,28.1258483 86.911041,29.8022234 89.5653015,30.3610151 L89.5653015,30.5938449 C86.2591173,31.0129387 84.3964784,32.5496159 84.3964784,34.7382166 C84.3964784,37.625307 87.5629646,39.487946 94.6409927,39.487946 C104.093885,39.487946 108.051993,36.2748938 108.051993,31.8976922 C108.051993,28.4518101 105.723694,26.0769455 99.9960797,26.0769455 L93.989069,26.0769455 C91.5210724,26.0769455 90.6363189,25.5181538 90.6363189,24.5402683 C90.6363189,23.7020808 91.5210724,23.0035912 92.8714857,23.0035912 C93.7096732,23.0035912 94.9203885,23.0967231 95.851708,23.0967231 C101.905285,23.0967231 105.258035,20.5821605 105.258035,16.065261 L105.258035,16.065261 Z M95.3860483,36.3680257 C90.450055,36.3680257 88.9599438,35.2038764 88.9599438,33.8068972 C88.9599438,32.5030499 90.1706592,31.5251644 92.7317877,31.5251644 L98.3197046,31.5251644 C101.020531,31.5251644 101.998417,32.27022 101.998417,33.4343694 C101.998417,35.1573104 100.042646,36.3680257 95.3860483,36.3680257 L95.3860483,36.3680257 Z M95.7585761,20.7684244 C93.6165412,20.7684244 92.5455238,19.3248792 92.5455238,16.204959 C92.5455238,13.0850387 93.4302774,11.5949275 95.5257462,11.5949275 C97.667781,11.5949275 98.6922324,13.2713026 98.6922324,16.204959 C98.6922324,19.3248792 97.8074789,20.7684244 95.7585761,20.7684244 L95.7585761,20.7684244 Z M125.359696,32.1305221 C133.648439,32.1305221 138.165339,27.0548309 138.95696,19.1386153 L134.486627,19.1386153 C133.695005,24.2608725 131.040745,27.7533205 126.430713,27.7533205 C121.168758,27.7533205 117.955706,24.1677405 117.955706,15.7858652 C117.955706,7.03146208 121.02906,3.81840987 125.406262,3.81840987 C129.271238,3.81840987 131.878932,6.65893429 133.741571,12.2934171 L138.351603,12.2934171 L138.351603,0.0931319481 L134.160665,0.0931319481 L133.182779,3.63214598 C131.320141,1.35041325 128.386484,1.42108547e-14 124.474942,1.42108547e-14 C116.465595,1.42108547e-14 109.666963,6.70550026 109.666963,16.2515249 C109.666963,25.7044177 115.813671,32.1305221 125.359696,32.1305221 L125.359696,32.1305221 Z M147.061487,31.8045603 C150.274539,31.8045603 152.882233,30.500713 154.279213,27.1945288 L154.512042,27.1945288 C154.88457,30.4075811 156.980039,31.8045603 159.6343,31.8045603 C162.75422,31.8045603 164.477161,30.1747512 165.361914,26.5891712 L163.080182,25.8441156 C162.661088,27.4273587 162.148862,27.9395844 161.636636,27.9395844 C160.891581,27.9395844 160.472487,27.7067546 160.472487,26.6357372 L160.472487,16.7171847 C160.472487,12.2002852 158.144188,9.12693091 151.578386,9.12693091 C146.223299,9.12693091 141.24074,11.0361358 141.24074,15.0408096 C141.24074,16.7637507 142.404889,18.3004278 144.779754,18.3004278 C146.688959,18.3004278 148.085938,17.0431465 148.085938,15.4133374 C148.085938,14.34232 147.666844,13.5506984 146.968355,13.0384727 C147.853108,12.6659449 148.830994,12.479681 149.762313,12.479681 C152.46314,12.479681 153.766987,13.5041325 153.766987,16.2980909 L153.766987,18.2072959 C153.766987,18.7660875 153.534157,18.8126535 150.973028,19.1851813 C145.617941,19.8836709 143.382775,20.8149904 141.939229,22.2585356 C140.961344,23.236421 140.402552,24.5868343 140.402552,26.0303795 C140.402552,29.5693935 143.196511,31.8045603 147.061487,31.8045603 L147.061487,31.8045603 Z M150.227973,27.8464525 C148.17907,27.8464525 147.340882,26.5426052 147.340882,25.052494 C147.340882,22.9570252 148.365334,21.8860078 151.671518,21.3272161 C152.835667,21.0943862 153.347893,21.0478203 153.766987,20.9546883 L153.766987,23.0967231 C153.766987,25.8906816 152.323442,27.8464525 150.227973,27.8464525 L150.227973,27.8464525 Z M165.920706,31.3854665 L178.353821,31.3854665 L178.353821,27.5204907 L175.932391,27.5204907 L175.932391,18.9989174 C175.932391,15.8789971 177.934727,13.6903964 180.123328,13.6903964 C181.054648,13.6903964 181.753137,13.9697922 182.265363,14.435452 C182.963853,15.1339416 183.243248,16.2980909 183.243248,17.7416361 L183.243248,27.5204907 L180.775252,27.5204907 L180.775252,31.3854665 L193.208367,31.3854665 L193.208367,27.5204907 L190.088447,27.5204907 L190.088447,16.8103166 C190.088447,12.2934171 188.132676,9.12693091 183.429512,9.12693091 C179.424839,9.12693091 177.049974,11.6414935 175.513297,15.3202055 L175.513297,9.59259065 L165.920706,9.59259065 L165.920706,13.4575665 L169.133758,13.4575665 L169.133758,27.5204907 L165.920706,27.5204907 L165.920706,31.3854665 Z M205.690095,31.8511262 C211.18488,31.8511262 214.444498,28.5915081 215.468949,23.8883447 L211.836803,23.8883447 C210.95205,26.4029073 209.229109,27.8930185 206.714546,27.8930185 C203.0824,27.8930185 201.219761,24.9127961 201.219761,20.3493307 C201.219761,15.3202055 203.501494,12.4331151 206.574848,12.4331151 C208.390921,12.4331151 209.508505,13.0850387 210.160428,13.9232262 C209.182543,14.295754 208.204657,15.3667714 208.204657,16.8568826 C208.204657,18.6263896 209.415373,20.1630668 211.697105,20.1630668 C214.118536,20.1630668 215.422383,18.4866917 215.422383,16.158393 C215.422383,12.8522088 212.209331,9.08036494 205.922925,9.08036494 C198.844897,9.08036494 193.908903,13.8300943 193.908903,20.8615564 C193.908903,27.4273587 198.286105,31.8511262 205.690095,31.8511262 L205.690095,31.8511262 Z M239.295888,21.3737821 C239.62185,14.295754 236.175968,9.08036494 228.818544,9.08036494 C222.252742,9.08036494 217.363315,14.0629242 217.363315,20.6752925 C217.363315,27.3807927 221.787082,31.8511262 229.051374,31.8511262 C235.151517,31.8511262 238.224871,28.8709039 239.063058,24.3074385 L235.430912,24.3074385 C234.453027,27.0548309 232.823218,28.1258483 230.215523,28.1258483 C226.769641,28.1258483 224.720738,26.4494733 224.441343,21.3737821 L239.295888,21.3737821 Z M228.678846,12.2468512 C231.193409,12.2468512 232.404124,14.0163582 232.636954,18.4401257 L224.487909,18.4401257 C224.767304,13.7835283 226.257416,12.2468512 228.678846,12.2468512 L228.678846,12.2468512 Z M240.260981,31.3854665 L254.323905,31.3854665 L254.323905,27.5204907 L250.272665,27.5204907 L250.272665,17.9279 C251.064287,15.2270735 252.600964,13.8300943 253.858245,13.7369623 C253.858245,13.8766603 253.811679,14.0163582 253.811679,14.1094901 C253.811679,16.2515249 255.394923,17.4156743 257.443825,17.4156743 C259.446162,17.4156743 261.075971,15.7392992 261.075971,13.4110005 C261.075971,11.1292678 259.35303,9.12693091 256.652204,9.12693091 C253.671981,9.12693091 251.157419,11.1292678 249.853572,15.1805075 L249.853572,9.59259065 L240.260981,9.59259065 L240.260981,13.4575665 L243.474033,13.4575665 L243.474033,27.5204907 L240.260981,27.5204907 L240.260981,31.3854665 Z M262.381865,32.1770881 C264.75673,32.1770881 266.572803,30.3144491 266.572803,28.0327164 C266.572803,25.7509836 264.75673,23.9349107 262.428431,23.9349107 C260.053567,23.9349107 258.237494,25.7509836 258.237494,28.0792823 C258.237494,30.3610151 260.053567,32.1770881 262.381865,32.1770881 L262.381865,32.1770881 Z M270.709841,31.3854665 L283.142956,31.3854665 L283.142956,27.5204907 L280.721525,27.5204907 L280.721525,18.9989174 C280.721525,15.8789971 282.723862,13.6903964 284.912463,13.6903964 C285.843783,13.6903964 286.542272,13.9697922 287.054498,14.435452 C287.752987,15.1339416 288.032383,16.2980909 288.032383,17.7416361 L288.032383,27.5204907 L285.564387,27.5204907 L285.564387,31.3854665 L297.997502,31.3854665 L297.997502,27.5204907 L294.877581,27.5204907 L294.877581,16.8103166 C294.877581,12.2934171 292.921811,9.12693091 288.218647,9.12693091 C284.213973,9.12693091 281.839109,11.6414935 280.302432,15.3202055 L280.302432,9.59259065 L270.709841,9.59259065 L270.709841,13.4575665 L273.922893,13.4575665 L273.922893,27.5204907 L270.709841,27.5204907 L270.709841,31.3854665 Z M319.873537,21.3737821 C320.199498,14.295754 316.753616,9.08036494 309.396192,9.08036494 C302.83039,9.08036494 297.940963,14.0629242 297.940963,20.6752925 C297.940963,27.3807927 302.36473,31.8511262 309.629022,31.8511262 C315.729165,31.8511262 318.802519,28.8709039 319.640707,24.3074385 L316.008561,24.3074385 C315.030675,27.0548309 313.400866,28.1258483 310.793172,28.1258483 C307.34729,28.1258483 305.298387,26.4494733 305.018991,21.3737821 L319.873537,21.3737821 Z M309.256495,12.2468512 C311.771057,12.2468512 312.981772,14.0163582 313.214602,18.4401257 L305.065557,18.4401257 C305.344953,13.7835283 306.835064,12.2468512 309.256495,12.2468512 L309.256495,12.2468512 Z M324.182332,4.70316338 L324.182332,9.82542052 L320.177658,9.82542052 L320.177658,13.4575665 L324.042634,13.4575665 L324.042634,24.4005704 C324.042634,29.3831296 326.370933,31.8511262 331.120662,31.8511262 C335.497863,31.8511262 337.779596,29.5693935 338.804048,24.2608725 L336.010089,23.4692509 C335.171902,26.4960392 334.519978,27.5670566 333.122999,27.5670566 C331.539756,27.5670566 330.841266,26.4494733 330.841266,24.4471364 L330.841266,13.4575665 L337.826162,13.4575665 L337.826162,9.82542052 L330.841266,9.82542052 L330.841266,3.91154182 L324.182332,4.70316338 Z" id="masthead"></path>
        </g>
    </g>
</svg>