<?xml version="1.0" encoding="UTF-8"?>
<svg width="512px" height="41px" viewBox="0 0 512 41" version="1.1" xmlns="http://www.w3.org/2000/svg" xmlns:xlink="http://www.w3.org/1999/xlink">
    <!-- Generator: Sketch 49.3 (51167) - http://www.bohemiancoding.com/sketch -->
    <title>6</title>
    <desc>Created with Sketch.</desc>
    <defs>
        <linearGradient x1="50%" y1="0%" x2="50%" y2="100%" id="linearGradient-1">
            <stop stop-color="#8EB2EE" offset="0%"></stop>
            <stop stop-color="#AFA0D9" offset="100%"></stop>
        </linearGradient>
    </defs>
    <g id="Page-1" stroke="none" stroke-width="1" fill="none" fill-rule="evenodd">
        <g id="6" transform="translate(0.000000, 0.862382)" fill="url(#linearGradient-1)">
            <path d="M0,38.8739001 L0,33.8560525 L5.19087687,33.8560525 L5.19087687,5.9406702 L0,5.9406702 L0,0.922822555 L18.860186,0.922822555 C30.7992028,0.922822555 35.4133156,5.70996456 35.4133156,12.4581045 C35.4133156,18.9755388 30.9145556,24.1664157 18.9755388,24.1664157 L14.5921317,24.1664157 L14.5921317,33.8560525 L20.1867434,33.8560525 L20.1867434,38.8739001 L0,38.8739001 Z M14.5921317,19.3792737 L18.2834219,19.3792737 C23.8780336,19.3792737 25.3776203,17.0145409 25.3776203,12.4004281 C25.3776203,8.01702095 23.8203572,5.70996456 18.2257455,5.70996456 L14.5921317,5.70996456 L14.5921317,19.3792737 Z M38.4124889,38.8739001 L55.8307646,38.8739001 L55.8307646,34.0867581 L50.812917,34.0867581 L50.812917,22.2054177 C51.7934159,18.860186 53.6967374,17.1298937 55.2540005,17.0145409 C55.2540005,17.1875701 55.1963241,17.3605993 55.1963241,17.4759521 C55.1963241,20.129067 57.157322,21.5709772 59.695084,21.5709772 C62.1751697,21.5709772 64.193844,19.4946265 64.193844,16.610806 C64.193844,13.7846619 62.0598168,11.3045763 58.7145851,11.3045763 C55.0232949,11.3045763 51.9087687,13.7846619 50.2938293,18.8025096 L50.2938293,11.8813404 L38.4124889,11.8813404 L38.4124889,16.6684824 L42.3921611,16.6684824 L42.3921611,34.0867581 L38.4124889,34.0867581 L38.4124889,38.8739001 Z M79.3535628,39.4506642 C70.7597778,39.4506642 64.7614311,33.8560525 64.7614311,25.4929731 C64.7614311,17.1875701 71.0481598,11.2468999 79.4112392,11.2468999 C87.9473478,11.2468999 93.9456945,16.899188 93.9456945,25.204591 C93.9456945,33.5676704 87.6589658,39.4506642 79.3535628,39.4506642 Z M79.526592,35.5286684 C83.2178823,35.5286684 84.7174689,32.5871715 84.7174689,25.3199439 C84.7174689,18.0527162 82.9295002,15.1688958 79.1805336,15.1688958 C75.5469198,15.1688958 73.9896567,18.1103926 73.9896567,25.3776203 C73.9896567,32.7025243 75.8353018,35.5286684 79.526592,35.5286684 Z M96.22522,39.3929878 L100.666304,39.3929878 L101.589126,35.759374 C103.319418,37.7203719 106.145562,39.4506642 110.35594,39.4506642 C116.931051,39.4506642 120.564665,35.2402863 120.564665,30.5684971 C120.564665,25.204591 116.584993,23.3012695 110.701999,21.7440065 C105.568798,20.417449 104.011535,19.6676557 104.011535,17.7066578 C104.011535,16.1493947 105.165063,15.1112193 107.414443,15.1112193 C110.298264,15.1112193 113.066732,17.3605993 115.143082,20.5904783 L119.584166,20.5904783 L119.584166,11.3622527 L115.085406,11.3622527 L114.162583,14.5921317 C112.489968,12.5734573 109.952205,11.2468999 106.433944,11.2468999 C100.435598,11.2468999 96.6289548,15.2265722 96.6289548,19.9560378 C96.6289548,24.8008562 99.8011574,26.8772069 106.260915,28.5498228 C111.624821,29.9340566 113.124408,30.7415264 113.124408,32.8178771 C113.124408,34.490493 112.028556,35.5863448 109.606147,35.5863448 C106.318592,35.5863448 103.031036,33.1062592 100.666304,29.4726454 L96.22522,29.4726454 L96.22522,39.3929878 Z M127.082099,5.82531738 L127.082099,12.1697224 L122.121928,12.1697224 L122.121928,16.6684824 L126.90907,16.6684824 L126.90907,30.2224387 C126.90907,36.3938145 129.79289,39.4506642 135.675884,39.4506642 C141.097467,39.4506642 143.923611,36.6245202 145.192492,30.0494095 L141.731907,29.0689105 C140.693732,32.8178771 139.886262,34.1444345 138.15597,34.1444345 C136.194972,34.1444345 135.329826,32.7602007 135.329826,30.2801151 L135.329826,16.6684824 L143.981287,16.6684824 L143.981287,12.1697224 L135.329826,12.1697224 L135.329826,4.84481842 L127.082099,5.82531738 Z M155.21901,39.3929878 C150.431868,39.3929878 146.971284,36.6245202 146.971284,32.241113 C146.971284,30.4531443 147.6634,28.7805284 148.874605,27.5693238 C150.662574,25.7813551 153.431041,24.6278269 160.063829,23.7626808 C163.236031,23.3012695 163.524413,23.2435931 163.524413,22.5514762 L163.524413,20.1867434 C163.524413,16.7261588 161.909474,15.4572778 158.564242,15.4572778 C157.410714,15.4572778 156.199509,15.6879834 155.103657,16.1493947 C155.968803,16.7838352 156.487891,17.7643342 156.487891,19.0908916 C156.487891,21.109566 154.757599,22.666829 152.392866,22.666829 C149.451369,22.666829 148.009459,20.7635075 148.009459,18.6294803 C148.009459,13.6693091 154.180835,11.3045763 160.813622,11.3045763 C168.945996,11.3045763 171.829816,15.1112193 171.829816,20.7058311 L171.829816,32.9909064 C171.829816,34.3174638 172.348904,34.6058458 173.271726,34.6058458 C173.906167,34.6058458 174.540607,33.9714053 175.059695,32.0104074 L177.885839,32.9332299 C176.789987,37.3743135 174.65596,39.3929878 170.791641,39.3929878 C167.504085,39.3929878 164.908647,37.6626955 164.447236,33.6830233 L164.158854,33.6830233 C162.428561,37.7780484 159.198682,39.3929878 155.21901,39.3929878 Z M159.141006,34.490493 C161.736444,34.490493 163.524413,32.0680838 163.524413,28.6074992 L163.524413,25.9543844 C163.005325,26.0697372 162.370885,26.1274136 160.928975,26.4157956 C156.83395,27.1079126 155.565069,28.43447 155.565069,31.0299084 C155.565069,32.8755535 156.603244,34.490493 159.141006,34.490493 Z M180.280717,5.82531738 L188.528444,4.84481842 L188.528444,12.1697224 L197.179906,12.1697224 L197.179906,16.6684824 L188.528444,16.6684824 L188.528444,30.2801151 C188.528444,32.7602007 189.39359,34.1444345 191.354588,34.1444345 C193.08488,34.1444345 193.89235,32.8178771 194.930526,29.0689105 L198.39111,30.0494095 C197.122229,36.6245202 194.296085,39.4506642 188.874503,39.4506642 C182.991509,39.4506642 180.107688,36.3938145 180.107688,30.2224387 L180.107688,16.6684824 L175.320546,16.6684824 L175.320546,12.1697224 L180.280717,12.1697224 L180.280717,5.82531738 Z M227.277814,26.4734721 L208.87904,26.4734721 C209.225098,32.7602007 211.76286,34.8365515 216.030915,34.8365515 C219.260793,34.8365515 221.279468,33.509994 222.490672,30.1070859 L226.989432,30.1070859 C225.951257,35.759374 222.144614,39.4506642 214.589004,39.4506642 C205.591484,39.4506642 200.112225,33.9137289 200.112225,25.6083259 C200.112225,17.4182757 206.168248,11.2468999 214.300622,11.2468999 C223.413495,11.2468999 227.681549,17.7066578 227.277814,26.4734721 Z M214.127593,15.1688958 C211.12842,15.1688958 209.282775,17.0722173 208.936716,22.8398582 L219.030088,22.8398582 C218.741706,17.3605993 217.242119,15.1688958 214.127593,15.1688958 Z M249.993143,39.7967227 C260.259544,39.7967227 265.854156,33.509994 266.834655,23.7050044 L261.297719,23.7050044 C260.31722,30.0494095 257.029665,34.3751402 251.3197,34.3751402 C244.802266,34.3751402 240.822594,29.9340566 240.822594,19.5523029 C240.822594,8.70913787 244.629237,4.7294656 250.050819,4.7294656 C254.837961,4.7294656 258.06784,8.24772659 260.374897,15.2265722 L266.084861,15.2265722 L266.084861,0.115352819 L260.893984,0.115352819 L259.68278,4.49875996 C257.375723,1.67261588 253.74211,1.42108547e-14 248.897291,1.42108547e-14 C238.976949,1.42108547e-14 230.556193,8.305403 230.556193,20.129067 C230.556193,31.8373782 238.169479,39.7967227 249.993143,39.7967227 Z M276.132348,39.3929878 C271.345206,39.3929878 267.884622,36.6245202 267.884622,32.241113 C267.884622,30.4531443 268.576738,28.7805284 269.787943,27.5693238 C271.575912,25.7813551 274.344379,24.6278269 280.977167,23.7626808 C284.149369,23.3012695 284.437751,23.2435931 284.437751,22.5514762 L284.437751,20.1867434 C284.437751,16.7261588 282.822812,15.4572778 279.47758,15.4572778 C278.324052,15.4572778 277.112847,15.6879834 276.016995,16.1493947 C276.882141,16.7838352 277.401229,17.7643342 277.401229,19.0908916 C277.401229,21.109566 275.670937,22.666829 273.306204,22.666829 C270.364707,22.666829 268.922797,20.7635075 268.922797,18.6294803 C268.922797,13.6693091 275.094173,11.3045763 281.72696,11.3045763 C289.859334,11.3045763 292.743154,15.1112193 292.743154,20.7058311 L292.743154,32.9909064 C292.743154,34.3174638 293.262242,34.6058458 294.185064,34.6058458 C294.819505,34.6058458 295.453945,33.9714053 295.973033,32.0104074 L298.799177,32.9332299 C297.703325,37.3743135 295.569298,39.3929878 291.704979,39.3929878 C288.417423,39.3929878 285.821985,37.6626955 285.360574,33.6830233 L285.072192,33.6830233 C283.341899,37.7780484 280.11202,39.3929878 276.132348,39.3929878 Z M280.054344,34.490493 C282.649782,34.490493 284.437751,32.0680838 284.437751,28.6074992 L284.437751,25.9543844 C283.918663,26.0697372 283.284223,26.1274136 281.842313,26.4157956 C277.747288,27.1079126 276.478407,28.43447 276.478407,31.0299084 C276.478407,32.8755535 277.516582,34.490493 280.054344,34.490493 Z M299.961882,38.8739001 L315.361484,38.8739001 L315.361484,34.0867581 L312.36231,34.0867581 L312.36231,23.5319752 C312.36231,19.6676557 314.842396,16.9568645 317.553187,16.9568645 C318.706715,16.9568645 319.571862,17.3029229 320.206302,17.879687 C321.071448,18.7448332 321.417507,20.1867434 321.417507,21.9747121 L321.417507,34.0867581 L318.360657,34.0867581 L318.360657,38.8739001 L333.760258,38.8739001 L333.760258,34.0867581 L329.895939,34.0867581 L329.895939,20.8211839 C329.895939,15.2265722 327.47353,11.3045763 321.648212,11.3045763 C316.688041,11.3045763 313.746544,14.4191024 311.843223,18.9755388 L311.843223,11.8813404 L299.961882,11.8813404 L299.961882,16.6684824 L303.941555,16.6684824 L303.941555,34.0867581 L299.961882,34.0867581 L299.961882,38.8739001 Z M348.479534,39.4506642 C355.285351,39.4506642 359.3227,35.4133156 360.591581,29.5879982 L356.092821,29.5879982 C354.996969,32.7025243 352.862942,34.5481694 349.748416,34.5481694 C345.249656,34.5481694 342.942599,30.8568792 342.942599,25.204591 C342.942599,18.9755388 345.768743,15.3996014 349.575386,15.3996014 C351.824766,15.3996014 353.209,16.2070711 354.01647,17.2452465 C352.805265,17.7066578 351.594061,19.0332152 351.594061,20.8788603 C351.594061,23.0705639 353.093647,24.9738854 355.919791,24.9738854 C358.918965,24.9738854 360.533904,22.8975347 360.533904,20.0137142 C360.533904,15.9186891 356.554232,11.2468999 348.767917,11.2468999 C340.001102,11.2468999 333.887403,17.1298937 333.887403,25.8390315 C333.887403,33.9714053 339.308985,39.4506642 348.479534,39.4506642 Z M390.170402,26.4734721 L371.771627,26.4734721 C372.117686,32.7602007 374.655448,34.8365515 378.923502,34.8365515 C382.153381,34.8365515 384.172055,33.509994 385.38326,30.1070859 L389.88202,30.1070859 C388.843844,35.759374 385.037201,39.4506642 377.481592,39.4506642 C368.484072,39.4506642 363.004813,33.9137289 363.004813,25.6083259 C363.004813,17.4182757 369.060836,11.2468999 377.19321,11.2468999 C386.306082,11.2468999 390.574137,17.7066578 390.170402,26.4734721 Z M377.02018,15.1688958 C374.021007,15.1688958 372.175362,17.0722173 371.829303,22.8398582 L381.922675,22.8398582 C381.634293,17.3605993 380.134706,15.1688958 377.02018,15.1688958 Z M391.633281,38.8739001 L391.633281,34.0867581 L395.612953,34.0867581 L395.612953,16.6684824 L391.633281,16.6684824 L391.633281,11.8813404 L403.514621,11.8813404 L403.514621,18.8025096 C405.12956,13.7846619 408.244087,11.3045763 411.935377,11.3045763 C415.280609,11.3045763 417.414636,13.7846619 417.414636,16.610806 C417.414636,19.4946265 415.395961,21.5709772 412.915876,21.5709772 C410.378114,21.5709772 408.417116,20.129067 408.417116,17.4759521 C408.417116,17.3605993 408.474792,17.1875701 408.474792,17.0145409 C406.917529,17.1298937 405.014208,18.860186 404.033709,22.2054177 L404.033709,34.0867581 L409.051556,34.0867581 L409.051556,38.8739001 L391.633281,38.8739001 Z M418.291573,39.8543991 C415.407753,39.8543991 413.158373,37.6050191 413.158373,34.7788751 C413.158373,31.8950546 415.407753,29.6456746 418.34925,29.6456746 C421.23307,29.6456746 423.48245,31.8950546 423.48245,34.7211986 C423.48245,37.5473427 421.23307,39.8543991 418.291573,39.8543991 Z M426.876182,38.8739001 L442.275783,38.8739001 L442.275783,34.0867581 L439.27661,34.0867581 L439.27661,23.5319752 C439.27661,19.6676557 441.756695,16.9568645 444.467487,16.9568645 C445.621015,16.9568645 446.486161,17.3029229 447.120601,17.879687 C447.985748,18.7448332 448.331806,20.1867434 448.331806,21.9747121 L448.331806,34.0867581 L445.274956,34.0867581 L445.274956,38.8739001 L460.674558,38.8739001 L460.674558,34.0867581 L456.810238,34.0867581 L456.810238,20.8211839 C456.810238,15.2265722 454.387829,11.3045763 448.562512,11.3045763 C443.60234,11.3045763 440.660843,14.4191024 438.757522,18.9755388 L438.757522,11.8813404 L426.876182,11.8813404 L426.876182,16.6684824 L430.855854,16.6684824 L430.855854,34.0867581 L426.876182,34.0867581 L426.876182,38.8739001 Z M488.437879,26.4734721 L470.039105,26.4734721 C470.385163,32.7602007 472.922925,34.8365515 477.190979,34.8365515 C480.420858,34.8365515 482.439533,33.509994 483.650737,30.1070859 L488.149497,30.1070859 C487.111322,35.759374 483.304679,39.4506642 475.749069,39.4506642 C466.751549,39.4506642 461.27229,33.9137289 461.27229,25.6083259 C461.27229,17.4182757 467.328313,11.2468999 475.460687,11.2468999 C484.57356,11.2468999 488.841614,17.7066578 488.437879,26.4734721 Z M475.287658,15.1688958 C472.288485,15.1688958 470.442839,17.0722173 470.096781,22.8398582 L480.190153,22.8398582 C479.901771,17.3605993 478.402184,15.1688958 475.287658,15.1688958 Z M493.889607,5.82531738 L493.889607,12.1697224 L488.929436,12.1697224 L488.929436,16.6684824 L493.716578,16.6684824 L493.716578,30.2224387 C493.716578,36.3938145 496.600399,39.4506642 502.483392,39.4506642 C507.904975,39.4506642 510.731119,36.6245202 512,30.0494095 L508.539415,29.0689105 C507.50124,32.8178771 506.69377,34.1444345 504.963478,34.1444345 C503.00248,34.1444345 502.137334,32.7602007 502.137334,30.2801151 L502.137334,16.6684824 L510.788795,16.6684824 L510.788795,12.1697224 L502.137334,12.1697224 L502.137334,4.84481842 L493.889607,5.82531738 Z" id="ProstateCancer.net"></path>
        </g>
    </g>
</svg>