<?xml version="1.0" encoding="UTF-8"?>
<svg width="500px" height="41px" viewBox="0 0 500 41" version="1.1" xmlns="http://www.w3.org/2000/svg" xmlns:xlink="http://www.w3.org/1999/xlink">
    <!-- Generator: Sketch 49.2 (51160) - http://www.bohemiancoding.com/sketch -->
    <title>masthead</title>
    <desc>Created with Sketch.</desc>
    <defs>
        <linearGradient x1="50%" y1="0%" x2="50%" y2="244.481537%" id="linearGradient-1">
            <stop stop-color="#FD7982" offset="0%"></stop>
            <stop stop-color="#F773D9" offset="100%"></stop>
        </linearGradient>
    </defs>
    <g id="Page-1" stroke="none" stroke-width="1" fill="none" fill-rule="evenodd">
        <g id="bladdercancer.net" transform="translate(-56.000000, -140.000000)" fill="url(#linearGradient-1)">
            <g id="masthead" transform="translate(56.000000, 140.000000)">
                <path d="M0,40.0311268 L19.9575473,40.0311268 C32.2569659,40.0311268 36.2600786,35.2738045 36.2600786,29.4721919 C36.2600786,24.4247889 32.6050627,21.1178698 24.5988373,20.2476279 L24.5988373,19.841515 C32.2569659,18.6811925 34.8676916,14.9101443 34.8676916,11.08108 C34.8676916,6.55582221 32.0249014,1.85651602 19.6094505,1.85651602 L0,1.85651602 L0,6.90391896 L5.22145132,6.90391896 L5.22145132,34.9837238 L0,34.9837238 L0,40.0311268 Z M14.6780798,17.7529345 L14.6780798,6.90391896 L18.6811925,6.90391896 C23.9606599,6.90391896 25.3530469,8.52837048 25.3530469,11.9513219 C25.3530469,15.5483217 23.7285954,17.7529345 18.5651602,17.7529345 L14.6780798,17.7529345 Z M14.6780798,34.9837238 L14.6780798,22.626289 L18.5651602,22.626289 C24.5408212,22.626289 26.5713856,24.9469341 26.5713856,28.60195 C26.5713856,33.3012562 24.6568534,34.9837238 18.6811925,34.9837238 L14.6780798,34.9837238 Z M38.1251792,40.0311268 L55.4720008,40.0311268 L55.4720008,35.2157883 L51.0627752,35.2157883 L51.0627752,0 L38.1251792,0 L38.1251792,4.93137069 L42.5344047,4.93137069 L42.5344047,35.2157883 L38.1251792,35.2157883 L38.1251792,40.0311268 Z M66.1512602,40.5532719 C70.1543729,40.5532719 73.4032759,38.9288204 75.1437597,34.8096754 L75.4338403,34.8096754 C75.8979693,38.8127881 78.508695,40.5532719 81.8156141,40.5532719 C85.7026946,40.5532719 87.8492912,38.5227075 88.9515976,34.0554658 L86.1088074,33.1272078 C85.5866623,35.0997561 84.9484849,35.7379335 84.3103075,35.7379335 C83.3820495,35.7379335 82.8599044,35.4478528 82.8599044,34.1134819 L82.8599044,21.7560472 C82.8599044,16.128483 79.9590981,12.2994187 71.7788244,12.2994187 C65.1069699,12.2994187 58.8992445,14.6780798 58.8992445,19.6674666 C58.8992445,21.8140633 60.3496476,23.7285954 63.30847,23.7285954 C65.6871312,23.7285954 67.4276149,22.16216 67.4276149,20.1315956 C67.4276149,18.7972247 66.9054698,17.8109506 66.0352279,17.1727732 C67.1375343,16.7086442 68.355873,16.4765797 69.5161955,16.4765797 C72.8811308,16.4765797 74.5055823,17.7529345 74.5055823,21.233902 L74.5055823,23.6125632 C74.5055823,24.3087567 74.2155017,24.3667728 71.0246147,24.8309018 C64.3527603,25.7011437 61.5679862,26.8614662 59.7694863,28.6599661 C58.5511477,29.8783048 57.8549542,31.5607724 57.8549542,33.3592723 C57.8549542,37.7684979 61.3359217,40.5532719 66.1512602,40.5532719 Z M70.0963567,35.6219012 C67.5436472,35.6219012 66.4993569,33.9974497 66.4993569,32.1409337 C66.4993569,29.530208 67.7757117,28.1958371 71.8948566,27.4996436 C73.3452598,27.209563 73.9834372,27.1515468 74.5055823,27.0355146 L74.5055823,29.7042564 C74.5055823,33.1852239 72.7070824,35.6219012 70.0963567,35.6219012 Z M99.9209376,40.611288 C104.330163,40.611288 107.347002,38.1165946 108.971453,34.3455464 L108.971453,40.0311268 L120.806743,40.0311268 L120.806743,35.2157883 L116.919662,35.2157883 L116.919662,0 L104.272147,0 L104.272147,4.93137069 L108.449308,4.93137069 L108.449308,16.8826926 C106.76684,14.1559347 104.156115,12.2414025 100.269034,12.2414025 C97.3682281,12.2414025 94.9315508,13.2856928 93.1330509,15.1422088 C90.6383575,17.5788861 89.1879544,21.698031 89.1879544,26.5713856 C89.1879544,31.2126756 90.406293,35.2738045 92.9009864,37.7684979 C94.6414702,39.5089816 96.9621152,40.611288 99.9209376,40.611288 Z M103.459921,35.6219012 C100.03697,35.6219012 98.2964861,32.4890304 98.2964861,26.6294017 C98.2964861,20.5957246 99.9209376,17.3468216 103.459921,17.3468216 C107.347002,17.3468216 108.971453,21.3499343 108.971453,26.4553533 C108.971453,31.7928369 106.824857,35.6219012 103.459921,35.6219012 Z M133.003006,40.611288 C137.412232,40.611288 140.42907,38.1165946 142.053522,34.3455464 L142.053522,40.0311268 L153.888811,40.0311268 L153.888811,35.2157883 L150.001731,35.2157883 L150.001731,0 L137.354216,0 L137.354216,4.93137069 L141.531377,4.93137069 L141.531377,16.8826926 C139.848909,14.1559347 137.238183,12.2414025 133.351103,12.2414025 C130.450297,12.2414025 128.013619,13.2856928 126.215119,15.1422088 C123.720426,17.5788861 122.270023,21.698031 122.270023,26.5713856 C122.270023,31.2126756 123.488362,35.2738045 125.983055,37.7684979 C127.723539,39.5089816 130.044184,40.611288 133.003006,40.611288 Z M136.54199,35.6219012 C133.119038,35.6219012 131.378555,32.4890304 131.378555,26.6294017 C131.378555,20.5957246 133.003006,17.3468216 136.54199,17.3468216 C140.42907,17.3468216 142.053522,21.3499343 142.053522,26.4553533 C142.053522,31.7928369 139.906925,35.6219012 136.54199,35.6219012 Z M181.753721,27.5576597 C182.159834,18.7392086 177.86664,12.2414025 168.700093,12.2414025 C160.519819,12.2414025 154.428126,18.449128 154.428126,26.6874178 C154.428126,35.0417399 159.939658,40.611288 168.990173,40.611288 C176.590286,40.611288 180.41935,36.898256 181.46364,31.2126756 L176.938382,31.2126756 C175.720044,34.6356271 173.689479,35.969998 170.440576,35.969998 C166.147383,35.969998 163.594674,33.8814174 163.246577,27.5576597 L181.753721,27.5576597 Z M168.526044,16.1864991 C171.658915,16.1864991 173.167334,18.3911119 173.457415,23.9026438 L163.304593,23.9026438 C163.65269,18.1010312 165.509206,16.1864991 168.526044,16.1864991 Z M183.739146,40.0311268 L201.260016,40.0311268 L201.260016,35.2157883 L196.212613,35.2157883 L196.212613,23.2644664 C197.198887,19.8995311 199.113419,18.1590474 200.679855,18.0430151 C200.679855,18.2170635 200.621839,18.3911119 200.621839,18.5071441 C200.621839,21.1758859 202.594387,22.626289 205.147096,22.626289 C207.64179,22.626289 209.672354,20.5377085 209.672354,17.6369022 C209.672354,14.7941121 207.525758,12.2994187 204.160822,12.2994187 C200.44779,12.2994187 197.314919,14.7941121 195.690468,19.841515 L195.690468,12.8795799 L183.739146,12.8795799 L183.739146,17.6949184 L187.742259,17.6949184 L187.742259,35.2157883 L183.739146,35.2157883 L183.739146,40.0311268 Z M231.486417,40.9593848 C241.813288,40.9593848 247.440852,34.6356271 248.427126,24.7728857 L242.857578,24.7728857 C241.871304,31.1546595 238.564385,35.505869 232.820788,35.505869 C226.264966,35.505869 222.261853,31.0386273 222.261853,20.5957246 C222.261853,9.688693 226.090918,5.68558032 231.544434,5.68558032 C236.359772,5.68558032 239.608675,9.22456399 241.92932,16.2445152 L247.672917,16.2445152 L247.672917,1.04429026 L242.451465,1.04429026 L241.233127,5.45351582 C238.912482,2.61072566 235.257466,0.928258012 230.384111,0.928258012 C220.405337,0.928258012 211.934983,9.28258012 211.934983,21.1758859 C211.934983,32.9531594 219.593112,40.9593848 231.486417,40.9593848 Z M257.8472,40.5532719 C261.850313,40.5532719 265.099216,38.9288204 266.839699,34.8096754 L267.12978,34.8096754 C267.593909,38.8127881 270.204635,40.5532719 273.511554,40.5532719 C277.398634,40.5532719 279.545231,38.5227075 280.647537,34.0554658 L277.804747,33.1272078 C277.282602,35.0997561 276.644425,35.7379335 276.006247,35.7379335 C275.077989,35.7379335 274.555844,35.4478528 274.555844,34.1134819 L274.555844,21.7560472 C274.555844,16.128483 271.655038,12.2994187 263.474764,12.2994187 C256.80291,12.2994187 250.595184,14.6780798 250.595184,19.6674666 C250.595184,21.8140633 252.045587,23.7285954 255.00441,23.7285954 C257.383071,23.7285954 259.123555,22.16216 259.123555,20.1315956 C259.123555,18.7972247 258.60141,17.8109506 257.731168,17.1727732 C258.833474,16.7086442 260.051813,16.4765797 261.212135,16.4765797 C264.577071,16.4765797 266.201522,17.7529345 266.201522,21.233902 L266.201522,23.6125632 C266.201522,24.3087567 265.911441,24.3667728 262.720555,24.8309018 C256.0487,25.7011437 253.263926,26.8614662 251.465426,28.6599661 C250.247087,29.8783048 249.550894,31.5607724 249.550894,33.3592723 C249.550894,37.7684979 253.031862,40.5532719 257.8472,40.5532719 Z M261.792296,35.6219012 C259.239587,35.6219012 258.195297,33.9974497 258.195297,32.1409337 C258.195297,29.530208 259.471651,28.1958371 263.590796,27.4996436 C265.0412,27.209563 265.679377,27.1515468 266.201522,27.0355146 L266.201522,29.7042564 C266.201522,33.1852239 264.403022,35.6219012 261.792296,35.6219012 Z M281.803568,40.0311268 L297.293873,40.0311268 L297.293873,35.2157883 L294.277035,35.2157883 L294.277035,24.5988373 C294.277035,20.7117569 296.771728,17.984999 299.498486,17.984999 C300.658808,17.984999 301.52905,18.3330957 302.167228,18.913257 C303.03747,19.7834989 303.385566,21.233902 303.385566,23.0324019 L303.385566,35.2157883 L300.310712,35.2157883 L300.310712,40.0311268 L315.801017,40.0311268 L315.801017,35.2157883 L311.913937,35.2157883 L311.913937,21.8720794 C311.913937,16.2445152 309.47726,12.2994187 303.617631,12.2994187 C298.628244,12.2994187 295.669422,15.4322894 293.75489,20.0155634 L293.75489,12.8795799 L281.803568,12.8795799 L281.803568,17.6949184 L285.80668,17.6949184 L285.80668,35.2157883 L281.803568,35.2157883 L281.803568,40.0311268 Z M331.59428,40.611288 C338.440183,40.611288 342.501312,36.5501592 343.777667,30.6905305 L339.252409,30.6905305 C338.150103,33.8234013 336.003506,35.6799173 332.870635,35.6799173 C328.345377,35.6799173 326.024732,31.9668853 326.024732,26.281305 C326.024732,20.0155634 328.867522,16.4185636 332.696587,16.4185636 C334.959216,16.4185636 336.351603,17.2307893 337.163828,18.2750796 C335.94549,18.7392086 334.727151,20.0735795 334.727151,21.9300955 C334.727151,24.1347083 336.23557,26.0492405 339.078361,26.0492405 C342.095199,26.0492405 343.719651,23.9606599 343.719651,21.0598536 C343.719651,16.9407087 339.716538,12.2414025 331.884361,12.2414025 C323.06591,12.2414025 316.916201,18.1590474 316.916201,26.9194823 C316.916201,35.0997561 322.369716,40.611288 331.59428,40.611288 Z M373.544232,27.5576597 C373.950344,18.7392086 369.657151,12.2414025 360.490603,12.2414025 C352.310329,12.2414025 346.218636,18.449128 346.218636,26.6874178 C346.218636,35.0417399 351.730168,40.611288 360.780684,40.611288 C368.380796,40.611288 372.209861,36.898256 373.254151,31.2126756 L368.728893,31.2126756 C367.510554,34.6356271 365.47999,35.969998 362.231087,35.969998 C357.937894,35.969998 355.385184,33.8814174 355.037087,27.5576597 L373.544232,27.5576597 Z M360.316555,16.1864991 C363.449426,16.1864991 364.957845,18.3911119 365.247926,23.9026438 L355.095104,23.9026438 C355.4432,18.1010312 357.299716,16.1864991 360.316555,16.1864991 Z M375.529657,40.0311268 L393.050527,40.0311268 L393.050527,35.2157883 L388.003124,35.2157883 L388.003124,23.2644664 C388.989398,19.8995311 390.90393,18.1590474 392.470365,18.0430151 C392.470365,18.2170635 392.412349,18.3911119 392.412349,18.5071441 C392.412349,21.1758859 394.384897,22.626289 396.937607,22.626289 C399.4323,22.626289 401.462865,20.5377085 401.462865,17.6369022 C401.462865,14.7941121 399.316268,12.2994187 395.951333,12.2994187 C392.238301,12.2994187 389.10543,14.7941121 387.480979,19.841515 L387.480979,12.8795799 L375.529657,12.8795799 L375.529657,17.6949184 L379.532769,17.6949184 L379.532769,35.2157883 L375.529657,35.2157883 L375.529657,40.0311268 Z M403.792094,41.0174009 C406.750917,41.0174009 409.013546,38.6967559 409.013546,35.8539657 C409.013546,33.0111755 406.750917,30.7485466 403.850111,30.7485466 C400.891288,30.7485466 398.628659,33.0111755 398.628659,35.9119818 C398.628659,38.754772 400.891288,41.0174009 403.792094,41.0174009 Z M414.280136,40.0311268 L429.770442,40.0311268 L429.770442,35.2157883 L426.753603,35.2157883 L426.753603,24.5988373 C426.753603,20.7117569 429.248297,17.984999 431.975055,17.984999 C433.135377,17.984999 434.005619,18.3330957 434.643796,18.913257 C435.514038,19.7834989 435.862135,21.233902 435.862135,23.0324019 L435.862135,35.2157883 L432.78728,35.2157883 L432.78728,40.0311268 L448.277586,40.0311268 L448.277586,35.2157883 L444.390506,35.2157883 L444.390506,21.8720794 C444.390506,16.2445152 441.953828,12.2994187 436.0942,12.2994187 C431.104813,12.2994187 428.14599,15.4322894 426.231458,20.0155634 L426.231458,12.8795799 L414.280136,12.8795799 L414.280136,17.6949184 L418.283249,17.6949184 L418.283249,35.2157883 L414.280136,35.2157883 L414.280136,40.0311268 Z M476.258528,27.5576597 C476.664641,18.7392086 472.371447,12.2414025 463.204899,12.2414025 C455.024626,12.2414025 448.932933,18.449128 448.932933,26.6874178 C448.932933,35.0417399 454.444464,40.611288 463.49498,40.611288 C471.095093,40.611288 474.924157,36.898256 475.968447,31.2126756 L471.443189,31.2126756 C470.224851,34.6356271 468.194286,35.969998 464.945383,35.969998 C460.65219,35.969998 458.09948,33.8814174 457.751384,27.5576597 L476.258528,27.5576597 Z M463.030851,16.1864991 C466.163722,16.1864991 467.672141,18.3911119 467.962222,23.9026438 L457.8094,23.9026438 C458.157497,18.1010312 460.014013,16.1864991 463.030851,16.1864991 Z M481.782937,6.78788671 L481.782937,13.1696605 L476.79355,13.1696605 L476.79355,17.6949184 L481.608888,17.6949184 L481.608888,31.3287079 C481.608888,37.5364334 484.509694,40.611288 490.427339,40.611288 C495.880855,40.611288 498.723645,37.7684979 500,31.1546595 L496.519032,30.1683854 C495.474742,33.9394336 494.662516,35.2738045 492.922033,35.2738045 C490.949484,35.2738045 490.079242,33.8814174 490.079242,31.386724 L490.079242,17.6949184 L498.781661,17.6949184 L498.781661,13.1696605 L490.079242,13.1696605 L490.079242,5.80161257 L481.782937,6.78788671 Z"></path>
            </g>
        </g>
    </g>
</svg>