<?xml version="1.0" encoding="UTF-8"?>
<svg width="500px" height="43px" viewBox="0 0 500 43" version="1.1" xmlns="http://www.w3.org/2000/svg" xmlns:xlink="http://www.w3.org/1999/xlink">
    <!-- Generator: Sketch 49.2 (51160) - http://www.bohemiancoding.com/sketch -->
    <title>masthead</title>
    <desc>Created with Sketch.</desc>
    <defs>
        <linearGradient x1="50%" y1="122.879969%" x2="50%" y2="-48.3358965%" id="linearGradient-1">
            <stop stop-color="#979AED" offset="0%"></stop>
            <stop stop-color="#CA89D6" offset="100%"></stop>
        </linearGradient>
    </defs>
    <g id="Page-1" stroke="none" stroke-width="1" fill="none" fill-rule="evenodd">
        <g id="blood-cancer.com" transform="translate(-56.000000, -140.000000)" fill="url(#linearGradient-1)">
            <g id="masthead" transform="translate(56.000000, 140.000000)">
                <path d="M0,41.4898486 L0,36.2687909 L5.40109421,36.2687909 L5.40109421,7.22290651 L0,7.22290651 L0,2.00184878 L20.2841094,2.00184878 C33.1267111,2.00184878 36.0673069,6.86283357 36.0673069,11.5437819 C36.0673069,15.5045843 33.3667598,19.4053746 25.4451549,20.6056177 L25.4451549,21.0257028 C33.7268327,21.9258852 37.5075987,25.3465782 37.5075987,30.5676359 C37.5075987,36.5688517 33.3667598,41.4898486 20.6441823,41.4898486 L0,41.4898486 Z M15.1830759,18.44518 L19.2038905,18.44518 C24.5449726,18.44518 26.225313,16.164718 26.225313,12.4439642 C26.225313,8.90324693 24.7850212,7.22290651 19.3239148,7.22290651 L15.1830759,7.22290651 L15.1830759,18.44518 Z M15.1830759,36.2687909 L19.3239148,36.2687909 C25.5051671,36.2687909 27.4855683,34.5284383 27.4855683,29.6674535 C27.4855683,25.8866876 25.3851428,23.4862013 19.2038905,23.4862013 L15.1830759,23.4862013 L15.1830759,36.2687909 Z M39.7351648,41.4898486 L57.6788,41.4898486 L57.6788,36.5088395 L53.117876,36.5088395 L53.117876,0.0814597312 L39.7351648,0.0814597312 L39.7351648,5.18249315 L44.2960888,5.18249315 L44.2960888,36.5088395 L39.7351648,36.5088395 L39.7351648,41.4898486 Z M73.9522397,42.0899702 C65.0104282,42.0899702 58.7691638,36.2687909 58.7691638,27.567028 C58.7691638,18.9252773 65.310489,12.744025 74.0122519,12.744025 C82.8940513,12.744025 89.1353157,18.6252165 89.1353157,27.2669672 C89.1353157,35.9687301 82.5939905,42.0899702 73.9522397,42.0899702 Z M74.1322762,38.0091435 C77.9730543,38.0091435 79.5333704,34.9485234 79.5333704,27.3869916 C79.5333704,19.8254597 77.6729935,16.8248518 73.7722033,16.8248518 C69.9914373,16.8248518 68.3711091,19.8854718 68.3711091,27.4470037 C68.3711091,35.0685478 70.2914981,38.0091435 74.1322762,38.0091435 Z M107.264569,42.0899702 C98.322757,42.0899702 92.0814926,36.2687909 92.0814926,27.567028 C92.0814926,18.9252773 98.6228178,12.744025 107.324581,12.744025 C116.20638,12.744025 122.447644,18.6252165 122.447644,27.2669672 C122.447644,35.9687301 115.906319,42.0899702 107.264569,42.0899702 Z M107.444605,38.0091435 C111.285383,38.0091435 112.845699,34.9485234 112.845699,27.3869916 C112.845699,19.8254597 110.985322,16.8248518 107.084532,16.8248518 C103.303766,16.8248518 101.683438,19.8854718 101.683438,27.4470037 C101.683438,35.0685478 103.603827,38.0091435 107.444605,38.0091435 Z M136.626182,42.0899702 C133.565562,42.0899702 131.165075,40.9497392 129.364711,39.1493745 C126.784188,36.5688517 125.523932,32.3680007 125.523932,27.567028 C125.523932,22.5260068 127.024236,18.2651436 129.604759,15.7446329 C131.465136,13.8242439 133.985647,12.744025 136.986255,12.744025 C141.007069,12.744025 143.707616,14.7244262 145.447969,17.5449977 L145.447969,5.18249315 L141.127094,5.18249315 L141.127094,0.0814597312 L154.209744,0.0814597312 L154.209744,36.5088395 L158.230559,36.5088395 L158.230559,41.4898486 L145.988078,41.4898486 L145.988078,35.6086572 C144.307738,39.5094474 141.187106,42.0899702 136.626182,42.0899702 Z M140.286923,36.9289246 C143.767628,36.9289246 145.988078,32.9681222 145.988078,27.4470037 C145.988078,22.1659338 144.307738,18.0250949 140.286923,18.0250949 C136.626182,18.0250949 134.945841,21.3857758 134.945841,27.6270402 C134.945841,33.6882681 136.746206,36.9289246 140.286923,36.9289246 Z M160.727872,29.3073806 L176.331033,29.3073806 L176.331033,23.3061648 L160.727872,23.3061648 L160.727872,29.3073806 Z M200.132108,42.4500432 C210.814272,42.4500432 216.635451,35.908718 217.655658,25.7066511 L211.894491,25.7066511 C210.874284,32.3079885 207.453591,36.8089003 201.512387,36.8089003 C194.731014,36.8089003 190.590175,32.1879642 190.590175,21.3857758 C190.590175,10.1034901 194.550977,5.9626512 200.19212,5.9626512 C205.173129,5.9626512 208.53381,9.62339283 210.934296,16.8848639 L216.8755,16.8848639 L216.8755,1.16167857 L211.474406,1.16167857 L210.21415,5.72260257 C207.813664,2.78200683 204.032898,1.04165426 198.991877,1.04165426 C188.669786,1.04165426 179.908011,9.68340499 179.908011,21.9858973 C179.908011,34.1683654 187.829615,42.4500432 200.132108,42.4500432 Z M229.778114,42.0299581 C224.797105,42.0299581 221.196375,39.1493745 221.196375,34.5884505 C221.196375,32.7280736 221.916521,30.987721 223.176776,29.7274657 C225.037153,27.8670888 227.917737,26.6668457 234.819135,25.7666633 C238.119804,25.286566 238.419864,25.2265539 238.419864,24.506408 L238.419864,22.0459095 C238.419864,18.44518 236.739524,17.1249126 233.258819,17.1249126 C232.058576,17.1249126 230.79832,17.3649612 229.658089,17.8450585 C230.558272,18.5051922 231.098381,19.5253989 231.098381,20.9056785 C231.098381,23.006104 229.298016,24.6264323 226.837518,24.6264323 C223.776898,24.6264323 222.276594,22.6460311 222.276594,20.4255812 C222.276594,15.2645357 228.697895,12.8040372 235.599293,12.8040372 C244.061007,12.8040372 247.061615,16.7648396 247.061615,22.5860189 L247.061615,35.3686085 C247.061615,36.7488882 247.601725,37.048949 248.561919,37.048949 C249.222053,37.048949 249.882187,36.3888152 250.422296,34.3484019 L253.362892,35.3085964 C252.222661,39.9295325 250.002211,42.0299581 245.981396,42.0299581 C242.560703,42.0299581 239.860156,40.2295933 239.380059,36.0887544 L239.079998,36.0887544 C237.279633,40.3496176 233.918953,42.0299581 229.778114,42.0299581 Z M233.85894,36.9289246 C236.559488,36.9289246 238.419864,34.408414 238.419864,30.8076845 L238.419864,28.0471253 C237.879755,28.1671496 237.219621,28.2271618 235.719317,28.5272225 C231.458454,29.2473684 230.138187,30.6276481 230.138187,33.3281952 C230.138187,35.2485842 231.218405,36.9289246 233.85894,36.9289246 Z M254.083038,41.4898486 L270.106284,41.4898486 L270.106284,36.5088395 L266.985652,36.5088395 L266.985652,25.5266147 C266.985652,21.5058001 269.566174,18.6852287 272.386746,18.6852287 C273.586989,18.6852287 274.487171,19.0453016 275.147305,19.6454232 C276.047487,20.5456056 276.40756,22.0459095 276.40756,23.9062864 L276.40756,36.5088395 L273.226916,36.5088395 L273.226916,41.4898486 L289.250162,41.4898486 L289.250162,36.5088395 L285.229348,36.5088395 L285.229348,22.7060432 C285.229348,16.8848639 282.708837,12.8040372 276.647609,12.8040372 C271.486563,12.8040372 268.425943,16.0446937 266.445542,20.7856542 L266.445542,13.4041588 L254.083038,13.4041588 L254.083038,18.3851679 L258.223877,18.3851679 L258.223877,36.5088395 L254.083038,36.5088395 L254.083038,41.4898486 Z M305.577288,42.0899702 C312.658723,42.0899702 316.859574,37.8891192 318.179842,31.8278912 L313.498893,31.8278912 C312.358662,35.0685478 310.138212,36.9889368 306.897556,36.9889368 C302.216608,36.9889368 299.816121,33.1481587 299.816121,27.2669672 C299.816121,20.7856542 302.756717,17.0649004 306.717519,17.0649004 C309.057994,17.0649004 310.498285,17.9050706 311.338456,18.9852895 C310.0782,19.4653867 308.817945,20.8456663 308.817945,22.7660554 C308.817945,25.0465174 310.378261,27.0269186 313.318857,27.0269186 C316.439489,27.0269186 318.119829,24.8664809 318.119829,21.865873 C318.119829,17.6050098 313.978991,12.744025 305.877349,12.744025 C296.755501,12.744025 290.394213,18.8652651 290.394213,27.927101 C290.394213,36.3888152 296.035355,42.0899702 305.577288,42.0899702 Z M349.056889,28.5872347 L329.91301,28.5872347 C330.273083,35.1285599 332.913618,37.2889976 337.354518,37.2889976 C340.715199,37.2889976 342.815624,35.908718 344.07588,32.3680007 L348.756828,32.3680007 C347.676609,38.2491921 343.715807,42.0899702 335.854214,42.0899702 C326.492317,42.0899702 320.791162,36.3288031 320.791162,27.6870523 C320.791162,19.1653259 327.092439,12.744025 335.554153,12.744025 C345.036074,12.744025 349.476974,19.4653867 349.056889,28.5872347 Z M335.374117,16.8248518 C332.253484,16.8248518 330.333095,18.805253 329.973022,24.8064688 L340.47515,24.8064688 C340.175089,19.1053138 338.614773,16.8248518 335.374117,16.8248518 Z M350.494394,41.4898486 L350.494394,36.5088395 L354.635233,36.5088395 L354.635233,18.3851679 L350.494394,18.3851679 L350.494394,13.4041588 L362.856899,13.4041588 L362.856899,20.6056177 C364.537239,15.38456 367.777896,12.8040372 371.618674,12.8040372 C375.099379,12.8040372 377.319829,15.38456 377.319829,18.3251557 C377.319829,21.3257636 375.219403,23.4862013 372.63888,23.4862013 C369.998345,23.4862013 367.957932,21.9858973 367.957932,19.2253381 C367.957932,19.1053138 368.017944,18.9252773 368.017944,18.7452408 C366.397616,18.8652651 364.417215,20.6656299 363.397008,24.146335 L363.397008,36.5088395 L368.618066,36.5088395 L368.618066,41.4898486 L350.494394,41.4898486 Z M380.405623,42.5100553 C377.405015,42.5100553 375.064541,40.1695812 375.064541,37.2289854 C375.064541,34.2283775 377.405015,31.8879034 380.465635,31.8879034 C383.466243,31.8879034 385.806717,34.2283775 385.806717,37.1689733 C385.806717,40.109569 383.466243,42.5100553 380.405623,42.5100553 Z M402.433005,42.0899702 C409.51444,42.0899702 413.715291,37.8891192 415.035559,31.8278912 L410.35461,31.8278912 C409.214379,35.0685478 406.993929,36.9889368 403.753273,36.9889368 C399.072325,36.9889368 396.671838,33.1481587 396.671838,27.2669672 C396.671838,20.7856542 399.612434,17.0649004 403.573236,17.0649004 C405.913711,17.0649004 407.354002,17.9050706 408.194173,18.9852895 C406.933917,19.4653867 405.673662,20.8456663 405.673662,22.7660554 C405.673662,25.0465174 407.233978,27.0269186 410.174574,27.0269186 C413.295206,27.0269186 414.975546,24.8664809 414.975546,21.865873 C414.975546,17.6050098 410.834707,12.744025 402.733066,12.744025 C393.611218,12.744025 387.249929,18.8652651 387.249929,27.927101 C387.249929,36.3888152 392.891072,42.0899702 402.433005,42.0899702 Z M432.023777,42.0899702 C423.081965,42.0899702 416.840701,36.2687909 416.840701,27.567028 C416.840701,18.9252773 423.382026,12.744025 432.083789,12.744025 C440.965588,12.744025 447.206853,18.6252165 447.206853,27.2669672 C447.206853,35.9687301 440.665528,42.0899702 432.023777,42.0899702 Z M432.203813,38.0091435 C436.044591,38.0091435 437.604907,34.9485234 437.604907,27.3869916 C437.604907,19.8254597 435.744531,16.8248518 431.84374,16.8248518 C428.062974,16.8248518 426.442646,19.8854718 426.442646,27.4470037 C426.442646,35.0685478 428.363035,38.0091435 432.203813,38.0091435 Z M477.915526,20.2455448 C477.315404,15.6246086 474.794894,12.8040372 469.993921,12.8040372 C465.132936,12.8040372 462.072316,16.0446937 460.091915,20.7856542 L460.091915,13.4041588 L447.729411,13.4041588 L447.729411,18.3851679 L451.870249,18.3851679 L451.870249,36.5088395 L447.729411,36.5088395 L447.729411,41.4898486 L463.512608,41.4898486 L463.512608,36.5088395 L460.632024,36.5088395 L460.632024,25.5266147 C460.632024,21.5058001 463.212547,18.6852287 465.733058,18.6852287 C466.813277,18.6852287 467.653447,18.9852895 468.193556,19.585411 C469.093739,20.4855934 469.513824,21.9858973 469.513824,23.9062864 L469.513824,36.5088395 L466.513216,36.5088395 L466.513216,41.4898486 L481.156182,41.4898486 L481.156182,36.5088395 L478.275599,36.5088395 L478.275599,25.5266147 C478.275599,21.5058001 480.856122,18.6852287 483.376632,18.6852287 C484.516863,18.6852287 485.297021,18.9852895 485.897143,19.585411 C486.797325,20.4855934 487.157398,21.9858973 487.157398,23.9062864 L487.157398,36.5088395 L484.15679,36.5088395 L484.15679,41.4898486 L500,41.4898486 L500,36.5088395 L495.919173,36.5088395 L495.919173,22.7060432 C495.919173,16.8848639 493.518687,12.8040372 487.637495,12.8040372 C482.956547,12.8040372 479.955939,15.7446329 477.915526,20.2455448 Z" id="Blood-Cancer.com"></path>
            </g>
        </g>
    </g>
</svg>