<?xml version="1.0" encoding="UTF-8"?>
<svg width="477px" height="40px" viewBox="0 0 477 40" version="1.1" xmlns="http://www.w3.org/2000/svg" xmlns:xlink="http://www.w3.org/1999/xlink">
    <!-- Generator: Sketch 49.3 (51167) - http://www.bohemiancoding.com/sketch -->
    <title>7</title>
    <desc>Created with Sketch.</desc>
    <defs>
        <linearGradient x1="50%" y1="0%" x2="50%" y2="244.481537%" id="linearGradient-1">
            <stop stop-color="#FD7982" offset="0%"></stop>
            <stop stop-color="#F773D9" offset="100%"></stop>
        </linearGradient>
    </defs>
    <g id="Page-1" stroke="none" stroke-width="1" fill="none" fill-rule="evenodd">
        <g id="7" transform="translate(0.000000, 0.862382)" fill="url(#linearGradient-1)">
            <path d="M0,38.1248826 L19.0071879,38.1248826 C30.7209199,38.1248826 34.5334082,33.5940995 34.5334082,28.0687542 C34.5334082,23.2617038 31.0524406,20.1122569 23.4274641,19.2834551 L23.4274641,18.896681 C30.7209199,17.7916119 33.2073253,14.2001374 33.2073253,10.5534095 C33.2073253,6.2436402 30.4999061,1.7681105 18.6756671,1.7681105 L0,1.7681105 L0,6.57516092 L4.97281078,6.57516092 L4.97281078,33.3178322 L0,33.3178322 L0,38.1248826 Z M13.9791236,16.9075566 L13.9791236,6.57516092 L17.7916119,6.57516092 C22.8196761,6.57516092 24.145759,8.1222576 24.145759,11.3822113 C24.145759,14.8079254 22.5986623,16.9075566 17.681105,16.9075566 L13.9791236,16.9075566 Z M13.9791236,33.3178322 L13.9791236,21.5488467 L17.681105,21.5488467 C23.3722107,21.5488467 25.3060815,23.7589848 25.3060815,27.2399524 C25.3060815,31.7154821 23.4827176,33.3178322 17.7916119,33.3178322 L13.9791236,33.3178322 Z M36.3096944,38.1248826 L52.8304769,38.1248826 L52.8304769,33.538846 L48.6312145,33.538846 L48.6312145,0 L36.3096944,0 L36.3096944,4.69654351 L40.5089569,4.69654351 L40.5089569,33.538846 L36.3096944,33.538846 L36.3096944,38.1248826 Z M63.0012002,38.6221637 C66.8136884,38.6221637 69.9078818,37.075067 71.5654854,33.1520719 L71.8417527,33.1520719 C72.2837803,36.9645601 74.7701857,38.6221637 77.9196325,38.6221637 C81.6216139,38.6221637 83.6659916,36.6882929 84.7158072,32.433777 L82.008388,31.5497217 C81.511107,33.4283391 80.903319,34.0361271 80.295531,34.0361271 C79.4114757,34.0361271 78.9141947,33.7598598 78.9141947,32.4890304 L78.9141947,20.7200449 C78.9141947,15.36046 76.151522,11.7137321 68.3607851,11.7137321 C62.006638,11.7137321 56.0945185,13.9791236 56.0945185,18.7309206 C56.0945185,20.7752984 57.4758549,22.5986623 60.293781,22.5986623 C62.5591725,22.5986623 64.2167761,21.1068191 64.2167761,19.1729482 C64.2167761,17.9021188 63.7194951,16.9628101 62.8906933,16.3550221 C63.9405089,15.9129945 65.1008314,15.6919807 66.2059004,15.6919807 C69.4106007,15.6919807 70.9576974,16.9075566 70.9576974,20.2227638 L70.9576974,22.4881554 C70.9576974,23.1511968 70.6814301,23.2064503 67.6424902,23.6484779 C61.2883431,24.4772797 58.6361774,25.5823488 56.9233203,27.2952058 C55.7629978,28.4555283 55.0999564,30.0578785 55.0999564,31.7707355 C55.0999564,35.969998 58.4151636,38.6221637 63.0012002,38.6221637 Z M66.758435,33.9256202 C64.327283,33.9256202 63.3327209,32.3785235 63.3327209,30.610413 C63.3327209,28.1240076 64.5482969,26.8531782 68.471292,26.1901368 C69.8526284,25.9138695 70.4604163,25.858616 70.9576974,25.7481091 L70.9576974,28.289768 C70.9576974,31.6049752 69.2448404,33.9256202 66.758435,33.9256202 Z M95.1627978,38.6774172 C99.3620602,38.6774172 102.23524,36.3015187 103.782336,32.7100442 L103.782336,38.1248826 L115.054041,38.1248826 L115.054041,33.538846 L111.35206,33.538846 L111.35206,0 L99.3068067,0 L99.3068067,4.69654351 L103.285055,4.69654351 L103.285055,16.0787548 C101.682705,13.4818426 99.1962998,11.6584786 95.4943185,11.6584786 C92.7316458,11.6584786 90.4110008,12.6530408 88.6981437,14.4211513 C86.3222453,16.7417963 84.9409089,20.6647915 84.9409089,25.3060815 C84.9409089,29.7263578 86.1012314,33.5940995 88.4771299,35.969998 C90.1347335,37.6276016 92.3448716,38.6774172 95.1627978,38.6774172 Z M98.5332584,33.9256202 C95.2733047,33.9256202 93.6157011,30.9419337 93.6157011,25.361335 C93.6157011,19.6149758 95.1627978,16.5207825 98.5332584,16.5207825 C102.23524,16.5207825 103.782336,20.3332707 103.782336,25.1955746 C103.782336,30.2788923 101.737959,33.9256202 98.5332584,33.9256202 Z M126.66953,38.6774172 C130.868792,38.6774172 133.741972,36.3015187 135.289068,32.7100442 L135.289068,38.1248826 L146.560773,38.1248826 L146.560773,33.538846 L142.858791,33.538846 L142.858791,0 L130.813539,0 L130.813539,4.69654351 L134.791787,4.69654351 L134.791787,16.0787548 C133.189437,13.4818426 130.703032,11.6584786 127.00105,11.6584786 C124.238378,11.6584786 121.917733,12.6530408 120.204876,14.4211513 C117.828977,16.7417963 116.447641,20.6647915 116.447641,25.3060815 C116.447641,29.7263578 117.607963,33.5940995 119.983862,35.969998 C121.641465,37.6276016 123.851604,38.6774172 126.66953,38.6774172 Z M130.03999,33.9256202 C126.780037,33.9256202 125.122433,30.9419337 125.122433,25.361335 C125.122433,19.6149758 126.66953,16.5207825 130.03999,16.5207825 C133.741972,16.5207825 135.289068,20.3332707 135.289068,25.1955746 C135.289068,30.2788923 133.244691,33.9256202 130.03999,33.9256202 Z M173.098782,26.2453902 C173.485556,17.8468653 169.3968,11.6584786 160.666755,11.6584786 C152.876018,11.6584786 147.074405,17.5705981 147.074405,25.4165884 C147.074405,33.3730857 152.323483,38.6774172 160.943022,38.6774172 C168.181224,38.6774172 171.827952,35.1411962 172.822515,29.7263578 L168.512745,29.7263578 C167.352423,32.9863115 165.418552,34.2571409 162.324358,34.2571409 C158.235603,34.2571409 155.804451,32.2680166 155.47293,26.2453902 L173.098782,26.2453902 Z M160.500994,15.4157134 C163.484681,15.4157134 164.921271,17.5153446 165.197538,22.7644227 L155.528184,22.7644227 C155.859704,17.2390774 157.627815,15.4157134 160.500994,15.4157134 Z M174.989663,38.1248826 L191.676206,38.1248826 L191.676206,33.538846 L186.869155,33.538846 L186.869155,22.1566347 C187.808464,18.9519344 189.631828,17.2943308 191.123671,17.1838239 C191.123671,17.3495843 191.068418,17.5153446 191.068418,17.6258515 C191.068418,20.1675104 192.947035,21.5488467 195.378187,21.5488467 C197.754086,21.5488467 199.687956,19.5597224 199.687956,16.7970497 C199.687956,14.0896305 197.643579,11.7137321 194.438878,11.7137321 C190.902657,11.7137321 187.918971,14.0896305 186.371874,18.896681 L186.371874,12.2662666 L174.989663,12.2662666 L174.989663,16.8523032 L178.802151,16.8523032 L178.802151,33.538846 L174.989663,33.538846 L174.989663,38.1248826 Z M220.463255,39.0089379 C230.298369,39.0089379 235.657954,32.9863115 236.597263,23.5932245 L231.292932,23.5932245 C230.353623,29.6711043 227.204176,33.8151133 221.734084,33.8151133 C215.490444,33.8151133 211.677956,29.5605974 211.677956,19.6149758 C211.677956,9.22732667 215.324684,5.4148384 220.518508,5.4148384 C225.104545,5.4148384 228.198738,8.78529904 230.408876,15.4709669 L235.878968,15.4709669 L235.878968,0.994562156 L230.906157,0.994562156 L229.745835,5.19382459 C227.535697,2.48640539 224.054729,0.884055249 219.413439,0.884055249 C209.909845,0.884055249 201.842841,8.84055249 201.842841,20.1675104 C201.842841,31.3839614 209.136297,39.0089379 220.463255,39.0089379 Z M245.568762,38.6221637 C249.38125,38.6221637 252.475443,37.075067 254.133047,33.1520719 L254.409314,33.1520719 C254.851342,36.9645601 257.337747,38.6221637 260.487194,38.6221637 C264.189176,38.6221637 266.233553,36.6882929 267.283369,32.433777 L264.57595,31.5497217 C264.078669,33.4283391 263.470881,34.0361271 262.863093,34.0361271 C261.979037,34.0361271 261.481756,33.7598598 261.481756,32.4890304 L261.481756,20.7200449 C261.481756,15.36046 258.719084,11.7137321 250.928347,11.7137321 C244.5742,11.7137321 238.66208,13.9791236 238.66208,18.7309206 C238.66208,20.7752984 240.043417,22.5986623 242.861343,22.5986623 C245.126734,22.5986623 246.784338,21.1068191 246.784338,19.1729482 C246.784338,17.9021188 246.287057,16.9628101 245.458255,16.3550221 C246.508071,15.9129945 247.668393,15.6919807 248.773462,15.6919807 C251.978162,15.6919807 253.525259,16.9075566 253.525259,20.2227638 L253.525259,22.4881554 C253.525259,23.1511968 253.248992,23.2064503 250.210052,23.6484779 C243.855905,24.4772797 241.203739,25.5823488 239.490882,27.2952058 C238.330559,28.4555283 237.667518,30.0578785 237.667518,31.7707355 C237.667518,35.969998 240.982725,38.6221637 245.568762,38.6221637 Z M249.325997,33.9256202 C246.894845,33.9256202 245.900283,32.3785235 245.900283,30.610413 C245.900283,28.1240076 247.115859,26.8531782 251.038854,26.1901368 C252.42019,25.9138695 253.027978,25.858616 253.525259,25.7481091 L253.525259,28.289768 C253.525259,31.6049752 251.812402,33.9256202 249.325997,33.9256202 Z M268.38435,38.1248826 L283.137022,38.1248826 L283.137022,33.538846 L280.263843,33.538846 L280.263843,23.4274641 C280.263843,19.7254828 282.639741,17.1285705 285.236653,17.1285705 C286.341722,17.1285705 287.170524,17.4600912 287.778312,18.0126257 C288.607114,18.8414275 288.938635,20.2227638 288.938635,21.9356209 L288.938635,33.538846 L286.010202,33.538846 L286.010202,38.1248826 L300.762874,38.1248826 L300.762874,33.538846 L297.060892,33.538846 L297.060892,20.8305518 C297.060892,15.4709669 294.740247,11.7137321 289.159648,11.7137321 C284.407851,11.7137321 281.589925,14.6974185 279.766561,19.0624413 L279.766561,12.2662666 L268.38435,12.2662666 L268.38435,16.8523032 L272.196838,16.8523032 L272.196838,33.538846 L268.38435,33.538846 L268.38435,38.1248826 Z M315.804076,38.6774172 C322.323984,38.6774172 326.191726,34.8096754 327.407302,29.2290767 L323.097532,29.2290767 C322.047717,32.2127632 320.003339,33.9808736 317.019652,33.9808736 C312.709883,33.9808736 310.499745,30.4446527 310.499745,25.0298142 C310.499745,19.0624413 313.207164,15.6367272 316.853892,15.6367272 C319.008777,15.6367272 320.33486,16.4102756 321.108408,17.4048377 C319.948085,17.8468653 318.787763,19.1176948 318.787763,20.8858053 C318.787763,22.9854365 320.224353,24.8088004 322.931772,24.8088004 C325.804952,24.8088004 327.352048,22.8196761 327.352048,20.0570035 C327.352048,16.1340083 323.53956,11.6584786 316.080344,11.6584786 C307.681819,11.6584786 301.824953,17.2943308 301.824953,25.6376022 C301.824953,33.4283391 307.018777,38.6774172 315.804076,38.6774172 Z M355.756411,26.2453902 C356.143185,17.8468653 352.05443,11.6584786 343.324384,11.6584786 C335.533647,11.6584786 329.732035,17.5705981 329.732035,25.4165884 C329.732035,33.3730857 334.981113,38.6774172 343.600651,38.6774172 C350.838854,38.6774172 354.485582,35.1411962 355.480144,29.7263578 L351.170374,29.7263578 C350.010052,32.9863115 348.076181,34.2571409 344.981988,34.2571409 C340.893232,34.2571409 338.46208,32.2680166 338.130559,26.2453902 L355.756411,26.2453902 Z M343.158624,15.4157134 C346.14231,15.4157134 347.5789,17.5153446 347.855167,22.7644227 L338.185813,22.7644227 C338.517334,17.2390774 340.285444,15.4157134 343.158624,15.4157134 Z M357.647292,38.1248826 L374.333835,38.1248826 L374.333835,33.538846 L369.526784,33.538846 L369.526784,22.1566347 C370.466093,18.9519344 372.289457,17.2943308 373.7813,17.1838239 C373.7813,17.3495843 373.726047,17.5153446 373.726047,17.6258515 C373.726047,20.1675104 375.604664,21.5488467 378.035816,21.5488467 C380.411715,21.5488467 382.345586,19.5597224 382.345586,16.7970497 C382.345586,14.0896305 380.301208,11.7137321 377.096508,11.7137321 C373.560287,11.7137321 370.5766,14.0896305 369.029503,18.896681 L369.029503,12.2662666 L357.647292,12.2662666 L357.647292,16.8523032 L361.45978,16.8523032 L361.45978,33.538846 L357.647292,33.538846 L357.647292,38.1248826 Z M384.563899,39.0641913 C387.381826,39.0641913 389.53671,36.8540532 389.53671,34.146634 C389.53671,31.4392148 387.381826,29.2843301 384.619153,29.2843301 C381.801227,29.2843301 379.646342,31.4392148 379.646342,34.2018875 C379.646342,36.9093067 381.801227,39.0641913 384.563899,39.0641913 Z M394.552511,38.1248826 L409.305183,38.1248826 L409.305183,33.538846 L406.432003,33.538846 L406.432003,23.4274641 C406.432003,19.7254828 408.807902,17.1285705 411.404814,17.1285705 C412.509883,17.1285705 413.338685,17.4600912 413.946473,18.0126257 C414.775275,18.8414275 415.106795,20.2227638 415.106795,21.9356209 L415.106795,33.538846 L412.178362,33.538846 L412.178362,38.1248826 L426.931034,38.1248826 L426.931034,33.538846 L423.229053,33.538846 L423.229053,20.8305518 C423.229053,15.4709669 420.908408,11.7137321 415.327809,11.7137321 C410.576012,11.7137321 407.758086,14.6974185 405.934722,19.0624413 L405.934722,12.2662666 L394.552511,12.2662666 L394.552511,16.8523032 L398.364999,16.8523032 L398.364999,33.538846 L394.552511,33.538846 L394.552511,38.1248826 Z M453.57955,26.2453902 C453.966324,17.8468653 449.877569,11.6584786 441.147523,11.6584786 C433.356786,11.6584786 427.555174,17.5705981 427.555174,25.4165884 C427.555174,33.3730857 432.804252,38.6774172 441.423791,38.6774172 C448.661993,38.6774172 452.308721,35.1411962 453.303283,29.7263578 L448.993514,29.7263578 C447.833191,32.9863115 445.89932,34.2571409 442.805127,34.2571409 C438.716371,34.2571409 436.285219,32.2680166 435.953699,26.2453902 L453.57955,26.2453902 Z M440.981763,15.4157134 C443.965449,15.4157134 445.402039,17.5153446 445.678306,22.7644227 L436.008952,22.7644227 C436.340473,17.2390774 438.108583,15.4157134 440.981763,15.4157134 Z M458.840892,6.46465401 L458.840892,12.5425339 L454.089095,12.5425339 L454.089095,16.8523032 L458.675132,16.8523032 L458.675132,29.8368647 C458.675132,35.7489841 461.437804,38.6774172 467.073656,38.6774172 C472.267481,38.6774172 474.9749,35.969998 476.190476,29.6711043 L472.875269,28.7317956 C471.880707,32.3232701 471.107159,33.5940995 469.449555,33.5940995 C467.570938,33.5940995 466.742136,32.2680166 466.742136,29.8921181 L466.742136,16.8523032 L475.030154,16.8523032 L475.030154,12.5425339 L466.742136,12.5425339 L466.742136,5.52534531 L458.840892,6.46465401 Z" id="masthead"></path>
        </g>
    </g>
</svg>