<?xml version="1.0" encoding="UTF-8"?>
<svg width="299px" height="40px" viewBox="0 0 299 40" version="1.1" xmlns="http://www.w3.org/2000/svg" xmlns:xlink="http://www.w3.org/1999/xlink">
    <!-- Generator: Sketch 49.3 (51167) - http://www.bohemiancoding.com/sketch -->
    <title>8</title>
    <desc>Created with Sketch.</desc>
    <defs>
        <linearGradient x1="50%" y1="0%" x2="50%" y2="100%" id="linearGradient-1">
            <stop stop-color="#4CB8DD" offset="0%"></stop>
            <stop stop-color="#379EC1" offset="100%"></stop>
        </linearGradient>
    </defs>
    <g id="Page-1" stroke="none" stroke-width="1" fill="none" fill-rule="evenodd">
        <g id="8" transform="translate(0.000000, -0.137618)" fill="url(#linearGradient-1)">
            <polygon id="Shape-15" points="19.2379066 2.45443156 19.2379066 6.42300503 23.3351444 6.42300503 23.3351444 14.9984152 11.6345262 14.9984152 11.6345262 6.42300503 15.6866552 6.42300503 15.6866552 2.45443156 0.116470847 2.45443156 0.116470847 6.42300503 4.21413415 6.42300503 4.21413415 28.5004333 0.116470847 28.5004333 0.116470847 32.4685805 15.6866552 32.4685805 15.6866552 28.5004333 11.6345262 28.5004333 11.6345262 18.8301266 23.3351444 18.8301266 23.3351444 28.5004333 19.2379066 28.5004333 19.2379066 32.4685805 34.8540508 32.4685805 34.8540508 28.5004333 30.7563875 28.5004333 30.7563875 6.42300503 34.8540508 6.42300503 34.8540508 2.45443156 19.2379066 2.45443156"></polygon>
            <path d="M35.0204426,21.9779541 C35.0204426,28.546054 39.3453519,32.9247873 46.4478548,32.9247873 C52.4115742,32.9247873 55.4168393,30.005916 56.235606,25.535515 L52.6843545,25.535515 C51.7289849,28.2271356 50.1357092,29.275985 47.5853617,29.275985 C44.2166731,29.275985 42.2135886,27.6336403 41.9403826,22.661838 L56.4637031,22.661838 C56.7828689,15.7283462 53.4129037,10.6196819 46.2193321,10.6196819 C39.8002696,10.6196819 35.0204426,15.5006692 35.0204426,21.9779541 L35.0204426,21.9779541 Z M46.0827292,13.721036 C48.542008,13.721036 49.7250492,15.4550485 49.9531464,19.7877347 L41.985917,19.7877347 C42.2595484,15.2265187 43.7162211,13.721036 46.0827292,13.721036 L46.0827292,13.721036 Z" id="Shape-16"></path>
            <path d="M66.0633593,16.1389324 L66.0633593,11.1219359 L56.6845659,11.1219359 L56.6845659,14.9071739 L59.7804741,14.9071739 L59.7804741,36.0265677 L56.6845659,36.0265677 L56.6845659,39.8126585 L70.3886942,39.8126585 L70.3886942,36.0265677 L66.4731681,36.0265677 L66.4731681,28.9110195 C67.5655663,30.9635241 69.7507881,32.4685805 72.8926562,32.4685805 C75.0778781,32.4685805 76.853291,31.6017874 78.4014579,30.0515367 C80.3130483,28.1354678 81.405872,25.1705495 81.405872,21.4300795 C81.405872,17.8264715 80.4500768,14.8163588 78.492101,12.8550956 C77.1264969,11.4860486 75.3961928,10.6196819 73.1658622,10.6196819 C69.660145,10.6196819 67.3378947,12.7634279 66.0633593,16.1389324 L66.0633593,16.1389324 Z M66.0633593,21.931907 C66.0633593,18.0093806 67.7932379,14.8615532 70.4338029,14.8615532 C72.9832993,14.8615532 74.2123004,17.0965405 74.2123004,21.5217472 C74.2123004,26.219399 73.074368,28.7737311 70.5248716,28.7737311 C67.4744976,28.7737311 66.0633593,25.7631921 66.0633593,21.931907 L66.0633593,21.931907 Z" id="Shape-12"></path>
            <path d="M83.7779122,16.4582772 C83.7779122,18.1458163 84.9158446,19.6508727 87.2376694,19.6508727 C89.1045766,19.6508727 90.4701806,18.4199668 90.4701806,16.8232427 C90.4701806,15.7739669 90.0603718,14.9984152 89.3777825,14.4965877 C90.2429346,14.1316222 91.1987298,13.9499921 92.1089906,13.9499921 C94.7499812,13.9499921 96.0245166,14.9532209 96.0245166,17.6900358 L96.0245166,19.5600576 C96.0245166,20.1075059 95.7972706,20.1531266 93.292883,20.5176657 C88.0572872,21.201976 85.8720654,22.1143898 84.4605014,23.5286311 C83.5047063,24.4862392 82.9582944,25.8092391 82.9582944,27.2230541 C82.9582944,30.6898 85.6903536,32.879593 89.4688511,32.879593 C92.6102937,32.879593 95.1597901,31.6017874 96.5249686,28.3635713 L96.7530658,28.3635713 C97.1173403,31.510546 99.1659592,32.879593 101.76099,32.879593 C104.811789,32.879593 106.496134,31.2828689 107.36086,27.7705023 L105.130104,27.0405713 C104.720295,28.5916747 104.219418,29.0926496 103.71854,29.0926496 C102.990417,29.0926496 102.580608,28.8653989 102.580608,27.8165494 L102.580608,18.0997693 C102.580608,13.6758417 100.304317,10.6653026 93.8848291,10.6653026 C88.6496589,10.6653026 83.7779122,12.5357508 83.7779122,16.4582772 L83.7779122,16.4582772 Z M89.7420571,26.265446 C89.7420571,24.2125151 90.7433866,23.1632392 93.9758978,22.615791 C95.1142558,22.3885403 95.6147078,22.3424932 96.0245166,22.2512519 L96.0245166,24.3493771 C96.0245166,27.0866184 94.6133783,29.0018346 92.5647594,29.0018346 C90.5612493,29.0018346 89.7420571,27.7248817 89.7420571,26.265446 L89.7420571,26.265446 Z" id="Shape-13"></path>
            <path d="M109.278408,6.33219002 L109.278408,11.3491866 L105.362882,11.3491866 L105.362882,14.9071739 L109.14138,14.9071739 L109.14138,25.6267564 C109.14138,30.5068909 111.418096,32.9247873 116.061745,32.9247873 C120.341121,32.9247873 122.572302,30.6898 123.573632,25.489468 L120.841998,24.7143426 C120.02238,27.679261 119.385751,28.7281104 118.019721,28.7281104 C116.47198,28.7281104 115.788965,27.6336403 115.788965,25.6728034 L115.788965,14.9071739 L122.617837,14.9071739 L122.617837,11.3491866 L115.788965,11.3491866 L115.788965,5.55663833 L109.278408,6.33219002 L109.278408,6.33219002 Z" id="Shape-14"></path>
            <path d="M126.766141,4.1880177 C126.766141,6.42300503 128.359416,7.97410841 130.817844,7.97410841 C133.230738,7.97410841 134.915082,6.28656933 134.915082,4.05115563 C134.915082,1.86221535 133.276272,0.219444228 130.817844,0.219444228 C128.404951,0.219444228 126.766141,1.95303036 126.766141,4.1880177 L126.766141,4.1880177 Z M124.352822,11.1219359 L124.352822,14.9071739 L127.812579,14.9071739 L127.812579,28.6824897 L124.352822,28.6824897 L124.352822,32.4685805 L137.919922,32.4685805 L137.919922,28.6824897 L134.460164,28.6824897 L134.460164,11.1219359 L124.352822,11.1219359 L124.352822,11.1219359 Z" id="Shape-10"></path>
            <path d="M140.02982,6.33219002 L140.02982,11.3491866 L136.114294,11.3491866 L136.114294,14.9071739 L139.893217,14.9071739 L139.893217,25.6267564 C139.893217,30.5068909 142.169508,32.9247873 146.813157,32.9247873 C151.092958,32.9247873 153.323714,30.6898 154.325895,25.489468 L151.59341,24.7143426 C150.773792,27.679261 150.136737,28.7281104 148.770708,28.7281104 C147.222541,28.7281104 146.539951,27.6336403 146.539951,25.6728034 L146.539951,14.9071739 L153.369674,14.9071739 L153.369674,11.3491866 L146.539951,11.3491866 L146.539951,5.55663833 L140.02982,6.33219002 L140.02982,6.33219002 Z" id="Shape-4"></path>
            <path d="M157.517553,4.1880177 C157.517553,6.42300503 159.111254,7.97410841 161.569256,7.97410841 C163.982575,7.97410841 165.667345,6.28656933 165.667345,4.05115563 C165.667345,1.86221535 164.027684,0.219444228 161.569256,0.219444228 C159.156788,0.219444228 157.517553,1.95303036 157.517553,4.1880177 L157.517553,4.1880177 Z M155.104234,11.1219359 L155.104234,14.9071739 L158.565268,14.9071739 L158.565268,28.6824897 L155.104234,28.6824897 L155.104234,32.4685805 L168.672185,32.4685805 L168.672185,28.6824897 L165.211151,28.6824897 L165.211151,11.1219359 L155.104234,11.1219359 L155.104234,11.1219359 Z" id="Shape-8"></path>
            <path d="M170.224607,17.5075531 C170.224607,21.3392645 172.728995,22.9811829 177.827987,24.3033301 C182.061828,25.3986529 183.244869,26.0373426 183.244869,27.679261 C183.244869,29.0018346 182.379717,29.8686276 180.467701,29.8686276 C177.873522,29.8686276 175.27764,27.9073644 173.412009,25.0332611 L169.906292,25.0332611 L169.906292,32.879593 L173.412009,32.879593 L174.140133,30.005916 C175.506163,31.5565931 177.736493,32.9247873 181.060073,32.9247873 C186.250135,32.9247873 189.118371,29.5949035 189.118371,25.9000541 C189.118371,21.6581829 185.97778,20.1531266 181.333279,18.921368 C177.280725,17.8725186 176.051723,17.2794496 176.051723,15.7283462 C176.051723,14.4965877 176.962835,13.6758417 178.737397,13.6758417 C181.014113,13.6758417 183.199761,15.4550485 184.838571,18.0093806 L188.344288,18.0093806 L188.344288,10.7113497 L184.793462,10.7113497 L184.064913,13.2656818 C182.744417,11.6689578 180.741333,10.6196819 177.96459,10.6196819 C173.229447,10.6196819 170.224607,13.7666567 170.224607,17.5075531 L170.224607,17.5075531 Z" id="Shape-9"></path>
            <path d="M191.939797,17.6444151 C191.939797,26.9037093 197.948625,33.1980851 207.281458,33.1980851 C215.385291,33.1980851 219.801694,28.2271356 220.575352,20.4724714 L216.204909,20.4724714 C215.431251,25.489468 212.836646,28.9110195 208.329173,28.9110195 C203.184221,28.9110195 200.042353,25.3986529 200.042353,17.1882082 C200.042353,8.61237168 203.047618,5.46539695 207.326567,5.46539695 C211.106341,5.46539695 213.656263,8.24740618 215.476785,13.7666567 L219.984257,13.7666567 L219.984257,1.81659466 L215.88702,1.81659466 L214.930799,5.2829142 C213.109,3.04792687 210.241189,1.72492692 206.417157,1.72492692 C198.58568,1.72492692 191.939797,8.29345323 191.939797,17.6444151 L191.939797,17.6444151 Z" id="Shape-6"></path>
            <path d="M221.221769,29.229938 C221.221769,31.4653517 222.996331,33.2441321 225.273047,33.2441321 C227.594872,33.2441321 229.371136,31.419731 229.371136,29.1843173 C229.371136,26.9497563 227.594872,25.1705495 225.318582,25.1705495 C222.996331,25.1705495 221.221769,26.9497563 221.221769,29.229938 L221.221769,29.229938 Z" id="Shape-2"></path>
            <path d="M241.256445,16.7320014 L241.256445,11.1219359 L231.8768,11.1219359 L231.8768,14.9071739 L235.018243,14.9071739 L235.018243,28.6824897 L231.8768,28.6824897 L231.8768,32.4685805 L244.033187,32.4685805 L244.033187,28.6824897 L241.665828,28.6824897 L241.665828,20.335183 C241.665828,17.2794496 243.622953,15.1352773 245.76264,15.1352773 C246.673327,15.1352773 247.356767,15.4090014 247.857645,15.8652083 C248.541085,16.5495186 248.813014,17.6900358 248.813014,19.1042771 L248.813014,28.6824897 L246.400972,28.6824897 L246.400972,32.4685805 L258.556508,32.4685805 L258.556508,28.6824897 L255.506134,28.6824897 L255.506134,18.191437 C255.506134,13.7666567 253.594118,10.6653026 248.995577,10.6653026 C245.079626,10.6653026 242.758652,13.1288198 241.256445,16.7320014 L241.256445,16.7320014 Z" id="Shape-3"></path>
            <path d="M258.882908,21.9779541 C258.882908,28.546054 263.207817,32.9247873 270.31032,32.9247873 C276.27404,32.9247873 279.279305,30.005916 280.098072,25.535515 L276.54682,25.535515 C275.59145,28.2271356 273.998175,29.275985 271.447827,29.275985 C268.079139,29.275985 266.076054,27.6336403 265.802848,22.661838 L280.326169,22.661838 C280.645334,15.7283462 277.275369,10.6196819 270.081798,10.6196819 C263.662735,10.6196819 258.882908,15.5006692 258.882908,21.9779541 L258.882908,21.9779541 Z M269.945195,13.721036 C272.404474,13.721036 273.587515,15.4550485 273.815612,19.7877347 L265.848383,19.7877347 C266.122014,15.2265187 267.578687,13.721036 269.945195,13.721036 L269.945195,13.721036 Z" id="Shape-7"></path>
            <path d="M284.113603,6.33219002 L284.113603,11.3491866 L280.198502,11.3491866 L280.198502,14.9071739 L283.976574,14.9071739 L283.976574,25.6267564 C283.976574,30.5068909 286.25329,32.9247873 290.89694,32.9247873 C295.176741,32.9247873 297.407922,30.6898 298.409677,25.489468 L295.677192,24.7143426 C294.857575,27.679261 294.22052,28.7281104 292.85449,28.7281104 C291.306749,28.7281104 290.623734,27.6336403 290.623734,25.6728034 L290.623734,14.9071739 L297.453457,14.9071739 L297.453457,11.3491866 L290.623734,11.3491866 L290.623734,5.55663833 L284.113603,6.33219002 L284.113603,6.33219002 Z" id="Shape-5"></path>
        </g>
    </g>
</svg>