<?xml version="1.0" encoding="UTF-8"?>
<svg width="500px" height="79px" viewBox="0 0 500 79" version="1.1" xmlns="http://www.w3.org/2000/svg" xmlns:xlink="http://www.w3.org/1999/xlink">
    <!-- Generator: Sketch 49.2 (51160) - http://www.bohemiancoding.com/sketch -->
    <title>masthead</title>
    <desc>Created with Sketch.</desc>
    <defs>
        <linearGradient x1="50.0000024%" y1="-108.102991%" x2="49.9999921%" y2="107.700549%" id="linearGradient-1">
            <stop stop-color="#2ABCCD" offset="0%"></stop>
            <stop stop-color="#00B4B3" offset="100%"></stop>
        </linearGradient>
    </defs>
    <g id="Page-1" stroke="none" stroke-width="1" fill="none" fill-rule="evenodd">
        <g id="copd.net" transform="translate(-56.000000, -126.000000)" fill="url(#linearGradient-1)">
            <g id="masthead" transform="translate(56.000000, 126.000000)">
                <path d="M0.0571428571,40.1721088 C0.0571428571,63.1843537 15.0204082,78.7013605 38.2612245,78.7013605 C58.4387755,78.7013605 69.4346939,66.6748299 71.3619048,46.9469388 L60.4795918,46.9469388 C58.5517007,59.8721088 52.0904762,68.055102 40.8680272,68.055102 C28.0585034,68.055102 20.2353741,59.4639456 20.2353741,39.0585034 C20.2353741,17.7462585 27.7170068,9.94489796 38.3741497,9.94489796 C47.7823129,9.94489796 54.1306122,17.014966 58.6653061,30.6204082 L70.0680272,30.6204082 L70.0680272,0.688435374 L59.6863946,0.688435374 L57.3054422,9.37687075 C52.7714286,3.82244898 45.6292517,0.608163265 36.1061224,0.608163265 C16.607483,0.608163265 0.0571428571,16.9326531 0.0571428571,40.1721088 L0.0571428571,40.1721088 Z" id="Shape"></path>
                <path d="M76.0857143,39.8306122 C76.0857143,63.5238095 92.1829932,78.8278912 114.401361,78.8278912 C136.054422,78.8278912 152.719048,63.070068 152.719048,39.6047619 C152.719048,15.9102041 136.621769,0.608163265 114.401361,0.608163265 C92.7482993,0.608163265 76.0857143,16.477551 76.0857143,39.8306122 L76.0857143,39.8306122 Z M96.2632653,39.7176871 C96.2632653,19.1979592 102.045578,9.90272109 114.062585,9.90272109 C126.078231,9.90272109 132.540136,19.1979592 132.540136,39.7176871 C132.540136,60.3503401 126.758503,69.5333333 114.742857,69.5333333 C102.72449,69.5333333 96.2632653,60.3503401 96.2632653,39.7176871 L96.2632653,39.7176871 Z" id="Shape"></path>
                <path d="M156.462585,2.72857143 L156.462585,12.2530612 L166.666667,12.2530612 L166.666667,67.355102 L156.462585,67.355102 L156.462585,76.8782313 L195.918367,76.8782313 L195.918367,67.355102 L185.034014,67.355102 L185.034014,48.307483 L193.640136,48.307483 C217.107483,48.307483 225.947619,38.1578231 225.947619,25.3496599 C225.947619,12.0836735 216.878912,2.72857143 193.412925,2.72857143 L156.462585,2.72857143 L156.462585,2.72857143 Z M185.034014,11.5727891 L192.166667,11.5727891 C203.162585,11.5727891 206.22449,16.2782313 206.22449,24.8938776 C206.22449,33.9632653 203.27551,38.7836735 192.278912,38.7836735 L185.034014,38.7836735 L185.034014,11.5727891 L185.034014,11.5727891 Z" id="Shape"></path>
                <path d="M228.571429,2.72857143 L228.571429,12.2530612 L238.77551,12.2530612 L238.77551,67.355102 L228.571429,67.355102 L228.571429,76.8782313 L263.015646,76.8782313 C293.057823,76.8782313 306.889116,61.3428571 306.889116,39.3503401 C306.889116,17.2442177 292.604762,2.72857143 262.336054,2.72857143 L228.571429,2.72857143 L228.571429,2.72857143 Z M257.823129,12.2530612 L263.242857,12.2530612 C280.134694,12.2530612 286.709524,19.7380952 286.709524,39.4632653 C286.709524,60.3217687 280.47415,67.355102 264.036054,67.355102 L257.823129,67.355102 L257.823129,12.2530612 L257.823129,12.2530612 Z" id="Shape"></path>
                <path d="M305.067347,68.9659864 C305.067347,74.5197279 309.486395,78.9414966 315.156463,78.9414966 C320.937415,78.9414966 325.359184,74.4068027 325.359184,68.852381 C325.359184,63.2979592 320.937415,58.8768707 315.270068,58.8768707 C309.486395,58.8768707 305.067347,63.2979592 305.067347,68.9659864 L305.067347,68.9659864 Z" id="Shape"></path>
                <path d="M354.421769,37.9040816 L354.421769,23.8176871 L331.292517,23.8176871 L331.292517,33.3408163 L338.77551,33.3408163 L338.77551,67.355102 L331.292517,67.355102 L331.292517,76.8782313 L361.22449,76.8782313 L361.22449,67.355102 L355.102041,67.355102 L355.102041,46.8591837 C355.102041,39.2646259 360.193197,33.9367347 365.519728,33.9367347 C367.789116,33.9367347 369.705442,34.6156463 370.951701,35.7496599 C372.651701,37.4510204 373.469388,40.2836735 373.469388,43.7993197 L373.469388,67.355102 L367.346939,67.355102 L367.346939,76.8782313 L397.278912,76.8782313 L397.278912,67.355102 L389.795918,67.355102 L389.795918,41.5319728 C389.795918,30.5360544 385.089796,22.8265306 373.638776,22.8265306 C363.891837,22.8265306 357.823129,28.9482993 354.421769,37.9040816 L354.421769,37.9040816 Z" id="Shape"></path>
                <path d="M398.812245,50.9619048 C398.812245,67.2863946 409.581633,78.1918367 427.267347,78.1918367 C442.117007,78.1918367 449.59932,70.7557823 451.639456,59.8721088 L442.798639,59.8721088 C440.417007,66.6748299 436.44966,68.9959184 430.101361,68.9959184 C421.710884,68.9959184 416.72381,65.3142857 416.043537,52.3884354 L452.206122,52.3884354 C452.99932,35.3823129 444.612245,22.5979592 426.69932,22.5979592 C410.714966,22.5979592 398.812245,34.8646259 398.812245,50.9619048 L398.812245,50.9619048 Z M426.360544,30.5088435 C432.481633,30.5088435 435.429932,34.7020408 435.995238,45.5857143 L416.156463,45.5857143 C416.836735,34.0210884 420.465306,30.5088435 426.360544,30.5088435 L426.360544,30.5088435 Z" id="Shape"></path>
                <path d="M463.945578,12.0571429 L463.945578,24.4979592 L453.741497,24.4979592 L453.741497,33.3408163 L463.265306,33.3408163 L463.265306,60.0095238 C463.265306,72.1394558 469.032653,78.147619 480.597279,78.147619 C491.252381,78.147619 496.906803,72.5931973 499.401361,59.670068 L492.637415,57.7435374 C490.593878,65.1115646 489.082313,67.7190476 485.681633,67.7190476 C481.826531,67.7190476 480.272109,64.9986395 480.272109,60.1231293 L480.272109,33.3408163 L497.278912,33.3408163 L497.278912,24.4979592 L480.272109,24.4979592 L480.272109,10.129932 L463.945578,12.0571429 L463.945578,12.0571429 Z" id="Shape"></path>
            </g>
        </g>
    </g>
</svg>