<?xml version="1.0" encoding="UTF-8"?>
<svg width="500px" height="41px" viewBox="0 0 500 41" version="1.1" xmlns="http://www.w3.org/2000/svg" xmlns:xlink="http://www.w3.org/1999/xlink">
    <!-- Generator: Sketch 49.2 (51160) - http://www.bohemiancoding.com/sketch -->
    <title>masthead</title>
    <desc>Created with Sketch.</desc>
    <defs>
        <linearGradient x1="50%" y1="0%" x2="50%" y2="100%" id="linearGradient-1">
            <stop stop-color="#4D639D" offset="0%"></stop>
            <stop stop-color="#5A509D" offset="100%"></stop>
        </linearGradient>
    </defs>
    <g id="Page-1" stroke="none" stroke-width="1" fill="none" fill-rule="evenodd">
        <g id="crohnsdisease.com" transform="translate(-56.000000, -132.000000)" fill="url(#linearGradient-1)">
            <g id="masthead" transform="translate(56.000000, 132.000000)">
                <path d="M0,21.6110274 C0,32.9166265 7.34921645,40.6031524 18.7630264,40.6031524 C28.674143,40.6031524 34.0745348,34.532174 35.0214006,25.0641811 L29.6766405,25.0641811 C28.729236,31.190809 25.5564153,35.367503 20.0437316,35.367503 C13.7521058,35.367503 9.91003918,31.0789713 9.91003918,21.0534066 C9.91003918,10.5831365 13.5852106,6.73989805 18.8191969,6.73989805 C23.4401567,6.73989805 26.5578355,10.1374024 28.7854065,16.8767616 L34.2976004,16.8767616 L34.2976004,2.28441811 L29.2866797,2.28441811 L28.117238,6.51725142 C25.8902547,3.7881279 22.3825171,2.17311929 17.7054358,2.17311929 C8.12864838,2.17311929 0,10.1930518 0,21.6110274 L0,21.6110274 Z" id="Fill-1"></path>
                <path d="M48.7066112,20.3299153 L48.7066112,13.6456666 L37.2371694,13.6456666 L37.2371694,18.2691725 L41.0786974,18.2691725 L41.0786974,35.0892069 L37.2371694,35.0892069 L37.2371694,39.712174 L54.0519099,39.712174 L54.0519099,35.0892069 L49.2076396,35.0892069 L49.2076396,23.6155819 C50.1542605,20.3855647 51.9916748,18.7149067 53.4951028,18.603069 C53.4951028,18.7705561 53.4392752,18.9375533 53.4392752,19.0488521 C53.4392752,21.6110274 55.3325171,23.0034384 57.7820764,23.0034384 C60.1767875,23.0034384 62.1253673,20.998296 62.1253673,18.2135231 C62.1253673,15.4848894 60.0651322,13.0896624 56.8364349,13.0896624 C53.2722821,13.0896624 50.2654261,15.4848894 48.7066112,20.3299153 L48.7066112,20.3299153 Z" id="Fill-2"></path>
                <path d="M62.5935357,26.7904885 C62.5935357,34.8666093 68.384427,40.2692559 76.6807052,40.2692559 C84.6978452,40.2692559 90.7664055,34.5883622 90.7664055,26.5122415 C90.7664055,18.4917702 84.9764936,13.034013 76.7355534,13.034013 C68.6625857,13.034013 62.5935357,18.7705561 62.5935357,26.7904885 L62.5935357,26.7904885 Z M71.5014691,26.6791897 C71.5014691,19.6615345 73.0053869,16.8205733 76.5132223,16.8205733 C80.132713,16.8205733 81.8584721,19.6058851 81.8584721,26.6235403 C81.8584721,33.6411956 80.4108717,36.4816179 76.8467189,36.4816179 C73.2835455,36.4816179 71.5014691,33.7530332 71.5014691,26.6791897 L71.5014691,26.6791897 Z" id="Fill-3"></path>
                <path d="M90.9319295,1.28214087 L90.9319295,6.01586787 L94.7179236,6.01586787 L94.7179236,35.0892069 L90.9319295,35.0892069 L90.9319295,39.712174 L105.797747,39.712174 L105.797747,35.0892069 L102.902547,35.0892069 L102.902547,24.896694 C102.902547,21.1647054 105.296278,18.5474196 107.857493,18.5474196 C109.026934,18.5474196 109.86239,18.8819039 110.474535,19.4389368 C111.30999,20.273727 111.643976,21.6666768 111.643976,23.3929842 L111.643976,35.0892069 L108.693438,35.0892069 L108.693438,39.712174 L123.559256,39.712174 L123.559256,35.0892069 L119.829089,35.0892069 L119.829089,22.2794082 C119.829089,16.8767616 117.490695,13.0896624 111.866797,13.0896624 C107.635162,13.0896624 104.906954,15.54 102.902547,19.4940474 L102.902547,1.28214087 L90.9319295,1.28214087 Z" id="Fill-4"></path>
                <path d="M136.944172,20.4974024 L136.944172,13.6456666 L125.474535,13.6456666 L125.474535,18.2691725 L129.315867,18.2691725 L129.315867,35.0892069 L125.474535,35.0892069 L125.474535,39.712174 L140.340842,39.712174 L140.340842,35.0892069 L137.445152,35.0892069 L137.445152,24.896694 C137.445152,21.1647054 139.839373,18.5474196 142.455926,18.5474196 C143.56954,18.5474196 144.404995,18.8819039 145.01714,19.4389368 C145.853085,20.273727 146.186582,21.6666768 146.186582,23.3929842 L146.186582,35.0892069 L143.235553,35.0892069 L143.235553,39.712174 L158.102351,39.712174 L158.102351,35.0892069 L154.371694,35.0892069 L154.371694,22.2794082 C154.371694,16.8767616 152.032811,13.0896624 146.409403,13.0896624 C141.62145,13.0896624 138.781097,16.097082 136.944172,20.4974024 L136.944172,20.4974024 Z" id="Fill-5"></path>
                <path d="M160.74094,21.4435403 C160.74094,26.1221078 163.803134,28.127789 170.039177,29.7427976 C175.217434,31.0789713 176.664545,31.8586509 176.664545,33.8637932 C176.664545,35.4793407 175.607248,36.5372673 173.268364,36.5372673 C170.095005,36.5372673 166.921645,34.1425791 164.639079,30.633776 L160.350637,30.633776 L160.350637,40.2130677 L164.639079,40.2130677 L165.529873,36.7047544 C167.199804,38.598059 169.927522,40.2692559 173.992654,40.2692559 C180.339863,40.2692559 183.847698,36.2033708 183.847698,31.6917026 C183.847698,26.5122415 180.005387,24.6746352 174.32713,23.1703866 C169.371205,21.8892745 167.867777,21.1647054 167.867777,19.2714498 C167.867777,17.76774 168.981881,16.7654627 171.153281,16.7654627 C173.936827,16.7654627 176.609207,18.9375533 178.613614,22.0567616 L182.901077,22.0567616 L182.901077,13.1448219 L178.558276,13.1448219 L177.666993,16.264569 C176.052889,14.3145863 173.60284,13.034013 170.20617,13.034013 C164.415769,13.034013 160.74094,16.8767616 160.74094,21.4435403 L160.74094,21.4435403 Z" id="Fill-6"></path>
                <path d="M186.262977,3.06409771 L186.262977,7.90966239 L191.274241,7.90966239 L191.274241,34.8666093 L186.262977,34.8666093 L186.262977,39.712174 L203.022527,39.712174 C217.777669,39.712174 224.570029,31.9704885 224.570029,21.1647054 C224.570029,10.3048894 217.554358,3.06409771 202.688541,3.06409771 L186.262977,3.06409771 Z M200.349657,7.79836356 L203.133692,7.79836356 C211.429971,7.79836356 214.658668,11.5298133 214.658668,21.2214325 C214.658668,31.469105 211.596964,34.9779081 203.523996,34.9779081 L200.349657,34.9779081 L200.349657,7.79836356 Z" id="Fill-7"></path>
                <path d="M229.646915,5.18053886 C229.646915,7.90966239 231.595984,9.8034569 234.602351,9.8034569 C237.553379,9.8034569 239.613614,7.74217529 239.613614,5.01359063 C239.613614,2.34006752 237.609207,0.335513041 234.602351,0.335513041 C231.651812,0.335513041 229.646915,2.45136634 229.646915,5.18053886 L229.646915,5.18053886 Z M226.695886,13.6456666 L226.695886,18.2691725 L230.928012,18.2691725 L230.928012,35.0892069 L226.695886,35.0892069 L226.695886,39.712174 L243.287953,39.712174 L243.287953,35.0892069 L239.057297,35.0892069 L239.057297,13.6456666 L226.695886,13.6456666 Z" id="Fill-8"></path>
                <path d="M245.98286,21.4435403 C245.98286,26.1221078 249.045054,28.127789 255.280607,29.7427976 C260.458864,31.0789713 261.905975,31.8586509 261.905975,33.8637932 C261.905975,35.4793407 260.848678,36.5372673 258.510284,36.5372673 C255.336925,36.5372673 252.163075,34.1425791 249.88002,30.633776 L245.592556,30.633776 L245.592556,40.2130677 L249.88002,40.2130677 L250.770813,36.7047544 C252.441234,38.598059 255.169442,40.2692559 259.233595,40.2692559 C265.581293,40.2692559 269.089128,36.2033708 269.089128,31.6917026 C269.089128,26.5122415 265.247307,24.6746352 259.56856,23.1703866 C254.612635,21.8892745 253.109207,21.1647054 253.109207,19.2714498 C253.109207,17.76774 254.22331,16.7654627 256.394711,16.7654627 C259.178257,16.7654627 261.851126,18.9375533 263.855044,22.0567616 L268.142507,22.0567616 L268.142507,13.1448219 L263.799706,13.1448219 L262.909403,16.264569 C261.294319,14.3145863 258.84427,13.034013 255.44809,13.034013 C249.657199,13.034013 245.98286,16.8767616 245.98286,21.4435403 L245.98286,21.4435403 Z" id="Fill-9"></path>
                <path d="M271.561214,26.9017874 C271.561214,34.9222587 276.850147,40.2692559 285.535749,40.2692559 C292.829579,40.2692559 296.504407,36.7047544 297.507346,31.2465073 L293.163565,31.2465073 C291.994613,34.532174 290.046033,35.813776 286.928012,35.813776 C282.808031,35.813776 280.358472,33.8086826 280.023996,27.7376552 L297.785015,27.7376552 C298.174829,19.2714498 294.054848,13.034013 285.257591,13.034013 C277.407444,13.034013 271.561214,18.9932027 271.561214,26.9017874 L271.561214,26.9017874 Z M285.091087,16.8205733 C288.096964,16.8205733 289.545054,18.9375533 289.823213,24.2283133 L280.079824,24.2283133 C280.41332,18.6587184 282.195397,16.8205733 285.091087,16.8205733 L285.091087,16.8205733 Z" id="Fill-10"></path>
                <path d="M300.9476,20.1624282 C300.9476,22.2232199 302.340353,24.0619039 305.179236,24.0619039 C307.462292,24.0619039 309.132713,22.5576552 309.132713,20.6087502 C309.132713,19.3270992 308.631244,18.3804713 307.796278,17.76774 C308.853575,17.3225447 310.023017,17.0993592 311.13712,17.0993592 C314.366308,17.0993592 315.925563,18.3248219 315.925563,21.6666768 L315.925563,23.9500662 C315.925563,24.618447 315.646425,24.6746352 312.584721,25.1198305 C306.181685,25.9551595 303.509305,27.0692745 301.783056,28.7961697 C300.614104,29.9653952 299.945642,31.5804038 299.945642,33.3072501 C299.945642,37.5395446 303.285994,40.2130677 307.907444,40.2130677 C311.749755,40.2130677 314.867777,38.6537085 316.537708,34.6996611 L316.815867,34.6996611 C317.261508,38.5423607 319.766895,40.2130677 322.940744,40.2130677 C326.670911,40.2130677 328.731146,38.2641136 329.789422,33.975092 L327.060235,33.0841136 C326.560235,34.9779081 325.9476,35.5906395 325.334476,35.5906395 C324.444172,35.5906395 323.942703,35.3118536 323.942703,34.0312803 L323.942703,22.1680604 C323.942703,16.7654627 321.158668,13.0896624 313.309011,13.0896624 C306.905485,13.0896624 300.9476,15.3730518 300.9476,20.1624282 L300.9476,20.1624282 Z M308.24192,32.1374858 C308.24192,29.6309599 309.466699,28.3498477 313.420176,27.681467 C314.811459,27.4032199 315.423604,27.3475705 315.925563,27.2362717 L315.925563,29.798447 C315.925563,33.1403019 314.199804,35.4793407 311.693928,35.4793407 C309.243879,35.4793407 308.24192,33.9199815 308.24192,32.1374858 L308.24192,32.1374858 Z" id="Fill-11"></path>
                <path d="M331.181195,21.4435403 C331.181195,26.1221078 334.243879,28.127789 340.479432,29.7427976 C345.657689,31.0789713 347.105289,31.8586509 347.105289,33.8637932 C347.105289,35.4793407 346.047502,36.5372673 343.708619,36.5372673 C340.53477,36.5372673 337.360921,34.1425791 335.078844,30.633776 L330.791871,30.633776 L330.791871,40.2130677 L335.078844,40.2130677 L335.969638,36.7047544 C337.639569,38.598059 340.368266,40.2692559 344.432419,40.2692559 C350.780607,40.2692559 354.287463,36.2033708 354.287463,31.6917026 C354.287463,26.5122415 350.445642,24.6746352 344.766405,23.1703866 C339.81097,21.8892745 338.308031,21.1647054 338.308031,19.2714498 C338.308031,17.76774 339.421645,16.7654627 341.592556,16.7654627 C344.377081,16.7654627 347.049461,18.9375533 349.053379,22.0567616 L353.341332,22.0567616 L353.341332,13.1448219 L348.998041,13.1448219 L348.107248,16.264569 C346.492654,14.3145863 344.042605,13.034013 340.646915,13.034013 C334.855534,13.034013 331.181195,16.8767616 331.181195,21.4435403 L331.181195,21.4435403 Z" id="Fill-12"></path>
                <path d="M356.22429,26.9017874 C356.22429,34.9222587 361.513712,40.2692559 370.199314,40.2692559 C377.493634,40.2692559 381.167973,36.7047544 382.170421,31.2465073 L377.82762,31.2465073 C376.657689,34.532174 374.709598,35.813776 371.591087,35.813776 C367.471107,35.813776 365.022037,33.8086826 364.687071,27.7376552 L382.44809,27.7376552 C382.838883,19.2714498 378.718413,13.034013 369.920666,13.034013 C362.070519,13.034013 356.22429,18.9932027 356.22429,26.9017874 L356.22429,26.9017874 Z M369.754163,16.8205733 C372.760529,16.8205733 374.208619,18.9375533 374.486778,24.2283133 L364.743389,24.2283133 C365.076885,18.6587184 366.858962,16.8205733 369.754163,16.8205733 L369.754163,16.8205733 Z" id="Fill-13"></path>
                <path d="M384.387365,35.7575877 C384.387365,38.4867112 386.558766,40.6593407 389.342311,40.6593407 C392.181685,40.6593407 394.353575,38.4310618 394.353575,35.7019383 C394.353575,32.9728148 392.181685,30.8007242 389.398139,30.8007242 C386.558766,30.8007242 384.387365,32.9728148 384.387365,35.7575877 L384.387365,35.7575877 Z" id="Fill-14"></path>
                <path d="M395.886876,27.1249729 C395.886876,34.9779081 401.12096,40.2692559 409.972576,40.2692559 C416.543585,40.2692559 420.440744,36.3703191 421.665524,30.7450748 L417.322723,30.7450748 C416.265426,33.7530332 414.204701,35.5349901 411.198335,35.5349901 C406.855534,35.5349901 404.628306,31.9704885 404.628306,26.5122415 C404.628306,20.4974024 407.356024,17.0442486 411.031342,17.0442486 C413.202742,17.0442486 414.539177,17.8233894 415.318315,18.8262055 C414.148874,19.2714498 412.980411,20.5525619 412.980411,22.3350576 C412.980411,24.4514498 414.428012,26.2896439 417.156219,26.2896439 C420.05093,26.2896439 421.609696,24.2845015 421.609696,21.4997286 C421.609696,17.5451423 417.767875,13.034013 410.251714,13.034013 C401.788443,13.034013 395.886876,18.7149067 395.886876,27.1249729 L395.886876,27.1249729 Z" id="Fill-15"></path>
                <path d="M423.498041,26.7904885 C423.498041,34.8666093 429.288932,40.2692559 437.584231,40.2692559 C445.602351,40.2692559 451.671401,34.5883622 451.671401,26.5122415 C451.671401,18.4917702 445.880999,13.034013 437.640548,13.034013 C429.567091,13.034013 423.498041,18.7705561 423.498041,26.7904885 L423.498041,26.7904885 Z M432.406464,26.6791897 C432.406464,19.6615345 433.909892,16.8205733 437.417728,16.8205733 C441.036239,16.8205733 442.762977,19.6058851 442.762977,26.6235403 C442.762977,33.6411956 441.315377,36.4816179 437.751714,36.4816179 C434.188541,36.4816179 432.406464,33.7530332 432.406464,26.6791897 L432.406464,26.6791897 Z" id="Fill-16"></path>
                <path d="M479.501469,19.9954799 C478.945152,15.7069972 476.606758,13.0896624 472.151812,13.0896624 C467.642018,13.0896624 464.802155,16.097082 462.96474,20.4974024 L462.96474,13.6456666 L451.495593,13.6456666 L451.495593,18.2691725 L455.336925,18.2691725 L455.336925,35.0892069 L451.495593,35.0892069 L451.495593,39.712174 L466.13859,39.712174 L466.13859,35.0892069 L463.46621,35.0892069 L463.46621,24.896694 C463.46621,21.1647054 465.860431,18.5474196 468.198825,18.5474196 C469.201273,18.5474196 469.980901,18.8262055 470.481391,19.3827486 C471.316357,20.2186164 471.70666,21.6110274 471.70666,23.3929842 L471.70666,35.0892069 L468.922625,35.0892069 L468.922625,39.712174 L482.508325,39.712174 L482.508325,35.0892069 L479.835945,35.0892069 L479.835945,24.896694 C479.835945,21.1647054 482.229677,18.5474196 484.568071,18.5474196 C485.625857,18.5474196 486.349657,18.8262055 486.905975,19.3827486 C487.74192,20.2186164 488.076396,21.6110274 488.076396,23.3929842 L488.076396,35.0892069 L485.29236,35.0892069 L485.29236,39.712174 L499.990206,39.712174 L499.990206,35.0892069 L496.204701,35.0892069 L496.204701,22.2794082 C496.204701,16.8767616 493.976494,13.0896624 488.521058,13.0896624 C484.178257,13.0896624 481.394221,15.818296 479.501469,19.9954799 L479.501469,19.9954799 Z" id="Fill-17"></path>
            </g>
        </g>
    </g>
</svg>