<?xml version="1.0" encoding="UTF-8"?>
<svg width="595px" height="41px" viewBox="0 0 595 41" version="1.1" xmlns="http://www.w3.org/2000/svg" xmlns:xlink="http://www.w3.org/1999/xlink">
    <!-- Generator: Sketch 49.3 (51167) - http://www.bohemiancoding.com/sketch -->
    <title>9</title>
    <desc>Created with Sketch.</desc>
    <defs>
        <linearGradient x1="50%" y1="0%" x2="50%" y2="100%" id="linearGradient-1">
            <stop stop-color="#7674D0" offset="0%"></stop>
            <stop stop-color="#5D71C5" offset="100%"></stop>
        </linearGradient>
    </defs>
    <g id="Page-1" stroke="none" stroke-width="1" fill="none" fill-rule="evenodd">
        <g id="9" transform="translate(0.000000, 0.375546)" fill="url(#linearGradient-1)">
            <polygon id="Fill-1" points="0 32.1535065 15.6341898 32.1535065 15.6341898 28.2302857 11.4890827 28.2302857 11.4890827 6.40446753 15.6341898 6.40446753 15.6341898 2.48124675 0 2.48124675 0 6.40446753 4.14510709 6.40446753 4.14510709 28.2302857 0 28.2302857"></polygon>
            <path d="M17.6315104,32.1535065 L31.2382242,32.1535065 L31.2382242,28.4107013 L27.3183749,28.4107013 L27.3183749,19.1211948 C28.0843553,16.5057143 29.5711607,15.1528312 30.7876567,15.0626494 C30.7876567,15.1979221 30.7426051,15.3332468 30.7426051,15.4234286 C30.7426051,17.4977662 32.274462,18.6251429 34.2568865,18.6251429 C36.1943113,18.6251429 37.7712198,17.0017143 37.7712198,14.747013 C37.7712198,12.5373506 36.1041563,10.5982857 33.490958,10.5982857 C30.6074504,10.5982857 28.1744584,12.5373506 26.9129109,16.4605714 L26.9129109,11.0492468 L17.6315104,11.0492468 L17.6315104,14.7921039 L20.7403277,14.7921039 L20.7403277,28.4107013 L17.6315104,28.4107013 L17.6315104,32.1535065 Z" id="Fill-2"></path>
            <path d="M38.762458,32.1535065 L52.3693275,32.1535065 L52.3693275,28.4107013 L48.4493225,28.4107013 L48.4493225,19.1211948 C49.215251,16.5057143 50.7021083,15.1528312 51.9188119,15.0626494 C51.9188119,15.1979221 51.8735527,15.3332468 51.8735527,15.4234286 C51.8735527,17.4977662 53.4053059,18.6251429 55.3879898,18.6251429 C57.3249994,18.6251429 58.9023232,17.0017143 58.9023232,14.747013 C58.9023232,12.5373506 57.2352077,10.5982857 54.6219057,10.5982857 C51.7383461,10.5982857 49.3053541,12.5373506 48.0438066,16.4605714 L48.0438066,11.0492468 L38.762458,11.0492468 L38.762458,14.7921039 L41.8712754,14.7921039 L41.8712754,28.4107013 L38.762458,28.4107013 L38.762458,32.1535065 Z" id="Fill-3"></path>
            <path d="M66.3815054,7.93771429 C68.7690306,7.93771429 70.4361461,6.26919481 70.4361461,4.05958442 C70.4361461,1.89501299 68.814186,0.271636364 66.3815054,0.271636364 C63.9934612,0.271636364 62.3715011,1.98519481 62.3715011,4.19485714 C62.3715011,6.40446753 63.9483058,7.93771429 66.3815054,7.93771429 L66.3815054,7.93771429 Z M59.9834569,32.1535065 L73.410172,32.1535065 L73.410172,28.4107013 L69.9856304,28.4107013 L69.9856304,11.0492468 L59.9834569,11.0492468 L59.9834569,14.7921039 L63.4074794,14.7921039 L63.4074794,28.4107013 L59.9834569,28.4107013 L59.9834569,32.1535065 Z" id="Fill-4"></path>
            <path d="M76.593366,6.31428571 L76.593366,11.2747013 L72.7188278,11.2747013 L72.7188278,14.7921039 L76.4584189,14.7921039 L76.4584189,25.3893506 C76.4584189,30.2144416 78.710997,32.6044675 83.3069831,32.6044675 C87.5422452,32.6044675 89.749668,30.3948571 90.7410099,25.254026 L88.0373972,24.4874286 C87.2266766,27.4185974 86.5960586,28.4557922 85.2439927,28.4557922 C83.7123433,28.4557922 83.0365699,27.3735065 83.0365699,25.4344416 L83.0365699,14.7921039 L89.7948233,14.7921039 L89.7948233,11.2747013 L83.0365699,11.2747013 L83.0365699,5.54768831 L76.593366,6.31428571 Z" id="Fill-5"></path>
            <path d="M98.4906054,32.5593766 C101.599059,32.5593766 104.12257,31.2967273 105.474117,28.095013 L105.699374,28.095013 C106.059579,31.2065455 108.087419,32.5593766 110.655565,32.5593766 C113.674228,32.5593766 115.341343,30.9810909 116.197219,27.5087792 L113.989277,26.7872727 C113.583917,28.3204675 113.088246,28.8165195 112.592575,28.8165195 C111.871646,28.8165195 111.466286,28.5910649 111.466286,27.5538701 L111.466286,17.9487273 C111.466286,13.5745455 109.213708,10.5982857 102.860815,10.5982857 C97.6793658,10.5982857 92.858641,12.4471688 92.858641,16.3252987 C92.858641,17.9938182 93.9849301,19.4819221 96.2826636,19.4819221 C98.1298815,19.4819221 99.4819474,18.2643636 99.4819474,16.6860779 C99.4819474,15.6488831 99.0760681,14.8822857 98.4002946,14.3862338 C99.2561705,14.0255065 100.202357,13.8450909 101.103907,13.8450909 C103.71669,13.8450909 104.978446,14.8371948 104.978446,17.5428571 L104.978446,19.3917403 C104.978446,19.9328831 104.753188,19.977974 102.275352,20.3387532 C97.0939031,21.0151688 94.9311167,21.917039 93.5344145,23.314961 C92.5882278,24.261974 92.0474015,25.5697143 92.0474015,26.9676364 C92.0474015,30.3948571 94.7510143,32.5593766 98.4906054,32.5593766 L98.4906054,32.5593766 Z M101.554423,28.7263377 C99.5717391,28.7263377 98.7610186,27.4636883 98.7610186,26.0206753 C98.7610186,23.9913766 99.7518415,22.9542338 102.951125,22.4130909 C104.077414,22.1876364 104.573085,22.1425455 104.978446,22.0523117 L104.978446,24.1267013 C104.978446,26.8323636 103.581743,28.7263377 101.554423,28.7263377 L101.554423,28.7263377 Z" id="Fill-6"></path>
            <path d="M128.587437,28.9517922 C125.748877,28.9517922 124.081762,26.1108571 124.081762,21.9621299 C124.081762,17.9036364 125.703722,14.747013 128.587437,14.747013 C131.200739,14.747013 132.372183,17.137039 132.372183,21.6464935 C132.372183,26.4264935 131.200739,28.9517922 128.587437,28.9517922 L128.587437,28.9517922 Z M117.864334,32.4691948 L121.333512,32.4691948 L123.405988,28.1851948 C124.80269,30.8457662 127.055787,32.6044675 130.795379,32.6044675 C133.047957,32.6044675 134.985485,31.7927792 136.426824,30.3497662 C138.319197,28.4557922 139.445486,25.3442597 139.445486,21.5563117 C139.445486,17.8134545 138.499819,14.6568312 136.56229,12.7177662 C135.25538,11.409974 133.588783,10.5531948 131.200739,10.5531948 C128.001455,10.5531948 125.794032,12.4471688 124.487641,15.2430649 L124.487641,1.03823377 L114.800517,1.03823377 L114.800517,4.87127273 L117.864334,4.87127273 L117.864334,32.4691948 Z" id="Fill-7"></path>
            <polygon id="Fill-8" points="140.677138 32.1535065 154.148489 32.1535065 154.148489 28.4107013 150.724467 28.4107013 150.724467 1.03823377 140.677138 1.03823377 140.677138 4.87127273 144.10116 4.87127273 144.10116 28.4107013 140.677138 28.4107013"></polygon>
            <path d="M176.510777,22.4581818 C176.826346,15.6037922 173.492115,10.5531948 166.373657,10.5531948 C160.020763,10.5531948 155.28983,15.3783377 155.28983,21.7817662 C155.28983,28.2753766 159.570248,32.6044675 166.598914,32.6044675 C172.501292,32.6044675 175.474799,29.7184416 176.285519,25.2991688 L172.771186,25.2991688 C171.824999,27.9597403 170.248195,28.9968831 167.725203,28.9968831 C164.390973,28.9968831 162.408808,27.3735065 162.138394,22.4581818 L176.510777,22.4581818 Z M166.23819,13.6196364 C168.67139,13.6196364 169.842834,15.3332468 170.068092,19.6172468 L162.18355,19.6172468 C162.453963,15.1077403 163.895302,13.6196364 166.23819,13.6196364 L166.23819,13.6196364 Z" id="Fill-9"></path>
            <path d="M177.441912,32.1535065 L192.941103,32.1535065 C202.492761,32.1535065 205.601215,28.4557922 205.601215,23.9462857 C205.601215,20.0230649 202.763174,17.4526753 196.545228,16.7762597 L196.545228,16.4605714 C202.492761,15.5587013 204.520081,12.6275325 204.520081,9.65132468 C204.520081,6.13392208 202.312139,2.48124675 192.67069,2.48124675 L177.441912,2.48124675 L177.441912,6.40446753 L181.497072,6.40446753 L181.497072,28.2302857 L177.441912,28.2302857 L177.441912,32.1535065 Z M188.840788,14.8371948 L188.840788,6.40446753 L191.949761,6.40446753 C196.049557,6.40446753 197.13121,7.66711688 197.13121,10.3277403 C197.13121,13.1235844 195.869454,14.8371948 191.85945,14.8371948 L188.840788,14.8371948 Z M188.840788,28.2302857 L188.840788,18.6251429 L191.85945,18.6251429 C196.500073,18.6251429 198.077396,20.4289351 198.077396,23.2698701 C198.077396,26.9225455 196.590383,28.2302857 191.949761,28.2302857 L188.840788,28.2302857 Z" id="Fill-10"></path>
            <path d="M219.073085,32.6044675 C225.560926,32.6044675 230.471961,28.0048312 230.471961,21.4660779 C230.471961,14.9724675 225.786183,10.5531948 219.118241,10.5531948 C212.584726,10.5531948 207.673691,15.1979221 207.673691,21.6915844 C207.673691,28.2302857 212.359468,32.6044675 219.073085,32.6044675 L219.073085,32.6044675 Z M219.208032,29.538026 C216.324317,29.538026 214.882979,27.3284156 214.882979,21.6014026 C214.882979,15.9194805 216.099059,13.6196364 218.937619,13.6196364 C221.86649,13.6196364 223.263192,15.8743896 223.263192,21.5563117 C223.263192,27.2382338 222.091748,29.538026 219.208032,29.538026 L219.208032,29.538026 Z" id="Fill-11"></path>
            <polygon id="Fill-12" points="256.753943 14.747013 256.753943 11.0492468 244.859396 11.0492468 244.859396 14.747013 247.24744 14.747013 247.788266 16.4154805 243.913209 27.2382338 243.733107 27.2382338 240.173618 14.747013 242.78692 14.747013 242.78692 11.0492468 230.576805 11.0492468 230.576805 14.7921039 233.325054 14.7921039 238.776916 32.3339221 245.670635 32.3339221 249.545174 21.5112208 253.104662 32.3339221 259.908071 32.3339221 265.314778 14.7921039 268.063027 14.7921039 268.063027 11.0492468 258.916729 11.0492468 258.916729 14.747013 261.349929 14.747013 257.925387 27.2382338 257.745285 27.2382338 254.005693 14.747013"></polygon>
            <path d="M289.644179,22.4581818 C289.959747,15.6037922 286.625516,10.5531948 279.507058,10.5531948 C273.154165,10.5531948 268.423232,15.3783377 268.423232,21.7817662 C268.423232,28.2753766 272.703649,32.6044675 279.732316,32.6044675 C285.634693,32.6044675 288.6082,29.7184416 289.418921,25.2991688 L285.904587,25.2991688 C284.95892,27.9597403 283.381596,28.9968831 280.858605,28.9968831 C277.524374,28.9968831 275.542209,27.3735065 275.271796,22.4581818 L289.644179,22.4581818 Z M279.371592,13.6196364 C281.804791,13.6196364 282.976236,15.3332468 283.201494,19.6172468 L275.316951,19.6172468 C275.587364,15.1077403 277.028703,13.6196364 279.371592,13.6196364 L279.371592,13.6196364 Z" id="Fill-13"></path>
            <polygon id="Fill-14" points="290.830675 32.1535065 304.302026 32.1535065 304.302026 28.4107013 300.878004 28.4107013 300.878004 1.03823377 290.830675 1.03823377 290.830675 4.87127273 294.254697 4.87127273 294.254697 28.4107013 290.830675 28.4107013"></polygon>
            <path d="M306.780381,32.7848312 L310.700075,32.7848312 L311.781208,29.2674805 C313.448324,31.3418182 316.692244,32.8750649 320.387199,32.8750649 C326.829884,32.8750649 331.290404,28.8616104 331.290404,23.2247792 C331.290404,16.7762597 325.974008,15.1979221 321.152764,14.0255065 C316.692244,12.9432208 313.403688,12.2668052 313.403688,9.29054545 C313.403688,7.2612987 315.025648,5.5025974 318.04431,5.5025974 C321.873693,5.5025974 324.081635,7.48675325 325.974008,12.4020779 L329.938857,12.4020779 L329.938857,1.84992208 L325.974008,1.84992208 L325.027821,5.05163636 C323.495653,2.9772987 320.702248,1.75974026 317.458328,1.75974026 C311.691417,1.75974026 307.050794,5.68296104 307.050794,11.1845195 C307.050794,17.8134545 312.547293,19.4819221 317.413173,20.6543896 C321.918848,21.7817662 324.93751,22.4581818 324.93751,25.2089351 C324.93751,27.5538701 323.135448,29.1322078 319.936683,29.1322078 C315.160595,29.1322078 312.682759,26.8323636 310.74523,21.7817662 L306.780381,21.7817662 L306.780381,32.7848312 Z" id="Fill-15"></path>
            <path d="M335.841234,31.5221818 C333.76824,31.5221818 332.371537,33.1907013 332.371537,35.3101818 C332.371537,38.0158442 334.354221,40 338.183604,40 C343.050003,40 345.482684,36.663013 347.64547,31.5673247 L354.854239,14.7921039 L357.422386,14.7921039 L357.422386,11.0492468 L348.186297,11.0492468 L348.186297,14.7921039 L350.844235,14.7921039 L346.608973,25.8402597 L341.878559,14.7921039 L345.077324,14.7921039 L345.077324,11.0492468 L331.875866,11.0492468 L331.875866,14.7921039 L334.66979,14.7921039 L343.139795,32.5142857 C341.833404,35.6709091 340.707115,36.5276883 338.859897,36.7531948 C339.085154,36.3022338 339.220102,35.6709091 339.220102,35.0846753 C339.220102,33.325974 338.138968,31.5221818 335.841234,31.5221818 L335.841234,31.5221818 Z" id="Fill-16"></path>
            <path d="M358.623934,32.1535065 L370.653947,32.1535065 L370.653947,28.4107013 L368.311058,28.4107013 L368.311058,20.1583377 C368.311058,17.137039 370.248587,15.0175584 372.365699,15.0175584 C373.267249,15.0175584 373.943023,15.2881558 374.438694,15.7390649 C375.114467,16.4154805 375.38488,17.5428571 375.38488,18.9407792 L375.38488,28.4107013 L372.996836,28.4107013 L372.996836,32.1535065 L385.02633,32.1535065 L385.02633,28.4107013 L382.007668,28.4107013 L382.007668,18.0389091 C382.007668,13.6647273 380.115294,10.5982857 375.564983,10.5982857 C371.689925,10.5982857 369.392192,13.0334026 367.905698,16.5958961 L367.905698,11.0492468 L358.623934,11.0492468 L358.623934,14.7921039 L361.732907,14.7921039 L361.732907,28.4107013 L358.623934,28.4107013 L358.623934,32.1535065 Z" id="Fill-17"></path>
            <path d="M394.322626,32.6044675 C397.747168,32.6044675 400.090057,30.6654026 401.351293,27.7342338 L401.351293,32.1535065 L410.542746,32.1535065 L410.542746,28.4107013 L407.524084,28.4107013 L407.524084,1.03823377 L397.702013,1.03823377 L397.702013,4.87127273 L400.945933,4.87127273 L400.945933,14.1607792 C399.639022,12.0412987 397.611702,10.5531948 394.59304,10.5531948 C392.340461,10.5531948 390.448088,11.3648831 389.051386,12.8079481 C387.113857,14.7019221 385.987568,17.9036364 385.987568,21.6915844 C385.987568,25.2991688 386.933755,28.4557922 388.871284,30.3948571 C390.22283,31.7476883 392.024893,32.6044675 394.322626,32.6044675 L394.322626,32.6044675 Z M397.070876,28.7263377 C394.412937,28.7263377 393.06139,26.2912208 393.06139,21.7366753 C393.06139,17.0468052 394.322626,14.5215065 397.070876,14.5215065 C400.090057,14.5215065 401.351293,17.633039 401.351293,21.6014026 C401.351293,25.7500779 399.684178,28.7263377 397.070876,28.7263377 L397.070876,28.7263377 Z" id="Fill-18"></path>
            <path d="M412.299653,32.1535065 L425.906471,32.1535065 L425.906471,28.4107013 L421.986777,28.4107013 L421.986777,19.1211948 C422.752861,16.5057143 424.239355,15.1528312 425.455955,15.0626494 C425.455955,15.1979221 425.4108,15.3332468 425.4108,15.4234286 C425.4108,17.4977662 426.942968,18.6251429 428.925133,18.6251429 C430.862662,18.6251429 432.439466,17.0017143 432.439466,14.747013 C432.439466,12.5373506 430.772351,10.5982857 428.159049,10.5982857 C425.275853,10.5982857 422.842653,12.5373506 421.581417,16.4605714 L421.581417,11.0492468 L412.299653,11.0492468 L412.299653,14.7921039 L415.408626,14.7921039 L415.408626,28.4107013 L412.299653,28.4107013 L412.299653,32.1535065 Z" id="Fill-19"></path>
            <path d="M444.199066,32.6044675 C450.686906,32.6044675 455.597942,28.0048312 455.597942,21.4660779 C455.597942,14.9724675 450.912164,10.5531948 444.244222,10.5531948 C437.711226,10.5531948 432.80019,15.1979221 432.80019,21.6915844 C432.80019,28.2302857 437.485968,32.6044675 444.199066,32.6044675 L444.199066,32.6044675 Z M444.334013,29.538026 C441.450817,29.538026 440.008959,27.3284156 440.008959,21.6014026 C440.008959,15.9194805 441.225559,13.6196364 444.0636,13.6196364 C446.992471,13.6196364 448.389173,15.8743896 448.389173,21.5563117 C448.389173,27.2382338 447.217729,29.538026 444.334013,29.538026 L444.334013,29.538026 Z" id="Fill-20"></path>
            <path d="M479.281673,16.190026 C478.831157,12.7177662 476.938784,10.5982857 473.334659,10.5982857 C469.68486,10.5982857 467.387126,13.0334026 465.900113,16.5958961 L465.900113,11.0492468 L456.618869,11.0492468 L456.618869,14.7921039 L459.727842,14.7921039 L459.727842,28.4107013 L456.618869,28.4107013 L456.618869,32.1535065 L468.46826,32.1535065 L468.46826,28.4107013 L466.305993,28.4107013 L466.305993,20.1583377 C466.305993,17.137039 468.243002,15.0175584 470.135375,15.0175584 C470.946615,15.0175584 471.577233,15.2430649 471.982593,15.693974 C472.658367,16.3703896 472.973935,17.4977662 472.973935,18.9407792 L472.973935,28.4107013 L470.721357,28.4107013 L470.721357,32.1535065 L481.714873,32.1535065 L481.714873,28.4107013 L479.552086,28.4107013 L479.552086,20.1583377 C479.552086,17.137039 481.489615,15.0175584 483.381988,15.0175584 C484.237864,15.0175584 484.823327,15.2430649 485.274361,15.693974 C485.950135,16.3703896 486.220029,17.4977662 486.220029,18.9407792 L486.220029,28.4107013 L483.967451,28.4107013 L483.967451,32.1535065 L495.861998,32.1535065 L495.861998,28.4107013 L492.79818,28.4107013 L492.79818,18.0389091 C492.79818,13.6647273 490.996117,10.5982857 486.580753,10.5982857 C483.06642,10.5982857 480.813841,12.8079481 479.281673,16.190026 L479.281673,16.190026 Z" id="Fill-21"></path>
            <path d="M517.428098,22.4581818 C517.743666,15.6037922 514.409435,10.5531948 507.290977,10.5531948 C500.938084,10.5531948 496.207151,15.3783377 496.207151,21.7817662 C496.207151,28.2753766 500.487568,32.6044675 507.516235,32.6044675 C513.418612,32.6044675 516.392119,29.7184416 517.20284,25.2991688 L513.688507,25.2991688 C512.74232,27.9597403 511.165515,28.9968831 508.642524,28.9968831 C505.308293,28.9968831 503.326128,27.3735065 503.055715,22.4581818 L517.428098,22.4581818 Z M507.155511,13.6196364 C509.588711,13.6196364 510.760155,15.3332468 510.985413,19.6172468 L503.10087,19.6172468 C503.371284,15.1077403 504.812622,13.6196364 507.155511,13.6196364 L507.155511,13.6196364 Z" id="Fill-22"></path>
            <path d="M522.847261,32.9201558 C525.146552,32.9201558 526.906054,31.1163636 526.906054,28.9067013 C526.906054,26.6970909 525.146552,24.9383896 522.893973,24.9383896 C520.594683,24.9383896 518.839852,26.6970909 518.839852,28.9517922 C518.839852,31.1614545 520.594683,32.9201558 522.847261,32.9201558 L522.847261,32.9201558 Z" id="Fill-23"></path>
            <path d="M528.904309,32.1535065 L540.930169,32.1535065 L540.930169,28.4107013 L538.589357,28.4107013 L538.589357,20.1583377 C538.589357,17.137039 540.525328,15.0175584 542.642959,15.0175584 C543.546066,15.0175584 544.220802,15.2881558 544.719068,15.7390649 C545.393803,16.4154805 545.663698,17.5428571 545.663698,18.9407792 L545.663698,28.4107013 L543.276172,28.4107013 L543.276172,32.1535065 L555.302033,32.1535065 L555.302033,28.4107013 L552.286485,28.4107013 L552.286485,18.0389091 C552.286485,13.6647273 550.392036,10.5982857 545.845357,10.5982857 C541.968224,10.5982857 539.668933,13.0334026 538.184515,16.5958961 L538.184515,11.0492468 L528.904309,11.0492468 L528.904309,14.7921039 L532.013282,14.7921039 L532.013282,28.4107013 L528.904309,28.4107013 L528.904309,32.1535065 Z" id="Fill-24"></path>
            <path d="M576.582149,22.4581818 C576.898756,15.6037922 573.566601,10.5531948 566.445547,10.5531948 C560.092654,10.5531948 555.364316,15.3783377 555.364316,21.7817662 C555.364316,28.2753766 559.641101,32.6044675 566.673919,32.6044675 C572.575259,32.6044675 575.549285,29.7184416 576.358967,25.2991688 L572.845153,25.2991688 C571.900524,27.9597403 570.322681,28.9968831 567.800209,28.9968831 C564.462863,28.9968831 562.48018,27.3735065 562.210285,22.4581818 L576.582149,22.4581818 Z M566.3106,13.6196364 C568.744838,13.6196364 569.91784,15.3332468 570.141021,19.6172468 L562.256998,19.6172468 C562.526892,15.1077403 563.969788,13.6196364 566.3106,13.6196364 L566.3106,13.6196364 Z" id="Fill-25"></path>
            <path d="M580.640942,6.31428571 L580.640942,11.2747013 L576.763809,11.2747013 L576.763809,14.7921039 L580.505995,14.7921039 L580.505995,25.3893506 C580.505995,30.2144416 582.758573,32.6044675 587.351964,32.6044675 C591.587226,32.6044675 593.798282,30.3948571 594.789624,25.254026 L592.085492,24.4874286 C591.270619,27.4185974 590.642596,28.4557922 589.293126,28.4557922 C587.756805,28.4557922 587.08207,27.3735065 587.08207,25.4344416 L587.08207,14.7921039 L593.839804,14.7921039 L593.839804,11.2747013 L587.08207,11.2747013 L587.08207,5.54768831 L580.640942,6.31428571 Z" id="Fill-26"></path>
        </g>
    </g>
</svg>