<?xml version="1.0" encoding="UTF-8"?>
<svg width="500px" height="29px" viewBox="0 0 500 29" version="1.1" xmlns="http://www.w3.org/2000/svg" xmlns:xlink="http://www.w3.org/1999/xlink">
    <!-- Generator: Sketch 49.2 (51160) - http://www.bohemiancoding.com/sketch -->
    <title>masthead</title>
    <desc>Created with Sketch.</desc>
    <defs></defs>
    <g id="Page-1" stroke="none" stroke-width="1" fill="none" fill-rule="evenodd">
        <g id="advancedbreastcancer.net" transform="translate(-56.000000, -147.000000)" fill="#FD9A8C">
            <g id="masthead" transform="translate(56.000000, 147.000000)">
                <path d="M19.1119717,24.4549832 L17.436183,19.5473161 L8.45874324,19.5473161 L6.78295448,24.4549832 L10.0946323,24.4549832 L10.0946323,27.9262599 L-2.84217094e-14,27.9262599 L-2.84217094e-14,24.4549832 L2.87278072,24.4549832 L11.331524,1.51263715 L17.87508,1.51263715 L26.2141241,24.4549832 L29.3263032,24.4549832 L29.3263032,27.9262599 L15.5608956,27.9262599 L15.5608956,24.4549832 L19.1119717,24.4549832 Z M12.9275133,6.57990315 L9.53603601,16.3952373 L16.39879,16.3952373 L13.0871122,6.57990315 L12.9275133,6.57990315 Z M36.4783644,28.3252572 C34.443478,28.3252572 32.8474888,27.5671623 31.6504968,26.3701703 C29.9348083,24.6544819 29.0969139,21.8615006 29.0969139,18.669522 C29.0969139,15.3179445 30.0944072,12.4850635 31.8100957,10.8092748 C33.0469874,9.53248333 34.7227762,8.81428815 36.7177628,8.81428815 C39.3910448,8.81428815 41.1865328,10.1309793 42.343625,12.0062667 L42.343625,3.78692189 L39.4708443,3.78692189 L39.4708443,0.395444648 L48.1689859,0.395444648 L48.1689859,24.6145821 L50.842268,24.6145821 L50.842268,27.9262599 L42.7027226,27.9262599 L42.7027226,24.0160861 C41.5855301,26.6095687 39.510744,28.3252572 36.4783644,28.3252572 Z M38.9122481,24.8938803 C41.2264325,24.8938803 42.7027226,22.2604979 42.7027226,18.5897226 C42.7027226,15.0785461 41.5855301,12.3254646 38.9122481,12.3254646 C36.4783644,12.3254646 35.3611719,14.5598496 35.3611719,18.7094218 C35.3611719,22.7392947 36.5581639,24.8938803 38.9122481,24.8938803 Z M58.6746264,28.0858588 L64.4201879,28.0858588 L70.6844459,12.564863 L72.9986303,12.564863 L72.9986303,9.25318521 L64.7792855,9.25318521 L64.7792855,12.564863 L67.1732694,12.564863 L63.063597,23.8165875 L62.8640983,23.8165875 L58.9938243,12.564863 L61.866605,12.564863 L61.866605,9.25318521 L50.1759835,9.25318521 L50.1759835,12.564863 L52.6098671,12.564863 L58.6746264,28.0858588 Z M78.9587828,28.2853575 C75.647105,28.2853575 73.253121,26.3701703 73.253121,23.3377907 C73.253121,22.100899 73.7319178,20.9438068 74.5698122,20.1059124 C75.8067039,18.8690207 77.7218911,18.071026 82.3103603,17.4725301 C84.5048455,17.1533322 84.7043442,17.1134325 84.7043442,16.6346357 L84.7043442,14.9987467 C84.7043442,12.6047627 83.5871517,11.7269686 81.2729672,11.7269686 C80.4749726,11.7269686 79.6370782,11.8865675 78.8789833,12.2057654 C79.4774793,12.6446625 79.8365769,13.3229579 79.8365769,14.2406517 C79.8365769,15.6371424 78.6395849,16.7144351 77.0036959,16.7144351 C74.9688095,16.7144351 73.9713162,15.397744 73.9713162,13.9214539 C73.9713162,10.4900769 78.2405876,8.85418789 82.8290568,8.85418789 C88.454919,8.85418789 90.4499056,11.4875702 90.4499056,15.3578442 L90.4499056,23.8564872 C90.4499056,24.7741811 90.8090032,24.9736797 91.447399,24.9736797 C91.886296,24.9736797 92.3251931,24.5347827 92.6842907,23.1781918 L94.6393775,23.8165875 C93.8812826,26.8888669 92.4049925,28.2853575 89.7317105,28.2853575 C87.4574257,28.2853575 85.6619378,27.0883655 85.3427399,24.335284 L85.1432413,24.335284 C83.9462493,27.168165 81.7118643,28.2853575 78.9587828,28.2853575 Z M81.6719645,24.8938803 C83.4674525,24.8938803 84.7043442,23.2180915 84.7043442,20.8241076 L84.7043442,18.9887199 C84.3452466,19.0685193 83.9063496,19.1084191 82.9088562,19.3079177 C80.0759753,19.7867145 79.1981811,20.7044084 79.1981811,22.4998963 C79.1981811,23.7766877 79.9163763,24.8938803 81.6719645,24.8938803 Z M95.1181743,27.9262599 L105.771403,27.9262599 L105.771403,24.6145821 L103.696617,24.6145821 L103.696617,17.3129311 C103.696617,14.6396491 105.412305,12.7643616 107.287593,12.7643616 C108.085587,12.7643616 108.684083,13.00376 109.12298,13.4027574 C109.721476,14.0012533 109.960875,14.9987467 109.960875,16.2356384 L109.960875,24.6145821 L107.846189,24.6145821 L107.846189,27.9262599 L118.499417,27.9262599 L118.499417,24.6145821 L115.826135,24.6145821 L115.826135,15.4376437 C115.826135,11.5673697 114.150347,8.85418789 110.120474,8.85418789 C106.689097,8.85418789 104.65421,11.0087734 103.337519,14.1608523 L103.337519,9.25318521 L95.1181743,9.25318521 L95.1181743,12.564863 L97.8712558,12.564863 L97.8712558,24.6145821 L95.1181743,24.6145821 L95.1181743,27.9262599 Z M128.331648,28.3252572 C133.039816,28.3252572 135.832798,25.532276 136.710592,21.502403 L133.598413,21.502403 C132.840318,23.6569886 131.364028,24.93378 129.209442,24.93378 C126.097263,24.93378 124.501274,22.3801971 124.501274,18.4700234 C124.501274,14.1608523 126.456361,11.6870689 129.089743,11.6870689 C130.645833,11.6870689 131.603426,12.2456651 132.162022,12.9638603 C131.324128,13.2830582 130.486234,14.200752 130.486234,15.4775434 C130.486234,16.9937333 131.523627,18.3104244 133.478713,18.3104244 C135.5535,18.3104244 136.670692,16.8740341 136.670692,14.8790475 C136.670692,12.0461665 133.917611,8.81428815 128.531147,8.81428815 C122.466387,8.81428815 118.237016,12.8840608 118.237016,18.9089204 C118.237016,24.5347827 121.987591,28.3252572 128.331648,28.3252572 Z M156.819813,19.3478175 L144.091798,19.3478175 C144.331196,23.6968883 146.086785,25.1332786 149.039365,25.1332786 C151.27375,25.1332786 152.67024,24.2155848 153.508135,21.8615006 L156.620314,21.8615006 C155.902119,25.7716744 153.268736,28.3252572 148.041871,28.3252572 C141.817513,28.3252572 138.027039,24.4948829 138.027039,18.7493215 C138.027039,13.0835595 142.216511,8.81428815 147.842373,8.81428815 C154.146531,8.81428815 157.099111,13.2830582 156.819813,19.3478175 Z M147.722674,11.5274699 C145.647888,11.5274699 144.371096,12.8441611 144.131698,16.8341343 L151.114151,16.8341343 C150.914652,13.0436598 149.877259,11.5274699 147.722674,11.5274699 Z M166.198643,28.3252572 C164.163757,28.3252572 162.567767,27.5671623 161.370775,26.3701703 C159.655087,24.6544819 158.817192,21.8615006 158.817192,18.669522 C158.817192,15.3179445 159.814686,12.4850635 161.530374,10.8092748 C162.767266,9.53248333 164.443055,8.81428815 166.438041,8.81428815 C169.111323,8.81428815 170.906811,10.1309793 172.063904,12.0062667 L172.063904,3.78692189 L169.191123,3.78692189 L169.191123,0.395444648 L177.889264,0.395444648 L177.889264,24.6145821 L180.562547,24.6145821 L180.562547,27.9262599 L172.423001,27.9262599 L172.423001,24.0160861 C171.305809,26.6095687 169.231023,28.3252572 166.198643,28.3252572 Z M168.632527,24.8938803 C170.946711,24.8938803 172.423001,22.2604979 172.423001,18.5897226 C172.423001,15.0785461 171.305809,12.3254646 168.632527,12.3254646 C166.198643,12.3254646 165.08145,14.5598496 165.08145,18.7094218 C165.08145,22.7392947 166.278442,24.8938803 168.632527,24.8938803 Z M181.8441,27.9262599 L181.8441,24.4549832 L185.435076,24.4549832 L185.435076,5.14351279 L181.8441,5.14351279 L181.8441,1.67223608 L195.330209,1.67223608 C203.868752,1.67223608 205.823839,4.90411439 205.823839,8.01629351 C205.823839,10.6496758 204.028351,13.2431584 198.761586,14.0411531 L198.761586,14.3204512 C204.267749,14.9189472 206.781432,17.1932319 206.781432,20.6645086 C206.781432,24.6544819 204.028351,27.9262599 195.569608,27.9262599 L181.8441,27.9262599 Z M191.938732,12.6047627 L194.612014,12.6047627 C198.16309,12.6047627 199.280283,11.0885729 199.280283,8.61478949 C199.280283,6.26070529 198.322689,5.14351279 194.691813,5.14351279 L191.938732,5.14351279 L191.938732,12.6047627 Z M191.938732,24.4549832 L194.691813,24.4549832 C198.801486,24.4549832 200.118177,23.297891 200.118177,20.0660126 C200.118177,17.5523295 198.721686,15.9563402 194.612014,15.9563402 L191.938732,15.9563402 L191.938732,24.4549832 Z M208.021995,27.9262599 L220.071714,27.9262599 L220.071714,24.6145821 L216.600437,24.6145821 L216.600437,16.3952373 C217.278733,14.0810528 218.595424,12.8840608 219.672717,12.8042614 C219.672717,12.9239606 219.632817,13.0436598 219.632817,13.1234592 C219.632817,14.9588469 220.989408,15.9563402 222.744996,15.9563402 C224.460685,15.9563402 225.857175,14.5199499 225.857175,12.5249633 C225.857175,10.5698764 224.380885,8.85418789 222.066701,8.85418789 C219.513118,8.85418789 217.358532,10.5698764 216.24134,14.0411531 L216.24134,9.25318521 L208.021995,9.25318521 L208.021995,12.564863 L210.775076,12.564863 L210.775076,24.6145821 L208.021995,24.6145821 L208.021995,27.9262599 Z M245.368144,19.3478175 L232.64013,19.3478175 C232.879528,23.6968883 234.635116,25.1332786 237.587696,25.1332786 C239.822081,25.1332786 241.218572,24.2155848 242.056466,21.8615006 L245.168646,21.8615006 C244.45045,25.7716744 241.817068,28.3252572 236.590203,28.3252572 C230.365845,28.3252572 226.57537,24.4948829 226.57537,18.7493215 C226.57537,13.0835595 230.764842,8.81428815 236.390704,8.81428815 C242.694862,8.81428815 245.647442,13.2830582 245.368144,19.3478175 Z M236.271005,11.5274699 C234.196219,11.5274699 232.919428,12.8441611 232.680029,16.8341343 L239.662482,16.8341343 C239.462984,13.0436598 238.425591,11.5274699 236.271005,11.5274699 Z M252.627011,28.2853575 C249.315334,28.2853575 246.92135,26.3701703 246.92135,23.3377907 C246.92135,22.100899 247.400146,20.9438068 248.238041,20.1059124 C249.474932,18.8690207 251.39012,18.071026 255.978589,17.4725301 C258.173074,17.1533322 258.372573,17.1134325 258.372573,16.6346357 L258.372573,14.9987467 C258.372573,12.6047627 257.25538,11.7269686 254.941196,11.7269686 C254.143201,11.7269686 253.305307,11.8865675 252.547212,12.2057654 C253.145708,12.6446625 253.504805,13.3229579 253.504805,14.2406517 C253.504805,15.6371424 252.307813,16.7144351 250.671924,16.7144351 C248.637038,16.7144351 247.639545,15.397744 247.639545,13.9214539 C247.639545,10.4900769 251.908816,8.85418789 256.497285,8.85418789 C262.123148,8.85418789 264.118134,11.4875702 264.118134,15.3578442 L264.118134,23.8564872 C264.118134,24.7741811 264.477232,24.9736797 265.115628,24.9736797 C265.554525,24.9736797 265.993422,24.5347827 266.352519,23.1781918 L268.307606,23.8165875 C267.549511,26.8888669 266.073221,28.2853575 263.399939,28.2853575 C261.125654,28.2853575 259.330166,27.0883655 259.010969,24.335284 L258.81147,24.335284 C257.614478,27.168165 255.380093,28.2853575 252.627011,28.2853575 Z M255.340193,24.8938803 C257.135681,24.8938803 258.372573,23.2180915 258.372573,20.8241076 L258.372573,18.9887199 C258.013475,19.0685193 257.574578,19.1084191 256.577085,19.3079177 C253.744204,19.7867145 252.86641,20.7044084 252.86641,22.4998963 C252.86641,23.7766877 253.584605,24.8938803 255.340193,24.8938803 Z M269.025801,28.2853575 L272.098081,28.2853575 L272.736476,25.7716744 C273.933468,27.1282653 275.888555,28.3252572 278.801236,28.3252572 C283.349805,28.3252572 285.863488,25.4125768 285.863488,22.1806985 C285.863488,18.4700234 283.110407,17.1533322 279.040634,16.0760394 C275.489558,15.1583456 274.412265,14.6396491 274.412265,13.2830582 C274.412265,12.2057654 275.21026,11.4875702 276.766349,11.4875702 C278.761336,11.4875702 280.676523,13.0436598 282.112913,15.2780448 L285.185193,15.2780448 L285.185193,8.89408762 L282.073014,8.89408762 L281.434618,11.1284726 C280.277526,9.731982 278.521938,8.81428815 276.088054,8.81428815 C271.938482,8.81428815 269.305099,11.5673697 269.305099,14.8391477 C269.305099,18.1907252 271.499585,19.6271156 275.968355,20.7842078 C279.67903,21.7418014 280.716423,22.3003977 280.716423,23.736788 C280.716423,24.8938803 279.958328,25.6519752 278.282539,25.6519752 C276.008254,25.6519752 273.73397,23.9362867 272.098081,21.4226035 L269.025801,21.4226035 L269.025801,28.2853575 Z M290.155243,5.06371332 L290.155243,9.45268387 L286.723866,9.45268387 L286.723866,12.564863 L290.035544,12.564863 L290.035544,21.9413001 C290.035544,26.2105714 292.030531,28.3252572 296.100303,28.3252572 C299.850878,28.3252572 301.805965,26.3701703 302.683759,21.8216009 L300.289775,21.1433054 C299.57158,23.736788 299.012984,24.6544819 297.815992,24.6544819 C296.459401,24.6544819 295.860905,23.6968883 295.860905,21.9811998 L295.860905,12.564863 L301.845865,12.564863 L301.845865,9.45268387 L295.860905,9.45268387 L295.860905,4.38541787 L290.155243,5.06371332 Z M316.931634,28.5646556 C324.033787,28.5646556 327.904061,24.2155848 328.582356,17.4326303 L324.751982,17.4326303 C324.073687,21.8216009 321.799402,24.8140808 317.849328,24.8140808 C313.340659,24.8140808 310.587577,21.7418014 310.587577,14.5598496 C310.587577,7.05869993 313.220959,4.30561841 316.971534,4.30561841 C320.283212,4.30561841 322.517597,6.73950208 324.113586,11.5673697 L328.06366,11.5673697 L328.06366,1.11363983 L324.472684,1.11363983 L323.634789,4.14601948 C322.0388,2.1909326 319.525117,1.03384036 316.17354,1.03384036 C309.310786,1.03384036 303.485425,6.77940181 303.485425,14.9588469 C303.485425,23.0584926 308.752189,28.5646556 316.931634,28.5646556 Z M335.229995,28.2853575 C331.918317,28.2853575 329.524333,26.3701703 329.524333,23.3377907 C329.524333,22.100899 330.00313,20.9438068 330.841024,20.1059124 C332.077916,18.8690207 333.993103,18.071026 338.581573,17.4725301 C340.776058,17.1533322 340.975556,17.1134325 340.975556,16.6346357 L340.975556,14.9987467 C340.975556,12.6047627 339.858364,11.7269686 337.544179,11.7269686 C336.746185,11.7269686 335.90829,11.8865675 335.150196,12.2057654 C335.748692,12.6446625 336.107789,13.3229579 336.107789,14.2406517 C336.107789,15.6371424 334.910797,16.7144351 333.274908,16.7144351 C331.240022,16.7144351 330.242528,15.397744 330.242528,13.9214539 C330.242528,10.4900769 334.5118,8.85418789 339.100269,8.85418789 C344.726131,8.85418789 346.721118,11.4875702 346.721118,15.3578442 L346.721118,23.8564872 C346.721118,24.7741811 347.080215,24.9736797 347.718611,24.9736797 C348.157508,24.9736797 348.596405,24.5347827 348.955503,23.1781918 L350.91059,23.8165875 C350.152495,26.8888669 348.676205,28.2853575 346.002923,28.2853575 C343.728638,28.2853575 341.93315,27.0883655 341.613952,24.335284 L341.414454,24.335284 C340.217462,27.168165 337.983077,28.2853575 335.229995,28.2853575 Z M337.943177,24.8938803 C339.738665,24.8938803 340.975556,23.2180915 340.975556,20.8241076 L340.975556,18.9887199 C340.616459,19.0685193 340.177562,19.1084191 339.180068,19.3079177 C336.347188,19.7867145 335.469393,20.7044084 335.469393,22.4998963 C335.469393,23.7766877 336.187589,24.8938803 337.943177,24.8938803 Z M351.389387,27.9262599 L362.042615,27.9262599 L362.042615,24.6145821 L359.967829,24.6145821 L359.967829,17.3129311 C359.967829,14.6396491 361.683517,12.7643616 363.558805,12.7643616 C364.3568,12.7643616 364.955296,13.00376 365.394193,13.4027574 C365.992689,14.0012533 366.232087,14.9987467 366.232087,16.2356384 L366.232087,24.6145821 L364.117401,24.6145821 L364.117401,27.9262599 L374.77063,27.9262599 L374.77063,24.6145821 L372.097348,24.6145821 L372.097348,15.4376437 C372.097348,11.5673697 370.421559,8.85418789 366.391686,8.85418789 C362.960309,8.85418789 360.925423,11.0087734 359.608731,14.1608523 L359.608731,9.25318521 L351.389387,9.25318521 L351.389387,12.564863 L354.142468,12.564863 L354.142468,24.6145821 L351.389387,24.6145821 L351.389387,27.9262599 Z M384.927653,28.3252572 C389.635821,28.3252572 392.428802,25.532276 393.306597,21.502403 L390.194417,21.502403 C389.436323,23.6569886 387.960032,24.93378 385.805447,24.93378 C382.693268,24.93378 381.097278,22.3801971 381.097278,18.4700234 C381.097278,14.1608523 383.052365,11.6870689 385.685748,11.6870689 C387.241837,11.6870689 388.199431,12.2456651 388.758027,12.9638603 C387.920133,13.2830582 387.082238,14.200752 387.082238,15.4775434 C387.082238,16.9937333 388.119631,18.3104244 390.074718,18.3104244 C392.149504,18.3104244 393.266697,16.8740341 393.266697,14.8790475 C393.266697,12.0461665 390.513615,8.81428815 385.127151,8.81428815 C379.062392,8.81428815 374.833021,12.8840608 374.833021,18.9089204 C374.833021,24.5347827 378.583595,28.3252572 384.927653,28.3252572 Z M413.576817,19.3478175 L400.848803,19.3478175 C401.088201,23.6968883 402.843789,25.1332786 405.796369,25.1332786 C408.030754,25.1332786 409.427245,24.2155848 410.265139,21.8615006 L413.377319,21.8615006 C412.659123,25.7716744 410.025741,28.3252572 404.798876,28.3252572 C398.574518,28.3252572 394.784043,24.4948829 394.784043,18.7493215 C394.784043,13.0835595 398.973515,8.81428815 404.599377,8.81428815 C410.903535,8.81428815 413.856115,13.2830582 413.576817,19.3478175 Z M404.479678,11.5274699 C402.404892,11.5274699 401.128101,12.8441611 400.888702,16.8341343 L407.871155,16.8341343 C407.671657,13.0436598 406.634264,11.5274699 404.479678,11.5274699 Z M414.824666,27.9262599 L414.824666,24.6145821 L417.577747,24.6145821 L417.577747,12.564863 L414.824666,12.564863 L414.824666,9.25318521 L423.044011,9.25318521 L423.044011,14.0411531 C424.161203,10.5698764 426.315789,8.85418789 428.869372,8.85418789 C431.183556,8.85418789 432.659846,10.5698764 432.659846,12.5249633 C432.659846,14.5199499 431.263355,15.9563402 429.547667,15.9563402 C427.792079,15.9563402 426.435488,14.9588469 426.435488,13.1234592 C426.435488,13.0436598 426.475388,12.9239606 426.475388,12.8042614 C425.398095,12.8840608 424.081404,14.0810528 423.403108,16.3952373 L423.403108,24.6145821 L426.874385,24.6145821 L426.874385,27.9262599 L414.824666,27.9262599 Z M433.860509,28.6045554 C431.865522,28.6045554 430.309433,27.0484658 430.309433,25.0933789 C430.309433,23.0983923 431.865522,21.5423027 433.900409,21.5423027 C435.895395,21.5423027 437.451485,23.0983923 437.451485,25.0534792 C437.451485,27.0085661 435.895395,28.6045554 433.860509,28.6045554 Z M441.158489,27.9262599 L451.811718,27.9262599 L451.811718,24.6145821 L449.736932,24.6145821 L449.736932,17.3129311 C449.736932,14.6396491 451.45262,12.7643616 453.327907,12.7643616 C454.125902,12.7643616 454.724398,13.00376 455.163295,13.4027574 C455.761791,14.0012533 456.001189,14.9987467 456.001189,16.2356384 L456.001189,24.6145821 L453.886504,24.6145821 L453.886504,27.9262599 L464.539732,27.9262599 L464.539732,24.6145821 L461.86645,24.6145821 L461.86645,15.4376437 C461.86645,11.5673697 460.190661,8.85418789 456.160788,8.85418789 C452.729411,8.85418789 450.694525,11.0087734 449.377834,14.1608523 L449.377834,9.25318521 L441.158489,9.25318521 L441.158489,12.564863 L443.911571,12.564863 L443.911571,24.6145821 L441.158489,24.6145821 L441.158489,27.9262599 Z M483.358653,19.3478175 L470.630638,19.3478175 C470.870036,23.6968883 472.625625,25.1332786 475.578205,25.1332786 C477.81259,25.1332786 479.20908,24.2155848 480.046975,21.8615006 L483.159154,21.8615006 C482.440959,25.7716744 479.807576,28.3252572 474.580711,28.3252572 C468.356353,28.3252572 464.565879,24.4948829 464.565879,18.7493215 C464.565879,13.0835595 468.755351,8.81428815 474.381213,8.81428815 C480.685371,8.81428815 483.637951,13.2830582 483.358653,19.3478175 Z M474.261514,11.5274699 C472.186728,11.5274699 470.909936,12.8441611 470.670538,16.8341343 L477.652991,16.8341343 C477.453492,13.0436598 476.416099,11.5274699 474.261514,11.5274699 Z M487.471484,5.06371332 L487.471484,9.45268387 L484.040107,9.45268387 L484.040107,12.564863 L487.351785,12.564863 L487.351785,21.9413001 C487.351785,26.2105714 489.346771,28.3252572 493.416544,28.3252572 C497.167119,28.3252572 499.122206,26.3701703 500,21.8216009 L497.606016,21.1433054 C496.887821,23.736788 496.329225,24.6544819 495.132233,24.6544819 C493.775642,24.6544819 493.177146,23.6968883 493.177146,21.9811998 L493.177146,12.564863 L499.162106,12.564863 L499.162106,9.45268387 L493.177146,9.45268387 L493.177146,4.38541787 L487.471484,5.06371332 Z" id="AdvancedBreastCancer"></path>
            </g>
        </g>
    </g>
</svg>